<svg width="219" height="64" viewBox="0 0 219 64" fill="none" xmlns="http://www.w3.org/2000/svg">
<g clip-path="url(#clip0_2830_1628)">
<rect x="5" y="59" width="54" height="209" rx="8" transform="rotate(-90 5 59)" fill="#EF5D22"/>
<path d="M43.7732 24.6517C43.2577 21.3302 45.6519 18.3468 49.3094 17.2537C49.9585 17.0596 50.6588 17.1149 51.2677 17.4082C51.8765 17.7016 52.3481 18.2109 52.5864 18.8326L53.7606 21.8953C53.9496 22.388 53.9838 22.9247 53.8587 23.4365C53.7337 23.9483 53.4551 24.412 53.0587 24.7678L49.5659 27.8965C49.3937 28.0511 49.2654 28.2466 49.1935 28.4641C49.1216 28.6816 49.1085 28.9136 49.1556 29.1374L49.188 29.2747L49.2717 29.618C49.706 31.2857 50.3679 32.8886 51.2394 34.3836C52.1888 35.9722 53.367 37.419 54.7377 38.6793L54.8457 38.7743C55.02 38.9257 55.2315 39.0304 55.4596 39.078C55.6876 39.1257 55.9243 39.1147 56.1467 39.0463L60.6626 37.6549C61.1758 37.4973 61.7255 37.4932 62.2411 37.6433C62.7566 37.7934 63.2146 38.0907 63.5562 38.4971L65.6941 41.0344C66.5848 42.0905 66.4769 43.6429 65.4538 44.575C62.6547 47.1281 58.8055 47.6508 56.1278 45.5466C52.8456 42.9569 50.0786 39.7985 47.9652 36.2291C45.8346 32.6625 44.4142 28.7346 43.7732 24.6517ZM51.9871 29.3117L54.8808 26.7137C55.6739 26.0022 56.2316 25.0752 56.4822 24.0515C56.7327 23.0278 56.6648 21.9542 56.2871 20.9685L55.1156 17.9058C54.6361 16.655 53.687 15.6301 52.4617 15.04C51.2365 14.4498 49.8273 14.3388 48.5213 14.7296C43.9784 16.0894 40.3316 20.0735 41.1036 25.0503C41.6435 28.5249 42.8879 32.9447 45.633 37.5598C47.9131 41.4085 50.8979 44.8139 54.4381 47.606C58.4546 50.761 63.8154 49.6838 67.2974 46.5103C68.2938 45.6028 68.8986 44.3578 68.9884 43.0291C69.0781 41.7004 68.6462 40.3883 67.7806 39.3605L65.6428 36.8206C64.9589 36.0086 64.0426 35.415 63.0115 35.1158C61.9804 34.8167 60.8814 34.8255 59.8555 35.1414L56.1062 36.2951C55.1382 35.3189 54.2903 34.2352 53.5797 33.0661C52.8933 31.8842 52.3585 30.6242 51.9871 29.3143V29.3117Z" fill="white" stroke="white"/>
<path d="M105.478 45H97.2598V30.498H86.0757V45H77.8579V12.2827H86.0757V24.2578H97.2598V12.2827H105.478V45ZM124.462 45.6592C119.804 45.6592 116.229 44.5459 113.739 42.3193C111.264 40.0928 110.026 36.9214 110.026 32.8052C110.026 28.7769 111.183 25.5615 113.498 23.1592C115.812 20.7568 119.049 19.5557 123.209 19.5557C126.989 19.5557 129.831 20.5737 131.735 22.6099C133.639 24.646 134.591 27.561 134.591 31.355V34.1235H117.738C117.812 35.2661 118.053 36.2256 118.463 37.002C118.874 37.7637 119.416 38.3716 120.089 38.8257C120.749 39.2798 121.518 39.6094 122.396 39.8145C123.275 40.0049 124.235 40.1001 125.275 40.1001C126.168 40.1001 127.047 40.0049 127.912 39.8145C128.776 39.6094 129.567 39.3457 130.285 39.0234C130.915 38.7451 131.493 38.4448 132.021 38.1226C132.562 37.8003 133.002 37.5146 133.339 37.2656H134.152V43.6157C133.522 43.8647 132.943 44.0991 132.416 44.3188C131.903 44.5239 131.193 44.7363 130.285 44.9561C129.45 45.1758 128.585 45.3442 127.692 45.4614C126.813 45.5933 125.736 45.6592 124.462 45.6592ZM127.011 29.4873C126.967 27.8613 126.586 26.6235 125.868 25.7739C125.165 24.9243 124.081 24.4995 122.616 24.4995C121.122 24.4995 119.95 24.9463 119.101 25.8398C118.266 26.7334 117.804 27.9492 117.716 29.4873H127.011ZM146.237 45H138.546V10.8105H146.237V45ZM176.317 32.3218C176.317 36.2622 175.314 39.4409 173.307 41.8579C171.315 44.2749 168.854 45.4834 165.924 45.4834C164.694 45.4834 163.625 45.3442 162.716 45.0659C161.808 44.7876 160.841 44.3555 159.816 43.7695V54.0527H152.125V20.3247H159.816V22.8955C160.944 21.9287 162.094 21.145 163.266 20.5444C164.438 19.9438 165.792 19.6436 167.331 19.6436C170.187 19.6436 172.399 20.7788 173.966 23.0493C175.534 25.3198 176.317 28.4106 176.317 32.3218ZM168.451 32.4756C168.451 30.0732 168.078 28.3301 167.331 27.2461C166.598 26.1621 165.448 25.6201 163.881 25.6201C163.192 25.6201 162.504 25.73 161.815 25.9497C161.142 26.1694 160.475 26.499 159.816 26.9385V39.353C160.226 39.5288 160.673 39.6533 161.156 39.7266C161.654 39.7998 162.24 39.8364 162.914 39.8364C164.789 39.8364 166.181 39.2285 167.089 38.0127C167.997 36.7822 168.451 34.9365 168.451 32.4756Z" fill="white"/>
</g>
<rect x="2.5" y="61.5" width="59" height="214" rx="10.5" transform="rotate(-90 2.5 61.5)" stroke="url(#paint0_linear_2830_1628)" stroke-width="5"/>
<defs>
<linearGradient id="paint0_linear_2830_1628" x1="32" y1="59" x2="32" y2="268" gradientUnits="userSpaceOnUse">
<stop offset="0.415625" stop-color="#717250"/>
<stop offset="1" stop-color="#4C4C4E"/>
</linearGradient>
<clipPath id="clip0_2830_1628">
<rect x="5" y="59" width="54" height="209" rx="8" transform="rotate(-90 5 59)" fill="white"/>
</clipPath>
</defs>
</svg>
