<svg width="1920" height="257" viewBox="0 0 1920 257" fill="none" xmlns="http://www.w3.org/2000/svg">
<g filter="url(#filter0_b_2309_1466)">
<rect x="183.5" y="61" width="191" height="135" rx="30" fill="white" fill-opacity="0.5"/>
<path d="M323.211 123C323.211 133.605 323.211 138.911 319.324 142.204C315.443 145.5 309.187 145.5 296.684 145.5H261.316C248.813 145.5 242.557 145.5 238.676 142.204C234.79 138.911 234.79 133.605 234.79 123V108C234.79 97.395 234.79 92.0888 238.676 88.7963C242.557 85.5 248.813 85.5 261.316 85.5H296.684C309.187 85.5 315.443 85.5 319.324 88.7963C323.211 92.0888 323.211 97.395 323.211 108V123Z" stroke="#4C4C4E" stroke-width="10"/>
<path d="M265.739 70.5L279.002 83.625L292.265 70.5M296.686 85.5V145.5" stroke="#4C4C4E" stroke-width="10" stroke-linecap="round"/>
<path d="M314.368 123C314.368 122.005 313.903 121.052 313.074 120.348C312.244 119.645 311.12 119.25 309.947 119.25C308.775 119.25 307.65 119.645 306.821 120.348C305.992 121.052 305.526 122.005 305.526 123C305.526 123.995 305.992 124.948 306.821 125.652C307.65 126.355 308.775 126.75 309.947 126.75C311.12 126.75 312.244 126.355 313.074 125.652C313.903 124.948 314.368 123.995 314.368 123ZM314.368 108C314.368 107.005 313.903 106.052 313.074 105.348C312.244 104.645 311.12 104.25 309.947 104.25C308.775 104.25 307.65 104.645 306.821 105.348C305.992 106.052 305.526 107.005 305.526 108C305.526 108.995 305.992 109.948 306.821 110.652C307.65 111.355 308.775 111.75 309.947 111.75C311.12 111.75 312.244 111.355 313.074 110.652C313.903 109.948 314.368 108.995 314.368 108Z" fill="#4C4C4E"/>
<path d="M261.231 158.688L255.709 180.5H249.703L246.202 167.009L242.804 180.5H236.798L231.275 158.688H236.959L239.962 173.322L243.624 158.688H249.059L252.53 173.322L255.694 158.688H261.231ZM272.716 176.208V172.78C271.847 172.868 271.144 172.946 270.606 173.015C270.069 173.073 269.542 173.195 269.024 173.381C268.575 173.537 268.224 173.776 267.97 174.099C267.726 174.411 267.604 174.831 267.604 175.358C267.604 176.13 267.809 176.662 268.219 176.955C268.639 177.238 269.254 177.38 270.064 177.38C270.514 177.38 270.973 177.277 271.441 177.072C271.91 176.867 272.335 176.579 272.716 176.208ZM272.716 178.757C272.364 179.05 272.047 179.313 271.764 179.548C271.49 179.782 271.119 180.017 270.65 180.251C270.191 180.476 269.742 180.646 269.303 180.764C268.873 180.881 268.268 180.939 267.486 180.939C266.031 180.939 264.82 180.451 263.854 179.475C262.896 178.498 262.418 177.268 262.418 175.783C262.418 174.562 262.662 173.576 263.15 172.824C263.639 172.072 264.342 171.477 265.26 171.037C266.188 170.588 267.296 170.275 268.585 170.1C269.874 169.924 271.261 169.787 272.745 169.689V169.602C272.745 168.693 272.408 168.068 271.734 167.727C271.07 167.375 270.069 167.199 268.731 167.199C268.126 167.199 267.418 167.312 266.607 167.536C265.797 167.751 265.006 168.029 264.234 168.371H263.795V164.401C264.303 164.255 265.123 164.084 266.256 163.889C267.389 163.684 268.531 163.581 269.684 163.581C272.516 163.581 274.576 164.055 275.865 165.002C277.164 165.939 277.813 167.375 277.813 169.309V180.5H272.716V178.757ZM287.906 180.822C285.816 180.822 284.293 180.393 283.336 179.533C282.389 178.674 281.915 177.268 281.915 175.314V167.624H279.952V164.05H281.915V159.348H287.042V164.05H291.979V167.624H287.042V173.454C287.042 174.03 287.047 174.533 287.057 174.963C287.066 175.393 287.145 175.778 287.291 176.12C287.428 176.462 287.667 176.735 288.009 176.94C288.36 177.136 288.868 177.233 289.532 177.233C289.806 177.233 290.162 177.175 290.602 177.058C291.051 176.94 291.363 176.833 291.539 176.735H291.979V180.354C291.422 180.5 290.831 180.612 290.206 180.69C289.581 180.778 288.814 180.822 287.906 180.822ZM302.159 180.939C300.802 180.939 299.557 180.769 298.424 180.427C297.301 180.085 296.324 179.558 295.494 178.845C294.674 178.132 294.034 177.238 293.575 176.164C293.116 175.08 292.887 173.806 292.887 172.341C292.887 170.769 293.136 169.431 293.634 168.327C294.132 167.224 294.806 166.315 295.655 165.603C296.476 164.919 297.438 164.416 298.541 164.094C299.654 163.762 300.812 163.596 302.013 163.596C302.921 163.596 303.829 163.703 304.737 163.918C305.646 164.123 306.559 164.455 307.477 164.914V169.309H306.817C306.612 169.113 306.358 168.898 306.056 168.664C305.763 168.43 305.44 168.215 305.089 168.02C304.718 167.814 304.298 167.644 303.829 167.507C303.36 167.36 302.838 167.287 302.262 167.287C300.953 167.287 299.938 167.746 299.215 168.664C298.502 169.572 298.146 170.798 298.146 172.341C298.146 173.991 298.526 175.222 299.288 176.032C300.06 176.843 301.08 177.248 302.35 177.248C302.994 177.248 303.561 177.175 304.049 177.028C304.537 176.882 304.957 176.706 305.309 176.501C305.65 176.296 305.943 176.086 306.188 175.871C306.432 175.646 306.642 175.446 306.817 175.271H307.477V179.665C307.184 179.792 306.842 179.938 306.451 180.104C306.07 180.271 305.68 180.407 305.279 180.515C304.781 180.651 304.312 180.754 303.873 180.822C303.443 180.9 302.872 180.939 302.159 180.939ZM325.318 180.5H320.162V172.341C320.162 171.677 320.133 171.018 320.074 170.363C320.025 169.699 319.928 169.211 319.781 168.898C319.605 168.527 319.352 168.264 319.02 168.107C318.688 167.941 318.243 167.858 317.687 167.858C317.267 167.858 316.842 167.937 316.412 168.093C315.982 168.249 315.523 168.498 315.035 168.84V180.5H309.908V157.707H315.035V165.866C315.875 165.153 316.69 164.597 317.481 164.196C318.282 163.796 319.166 163.596 320.133 163.596C321.812 163.596 323.097 164.128 323.985 165.192C324.874 166.247 325.318 167.78 325.318 169.792V180.5Z" fill="#4C4C4E"/>
</g>
<g filter="url(#filter1_b_2309_1466)">
<rect x="474.5" y="40" width="238" height="177" rx="30" fill="white" fill-opacity="0.5"/>
<path fill-rule="evenodd" clip-rule="evenodd" d="M630.875 62.5H567.625C558.115 62.5 550.375 69.0804 550.375 77.1667V82.0556H544.625C543.1 82.0556 541.637 82.5706 540.559 83.4875C539.481 84.4043 538.875 85.6478 538.875 86.9444C538.875 88.2411 539.481 89.4846 540.559 90.4014C541.637 91.3183 543.1 91.8333 544.625 91.8333H550.375V101.611H544.625C543.1 101.611 541.637 102.126 540.559 103.043C539.481 103.96 538.875 105.203 538.875 106.5C538.875 107.797 539.481 109.04 540.559 109.957C541.637 110.874 543.1 111.389 544.625 111.389H550.375V121.167H544.625C543.1 121.167 541.637 121.682 540.559 122.599C539.481 123.515 538.875 124.759 538.875 126.056C538.875 127.352 539.481 128.596 540.559 129.513C541.637 130.429 543.1 130.944 544.625 130.944H550.375V135.833C550.375 143.92 558.115 150.5 567.625 150.5H630.875C640.385 150.5 648.125 143.92 648.125 135.833V77.1667C648.125 69.0804 640.385 62.5 630.875 62.5ZM561.875 77.1667C561.875 74.4729 564.457 72.2778 567.625 72.2778V82.0556H561.875V77.1667ZM561.875 91.8333H567.625V101.611H561.875V91.8333ZM561.875 111.389H567.625V121.167H561.875V111.389ZM561.875 135.833V130.944H567.625V140.722C564.457 140.722 561.875 138.527 561.875 135.833ZM636.625 135.833C636.625 138.527 634.043 140.722 630.875 140.722H573.375V72.2778H630.875C634.043 72.2778 636.625 74.4729 636.625 77.1667V135.833ZM602.121 108.943C608.473 108.943 613.621 104.565 613.621 99.1653C613.621 93.7652 608.473 89.3876 602.121 89.3876C595.77 89.3876 590.621 93.7652 590.621 99.1653C590.621 104.565 595.77 108.943 602.121 108.943ZM587.752 120.116C587.752 116.626 593.146 113.13 602.127 113.13C610.867 113.13 616.502 116.626 616.502 120.116C616.502 121.867 610.557 123.612 602.127 123.612C593.146 123.612 587.752 121.862 587.752 120.116Z" fill="#4C4C4E"/>
<path d="M539.184 189.925C535.912 189.925 533.314 188.938 531.391 186.966C529.467 184.983 528.505 182.2 528.505 178.616C528.505 175.159 529.467 172.405 531.391 170.354C533.324 168.294 535.927 167.264 539.198 167.264C540.067 167.264 540.849 167.312 541.542 167.41C542.235 167.508 542.899 167.645 543.534 167.82C544.032 167.967 544.574 168.167 545.16 168.421C545.746 168.675 546.22 168.895 546.581 169.08V174.28H546.024C545.761 174.046 545.429 173.768 545.028 173.445C544.628 173.113 544.174 172.791 543.666 172.479C543.158 172.166 542.597 171.902 541.981 171.688C541.376 171.463 540.741 171.351 540.077 171.351C539.286 171.351 538.559 171.478 537.895 171.731C537.24 171.976 536.615 172.405 536.02 173.021C535.473 173.577 535.023 174.329 534.672 175.276C534.33 176.224 534.159 177.342 534.159 178.631C534.159 179.988 534.34 181.131 534.701 182.059C535.062 182.977 535.536 183.719 536.122 184.285C536.688 184.832 537.318 185.228 538.012 185.472C538.715 185.716 539.413 185.838 540.106 185.838C540.829 185.838 541.518 185.721 542.172 185.486C542.826 185.242 543.378 184.974 543.827 184.681C544.315 184.378 544.745 184.07 545.116 183.758C545.487 183.445 545.81 183.167 546.083 182.923H546.581V188.05C546.181 188.235 545.717 188.45 545.189 188.694C544.662 188.929 544.12 189.129 543.563 189.295C542.88 189.5 542.24 189.656 541.645 189.764C541.049 189.871 540.229 189.925 539.184 189.925ZM565.316 181.282C565.316 183.987 564.574 186.121 563.09 187.684C561.615 189.236 559.525 190.013 556.82 190.013C554.135 190.013 552.045 189.236 550.551 187.684C549.066 186.121 548.324 183.987 548.324 181.282C548.324 178.548 549.066 176.409 550.551 174.866C552.045 173.313 554.135 172.537 556.82 172.537C559.516 172.537 561.605 173.318 563.09 174.881C564.574 176.434 565.316 178.567 565.316 181.282ZM560.058 181.312C560.058 180.335 559.975 179.524 559.809 178.88C559.652 178.226 559.433 177.703 559.149 177.312C558.847 176.902 558.505 176.619 558.124 176.463C557.743 176.297 557.309 176.214 556.82 176.214C556.361 176.214 555.946 176.287 555.575 176.434C555.204 176.57 554.862 176.839 554.55 177.239C554.257 177.62 554.022 178.143 553.847 178.807C553.671 179.471 553.583 180.306 553.583 181.312C553.583 182.317 553.666 183.133 553.832 183.758C553.998 184.373 554.213 184.866 554.477 185.237C554.75 185.618 555.092 185.896 555.502 186.072C555.912 186.248 556.366 186.336 556.864 186.336C557.274 186.336 557.689 186.248 558.109 186.072C558.539 185.896 558.881 185.633 559.135 185.281C559.438 184.861 559.667 184.358 559.823 183.772C559.979 183.177 560.058 182.356 560.058 181.312ZM583.451 189.5H578.295V181.341C578.295 180.677 578.266 180.018 578.207 179.363C578.158 178.699 578.061 178.211 577.914 177.898C577.738 177.527 577.484 177.264 577.152 177.107C576.82 176.941 576.376 176.858 575.819 176.858C575.399 176.858 574.975 176.937 574.545 177.093C574.115 177.249 573.656 177.498 573.168 177.84V189.5H568.041V173.05H573.168V174.866C574.008 174.153 574.823 173.597 575.614 173.196C576.415 172.796 577.299 172.596 578.266 172.596C579.945 172.596 581.229 173.128 582.118 174.192C583.007 175.247 583.451 176.78 583.451 178.792V189.5ZM593.559 189.822C591.469 189.822 589.945 189.393 588.988 188.533C588.041 187.674 587.567 186.268 587.567 184.314V176.624H585.604V173.05H587.567V168.348H592.694V173.05H597.631V176.624H592.694V182.454C592.694 183.03 592.699 183.533 592.709 183.963C592.719 184.393 592.797 184.778 592.943 185.12C593.08 185.462 593.319 185.735 593.661 185.94C594.013 186.136 594.521 186.233 595.185 186.233C595.458 186.233 595.814 186.175 596.254 186.058C596.703 185.94 597.016 185.833 597.191 185.735H597.631V189.354C597.074 189.5 596.483 189.612 595.858 189.69C595.233 189.778 594.467 189.822 593.559 189.822ZM608.808 185.208V181.78C607.938 181.868 607.235 181.946 606.698 182.015C606.161 182.073 605.634 182.195 605.116 182.381C604.667 182.537 604.315 182.776 604.062 183.099C603.817 183.411 603.695 183.831 603.695 184.358C603.695 185.13 603.9 185.662 604.311 185.955C604.73 186.238 605.346 186.38 606.156 186.38C606.605 186.38 607.064 186.277 607.533 186.072C608.002 185.867 608.427 185.579 608.808 185.208ZM608.808 187.757C608.456 188.05 608.139 188.313 607.855 188.548C607.582 188.782 607.211 189.017 606.742 189.251C606.283 189.476 605.834 189.646 605.395 189.764C604.965 189.881 604.359 189.939 603.578 189.939C602.123 189.939 600.912 189.451 599.945 188.475C598.988 187.498 598.51 186.268 598.51 184.783C598.51 183.562 598.754 182.576 599.242 181.824C599.73 181.072 600.434 180.477 601.352 180.037C602.279 179.588 603.388 179.275 604.677 179.1C605.966 178.924 607.353 178.787 608.837 178.689V178.602C608.837 177.693 608.5 177.068 607.826 176.727C607.162 176.375 606.161 176.199 604.823 176.199C604.218 176.199 603.51 176.312 602.699 176.536C601.889 176.751 601.098 177.029 600.326 177.371H599.887V173.401C600.395 173.255 601.215 173.084 602.348 172.889C603.48 172.684 604.623 172.581 605.775 172.581C608.607 172.581 610.668 173.055 611.957 174.002C613.256 174.939 613.905 176.375 613.905 178.309V189.5H608.808V187.757ZM625.771 189.939C624.413 189.939 623.168 189.769 622.035 189.427C620.912 189.085 619.936 188.558 619.105 187.845C618.285 187.132 617.646 186.238 617.187 185.164C616.728 184.08 616.498 182.806 616.498 181.341C616.498 179.769 616.747 178.431 617.245 177.327C617.743 176.224 618.417 175.315 619.267 174.603C620.087 173.919 621.049 173.416 622.152 173.094C623.266 172.762 624.423 172.596 625.624 172.596C626.532 172.596 627.44 172.703 628.349 172.918C629.257 173.123 630.17 173.455 631.088 173.914V178.309H630.429C630.224 178.113 629.97 177.898 629.667 177.664C629.374 177.43 629.052 177.215 628.7 177.02C628.329 176.814 627.909 176.644 627.44 176.507C626.972 176.36 626.449 176.287 625.873 176.287C624.564 176.287 623.549 176.746 622.826 177.664C622.113 178.572 621.757 179.798 621.757 181.341C621.757 182.991 622.138 184.222 622.899 185.032C623.671 185.843 624.691 186.248 625.961 186.248C626.605 186.248 627.172 186.175 627.66 186.028C628.148 185.882 628.568 185.706 628.92 185.501C629.262 185.296 629.555 185.086 629.799 184.871C630.043 184.646 630.253 184.446 630.429 184.271H631.088V188.665C630.795 188.792 630.453 188.938 630.062 189.104C629.682 189.271 629.291 189.407 628.891 189.515C628.393 189.651 627.924 189.754 627.484 189.822C627.055 189.9 626.483 189.939 625.771 189.939ZM639.818 189.822C637.729 189.822 636.205 189.393 635.248 188.533C634.301 187.674 633.827 186.268 633.827 184.314V176.624H631.864V173.05H633.827V168.348H638.954V173.05H643.891V176.624H638.954V182.454C638.954 183.03 638.959 183.533 638.969 183.963C638.979 184.393 639.057 184.778 639.203 185.12C639.34 185.462 639.579 185.735 639.921 185.94C640.272 186.136 640.78 186.233 641.444 186.233C641.718 186.233 642.074 186.175 642.514 186.058C642.963 185.94 643.275 185.833 643.451 185.735H643.891V189.354C643.334 189.5 642.743 189.612 642.118 189.69C641.493 189.778 640.727 189.822 639.818 189.822ZM651.01 189.954C649.799 189.954 648.651 189.822 647.567 189.559C646.493 189.295 645.604 188.987 644.901 188.636V184.3H645.326C645.57 184.485 645.849 184.69 646.161 184.915C646.474 185.14 646.908 185.374 647.465 185.618C647.943 185.843 648.48 186.038 649.076 186.204C649.682 186.36 650.336 186.438 651.039 186.438C651.762 186.438 652.396 186.326 652.943 186.102C653.5 185.877 653.778 185.521 653.778 185.032C653.778 184.651 653.651 184.363 653.397 184.168C653.144 183.973 652.65 183.787 651.918 183.611C651.527 183.514 651.034 183.411 650.438 183.304C649.843 183.187 649.315 183.055 648.856 182.908C647.567 182.508 646.596 181.917 645.941 181.136C645.297 180.345 644.975 179.31 644.975 178.03C644.975 177.298 645.141 176.609 645.473 175.965C645.814 175.311 646.312 174.729 646.967 174.222C647.621 173.724 648.427 173.328 649.384 173.035C650.351 172.742 651.439 172.596 652.65 172.596C653.803 172.596 654.862 172.713 655.829 172.947C656.796 173.172 657.611 173.445 658.275 173.768V177.928H657.865C657.689 177.791 657.411 177.61 657.03 177.386C656.649 177.151 656.278 176.951 655.917 176.785C655.487 176.59 655.004 176.429 654.467 176.302C653.939 176.175 653.397 176.111 652.841 176.111C652.099 176.111 651.469 176.238 650.951 176.492C650.443 176.746 650.189 177.083 650.189 177.503C650.189 177.874 650.316 178.167 650.57 178.382C650.824 178.597 651.376 178.807 652.226 179.012C652.665 179.119 653.168 179.227 653.734 179.334C654.311 179.432 654.862 179.568 655.39 179.744C656.571 180.125 657.465 180.687 658.07 181.429C658.686 182.161 658.993 183.138 658.993 184.358C658.993 185.13 658.812 185.867 658.451 186.57C658.09 187.264 657.577 187.85 656.913 188.328C656.21 188.846 655.38 189.246 654.423 189.529C653.476 189.812 652.338 189.954 651.01 189.954Z" fill="#4C4C4E"/>
</g>
<rect x="812.5" y="20" width="303" height="217" rx="30" fill="white"/>
<path d="M1038.67 106.333H1038.67C1042.92 106.338 1046.31 104.917 1049.11 102.058C1051.95 99.1494 1053.33 95.7583 1053.33 91.6667C1053.33 87.3851 1051.93 83.9857 1049.14 81.1951C1046.35 78.4045 1042.95 77 1038.67 77C1034.58 77 1031.19 78.3812 1028.28 81.2265C1025.43 84.0228 1024 87.4111 1024 91.6618L1038.67 106.333ZM1038.67 106.333C1034.6 106.333 1031.22 104.934 1028.32 102.026M1038.67 106.333L1028.32 102.026M1028.32 102.026C1025.41 99.1186 1024.01 95.7365 1024 91.6623L1028.32 102.026ZM1016 141.833V153H912V141.833C912 137.634 913.135 133.85 915.425 130.383C917.781 126.818 921.178 123.583 925.752 120.726L925.753 120.725C930.278 117.897 935.79 115.713 942.365 114.236C948.966 112.753 956.172 112 964 112C971.996 112 979.282 112.755 985.878 114.236C992.452 115.713 997.961 117.897 1002.48 120.724L1002.48 120.725C1007.05 123.584 1010.4 126.809 1012.67 130.347C1014.89 133.818 1016 137.615 1016 141.833ZM889.338 106.333H889.333C885.268 106.333 881.891 104.934 878.983 102.026C876.076 99.1192 874.672 95.7379 874.667 91.6648C874.667 87.4127 876.091 84.0235 878.951 81.2265C881.861 78.3812 885.249 77 889.333 77C893.615 77 897.014 78.4045 899.805 81.1951C902.596 83.9857 904 87.3851 904 91.6667C904 95.7583 902.618 99.1494 899.773 102.058C896.977 104.917 893.589 106.338 889.338 106.333ZM988 72.9969V73C988 79.7481 985.717 85.3447 981.105 90.0261C976.525 94.6749 970.915 97 964 97C957.271 97 951.681 94.6907 946.995 90.0049C942.309 85.3191 940 79.729 940 73C940 66.0923 942.324 60.4845 946.974 55.9042C951.656 51.2919 957.253 49.0057 964.002 49C970.926 49.0004 976.544 51.3004 981.126 55.8831C985.709 60.466 988.005 66.0798 988 72.9969ZM856 153V142.3C856 137.299 858.422 133.019 864.359 129.376L862.267 125.967L864.359 129.376C870.372 125.686 878.593 123.667 889.333 123.667C890.953 123.667 892.516 123.693 894.024 123.746C893.142 125.606 892.402 127.514 891.807 129.469C890.598 133.439 890 137.566 890 141.833V153H856ZM1038 153V141.833C1038 137.454 1037.45 133.276 1036.34 129.315C1035.8 127.4 1035.13 125.544 1034.32 123.748C1035.75 123.699 1037.2 123.672 1038.67 123.667C1049.42 123.667 1057.65 125.653 1063.67 129.281C1069.55 132.826 1072 137.122 1072 142.3V153H1038Z" fill="#FEC341" stroke="#717250" stroke-width="8"/>
<path d="M914.144 205.132C912.708 205.718 910.841 206.29 908.541 206.846C906.256 207.403 904 207.681 901.773 207.681C896.632 207.681 892.53 206.202 889.469 203.243C886.422 200.269 884.898 196.058 884.898 190.608C884.898 185.481 886.422 181.373 889.469 178.282C892.53 175.191 896.712 173.646 902.015 173.646C904.754 173.646 906.981 173.909 908.695 174.437C910.409 174.949 912.181 175.652 914.012 176.546V184.214H913.265C912.87 183.907 912.298 183.475 911.551 182.918C910.819 182.347 910.101 181.863 909.398 181.468C908.578 180.999 907.625 180.596 906.542 180.259C905.472 179.922 904.337 179.754 903.136 179.754C901.729 179.754 900.448 179.974 899.291 180.413C898.133 180.853 897.101 181.526 896.192 182.435C895.328 183.313 894.64 184.427 894.127 185.774C893.629 187.122 893.38 188.689 893.38 190.477C893.38 194.3 894.339 197.12 896.258 198.936C898.177 200.752 900.799 201.661 904.125 201.661C904.417 201.661 904.762 201.653 905.157 201.639C905.553 201.624 905.897 201.602 906.19 201.573V195.157H899.84V189.026H914.144V205.132ZM936.468 189.598H935.831C935.538 189.495 935.113 189.422 934.557 189.378C934 189.319 933.385 189.29 932.711 189.29C931.905 189.29 931.056 189.407 930.162 189.642C929.283 189.876 928.426 190.154 927.591 190.477V207H919.901V182.325H927.591V185.862C927.943 185.54 928.426 185.137 929.042 184.654C929.671 184.156 930.243 183.76 930.755 183.467C931.312 183.13 931.957 182.845 932.689 182.61C933.436 182.361 934.139 182.237 934.798 182.237C935.047 182.237 935.326 182.244 935.633 182.259C935.941 182.273 936.219 182.295 936.468 182.325V189.598ZM963.099 194.673C963.099 198.731 961.986 201.932 959.759 204.275C957.547 206.604 954.413 207.769 950.355 207.769C946.327 207.769 943.192 206.604 940.951 204.275C938.724 201.932 937.611 198.731 937.611 194.673C937.611 190.572 938.724 187.364 940.951 185.049C943.192 182.72 946.327 181.556 950.355 181.556C954.398 181.556 957.533 182.728 959.759 185.071C961.986 187.4 963.099 190.601 963.099 194.673ZM955.211 194.717C955.211 193.252 955.086 192.037 954.837 191.07C954.603 190.088 954.273 189.305 953.849 188.719C953.395 188.104 952.882 187.679 952.311 187.444C951.739 187.195 951.087 187.071 950.355 187.071C949.667 187.071 949.044 187.181 948.487 187.4C947.931 187.605 947.418 188.008 946.949 188.609C946.51 189.18 946.158 189.964 945.895 190.96C945.631 191.956 945.499 193.208 945.499 194.717C945.499 196.226 945.624 197.449 945.873 198.387C946.122 199.31 946.444 200.049 946.839 200.606C947.25 201.177 947.762 201.595 948.377 201.858C948.993 202.122 949.674 202.254 950.421 202.254C951.036 202.254 951.659 202.122 952.289 201.858C952.933 201.595 953.446 201.199 953.827 200.672C954.281 200.042 954.625 199.288 954.859 198.409C955.094 197.515 955.211 196.285 955.211 194.717ZM990.104 207H982.413V204.275C981.08 205.389 979.857 206.238 978.744 206.824C977.63 207.396 976.305 207.681 974.767 207.681C972.32 207.681 970.409 206.912 969.032 205.374C967.669 203.821 966.988 201.492 966.988 198.387V182.325H974.723V194.563C974.723 195.838 974.752 196.878 974.811 197.684C974.884 198.489 975.045 199.17 975.294 199.727C975.528 200.24 975.887 200.628 976.371 200.892C976.869 201.155 977.557 201.287 978.436 201.287C978.978 201.287 979.615 201.155 980.348 200.892C981.095 200.628 981.783 200.269 982.413 199.815V182.325H990.104V207ZM1020.21 194.322C1020.21 198.262 1019.2 201.441 1017.2 203.858C1015.2 206.275 1012.74 207.483 1009.81 207.483C1008.58 207.483 1007.51 207.344 1006.6 207.066C1005.7 206.788 1004.73 206.355 1003.7 205.77V216.053H996.014V182.325H1003.7V184.896C1004.83 183.929 1005.98 183.145 1007.15 182.544C1008.33 181.944 1009.68 181.644 1011.22 181.644C1014.08 181.644 1016.29 182.779 1017.85 185.049C1019.42 187.32 1020.21 190.411 1020.21 194.322ZM1012.34 194.476C1012.34 192.073 1011.97 190.33 1011.22 189.246C1010.49 188.162 1009.34 187.62 1007.77 187.62C1007.08 187.62 1006.39 187.73 1005.7 187.95C1005.03 188.169 1004.36 188.499 1003.7 188.938V201.353C1004.11 201.529 1004.56 201.653 1005.04 201.727C1005.54 201.8 1006.13 201.836 1006.8 201.836C1008.68 201.836 1010.07 201.229 1010.98 200.013C1011.89 198.782 1012.34 196.937 1012.34 194.476ZM1031.87 207.681C1030.06 207.681 1028.34 207.483 1026.71 207.088C1025.1 206.692 1023.77 206.231 1022.71 205.704V199.2H1023.35C1023.71 199.478 1024.13 199.786 1024.6 200.123C1025.07 200.459 1025.72 200.811 1026.56 201.177C1027.27 201.514 1028.08 201.807 1028.97 202.056C1029.88 202.291 1030.86 202.408 1031.92 202.408C1033 202.408 1033.95 202.239 1034.77 201.902C1035.61 201.565 1036.03 201.031 1036.03 200.298C1036.03 199.727 1035.84 199.295 1035.46 199.002C1035.07 198.709 1034.33 198.431 1033.24 198.167C1032.65 198.021 1031.91 197.867 1031.02 197.706C1030.12 197.53 1029.33 197.332 1028.64 197.112C1026.71 196.512 1025.25 195.625 1024.27 194.454C1023.3 193.267 1022.82 191.714 1022.82 189.795C1022.82 188.697 1023.07 187.664 1023.57 186.697C1024.08 185.716 1024.83 184.844 1025.81 184.083C1026.79 183.335 1028 182.742 1029.43 182.303C1030.88 181.863 1032.52 181.644 1034.33 181.644C1036.06 181.644 1037.65 181.819 1039.1 182.171C1040.55 182.508 1041.78 182.918 1042.77 183.401V189.642H1042.16C1041.89 189.437 1041.48 189.166 1040.9 188.829C1040.33 188.477 1039.78 188.177 1039.23 187.928C1038.59 187.635 1037.86 187.393 1037.06 187.203C1036.27 187.012 1035.46 186.917 1034.62 186.917C1033.51 186.917 1032.56 187.107 1031.79 187.488C1031.02 187.869 1030.64 188.375 1030.64 189.004C1030.64 189.561 1030.83 190 1031.21 190.323C1031.6 190.645 1032.42 190.96 1033.7 191.268C1034.36 191.429 1035.11 191.59 1035.96 191.751C1036.82 191.897 1037.65 192.103 1038.44 192.366C1040.22 192.938 1041.56 193.78 1042.46 194.893C1043.39 195.992 1043.85 197.457 1043.85 199.288C1043.85 200.445 1043.58 201.551 1043.04 202.605C1042.49 203.646 1041.72 204.524 1040.73 205.242C1039.67 206.019 1038.43 206.619 1036.99 207.044C1035.57 207.469 1033.87 207.681 1031.87 207.681Z" fill="black"/>
<g filter="url(#filter2_b_2309_1466)">
<rect x="1215.5" y="40" width="230" height="177" rx="30" fill="white" fill-opacity="0.5"/>
<path d="M1284.12 80.9214L1391.82 95.8501L1391.29 128.613L1295.54 126.822L1295.74 114.196" stroke="#4C4C4E" stroke-width="6" stroke-linecap="square"/>
<path d="M1255.75 63.5386L1405.25 85.5648V141.461H1272.59V119.92" stroke="#4C4C4E" stroke-width="6" stroke-linecap="square"/>
<path d="M1259.97 187.857C1258.3 187.857 1256.83 187.696 1255.56 187.374C1254.3 187.051 1253.13 186.651 1252.05 186.172V180.987H1252.55C1253.64 181.915 1254.85 182.627 1256.16 183.125C1257.48 183.624 1258.76 183.873 1260 183.873C1260.31 183.873 1260.72 183.838 1261.23 183.77C1261.75 183.702 1262.17 183.594 1262.48 183.448C1262.86 183.282 1263.18 183.052 1263.44 182.759C1263.71 182.457 1263.84 182.061 1263.84 181.573C1263.84 181.026 1263.62 180.582 1263.2 180.24C1262.77 179.898 1262.25 179.649 1261.66 179.493C1260.92 179.297 1260.12 179.112 1259.27 178.936C1258.43 178.76 1257.64 178.545 1256.91 178.292C1255.22 177.696 1254.01 176.895 1253.28 175.889C1252.55 174.883 1252.18 173.624 1252.18 172.11C1252.18 170.069 1253.04 168.418 1254.77 167.159C1256.5 165.889 1258.66 165.254 1261.25 165.254C1262.55 165.254 1263.83 165.386 1265.11 165.65C1266.4 165.914 1267.56 166.27 1268.57 166.719V171.7H1268.09C1267.28 171.006 1266.29 170.42 1265.11 169.942C1263.95 169.463 1262.76 169.224 1261.53 169.224C1261.05 169.224 1260.62 169.258 1260.24 169.327C1259.86 169.395 1259.46 169.527 1259.04 169.722C1258.69 169.878 1258.4 170.113 1258.14 170.425C1257.9 170.728 1257.78 171.07 1257.78 171.451C1257.78 172.007 1257.97 172.452 1258.36 172.784C1258.76 173.106 1259.53 173.399 1260.66 173.663C1261.39 173.829 1262.1 173.99 1262.77 174.146C1263.45 174.302 1264.18 174.517 1264.95 174.791C1266.47 175.337 1267.59 176.075 1268.32 177.002C1269.06 177.92 1269.44 179.136 1269.44 180.65C1269.44 182.818 1268.58 184.561 1266.87 185.879C1265.17 187.198 1262.87 187.857 1259.97 187.857ZM1291.61 187.461V179.244C1291.61 178.433 1291.6 177.75 1291.57 177.193C1291.54 176.636 1291.45 176.182 1291.31 175.831C1291.16 175.479 1290.93 175.225 1290.62 175.069C1290.31 174.903 1289.88 174.82 1289.33 174.82C1288.94 174.82 1288.55 174.908 1288.17 175.083C1287.79 175.25 1287.38 175.489 1286.93 175.801V187.461H1281.77V179.244C1281.77 178.443 1281.75 177.764 1281.71 177.208C1281.68 176.641 1281.59 176.182 1281.45 175.831C1281.3 175.479 1281.07 175.225 1280.76 175.069C1280.46 174.903 1280.03 174.82 1279.48 174.82C1279.06 174.82 1278.65 174.917 1278.25 175.113C1277.85 175.308 1277.46 175.538 1277.08 175.801V187.461H1271.96V171.011H1277.08V172.828C1277.92 172.115 1278.71 171.558 1279.46 171.158C1280.2 170.757 1281.03 170.557 1281.96 170.557C1282.97 170.557 1283.85 170.796 1284.61 171.275C1285.37 171.753 1285.95 172.466 1286.35 173.414C1287.34 172.496 1288.27 171.792 1289.14 171.304C1290.02 170.806 1290.91 170.557 1291.8 170.557C1292.57 170.557 1293.25 170.679 1293.85 170.923C1294.46 171.167 1294.97 171.534 1295.39 172.022C1295.85 172.549 1296.19 173.179 1296.42 173.912C1296.65 174.634 1296.77 175.582 1296.77 176.753V187.461H1291.61ZM1309.65 183.169V179.742C1308.78 179.83 1308.07 179.908 1307.54 179.976C1307 180.035 1306.47 180.157 1305.95 180.342C1305.5 180.499 1305.15 180.738 1304.9 181.06C1304.66 181.373 1304.53 181.792 1304.53 182.32C1304.53 183.091 1304.74 183.624 1305.15 183.917C1305.57 184.2 1306.18 184.341 1306.99 184.341C1307.44 184.341 1307.9 184.239 1308.37 184.034C1308.84 183.829 1309.26 183.541 1309.65 183.169ZM1309.65 185.718C1309.29 186.011 1308.98 186.275 1308.69 186.509C1308.42 186.744 1308.05 186.978 1307.58 187.212C1307.12 187.437 1306.67 187.608 1306.23 187.725C1305.8 187.842 1305.2 187.901 1304.42 187.901C1302.96 187.901 1301.75 187.413 1300.78 186.436C1299.83 185.459 1299.35 184.229 1299.35 182.745C1299.35 181.524 1299.59 180.538 1300.08 179.786C1300.57 179.034 1301.27 178.438 1302.19 177.999C1303.12 177.549 1304.23 177.237 1305.51 177.061C1306.8 176.885 1308.19 176.749 1309.67 176.651V176.563C1309.67 175.655 1309.34 175.03 1308.66 174.688C1308 174.336 1307 174.161 1305.66 174.161C1305.06 174.161 1304.35 174.273 1303.54 174.498C1302.73 174.712 1301.94 174.991 1301.16 175.333H1300.72V171.363C1301.23 171.216 1302.05 171.045 1303.19 170.85C1304.32 170.645 1305.46 170.542 1306.61 170.542C1309.45 170.542 1311.51 171.016 1312.79 171.963C1314.09 172.901 1314.74 174.336 1314.74 176.27V187.461H1309.65V185.718ZM1329.58 175.86H1329.16C1328.96 175.792 1328.68 175.743 1328.31 175.713C1327.94 175.674 1327.53 175.655 1327.08 175.655C1326.54 175.655 1325.97 175.733 1325.38 175.889C1324.79 176.045 1324.22 176.231 1323.66 176.446V187.461H1318.54V171.011H1323.66V173.37C1323.9 173.155 1324.22 172.886 1324.63 172.564C1325.05 172.232 1325.43 171.968 1325.77 171.773C1326.14 171.548 1326.57 171.358 1327.06 171.202C1327.56 171.036 1328.03 170.953 1328.47 170.953C1328.63 170.953 1328.82 170.958 1329.03 170.967C1329.23 170.977 1329.42 170.992 1329.58 171.011V175.86ZM1337.84 187.784C1335.75 187.784 1334.23 187.354 1333.27 186.495C1332.33 185.635 1331.85 184.229 1331.85 182.276V174.585H1329.89V171.011H1331.85V166.309H1336.98V171.011H1341.92V174.585H1336.98V180.416C1336.98 180.992 1336.98 181.495 1336.99 181.924C1337 182.354 1337.08 182.74 1337.23 183.082C1337.37 183.423 1337.6 183.697 1337.95 183.902C1338.3 184.097 1338.81 184.195 1339.47 184.195C1339.74 184.195 1340.1 184.136 1340.54 184.019C1340.99 183.902 1341.3 183.794 1341.48 183.697H1341.92V187.315C1341.36 187.461 1340.77 187.574 1340.14 187.652C1339.52 187.74 1338.75 187.784 1337.84 187.784ZM1367.67 187.461H1353.11V165.65H1358.59V183.301H1367.67V187.461ZM1385.77 179.244C1385.77 181.949 1385.03 184.083 1383.55 185.645C1382.07 187.198 1379.98 187.974 1377.28 187.974C1374.59 187.974 1372.5 187.198 1371.01 185.645C1369.52 184.083 1368.78 181.949 1368.78 179.244C1368.78 176.509 1369.52 174.371 1371.01 172.828C1372.5 171.275 1374.59 170.499 1377.28 170.499C1379.97 170.499 1382.06 171.28 1383.55 172.842C1385.03 174.395 1385.77 176.529 1385.77 179.244ZM1380.51 179.273C1380.51 178.296 1380.43 177.486 1380.27 176.841C1380.11 176.187 1379.89 175.665 1379.61 175.274C1379.3 174.864 1378.96 174.581 1378.58 174.424C1378.2 174.258 1377.77 174.175 1377.28 174.175C1376.82 174.175 1376.4 174.249 1376.03 174.395C1375.66 174.532 1375.32 174.8 1375.01 175.201C1374.71 175.582 1374.48 176.104 1374.3 176.768C1374.13 177.432 1374.04 178.267 1374.04 179.273C1374.04 180.279 1374.12 181.094 1374.29 181.719C1374.46 182.334 1374.67 182.828 1374.93 183.199C1375.21 183.58 1375.55 183.858 1375.96 184.034C1376.37 184.209 1376.82 184.297 1377.32 184.297C1377.73 184.297 1378.15 184.209 1378.57 184.034C1379 183.858 1379.34 183.594 1379.59 183.243C1379.89 182.823 1380.12 182.32 1380.28 181.734C1380.44 181.138 1380.51 180.318 1380.51 179.273ZM1399.02 168.536H1398.62C1398.42 168.477 1398.12 168.404 1397.7 168.316C1397.29 168.218 1396.9 168.169 1396.53 168.169C1395.49 168.169 1394.78 168.36 1394.4 168.741C1394.03 169.122 1393.84 169.834 1393.84 170.879V171.011H1397.92V174.585H1394.02V187.461H1388.89V174.585H1386.84V171.011H1388.89V170.557C1388.89 168.545 1389.42 167.037 1390.48 166.031C1391.53 165.025 1393.13 164.522 1395.27 164.522C1396.01 164.522 1396.7 164.551 1397.35 164.61C1397.99 164.659 1398.55 164.727 1399.02 164.815V168.536ZM1406.28 187.784C1404.19 187.784 1402.67 187.354 1401.71 186.495C1400.76 185.635 1400.29 184.229 1400.29 182.276V174.585H1398.33V171.011H1400.29V166.309H1405.42V171.011H1410.35V174.585H1405.42V180.416C1405.42 180.992 1405.42 181.495 1405.43 181.924C1405.44 182.354 1405.52 182.74 1405.67 183.082C1405.8 183.423 1406.04 183.697 1406.38 183.902C1406.74 184.097 1407.24 184.195 1407.91 184.195C1408.18 184.195 1408.54 184.136 1408.98 184.019C1409.43 183.902 1409.74 183.794 1409.91 183.697H1410.35V187.315C1409.8 187.461 1409.21 187.574 1408.58 187.652C1407.96 187.74 1407.19 187.784 1406.28 187.784Z" fill="#4C4C4E"/>
</g>
<g filter="url(#filter3_b_2309_1466)">
<rect x="1545.5" y="61" width="191" height="135" rx="30" fill="white" fill-opacity="0.5"/>
<mask id="path-17-outside-1_2309_1466" maskUnits="userSpaceOnUse" x="1601.5" y="70.7058" width="79" height="75" fill="black">
<rect fill="white" x="1601.5" y="70.7058" width="79" height="75"/>
<path fill-rule="evenodd" clip-rule="evenodd" d="M1653.91 79.0004C1653.71 79.2073 1653.42 79.3235 1653.13 79.3235H1628.87C1628.58 79.3235 1628.29 79.2073 1628.09 79.0004C1627.88 78.7936 1627.76 78.513 1627.76 78.2205C1627.76 77.928 1627.88 77.6475 1628.09 77.4406C1628.29 77.2338 1628.58 77.1176 1628.87 77.1176H1653.13C1653.42 77.1176 1653.71 77.2338 1653.91 77.4406C1654.12 77.6475 1654.24 77.928 1654.24 78.2205C1654.24 78.513 1654.12 78.7936 1653.91 79.0004ZM1623.35 73.8088V82.6323C1623.35 82.9248 1623.24 83.2053 1623.03 83.4122C1622.82 83.619 1622.54 83.7352 1622.25 83.7352C1621.96 83.7352 1621.68 83.619 1621.47 83.4122C1621.26 83.2053 1621.15 82.9248 1621.15 82.6323V73.8088C1621.15 73.5162 1621.26 73.2357 1621.47 73.0289C1621.68 72.822 1621.96 72.7058 1622.25 72.7058C1622.54 72.7058 1622.82 72.822 1623.03 73.0289C1623.24 73.2357 1623.35 73.5162 1623.35 73.8088ZM1660.53 83.4122C1660.32 83.619 1660.04 83.7352 1659.75 83.7352C1659.46 83.7352 1659.18 83.619 1658.97 83.4122C1658.76 83.2053 1658.65 82.9248 1658.65 82.6323V73.8088C1658.65 73.5162 1658.76 73.2357 1658.97 73.0289C1659.18 72.822 1659.46 72.7058 1659.75 72.7058C1660.04 72.7058 1660.32 72.822 1660.53 73.0289C1660.74 73.2357 1660.85 73.5162 1660.85 73.8088V82.6323C1660.85 82.9248 1660.74 83.2053 1660.53 83.4122ZM1613.43 123.441C1613.13 123.441 1612.85 123.557 1612.65 123.764C1612.44 123.971 1612.32 124.252 1612.32 124.544C1612.32 124.837 1612.44 125.117 1612.65 125.324C1612.85 125.531 1613.13 125.647 1613.43 125.647H1616.74V133.368C1616.74 133.66 1616.85 133.941 1617.06 134.147C1617.27 134.354 1617.55 134.471 1617.84 134.471C1618.13 134.471 1618.41 134.354 1618.62 134.147C1618.82 133.941 1618.94 133.66 1618.94 133.368V125.647H1632.18V133.368C1632.18 133.66 1632.29 133.941 1632.5 134.147C1632.71 134.354 1632.99 134.471 1633.28 134.471C1633.57 134.471 1633.85 134.354 1634.06 134.147C1634.27 133.941 1634.38 133.66 1634.38 133.368V125.647H1647.62V133.368C1647.62 133.66 1647.73 133.941 1647.94 134.147C1648.15 134.354 1648.43 134.471 1648.72 134.471C1649.01 134.471 1649.29 134.354 1649.5 134.147C1649.71 133.941 1649.82 133.66 1649.82 133.368V125.647H1663.06V133.368C1663.06 133.66 1663.18 133.941 1663.38 134.147C1663.59 134.354 1663.87 134.471 1664.16 134.471C1664.45 134.471 1664.73 134.354 1664.94 134.147C1665.15 133.941 1665.26 133.66 1665.26 133.368V125.647H1668.57C1668.87 125.647 1669.15 125.531 1669.35 125.324C1669.56 125.117 1669.68 124.837 1669.68 124.544C1669.68 124.252 1669.56 123.971 1669.35 123.764C1669.15 123.557 1668.87 123.441 1668.57 123.441H1665.26V112.412H1668.57C1668.87 112.412 1669.15 112.295 1669.35 112.089C1669.56 111.882 1669.68 111.601 1669.68 111.309C1669.68 111.016 1669.56 110.736 1669.35 110.529C1669.15 110.322 1668.87 110.206 1668.57 110.206H1665.26V100.279C1665.26 99.9868 1665.15 99.7063 1664.94 99.4994C1664.73 99.2926 1664.45 99.1764 1664.16 99.1764C1663.87 99.1764 1663.59 99.2926 1663.38 99.4994C1663.18 99.7063 1663.06 99.9868 1663.06 100.279V110.206H1649.82V100.279C1649.82 99.9868 1649.71 99.7063 1649.5 99.4994C1649.29 99.2926 1649.01 99.1764 1648.72 99.1764C1648.43 99.1764 1648.15 99.2926 1647.94 99.4994C1647.73 99.7063 1647.62 99.9868 1647.62 100.279V110.206H1634.38V100.279C1634.38 99.9868 1634.27 99.7063 1634.06 99.4994C1633.85 99.2926 1633.57 99.1764 1633.28 99.1764C1632.99 99.1764 1632.71 99.2926 1632.5 99.4994C1632.29 99.7063 1632.18 99.9868 1632.18 100.279V110.206H1618.94V100.279C1618.94 99.9868 1618.82 99.7063 1618.62 99.4994C1618.41 99.2926 1618.13 99.1764 1617.84 99.1764C1617.55 99.1764 1617.27 99.2926 1617.06 99.4994C1616.85 99.7063 1616.74 99.9868 1616.74 100.279V110.206H1613.43C1613.13 110.206 1612.85 110.322 1612.65 110.529C1612.44 110.736 1612.32 111.016 1612.32 111.309C1612.32 111.601 1612.44 111.882 1612.65 112.089C1612.85 112.295 1613.13 112.412 1613.43 112.412H1616.74V123.441H1613.43ZM1663.06 112.412V123.441H1649.82V112.412H1663.06ZM1647.62 112.412V123.441H1634.38V112.412H1647.62ZM1618.94 112.412H1632.18V123.441H1618.94V112.412ZM1666.37 79.3235H1675.74C1675.93 79.3235 1676.29 79.3235 1676.29 80.4264V90.3529H1605.71V80.4264C1605.71 80.1339 1605.82 79.8533 1606.03 79.6465C1606.24 79.4397 1606.52 79.3235 1606.81 79.3235H1615.63C1615.92 79.3235 1616.21 79.2073 1616.41 79.0004C1616.62 78.7936 1616.74 78.513 1616.74 78.2205C1616.74 77.928 1616.62 77.6475 1616.41 77.4406C1616.21 77.2338 1615.92 77.1176 1615.63 77.1176H1606.81C1604.98 77.1176 1603.5 78.6021 1603.5 80.4264V91.4558C1603.5 91.7483 1603.62 92.0289 1603.82 92.2357C1604.03 92.4426 1604.31 92.5588 1604.6 92.5588H1677.4C1677.69 92.5588 1677.97 92.4426 1678.18 92.2357C1678.38 92.0289 1678.5 91.7483 1678.5 91.4558V80.4264C1678.5 77.9867 1677.07 77.1176 1675.74 77.1176H1666.37C1666.08 77.1176 1665.79 77.2338 1665.59 77.4406C1665.38 77.6475 1665.26 77.928 1665.26 78.2205C1665.26 78.513 1665.38 78.7936 1665.59 79.0004C1665.79 79.2073 1666.08 79.3235 1666.37 79.3235ZM1678.5 139.985V98.0735C1678.5 97.7809 1678.38 97.5004 1678.18 97.2936C1677.97 97.0867 1677.69 96.9705 1677.4 96.9705C1677.1 96.9705 1676.82 97.0867 1676.62 97.2936C1676.41 97.5004 1676.29 97.7809 1676.29 98.0735V139.985C1676.29 140.278 1676.18 140.558 1675.97 140.765C1675.76 140.972 1675.48 141.088 1675.19 141.088H1606.81C1606.52 141.088 1606.24 140.972 1606.03 140.765C1605.82 140.558 1605.71 140.278 1605.71 139.985V98.0735C1605.71 97.7809 1605.59 97.5004 1605.38 97.2936C1605.18 97.0867 1604.9 96.9705 1604.6 96.9705C1604.31 96.9705 1604.03 97.0867 1603.82 97.2936C1603.62 97.5004 1603.5 97.7809 1603.5 98.0735V139.985C1603.5 141.809 1604.98 143.294 1606.81 143.294H1675.19C1677.02 143.294 1678.5 141.809 1678.5 139.985Z"/>
</mask>
<path fill-rule="evenodd" clip-rule="evenodd" d="M1653.91 79.0004C1653.71 79.2073 1653.42 79.3235 1653.13 79.3235H1628.87C1628.58 79.3235 1628.29 79.2073 1628.09 79.0004C1627.88 78.7936 1627.76 78.513 1627.76 78.2205C1627.76 77.928 1627.88 77.6475 1628.09 77.4406C1628.29 77.2338 1628.58 77.1176 1628.87 77.1176H1653.13C1653.42 77.1176 1653.71 77.2338 1653.91 77.4406C1654.12 77.6475 1654.24 77.928 1654.24 78.2205C1654.24 78.513 1654.12 78.7936 1653.91 79.0004ZM1623.35 73.8088V82.6323C1623.35 82.9248 1623.24 83.2053 1623.03 83.4122C1622.82 83.619 1622.54 83.7352 1622.25 83.7352C1621.96 83.7352 1621.68 83.619 1621.47 83.4122C1621.26 83.2053 1621.15 82.9248 1621.15 82.6323V73.8088C1621.15 73.5162 1621.26 73.2357 1621.47 73.0289C1621.68 72.822 1621.96 72.7058 1622.25 72.7058C1622.54 72.7058 1622.82 72.822 1623.03 73.0289C1623.24 73.2357 1623.35 73.5162 1623.35 73.8088ZM1660.53 83.4122C1660.32 83.619 1660.04 83.7352 1659.75 83.7352C1659.46 83.7352 1659.18 83.619 1658.97 83.4122C1658.76 83.2053 1658.65 82.9248 1658.65 82.6323V73.8088C1658.65 73.5162 1658.76 73.2357 1658.97 73.0289C1659.18 72.822 1659.46 72.7058 1659.75 72.7058C1660.04 72.7058 1660.32 72.822 1660.53 73.0289C1660.74 73.2357 1660.85 73.5162 1660.85 73.8088V82.6323C1660.85 82.9248 1660.74 83.2053 1660.53 83.4122ZM1613.43 123.441C1613.13 123.441 1612.85 123.557 1612.65 123.764C1612.44 123.971 1612.32 124.252 1612.32 124.544C1612.32 124.837 1612.44 125.117 1612.65 125.324C1612.85 125.531 1613.13 125.647 1613.43 125.647H1616.74V133.368C1616.74 133.66 1616.85 133.941 1617.06 134.147C1617.27 134.354 1617.55 134.471 1617.84 134.471C1618.13 134.471 1618.41 134.354 1618.62 134.147C1618.82 133.941 1618.94 133.66 1618.94 133.368V125.647H1632.18V133.368C1632.18 133.66 1632.29 133.941 1632.5 134.147C1632.71 134.354 1632.99 134.471 1633.28 134.471C1633.57 134.471 1633.85 134.354 1634.06 134.147C1634.27 133.941 1634.38 133.66 1634.38 133.368V125.647H1647.62V133.368C1647.62 133.66 1647.73 133.941 1647.94 134.147C1648.15 134.354 1648.43 134.471 1648.72 134.471C1649.01 134.471 1649.29 134.354 1649.5 134.147C1649.71 133.941 1649.82 133.66 1649.82 133.368V125.647H1663.06V133.368C1663.06 133.66 1663.18 133.941 1663.38 134.147C1663.59 134.354 1663.87 134.471 1664.16 134.471C1664.45 134.471 1664.73 134.354 1664.94 134.147C1665.15 133.941 1665.26 133.66 1665.26 133.368V125.647H1668.57C1668.87 125.647 1669.15 125.531 1669.35 125.324C1669.56 125.117 1669.68 124.837 1669.68 124.544C1669.68 124.252 1669.56 123.971 1669.35 123.764C1669.15 123.557 1668.87 123.441 1668.57 123.441H1665.26V112.412H1668.57C1668.87 112.412 1669.15 112.295 1669.35 112.089C1669.56 111.882 1669.68 111.601 1669.68 111.309C1669.68 111.016 1669.56 110.736 1669.35 110.529C1669.15 110.322 1668.87 110.206 1668.57 110.206H1665.26V100.279C1665.26 99.9868 1665.15 99.7063 1664.94 99.4994C1664.73 99.2926 1664.45 99.1764 1664.16 99.1764C1663.87 99.1764 1663.59 99.2926 1663.38 99.4994C1663.18 99.7063 1663.06 99.9868 1663.06 100.279V110.206H1649.82V100.279C1649.82 99.9868 1649.71 99.7063 1649.5 99.4994C1649.29 99.2926 1649.01 99.1764 1648.72 99.1764C1648.43 99.1764 1648.15 99.2926 1647.94 99.4994C1647.73 99.7063 1647.62 99.9868 1647.62 100.279V110.206H1634.38V100.279C1634.38 99.9868 1634.27 99.7063 1634.06 99.4994C1633.85 99.2926 1633.57 99.1764 1633.28 99.1764C1632.99 99.1764 1632.71 99.2926 1632.5 99.4994C1632.29 99.7063 1632.18 99.9868 1632.18 100.279V110.206H1618.94V100.279C1618.94 99.9868 1618.82 99.7063 1618.62 99.4994C1618.41 99.2926 1618.13 99.1764 1617.84 99.1764C1617.55 99.1764 1617.27 99.2926 1617.06 99.4994C1616.85 99.7063 1616.74 99.9868 1616.74 100.279V110.206H1613.43C1613.13 110.206 1612.85 110.322 1612.65 110.529C1612.44 110.736 1612.32 111.016 1612.32 111.309C1612.32 111.601 1612.44 111.882 1612.65 112.089C1612.85 112.295 1613.13 112.412 1613.43 112.412H1616.74V123.441H1613.43ZM1663.06 112.412V123.441H1649.82V112.412H1663.06ZM1647.62 112.412V123.441H1634.38V112.412H1647.62ZM1618.94 112.412H1632.18V123.441H1618.94V112.412ZM1666.37 79.3235H1675.74C1675.93 79.3235 1676.29 79.3235 1676.29 80.4264V90.3529H1605.71V80.4264C1605.71 80.1339 1605.82 79.8533 1606.03 79.6465C1606.24 79.4397 1606.52 79.3235 1606.81 79.3235H1615.63C1615.92 79.3235 1616.21 79.2073 1616.41 79.0004C1616.62 78.7936 1616.74 78.513 1616.74 78.2205C1616.74 77.928 1616.62 77.6475 1616.41 77.4406C1616.21 77.2338 1615.92 77.1176 1615.63 77.1176H1606.81C1604.98 77.1176 1603.5 78.6021 1603.5 80.4264V91.4558C1603.5 91.7483 1603.62 92.0289 1603.82 92.2357C1604.03 92.4426 1604.31 92.5588 1604.6 92.5588H1677.4C1677.69 92.5588 1677.97 92.4426 1678.18 92.2357C1678.38 92.0289 1678.5 91.7483 1678.5 91.4558V80.4264C1678.5 77.9867 1677.07 77.1176 1675.74 77.1176H1666.37C1666.08 77.1176 1665.79 77.2338 1665.59 77.4406C1665.38 77.6475 1665.26 77.928 1665.26 78.2205C1665.26 78.513 1665.38 78.7936 1665.59 79.0004C1665.79 79.2073 1666.08 79.3235 1666.37 79.3235ZM1678.5 139.985V98.0735C1678.5 97.7809 1678.38 97.5004 1678.18 97.2936C1677.97 97.0867 1677.69 96.9705 1677.4 96.9705C1677.1 96.9705 1676.82 97.0867 1676.62 97.2936C1676.41 97.5004 1676.29 97.7809 1676.29 98.0735V139.985C1676.29 140.278 1676.18 140.558 1675.97 140.765C1675.76 140.972 1675.48 141.088 1675.19 141.088H1606.81C1606.52 141.088 1606.24 140.972 1606.03 140.765C1605.82 140.558 1605.71 140.278 1605.71 139.985V98.0735C1605.71 97.7809 1605.59 97.5004 1605.38 97.2936C1605.18 97.0867 1604.9 96.9705 1604.6 96.9705C1604.31 96.9705 1604.03 97.0867 1603.82 97.2936C1603.62 97.5004 1603.5 97.7809 1603.5 98.0735V139.985C1603.5 141.809 1604.98 143.294 1606.81 143.294H1675.19C1677.02 143.294 1678.5 141.809 1678.5 139.985Z" fill="#4C4C4E"/>
<path d="M1653.91 79.0004L1655.33 80.4146L1655.33 80.4146L1653.91 79.0004ZM1628.09 79.0004L1629.5 77.5862L1629.5 77.5862L1628.09 79.0004ZM1628.09 77.4406L1629.5 78.8548L1629.5 78.8548L1628.09 77.4406ZM1621.47 83.4122L1622.88 81.998L1622.88 81.998L1621.47 83.4122ZM1621.47 73.0289L1622.88 74.4431L1622.88 74.4431L1621.47 73.0289ZM1660.53 83.4122L1659.12 81.998L1659.12 81.998L1660.53 83.4122ZM1660.53 73.0289L1659.12 74.4431L1659.12 74.4431L1660.53 73.0289ZM1612.65 123.764L1614.06 125.178L1614.06 125.178L1612.65 123.764ZM1612.65 125.324L1611.23 126.738L1611.23 126.738L1612.65 125.324ZM1616.74 125.647H1618.74V123.647H1616.74V125.647ZM1618.94 125.647V123.647H1616.94V125.647H1618.94ZM1632.18 125.647H1634.18V123.647H1632.18V125.647ZM1632.5 134.147L1633.91 132.733L1633.91 132.733L1632.5 134.147ZM1634.06 134.147L1632.65 132.733L1632.65 132.733L1634.06 134.147ZM1634.38 125.647V123.647H1632.38V125.647H1634.38ZM1647.62 125.647H1649.62V123.647H1647.62V125.647ZM1649.5 134.147L1648.09 132.733L1648.09 132.733L1649.5 134.147ZM1649.82 125.647V123.647H1647.82V125.647H1649.82ZM1663.06 125.647H1665.06V123.647H1663.06V125.647ZM1663.38 134.147L1664.8 132.733L1664.8 132.733L1663.38 134.147ZM1665.26 125.647V123.647H1663.26V125.647H1665.26ZM1669.35 125.324L1670.77 126.738L1670.77 126.738L1669.35 125.324ZM1669.35 123.764L1667.94 125.178L1667.94 125.178L1669.35 123.764ZM1665.26 123.441H1663.26V125.441H1665.26V123.441ZM1665.26 112.412V110.412H1663.26V112.412H1665.26ZM1669.35 110.529L1667.94 111.943L1667.94 111.943L1669.35 110.529ZM1665.26 110.206H1663.26V112.206H1665.26V110.206ZM1664.94 99.4994L1666.36 98.0852L1666.36 98.0852L1664.94 99.4994ZM1663.38 99.4994L1664.8 100.914L1664.8 100.914L1663.38 99.4994ZM1663.06 110.206V112.206H1665.06V110.206H1663.06ZM1649.82 110.206H1647.82V112.206H1649.82V110.206ZM1649.5 99.4994L1648.09 100.914L1648.09 100.914L1649.5 99.4994ZM1647.94 99.4994L1646.53 98.0852L1646.53 98.0852L1647.94 99.4994ZM1647.62 110.206V112.206H1649.62V110.206H1647.62ZM1634.38 110.206H1632.38V112.206H1634.38V110.206ZM1632.18 110.206V112.206H1634.18V110.206H1632.18ZM1618.94 110.206H1616.94V112.206H1618.94V110.206ZM1618.62 99.4994L1620.03 98.0852L1620.03 98.0852L1618.62 99.4994ZM1617.06 99.4994L1615.64 98.0852L1615.64 98.0852L1617.06 99.4994ZM1616.74 110.206V112.206H1618.74V110.206H1616.74ZM1612.65 110.529L1614.06 111.943L1614.06 111.943L1612.65 110.529ZM1612.65 112.089L1611.23 113.503L1611.23 113.503L1612.65 112.089ZM1616.74 112.412H1618.74V110.412H1616.74V112.412ZM1616.74 123.441V125.441H1618.74V123.441H1616.74ZM1663.06 123.441V125.441H1665.06V123.441H1663.06ZM1663.06 112.412H1665.06V110.412H1663.06V112.412ZM1649.82 123.441H1647.82V125.441H1649.82V123.441ZM1649.82 112.412V110.412H1647.82V112.412H1649.82ZM1647.62 123.441V125.441H1649.62V123.441H1647.62ZM1647.62 112.412H1649.62V110.412H1647.62V112.412ZM1634.38 123.441H1632.38V125.441H1634.38V123.441ZM1634.38 112.412V110.412H1632.38V112.412H1634.38ZM1632.18 112.412H1634.18V110.412H1632.18V112.412ZM1618.94 112.412V110.412H1616.94V112.412H1618.94ZM1632.18 123.441V125.441H1634.18V123.441H1632.18ZM1618.94 123.441H1616.94V125.441H1618.94V123.441ZM1676.29 90.3529V92.3529H1678.29V90.3529H1676.29ZM1605.71 90.3529H1603.71V92.3529H1605.71V90.3529ZM1606.03 79.6465L1604.61 78.2323L1604.61 78.2323L1606.03 79.6465ZM1606.81 79.3235L1606.81 81.3235H1606.81V79.3235ZM1616.41 79.0004L1617.83 80.4146L1617.83 80.4146L1616.41 79.0004ZM1665.59 77.4406L1667 78.8548L1667 78.8548L1665.59 77.4406ZM1665.59 79.0004L1667 77.5862L1667 77.5862L1665.59 79.0004ZM1678.18 97.2936L1676.76 98.7078L1676.76 98.7078L1678.18 97.2936ZM1676.62 97.2936L1678.03 98.7078L1678.03 98.7078L1676.62 97.2936ZM1675.97 140.765L1674.56 139.351L1674.56 139.351L1675.97 140.765ZM1606.03 140.765L1604.61 142.179H1604.61L1606.03 140.765ZM1605.38 97.2936L1603.97 98.7078L1603.97 98.7078L1605.38 97.2936ZM1603.82 97.2936L1605.24 98.7078L1605.24 98.7078L1603.82 97.2936ZM1653.13 81.3235C1653.96 81.3235 1654.74 80.9965 1655.33 80.4146L1652.5 77.5862C1652.67 77.418 1652.89 77.3235 1653.13 77.3235V81.3235ZM1628.87 81.3235H1653.13V77.3235H1628.87V81.3235ZM1626.67 80.4146C1627.26 80.9965 1628.04 81.3235 1628.87 81.3235V77.3235C1629.11 77.3235 1629.33 77.418 1629.5 77.5862L1626.67 80.4146ZM1625.76 78.2205C1625.76 79.0435 1626.09 79.8327 1626.67 80.4146L1629.5 77.5862C1629.67 77.7544 1629.76 77.9826 1629.76 78.2205H1625.76ZM1626.67 76.0264C1626.09 76.6083 1625.76 77.3976 1625.76 78.2205H1629.76C1629.76 78.4584 1629.67 78.6866 1629.5 78.8548L1626.67 76.0264ZM1628.87 75.1176C1628.04 75.1176 1627.26 75.4445 1626.67 76.0264L1629.5 78.8548C1629.33 79.0231 1629.11 79.1176 1628.87 79.1176V75.1176ZM1653.13 75.1176H1628.87V79.1176H1653.13V75.1176ZM1655.33 76.0264C1654.74 75.4445 1653.96 75.1176 1653.13 75.1176V79.1176C1652.89 79.1176 1652.67 79.0231 1652.5 78.8548L1655.33 76.0264ZM1656.24 78.2205C1656.24 77.3976 1655.91 76.6083 1655.33 76.0264L1652.5 78.8548C1652.33 78.6866 1652.24 78.4584 1652.24 78.2205H1656.24ZM1655.33 80.4146C1655.91 79.8327 1656.24 79.0435 1656.24 78.2205H1652.24C1652.24 77.9826 1652.33 77.7544 1652.5 77.5862L1655.33 80.4146ZM1625.35 82.6323V73.8088H1621.35V82.6323H1625.35ZM1624.44 84.8264C1625.03 84.2445 1625.35 83.4552 1625.35 82.6323H1621.35C1621.35 82.3944 1621.45 82.1662 1621.62 81.998L1624.44 84.8264ZM1622.25 85.7352C1623.07 85.7352 1623.86 85.4083 1624.44 84.8264L1621.62 81.998C1621.78 81.8297 1622.01 81.7352 1622.25 81.7352V85.7352ZM1620.06 84.8264C1620.64 85.4083 1621.43 85.7352 1622.25 85.7352V81.7352C1622.49 81.7352 1622.72 81.8297 1622.88 81.998L1620.06 84.8264ZM1619.15 82.6323C1619.15 83.4552 1619.47 84.2445 1620.06 84.8264L1622.88 81.998C1623.05 82.1662 1623.15 82.3944 1623.15 82.6323H1619.15ZM1619.15 73.8088V82.6323H1623.15V73.8088H1619.15ZM1620.06 71.6146C1619.47 72.1966 1619.15 72.9858 1619.15 73.8088H1623.15C1623.15 74.0467 1623.05 74.2748 1622.88 74.4431L1620.06 71.6146ZM1622.25 70.7058C1621.43 70.7058 1620.64 71.0327 1620.06 71.6146L1622.88 74.4431C1622.72 74.6113 1622.49 74.7058 1622.25 74.7058V70.7058ZM1624.44 71.6146C1623.86 71.0327 1623.07 70.7058 1622.25 70.7058V74.7058C1622.01 74.7058 1621.78 74.6113 1621.62 74.4431L1624.44 71.6146ZM1625.35 73.8088C1625.35 72.9858 1625.03 72.1966 1624.44 71.6146L1621.62 74.4431C1621.45 74.2748 1621.35 74.0467 1621.35 73.8088H1625.35ZM1659.75 85.7352C1660.57 85.7352 1661.36 85.4083 1661.94 84.8264L1659.12 81.998C1659.28 81.8297 1659.51 81.7352 1659.75 81.7352V85.7352ZM1657.56 84.8264C1658.14 85.4083 1658.93 85.7352 1659.75 85.7352V81.7352C1659.99 81.7352 1660.22 81.8297 1660.38 81.998L1657.56 84.8264ZM1656.65 82.6323C1656.65 83.4552 1656.97 84.2445 1657.56 84.8264L1660.38 81.998C1660.55 82.1662 1660.65 82.3944 1660.65 82.6323H1656.65ZM1656.65 73.8088V82.6323H1660.65V73.8088H1656.65ZM1657.56 71.6146C1656.97 72.1966 1656.65 72.9858 1656.65 73.8088H1660.65C1660.65 74.0467 1660.55 74.2748 1660.38 74.4431L1657.56 71.6146ZM1659.75 70.7058C1658.93 70.7058 1658.14 71.0327 1657.56 71.6146L1660.38 74.4431C1660.22 74.6113 1659.99 74.7058 1659.75 74.7058V70.7058ZM1661.94 71.6146C1661.36 71.0327 1660.57 70.7058 1659.75 70.7058V74.7058C1659.51 74.7058 1659.28 74.6113 1659.12 74.4431L1661.94 71.6146ZM1662.85 73.8088C1662.85 72.9858 1662.53 72.1966 1661.94 71.6146L1659.12 74.4431C1658.95 74.2748 1658.85 74.0467 1658.85 73.8088H1662.85ZM1662.85 82.6323V73.8088H1658.85V82.6323H1662.85ZM1661.94 84.8264C1662.53 84.2445 1662.85 83.4552 1662.85 82.6323H1658.85C1658.85 82.3944 1658.95 82.1662 1659.12 81.998L1661.94 84.8264ZM1614.06 125.178C1613.89 125.347 1613.66 125.441 1613.43 125.441V121.441C1612.6 121.441 1611.81 121.768 1611.23 122.35L1614.06 125.178ZM1614.32 124.544C1614.32 124.782 1614.23 125.01 1614.06 125.178L1611.23 122.35C1610.65 122.932 1610.32 123.721 1610.32 124.544H1614.32ZM1614.06 123.91C1614.23 124.078 1614.32 124.306 1614.32 124.544H1610.32C1610.32 125.367 1610.65 126.156 1611.23 126.738L1614.06 123.91ZM1613.43 123.647C1613.66 123.647 1613.89 123.742 1614.06 123.91L1611.23 126.738C1611.81 127.32 1612.6 127.647 1613.43 127.647V123.647ZM1616.74 123.647H1613.43V127.647H1616.74V123.647ZM1618.74 133.368V125.647H1614.74V133.368H1618.74ZM1618.47 132.733C1618.64 132.901 1618.74 133.13 1618.74 133.368H1614.74C1614.74 134.191 1615.06 134.98 1615.64 135.562L1618.47 132.733ZM1617.84 132.471C1618.08 132.471 1618.3 132.565 1618.47 132.733L1615.64 135.562C1616.23 136.144 1617.02 136.471 1617.84 136.471V132.471ZM1617.2 132.733C1617.37 132.565 1617.6 132.471 1617.84 132.471V136.471C1618.66 136.471 1619.45 136.144 1620.03 135.562L1617.2 132.733ZM1616.94 133.368C1616.94 133.13 1617.04 132.901 1617.2 132.733L1620.03 135.562C1620.61 134.98 1620.94 134.191 1620.94 133.368H1616.94ZM1616.94 125.647V133.368H1620.94V125.647H1616.94ZM1632.18 123.647H1618.94V127.647H1632.18V123.647ZM1634.18 133.368V125.647H1630.18V133.368H1634.18ZM1633.91 132.733C1634.08 132.901 1634.18 133.13 1634.18 133.368H1630.18C1630.18 134.191 1630.5 134.98 1631.09 135.562L1633.91 132.733ZM1633.28 132.471C1633.52 132.471 1633.75 132.565 1633.91 132.733L1631.09 135.562C1631.67 136.144 1632.46 136.471 1633.28 136.471V132.471ZM1632.65 132.733C1632.81 132.565 1633.04 132.471 1633.28 132.471V136.471C1634.1 136.471 1634.89 136.144 1635.47 135.562L1632.65 132.733ZM1632.38 133.368C1632.38 133.13 1632.48 132.901 1632.65 132.733L1635.47 135.562C1636.06 134.98 1636.38 134.191 1636.38 133.368H1632.38ZM1632.38 125.647V133.368H1636.38V125.647H1632.38ZM1647.62 123.647H1634.38V127.647H1647.62V123.647ZM1649.62 133.368V125.647H1645.62V133.368H1649.62ZM1649.35 132.733C1649.52 132.901 1649.62 133.13 1649.62 133.368H1645.62C1645.62 134.191 1645.94 134.98 1646.53 135.562L1649.35 132.733ZM1648.72 132.471C1648.96 132.471 1649.19 132.565 1649.35 132.733L1646.53 135.562C1647.11 136.144 1647.9 136.471 1648.72 136.471V132.471ZM1648.09 132.733C1648.25 132.565 1648.48 132.471 1648.72 132.471V136.471C1649.54 136.471 1650.33 136.144 1650.91 135.562L1648.09 132.733ZM1647.82 133.368C1647.82 133.13 1647.92 132.901 1648.09 132.733L1650.91 135.562C1651.5 134.98 1651.82 134.191 1651.82 133.368H1647.82ZM1647.82 125.647V133.368H1651.82V125.647H1647.82ZM1663.06 123.647H1649.82V127.647H1663.06V123.647ZM1665.06 133.368V125.647H1661.06V133.368H1665.06ZM1664.8 132.733C1664.96 132.901 1665.06 133.13 1665.06 133.368H1661.06C1661.06 134.191 1661.39 134.98 1661.97 135.562L1664.8 132.733ZM1664.16 132.471C1664.4 132.471 1664.63 132.565 1664.8 132.733L1661.97 135.562C1662.55 136.144 1663.34 136.471 1664.16 136.471V132.471ZM1663.53 132.733C1663.7 132.565 1663.92 132.471 1664.16 132.471V136.471C1664.98 136.471 1665.77 136.144 1666.36 135.562L1663.53 132.733ZM1663.26 133.368C1663.26 133.13 1663.36 132.901 1663.53 132.733L1666.36 135.562C1666.94 134.98 1667.26 134.191 1667.26 133.368H1663.26ZM1663.26 125.647V133.368H1667.26V125.647H1663.26ZM1668.57 123.647H1665.26V127.647H1668.57V123.647ZM1667.94 123.91C1668.11 123.741 1668.34 123.647 1668.57 123.647V127.647C1669.4 127.647 1670.19 127.32 1670.77 126.738L1667.94 123.91ZM1667.68 124.544C1667.68 124.306 1667.77 124.078 1667.94 123.91L1670.77 126.738C1671.35 126.156 1671.68 125.367 1671.68 124.544H1667.68ZM1667.94 125.178C1667.77 125.01 1667.68 124.782 1667.68 124.544H1671.68C1671.68 123.721 1671.35 122.932 1670.77 122.35L1667.94 125.178ZM1668.57 125.441C1668.34 125.441 1668.11 125.347 1667.94 125.178L1670.77 122.35C1670.19 121.768 1669.4 121.441 1668.57 121.441V125.441ZM1665.26 125.441H1668.57V121.441H1665.26V125.441ZM1663.26 112.412V123.441H1667.26V112.412H1663.26ZM1668.57 110.412H1665.26V114.412H1668.57V110.412ZM1667.94 110.674C1668.11 110.506 1668.34 110.412 1668.57 110.412V114.412C1669.4 114.412 1670.19 114.085 1670.77 113.503L1667.94 110.674ZM1667.68 111.309C1667.68 111.071 1667.77 110.843 1667.94 110.674L1670.77 113.503C1671.35 112.921 1671.68 112.132 1671.68 111.309H1667.68ZM1667.94 111.943C1667.77 111.775 1667.68 111.547 1667.68 111.309H1671.68C1671.68 110.486 1671.35 109.697 1670.77 109.115L1667.94 111.943ZM1668.57 112.206C1668.34 112.206 1668.11 112.111 1667.94 111.943L1670.77 109.115C1670.19 108.533 1669.4 108.206 1668.57 108.206V112.206ZM1665.26 112.206H1668.57V108.206H1665.26V112.206ZM1663.26 100.279V110.206H1667.26V100.279H1663.26ZM1663.53 100.914C1663.36 100.745 1663.26 100.517 1663.26 100.279H1667.26C1667.26 99.4564 1666.94 98.6671 1666.36 98.0852L1663.53 100.914ZM1664.16 101.176C1663.92 101.176 1663.7 101.082 1663.53 100.914L1666.36 98.0852C1665.77 97.5033 1664.98 97.1764 1664.16 97.1764V101.176ZM1664.8 100.914C1664.63 101.082 1664.4 101.176 1664.16 101.176V97.1764C1663.34 97.1764 1662.55 97.5033 1661.97 98.0852L1664.8 100.914ZM1665.06 100.279C1665.06 100.517 1664.96 100.745 1664.8 100.914L1661.97 98.0852C1661.39 98.6671 1661.06 99.4564 1661.06 100.279H1665.06ZM1665.06 110.206V100.279H1661.06V110.206H1665.06ZM1649.82 112.206H1663.06V108.206H1649.82V112.206ZM1647.82 100.279V110.206H1651.82V100.279H1647.82ZM1648.09 100.914C1647.92 100.745 1647.82 100.517 1647.82 100.279H1651.82C1651.82 99.4564 1651.5 98.6671 1650.91 98.0852L1648.09 100.914ZM1648.72 101.176C1648.48 101.176 1648.25 101.082 1648.09 100.914L1650.91 98.0852C1650.33 97.5033 1649.54 97.1764 1648.72 97.1764V101.176ZM1649.35 100.914C1649.19 101.082 1648.96 101.176 1648.72 101.176V97.1764C1647.9 97.1764 1647.11 97.5033 1646.53 98.0852L1649.35 100.914ZM1649.62 100.279C1649.62 100.517 1649.52 100.745 1649.35 100.914L1646.53 98.0852C1645.94 98.6671 1645.62 99.4564 1645.62 100.279H1649.62ZM1649.62 110.206V100.279H1645.62V110.206H1649.62ZM1634.38 112.206H1647.62V108.206H1634.38V112.206ZM1632.38 100.279V110.206H1636.38V100.279H1632.38ZM1632.65 100.914C1632.48 100.745 1632.38 100.517 1632.38 100.279H1636.38C1636.38 99.4564 1636.06 98.6671 1635.47 98.0852L1632.65 100.914ZM1633.28 101.176C1633.04 101.176 1632.81 101.082 1632.65 100.914L1635.47 98.0852C1634.89 97.5033 1634.1 97.1764 1633.28 97.1764V101.176ZM1633.91 100.914C1633.75 101.082 1633.52 101.176 1633.28 101.176V97.1764C1632.46 97.1764 1631.67 97.5033 1631.09 98.0852L1633.91 100.914ZM1634.18 100.279C1634.18 100.517 1634.08 100.745 1633.91 100.914L1631.09 98.0852C1630.5 98.6671 1630.18 99.4564 1630.18 100.279H1634.18ZM1634.18 110.206V100.279H1630.18V110.206H1634.18ZM1618.94 112.206H1632.18V108.206H1618.94V112.206ZM1616.94 100.279V110.206H1620.94V100.279H1616.94ZM1617.2 100.914C1617.04 100.745 1616.94 100.517 1616.94 100.279H1620.94C1620.94 99.4564 1620.61 98.6671 1620.03 98.0852L1617.2 100.914ZM1617.84 101.176C1617.6 101.176 1617.37 101.082 1617.2 100.914L1620.03 98.0852C1619.45 97.5033 1618.66 97.1764 1617.84 97.1764V101.176ZM1618.47 100.914C1618.3 101.082 1618.08 101.176 1617.84 101.176V97.1764C1617.02 97.1764 1616.23 97.5033 1615.64 98.0852L1618.47 100.914ZM1618.74 100.279C1618.74 100.517 1618.64 100.745 1618.47 100.914L1615.64 98.0852C1615.06 98.6671 1614.74 99.4564 1614.74 100.279H1618.74ZM1618.74 110.206V100.279H1614.74V110.206H1618.74ZM1613.43 112.206H1616.74V108.206H1613.43V112.206ZM1614.06 111.943C1613.89 112.111 1613.66 112.206 1613.43 112.206V108.206C1612.6 108.206 1611.81 108.533 1611.23 109.115L1614.06 111.943ZM1614.32 111.309C1614.32 111.547 1614.23 111.775 1614.06 111.943L1611.23 109.115C1610.65 109.697 1610.32 110.486 1610.32 111.309H1614.32ZM1614.06 110.674C1614.23 110.843 1614.32 111.071 1614.32 111.309H1610.32C1610.32 112.132 1610.65 112.921 1611.23 113.503L1614.06 110.674ZM1613.43 110.412C1613.66 110.412 1613.89 110.506 1614.06 110.674L1611.23 113.503C1611.81 114.085 1612.6 114.412 1613.43 114.412V110.412ZM1616.74 110.412H1613.43V114.412H1616.74V110.412ZM1618.74 123.441V112.412H1614.74V123.441H1618.74ZM1613.43 125.441H1616.74V121.441H1613.43V125.441ZM1665.06 123.441V112.412H1661.06V123.441H1665.06ZM1649.82 125.441H1663.06V121.441H1649.82V125.441ZM1647.82 112.412V123.441H1651.82V112.412H1647.82ZM1663.06 110.412H1649.82V114.412H1663.06V110.412ZM1649.62 123.441V112.412H1645.62V123.441H1649.62ZM1634.38 125.441H1647.62V121.441H1634.38V125.441ZM1632.38 112.412V123.441H1636.38V112.412H1632.38ZM1647.62 110.412H1634.38V114.412H1647.62V110.412ZM1632.18 110.412H1618.94V114.412H1632.18V110.412ZM1634.18 123.441V112.412H1630.18V123.441H1634.18ZM1618.94 125.441H1632.18V121.441H1618.94V125.441ZM1616.94 112.412V123.441H1620.94V112.412H1616.94ZM1675.74 77.3235H1666.37V81.3235H1675.74V77.3235ZM1678.29 80.4264C1678.29 79.7791 1678.21 78.8913 1677.63 78.1876C1676.89 77.2841 1675.87 77.3235 1675.74 77.3235V81.3235C1675.81 81.3235 1675.61 81.3333 1675.36 81.2646C1675.07 81.1799 1674.77 81.0028 1674.55 80.735C1674.35 80.4985 1674.3 80.2914 1674.29 80.2494C1674.28 80.2062 1674.29 80.2481 1674.29 80.4264H1678.29ZM1678.29 90.3529V80.4264H1674.29V90.3529H1678.29ZM1605.71 92.3529H1676.29V88.3529H1605.71V92.3529ZM1603.71 80.4264V90.3529H1607.71V80.4264H1603.71ZM1604.61 78.2323C1604.03 78.8142 1603.71 79.6034 1603.71 80.4264H1607.71C1607.71 80.6643 1607.61 80.8925 1607.44 81.0607L1604.61 78.2323ZM1606.81 77.3235C1605.99 77.3235 1605.2 77.6504 1604.61 78.2323L1607.44 81.0607C1607.27 81.2289 1607.05 81.3235 1606.81 81.3235L1606.81 77.3235ZM1615.63 77.3235H1606.81V81.3235H1615.63V77.3235ZM1615 77.5862C1615.17 77.418 1615.39 77.3235 1615.63 77.3235V81.3235C1616.46 81.3235 1617.24 80.9965 1617.83 80.4146L1615 77.5862ZM1614.74 78.2205C1614.74 77.9826 1614.83 77.7544 1615 77.5862L1617.83 80.4146C1618.41 79.8327 1618.74 79.0435 1618.74 78.2205H1614.74ZM1615 78.8548C1614.83 78.6866 1614.74 78.4584 1614.74 78.2205H1618.74C1618.74 77.3976 1618.41 76.6083 1617.83 76.0264L1615 78.8548ZM1615.63 79.1176C1615.39 79.1176 1615.17 79.0231 1615 78.8548L1617.83 76.0264C1617.24 75.4445 1616.46 75.1176 1615.63 75.1176V79.1176ZM1606.81 79.1176H1615.63V75.1176H1606.81V79.1176ZM1605.5 80.4264C1605.5 79.7067 1606.09 79.1176 1606.81 79.1176V75.1176C1603.88 75.1176 1601.5 77.4976 1601.5 80.4264H1605.5ZM1605.5 91.4558V80.4264H1601.5V91.4558H1605.5ZM1605.24 90.8215C1605.41 90.9897 1605.5 91.2179 1605.5 91.4558H1601.5C1601.5 92.2788 1601.83 93.068 1602.41 93.6499L1605.24 90.8215ZM1604.6 90.5588C1604.84 90.5588 1605.07 90.6533 1605.24 90.8215L1602.41 93.6499C1602.99 94.2318 1603.78 94.5588 1604.6 94.5588V90.5588ZM1677.4 90.5588H1604.6V94.5588H1677.4V90.5588ZM1676.76 90.8215C1676.93 90.6533 1677.16 90.5588 1677.4 90.5588V94.5588C1678.22 94.5588 1679.01 94.2318 1679.59 93.6499L1676.76 90.8215ZM1676.5 91.4558C1676.5 91.2179 1676.59 90.9897 1676.76 90.8215L1679.59 93.6499C1680.17 93.068 1680.5 92.2788 1680.5 91.4558H1676.5ZM1676.5 80.4264V91.4558H1680.5V80.4264H1676.5ZM1675.74 79.1176C1675.99 79.1176 1676.13 79.1942 1676.21 79.2721C1676.27 79.3339 1676.5 79.6032 1676.5 80.4264H1680.5C1680.5 78.8099 1680.02 77.4247 1679.03 76.4421C1678.07 75.4755 1676.83 75.1176 1675.74 75.1176V79.1176ZM1666.37 79.1176H1675.74V75.1176H1666.37V79.1176ZM1667 78.8548C1666.83 79.0231 1666.61 79.1176 1666.37 79.1176V75.1176C1665.54 75.1176 1664.76 75.4445 1664.17 76.0264L1667 78.8548ZM1667.26 78.2205C1667.26 78.4584 1667.17 78.6866 1667 78.8548L1664.17 76.0264C1663.59 76.6083 1663.26 77.3976 1663.26 78.2205H1667.26ZM1667 77.5862C1667.17 77.7544 1667.26 77.9826 1667.26 78.2205H1663.26C1663.26 79.0435 1663.59 79.8327 1664.17 80.4146L1667 77.5862ZM1666.37 77.3235C1666.61 77.3235 1666.83 77.418 1667 77.5862L1664.17 80.4146C1664.76 80.9965 1665.54 81.3235 1666.37 81.3235V77.3235ZM1676.5 98.0735V139.985H1680.5V98.0735H1676.5ZM1676.76 98.7078C1676.59 98.5395 1676.5 98.3114 1676.5 98.0735H1680.5C1680.5 97.2505 1680.17 96.4613 1679.59 95.8793L1676.76 98.7078ZM1677.4 98.9705C1677.16 98.9705 1676.93 98.876 1676.76 98.7078L1679.59 95.8794C1679.01 95.2974 1678.22 94.9705 1677.4 94.9705V98.9705ZM1678.03 98.7078C1677.86 98.876 1677.63 98.9705 1677.4 98.9705V94.9705C1676.57 94.9705 1675.78 95.2974 1675.2 95.8794L1678.03 98.7078ZM1678.29 98.0735C1678.29 98.3114 1678.2 98.5395 1678.03 98.7078L1675.2 95.8793C1674.62 96.4613 1674.29 97.2505 1674.29 98.0735H1678.29ZM1678.29 139.985V98.0735H1674.29V139.985H1678.29ZM1677.39 142.179C1677.97 141.597 1678.29 140.808 1678.29 139.985H1674.29C1674.29 139.747 1674.39 139.519 1674.56 139.351L1677.39 142.179ZM1675.19 143.088C1676.01 143.088 1676.8 142.761 1677.39 142.179L1674.56 139.351C1674.73 139.183 1674.95 139.088 1675.19 139.088V143.088ZM1606.81 143.088H1675.19V139.088H1606.81V143.088ZM1604.61 142.179C1605.2 142.761 1605.99 143.088 1606.81 143.088V139.088C1607.05 139.088 1607.27 139.183 1607.44 139.351L1604.61 142.179ZM1603.71 139.985C1603.71 140.808 1604.03 141.597 1604.61 142.179L1607.44 139.351C1607.61 139.519 1607.71 139.747 1607.71 139.985H1603.71ZM1603.71 98.0735V139.985H1607.71V98.0735H1603.71ZM1603.97 98.7078C1603.8 98.5395 1603.71 98.3114 1603.71 98.0735H1607.71C1607.71 97.2505 1607.38 96.4613 1606.8 95.8793L1603.97 98.7078ZM1604.6 98.9705C1604.37 98.9705 1604.14 98.876 1603.97 98.7078L1606.8 95.8793C1606.22 95.2974 1605.43 94.9705 1604.6 94.9705V98.9705ZM1605.24 98.7078C1605.07 98.876 1604.84 98.9705 1604.6 98.9705V94.9705C1603.78 94.9705 1602.99 95.2974 1602.41 95.8793L1605.24 98.7078ZM1605.5 98.0735C1605.5 98.3114 1605.41 98.5395 1605.24 98.7078L1602.41 95.8793C1601.83 96.4613 1601.5 97.2505 1601.5 98.0735H1605.5ZM1605.5 139.985V98.0735H1601.5V139.985H1605.5ZM1606.81 141.294C1606.09 141.294 1605.5 140.705 1605.5 139.985H1601.5C1601.5 142.914 1603.88 145.294 1606.81 145.294V141.294ZM1675.19 141.294H1606.81V145.294H1675.19V141.294ZM1676.5 139.985C1676.5 140.705 1675.91 141.294 1675.19 141.294V145.294C1678.12 145.294 1680.5 142.914 1680.5 139.985H1676.5Z" fill="#4C4C4E" mask="url(#path-17-outside-1_2309_1466)"/>
<path d="M1581.57 178.69C1579.9 178.69 1578.43 178.529 1577.16 178.206C1575.9 177.884 1574.73 177.484 1573.65 177.005V171.82H1574.14C1575.24 172.747 1576.44 173.46 1577.76 173.958C1579.08 174.456 1580.36 174.705 1581.6 174.705C1581.91 174.705 1582.32 174.671 1582.83 174.603C1583.35 174.534 1583.76 174.427 1584.08 174.281C1584.46 174.115 1584.78 173.885 1585.04 173.592C1585.31 173.289 1585.44 172.894 1585.44 172.406C1585.44 171.859 1585.22 171.414 1584.79 171.073C1584.36 170.731 1583.85 170.482 1583.26 170.325C1582.51 170.13 1581.72 169.945 1580.87 169.769C1580.03 169.593 1579.24 169.378 1578.51 169.124C1576.82 168.529 1575.61 167.728 1574.88 166.722C1574.14 165.716 1573.78 164.456 1573.78 162.943C1573.78 160.902 1574.64 159.251 1576.37 157.991C1578.1 156.722 1580.26 156.087 1582.85 156.087C1584.14 156.087 1585.43 156.219 1586.71 156.483C1588 156.746 1589.15 157.103 1590.17 157.552V162.532H1589.69C1588.88 161.839 1587.88 161.253 1586.71 160.775C1585.55 160.296 1584.35 160.057 1583.12 160.057C1582.65 160.057 1582.22 160.091 1581.83 160.159C1581.45 160.228 1581.05 160.36 1580.63 160.555C1580.29 160.711 1579.99 160.946 1579.74 161.258C1579.5 161.561 1579.37 161.903 1579.37 162.283C1579.37 162.84 1579.57 163.284 1579.96 163.616C1580.36 163.939 1581.13 164.232 1582.26 164.495C1582.99 164.661 1583.7 164.823 1584.37 164.979C1585.05 165.135 1585.78 165.35 1586.55 165.623C1588.07 166.17 1589.19 166.907 1589.92 167.835C1590.66 168.753 1591.03 169.969 1591.03 171.483C1591.03 173.651 1590.18 175.394 1588.47 176.712C1586.77 178.031 1584.47 178.69 1581.57 178.69ZM1601.62 178.734C1600.27 178.734 1599.02 178.563 1597.89 178.221C1596.77 177.879 1595.79 177.352 1594.96 176.639C1594.14 175.926 1593.5 175.032 1593.04 173.958C1592.58 172.874 1592.35 171.6 1592.35 170.135C1592.35 168.563 1592.6 167.225 1593.1 166.121C1593.6 165.018 1594.27 164.11 1595.12 163.397C1595.94 162.713 1596.9 162.21 1598.01 161.888C1599.12 161.556 1600.28 161.39 1601.48 161.39C1602.39 161.39 1603.29 161.497 1604.2 161.712C1605.11 161.917 1606.02 162.249 1606.94 162.708V167.103H1606.28C1606.08 166.907 1605.82 166.693 1605.52 166.458C1605.23 166.224 1604.91 166.009 1604.55 165.814C1604.18 165.609 1603.76 165.438 1603.29 165.301C1602.83 165.155 1602.3 165.081 1601.73 165.081C1600.42 165.081 1599.4 165.54 1598.68 166.458C1597.97 167.366 1597.61 168.592 1597.61 170.135C1597.61 171.785 1597.99 173.016 1598.75 173.826C1599.53 174.637 1600.55 175.042 1601.82 175.042C1602.46 175.042 1603.03 174.969 1603.51 174.823C1604 174.676 1604.42 174.5 1604.77 174.295C1605.12 174.09 1605.41 173.88 1605.65 173.665C1605.9 173.441 1606.11 173.24 1606.28 173.065H1606.94V177.459C1606.65 177.586 1606.31 177.733 1605.92 177.899C1605.54 178.065 1605.15 178.201 1604.75 178.309C1604.25 178.446 1603.78 178.548 1603.34 178.616C1602.91 178.695 1602.34 178.734 1601.62 178.734ZM1624.78 178.294H1619.63V170.135C1619.63 169.471 1619.6 168.812 1619.54 168.157C1619.49 167.493 1619.39 167.005 1619.25 166.693C1619.07 166.322 1618.82 166.058 1618.49 165.902C1618.15 165.736 1617.71 165.653 1617.15 165.653C1616.73 165.653 1616.31 165.731 1615.88 165.887C1615.45 166.043 1614.99 166.292 1614.5 166.634V178.294H1609.37V155.501H1614.5V163.66C1615.34 162.948 1616.16 162.391 1616.95 161.99C1617.75 161.59 1618.63 161.39 1619.6 161.39C1621.28 161.39 1622.56 161.922 1623.45 162.987C1624.34 164.041 1624.78 165.574 1624.78 167.586V178.294ZM1637.02 178.734C1633.91 178.734 1631.53 177.991 1629.87 176.507C1628.22 175.023 1627.39 172.908 1627.39 170.164C1627.39 167.479 1628.16 165.335 1629.71 163.734C1631.25 162.132 1633.41 161.331 1636.18 161.331C1638.7 161.331 1640.59 162.01 1641.86 163.367C1643.13 164.725 1643.77 166.668 1643.77 169.198V171.043H1632.53C1632.58 171.805 1632.74 172.445 1633.02 172.962C1633.29 173.47 1633.65 173.875 1634.1 174.178C1634.54 174.481 1635.05 174.7 1635.64 174.837C1636.22 174.964 1636.86 175.028 1637.56 175.028C1638.15 175.028 1638.74 174.964 1639.32 174.837C1639.89 174.7 1640.42 174.525 1640.9 174.31C1641.32 174.124 1641.7 173.924 1642.05 173.709C1642.42 173.494 1642.71 173.304 1642.93 173.138H1643.48V177.371C1643.06 177.537 1642.67 177.694 1642.32 177.84C1641.98 177.977 1641.5 178.118 1640.9 178.265C1640.34 178.411 1639.76 178.524 1639.17 178.602C1638.58 178.69 1637.87 178.734 1637.02 178.734ZM1638.71 167.952C1638.69 166.868 1638.43 166.043 1637.95 165.477C1637.48 164.91 1636.76 164.627 1635.79 164.627C1634.79 164.627 1634.01 164.925 1633.44 165.521C1632.88 166.116 1632.58 166.927 1632.52 167.952H1638.71ZM1661.36 178.294H1656.23V176.58C1655.9 176.854 1655.52 177.147 1655.09 177.459C1654.67 177.772 1654.3 178.006 1653.98 178.162C1653.57 178.358 1653.16 178.504 1652.76 178.602C1652.36 178.699 1651.88 178.748 1651.33 178.748C1649.45 178.748 1647.97 177.972 1646.87 176.419C1645.78 174.866 1645.23 172.791 1645.23 170.194C1645.23 168.758 1645.42 167.513 1645.79 166.458C1646.16 165.404 1646.67 164.486 1647.33 163.704C1647.92 162.991 1648.65 162.43 1649.5 162.02C1650.35 161.6 1651.24 161.39 1652.19 161.39C1653.05 161.39 1653.75 161.483 1654.3 161.668C1654.86 161.844 1655.5 162.122 1656.23 162.503V155.501H1661.36V178.294ZM1656.23 173.753V165.682C1655.98 165.555 1655.65 165.452 1655.24 165.374C1654.83 165.286 1654.48 165.242 1654.18 165.242C1652.95 165.242 1652.03 165.672 1651.4 166.531C1650.79 167.391 1650.48 168.592 1650.48 170.135C1650.48 171.756 1650.72 172.928 1651.21 173.651C1651.71 174.373 1652.51 174.735 1653.61 174.735C1654.06 174.735 1654.52 174.647 1654.97 174.471C1655.43 174.295 1655.85 174.056 1656.23 173.753ZM1680.58 178.294H1675.45V176.478C1674.56 177.22 1673.75 177.786 1673.01 178.177C1672.26 178.558 1671.38 178.748 1670.36 178.748C1668.72 178.748 1667.45 178.236 1666.53 177.21C1665.62 176.175 1665.17 174.622 1665.17 172.552V161.844H1670.33V170.003C1670.33 170.853 1670.35 171.546 1670.38 172.083C1670.43 172.62 1670.54 173.074 1670.71 173.446C1670.86 173.787 1671.1 174.046 1671.42 174.222C1671.76 174.398 1672.22 174.486 1672.8 174.486C1673.16 174.486 1673.59 174.398 1674.08 174.222C1674.57 174.046 1675.03 173.807 1675.45 173.504V161.844H1680.58V178.294ZM1689.65 178.294H1684.52V155.501H1689.65V178.294ZM1702 178.734C1698.89 178.734 1696.51 177.991 1694.85 176.507C1693.2 175.023 1692.37 172.908 1692.37 170.164C1692.37 167.479 1693.14 165.335 1694.69 163.734C1696.23 162.132 1698.39 161.331 1701.16 161.331C1703.68 161.331 1705.58 162.01 1706.84 163.367C1708.11 164.725 1708.75 166.668 1708.75 169.198V171.043H1697.51C1697.56 171.805 1697.72 172.445 1698 172.962C1698.27 173.47 1698.63 173.875 1699.08 174.178C1699.52 174.481 1700.03 174.7 1700.62 174.837C1701.21 174.964 1701.84 175.028 1702.54 175.028C1703.13 175.028 1703.72 174.964 1704.3 174.837C1704.87 174.7 1705.4 174.525 1705.88 174.31C1706.3 174.124 1706.68 173.924 1707.04 173.709C1707.4 173.494 1707.69 173.304 1707.91 173.138H1708.46V177.371C1708.04 177.537 1707.65 177.694 1707.3 177.84C1706.96 177.977 1706.48 178.118 1705.88 178.265C1705.32 178.411 1704.75 178.524 1704.15 178.602C1703.56 178.69 1702.85 178.734 1702 178.734ZM1703.7 167.952C1703.67 166.868 1703.41 166.043 1702.93 165.477C1702.46 164.91 1701.74 164.627 1700.77 164.627C1699.77 164.627 1698.99 164.925 1698.42 165.521C1697.87 166.116 1697.56 166.927 1697.5 167.952H1703.7Z" fill="#4C4C4E"/>
</g>
<defs>
<filter id="filter0_b_2309_1466" x="153.5" y="31" width="251" height="195" filterUnits="userSpaceOnUse" color-interpolation-filters="sRGB">
<feFlood flood-opacity="0" result="BackgroundImageFix"/>
<feGaussianBlur in="BackgroundImageFix" stdDeviation="15"/>
<feComposite in2="SourceAlpha" operator="in" result="effect1_backgroundBlur_2309_1466"/>
<feBlend mode="normal" in="SourceGraphic" in2="effect1_backgroundBlur_2309_1466" result="shape"/>
</filter>
<filter id="filter1_b_2309_1466" x="444.5" y="10" width="298" height="237" filterUnits="userSpaceOnUse" color-interpolation-filters="sRGB">
<feFlood flood-opacity="0" result="BackgroundImageFix"/>
<feGaussianBlur in="BackgroundImageFix" stdDeviation="15"/>
<feComposite in2="SourceAlpha" operator="in" result="effect1_backgroundBlur_2309_1466"/>
<feBlend mode="normal" in="SourceGraphic" in2="effect1_backgroundBlur_2309_1466" result="shape"/>
</filter>
<filter id="filter2_b_2309_1466" x="1185.5" y="10" width="290" height="237" filterUnits="userSpaceOnUse" color-interpolation-filters="sRGB">
<feFlood flood-opacity="0" result="BackgroundImageFix"/>
<feGaussianBlur in="BackgroundImageFix" stdDeviation="15"/>
<feComposite in2="SourceAlpha" operator="in" result="effect1_backgroundBlur_2309_1466"/>
<feBlend mode="normal" in="SourceGraphic" in2="effect1_backgroundBlur_2309_1466" result="shape"/>
</filter>
<filter id="filter3_b_2309_1466" x="1515.5" y="31" width="251" height="195" filterUnits="userSpaceOnUse" color-interpolation-filters="sRGB">
<feFlood flood-opacity="0" result="BackgroundImageFix"/>
<feGaussianBlur in="BackgroundImageFix" stdDeviation="15"/>
<feComposite in2="SourceAlpha" operator="in" result="effect1_backgroundBlur_2309_1466"/>
<feBlend mode="normal" in="SourceGraphic" in2="effect1_backgroundBlur_2309_1466" result="shape"/>
</filter>
</defs>
</svg>
