<svg width="1920" height="257" viewBox="0 0 1920 257" fill="none" xmlns="http://www.w3.org/2000/svg">
<g filter="url(#filter0_b_2309_1492)">
<rect x="179.5" y="61" width="191" height="135" rx="30" fill="white" fill-opacity="0.5"/>
<path d="M301.849 91.6899L295.698 118.039H261.617L255.467 91.6899H301.849Z" stroke="#4C4C4E" stroke-width="5"/>
<path d="M245 79.7856H250.122L252.317 89.1904M252.317 89.1904L259.634 120.539H297.683L305 89.1904H252.317Z" stroke="#4C4C4E" stroke-width="4" stroke-linecap="round" stroke-linejoin="round"/>
<path d="M259.633 136.214C262.058 136.214 264.024 134.109 264.024 131.512C264.024 128.915 262.058 126.81 259.633 126.81C257.209 126.81 255.243 128.915 255.243 131.512C255.243 134.109 257.209 136.214 259.633 136.214Z" stroke="#4C4C4E" stroke-width="4" stroke-linecap="round" stroke-linejoin="round"/>
<path d="M297.684 136.214C300.109 136.214 302.074 134.109 302.074 131.512C302.074 128.915 300.109 126.81 297.684 126.81C295.26 126.81 293.294 128.915 293.294 131.512C293.294 134.109 295.26 136.214 297.684 136.214Z" stroke="#4C4C4E" stroke-width="4" stroke-linecap="round" stroke-linejoin="round"/>
<path d="M272.804 104.865H284.511M278.657 111.135V98.5955" stroke="#4C4C4E" stroke-width="5" stroke-linecap="round" stroke-linejoin="round"/>
<path d="M221.328 171.61C219.658 171.61 218.188 171.449 216.919 171.126C215.659 170.804 214.487 170.404 213.403 169.925V164.74H213.901C214.995 165.667 216.201 166.38 217.52 166.878C218.838 167.376 220.117 167.625 221.357 167.625C221.67 167.625 222.08 167.591 222.588 167.523C223.105 167.455 223.521 167.347 223.833 167.201C224.214 167.035 224.536 166.805 224.8 166.512C225.063 166.209 225.195 165.814 225.195 165.326C225.195 164.779 224.98 164.334 224.551 163.993C224.121 163.651 223.608 163.402 223.013 163.246C222.271 163.05 221.475 162.865 220.625 162.689C219.785 162.513 218.999 162.298 218.267 162.044C216.577 161.449 215.366 160.648 214.634 159.642C213.901 158.636 213.535 157.376 213.535 155.863C213.535 153.822 214.399 152.171 216.128 150.912C217.856 149.642 220.015 149.007 222.603 149.007C223.901 149.007 225.19 149.139 226.47 149.403C227.759 149.667 228.911 150.023 229.927 150.472V155.453H229.443C228.633 154.759 227.642 154.173 226.47 153.695C225.308 153.216 224.111 152.977 222.881 152.977C222.402 152.977 221.973 153.011 221.592 153.08C221.211 153.148 220.811 153.28 220.391 153.475C220.049 153.631 219.751 153.866 219.497 154.178C219.253 154.481 219.131 154.823 219.131 155.204C219.131 155.76 219.326 156.205 219.717 156.537C220.117 156.859 220.884 157.152 222.017 157.416C222.749 157.582 223.452 157.743 224.126 157.899C224.81 158.055 225.537 158.27 226.309 158.543C227.822 159.09 228.945 159.828 229.678 160.755C230.42 161.673 230.791 162.889 230.791 164.403C230.791 166.571 229.937 168.314 228.228 169.632C226.528 170.951 224.229 171.61 221.328 171.61ZM241.733 171.654C238.628 171.654 236.245 170.912 234.585 169.427C232.935 167.943 232.109 165.829 232.109 163.084C232.109 160.399 232.881 158.255 234.424 156.654C235.967 155.052 238.125 154.251 240.898 154.251C243.418 154.251 245.312 154.93 246.582 156.288C247.852 157.645 248.486 159.588 248.486 162.118V163.963H237.251C237.3 164.725 237.461 165.365 237.734 165.882C238.008 166.39 238.369 166.795 238.818 167.098C239.258 167.401 239.771 167.621 240.356 167.757C240.942 167.884 241.582 167.948 242.275 167.948C242.871 167.948 243.457 167.884 244.033 167.757C244.609 167.621 245.137 167.445 245.615 167.23C246.035 167.044 246.421 166.844 246.772 166.629C247.134 166.415 247.427 166.224 247.651 166.058H248.193V170.292C247.773 170.458 247.388 170.614 247.036 170.76C246.694 170.897 246.221 171.039 245.615 171.185C245.059 171.332 244.482 171.444 243.887 171.522C243.301 171.61 242.583 171.654 241.733 171.654ZM243.433 160.873C243.403 159.789 243.149 158.963 242.671 158.397C242.202 157.831 241.479 157.547 240.503 157.547C239.507 157.547 238.726 157.845 238.159 158.441C237.603 159.037 237.295 159.847 237.236 160.873H243.433ZM262.168 159.613H261.743C261.548 159.544 261.265 159.496 260.894 159.466C260.522 159.427 260.112 159.408 259.663 159.408C259.126 159.408 258.56 159.486 257.964 159.642C257.378 159.798 256.807 159.984 256.25 160.199V171.214H251.123V154.764H256.25V157.123C256.484 156.908 256.807 156.639 257.217 156.317C257.637 155.985 258.018 155.721 258.359 155.526C258.73 155.301 259.16 155.111 259.648 154.955C260.146 154.789 260.615 154.706 261.055 154.706C261.221 154.706 261.406 154.71 261.611 154.72C261.816 154.73 262.002 154.745 262.168 154.764V159.613ZM279.526 154.764L273.623 171.214H268.027L262.168 154.764H267.559L270.928 165.648L274.253 154.764H279.526ZM286.631 171.214H281.504V154.764H286.631V171.214ZM286.777 152.42H281.357V148.421H286.777V152.42ZM298.628 171.654C297.271 171.654 296.025 171.483 294.893 171.141C293.77 170.799 292.793 170.272 291.963 169.559C291.143 168.846 290.503 167.953 290.044 166.878C289.585 165.794 289.355 164.52 289.355 163.055C289.355 161.483 289.604 160.145 290.103 159.042C290.601 157.938 291.274 157.03 292.124 156.317C292.944 155.633 293.906 155.13 295.01 154.808C296.123 154.476 297.28 154.31 298.481 154.31C299.39 154.31 300.298 154.417 301.206 154.632C302.114 154.837 303.027 155.169 303.945 155.628V160.023H303.286C303.081 159.828 302.827 159.613 302.524 159.378C302.231 159.144 301.909 158.929 301.558 158.734C301.187 158.529 300.767 158.358 300.298 158.221C299.829 158.075 299.307 158.001 298.73 158.001C297.422 158.001 296.406 158.46 295.684 159.378C294.971 160.287 294.614 161.512 294.614 163.055C294.614 164.706 294.995 165.936 295.757 166.747C296.528 167.557 297.549 167.962 298.818 167.962C299.463 167.962 300.029 167.889 300.518 167.743C301.006 167.596 301.426 167.42 301.777 167.215C302.119 167.01 302.412 166.8 302.656 166.585C302.9 166.361 303.11 166.161 303.286 165.985H303.945V170.379C303.652 170.506 303.311 170.653 302.92 170.819C302.539 170.985 302.148 171.122 301.748 171.229C301.25 171.366 300.781 171.468 300.342 171.537C299.912 171.615 299.341 171.654 298.628 171.654ZM314.8 171.654C311.694 171.654 309.312 170.912 307.651 169.427C306.001 167.943 305.176 165.829 305.176 163.084C305.176 160.399 305.947 158.255 307.49 156.654C309.033 155.052 311.191 154.251 313.965 154.251C316.484 154.251 318.379 154.93 319.648 156.288C320.918 157.645 321.553 159.588 321.553 162.118V163.963H310.317C310.366 164.725 310.527 165.365 310.801 165.882C311.074 166.39 311.436 166.795 311.885 167.098C312.324 167.401 312.837 167.621 313.423 167.757C314.009 167.884 314.648 167.948 315.342 167.948C315.938 167.948 316.523 167.884 317.1 167.757C317.676 167.621 318.203 167.445 318.682 167.23C319.102 167.044 319.487 166.844 319.839 166.629C320.2 166.415 320.493 166.224 320.718 166.058H321.26V170.292C320.84 170.458 320.454 170.614 320.103 170.76C319.761 170.897 319.287 171.039 318.682 171.185C318.125 171.332 317.549 171.444 316.953 171.522C316.367 171.61 315.649 171.654 314.8 171.654ZM316.499 160.873C316.47 159.789 316.216 158.963 315.737 158.397C315.269 157.831 314.546 157.547 313.569 157.547C312.573 157.547 311.792 157.845 311.226 158.441C310.669 159.037 310.361 159.847 310.303 160.873H316.499ZM329.199 171.668C327.988 171.668 326.841 171.537 325.757 171.273C324.683 171.009 323.794 170.702 323.091 170.35V166.014H323.516C323.76 166.2 324.038 166.405 324.351 166.629C324.663 166.854 325.098 167.088 325.654 167.333C326.133 167.557 326.67 167.752 327.266 167.918C327.871 168.075 328.525 168.153 329.229 168.153C329.951 168.153 330.586 168.041 331.133 167.816C331.689 167.591 331.968 167.235 331.968 166.747C331.968 166.366 331.841 166.078 331.587 165.882C331.333 165.687 330.84 165.501 330.107 165.326C329.717 165.228 329.224 165.125 328.628 165.018C328.032 164.901 327.505 164.769 327.046 164.623C325.757 164.222 324.785 163.631 324.131 162.85C323.486 162.059 323.164 161.024 323.164 159.745C323.164 159.012 323.33 158.324 323.662 157.679C324.004 157.025 324.502 156.444 325.156 155.936C325.811 155.438 326.616 155.042 327.573 154.75C328.54 154.457 329.629 154.31 330.84 154.31C331.992 154.31 333.052 154.427 334.019 154.662C334.985 154.886 335.801 155.16 336.465 155.482V159.642H336.055C335.879 159.505 335.601 159.325 335.22 159.1C334.839 158.866 334.468 158.666 334.106 158.5C333.677 158.304 333.193 158.143 332.656 158.016C332.129 157.889 331.587 157.826 331.03 157.826C330.288 157.826 329.658 157.953 329.141 158.207C328.633 158.46 328.379 158.797 328.379 159.217C328.379 159.588 328.506 159.881 328.76 160.096C329.014 160.311 329.565 160.521 330.415 160.726C330.854 160.833 331.357 160.941 331.924 161.048C332.5 161.146 333.052 161.283 333.579 161.458C334.761 161.839 335.654 162.401 336.26 163.143C336.875 163.875 337.183 164.852 337.183 166.073C337.183 166.844 337.002 167.582 336.641 168.285C336.279 168.978 335.767 169.564 335.103 170.042C334.399 170.56 333.569 170.96 332.612 171.244C331.665 171.527 330.527 171.668 329.199 171.668Z" fill="#4C4C4E"/>
</g>
<rect x="470.5" y="40" width="238" height="177" rx="30" fill="white" fill-opacity="0.5"/>
<path d="M589.501 65.3147C588.215 65.3147 586.982 65.7781 586.073 66.603C585.164 67.4279 584.653 68.5466 584.653 69.7132C584.653 77.1553 574.734 80.8852 568.93 75.6202C568.483 75.2002 567.948 74.8651 567.357 74.6346C566.765 74.404 566.129 74.2827 565.485 74.2776C564.842 74.2726 564.203 74.3838 563.607 74.605C563.012 74.8262 562.47 75.1528 562.015 75.5657C561.56 75.9787 561.2 76.4698 560.956 77.0104C560.712 77.5509 560.59 78.1301 560.595 78.7141C560.601 79.2981 560.735 79.8753 560.989 80.4119C561.243 80.9486 561.612 81.4339 562.075 81.8396C567.878 87.1046 563.772 96.1038 555.564 96.1038C554.278 96.1038 553.045 96.5672 552.136 97.392C551.227 98.2169 550.716 99.3357 550.716 100.502C550.716 101.669 551.227 102.787 552.136 103.612C553.045 104.437 554.278 104.901 555.564 104.901C563.767 104.901 567.878 113.9 562.075 119.165C561.192 119.994 560.703 121.105 560.714 122.259C560.725 123.412 561.235 124.515 562.134 125.331C563.033 126.146 564.249 126.609 565.52 126.619C566.791 126.629 568.016 126.185 568.93 125.384C574.734 120.119 584.653 123.845 584.653 131.291C584.653 132.458 585.164 133.577 586.073 134.401C586.982 135.226 588.215 135.69 589.501 135.69C590.787 135.69 592.02 135.226 592.929 134.401C593.839 133.577 594.349 132.458 594.349 131.291C594.349 123.849 604.269 120.119 610.072 125.384C610.519 125.804 611.054 126.139 611.646 126.37C612.237 126.6 612.873 126.722 613.517 126.727C614.161 126.732 614.799 126.621 615.395 126.399C615.991 126.178 616.532 125.852 616.987 125.439C617.443 125.026 617.803 124.535 618.046 123.994C618.29 123.453 618.413 122.874 618.407 122.29C618.402 121.706 618.268 121.129 618.014 120.592C617.76 120.056 617.39 119.571 616.927 119.165C611.124 113.9 615.23 104.901 623.438 104.901C624.724 104.901 625.957 104.437 626.866 103.612C627.776 102.787 628.286 101.669 628.286 100.502C628.286 99.3357 627.776 98.2169 626.866 97.392C625.957 96.5672 624.724 96.1038 623.438 96.1038C615.235 96.1038 611.124 87.1046 616.927 81.8396C617.81 81.0101 618.299 79.899 618.288 78.7458C618.277 77.5925 617.767 76.4893 616.868 75.6738C615.969 74.8583 614.753 74.3957 613.482 74.3857C612.211 74.3757 610.986 74.819 610.072 75.6202C604.269 80.8852 594.349 77.1597 594.349 69.7132C594.349 68.5466 593.839 67.4279 592.929 66.603C592.02 65.7781 590.787 65.3147 589.501 65.3147ZM574.996 68.7323C575.264 65.4083 576.908 62.2994 579.599 60.0303C582.29 57.7612 585.828 56.5 589.501 56.5C593.175 56.5 596.712 57.7612 599.403 60.0303C602.094 62.2994 603.739 65.4083 604.007 68.7323C606.789 66.5647 610.371 65.4304 614.035 65.5567C617.699 65.6829 621.176 67.0603 623.769 69.4131C626.362 71.7659 627.879 74.9203 628.017 78.2449C628.156 81.5695 626.904 84.8187 624.515 87.3421C628.179 87.5848 631.605 89.0763 634.107 91.5172C636.609 93.958 637.999 97.1672 638 100.5C638.001 103.833 636.611 107.043 634.11 109.484C631.61 111.926 628.183 113.419 624.519 113.662C626.909 116.186 628.159 119.436 628.02 122.76C627.881 126.085 626.362 129.239 623.769 131.591C621.176 133.943 617.699 135.32 614.034 135.445C610.37 135.571 606.788 134.436 604.007 132.268C603.739 135.592 602.094 138.701 599.403 140.97C596.712 143.239 593.175 144.5 589.501 144.5C585.828 144.5 582.29 143.239 579.599 140.97C576.908 138.701 575.264 135.592 574.996 132.268C572.214 134.436 568.633 135.571 564.968 135.445C561.304 135.32 557.827 133.943 555.233 131.591C552.64 129.239 551.122 126.085 550.983 122.76C550.844 119.436 552.094 116.186 554.483 113.662C550.819 113.419 547.392 111.927 544.891 109.486C542.39 107.045 541 103.835 541 100.502C541 97.1693 542.39 93.9598 544.891 91.5186C547.392 89.0774 550.819 87.5853 554.483 87.3421C552.086 84.8192 550.83 81.5674 550.966 78.2392C551.102 74.9109 552.62 71.7524 555.216 69.3974C557.812 67.0424 561.293 65.665 564.962 65.5416C568.63 65.4183 572.215 66.5581 574.996 68.7323Z" fill="#4C4C4E"/>
<path d="M589.518 91.7064C586.946 91.7064 584.48 92.6332 582.661 94.283C580.843 95.9327 579.821 98.1702 579.821 100.503C579.821 102.836 580.843 105.074 582.661 106.724C584.48 108.373 586.946 109.3 589.518 109.3C592.089 109.3 594.556 108.373 596.374 106.724C598.192 105.074 599.214 102.836 599.214 100.503C599.214 98.1702 598.192 95.9327 596.374 94.283C594.556 92.6332 592.089 91.7064 589.518 91.7064ZM575.807 88.0645C577.596 86.3841 579.736 85.0438 582.102 84.1217C584.468 83.1997 587.012 82.7143 589.587 82.694C592.162 82.6737 594.716 83.1189 597.099 84.0035C599.482 84.8881 601.648 86.1945 603.469 87.8464C605.289 89.4984 606.729 91.4627 607.704 93.625C608.679 95.7872 609.17 98.1039 609.148 100.44C609.125 102.776 608.59 105.085 607.574 107.231C606.558 109.378 605.08 111.319 603.228 112.942C599.571 116.147 594.672 117.92 589.587 117.88C584.503 117.84 579.639 115.99 576.043 112.728C572.448 109.466 570.408 105.053 570.364 100.44C570.32 95.827 572.274 91.3827 575.807 88.0645Z" fill="#4C4C4E"/>
<path d="M559.222 179.573C559.222 180.589 559.061 181.556 558.738 182.474C558.416 183.392 557.952 184.158 557.347 184.773C556.976 185.154 556.565 185.506 556.116 185.828C555.677 186.15 555.188 186.424 554.651 186.648C554.114 186.873 553.528 187.049 552.894 187.176C552.269 187.303 551.565 187.366 550.784 187.366H547.913V194.5H542.435V172.688H550.901C552.161 172.688 553.245 172.806 554.153 173.04C555.071 173.265 555.901 173.626 556.644 174.124C557.464 174.671 558.099 175.403 558.548 176.321C558.997 177.229 559.222 178.313 559.222 179.573ZM553.597 179.705C553.597 179.09 553.45 178.562 553.157 178.123C552.864 177.674 552.513 177.366 552.103 177.2C551.585 176.976 551.087 176.849 550.608 176.819C550.14 176.78 549.5 176.761 548.689 176.761H547.913V183.294H548.294C548.812 183.294 549.3 183.289 549.759 183.279C550.218 183.27 550.618 183.235 550.96 183.177C551.253 183.128 551.561 183.035 551.883 182.898C552.215 182.752 552.469 182.591 552.645 182.415C553.016 182.054 553.265 181.678 553.392 181.287C553.528 180.896 553.597 180.369 553.597 179.705ZM572.903 182.898H572.479C572.283 182.83 572 182.781 571.629 182.752C571.258 182.713 570.848 182.693 570.398 182.693C569.861 182.693 569.295 182.771 568.699 182.928C568.113 183.084 567.542 183.27 566.985 183.484V194.5H561.858V178.05H566.985V180.408C567.22 180.193 567.542 179.925 567.952 179.603C568.372 179.271 568.753 179.007 569.095 178.812C569.466 178.587 569.896 178.396 570.384 178.24C570.882 178.074 571.351 177.991 571.79 177.991C571.956 177.991 572.142 177.996 572.347 178.006C572.552 178.016 572.737 178.03 572.903 178.05V182.898ZM590.657 186.282C590.657 188.987 589.915 191.121 588.431 192.684C586.956 194.236 584.866 195.013 582.161 195.013C579.476 195.013 577.386 194.236 575.892 192.684C574.407 191.121 573.665 188.987 573.665 186.282C573.665 183.548 574.407 181.409 575.892 179.866C577.386 178.313 579.476 177.537 582.161 177.537C584.856 177.537 586.946 178.318 588.431 179.881C589.915 181.434 590.657 183.567 590.657 186.282ZM585.398 186.312C585.398 185.335 585.315 184.524 585.149 183.88C584.993 183.226 584.773 182.703 584.49 182.312C584.188 181.902 583.846 181.619 583.465 181.463C583.084 181.297 582.649 181.214 582.161 181.214C581.702 181.214 581.287 181.287 580.916 181.434C580.545 181.57 580.203 181.839 579.891 182.239C579.598 182.62 579.363 183.143 579.188 183.807C579.012 184.471 578.924 185.306 578.924 186.312C578.924 187.317 579.007 188.133 579.173 188.758C579.339 189.373 579.554 189.866 579.817 190.237C580.091 190.618 580.433 190.896 580.843 191.072C581.253 191.248 581.707 191.336 582.205 191.336C582.615 191.336 583.03 191.248 583.45 191.072C583.88 190.896 584.222 190.633 584.476 190.281C584.778 189.861 585.008 189.358 585.164 188.772C585.32 188.177 585.398 187.356 585.398 186.312ZM603.899 175.574H603.504C603.309 175.516 603.001 175.442 602.581 175.354C602.171 175.257 601.78 175.208 601.409 175.208C600.374 175.208 599.666 175.398 599.285 175.779C598.914 176.16 598.729 176.873 598.729 177.918V178.05H602.801V181.624H598.904V194.5H593.777V181.624H591.727V178.05H593.777V177.596C593.777 175.584 594.305 174.075 595.359 173.069C596.414 172.063 598.011 171.561 600.149 171.561C600.892 171.561 601.585 171.59 602.229 171.648C602.874 171.697 603.431 171.766 603.899 171.854V175.574ZM609.993 194.5H604.866V178.05H609.993V194.5ZM610.14 175.706H604.72V171.707H610.14V175.706ZM619.046 194.5H613.919V171.707H619.046V194.5ZM631.395 194.939C628.289 194.939 625.906 194.197 624.246 192.713C622.596 191.229 621.771 189.114 621.771 186.37C621.771 183.685 622.542 181.541 624.085 179.939C625.628 178.338 627.786 177.537 630.56 177.537C633.079 177.537 634.974 178.216 636.243 179.573C637.513 180.931 638.147 182.874 638.147 185.403V187.249H626.912C626.961 188.011 627.122 188.65 627.396 189.168C627.669 189.676 628.03 190.081 628.479 190.384C628.919 190.687 629.432 190.906 630.018 191.043C630.604 191.17 631.243 191.233 631.937 191.233C632.532 191.233 633.118 191.17 633.694 191.043C634.271 190.906 634.798 190.73 635.276 190.516C635.696 190.33 636.082 190.13 636.434 189.915C636.795 189.7 637.088 189.51 637.312 189.344H637.854V193.577C637.435 193.743 637.049 193.899 636.697 194.046C636.355 194.183 635.882 194.324 635.276 194.471C634.72 194.617 634.144 194.729 633.548 194.808C632.962 194.896 632.244 194.939 631.395 194.939ZM633.094 184.158C633.064 183.074 632.811 182.249 632.332 181.683C631.863 181.116 631.141 180.833 630.164 180.833C629.168 180.833 628.387 181.131 627.82 181.727C627.264 182.322 626.956 183.133 626.897 184.158H633.094Z" fill="#4C4C4E"/>
<rect x="808.5" y="20" width="303" height="217" rx="30" fill="white"/>
<mask id="path-13-outside-1_2309_1492" maskUnits="userSpaceOnUse" x="888.587" y="32.7498" width="143" height="137" fill="black">
<rect fill="white" x="888.587" y="32.7498" width="143" height="137"/>
<path fill-rule="evenodd" clip-rule="evenodd" d="M1026.41 56.755C1026.41 67.2513 1017.11 75.7602 1005.63 75.7602C994.145 75.7602 984.838 67.2513 984.838 56.755C984.838 46.2587 994.145 37.7498 1005.63 37.7498C1017.11 37.7498 1026.41 46.2587 1026.41 56.755ZM1016.06 139.733C1012.06 136.465 1008.55 132.719 1005.63 128.596C1002.45 122.904 1000.54 116.688 1000.02 110.313V91.5354C1000 89.2546 999.777 86.979 999.352 84.7316C996.079 84.1335 992.935 83.0553 990.039 81.5387C991.143 84.788 991.703 88.171 991.702 91.5734V110.351C992.212 118.128 994.551 125.712 998.562 132.587C1001.43 136.745 1004.84 140.573 1008.71 143.99H902.234C906.102 140.573 909.508 136.745 912.378 132.587C916.389 125.712 918.729 118.128 919.238 110.351V91.5354C919.216 87.1364 920.144 82.7767 921.967 78.7058C923.791 74.635 926.475 70.933 929.865 67.8118C933.256 64.6907 937.287 62.2116 941.727 60.5167C946.167 58.8217 950.929 57.9441 955.74 57.9342C962.782 57.9393 969.666 59.8433 975.53 63.4077C974.883 61.2372 974.52 59.0044 974.449 56.7559V54.3612C970.108 52.4088 965.444 51.1246 960.646 50.5602V45.7708C960.646 44.425 960.061 43.1343 959.02 42.1827C957.98 41.2311 956.568 40.6965 955.096 40.6965C953.624 40.6965 952.212 41.2311 951.171 42.1827C950.131 43.1343 949.546 44.425 949.546 45.7708V50.7502C938.802 52.1359 928.969 57.0286 921.862 64.5249C914.756 72.0213 910.856 81.6152 910.882 91.5354V110.313C910.361 116.688 908.453 122.904 905.269 128.596C902.404 132.71 898.951 136.455 895 139.733C894.557 140.089 894.202 140.527 893.958 141.019C893.714 141.51 893.588 142.044 893.587 142.583V147.753C893.587 148.761 894.025 149.728 894.805 150.441C895.584 151.153 896.642 151.554 897.744 151.554H1013.32C1014.42 151.554 1015.48 151.153 1016.26 150.441C1017.04 149.728 1017.48 148.761 1017.48 147.753V142.583C1017.48 142.044 1017.35 141.51 1017.11 141.019C1016.86 140.527 1016.51 140.089 1016.06 139.733ZM955.737 164.249C958.356 164.194 960.869 163.294 962.832 161.708C964.795 160.122 966.081 157.952 966.463 155.583H944.595C944.988 158.017 946.334 160.237 948.384 161.832C950.433 163.426 953.047 164.285 955.737 164.249Z"/>
</mask>
<path fill-rule="evenodd" clip-rule="evenodd" d="M1026.41 56.755C1026.41 67.2513 1017.11 75.7602 1005.63 75.7602C994.145 75.7602 984.838 67.2513 984.838 56.755C984.838 46.2587 994.145 37.7498 1005.63 37.7498C1017.11 37.7498 1026.41 46.2587 1026.41 56.755ZM1016.06 139.733C1012.06 136.465 1008.55 132.719 1005.63 128.596C1002.45 122.904 1000.54 116.688 1000.02 110.313V91.5354C1000 89.2546 999.777 86.979 999.352 84.7316C996.079 84.1335 992.935 83.0553 990.039 81.5387C991.143 84.788 991.703 88.171 991.702 91.5734V110.351C992.212 118.128 994.551 125.712 998.562 132.587C1001.43 136.745 1004.84 140.573 1008.71 143.99H902.234C906.102 140.573 909.508 136.745 912.378 132.587C916.389 125.712 918.729 118.128 919.238 110.351V91.5354C919.216 87.1364 920.144 82.7767 921.967 78.7058C923.791 74.635 926.475 70.933 929.865 67.8118C933.256 64.6907 937.287 62.2116 941.727 60.5167C946.167 58.8217 950.929 57.9441 955.74 57.9342C962.782 57.9393 969.666 59.8433 975.53 63.4077C974.883 61.2372 974.52 59.0044 974.449 56.7559V54.3612C970.108 52.4088 965.444 51.1246 960.646 50.5602V45.7708C960.646 44.425 960.061 43.1343 959.02 42.1827C957.98 41.2311 956.568 40.6965 955.096 40.6965C953.624 40.6965 952.212 41.2311 951.171 42.1827C950.131 43.1343 949.546 44.425 949.546 45.7708V50.7502C938.802 52.1359 928.969 57.0286 921.862 64.5249C914.756 72.0213 910.856 81.6152 910.882 91.5354V110.313C910.361 116.688 908.453 122.904 905.269 128.596C902.404 132.71 898.951 136.455 895 139.733C894.557 140.089 894.202 140.527 893.958 141.019C893.714 141.51 893.588 142.044 893.587 142.583V147.753C893.587 148.761 894.025 149.728 894.805 150.441C895.584 151.153 896.642 151.554 897.744 151.554H1013.32C1014.42 151.554 1015.48 151.153 1016.26 150.441C1017.04 149.728 1017.48 148.761 1017.48 147.753V142.583C1017.48 142.044 1017.35 141.51 1017.11 141.019C1016.86 140.527 1016.51 140.089 1016.06 139.733ZM955.737 164.249C958.356 164.194 960.869 163.294 962.832 161.708C964.795 160.122 966.081 157.952 966.463 155.583H944.595C944.988 158.017 946.334 160.237 948.384 161.832C950.433 163.426 953.047 164.285 955.737 164.249Z" fill="#FEC341"/>
<path d="M1005.63 128.596L1001.27 131.036L1001.39 131.267L1001.55 131.483L1005.63 128.596ZM1016.06 139.733L1012.91 143.608L1012.92 143.62L1012.93 143.631L1016.06 139.733ZM1000.02 110.313H995.017V110.516L995.033 110.72L1000.02 110.313ZM1000.02 91.5354H1005.02V91.5169L1005.02 91.4984L1000.02 91.5354ZM999.352 84.7316L1004.26 83.8008L1003.63 80.4298L1000.25 79.813L999.352 84.7316ZM990.039 81.5387L992.359 77.1095L981.283 71.3083L985.305 83.1468L990.039 81.5387ZM991.702 91.5734L986.702 91.5714V91.5734H991.702ZM991.702 110.351H986.702V110.514L986.713 110.678L991.702 110.351ZM998.562 132.587L994.243 135.106L994.339 135.27L994.447 135.427L998.562 132.587ZM1008.71 143.99V148.99H1021.92L1012.02 140.242L1008.71 143.99ZM902.234 143.99L898.924 140.242L889.02 148.99H902.234V143.99ZM912.378 132.587L916.493 135.427L916.601 135.27L916.697 135.106L912.378 132.587ZM919.238 110.351L924.227 110.678L924.238 110.514V110.351H919.238ZM919.238 91.5354H924.238V91.523L924.238 91.5106L919.238 91.5354ZM921.967 78.7058L926.53 80.7499V80.7499L921.967 78.7058ZM929.865 67.8118L926.479 64.1331L926.479 64.1331L929.865 67.8118ZM941.727 60.5167L943.51 65.1879L941.727 60.5167ZM955.74 57.9342L955.744 52.9342L955.73 52.9342L955.74 57.9342ZM975.53 63.4077L972.933 67.6803L984.028 74.4247L980.322 61.9804L975.53 63.4077ZM974.449 56.7559H969.449V56.8355L969.451 56.915L974.449 56.7559ZM974.449 54.3612H979.449V51.1276L976.5 49.8012L974.449 54.3612ZM960.646 50.5602H955.646V55.0065L960.062 55.5259L960.646 50.5602ZM949.546 50.7502L950.185 55.7091L954.546 55.1468V50.7502H949.546ZM910.882 91.5354H915.882L915.882 91.5223L910.882 91.5354ZM910.882 110.313L915.865 110.72L915.882 110.516V110.313H910.882ZM905.269 128.596L909.372 131.453L909.513 131.251L909.633 131.036L905.269 128.596ZM895 139.733L898.132 143.631L898.162 143.606L898.193 143.581L895 139.733ZM893.958 141.019L889.478 138.798L889.478 138.798L893.958 141.019ZM893.587 142.583L888.587 142.577V142.583H893.587ZM894.805 150.441L898.178 146.75L898.178 146.75L894.805 150.441ZM1016.26 150.441L1012.89 146.75L1016.26 150.441ZM1017.48 142.583H1022.48L1022.48 142.577L1017.48 142.583ZM1017.11 141.019L1021.59 138.798L1021.59 138.798L1017.11 141.019ZM962.832 161.708L965.975 165.597H965.975L962.832 161.708ZM955.737 164.249L955.803 169.249L955.823 169.249L955.842 169.248L955.737 164.249ZM966.463 155.583L971.4 156.379L972.334 150.583H966.463V155.583ZM944.595 155.583V150.583H938.724L939.659 156.38L944.595 155.583ZM948.384 161.832L945.314 165.778H945.314L948.384 161.832ZM1005.63 80.7602C1019.44 80.7602 1031.41 70.425 1031.41 56.755H1021.41C1021.41 64.0775 1014.78 70.7602 1005.63 70.7602V80.7602ZM979.838 56.755C979.838 70.425 991.815 80.7602 1005.63 80.7602V70.7602C996.475 70.7602 989.838 64.0775 989.838 56.755H979.838ZM1005.63 32.7498C991.815 32.7498 979.838 43.0849 979.838 56.755H989.838C989.838 49.4324 996.475 42.7498 1005.63 42.7498V32.7498ZM1031.41 56.755C1031.41 43.0849 1019.44 32.7498 1005.63 32.7498V42.7498C1014.78 42.7498 1021.41 49.4324 1021.41 56.755H1031.41ZM1001.55 131.483C1004.73 135.985 1008.55 140.062 1012.91 143.608L1019.22 135.857C1015.56 132.869 1012.36 129.453 1009.71 125.709L1001.55 131.483ZM995.033 110.72C995.614 117.824 997.739 124.731 1001.27 131.036L1009.99 126.155C1007.15 121.076 1005.46 115.552 1005 109.906L995.033 110.72ZM995.017 91.5354V110.313H1005.02V91.5354H995.017ZM994.439 85.6624C994.809 87.6159 995.002 89.5924 995.017 91.5724L1005.02 91.4984C1005 88.9168 1004.75 86.342 1004.26 83.8008L994.439 85.6624ZM987.719 85.9679C991.069 87.7224 994.694 88.9631 998.453 89.6501L1000.25 79.813C997.465 79.3039 994.8 78.3882 992.359 77.1095L987.719 85.9679ZM996.702 91.5755C996.704 87.6207 996.052 83.6938 994.773 79.9305L985.305 83.1468C986.234 85.8821 986.703 88.7214 986.702 91.5714L996.702 91.5755ZM996.702 110.351V91.5734H986.702V110.351H996.702ZM1002.88 130.067C999.252 123.847 997.149 117.011 996.691 110.024L986.713 110.678C987.274 119.244 989.851 127.578 994.243 135.106L1002.88 130.067ZM1012.02 140.242C1008.45 137.089 1005.31 133.564 1002.68 129.746L994.447 135.427C997.553 139.926 1001.23 144.058 1005.4 147.737L1012.02 140.242ZM902.234 148.99H1008.71V138.99H902.234V148.99ZM908.264 129.746C905.629 133.564 902.495 137.089 898.924 140.242L905.544 147.737C909.71 144.058 913.388 139.926 916.493 135.427L908.264 129.746ZM914.249 110.024C913.791 117.011 911.688 123.847 908.06 130.067L916.697 135.106C921.089 127.578 923.666 119.244 924.227 110.678L914.249 110.024ZM914.238 91.5354V110.351H924.238V91.5354H914.238ZM917.404 76.6618C915.293 81.3738 914.213 86.4382 914.238 91.5603L924.238 91.5106C924.22 87.8347 924.994 84.1795 926.53 80.7499L917.404 76.6618ZM926.479 64.1331C922.606 67.6981 919.514 71.9512 917.404 76.6618L926.53 80.7499C928.067 77.3188 930.343 74.1679 933.252 71.4905L926.479 64.1331ZM939.944 55.8455C934.93 57.7594 930.351 60.569 926.479 64.1331L933.252 71.4905C936.161 68.8123 939.644 66.6639 943.51 65.1879L939.944 55.8455ZM955.73 52.9342C950.32 52.9454 944.957 53.9317 939.944 55.8455L943.51 65.1879C947.377 63.7118 951.538 62.9429 955.751 62.9342L955.73 52.9342ZM978.127 59.1351C971.46 55.0827 963.675 52.94 955.744 52.9342L955.737 62.9342C961.889 62.9387 967.871 64.6039 972.933 67.6803L978.127 59.1351ZM969.451 56.915C969.537 59.5962 969.969 62.2552 970.738 64.835L980.322 61.9804C979.797 60.2193 979.504 58.4126 979.446 56.5967L969.451 56.915ZM969.449 54.3612V56.7559H979.449V54.3612H969.449ZM960.062 55.5259C964.361 56.0316 968.529 57.1813 972.398 58.9212L976.5 49.8012C971.686 47.6364 966.527 46.2175 961.23 45.5944L960.062 55.5259ZM955.646 45.7708V50.5602H965.646V45.7708H955.646ZM955.647 45.8729C955.68 45.9029 955.679 45.9137 955.669 45.8923C955.659 45.8699 955.646 45.8269 955.646 45.7708H965.646C965.646 42.947 964.415 40.3401 962.394 38.4926L955.647 45.8729ZM955.096 45.6965C955.379 45.6965 955.571 45.8035 955.647 45.8729L962.394 38.4926C960.388 36.6587 957.757 35.6965 955.096 35.6965V45.6965ZM954.545 45.8729C954.621 45.8035 954.813 45.6965 955.096 45.6965V35.6965C952.435 35.6965 949.803 36.6587 947.798 38.4926L954.545 45.8729ZM954.546 45.7708C954.546 45.8269 954.533 45.8699 954.523 45.8923C954.513 45.9137 954.512 45.9029 954.545 45.8729L947.798 38.4926C945.777 40.3401 944.546 42.947 944.546 45.7708H954.546ZM954.546 50.7502V45.7708H944.546V50.7502H954.546ZM925.491 67.9649C931.765 61.3467 940.523 56.9554 950.185 55.7091L948.906 45.7913C937.081 47.3164 926.173 52.7104 918.234 61.085L925.491 67.9649ZM915.882 91.5223C915.859 82.944 919.228 74.5717 925.491 67.9649L918.234 61.085C910.284 69.471 905.852 80.2864 905.882 91.5486L915.882 91.5223ZM915.882 110.313V91.5354H905.882V110.313H915.882ZM909.633 131.036C913.16 124.731 915.285 117.824 915.865 110.72L905.898 109.906C905.437 115.552 903.746 121.076 900.905 126.155L909.633 131.036ZM898.193 143.581C902.482 140.022 906.244 135.946 909.372 131.453L901.166 125.738C898.565 129.474 895.42 132.888 891.808 135.885L898.193 143.581ZM898.437 143.24C898.347 143.423 898.233 143.55 898.132 143.631L891.869 135.834C890.881 136.628 890.056 137.632 889.478 138.798L898.437 143.24ZM898.587 142.59C898.587 142.832 898.529 143.055 898.437 143.24L889.478 138.798C888.899 139.966 888.589 141.255 888.587 142.577L898.587 142.59ZM898.587 147.753V142.583H888.587V147.753H898.587ZM898.178 146.75C898.379 146.934 898.587 147.283 898.587 147.753H888.587C888.587 150.239 889.671 152.522 891.431 154.131L898.178 146.75ZM897.744 146.554C897.796 146.554 897.856 146.563 897.924 146.589C897.992 146.614 898.082 146.662 898.178 146.75L891.431 154.131C893.175 155.726 895.453 156.554 897.744 156.554V146.554ZM1013.32 146.554H897.744V156.554H1013.32V146.554ZM1012.89 146.75C1012.98 146.662 1013.07 146.614 1013.14 146.589C1013.21 146.563 1013.27 146.554 1013.32 146.554V156.554C1015.61 156.554 1017.89 155.726 1019.63 154.131L1012.89 146.75ZM1012.48 147.753C1012.48 147.283 1012.69 146.934 1012.89 146.75L1019.63 154.131C1021.39 152.522 1022.48 150.239 1022.48 147.753H1012.48ZM1012.48 142.583V147.753H1022.48V142.583H1012.48ZM1012.63 143.24C1012.54 143.055 1012.48 142.832 1012.48 142.59L1022.48 142.577C1022.48 141.256 1022.17 139.966 1021.59 138.798L1012.63 143.24ZM1012.93 143.631C1012.83 143.55 1012.72 143.423 1012.63 143.24L1021.59 138.798C1021.01 137.632 1020.18 136.628 1019.2 135.834L1012.93 143.631ZM959.69 157.819C958.623 158.681 957.189 159.218 955.632 159.25L955.842 169.248C959.523 169.171 963.116 167.907 965.975 165.597L959.69 157.819ZM961.527 154.787C961.352 155.873 960.748 156.964 959.69 157.819L965.975 165.597C968.842 163.28 970.811 160.032 971.4 156.379L961.527 154.787ZM944.595 160.583H966.463V150.583H944.595V160.583ZM951.454 157.885C950.344 157.022 949.711 155.901 949.531 154.786L939.659 156.38C940.265 160.133 942.325 163.453 945.314 165.778L951.454 157.885ZM955.671 159.25C954.07 159.271 952.573 158.756 951.454 157.885L945.314 165.778C948.294 168.096 952.023 169.299 955.803 169.249L955.671 159.25Z" fill="#717250" mask="url(#path-13-outside-1_2309_1492)"/>
<path d="M922.471 214.25H914.561L901.948 191.443V214.25H894.434V181.533H904.519L914.956 200.276V181.533H922.471V214.25ZM952.354 201.924C952.354 205.981 951.24 209.182 949.014 211.526C946.802 213.855 943.667 215.019 939.609 215.019C935.581 215.019 932.446 213.855 930.205 211.526C927.979 209.182 926.865 205.981 926.865 201.924C926.865 197.822 927.979 194.614 930.205 192.3C932.446 189.97 935.581 188.806 939.609 188.806C943.652 188.806 946.787 189.978 949.014 192.322C951.24 194.651 952.354 197.851 952.354 201.924ZM944.465 201.968C944.465 200.503 944.341 199.287 944.092 198.32C943.857 197.339 943.528 196.555 943.103 195.969C942.649 195.354 942.136 194.929 941.565 194.695C940.994 194.446 940.342 194.321 939.609 194.321C938.921 194.321 938.298 194.431 937.742 194.651C937.185 194.856 936.672 195.259 936.204 195.859C935.764 196.43 935.413 197.214 935.149 198.21C934.885 199.206 934.753 200.459 934.753 201.968C934.753 203.476 934.878 204.699 935.127 205.637C935.376 206.56 935.698 207.3 936.094 207.856C936.504 208.427 937.017 208.845 937.632 209.109C938.247 209.372 938.928 209.504 939.675 209.504C940.291 209.504 940.913 209.372 941.543 209.109C942.188 208.845 942.7 208.449 943.081 207.922C943.535 207.292 943.879 206.538 944.114 205.659C944.348 204.765 944.465 203.535 944.465 201.968ZM965.889 214.734C962.754 214.734 960.469 214.089 959.033 212.8C957.612 211.511 956.902 209.402 956.902 206.472V194.936H953.958V189.575H956.902V182.522H964.592V189.575H971.997V194.936H964.592V203.681C964.592 204.546 964.6 205.3 964.614 205.945C964.629 206.589 964.746 207.168 964.966 207.68C965.171 208.193 965.53 208.603 966.042 208.911C966.57 209.204 967.332 209.35 968.328 209.35C968.738 209.35 969.272 209.262 969.932 209.087C970.605 208.911 971.074 208.75 971.338 208.603H971.997V214.031C971.162 214.25 970.276 214.419 969.338 214.536C968.401 214.668 967.251 214.734 965.889 214.734ZM982.852 214.25H975.161V189.575H982.852V214.25ZM983.071 186.059H974.941V180.061H983.071V186.059ZM1004.52 185.862H1003.92C1003.63 185.774 1003.17 185.664 1002.54 185.532C1001.92 185.385 1001.34 185.312 1000.78 185.312C999.229 185.312 998.167 185.598 997.595 186.169C997.039 186.74 996.76 187.81 996.76 189.377V189.575H1002.87V194.936H997.024V214.25H989.333V194.936H986.257V189.575H989.333V188.894C989.333 185.876 990.125 183.613 991.707 182.104C993.289 180.595 995.684 179.841 998.892 179.841C1000 179.841 1001.04 179.885 1002.01 179.973C1002.98 180.046 1003.81 180.149 1004.52 180.281V185.862ZM1028.99 189.575L1016.54 223.303H1008.27L1012.01 213.657L1002.96 189.575H1011.04L1016.23 205.044L1021.08 189.575H1028.99Z" fill="black"/>
<rect x="1211.5" y="40" width="238" height="177" rx="30" fill="white" fill-opacity="0.5"/>
<path d="M1374.71 116.5C1374.71 127.105 1374.71 132.411 1370.82 135.704C1366.94 139 1360.69 139 1348.18 139H1312.82C1300.31 139 1294.06 139 1290.18 135.704C1286.29 132.411 1286.29 127.105 1286.29 116.5V101.5C1286.29 90.895 1286.29 85.5888 1290.18 82.2963C1294.06 79 1300.31 79 1312.82 79H1348.18C1360.69 79 1366.94 79 1370.82 82.2963C1374.71 85.5888 1374.71 90.895 1374.71 101.5V116.5Z" stroke="#4C4C4E" stroke-width="10"/>
<path d="M1317.24 64L1330.5 77.125L1343.76 64M1348.19 79V139" stroke="#4C4C4E" stroke-width="10" stroke-linecap="round"/>
<path d="M1365.87 116.5C1365.87 115.505 1365.4 114.552 1364.57 113.848C1363.74 113.145 1362.62 112.75 1361.45 112.75C1360.27 112.75 1359.15 113.145 1358.32 113.848C1357.49 114.552 1357.03 115.505 1357.03 116.5C1357.03 117.495 1357.49 118.448 1358.32 119.152C1359.15 119.855 1360.27 120.25 1361.45 120.25C1362.62 120.25 1363.74 119.855 1364.57 119.152C1365.4 118.448 1365.87 117.495 1365.87 116.5ZM1365.87 101.5C1365.87 100.505 1365.4 99.5516 1364.57 98.8484C1363.74 98.1451 1362.62 97.75 1361.45 97.75C1360.27 97.75 1359.15 98.1451 1358.32 98.8484C1357.49 99.5516 1357.03 100.505 1357.03 101.5C1357.03 102.495 1357.49 103.448 1358.32 104.152C1359.15 104.855 1360.27 105.25 1361.45 105.25C1362.62 105.25 1363.74 104.855 1364.57 104.152C1365.4 103.448 1365.87 102.495 1365.87 101.5Z" fill="#4C4C4E"/>
<path d="M1312.73 166.188L1307.21 188H1301.2L1297.7 174.509L1294.3 188H1288.3L1282.78 166.188H1288.46L1291.46 180.822L1295.12 166.188H1300.56L1304.03 180.822L1307.19 166.188H1312.73ZM1324.22 183.708V180.28C1323.35 180.368 1322.64 180.446 1322.11 180.515C1321.57 180.573 1321.04 180.695 1320.52 180.881C1320.08 181.037 1319.72 181.276 1319.47 181.599C1319.23 181.911 1319.1 182.331 1319.1 182.858C1319.1 183.63 1319.31 184.162 1319.72 184.455C1320.14 184.738 1320.75 184.88 1321.56 184.88C1322.01 184.88 1322.47 184.777 1322.94 184.572C1323.41 184.367 1323.83 184.079 1324.22 183.708ZM1324.22 186.257C1323.86 186.55 1323.55 186.813 1323.26 187.048C1322.99 187.282 1322.62 187.517 1322.15 187.751C1321.69 187.976 1321.24 188.146 1320.8 188.264C1320.37 188.381 1319.77 188.439 1318.99 188.439C1317.53 188.439 1316.32 187.951 1315.35 186.975C1314.4 185.998 1313.92 184.768 1313.92 183.283C1313.92 182.062 1314.16 181.076 1314.65 180.324C1315.14 179.572 1315.84 178.977 1316.76 178.537C1317.69 178.088 1318.8 177.775 1320.08 177.6C1321.37 177.424 1322.76 177.287 1324.25 177.189V177.102C1324.25 176.193 1323.91 175.568 1323.23 175.227C1322.57 174.875 1321.57 174.699 1320.23 174.699C1319.63 174.699 1318.92 174.812 1318.11 175.036C1317.3 175.251 1316.51 175.529 1315.73 175.871H1315.29V171.901C1315.8 171.755 1316.62 171.584 1317.76 171.389C1318.89 171.184 1320.03 171.081 1321.18 171.081C1324.02 171.081 1326.08 171.555 1327.37 172.502C1328.66 173.439 1329.31 174.875 1329.31 176.809V188H1324.22V186.257ZM1339.41 188.322C1337.32 188.322 1335.79 187.893 1334.84 187.033C1333.89 186.174 1333.42 184.768 1333.42 182.814V175.124H1331.45V171.55H1333.42V166.848H1338.54V171.55H1343.48V175.124H1338.54V180.954C1338.54 181.53 1338.55 182.033 1338.56 182.463C1338.57 182.893 1338.64 183.278 1338.79 183.62C1338.93 183.962 1339.17 184.235 1339.51 184.44C1339.86 184.636 1340.37 184.733 1341.03 184.733C1341.31 184.733 1341.66 184.675 1342.1 184.558C1342.55 184.44 1342.86 184.333 1343.04 184.235H1343.48V187.854C1342.92 188 1342.33 188.112 1341.71 188.19C1341.08 188.278 1340.31 188.322 1339.41 188.322ZM1353.66 188.439C1352.3 188.439 1351.06 188.269 1349.92 187.927C1348.8 187.585 1347.82 187.058 1346.99 186.345C1346.17 185.632 1345.53 184.738 1345.08 183.664C1344.62 182.58 1344.39 181.306 1344.39 179.841C1344.39 178.269 1344.64 176.931 1345.13 175.827C1345.63 174.724 1346.31 173.815 1347.16 173.103C1347.98 172.419 1348.94 171.916 1350.04 171.594C1351.15 171.262 1352.31 171.096 1353.51 171.096C1354.42 171.096 1355.33 171.203 1356.24 171.418C1357.15 171.623 1358.06 171.955 1358.98 172.414V176.809H1358.32C1358.11 176.613 1357.86 176.398 1357.56 176.164C1357.26 175.93 1356.94 175.715 1356.59 175.52C1356.22 175.314 1355.8 175.144 1355.33 175.007C1354.86 174.86 1354.34 174.787 1353.76 174.787C1352.45 174.787 1351.44 175.246 1350.71 176.164C1350 177.072 1349.65 178.298 1349.65 179.841C1349.65 181.491 1350.03 182.722 1350.79 183.532C1351.56 184.343 1352.58 184.748 1353.85 184.748C1354.49 184.748 1355.06 184.675 1355.55 184.528C1356.04 184.382 1356.46 184.206 1356.81 184.001C1357.15 183.796 1357.44 183.586 1357.69 183.371C1357.93 183.146 1358.14 182.946 1358.32 182.771H1358.98V187.165C1358.68 187.292 1358.34 187.438 1357.95 187.604C1357.57 187.771 1357.18 187.907 1356.78 188.015C1356.28 188.151 1355.81 188.254 1355.37 188.322C1354.94 188.4 1354.37 188.439 1353.66 188.439ZM1376.82 188H1371.66V179.841C1371.66 179.177 1371.63 178.518 1371.57 177.863C1371.53 177.199 1371.43 176.711 1371.28 176.398C1371.11 176.027 1370.85 175.764 1370.52 175.607C1370.19 175.441 1369.74 175.358 1369.19 175.358C1368.77 175.358 1368.34 175.437 1367.91 175.593C1367.48 175.749 1367.02 175.998 1366.54 176.34V188H1361.41V165.207H1366.54V173.366C1367.38 172.653 1368.19 172.097 1368.98 171.696C1369.78 171.296 1370.67 171.096 1371.63 171.096C1373.31 171.096 1374.6 171.628 1375.49 172.692C1376.37 173.747 1376.82 175.28 1376.82 177.292V188Z" fill="#4C4C4E"/>
<g filter="url(#filter1_b_2309_1492)">
<rect x="1549.5" y="61" width="191" height="135" rx="30" fill="white" fill-opacity="0.5"/>
<path fill-rule="evenodd" clip-rule="evenodd" d="M1668.13 81.7644H1628.98C1623.1 81.7644 1618.31 85.8377 1618.31 90.843V93.8692H1614.75C1613.8 93.8692 1612.9 94.188 1612.23 94.7555C1611.56 95.323 1611.19 96.0928 1611.19 96.8953C1611.19 97.6979 1611.56 98.4677 1612.23 99.0352C1612.9 99.6027 1613.8 99.9215 1614.75 99.9215H1618.31V105.974H1614.75C1613.8 105.974 1612.9 106.293 1612.23 106.86C1611.56 107.428 1611.19 108.198 1611.19 109C1611.19 109.803 1611.56 110.572 1612.23 111.14C1612.9 111.707 1613.8 112.026 1614.75 112.026H1618.31V118.079H1614.75C1613.8 118.079 1612.9 118.397 1612.23 118.965C1611.56 119.533 1611.19 120.302 1611.19 121.105C1611.19 121.907 1611.56 122.677 1612.23 123.245C1612.9 123.812 1613.8 124.131 1614.75 124.131H1618.31V127.157C1618.31 132.163 1623.1 136.236 1628.98 136.236H1668.13C1674.02 136.236 1678.81 132.163 1678.81 127.157V90.843C1678.81 85.8377 1674.02 81.7644 1668.13 81.7644ZM1625.42 90.843C1625.42 89.1755 1627.02 87.8168 1628.98 87.8168V93.8692H1625.42V90.843ZM1625.42 99.9215H1628.98V105.974H1625.42V99.9215ZM1625.42 112.026H1628.98V118.079H1625.42V112.026ZM1625.42 127.157V124.131H1628.98V130.183C1627.02 130.183 1625.42 128.825 1625.42 127.157ZM1671.69 127.157C1671.69 128.825 1670.1 130.183 1668.13 130.183H1632.54V87.8168H1668.13C1670.1 87.8168 1671.69 89.1755 1671.69 90.843V127.157ZM1650.34 110.512C1654.27 110.512 1657.46 107.803 1657.46 104.46C1657.46 101.117 1654.27 98.4076 1650.34 98.4076C1646.41 98.4076 1643.22 101.117 1643.22 104.46C1643.22 107.803 1646.41 110.512 1650.34 110.512ZM1641.44 117.429C1641.44 115.268 1644.78 113.104 1650.34 113.104C1655.75 113.104 1659.24 115.268 1659.24 117.429C1659.24 118.512 1655.56 119.592 1650.34 119.592C1644.78 119.592 1641.44 118.509 1641.44 117.429Z" fill="#4C4C4E"/>
<path d="M1590.68 170.66C1587.41 170.66 1584.81 169.674 1582.89 167.701C1580.97 165.719 1580 162.936 1580 159.352C1580 155.895 1580.97 153.141 1582.89 151.09C1584.82 149.03 1587.43 147.999 1590.7 147.999C1591.57 147.999 1592.35 148.048 1593.04 148.146C1593.74 148.243 1594.4 148.38 1595.03 148.556C1595.53 148.702 1596.07 148.903 1596.66 149.156C1597.25 149.41 1597.72 149.63 1598.08 149.816V155.016H1597.52C1597.26 154.781 1596.93 154.503 1596.53 154.181C1596.13 153.849 1595.67 153.527 1595.17 153.214C1594.66 152.902 1594.1 152.638 1593.48 152.423C1592.88 152.198 1592.24 152.086 1591.58 152.086C1590.79 152.086 1590.06 152.213 1589.39 152.467C1588.74 152.711 1588.12 153.141 1587.52 153.756C1586.97 154.313 1586.52 155.065 1586.17 156.012C1585.83 156.959 1585.66 158.077 1585.66 159.366C1585.66 160.724 1585.84 161.866 1586.2 162.794C1586.56 163.712 1587.04 164.454 1587.62 165.021C1588.19 165.568 1588.82 165.963 1589.51 166.207C1590.21 166.451 1590.91 166.573 1591.61 166.573C1592.33 166.573 1593.02 166.456 1593.67 166.222C1594.33 165.978 1594.88 165.709 1595.33 165.416C1595.82 165.114 1596.25 164.806 1596.62 164.493C1596.99 164.181 1597.31 163.903 1597.58 163.658H1598.08V168.785C1597.68 168.971 1597.22 169.186 1596.69 169.43C1596.16 169.664 1595.62 169.865 1595.06 170.031C1594.38 170.236 1593.74 170.392 1593.14 170.499C1592.55 170.607 1591.73 170.66 1590.68 170.66ZM1616.82 162.018C1616.82 164.723 1616.07 166.857 1614.59 168.419C1613.12 169.972 1611.03 170.748 1608.32 170.748C1605.63 170.748 1603.54 169.972 1602.05 168.419C1600.57 166.857 1599.82 164.723 1599.82 162.018C1599.82 159.283 1600.57 157.145 1602.05 155.602C1603.54 154.049 1605.63 153.273 1608.32 153.273C1611.02 153.273 1613.11 154.054 1614.59 155.616C1616.07 157.169 1616.82 159.303 1616.82 162.018ZM1611.56 162.047C1611.56 161.071 1611.47 160.26 1611.31 159.615C1611.15 158.961 1610.93 158.439 1610.65 158.048C1610.35 157.638 1610 157.355 1609.62 157.198C1609.24 157.032 1608.81 156.949 1608.32 156.949C1607.86 156.949 1607.45 157.023 1607.08 157.169C1606.7 157.306 1606.36 157.574 1606.05 157.975C1605.76 158.356 1605.52 158.878 1605.35 159.542C1605.17 160.206 1605.08 161.041 1605.08 162.047C1605.08 163.053 1605.17 163.868 1605.33 164.493C1605.5 165.109 1605.71 165.602 1605.98 165.973C1606.25 166.354 1606.59 166.632 1607 166.808C1607.41 166.984 1607.87 167.072 1608.36 167.072C1608.77 167.072 1609.19 166.984 1609.61 166.808C1610.04 166.632 1610.38 166.368 1610.63 166.017C1610.94 165.597 1611.17 165.094 1611.32 164.508C1611.48 163.912 1611.56 163.092 1611.56 162.047ZM1634.95 170.236H1629.79V162.076C1629.79 161.412 1629.77 160.753 1629.71 160.099C1629.66 159.435 1629.56 158.947 1629.41 158.634C1629.24 158.263 1628.98 157.999 1628.65 157.843C1628.32 157.677 1627.88 157.594 1627.32 157.594C1626.9 157.594 1626.47 157.672 1626.04 157.828C1625.62 157.985 1625.16 158.234 1624.67 158.575V170.236H1619.54V153.785H1624.67V155.602C1625.51 154.889 1626.32 154.332 1627.11 153.932C1627.92 153.531 1628.8 153.331 1629.77 153.331C1631.45 153.331 1632.73 153.864 1633.62 154.928C1634.51 155.983 1634.95 157.516 1634.95 159.528V170.236ZM1645.06 170.558C1642.97 170.558 1641.45 170.128 1640.49 169.269C1639.54 168.409 1639.07 167.003 1639.07 165.05V157.36H1637.1V153.785H1639.07V149.083H1644.19V153.785H1649.13V157.36H1644.19V163.19C1644.19 163.766 1644.2 164.269 1644.21 164.698C1644.22 165.128 1644.3 165.514 1644.44 165.856C1644.58 166.198 1644.82 166.471 1645.16 166.676C1645.51 166.871 1646.02 166.969 1646.68 166.969C1646.96 166.969 1647.31 166.91 1647.75 166.793C1648.2 166.676 1648.52 166.569 1648.69 166.471H1649.13V170.089C1648.57 170.236 1647.98 170.348 1647.36 170.426C1646.73 170.514 1645.97 170.558 1645.06 170.558ZM1660.31 165.944V162.516C1659.44 162.604 1658.74 162.682 1658.2 162.75C1657.66 162.809 1657.13 162.931 1656.62 163.116C1656.17 163.273 1655.82 163.512 1655.56 163.834C1655.32 164.147 1655.2 164.567 1655.2 165.094C1655.2 165.865 1655.4 166.398 1655.81 166.691C1656.23 166.974 1656.85 167.115 1657.66 167.115C1658.11 167.115 1658.56 167.013 1659.03 166.808C1659.5 166.603 1659.93 166.315 1660.31 165.944ZM1660.31 168.492C1659.96 168.785 1659.64 169.049 1659.36 169.283C1659.08 169.518 1658.71 169.752 1658.24 169.987C1657.78 170.211 1657.33 170.382 1656.89 170.499C1656.46 170.616 1655.86 170.675 1655.08 170.675C1653.62 170.675 1652.41 170.187 1651.45 169.21C1650.49 168.234 1650.01 167.003 1650.01 165.519C1650.01 164.298 1650.25 163.312 1650.74 162.56C1651.23 161.808 1651.93 161.212 1652.85 160.773C1653.78 160.323 1654.89 160.011 1656.18 159.835C1657.47 159.659 1658.85 159.523 1660.34 159.425V159.337C1660.34 158.429 1660 157.804 1659.33 157.462C1658.66 157.111 1657.66 156.935 1656.32 156.935C1655.72 156.935 1655.01 157.047 1654.2 157.272C1653.39 157.487 1652.6 157.765 1651.83 158.107H1651.39V154.137C1651.89 153.99 1652.71 153.82 1653.85 153.624C1654.98 153.419 1656.12 153.317 1657.28 153.317C1660.11 153.317 1662.17 153.79 1663.46 154.738C1664.76 155.675 1665.41 157.111 1665.41 159.044V170.236H1660.31V168.492ZM1677.27 170.675C1675.91 170.675 1674.67 170.504 1673.54 170.162C1672.41 169.821 1671.44 169.293 1670.61 168.58C1669.79 167.867 1669.15 166.974 1668.69 165.9C1668.23 164.816 1668 163.541 1668 162.076C1668 160.504 1668.25 159.166 1668.75 158.063C1669.24 156.959 1669.92 156.051 1670.77 155.338C1671.59 154.655 1672.55 154.152 1673.65 153.829C1674.77 153.497 1675.92 153.331 1677.12 153.331C1678.03 153.331 1678.94 153.439 1679.85 153.654C1680.76 153.859 1681.67 154.191 1682.59 154.65V159.044H1681.93C1681.72 158.849 1681.47 158.634 1681.17 158.4C1680.87 158.165 1680.55 157.95 1680.2 157.755C1679.83 157.55 1679.41 157.379 1678.94 157.242C1678.47 157.096 1677.95 157.023 1677.37 157.023C1676.06 157.023 1675.05 157.482 1674.33 158.4C1673.61 159.308 1673.26 160.533 1673.26 162.076C1673.26 163.727 1673.64 164.957 1674.4 165.768C1675.17 166.578 1676.19 166.984 1677.46 166.984C1678.11 166.984 1678.67 166.91 1679.16 166.764C1679.65 166.617 1680.07 166.442 1680.42 166.237C1680.76 166.031 1681.05 165.822 1681.3 165.607C1681.54 165.382 1681.75 165.182 1681.93 165.006H1682.59V169.401C1682.29 169.528 1681.95 169.674 1681.56 169.84C1681.18 170.006 1680.79 170.143 1680.39 170.25C1679.89 170.387 1679.42 170.49 1678.98 170.558C1678.55 170.636 1677.98 170.675 1677.27 170.675ZM1691.32 170.558C1689.23 170.558 1687.71 170.128 1686.75 169.269C1685.8 168.409 1685.33 167.003 1685.33 165.05V157.36H1683.36V153.785H1685.33V149.083H1690.45V153.785H1695.39V157.36H1690.45V163.19C1690.45 163.766 1690.46 164.269 1690.47 164.698C1690.48 165.128 1690.56 165.514 1690.7 165.856C1690.84 166.198 1691.08 166.471 1691.42 166.676C1691.77 166.871 1692.28 166.969 1692.94 166.969C1693.22 166.969 1693.57 166.91 1694.01 166.793C1694.46 166.676 1694.78 166.569 1694.95 166.471H1695.39V170.089C1694.83 170.236 1694.24 170.348 1693.62 170.426C1692.99 170.514 1692.23 170.558 1691.32 170.558ZM1702.51 170.69C1701.3 170.69 1700.15 170.558 1699.07 170.294C1697.99 170.031 1697.1 169.723 1696.4 169.371V165.035H1696.83C1697.07 165.221 1697.35 165.426 1697.66 165.651C1697.97 165.875 1698.41 166.11 1698.96 166.354C1699.44 166.578 1699.98 166.774 1700.58 166.94C1701.18 167.096 1701.84 167.174 1702.54 167.174C1703.26 167.174 1703.9 167.062 1704.44 166.837C1705 166.613 1705.28 166.256 1705.28 165.768C1705.28 165.387 1705.15 165.099 1704.9 164.904C1704.64 164.708 1704.15 164.523 1703.42 164.347C1703.03 164.249 1702.53 164.147 1701.94 164.039C1701.34 163.922 1700.82 163.79 1700.36 163.644C1699.07 163.243 1698.1 162.653 1697.44 161.871C1696.8 161.08 1696.47 160.045 1696.47 158.766C1696.47 158.033 1696.64 157.345 1696.97 156.7C1697.31 156.046 1697.81 155.465 1698.47 154.957C1699.12 154.459 1699.93 154.064 1700.88 153.771C1701.85 153.478 1702.94 153.331 1704.15 153.331C1705.3 153.331 1706.36 153.448 1707.33 153.683C1708.3 153.907 1709.11 154.181 1709.78 154.503V158.663H1709.37C1709.19 158.527 1708.91 158.346 1708.53 158.121C1708.15 157.887 1707.78 157.687 1707.42 157.521C1706.99 157.325 1706.5 157.164 1705.97 157.037C1705.44 156.91 1704.9 156.847 1704.34 156.847C1703.6 156.847 1702.97 156.974 1702.45 157.228C1701.94 157.482 1701.69 157.819 1701.69 158.239C1701.69 158.61 1701.82 158.903 1702.07 159.117C1702.32 159.332 1702.88 159.542 1703.73 159.747C1704.17 159.855 1704.67 159.962 1705.23 160.07C1705.81 160.167 1706.36 160.304 1706.89 160.48C1708.07 160.861 1708.96 161.422 1709.57 162.164C1710.19 162.897 1710.49 163.873 1710.49 165.094C1710.49 165.865 1710.31 166.603 1709.95 167.306C1709.59 167.999 1709.08 168.585 1708.41 169.064C1707.71 169.581 1706.88 169.982 1705.92 170.265C1704.98 170.548 1703.84 170.69 1702.51 170.69Z" fill="#4C4C4E"/>
</g>
<defs>
<filter id="filter0_b_2309_1492" x="149.5" y="31" width="251" height="195" filterUnits="userSpaceOnUse" color-interpolation-filters="sRGB">
<feFlood flood-opacity="0" result="BackgroundImageFix"/>
<feGaussianBlur in="BackgroundImageFix" stdDeviation="15"/>
<feComposite in2="SourceAlpha" operator="in" result="effect1_backgroundBlur_2309_1492"/>
<feBlend mode="normal" in="SourceGraphic" in2="effect1_backgroundBlur_2309_1492" result="shape"/>
</filter>
<filter id="filter1_b_2309_1492" x="1519.5" y="31" width="251" height="195" filterUnits="userSpaceOnUse" color-interpolation-filters="sRGB">
<feFlood flood-opacity="0" result="BackgroundImageFix"/>
<feGaussianBlur in="BackgroundImageFix" stdDeviation="15"/>
<feComposite in2="SourceAlpha" operator="in" result="effect1_backgroundBlur_2309_1492"/>
<feBlend mode="normal" in="SourceGraphic" in2="effect1_backgroundBlur_2309_1492" result="shape"/>
</filter>
</defs>
</svg>
