<svg width="1917" height="257" viewBox="0 0 1917 257" fill="none" xmlns="http://www.w3.org/2000/svg">
<g filter="url(#filter0_b_2309_1453)">
<rect x="186" y="61" width="191" height="135" rx="30" fill="white" fill-opacity="0.5"/>
<path fill-rule="evenodd" clip-rule="evenodd" d="M304.635 81.7644H265.484C259.597 81.7644 254.806 85.8377 254.806 90.843V93.8692H251.247C250.303 93.8692 249.397 94.188 248.73 94.7555C248.062 95.323 247.688 96.0928 247.688 96.8953C247.688 97.6979 248.062 98.4677 248.73 99.0352C249.397 99.6027 250.303 99.9215 251.247 99.9215H254.806V105.974H251.247C250.303 105.974 249.397 106.293 248.73 106.86C248.062 107.428 247.688 108.198 247.688 109C247.688 109.803 248.062 110.572 248.73 111.14C249.397 111.707 250.303 112.026 251.247 112.026H254.806V118.079H251.247C250.303 118.079 249.397 118.397 248.73 118.965C248.062 119.533 247.688 120.302 247.688 121.105C247.688 121.907 248.062 122.677 248.73 123.245C249.397 123.812 250.303 124.131 251.247 124.131H254.806V127.157C254.806 132.163 259.597 136.236 265.484 136.236H304.635C310.522 136.236 315.312 132.163 315.312 127.157V90.843C315.312 85.8377 310.522 81.7644 304.635 81.7644ZM261.924 90.843C261.924 89.1755 263.522 87.8168 265.484 87.8168V93.8692H261.924V90.843ZM261.924 99.9215H265.484V105.974H261.924V99.9215ZM261.924 112.026H265.484V118.079H261.924V112.026ZM261.924 127.157V124.131H265.484V130.183C263.522 130.183 261.924 128.825 261.924 127.157ZM308.194 127.157C308.194 128.825 306.596 130.183 304.635 130.183H269.043V87.8168H304.635C306.596 87.8168 308.194 89.1755 308.194 90.843V127.157ZM286.837 110.512C290.768 110.512 293.955 107.803 293.955 104.46C293.955 101.117 290.768 98.4076 286.837 98.4076C282.905 98.4076 279.718 101.117 279.718 104.46C279.718 107.803 282.905 110.512 286.837 110.512ZM277.942 117.429C277.942 115.268 281.281 113.104 286.84 113.104C292.25 113.104 295.738 115.268 295.738 117.429C295.738 118.512 292.058 119.592 286.84 119.592C281.281 119.592 277.942 118.509 277.942 117.429Z" fill="#4C4C4E"/>
<path d="M227.184 170.66C223.912 170.66 221.314 169.674 219.391 167.701C217.467 165.719 216.505 162.936 216.505 159.352C216.505 155.895 217.467 153.141 219.391 151.09C221.324 149.03 223.927 147.999 227.198 147.999C228.067 147.999 228.849 148.048 229.542 148.146C230.235 148.243 230.899 148.38 231.534 148.556C232.032 148.702 232.574 148.903 233.16 149.156C233.746 149.41 234.22 149.63 234.581 149.816V155.016H234.024C233.761 154.781 233.429 154.503 233.028 154.181C232.628 153.849 232.174 153.527 231.666 153.214C231.158 152.902 230.597 152.638 229.981 152.423C229.376 152.198 228.741 152.086 228.077 152.086C227.286 152.086 226.559 152.213 225.895 152.467C225.24 152.711 224.615 153.141 224.02 153.756C223.473 154.313 223.023 155.065 222.672 156.012C222.33 156.959 222.159 158.077 222.159 159.366C222.159 160.724 222.34 161.866 222.701 162.794C223.062 163.712 223.536 164.454 224.122 165.021C224.688 165.568 225.318 165.963 226.012 166.207C226.715 166.451 227.413 166.573 228.106 166.573C228.829 166.573 229.518 166.456 230.172 166.222C230.826 165.978 231.378 165.709 231.827 165.416C232.315 165.114 232.745 164.806 233.116 164.493C233.487 164.181 233.81 163.903 234.083 163.658H234.581V168.785C234.181 168.971 233.717 169.186 233.189 169.43C232.662 169.664 232.12 169.865 231.563 170.031C230.88 170.236 230.24 170.392 229.645 170.499C229.049 170.607 228.229 170.66 227.184 170.66ZM253.316 162.018C253.316 164.723 252.574 166.857 251.09 168.419C249.615 169.972 247.525 170.748 244.82 170.748C242.135 170.748 240.045 169.972 238.551 168.419C237.066 166.857 236.324 164.723 236.324 162.018C236.324 159.283 237.066 157.145 238.551 155.602C240.045 154.049 242.135 153.273 244.82 153.273C247.516 153.273 249.605 154.054 251.09 155.616C252.574 157.169 253.316 159.303 253.316 162.018ZM248.058 162.047C248.058 161.071 247.975 160.26 247.809 159.615C247.652 158.961 247.433 158.439 247.149 158.048C246.847 157.638 246.505 157.355 246.124 157.198C245.743 157.032 245.309 156.949 244.82 156.949C244.361 156.949 243.946 157.023 243.575 157.169C243.204 157.306 242.862 157.574 242.55 157.975C242.257 158.356 242.022 158.878 241.847 159.542C241.671 160.206 241.583 161.041 241.583 162.047C241.583 163.053 241.666 163.868 241.832 164.493C241.998 165.109 242.213 165.602 242.477 165.973C242.75 166.354 243.092 166.632 243.502 166.808C243.912 166.984 244.366 167.072 244.864 167.072C245.274 167.072 245.689 166.984 246.109 166.808C246.539 166.632 246.881 166.368 247.135 166.017C247.438 165.597 247.667 165.094 247.823 164.508C247.979 163.912 248.058 163.092 248.058 162.047ZM271.451 170.236H266.295V162.076C266.295 161.412 266.266 160.753 266.207 160.099C266.158 159.435 266.061 158.947 265.914 158.634C265.738 158.263 265.484 157.999 265.152 157.843C264.82 157.677 264.376 157.594 263.819 157.594C263.399 157.594 262.975 157.672 262.545 157.828C262.115 157.985 261.656 158.234 261.168 158.575V170.236H256.041V153.785H261.168V155.602C262.008 154.889 262.823 154.332 263.614 153.932C264.415 153.531 265.299 153.331 266.266 153.331C267.945 153.331 269.229 153.864 270.118 154.928C271.007 155.983 271.451 157.516 271.451 159.528V170.236ZM281.559 170.558C279.469 170.558 277.945 170.128 276.988 169.269C276.041 168.409 275.567 167.003 275.567 165.05V157.36H273.604V153.785H275.567V149.083H280.694V153.785H285.631V157.36H280.694V163.19C280.694 163.766 280.699 164.269 280.709 164.698C280.719 165.128 280.797 165.514 280.943 165.856C281.08 166.198 281.319 166.471 281.661 166.676C282.013 166.871 282.521 166.969 283.185 166.969C283.458 166.969 283.814 166.91 284.254 166.793C284.703 166.676 285.016 166.569 285.191 166.471H285.631V170.089C285.074 170.236 284.483 170.348 283.858 170.426C283.233 170.514 282.467 170.558 281.559 170.558ZM296.808 165.944V162.516C295.938 162.604 295.235 162.682 294.698 162.75C294.161 162.809 293.634 162.931 293.116 163.116C292.667 163.273 292.315 163.512 292.062 163.834C291.817 164.147 291.695 164.567 291.695 165.094C291.695 165.865 291.9 166.398 292.311 166.691C292.73 166.974 293.346 167.115 294.156 167.115C294.605 167.115 295.064 167.013 295.533 166.808C296.002 166.603 296.427 166.315 296.808 165.944ZM296.808 168.492C296.456 168.785 296.139 169.049 295.855 169.283C295.582 169.518 295.211 169.752 294.742 169.987C294.283 170.211 293.834 170.382 293.395 170.499C292.965 170.616 292.359 170.675 291.578 170.675C290.123 170.675 288.912 170.187 287.945 169.21C286.988 168.234 286.51 167.003 286.51 165.519C286.51 164.298 286.754 163.312 287.242 162.56C287.73 161.808 288.434 161.212 289.352 160.773C290.279 160.323 291.388 160.011 292.677 159.835C293.966 159.659 295.353 159.523 296.837 159.425V159.337C296.837 158.429 296.5 157.804 295.826 157.462C295.162 157.111 294.161 156.935 292.823 156.935C292.218 156.935 291.51 157.047 290.699 157.272C289.889 157.487 289.098 157.765 288.326 158.107H287.887V154.137C288.395 153.99 289.215 153.82 290.348 153.624C291.48 153.419 292.623 153.317 293.775 153.317C296.607 153.317 298.668 153.79 299.957 154.738C301.256 155.675 301.905 157.111 301.905 159.044V170.236H296.808V168.492ZM313.771 170.675C312.413 170.675 311.168 170.504 310.035 170.162C308.912 169.821 307.936 169.293 307.105 168.58C306.285 167.867 305.646 166.974 305.187 165.9C304.728 164.816 304.498 163.541 304.498 162.076C304.498 160.504 304.747 159.166 305.245 158.063C305.743 156.959 306.417 156.051 307.267 155.338C308.087 154.655 309.049 154.152 310.152 153.829C311.266 153.497 312.423 153.331 313.624 153.331C314.532 153.331 315.44 153.439 316.349 153.654C317.257 153.859 318.17 154.191 319.088 154.65V159.044H318.429C318.224 158.849 317.97 158.634 317.667 158.4C317.374 158.165 317.052 157.95 316.7 157.755C316.329 157.55 315.909 157.379 315.44 157.242C314.972 157.096 314.449 157.023 313.873 157.023C312.564 157.023 311.549 157.482 310.826 158.4C310.113 159.308 309.757 160.533 309.757 162.076C309.757 163.727 310.138 164.957 310.899 165.768C311.671 166.578 312.691 166.984 313.961 166.984C314.605 166.984 315.172 166.91 315.66 166.764C316.148 166.617 316.568 166.442 316.92 166.237C317.262 166.031 317.555 165.822 317.799 165.607C318.043 165.382 318.253 165.182 318.429 165.006H319.088V169.401C318.795 169.528 318.453 169.674 318.062 169.84C317.682 170.006 317.291 170.143 316.891 170.25C316.393 170.387 315.924 170.49 315.484 170.558C315.055 170.636 314.483 170.675 313.771 170.675ZM327.818 170.558C325.729 170.558 324.205 170.128 323.248 169.269C322.301 168.409 321.827 167.003 321.827 165.05V157.36H319.864V153.785H321.827V149.083H326.954V153.785H331.891V157.36H326.954V163.19C326.954 163.766 326.959 164.269 326.969 164.698C326.979 165.128 327.057 165.514 327.203 165.856C327.34 166.198 327.579 166.471 327.921 166.676C328.272 166.871 328.78 166.969 329.444 166.969C329.718 166.969 330.074 166.91 330.514 166.793C330.963 166.676 331.275 166.569 331.451 166.471H331.891V170.089C331.334 170.236 330.743 170.348 330.118 170.426C329.493 170.514 328.727 170.558 327.818 170.558ZM339.01 170.69C337.799 170.69 336.651 170.558 335.567 170.294C334.493 170.031 333.604 169.723 332.901 169.371V165.035H333.326C333.57 165.221 333.849 165.426 334.161 165.651C334.474 165.875 334.908 166.11 335.465 166.354C335.943 166.578 336.48 166.774 337.076 166.94C337.682 167.096 338.336 167.174 339.039 167.174C339.762 167.174 340.396 167.062 340.943 166.837C341.5 166.613 341.778 166.256 341.778 165.768C341.778 165.387 341.651 165.099 341.397 164.904C341.144 164.708 340.65 164.523 339.918 164.347C339.527 164.249 339.034 164.147 338.438 164.039C337.843 163.922 337.315 163.79 336.856 163.644C335.567 163.243 334.596 162.653 333.941 161.871C333.297 161.08 332.975 160.045 332.975 158.766C332.975 158.033 333.141 157.345 333.473 156.7C333.814 156.046 334.312 155.465 334.967 154.957C335.621 154.459 336.427 154.064 337.384 153.771C338.351 153.478 339.439 153.331 340.65 153.331C341.803 153.331 342.862 153.448 343.829 153.683C344.796 153.907 345.611 154.181 346.275 154.503V158.663H345.865C345.689 158.527 345.411 158.346 345.03 158.121C344.649 157.887 344.278 157.687 343.917 157.521C343.487 157.325 343.004 157.164 342.467 157.037C341.939 156.91 341.397 156.847 340.841 156.847C340.099 156.847 339.469 156.974 338.951 157.228C338.443 157.482 338.189 157.819 338.189 158.239C338.189 158.61 338.316 158.903 338.57 159.117C338.824 159.332 339.376 159.542 340.226 159.747C340.665 159.855 341.168 159.962 341.734 160.07C342.311 160.167 342.862 160.304 343.39 160.48C344.571 160.861 345.465 161.422 346.07 162.164C346.686 162.897 346.993 163.873 346.993 165.094C346.993 165.865 346.812 166.603 346.451 167.306C346.09 167.999 345.577 168.585 344.913 169.064C344.21 169.581 343.38 169.982 342.423 170.265C341.476 170.548 340.338 170.69 339.01 170.69Z" fill="#4C4C4E"/>
</g>
<g filter="url(#filter1_b_2309_1453)">
<rect x="477" y="40" width="230" height="177" rx="30" fill="white" fill-opacity="0.5"/>
<path d="M623 128.021V133.5H561V128.021C561 125.688 561.624 123.611 562.892 121.692C564.226 119.673 566.18 117.793 568.89 116.101L568.891 116.1C571.549 114.439 574.829 113.129 578.807 112.236C582.811 111.337 587.203 110.875 592 110.875C596.904 110.875 601.346 111.338 605.345 112.236C609.322 113.129 612.6 114.439 615.253 116.099L615.255 116.1C617.962 117.792 619.877 119.66 621.153 121.651C622.387 123.575 623 125.667 623 128.021ZM633.258 102.081C631.721 100.543 631.003 98.8093 631 96.6625C631.001 94.3949 631.739 92.6689 633.227 91.214C634.764 89.7104 636.505 89 638.667 89C640.965 89 642.702 89.7337 644.151 91.1826L646.979 88.3542L644.151 91.1826C645.6 92.6315 646.333 94.3685 646.333 96.6667C646.333 98.8333 645.622 100.576 644.119 102.113C642.665 103.6 640.939 104.336 638.671 104.333H638.667C636.527 104.333 634.796 103.619 633.258 102.081ZM545.338 104.333H545.333C543.193 104.333 541.463 103.619 539.925 102.081C538.388 100.543 537.67 98.8102 537.667 96.6642C537.667 94.3957 538.405 92.6692 539.893 91.214C541.431 89.7104 543.172 89 545.333 89C547.632 89 549.368 89.7337 550.817 91.1826C552.266 92.6315 553 94.3684 553 96.6667C553 98.8333 552.289 100.576 550.786 102.113C549.331 103.6 547.606 104.336 545.338 104.333ZM605.5 84.9969V85C605.5 88.8314 604.223 91.9489 601.622 94.5887L604.472 97.3958L601.622 94.5887C599.054 97.1958 595.938 98.5 592 98.5C588.188 98.5 585.077 97.2115 582.433 94.5674C579.788 91.9233 578.5 88.8124 578.5 85C578.5 81.0673 579.804 77.9527 582.411 75.3837C585.052 72.7827 588.17 71.5034 592.002 71.5C595.951 71.5004 599.074 72.7935 601.643 75.3626C604.212 77.9319 605.503 81.0524 605.5 84.9969ZM526 133.5V128.312C526 125.82 527.139 123.581 530.509 121.513C533.956 119.398 538.793 118.167 545.333 118.167C545.564 118.167 545.792 118.168 546.019 118.169C545.809 118.725 545.617 119.287 545.444 119.856C544.644 122.485 544.25 125.211 544.25 128.021V133.5H526ZM639.75 133.5V128.021C639.75 125.158 639.393 122.409 638.655 119.79C638.501 119.243 638.33 118.703 638.143 118.17C638.319 118.168 638.496 118.167 638.673 118.167C645.221 118.167 650.067 119.38 653.518 121.46C656.835 123.459 658 125.699 658 128.312V133.5H639.75Z" stroke="#4C4C4E" stroke-width="8"/>
<path d="M558.763 182.255C557.806 182.646 556.561 183.026 555.027 183.397C553.504 183.769 552 183.954 550.516 183.954C547.088 183.954 544.354 182.968 542.312 180.995C540.281 179.013 539.266 176.205 539.266 172.572C539.266 169.154 540.281 166.415 542.312 164.354C544.354 162.294 547.142 161.264 550.677 161.264C552.503 161.264 553.987 161.439 555.13 161.791C556.272 162.133 557.454 162.602 558.675 163.197V168.31H558.177C557.913 168.104 557.532 167.816 557.034 167.445C556.546 167.064 556.067 166.742 555.599 166.479C555.052 166.166 554.417 165.897 553.694 165.673C552.981 165.448 552.225 165.336 551.424 165.336C550.486 165.336 549.632 165.482 548.86 165.775C548.089 166.068 547.4 166.518 546.795 167.123C546.219 167.709 545.76 168.451 545.418 169.35C545.086 170.248 544.92 171.293 544.92 172.484C544.92 175.033 545.56 176.913 546.839 178.124C548.118 179.335 549.866 179.94 552.083 179.94C552.278 179.94 552.508 179.936 552.771 179.926C553.035 179.916 553.265 179.901 553.46 179.882V175.604H549.227V171.518H558.763V182.255ZM573.646 171.898H573.221C573.025 171.83 572.742 171.781 572.371 171.752C572 171.713 571.59 171.693 571.141 171.693C570.604 171.693 570.037 171.771 569.441 171.928C568.855 172.084 568.284 172.27 567.728 172.484V183.5H562.601V167.05H567.728V169.408C567.962 169.193 568.284 168.925 568.694 168.603C569.114 168.271 569.495 168.007 569.837 167.812C570.208 167.587 570.638 167.396 571.126 167.24C571.624 167.074 572.093 166.991 572.532 166.991C572.698 166.991 572.884 166.996 573.089 167.006C573.294 167.016 573.479 167.03 573.646 167.05V171.898ZM591.399 175.282C591.399 177.987 590.657 180.121 589.173 181.684C587.698 183.236 585.608 184.013 582.903 184.013C580.218 184.013 578.128 183.236 576.634 181.684C575.149 180.121 574.407 177.987 574.407 175.282C574.407 172.548 575.149 170.409 576.634 168.866C578.128 167.313 580.218 166.537 582.903 166.537C585.599 166.537 587.688 167.318 589.173 168.881C590.657 170.434 591.399 172.567 591.399 175.282ZM586.141 175.312C586.141 174.335 586.058 173.524 585.892 172.88C585.735 172.226 585.516 171.703 585.232 171.312C584.93 170.902 584.588 170.619 584.207 170.463C583.826 170.297 583.392 170.214 582.903 170.214C582.444 170.214 582.029 170.287 581.658 170.434C581.287 170.57 580.945 170.839 580.633 171.239C580.34 171.62 580.105 172.143 579.93 172.807C579.754 173.471 579.666 174.306 579.666 175.312C579.666 176.317 579.749 177.133 579.915 177.758C580.081 178.373 580.296 178.866 580.56 179.237C580.833 179.618 581.175 179.896 581.585 180.072C581.995 180.248 582.449 180.336 582.947 180.336C583.357 180.336 583.772 180.248 584.192 180.072C584.622 179.896 584.964 179.633 585.218 179.281C585.521 178.861 585.75 178.358 585.906 177.772C586.062 177.177 586.141 176.356 586.141 175.312ZM609.402 183.5H604.275V181.684C603.387 182.426 602.571 182.992 601.829 183.383C601.087 183.764 600.203 183.954 599.178 183.954C597.547 183.954 596.272 183.441 595.354 182.416C594.446 181.381 593.992 179.828 593.992 177.758V167.05H599.148V175.209C599.148 176.059 599.168 176.752 599.207 177.289C599.256 177.826 599.363 178.28 599.529 178.651C599.686 178.993 599.925 179.252 600.247 179.428C600.579 179.604 601.038 179.691 601.624 179.691C601.985 179.691 602.41 179.604 602.898 179.428C603.396 179.252 603.855 179.013 604.275 178.71V167.05H609.402V183.5ZM629.471 175.048C629.471 177.675 628.802 179.794 627.464 181.405C626.136 183.017 624.495 183.822 622.542 183.822C621.722 183.822 621.009 183.729 620.403 183.544C619.798 183.358 619.153 183.07 618.47 182.68V189.535H613.343V167.05H618.47V168.764C619.222 168.119 619.988 167.597 620.77 167.196C621.551 166.796 622.454 166.596 623.479 166.596C625.384 166.596 626.858 167.353 627.903 168.866C628.948 170.38 629.471 172.44 629.471 175.048ZM624.227 175.15C624.227 173.549 623.978 172.387 623.479 171.664C622.991 170.941 622.225 170.58 621.18 170.58C620.721 170.58 620.262 170.653 619.803 170.8C619.354 170.946 618.909 171.166 618.47 171.459V179.735C618.743 179.853 619.041 179.936 619.363 179.984C619.695 180.033 620.086 180.058 620.535 180.058C621.785 180.058 622.713 179.652 623.318 178.842C623.924 178.021 624.227 176.791 624.227 175.15ZM637.249 183.954C636.038 183.954 634.891 183.822 633.807 183.559C632.732 183.295 631.844 182.987 631.141 182.636V178.3H631.565C631.81 178.485 632.088 178.69 632.4 178.915C632.713 179.14 633.147 179.374 633.704 179.618C634.183 179.843 634.72 180.038 635.315 180.204C635.921 180.36 636.575 180.438 637.278 180.438C638.001 180.438 638.636 180.326 639.183 180.102C639.739 179.877 640.018 179.521 640.018 179.032C640.018 178.651 639.891 178.363 639.637 178.168C639.383 177.973 638.89 177.787 638.157 177.611C637.767 177.514 637.273 177.411 636.678 177.304C636.082 177.187 635.555 177.055 635.096 176.908C633.807 176.508 632.835 175.917 632.181 175.136C631.536 174.345 631.214 173.31 631.214 172.03C631.214 171.298 631.38 170.609 631.712 169.965C632.054 169.311 632.552 168.729 633.206 168.222C633.86 167.724 634.666 167.328 635.623 167.035C636.59 166.742 637.679 166.596 638.89 166.596C640.042 166.596 641.102 166.713 642.068 166.947C643.035 167.172 643.851 167.445 644.515 167.768V171.928H644.104C643.929 171.791 643.65 171.61 643.27 171.386C642.889 171.151 642.518 170.951 642.156 170.785C641.727 170.59 641.243 170.429 640.706 170.302C640.179 170.175 639.637 170.111 639.08 170.111C638.338 170.111 637.708 170.238 637.19 170.492C636.683 170.746 636.429 171.083 636.429 171.503C636.429 171.874 636.556 172.167 636.81 172.382C637.063 172.597 637.615 172.807 638.465 173.012C638.904 173.119 639.407 173.227 639.974 173.334C640.55 173.432 641.102 173.568 641.629 173.744C642.811 174.125 643.704 174.687 644.31 175.429C644.925 176.161 645.232 177.138 645.232 178.358C645.232 179.13 645.052 179.867 644.69 180.57C644.329 181.264 643.816 181.85 643.152 182.328C642.449 182.846 641.619 183.246 640.662 183.529C639.715 183.812 638.577 183.954 637.249 183.954Z" fill="#4C4C4E"/>
</g>
<rect x="807" y="20" width="303" height="217" rx="30" fill="white"/>
<path d="M891.441 74.176L1048.56 94.3481L1047.79 138.618L908.103 136.198L908.399 119.137" stroke="#717250" stroke-width="10" stroke-linecap="square"/>
<path d="M843 45.5L1074 76.876V156.5H869.02V125.815" stroke="#FEC341" stroke-width="8" stroke-linecap="square"/>
<path d="M852.35 207.093C849.845 207.093 847.641 206.852 845.736 206.368C843.847 205.885 842.089 205.284 840.463 204.566V196.788H841.21C842.851 198.18 844.66 199.249 846.637 199.996C848.615 200.743 850.534 201.117 852.394 201.117C852.863 201.117 853.478 201.065 854.24 200.963C855.016 200.86 855.639 200.699 856.107 200.479C856.679 200.23 857.162 199.886 857.558 199.447C857.953 198.993 858.151 198.399 858.151 197.667C858.151 196.847 857.829 196.18 857.184 195.667C856.54 195.155 855.771 194.781 854.877 194.547C853.764 194.254 852.57 193.976 851.295 193.712C850.036 193.448 848.856 193.126 847.758 192.745C845.224 191.852 843.407 190.65 842.309 189.142C841.21 187.633 840.661 185.743 840.661 183.473C840.661 180.411 841.957 177.936 844.55 176.046C847.143 174.142 850.38 173.189 854.262 173.189C856.21 173.189 858.144 173.387 860.062 173.783C861.996 174.178 863.725 174.713 865.248 175.387V182.857H864.523C863.307 181.817 861.82 180.938 860.062 180.221C858.319 179.503 856.525 179.144 854.679 179.144C853.961 179.144 853.317 179.195 852.746 179.298C852.174 179.4 851.574 179.598 850.944 179.891C850.431 180.125 849.984 180.477 849.604 180.946C849.237 181.4 849.054 181.913 849.054 182.484C849.054 183.319 849.347 183.985 849.933 184.483C850.534 184.967 851.684 185.406 853.383 185.802C854.481 186.051 855.536 186.292 856.547 186.527C857.572 186.761 858.664 187.083 859.821 187.494C862.091 188.314 863.776 189.42 864.875 190.812C865.988 192.188 866.544 194.012 866.544 196.283C866.544 199.535 865.263 202.149 862.699 204.127C860.15 206.104 856.701 207.093 852.35 207.093ZM899.811 206.5V194.173C899.811 192.958 899.789 191.932 899.745 191.097C899.701 190.262 899.569 189.581 899.35 189.054C899.13 188.526 898.786 188.146 898.317 187.911C897.863 187.662 897.218 187.538 896.383 187.538C895.797 187.538 895.219 187.669 894.647 187.933C894.076 188.182 893.454 188.541 892.78 189.01V206.5H885.045V194.173C885.045 192.972 885.016 191.954 884.958 191.119C884.914 190.27 884.782 189.581 884.562 189.054C884.342 188.526 883.998 188.146 883.529 187.911C883.075 187.662 882.438 187.538 881.618 187.538C880.988 187.538 880.373 187.684 879.772 187.977C879.171 188.27 878.585 188.614 878.014 189.01V206.5H870.324V181.825H878.014V184.549C879.274 183.48 880.46 182.645 881.574 182.044C882.687 181.444 883.939 181.144 885.331 181.144C886.84 181.144 888.166 181.502 889.308 182.22C890.451 182.938 891.322 184.007 891.923 185.428C893.402 184.051 894.794 182.997 896.098 182.264C897.416 181.517 898.749 181.144 900.097 181.144C901.239 181.144 902.265 181.327 903.173 181.693C904.081 182.059 904.85 182.608 905.48 183.341C906.168 184.132 906.681 185.077 907.018 186.175C907.37 187.259 907.545 188.68 907.545 190.438V206.5H899.811ZM926.859 200.062V194.92C925.556 195.052 924.501 195.169 923.695 195.272C922.89 195.36 922.099 195.543 921.322 195.821C920.648 196.056 920.121 196.415 919.74 196.898C919.374 197.367 919.191 197.997 919.191 198.788C919.191 199.945 919.499 200.743 920.114 201.183C920.744 201.607 921.667 201.82 922.882 201.82C923.556 201.82 924.245 201.666 924.948 201.358C925.651 201.051 926.288 200.619 926.859 200.062ZM926.859 203.885C926.332 204.325 925.856 204.72 925.431 205.072C925.021 205.423 924.464 205.775 923.761 206.126C923.073 206.463 922.399 206.72 921.74 206.896C921.095 207.071 920.187 207.159 919.015 207.159C916.833 207.159 915.016 206.427 913.566 204.962C912.13 203.497 911.413 201.651 911.413 199.425C911.413 197.594 911.779 196.114 912.511 194.986C913.244 193.858 914.298 192.965 915.675 192.306C917.067 191.632 918.729 191.163 920.663 190.899C922.597 190.636 924.677 190.431 926.903 190.284V190.152C926.903 188.79 926.398 187.853 925.387 187.34C924.391 186.812 922.89 186.549 920.883 186.549C919.975 186.549 918.913 186.717 917.697 187.054C916.481 187.376 915.294 187.794 914.137 188.307H913.478V182.352C914.24 182.132 915.47 181.876 917.169 181.583C918.869 181.275 920.583 181.122 922.311 181.122C926.559 181.122 929.65 181.832 931.583 183.253C933.532 184.659 934.506 186.812 934.506 189.713V206.5H926.859V203.885ZM956.764 189.098H956.127C955.834 188.995 955.409 188.922 954.853 188.878C954.296 188.819 953.681 188.79 953.007 188.79C952.201 188.79 951.352 188.907 950.458 189.142C949.579 189.376 948.722 189.654 947.887 189.977V206.5H940.197V181.825H947.887V185.362C948.239 185.04 948.722 184.637 949.337 184.154C949.967 183.656 950.539 183.26 951.051 182.967C951.608 182.63 952.252 182.345 952.985 182.11C953.732 181.861 954.435 181.737 955.094 181.737C955.343 181.737 955.622 181.744 955.929 181.759C956.237 181.773 956.515 181.795 956.764 181.825V189.098ZM969.157 206.983C966.022 206.983 963.737 206.339 962.301 205.05C960.88 203.761 960.17 201.651 960.17 198.722V187.186H957.226V181.825H960.17V174.771H967.86V181.825H975.265V187.186H967.86V195.931C967.86 196.795 967.868 197.55 967.882 198.194C967.897 198.839 968.014 199.417 968.234 199.93C968.439 200.443 968.798 200.853 969.311 201.161C969.838 201.454 970.6 201.6 971.596 201.6C972.006 201.6 972.541 201.512 973.2 201.336C973.874 201.161 974.342 201 974.606 200.853H975.265V206.28C974.43 206.5 973.544 206.668 972.606 206.786C971.669 206.917 970.519 206.983 969.157 206.983ZM1013.89 206.5H992.052V173.783H1000.27V200.26H1013.89V206.5ZM1041.05 194.173C1041.05 198.231 1039.94 201.432 1037.71 203.775C1035.5 206.104 1032.36 207.269 1028.31 207.269C1024.28 207.269 1021.14 206.104 1018.9 203.775C1016.68 201.432 1015.56 198.231 1015.56 194.173C1015.56 190.072 1016.68 186.864 1018.9 184.549C1021.14 182.22 1024.28 181.056 1028.31 181.056C1032.35 181.056 1035.48 182.228 1037.71 184.571C1039.94 186.9 1041.05 190.101 1041.05 194.173ZM1033.16 194.217C1033.16 192.752 1033.04 191.537 1032.79 190.57C1032.56 189.588 1032.23 188.805 1031.8 188.219C1031.35 187.604 1030.83 187.179 1030.26 186.944C1029.69 186.695 1029.04 186.571 1028.31 186.571C1027.62 186.571 1027 186.681 1026.44 186.9C1025.88 187.105 1025.37 187.508 1024.9 188.109C1024.46 188.68 1024.11 189.464 1023.85 190.46C1023.58 191.456 1023.45 192.708 1023.45 194.217C1023.45 195.726 1023.58 196.949 1023.82 197.887C1024.07 198.81 1024.4 199.549 1024.79 200.106C1025.2 200.677 1025.71 201.095 1026.33 201.358C1026.94 201.622 1027.63 201.754 1028.37 201.754C1028.99 201.754 1029.61 201.622 1030.24 201.358C1030.89 201.095 1031.4 200.699 1031.78 200.172C1032.23 199.542 1032.58 198.788 1032.81 197.909C1033.05 197.015 1033.16 195.785 1033.16 194.217ZM1060.91 178.111H1060.32C1060.03 178.023 1059.57 177.914 1058.94 177.782C1058.32 177.635 1057.74 177.562 1057.18 177.562C1055.63 177.562 1054.56 177.848 1053.99 178.419C1053.44 178.99 1053.16 180.06 1053.16 181.627V181.825H1059.27V187.186H1053.42V206.5H1045.73V187.186H1042.66V181.825H1045.73V181.144C1045.73 178.126 1046.52 175.863 1048.1 174.354C1049.69 172.845 1052.08 172.091 1055.29 172.091C1056.4 172.091 1057.44 172.135 1058.41 172.223C1059.38 172.296 1060.21 172.398 1060.91 172.53V178.111ZM1071.81 206.983C1068.68 206.983 1066.39 206.339 1064.96 205.05C1063.54 203.761 1062.83 201.651 1062.83 198.722V187.186H1059.88V181.825H1062.83V174.771H1070.52V181.825H1077.92V187.186H1070.52V195.931C1070.52 196.795 1070.52 197.55 1070.54 198.194C1070.55 198.839 1070.67 199.417 1070.89 199.93C1071.1 200.443 1071.45 200.853 1071.97 201.161C1072.49 201.454 1073.26 201.6 1074.25 201.6C1074.66 201.6 1075.2 201.512 1075.86 201.336C1076.53 201.161 1077 201 1077.26 200.853H1077.92V206.28C1077.09 206.5 1076.2 206.668 1075.26 206.786C1074.33 206.917 1073.18 206.983 1071.81 206.983Z" fill="black"/>
<g filter="url(#filter2_b_2309_1453)">
<rect x="1210" y="40" width="230" height="177" rx="30" fill="white" fill-opacity="0.5"/>
<mask id="path-12-outside-1_2309_1453" maskUnits="userSpaceOnUse" x="1285.5" y="65.2058" width="79" height="75" fill="black">
<rect fill="white" x="1285.5" y="65.2058" width="79" height="75"/>
<path fill-rule="evenodd" clip-rule="evenodd" d="M1337.91 73.5004C1337.71 73.7073 1337.42 73.8235 1337.13 73.8235H1312.87C1312.58 73.8235 1312.29 73.7073 1312.09 73.5004C1311.88 73.2936 1311.76 73.013 1311.76 72.7205C1311.76 72.428 1311.88 72.1475 1312.09 71.9406C1312.29 71.7338 1312.58 71.6176 1312.87 71.6176H1337.13C1337.42 71.6176 1337.71 71.7338 1337.91 71.9406C1338.12 72.1475 1338.24 72.428 1338.24 72.7205C1338.24 73.013 1338.12 73.2936 1337.91 73.5004ZM1307.35 68.3088V77.1323C1307.35 77.4248 1307.24 77.7053 1307.03 77.9122C1306.82 78.119 1306.54 78.2352 1306.25 78.2352C1305.96 78.2352 1305.68 78.119 1305.47 77.9122C1305.26 77.7053 1305.15 77.4248 1305.15 77.1323V68.3088C1305.15 68.0162 1305.26 67.7357 1305.47 67.5289C1305.68 67.322 1305.96 67.2058 1306.25 67.2058C1306.54 67.2058 1306.82 67.322 1307.03 67.5289C1307.24 67.7357 1307.35 68.0162 1307.35 68.3088ZM1344.53 77.9122C1344.32 78.119 1344.04 78.2352 1343.75 78.2352C1343.46 78.2352 1343.18 78.119 1342.97 77.9122C1342.76 77.7053 1342.65 77.4248 1342.65 77.1323V68.3088C1342.65 68.0162 1342.76 67.7357 1342.97 67.5289C1343.18 67.322 1343.46 67.2058 1343.75 67.2058C1344.04 67.2058 1344.32 67.322 1344.53 67.5289C1344.74 67.7357 1344.85 68.0162 1344.85 68.3088V77.1323C1344.85 77.4248 1344.74 77.7053 1344.53 77.9122ZM1297.43 117.941C1297.13 117.941 1296.85 118.057 1296.65 118.264C1296.44 118.471 1296.32 118.752 1296.32 119.044C1296.32 119.337 1296.44 119.617 1296.65 119.824C1296.85 120.031 1297.13 120.147 1297.43 120.147H1300.74V127.868C1300.74 128.16 1300.85 128.441 1301.06 128.647C1301.27 128.854 1301.55 128.971 1301.84 128.971C1302.13 128.971 1302.41 128.854 1302.62 128.647C1302.82 128.441 1302.94 128.16 1302.94 127.868V120.147H1316.18V127.868C1316.18 128.16 1316.29 128.441 1316.5 128.647C1316.71 128.854 1316.99 128.971 1317.28 128.971C1317.57 128.971 1317.85 128.854 1318.06 128.647C1318.27 128.441 1318.38 128.16 1318.38 127.868V120.147H1331.62V127.868C1331.62 128.16 1331.73 128.441 1331.94 128.647C1332.15 128.854 1332.43 128.971 1332.72 128.971C1333.01 128.971 1333.29 128.854 1333.5 128.647C1333.71 128.441 1333.82 128.16 1333.82 127.868V120.147H1347.06V127.868C1347.06 128.16 1347.18 128.441 1347.38 128.647C1347.59 128.854 1347.87 128.971 1348.16 128.971C1348.45 128.971 1348.73 128.854 1348.94 128.647C1349.15 128.441 1349.26 128.16 1349.26 127.868V120.147H1352.57C1352.87 120.147 1353.15 120.031 1353.35 119.824C1353.56 119.617 1353.68 119.337 1353.68 119.044C1353.68 118.752 1353.56 118.471 1353.35 118.264C1353.15 118.057 1352.87 117.941 1352.57 117.941H1349.26V106.912H1352.57C1352.87 106.912 1353.15 106.795 1353.35 106.589C1353.56 106.382 1353.68 106.101 1353.68 105.809C1353.68 105.516 1353.56 105.236 1353.35 105.029C1353.15 104.822 1352.87 104.706 1352.57 104.706H1349.26V94.7793C1349.26 94.4868 1349.15 94.2063 1348.94 93.9994C1348.73 93.7926 1348.45 93.6764 1348.16 93.6764C1347.87 93.6764 1347.59 93.7926 1347.38 93.9994C1347.18 94.2063 1347.06 94.4868 1347.06 94.7793V104.706H1333.82V94.7793C1333.82 94.4868 1333.71 94.2063 1333.5 93.9994C1333.29 93.7926 1333.01 93.6764 1332.72 93.6764C1332.43 93.6764 1332.15 93.7926 1331.94 93.9994C1331.73 94.2063 1331.62 94.4868 1331.62 94.7793V104.706H1318.38V94.7793C1318.38 94.4868 1318.27 94.2063 1318.06 93.9994C1317.85 93.7926 1317.57 93.6764 1317.28 93.6764C1316.99 93.6764 1316.71 93.7926 1316.5 93.9994C1316.29 94.2063 1316.18 94.4868 1316.18 94.7793V104.706H1302.94V94.7793C1302.94 94.4868 1302.82 94.2063 1302.62 93.9994C1302.41 93.7926 1302.13 93.6764 1301.84 93.6764C1301.55 93.6764 1301.27 93.7926 1301.06 93.9994C1300.85 94.2063 1300.74 94.4868 1300.74 94.7793V104.706H1297.43C1297.13 104.706 1296.85 104.822 1296.65 105.029C1296.44 105.236 1296.32 105.516 1296.32 105.809C1296.32 106.101 1296.44 106.382 1296.65 106.589C1296.85 106.795 1297.13 106.912 1297.43 106.912H1300.74V117.941H1297.43ZM1347.06 106.912V117.941H1333.82V106.912H1347.06ZM1331.62 106.912V117.941H1318.38V106.912H1331.62ZM1302.94 106.912H1316.18V117.941H1302.94V106.912ZM1350.37 73.8235H1359.74C1359.93 73.8235 1360.29 73.8235 1360.29 74.9264V84.8529H1289.71V74.9264C1289.71 74.6339 1289.82 74.3533 1290.03 74.1465C1290.24 73.9397 1290.52 73.8235 1290.81 73.8235H1299.63C1299.92 73.8235 1300.21 73.7073 1300.41 73.5004C1300.62 73.2936 1300.74 73.013 1300.74 72.7205C1300.74 72.428 1300.62 72.1475 1300.41 71.9406C1300.21 71.7338 1299.92 71.6176 1299.63 71.6176H1290.81C1288.98 71.6176 1287.5 73.1021 1287.5 74.9264V85.9558C1287.5 86.2483 1287.62 86.5289 1287.82 86.7357C1288.03 86.9426 1288.31 87.0588 1288.6 87.0588H1361.4C1361.69 87.0588 1361.97 86.9426 1362.18 86.7357C1362.38 86.5289 1362.5 86.2483 1362.5 85.9558V74.9264C1362.5 72.4867 1361.07 71.6176 1359.74 71.6176H1350.37C1350.08 71.6176 1349.79 71.7338 1349.59 71.9406C1349.38 72.1475 1349.26 72.428 1349.26 72.7205C1349.26 73.013 1349.38 73.2936 1349.59 73.5004C1349.79 73.7073 1350.08 73.8235 1350.37 73.8235ZM1362.5 134.485V92.5735C1362.5 92.2809 1362.38 92.0004 1362.18 91.7936C1361.97 91.5867 1361.69 91.4705 1361.4 91.4705C1361.1 91.4705 1360.82 91.5867 1360.62 91.7936C1360.41 92.0004 1360.29 92.2809 1360.29 92.5735V134.485C1360.29 134.778 1360.18 135.058 1359.97 135.265C1359.76 135.472 1359.48 135.588 1359.19 135.588H1290.81C1290.52 135.588 1290.24 135.472 1290.03 135.265C1289.82 135.058 1289.71 134.778 1289.71 134.485V92.5735C1289.71 92.2809 1289.59 92.0004 1289.38 91.7936C1289.18 91.5867 1288.9 91.4705 1288.6 91.4705C1288.31 91.4705 1288.03 91.5867 1287.82 91.7936C1287.62 92.0004 1287.5 92.2809 1287.5 92.5735V134.485C1287.5 136.309 1288.98 137.794 1290.81 137.794H1359.19C1361.02 137.794 1362.5 136.309 1362.5 134.485Z"/>
</mask>
<path fill-rule="evenodd" clip-rule="evenodd" d="M1337.91 73.5004C1337.71 73.7073 1337.42 73.8235 1337.13 73.8235H1312.87C1312.58 73.8235 1312.29 73.7073 1312.09 73.5004C1311.88 73.2936 1311.76 73.013 1311.76 72.7205C1311.76 72.428 1311.88 72.1475 1312.09 71.9406C1312.29 71.7338 1312.58 71.6176 1312.87 71.6176H1337.13C1337.42 71.6176 1337.71 71.7338 1337.91 71.9406C1338.12 72.1475 1338.24 72.428 1338.24 72.7205C1338.24 73.013 1338.12 73.2936 1337.91 73.5004ZM1307.35 68.3088V77.1323C1307.35 77.4248 1307.24 77.7053 1307.03 77.9122C1306.82 78.119 1306.54 78.2352 1306.25 78.2352C1305.96 78.2352 1305.68 78.119 1305.47 77.9122C1305.26 77.7053 1305.15 77.4248 1305.15 77.1323V68.3088C1305.15 68.0162 1305.26 67.7357 1305.47 67.5289C1305.68 67.322 1305.96 67.2058 1306.25 67.2058C1306.54 67.2058 1306.82 67.322 1307.03 67.5289C1307.24 67.7357 1307.35 68.0162 1307.35 68.3088ZM1344.53 77.9122C1344.32 78.119 1344.04 78.2352 1343.75 78.2352C1343.46 78.2352 1343.18 78.119 1342.97 77.9122C1342.76 77.7053 1342.65 77.4248 1342.65 77.1323V68.3088C1342.65 68.0162 1342.76 67.7357 1342.97 67.5289C1343.18 67.322 1343.46 67.2058 1343.75 67.2058C1344.04 67.2058 1344.32 67.322 1344.53 67.5289C1344.74 67.7357 1344.85 68.0162 1344.85 68.3088V77.1323C1344.85 77.4248 1344.74 77.7053 1344.53 77.9122ZM1297.43 117.941C1297.13 117.941 1296.85 118.057 1296.65 118.264C1296.44 118.471 1296.32 118.752 1296.32 119.044C1296.32 119.337 1296.44 119.617 1296.65 119.824C1296.85 120.031 1297.13 120.147 1297.43 120.147H1300.74V127.868C1300.74 128.16 1300.85 128.441 1301.06 128.647C1301.27 128.854 1301.55 128.971 1301.84 128.971C1302.13 128.971 1302.41 128.854 1302.62 128.647C1302.82 128.441 1302.94 128.16 1302.94 127.868V120.147H1316.18V127.868C1316.18 128.16 1316.29 128.441 1316.5 128.647C1316.71 128.854 1316.99 128.971 1317.28 128.971C1317.57 128.971 1317.85 128.854 1318.06 128.647C1318.27 128.441 1318.38 128.16 1318.38 127.868V120.147H1331.62V127.868C1331.62 128.16 1331.73 128.441 1331.94 128.647C1332.15 128.854 1332.43 128.971 1332.72 128.971C1333.01 128.971 1333.29 128.854 1333.5 128.647C1333.71 128.441 1333.82 128.16 1333.82 127.868V120.147H1347.06V127.868C1347.06 128.16 1347.18 128.441 1347.38 128.647C1347.59 128.854 1347.87 128.971 1348.16 128.971C1348.45 128.971 1348.73 128.854 1348.94 128.647C1349.15 128.441 1349.26 128.16 1349.26 127.868V120.147H1352.57C1352.87 120.147 1353.15 120.031 1353.35 119.824C1353.56 119.617 1353.68 119.337 1353.68 119.044C1353.68 118.752 1353.56 118.471 1353.35 118.264C1353.15 118.057 1352.87 117.941 1352.57 117.941H1349.26V106.912H1352.57C1352.87 106.912 1353.15 106.795 1353.35 106.589C1353.56 106.382 1353.68 106.101 1353.68 105.809C1353.68 105.516 1353.56 105.236 1353.35 105.029C1353.15 104.822 1352.87 104.706 1352.57 104.706H1349.26V94.7793C1349.26 94.4868 1349.15 94.2063 1348.94 93.9994C1348.73 93.7926 1348.45 93.6764 1348.16 93.6764C1347.87 93.6764 1347.59 93.7926 1347.38 93.9994C1347.18 94.2063 1347.06 94.4868 1347.06 94.7793V104.706H1333.82V94.7793C1333.82 94.4868 1333.71 94.2063 1333.5 93.9994C1333.29 93.7926 1333.01 93.6764 1332.72 93.6764C1332.43 93.6764 1332.15 93.7926 1331.94 93.9994C1331.73 94.2063 1331.62 94.4868 1331.62 94.7793V104.706H1318.38V94.7793C1318.38 94.4868 1318.27 94.2063 1318.06 93.9994C1317.85 93.7926 1317.57 93.6764 1317.28 93.6764C1316.99 93.6764 1316.71 93.7926 1316.5 93.9994C1316.29 94.2063 1316.18 94.4868 1316.18 94.7793V104.706H1302.94V94.7793C1302.94 94.4868 1302.82 94.2063 1302.62 93.9994C1302.41 93.7926 1302.13 93.6764 1301.84 93.6764C1301.55 93.6764 1301.27 93.7926 1301.06 93.9994C1300.85 94.2063 1300.74 94.4868 1300.74 94.7793V104.706H1297.43C1297.13 104.706 1296.85 104.822 1296.65 105.029C1296.44 105.236 1296.32 105.516 1296.32 105.809C1296.32 106.101 1296.44 106.382 1296.65 106.589C1296.85 106.795 1297.13 106.912 1297.43 106.912H1300.74V117.941H1297.43ZM1347.06 106.912V117.941H1333.82V106.912H1347.06ZM1331.62 106.912V117.941H1318.38V106.912H1331.62ZM1302.94 106.912H1316.18V117.941H1302.94V106.912ZM1350.37 73.8235H1359.74C1359.93 73.8235 1360.29 73.8235 1360.29 74.9264V84.8529H1289.71V74.9264C1289.71 74.6339 1289.82 74.3533 1290.03 74.1465C1290.24 73.9397 1290.52 73.8235 1290.81 73.8235H1299.63C1299.92 73.8235 1300.21 73.7073 1300.41 73.5004C1300.62 73.2936 1300.74 73.013 1300.74 72.7205C1300.74 72.428 1300.62 72.1475 1300.41 71.9406C1300.21 71.7338 1299.92 71.6176 1299.63 71.6176H1290.81C1288.98 71.6176 1287.5 73.1021 1287.5 74.9264V85.9558C1287.5 86.2483 1287.62 86.5289 1287.82 86.7357C1288.03 86.9426 1288.31 87.0588 1288.6 87.0588H1361.4C1361.69 87.0588 1361.97 86.9426 1362.18 86.7357C1362.38 86.5289 1362.5 86.2483 1362.5 85.9558V74.9264C1362.5 72.4867 1361.07 71.6176 1359.74 71.6176H1350.37C1350.08 71.6176 1349.79 71.7338 1349.59 71.9406C1349.38 72.1475 1349.26 72.428 1349.26 72.7205C1349.26 73.013 1349.38 73.2936 1349.59 73.5004C1349.79 73.7073 1350.08 73.8235 1350.37 73.8235ZM1362.5 134.485V92.5735C1362.5 92.2809 1362.38 92.0004 1362.18 91.7936C1361.97 91.5867 1361.69 91.4705 1361.4 91.4705C1361.1 91.4705 1360.82 91.5867 1360.62 91.7936C1360.41 92.0004 1360.29 92.2809 1360.29 92.5735V134.485C1360.29 134.778 1360.18 135.058 1359.97 135.265C1359.76 135.472 1359.48 135.588 1359.19 135.588H1290.81C1290.52 135.588 1290.24 135.472 1290.03 135.265C1289.82 135.058 1289.71 134.778 1289.71 134.485V92.5735C1289.71 92.2809 1289.59 92.0004 1289.38 91.7936C1289.18 91.5867 1288.9 91.4705 1288.6 91.4705C1288.31 91.4705 1288.03 91.5867 1287.82 91.7936C1287.62 92.0004 1287.5 92.2809 1287.5 92.5735V134.485C1287.5 136.309 1288.98 137.794 1290.81 137.794H1359.19C1361.02 137.794 1362.5 136.309 1362.5 134.485Z" fill="#4C4C4E"/>
<path d="M1337.91 73.5004L1339.33 74.9146L1339.33 74.9146L1337.91 73.5004ZM1312.09 73.5004L1313.5 72.0862L1313.5 72.0862L1312.09 73.5004ZM1312.09 71.9406L1313.5 73.3548L1313.5 73.3548L1312.09 71.9406ZM1305.47 77.9122L1306.88 76.498L1306.88 76.498L1305.47 77.9122ZM1305.47 67.5289L1306.88 68.9431L1306.88 68.9431L1305.47 67.5289ZM1344.53 77.9122L1343.12 76.498L1343.12 76.498L1344.53 77.9122ZM1344.53 67.5289L1343.12 68.9431L1343.12 68.9431L1344.53 67.5289ZM1296.65 118.264L1298.06 119.678L1298.06 119.678L1296.65 118.264ZM1296.65 119.824L1295.23 121.238L1295.23 121.238L1296.65 119.824ZM1300.74 120.147H1302.74V118.147H1300.74V120.147ZM1302.94 120.147V118.147H1300.94V120.147H1302.94ZM1316.18 120.147H1318.18V118.147H1316.18V120.147ZM1316.5 128.647L1317.91 127.233L1317.91 127.233L1316.5 128.647ZM1318.06 128.647L1316.65 127.233L1316.65 127.233L1318.06 128.647ZM1318.38 120.147V118.147H1316.38V120.147H1318.38ZM1331.62 120.147H1333.62V118.147H1331.62V120.147ZM1333.5 128.647L1332.09 127.233L1332.09 127.233L1333.5 128.647ZM1333.82 120.147V118.147H1331.82V120.147H1333.82ZM1347.06 120.147H1349.06V118.147H1347.06V120.147ZM1347.38 128.647L1348.8 127.233L1348.8 127.233L1347.38 128.647ZM1349.26 120.147V118.147H1347.26V120.147H1349.26ZM1353.35 119.824L1354.77 121.238L1354.77 121.238L1353.35 119.824ZM1353.35 118.264L1351.94 119.678L1351.94 119.678L1353.35 118.264ZM1349.26 117.941H1347.26V119.941H1349.26V117.941ZM1349.26 106.912V104.912H1347.26V106.912H1349.26ZM1353.35 105.029L1351.94 106.443L1351.94 106.443L1353.35 105.029ZM1349.26 104.706H1347.26V106.706H1349.26V104.706ZM1348.94 93.9994L1350.36 92.5852L1350.36 92.5852L1348.94 93.9994ZM1347.38 93.9994L1348.8 95.4137L1348.8 95.4137L1347.38 93.9994ZM1347.06 104.706V106.706H1349.06V104.706H1347.06ZM1333.82 104.706H1331.82V106.706H1333.82V104.706ZM1333.5 93.9994L1332.09 95.4137L1332.09 95.4137L1333.5 93.9994ZM1331.94 93.9994L1330.53 92.5852L1330.53 92.5852L1331.94 93.9994ZM1331.62 104.706V106.706H1333.62V104.706H1331.62ZM1318.38 104.706H1316.38V106.706H1318.38V104.706ZM1316.18 104.706V106.706H1318.18V104.706H1316.18ZM1302.94 104.706H1300.94V106.706H1302.94V104.706ZM1302.62 93.9994L1304.03 92.5852L1304.03 92.5852L1302.62 93.9994ZM1301.06 93.9994L1299.64 92.5852L1299.64 92.5852L1301.06 93.9994ZM1300.74 104.706V106.706H1302.74V104.706H1300.74ZM1296.65 105.029L1298.06 106.443L1298.06 106.443L1296.65 105.029ZM1296.65 106.589L1295.23 108.003L1295.23 108.003L1296.65 106.589ZM1300.74 106.912H1302.74V104.912H1300.74V106.912ZM1300.74 117.941V119.941H1302.74V117.941H1300.74ZM1347.06 117.941V119.941H1349.06V117.941H1347.06ZM1347.06 106.912H1349.06V104.912H1347.06V106.912ZM1333.82 117.941H1331.82V119.941H1333.82V117.941ZM1333.82 106.912V104.912H1331.82V106.912H1333.82ZM1331.62 117.941V119.941H1333.62V117.941H1331.62ZM1331.62 106.912H1333.62V104.912H1331.62V106.912ZM1318.38 117.941H1316.38V119.941H1318.38V117.941ZM1318.38 106.912V104.912H1316.38V106.912H1318.38ZM1316.18 106.912H1318.18V104.912H1316.18V106.912ZM1302.94 106.912V104.912H1300.94V106.912H1302.94ZM1316.18 117.941V119.941H1318.18V117.941H1316.18ZM1302.94 117.941H1300.94V119.941H1302.94V117.941ZM1360.29 84.8529V86.8529H1362.29V84.8529H1360.29ZM1289.71 84.8529H1287.71V86.8529H1289.71V84.8529ZM1290.03 74.1465L1288.61 72.7323L1288.61 72.7323L1290.03 74.1465ZM1290.81 73.8235L1290.81 75.8235H1290.81V73.8235ZM1300.41 73.5004L1301.83 74.9146L1301.83 74.9146L1300.41 73.5004ZM1349.59 71.9406L1351 73.3548L1351 73.3548L1349.59 71.9406ZM1349.59 73.5004L1351 72.0862L1351 72.0862L1349.59 73.5004ZM1362.18 91.7936L1360.76 93.2078L1360.76 93.2078L1362.18 91.7936ZM1360.62 91.7936L1362.03 93.2078L1362.03 93.2078L1360.62 91.7936ZM1359.97 135.265L1358.56 133.851L1358.56 133.851L1359.97 135.265ZM1290.03 135.265L1288.61 136.679H1288.61L1290.03 135.265ZM1289.38 91.7936L1287.97 93.2078L1287.97 93.2078L1289.38 91.7936ZM1287.82 91.7936L1289.24 93.2078L1289.24 93.2078L1287.82 91.7936ZM1337.13 75.8235C1337.96 75.8235 1338.74 75.4965 1339.33 74.9146L1336.5 72.0862C1336.67 71.918 1336.89 71.8235 1337.13 71.8235V75.8235ZM1312.87 75.8235H1337.13V71.8235H1312.87V75.8235ZM1310.67 74.9146C1311.26 75.4965 1312.04 75.8235 1312.87 75.8235V71.8235C1313.11 71.8235 1313.33 71.918 1313.5 72.0862L1310.67 74.9146ZM1309.76 72.7205C1309.76 73.5435 1310.09 74.3327 1310.67 74.9146L1313.5 72.0862C1313.67 72.2544 1313.76 72.4826 1313.76 72.7205H1309.76ZM1310.67 70.5264C1310.09 71.1083 1309.76 71.8976 1309.76 72.7205H1313.76C1313.76 72.9584 1313.67 73.1866 1313.5 73.3548L1310.67 70.5264ZM1312.87 69.6176C1312.04 69.6176 1311.26 69.9445 1310.67 70.5264L1313.5 73.3548C1313.33 73.5231 1313.11 73.6176 1312.87 73.6176V69.6176ZM1337.13 69.6176H1312.87V73.6176H1337.13V69.6176ZM1339.33 70.5264C1338.74 69.9445 1337.96 69.6176 1337.13 69.6176V73.6176C1336.89 73.6176 1336.67 73.5231 1336.5 73.3548L1339.33 70.5264ZM1340.24 72.7205C1340.24 71.8976 1339.91 71.1083 1339.33 70.5264L1336.5 73.3548C1336.33 73.1866 1336.24 72.9584 1336.24 72.7205H1340.24ZM1339.33 74.9146C1339.91 74.3327 1340.24 73.5435 1340.24 72.7205H1336.24C1336.24 72.4826 1336.33 72.2544 1336.5 72.0862L1339.33 74.9146ZM1309.35 77.1323V68.3088H1305.35V77.1323H1309.35ZM1308.44 79.3264C1309.03 78.7445 1309.35 77.9552 1309.35 77.1323H1305.35C1305.35 76.8944 1305.45 76.6662 1305.62 76.498L1308.44 79.3264ZM1306.25 80.2352C1307.07 80.2352 1307.86 79.9083 1308.44 79.3264L1305.62 76.498C1305.78 76.3297 1306.01 76.2352 1306.25 76.2352V80.2352ZM1304.06 79.3264C1304.64 79.9083 1305.43 80.2352 1306.25 80.2352V76.2352C1306.49 76.2352 1306.72 76.3297 1306.88 76.498L1304.06 79.3264ZM1303.15 77.1323C1303.15 77.9552 1303.47 78.7445 1304.06 79.3264L1306.88 76.498C1307.05 76.6662 1307.15 76.8944 1307.15 77.1323H1303.15ZM1303.15 68.3088V77.1323H1307.15V68.3088H1303.15ZM1304.06 66.1146C1303.47 66.6966 1303.15 67.4858 1303.15 68.3088H1307.15C1307.15 68.5467 1307.05 68.7748 1306.88 68.9431L1304.06 66.1146ZM1306.25 65.2058C1305.43 65.2058 1304.64 65.5327 1304.06 66.1146L1306.88 68.9431C1306.72 69.1113 1306.49 69.2058 1306.25 69.2058V65.2058ZM1308.44 66.1146C1307.86 65.5327 1307.07 65.2058 1306.25 65.2058V69.2058C1306.01 69.2058 1305.78 69.1113 1305.62 68.9431L1308.44 66.1146ZM1309.35 68.3088C1309.35 67.4858 1309.03 66.6966 1308.44 66.1146L1305.62 68.9431C1305.45 68.7748 1305.35 68.5467 1305.35 68.3088H1309.35ZM1343.75 80.2352C1344.57 80.2352 1345.36 79.9083 1345.94 79.3264L1343.12 76.498C1343.28 76.3297 1343.51 76.2352 1343.75 76.2352V80.2352ZM1341.56 79.3264C1342.14 79.9083 1342.93 80.2352 1343.75 80.2352V76.2352C1343.99 76.2352 1344.22 76.3297 1344.38 76.498L1341.56 79.3264ZM1340.65 77.1323C1340.65 77.9552 1340.97 78.7445 1341.56 79.3264L1344.38 76.498C1344.55 76.6662 1344.65 76.8944 1344.65 77.1323H1340.65ZM1340.65 68.3088V77.1323H1344.65V68.3088H1340.65ZM1341.56 66.1146C1340.97 66.6966 1340.65 67.4858 1340.65 68.3088H1344.65C1344.65 68.5467 1344.55 68.7748 1344.38 68.9431L1341.56 66.1146ZM1343.75 65.2058C1342.93 65.2058 1342.14 65.5327 1341.56 66.1146L1344.38 68.9431C1344.22 69.1113 1343.99 69.2058 1343.75 69.2058V65.2058ZM1345.94 66.1146C1345.36 65.5327 1344.57 65.2058 1343.75 65.2058V69.2058C1343.51 69.2058 1343.28 69.1113 1343.12 68.9431L1345.94 66.1146ZM1346.85 68.3088C1346.85 67.4858 1346.53 66.6966 1345.94 66.1146L1343.12 68.9431C1342.95 68.7748 1342.85 68.5467 1342.85 68.3088H1346.85ZM1346.85 77.1323V68.3088H1342.85V77.1323H1346.85ZM1345.94 79.3264C1346.53 78.7445 1346.85 77.9552 1346.85 77.1323H1342.85C1342.85 76.8944 1342.95 76.6662 1343.12 76.498L1345.94 79.3264ZM1298.06 119.678C1297.89 119.847 1297.66 119.941 1297.43 119.941V115.941C1296.6 115.941 1295.81 116.268 1295.23 116.85L1298.06 119.678ZM1298.32 119.044C1298.32 119.282 1298.23 119.51 1298.06 119.678L1295.23 116.85C1294.65 117.432 1294.32 118.221 1294.32 119.044H1298.32ZM1298.06 118.41C1298.23 118.578 1298.32 118.806 1298.32 119.044H1294.32C1294.32 119.867 1294.65 120.656 1295.23 121.238L1298.06 118.41ZM1297.43 118.147C1297.66 118.147 1297.89 118.242 1298.06 118.41L1295.23 121.238C1295.81 121.82 1296.6 122.147 1297.43 122.147V118.147ZM1300.74 118.147H1297.43V122.147H1300.74V118.147ZM1302.74 127.868V120.147H1298.74V127.868H1302.74ZM1302.47 127.233C1302.64 127.401 1302.74 127.63 1302.74 127.868H1298.74C1298.74 128.691 1299.06 129.48 1299.64 130.062L1302.47 127.233ZM1301.84 126.971C1302.08 126.971 1302.3 127.065 1302.47 127.233L1299.64 130.062C1300.23 130.644 1301.02 130.971 1301.84 130.971V126.971ZM1301.2 127.233C1301.37 127.065 1301.6 126.971 1301.84 126.971V130.971C1302.66 130.971 1303.45 130.644 1304.03 130.062L1301.2 127.233ZM1300.94 127.868C1300.94 127.63 1301.04 127.401 1301.2 127.233L1304.03 130.062C1304.61 129.48 1304.94 128.691 1304.94 127.868H1300.94ZM1300.94 120.147V127.868H1304.94V120.147H1300.94ZM1316.18 118.147H1302.94V122.147H1316.18V118.147ZM1318.18 127.868V120.147H1314.18V127.868H1318.18ZM1317.91 127.233C1318.08 127.401 1318.18 127.63 1318.18 127.868H1314.18C1314.18 128.691 1314.5 129.48 1315.09 130.062L1317.91 127.233ZM1317.28 126.971C1317.52 126.971 1317.75 127.065 1317.91 127.233L1315.09 130.062C1315.67 130.644 1316.46 130.971 1317.28 130.971V126.971ZM1316.65 127.233C1316.81 127.065 1317.04 126.971 1317.28 126.971V130.971C1318.1 130.971 1318.89 130.644 1319.47 130.062L1316.65 127.233ZM1316.38 127.868C1316.38 127.63 1316.48 127.401 1316.65 127.233L1319.47 130.062C1320.06 129.48 1320.38 128.691 1320.38 127.868H1316.38ZM1316.38 120.147V127.868H1320.38V120.147H1316.38ZM1331.62 118.147H1318.38V122.147H1331.62V118.147ZM1333.62 127.868V120.147H1329.62V127.868H1333.62ZM1333.35 127.233C1333.52 127.401 1333.62 127.63 1333.62 127.868H1329.62C1329.62 128.691 1329.94 129.48 1330.53 130.062L1333.35 127.233ZM1332.72 126.971C1332.96 126.971 1333.19 127.065 1333.35 127.233L1330.53 130.062C1331.11 130.644 1331.9 130.971 1332.72 130.971V126.971ZM1332.09 127.233C1332.25 127.065 1332.48 126.971 1332.72 126.971V130.971C1333.54 130.971 1334.33 130.644 1334.91 130.062L1332.09 127.233ZM1331.82 127.868C1331.82 127.63 1331.92 127.401 1332.09 127.233L1334.91 130.062C1335.5 129.48 1335.82 128.691 1335.82 127.868H1331.82ZM1331.82 120.147V127.868H1335.82V120.147H1331.82ZM1347.06 118.147H1333.82V122.147H1347.06V118.147ZM1349.06 127.868V120.147H1345.06V127.868H1349.06ZM1348.8 127.233C1348.96 127.401 1349.06 127.63 1349.06 127.868H1345.06C1345.06 128.691 1345.39 129.48 1345.97 130.062L1348.8 127.233ZM1348.16 126.971C1348.4 126.971 1348.63 127.065 1348.8 127.233L1345.97 130.062C1346.55 130.644 1347.34 130.971 1348.16 130.971V126.971ZM1347.53 127.233C1347.7 127.065 1347.92 126.971 1348.16 126.971V130.971C1348.98 130.971 1349.77 130.644 1350.36 130.062L1347.53 127.233ZM1347.26 127.868C1347.26 127.63 1347.36 127.401 1347.53 127.233L1350.36 130.062C1350.94 129.48 1351.26 128.691 1351.26 127.868H1347.26ZM1347.26 120.147V127.868H1351.26V120.147H1347.26ZM1352.57 118.147H1349.26V122.147H1352.57V118.147ZM1351.94 118.41C1352.11 118.241 1352.34 118.147 1352.57 118.147V122.147C1353.4 122.147 1354.19 121.82 1354.77 121.238L1351.94 118.41ZM1351.68 119.044C1351.68 118.806 1351.77 118.578 1351.94 118.41L1354.77 121.238C1355.35 120.656 1355.68 119.867 1355.68 119.044H1351.68ZM1351.94 119.678C1351.77 119.51 1351.68 119.282 1351.68 119.044H1355.68C1355.68 118.221 1355.35 117.432 1354.77 116.85L1351.94 119.678ZM1352.57 119.941C1352.34 119.941 1352.11 119.847 1351.94 119.678L1354.77 116.85C1354.19 116.268 1353.4 115.941 1352.57 115.941V119.941ZM1349.26 119.941H1352.57V115.941H1349.26V119.941ZM1347.26 106.912V117.941H1351.26V106.912H1347.26ZM1352.57 104.912H1349.26V108.912H1352.57V104.912ZM1351.94 105.174C1352.11 105.006 1352.34 104.912 1352.57 104.912V108.912C1353.4 108.912 1354.19 108.585 1354.77 108.003L1351.94 105.174ZM1351.68 105.809C1351.68 105.571 1351.77 105.343 1351.94 105.174L1354.77 108.003C1355.35 107.421 1355.68 106.632 1355.68 105.809H1351.68ZM1351.94 106.443C1351.77 106.275 1351.68 106.047 1351.68 105.809H1355.68C1355.68 104.986 1355.35 104.197 1354.77 103.615L1351.94 106.443ZM1352.57 106.706C1352.34 106.706 1352.11 106.611 1351.94 106.443L1354.77 103.615C1354.19 103.033 1353.4 102.706 1352.57 102.706V106.706ZM1349.26 106.706H1352.57V102.706H1349.26V106.706ZM1347.26 94.7793V104.706H1351.26V94.7793H1347.26ZM1347.53 95.4136C1347.36 95.2454 1347.26 95.0173 1347.26 94.7793H1351.26C1351.26 93.9564 1350.94 93.1671 1350.36 92.5852L1347.53 95.4136ZM1348.16 95.6764C1347.92 95.6764 1347.7 95.5819 1347.53 95.4137L1350.36 92.5852C1349.77 92.0033 1348.98 91.6764 1348.16 91.6764V95.6764ZM1348.8 95.4137C1348.63 95.5819 1348.4 95.6764 1348.16 95.6764V91.6764C1347.34 91.6764 1346.55 92.0033 1345.97 92.5852L1348.8 95.4137ZM1349.06 94.7793C1349.06 95.0172 1348.96 95.2454 1348.8 95.4137L1345.97 92.5852C1345.39 93.1671 1345.06 93.9564 1345.06 94.7793H1349.06ZM1349.06 104.706V94.7793H1345.06V104.706H1349.06ZM1333.82 106.706H1347.06V102.706H1333.82V106.706ZM1331.82 94.7793V104.706H1335.82V94.7793H1331.82ZM1332.09 95.4137C1331.92 95.2454 1331.82 95.0172 1331.82 94.7793H1335.82C1335.82 93.9564 1335.5 93.1671 1334.91 92.5852L1332.09 95.4137ZM1332.72 95.6764C1332.48 95.6764 1332.25 95.5819 1332.09 95.4137L1334.91 92.5852C1334.33 92.0033 1333.54 91.6764 1332.72 91.6764V95.6764ZM1333.35 95.4137C1333.19 95.5819 1332.96 95.6764 1332.72 95.6764V91.6764C1331.9 91.6764 1331.11 92.0033 1330.53 92.5852L1333.35 95.4137ZM1333.62 94.7793C1333.62 95.0173 1333.52 95.2454 1333.35 95.4136L1330.53 92.5852C1329.94 93.1671 1329.62 93.9564 1329.62 94.7793H1333.62ZM1333.62 104.706V94.7793H1329.62V104.706H1333.62ZM1318.38 106.706H1331.62V102.706H1318.38V106.706ZM1316.38 94.7793V104.706H1320.38V94.7793H1316.38ZM1316.65 95.4137C1316.48 95.2454 1316.38 95.0173 1316.38 94.7793H1320.38C1320.38 93.9564 1320.06 93.1671 1319.47 92.5852L1316.65 95.4137ZM1317.28 95.6764C1317.04 95.6764 1316.81 95.5819 1316.65 95.4137L1319.47 92.5852C1318.89 92.0033 1318.1 91.6764 1317.28 91.6764V95.6764ZM1317.91 95.4137C1317.75 95.5819 1317.52 95.6764 1317.28 95.6764V91.6764C1316.46 91.6764 1315.67 92.0033 1315.09 92.5852L1317.91 95.4137ZM1318.18 94.7793C1318.18 95.0173 1318.08 95.2454 1317.91 95.4137L1315.09 92.5852C1314.5 93.1671 1314.18 93.9564 1314.18 94.7793H1318.18ZM1318.18 104.706V94.7793H1314.18V104.706H1318.18ZM1302.94 106.706H1316.18V102.706H1302.94V106.706ZM1300.94 94.7793V104.706H1304.94V94.7793H1300.94ZM1301.2 95.4137C1301.04 95.2454 1300.94 95.0173 1300.94 94.7793H1304.94C1304.94 93.9564 1304.61 93.1671 1304.03 92.5852L1301.2 95.4137ZM1301.84 95.6764C1301.6 95.6764 1301.37 95.5819 1301.2 95.4137L1304.03 92.5852C1303.45 92.0033 1302.66 91.6764 1301.84 91.6764V95.6764ZM1302.47 95.4137C1302.3 95.5819 1302.08 95.6764 1301.84 95.6764V91.6764C1301.02 91.6764 1300.23 92.0033 1299.64 92.5852L1302.47 95.4137ZM1302.74 94.7793C1302.74 95.0173 1302.64 95.2454 1302.47 95.4137L1299.64 92.5852C1299.06 93.1671 1298.74 93.9564 1298.74 94.7793H1302.74ZM1302.74 104.706V94.7793H1298.74V104.706H1302.74ZM1297.43 106.706H1300.74V102.706H1297.43V106.706ZM1298.06 106.443C1297.89 106.611 1297.66 106.706 1297.43 106.706V102.706C1296.6 102.706 1295.81 103.033 1295.23 103.615L1298.06 106.443ZM1298.32 105.809C1298.32 106.047 1298.23 106.275 1298.06 106.443L1295.23 103.615C1294.65 104.197 1294.32 104.986 1294.32 105.809H1298.32ZM1298.06 105.174C1298.23 105.343 1298.32 105.571 1298.32 105.809H1294.32C1294.32 106.632 1294.65 107.421 1295.23 108.003L1298.06 105.174ZM1297.43 104.912C1297.66 104.912 1297.89 105.006 1298.06 105.174L1295.23 108.003C1295.81 108.585 1296.6 108.912 1297.43 108.912V104.912ZM1300.74 104.912H1297.43V108.912H1300.74V104.912ZM1302.74 117.941V106.912H1298.74V117.941H1302.74ZM1297.43 119.941H1300.74V115.941H1297.43V119.941ZM1349.06 117.941V106.912H1345.06V117.941H1349.06ZM1333.82 119.941H1347.06V115.941H1333.82V119.941ZM1331.82 106.912V117.941H1335.82V106.912H1331.82ZM1347.06 104.912H1333.82V108.912H1347.06V104.912ZM1333.62 117.941V106.912H1329.62V117.941H1333.62ZM1318.38 119.941H1331.62V115.941H1318.38V119.941ZM1316.38 106.912V117.941H1320.38V106.912H1316.38ZM1331.62 104.912H1318.38V108.912H1331.62V104.912ZM1316.18 104.912H1302.94V108.912H1316.18V104.912ZM1318.18 117.941V106.912H1314.18V117.941H1318.18ZM1302.94 119.941H1316.18V115.941H1302.94V119.941ZM1300.94 106.912V117.941H1304.94V106.912H1300.94ZM1359.74 71.8235H1350.37V75.8235H1359.74V71.8235ZM1362.29 74.9264C1362.29 74.2791 1362.21 73.3913 1361.63 72.6876C1360.89 71.7841 1359.87 71.8235 1359.74 71.8235V75.8235C1359.81 75.8235 1359.61 75.8333 1359.36 75.7646C1359.07 75.6799 1358.77 75.5028 1358.55 75.235C1358.35 74.9985 1358.3 74.7914 1358.29 74.7494C1358.28 74.7062 1358.29 74.7481 1358.29 74.9264H1362.29ZM1362.29 84.8529V74.9264H1358.29V84.8529H1362.29ZM1289.71 86.8529H1360.29V82.8529H1289.71V86.8529ZM1287.71 74.9264V84.8529H1291.71V74.9264H1287.71ZM1288.61 72.7323C1288.03 73.3142 1287.71 74.1034 1287.71 74.9264H1291.71C1291.71 75.1643 1291.61 75.3925 1291.44 75.5607L1288.61 72.7323ZM1290.81 71.8235C1289.99 71.8235 1289.2 72.1504 1288.61 72.7323L1291.44 75.5607C1291.27 75.7289 1291.05 75.8235 1290.81 75.8235L1290.81 71.8235ZM1299.63 71.8235H1290.81V75.8235H1299.63V71.8235ZM1299 72.0862C1299.17 71.918 1299.39 71.8235 1299.63 71.8235V75.8235C1300.46 75.8235 1301.24 75.4965 1301.83 74.9146L1299 72.0862ZM1298.74 72.7205C1298.74 72.4826 1298.83 72.2544 1299 72.0862L1301.83 74.9146C1302.41 74.3327 1302.74 73.5435 1302.74 72.7205H1298.74ZM1299 73.3548C1298.83 73.1866 1298.74 72.9584 1298.74 72.7205H1302.74C1302.74 71.8976 1302.41 71.1083 1301.83 70.5264L1299 73.3548ZM1299.63 73.6176C1299.39 73.6176 1299.17 73.5231 1299 73.3548L1301.83 70.5264C1301.24 69.9445 1300.46 69.6176 1299.63 69.6176V73.6176ZM1290.81 73.6176H1299.63V69.6176H1290.81V73.6176ZM1289.5 74.9264C1289.5 74.2067 1290.09 73.6176 1290.81 73.6176V69.6176C1287.88 69.6176 1285.5 71.9976 1285.5 74.9264H1289.5ZM1289.5 85.9558V74.9264H1285.5V85.9558H1289.5ZM1289.24 85.3215C1289.41 85.4897 1289.5 85.7179 1289.5 85.9558H1285.5C1285.5 86.7788 1285.83 87.568 1286.41 88.1499L1289.24 85.3215ZM1288.6 85.0588C1288.84 85.0588 1289.07 85.1533 1289.24 85.3215L1286.41 88.1499C1286.99 88.7318 1287.78 89.0588 1288.6 89.0588V85.0588ZM1361.4 85.0588H1288.6V89.0588H1361.4V85.0588ZM1360.76 85.3215C1360.93 85.1533 1361.16 85.0588 1361.4 85.0588V89.0588C1362.22 89.0588 1363.01 88.7318 1363.59 88.1499L1360.76 85.3215ZM1360.5 85.9558C1360.5 85.7179 1360.59 85.4897 1360.76 85.3215L1363.59 88.1499C1364.17 87.568 1364.5 86.7788 1364.5 85.9558H1360.5ZM1360.5 74.9264V85.9558H1364.5V74.9264H1360.5ZM1359.74 73.6176C1359.99 73.6176 1360.13 73.6942 1360.21 73.7721C1360.27 73.8339 1360.5 74.1032 1360.5 74.9264H1364.5C1364.5 73.3099 1364.02 71.9247 1363.03 70.9421C1362.07 69.9755 1360.83 69.6176 1359.74 69.6176V73.6176ZM1350.37 73.6176H1359.74V69.6176H1350.37V73.6176ZM1351 73.3548C1350.83 73.5231 1350.61 73.6176 1350.37 73.6176V69.6176C1349.54 69.6176 1348.76 69.9445 1348.17 70.5264L1351 73.3548ZM1351.26 72.7205C1351.26 72.9584 1351.17 73.1866 1351 73.3548L1348.17 70.5264C1347.59 71.1083 1347.26 71.8976 1347.26 72.7205H1351.26ZM1351 72.0862C1351.17 72.2544 1351.26 72.4826 1351.26 72.7205H1347.26C1347.26 73.5435 1347.59 74.3327 1348.17 74.9146L1351 72.0862ZM1350.37 71.8235C1350.61 71.8235 1350.83 71.918 1351 72.0862L1348.17 74.9146C1348.76 75.4965 1349.54 75.8235 1350.37 75.8235V71.8235ZM1360.5 92.5735V134.485H1364.5V92.5735H1360.5ZM1360.76 93.2078C1360.59 93.0395 1360.5 92.8114 1360.5 92.5735H1364.5C1364.5 91.7505 1364.17 90.9613 1363.59 90.3793L1360.76 93.2078ZM1361.4 93.4705C1361.16 93.4705 1360.93 93.376 1360.76 93.2078L1363.59 90.3794C1363.01 89.7974 1362.22 89.4705 1361.4 89.4705V93.4705ZM1362.03 93.2078C1361.86 93.376 1361.63 93.4705 1361.4 93.4705V89.4705C1360.57 89.4705 1359.78 89.7974 1359.2 90.3794L1362.03 93.2078ZM1362.29 92.5735C1362.29 92.8114 1362.2 93.0395 1362.03 93.2078L1359.2 90.3793C1358.62 90.9613 1358.29 91.7505 1358.29 92.5735H1362.29ZM1362.29 134.485V92.5735H1358.29V134.485H1362.29ZM1361.39 136.679C1361.97 136.097 1362.29 135.308 1362.29 134.485H1358.29C1358.29 134.247 1358.39 134.019 1358.56 133.851L1361.39 136.679ZM1359.19 137.588C1360.01 137.588 1360.8 137.261 1361.39 136.679L1358.56 133.851C1358.73 133.683 1358.95 133.588 1359.19 133.588V137.588ZM1290.81 137.588H1359.19V133.588H1290.81V137.588ZM1288.61 136.679C1289.2 137.261 1289.99 137.588 1290.81 137.588V133.588C1291.05 133.588 1291.27 133.683 1291.44 133.851L1288.61 136.679ZM1287.71 134.485C1287.71 135.308 1288.03 136.097 1288.61 136.679L1291.44 133.851C1291.61 134.019 1291.71 134.247 1291.71 134.485H1287.71ZM1287.71 92.5735V134.485H1291.71V92.5735H1287.71ZM1287.97 93.2078C1287.8 93.0395 1287.71 92.8114 1287.71 92.5735H1291.71C1291.71 91.7505 1291.38 90.9613 1290.8 90.3793L1287.97 93.2078ZM1288.6 93.4705C1288.37 93.4705 1288.14 93.376 1287.97 93.2078L1290.8 90.3793C1290.22 89.7974 1289.43 89.4705 1288.6 89.4705V93.4705ZM1289.24 93.2078C1289.07 93.376 1288.84 93.4705 1288.6 93.4705V89.4705C1287.78 89.4705 1286.99 89.7974 1286.41 90.3793L1289.24 93.2078ZM1289.5 92.5735C1289.5 92.8114 1289.41 93.0395 1289.24 93.2078L1286.41 90.3793C1285.83 90.9613 1285.5 91.7505 1285.5 92.5735H1289.5ZM1289.5 134.485V92.5735H1285.5V134.485H1289.5ZM1290.81 135.794C1290.09 135.794 1289.5 135.205 1289.5 134.485H1285.5C1285.5 137.414 1287.88 139.794 1290.81 139.794V135.794ZM1359.19 135.794H1290.81V139.794H1359.19V135.794ZM1360.5 134.485C1360.5 135.205 1359.91 135.794 1359.19 135.794V139.794C1362.12 139.794 1364.5 137.414 1364.5 134.485H1360.5Z" fill="#4C4C4E" mask="url(#path-12-outside-1_2309_1453)"/>
<path d="M1265.57 184.19C1263.9 184.19 1262.43 184.029 1261.16 183.706C1259.9 183.384 1258.73 182.984 1257.65 182.505V177.32H1258.14C1259.24 178.247 1260.44 178.96 1261.76 179.458C1263.08 179.956 1264.36 180.205 1265.6 180.205C1265.91 180.205 1266.32 180.171 1266.83 180.103C1267.35 180.034 1267.76 179.927 1268.08 179.781C1268.46 179.615 1268.78 179.385 1269.04 179.092C1269.31 178.789 1269.44 178.394 1269.44 177.906C1269.44 177.359 1269.22 176.914 1268.79 176.573C1268.36 176.231 1267.85 175.982 1267.26 175.825C1266.51 175.63 1265.72 175.445 1264.87 175.269C1264.03 175.093 1263.24 174.878 1262.51 174.624C1260.82 174.029 1259.61 173.228 1258.88 172.222C1258.14 171.216 1257.78 169.956 1257.78 168.443C1257.78 166.402 1258.64 164.751 1260.37 163.491C1262.1 162.222 1264.26 161.587 1266.85 161.587C1268.14 161.587 1269.43 161.719 1270.71 161.983C1272 162.246 1273.15 162.603 1274.17 163.052V168.032H1273.69C1272.88 167.339 1271.88 166.753 1270.71 166.275C1269.55 165.796 1268.35 165.557 1267.12 165.557C1266.65 165.557 1266.22 165.591 1265.83 165.659C1265.45 165.728 1265.05 165.86 1264.63 166.055C1264.29 166.211 1263.99 166.446 1263.74 166.758C1263.5 167.061 1263.37 167.403 1263.37 167.783C1263.37 168.34 1263.57 168.784 1263.96 169.116C1264.36 169.439 1265.13 169.732 1266.26 169.995C1266.99 170.161 1267.7 170.323 1268.37 170.479C1269.05 170.635 1269.78 170.85 1270.55 171.123C1272.07 171.67 1273.19 172.407 1273.92 173.335C1274.66 174.253 1275.03 175.469 1275.03 176.983C1275.03 179.151 1274.18 180.894 1272.47 182.212C1270.77 183.531 1268.47 184.19 1265.57 184.19ZM1285.62 184.234C1284.27 184.234 1283.02 184.063 1281.89 183.721C1280.77 183.379 1279.79 182.852 1278.96 182.139C1278.14 181.426 1277.5 180.532 1277.04 179.458C1276.58 178.374 1276.35 177.1 1276.35 175.635C1276.35 174.063 1276.6 172.725 1277.1 171.621C1277.6 170.518 1278.27 169.61 1279.12 168.897C1279.94 168.213 1280.9 167.71 1282.01 167.388C1283.12 167.056 1284.28 166.89 1285.48 166.89C1286.39 166.89 1287.29 166.997 1288.2 167.212C1289.11 167.417 1290.02 167.749 1290.94 168.208V172.603H1290.28C1290.08 172.407 1289.82 172.193 1289.52 171.958C1289.23 171.724 1288.91 171.509 1288.55 171.314C1288.18 171.109 1287.76 170.938 1287.29 170.801C1286.83 170.655 1286.3 170.581 1285.73 170.581C1284.42 170.581 1283.4 171.04 1282.68 171.958C1281.97 172.866 1281.61 174.092 1281.61 175.635C1281.61 177.285 1281.99 178.516 1282.75 179.326C1283.53 180.137 1284.55 180.542 1285.82 180.542C1286.46 180.542 1287.03 180.469 1287.51 180.323C1288 180.176 1288.42 180 1288.77 179.795C1289.12 179.59 1289.41 179.38 1289.65 179.165C1289.9 178.941 1290.11 178.74 1290.28 178.565H1290.94V182.959C1290.65 183.086 1290.31 183.233 1289.92 183.399C1289.54 183.565 1289.15 183.701 1288.75 183.809C1288.25 183.946 1287.78 184.048 1287.34 184.116C1286.91 184.195 1286.34 184.234 1285.62 184.234ZM1308.78 183.794H1303.63V175.635C1303.63 174.971 1303.6 174.312 1303.54 173.657C1303.49 172.993 1303.39 172.505 1303.25 172.193C1303.07 171.822 1302.82 171.558 1302.49 171.402C1302.15 171.236 1301.71 171.153 1301.15 171.153C1300.73 171.153 1300.31 171.231 1299.88 171.387C1299.45 171.543 1298.99 171.792 1298.5 172.134V183.794H1293.37V161.001H1298.5V169.16C1299.34 168.448 1300.16 167.891 1300.95 167.49C1301.75 167.09 1302.63 166.89 1303.6 166.89C1305.28 166.89 1306.56 167.422 1307.45 168.487C1308.34 169.541 1308.78 171.074 1308.78 173.086V183.794ZM1321.02 184.234C1317.91 184.234 1315.53 183.491 1313.87 182.007C1312.22 180.523 1311.39 178.408 1311.39 175.664C1311.39 172.979 1312.16 170.835 1313.71 169.234C1315.25 167.632 1317.41 166.831 1320.18 166.831C1322.7 166.831 1324.59 167.51 1325.86 168.867C1327.13 170.225 1327.77 172.168 1327.77 174.698V176.543H1316.53C1316.58 177.305 1316.74 177.945 1317.02 178.462C1317.29 178.97 1317.65 179.375 1318.1 179.678C1318.54 179.981 1319.05 180.2 1319.64 180.337C1320.22 180.464 1320.86 180.528 1321.56 180.528C1322.15 180.528 1322.74 180.464 1323.32 180.337C1323.89 180.2 1324.42 180.025 1324.9 179.81C1325.32 179.624 1325.7 179.424 1326.05 179.209C1326.42 178.994 1326.71 178.804 1326.93 178.638H1327.48V182.871C1327.06 183.037 1326.67 183.194 1326.32 183.34C1325.98 183.477 1325.5 183.618 1324.9 183.765C1324.34 183.911 1323.76 184.024 1323.17 184.102C1322.58 184.19 1321.87 184.234 1321.02 184.234ZM1322.71 173.452C1322.69 172.368 1322.43 171.543 1321.95 170.977C1321.48 170.41 1320.76 170.127 1319.79 170.127C1318.79 170.127 1318.01 170.425 1317.44 171.021C1316.88 171.616 1316.58 172.427 1316.52 173.452H1322.71ZM1345.36 183.794H1340.23V182.08C1339.9 182.354 1339.52 182.647 1339.09 182.959C1338.67 183.272 1338.3 183.506 1337.98 183.662C1337.57 183.858 1337.16 184.004 1336.76 184.102C1336.36 184.199 1335.88 184.248 1335.33 184.248C1333.45 184.248 1331.97 183.472 1330.87 181.919C1329.78 180.366 1329.23 178.291 1329.23 175.694C1329.23 174.258 1329.42 173.013 1329.79 171.958C1330.16 170.904 1330.67 169.986 1331.33 169.204C1331.92 168.491 1332.65 167.93 1333.5 167.52C1334.35 167.1 1335.24 166.89 1336.19 166.89C1337.05 166.89 1337.75 166.983 1338.3 167.168C1338.86 167.344 1339.5 167.622 1340.23 168.003V161.001H1345.36V183.794ZM1340.23 179.253V171.182C1339.98 171.055 1339.65 170.952 1339.24 170.874C1338.83 170.786 1338.48 170.742 1338.18 170.742C1336.95 170.742 1336.03 171.172 1335.4 172.031C1334.79 172.891 1334.48 174.092 1334.48 175.635C1334.48 177.256 1334.72 178.428 1335.21 179.151C1335.71 179.873 1336.51 180.235 1337.61 180.235C1338.06 180.235 1338.52 180.147 1338.97 179.971C1339.43 179.795 1339.85 179.556 1340.23 179.253ZM1364.58 183.794H1359.45V181.978C1358.56 182.72 1357.75 183.286 1357.01 183.677C1356.26 184.058 1355.38 184.248 1354.36 184.248C1352.72 184.248 1351.45 183.736 1350.53 182.71C1349.62 181.675 1349.17 180.122 1349.17 178.052V167.344H1354.33V175.503C1354.33 176.353 1354.35 177.046 1354.38 177.583C1354.43 178.12 1354.54 178.574 1354.71 178.946C1354.86 179.287 1355.1 179.546 1355.42 179.722C1355.76 179.898 1356.22 179.986 1356.8 179.986C1357.16 179.986 1357.59 179.898 1358.08 179.722C1358.57 179.546 1359.03 179.307 1359.45 179.004V167.344H1364.58V183.794ZM1373.65 183.794H1368.52V161.001H1373.65V183.794ZM1386 184.234C1382.89 184.234 1380.51 183.491 1378.85 182.007C1377.2 180.523 1376.37 178.408 1376.37 175.664C1376.37 172.979 1377.14 170.835 1378.69 169.234C1380.23 167.632 1382.39 166.831 1385.16 166.831C1387.68 166.831 1389.58 167.51 1390.84 168.867C1392.11 170.225 1392.75 172.168 1392.75 174.698V176.543H1381.51C1381.56 177.305 1381.72 177.945 1382 178.462C1382.27 178.97 1382.63 179.375 1383.08 179.678C1383.52 179.981 1384.03 180.2 1384.62 180.337C1385.21 180.464 1385.84 180.528 1386.54 180.528C1387.13 180.528 1387.72 180.464 1388.3 180.337C1388.87 180.2 1389.4 180.025 1389.88 179.81C1390.3 179.624 1390.68 179.424 1391.04 179.209C1391.4 178.994 1391.69 178.804 1391.91 178.638H1392.46V182.871C1392.04 183.037 1391.65 183.194 1391.3 183.34C1390.96 183.477 1390.48 183.618 1389.88 183.765C1389.32 183.911 1388.75 184.024 1388.15 184.102C1387.56 184.19 1386.85 184.234 1386 184.234ZM1387.7 173.452C1387.67 172.368 1387.41 171.543 1386.93 170.977C1386.46 170.41 1385.74 170.127 1384.77 170.127C1383.77 170.127 1382.99 170.425 1382.42 171.021C1381.87 171.616 1381.56 172.427 1381.5 173.452H1387.7Z" fill="#4C4C4E"/>
</g>
<g filter="url(#filter3_b_2309_1453)">
<rect x="1540" y="61" width="191" height="135" rx="30" fill="white" fill-opacity="0.5"/>
<path d="M1607.81 79.5C1606.54 79.5 1605.5 80.4372 1605.5 81.5873V114.985C1605.5 116.135 1606.54 117.072 1607.81 117.072H1644.78C1646.05 117.072 1647.09 116.135 1647.09 114.985V81.5873C1647.09 80.4372 1646.05 79.5 1644.78 79.5H1607.81ZM1610.12 83.6747H1642.47V108.723H1610.12V83.6747ZM1649.4 85.5658V89.8052L1653.59 90.4586L1649.4 112.376V114.985C1649.4 117.289 1647.33 119.16 1644.78 119.16H1620.3L1649.62 123.727C1650.22 123.821 1650.84 123.696 1651.34 123.377C1651.84 123.059 1652.19 122.575 1652.29 122.03L1658.5 89.0893C1658.55 88.8192 1658.55 88.5425 1658.48 88.2749C1658.42 88.0073 1658.29 87.7541 1658.12 87.5298C1657.94 87.3055 1657.72 87.1145 1657.46 86.9677C1657.21 86.8208 1656.92 86.7211 1656.62 86.6742L1649.4 85.5679V85.5658ZM1626.3 87.7179C1623.64 87.7179 1621.39 89.3711 1621.39 92.4812C1621.39 94.5143 1622.39 96.5557 1623.77 97.829C1624.31 99.1023 1623.39 99.5865 1623.19 99.6554C1620.4 100.566 1617.12 102.254 1617.12 103.895V106.571H1635.47V103.897C1635.47 102.206 1632.18 100.528 1629.26 99.6554C1629.12 99.6158 1628.29 99.2797 1628.82 97.829C1630.2 96.5557 1631.28 94.5038 1631.28 92.4812C1631.28 89.3711 1628.96 87.7179 1626.3 87.7179ZM1659.58 96.0047L1658.79 100.113L1660.45 100.438L1654.1 124.835L1653.16 124.639C1652.64 125.098 1652.01 125.438 1651.32 125.631C1650.63 125.823 1649.9 125.864 1649.19 125.747L1617.2 120.79L1616.54 123.272C1616.41 123.816 1616.51 124.387 1616.84 124.862C1617.16 125.337 1617.68 125.679 1618.28 125.814L1654.24 133.447C1654.84 133.57 1655.47 133.476 1656 133.183C1656.53 132.89 1656.9 132.423 1657.05 131.882L1665.43 99.3924C1665.73 98.2736 1665.02 97.1151 1663.77 96.8479L1659.59 96.0005L1659.58 96.0047Z" fill="#4C4C4E"/>
<path d="M1602.72 168.255C1601.76 168.646 1600.51 169.026 1598.98 169.397C1597.46 169.769 1595.95 169.954 1594.47 169.954C1591.04 169.954 1588.31 168.968 1586.27 166.995C1584.24 165.013 1583.22 162.205 1583.22 158.572C1583.22 155.154 1584.24 152.415 1586.27 150.354C1588.31 148.294 1591.1 147.264 1594.63 147.264C1596.46 147.264 1597.94 147.439 1599.08 147.791C1600.23 148.133 1601.41 148.602 1602.63 149.197V154.31H1602.13C1601.87 154.104 1601.49 153.816 1600.99 153.445C1600.5 153.064 1600.02 152.742 1599.55 152.479C1599.01 152.166 1598.37 151.897 1597.65 151.673C1596.94 151.448 1596.18 151.336 1595.38 151.336C1594.44 151.336 1593.59 151.482 1592.81 151.775C1592.04 152.068 1591.35 152.518 1590.75 153.123C1590.17 153.709 1589.71 154.451 1589.37 155.35C1589.04 156.248 1588.87 157.293 1588.87 158.484C1588.87 161.033 1589.51 162.913 1590.79 164.124C1592.07 165.335 1593.82 165.94 1596.04 165.94C1596.23 165.94 1596.46 165.936 1596.73 165.926C1596.99 165.916 1597.22 165.901 1597.41 165.882V161.604H1593.18V157.518H1602.72V168.255ZM1615.62 165.208V161.78C1614.75 161.868 1614.05 161.946 1613.51 162.015C1612.98 162.073 1612.45 162.195 1611.93 162.381C1611.48 162.537 1611.13 162.776 1610.88 163.099C1610.63 163.411 1610.51 163.831 1610.51 164.358C1610.51 165.13 1610.71 165.662 1611.12 165.955C1611.54 166.238 1612.16 166.38 1612.97 166.38C1613.42 166.38 1613.88 166.277 1614.35 166.072C1614.82 165.867 1615.24 165.579 1615.62 165.208ZM1615.62 167.757C1615.27 168.05 1614.95 168.313 1614.67 168.548C1614.4 168.782 1614.03 169.017 1613.56 169.251C1613.1 169.476 1612.65 169.646 1612.21 169.764C1611.78 169.881 1611.17 169.939 1610.39 169.939C1608.94 169.939 1607.73 169.451 1606.76 168.475C1605.8 167.498 1605.32 166.268 1605.32 164.783C1605.32 163.562 1605.57 162.576 1606.06 161.824C1606.54 161.072 1607.25 160.477 1608.17 160.037C1609.09 159.588 1610.2 159.275 1611.49 159.1C1612.78 158.924 1614.17 158.787 1615.65 158.689V158.602C1615.65 157.693 1615.31 157.068 1614.64 156.727C1613.98 156.375 1612.98 156.199 1611.64 156.199C1611.03 156.199 1610.32 156.312 1609.51 156.536C1608.7 156.751 1607.91 157.029 1607.14 157.371H1606.7V153.401C1607.21 153.255 1608.03 153.084 1609.16 152.889C1610.29 152.684 1611.44 152.581 1612.59 152.581C1615.42 152.581 1617.48 153.055 1618.77 154.002C1620.07 154.939 1620.72 156.375 1620.72 158.309V169.5H1615.62V167.757ZM1629.64 169.5H1624.51V146.707H1629.64V169.5ZM1638.69 169.5H1633.57V146.707H1638.69V169.5ZM1651.04 169.939C1647.94 169.939 1645.55 169.197 1643.89 167.713C1642.24 166.229 1641.42 164.114 1641.42 161.37C1641.42 158.685 1642.19 156.541 1643.73 154.939C1645.28 153.338 1647.43 152.537 1650.21 152.537C1652.73 152.537 1654.62 153.216 1655.89 154.573C1657.16 155.931 1657.79 157.874 1657.79 160.403V162.249H1646.56C1646.61 163.011 1646.77 163.65 1647.04 164.168C1647.32 164.676 1647.68 165.081 1648.13 165.384C1648.57 165.687 1649.08 165.906 1649.67 166.043C1650.25 166.17 1650.89 166.233 1651.58 166.233C1652.18 166.233 1652.77 166.17 1653.34 166.043C1653.92 165.906 1654.45 165.73 1654.92 165.516C1655.34 165.33 1655.73 165.13 1656.08 164.915C1656.44 164.7 1656.74 164.51 1656.96 164.344H1657.5V168.577C1657.08 168.743 1656.7 168.899 1656.34 169.046C1656 169.183 1655.53 169.324 1654.92 169.471C1654.37 169.617 1653.79 169.729 1653.2 169.808C1652.61 169.896 1651.89 169.939 1651.04 169.939ZM1652.74 159.158C1652.71 158.074 1652.46 157.249 1651.98 156.683C1651.51 156.116 1650.79 155.833 1649.81 155.833C1648.82 155.833 1648.03 156.131 1647.47 156.727C1646.91 157.322 1646.6 158.133 1646.54 159.158H1652.74ZM1671.48 157.898H1671.05C1670.86 157.83 1670.57 157.781 1670.2 157.752C1669.83 157.713 1669.42 157.693 1668.97 157.693C1668.43 157.693 1667.87 157.771 1667.27 157.928C1666.69 158.084 1666.12 158.27 1665.56 158.484V169.5H1660.43V153.05H1665.56V155.408C1665.79 155.193 1666.12 154.925 1666.53 154.603C1666.95 154.271 1667.33 154.007 1667.67 153.812C1668.04 153.587 1668.47 153.396 1668.96 153.24C1669.46 153.074 1669.92 152.991 1670.36 152.991C1670.53 152.991 1670.71 152.996 1670.92 153.006C1671.12 153.016 1671.31 153.03 1671.48 153.05V157.898ZM1688.79 153.05L1680.49 175.535H1674.98L1677.47 169.104L1671.43 153.05H1676.82L1680.28 163.362L1683.52 153.05H1688.79Z" fill="#4C4C4E"/>
</g>
<defs>
<filter id="filter0_b_2309_1453" x="156" y="31" width="251" height="195" filterUnits="userSpaceOnUse" color-interpolation-filters="sRGB">
<feFlood flood-opacity="0" result="BackgroundImageFix"/>
<feGaussianBlur in="BackgroundImageFix" stdDeviation="15"/>
<feComposite in2="SourceAlpha" operator="in" result="effect1_backgroundBlur_2309_1453"/>
<feBlend mode="normal" in="SourceGraphic" in2="effect1_backgroundBlur_2309_1453" result="shape"/>
</filter>
<filter id="filter1_b_2309_1453" x="447" y="10" width="290" height="237" filterUnits="userSpaceOnUse" color-interpolation-filters="sRGB">
<feFlood flood-opacity="0" result="BackgroundImageFix"/>
<feGaussianBlur in="BackgroundImageFix" stdDeviation="15"/>
<feComposite in2="SourceAlpha" operator="in" result="effect1_backgroundBlur_2309_1453"/>
<feBlend mode="normal" in="SourceGraphic" in2="effect1_backgroundBlur_2309_1453" result="shape"/>
</filter>
<filter id="filter2_b_2309_1453" x="1180" y="10" width="290" height="237" filterUnits="userSpaceOnUse" color-interpolation-filters="sRGB">
<feFlood flood-opacity="0" result="BackgroundImageFix"/>
<feGaussianBlur in="BackgroundImageFix" stdDeviation="15"/>
<feComposite in2="SourceAlpha" operator="in" result="effect1_backgroundBlur_2309_1453"/>
<feBlend mode="normal" in="SourceGraphic" in2="effect1_backgroundBlur_2309_1453" result="shape"/>
</filter>
<filter id="filter3_b_2309_1453" x="1510" y="31" width="251" height="195" filterUnits="userSpaceOnUse" color-interpolation-filters="sRGB">
<feFlood flood-opacity="0" result="BackgroundImageFix"/>
<feGaussianBlur in="BackgroundImageFix" stdDeviation="15"/>
<feComposite in2="SourceAlpha" operator="in" result="effect1_backgroundBlur_2309_1453"/>
<feBlend mode="normal" in="SourceGraphic" in2="effect1_backgroundBlur_2309_1453" result="shape"/>
</filter>
</defs>
</svg>
