<svg width="1920" height="257" viewBox="0 0 1920 257" fill="none" xmlns="http://www.w3.org/2000/svg">
<g filter="url(#filter0_b_2309_1547)">
<rect x="179.5" y="61" width="191" height="135" rx="30" fill="white" fill-opacity="0.5"/>
<path d="M247.311 79.5C246.037 79.5 245 80.4372 245 81.5873V114.985C245 116.135 246.037 117.072 247.311 117.072H284.281C285.554 117.072 286.592 116.135 286.592 114.985V81.5873C286.592 80.4372 285.554 79.5 284.281 79.5H247.311ZM249.621 83.6747H281.971V108.723H249.621V83.6747ZM288.903 85.5658V89.8052L293.092 90.4586L288.903 112.376V114.985C288.903 117.289 286.83 119.16 284.281 119.16H259.802L289.12 123.727C289.723 123.821 290.343 123.696 290.844 123.377C291.345 123.059 291.686 122.575 291.791 122.03L298.002 89.0893C298.055 88.8192 298.048 88.5425 297.981 88.2749C297.915 88.0073 297.792 87.7541 297.617 87.5298C297.443 87.3055 297.221 87.1145 296.965 86.9677C296.708 86.8208 296.422 86.7211 296.123 86.6742L288.903 85.5679V85.5658ZM265.796 87.7179C263.136 87.7179 260.886 89.3711 260.886 92.4812C260.886 94.5143 261.889 96.5557 263.268 97.829C263.809 99.1023 262.889 99.5865 262.69 99.6554C259.904 100.566 256.625 102.254 256.625 103.895V106.571H274.967V103.897C274.967 102.206 271.681 100.528 268.756 99.6554C268.622 99.6158 267.792 99.2797 268.324 97.829C269.699 96.5557 270.778 94.5038 270.778 92.4812C270.778 89.3711 268.456 87.7179 265.796 87.7179ZM299.083 96.0047L298.291 100.113L299.95 100.438L293.596 124.835L292.657 124.639C292.142 125.098 291.512 125.438 290.821 125.631C290.13 125.823 289.397 125.864 288.685 125.747L256.699 120.79L256.045 123.272C255.909 123.816 256.014 124.387 256.338 124.862C256.662 125.337 257.179 125.679 257.778 125.814L293.739 133.447C294.341 133.57 294.973 133.476 295.499 133.183C296.025 132.89 296.404 132.423 296.553 131.882L304.934 99.3924C305.228 98.2736 304.518 97.1151 303.275 96.8479L299.086 96.0005L299.083 96.0047Z" fill="#4C4C4E"/>
<path d="M242.217 168.255C241.26 168.646 240.015 169.026 238.481 169.397C236.958 169.769 235.454 169.954 233.97 169.954C230.542 169.954 227.808 168.968 225.767 166.995C223.735 165.013 222.72 162.205 222.72 158.572C222.72 155.154 223.735 152.415 225.767 150.354C227.808 148.294 230.596 147.264 234.131 147.264C235.957 147.264 237.441 147.439 238.584 147.791C239.727 148.133 240.908 148.602 242.129 149.197V154.31H241.631C241.367 154.104 240.986 153.816 240.488 153.445C240 153.064 239.521 152.742 239.053 152.479C238.506 152.166 237.871 151.897 237.148 151.673C236.436 151.448 235.679 151.336 234.878 151.336C233.94 151.336 233.086 151.482 232.314 151.775C231.543 152.068 230.854 152.518 230.249 153.123C229.673 153.709 229.214 154.451 228.872 155.35C228.54 156.248 228.374 157.293 228.374 158.484C228.374 161.033 229.014 162.913 230.293 164.124C231.572 165.335 233.32 165.94 235.537 165.94C235.732 165.94 235.962 165.936 236.226 165.926C236.489 165.916 236.719 165.901 236.914 165.882V161.604H232.681V157.518H242.217V168.255ZM255.122 165.208V161.78C254.253 161.868 253.55 161.946 253.013 162.015C252.476 162.073 251.948 162.195 251.431 162.381C250.981 162.537 250.63 162.776 250.376 163.099C250.132 163.411 250.01 163.831 250.01 164.358C250.01 165.13 250.215 165.662 250.625 165.955C251.045 166.238 251.66 166.38 252.471 166.38C252.92 166.38 253.379 166.277 253.848 166.072C254.316 165.867 254.741 165.579 255.122 165.208ZM255.122 167.757C254.771 168.05 254.453 168.313 254.17 168.548C253.896 168.782 253.525 169.017 253.057 169.251C252.598 169.476 252.148 169.646 251.709 169.764C251.279 169.881 250.674 169.939 249.893 169.939C248.438 169.939 247.227 169.451 246.26 168.475C245.303 167.498 244.824 166.268 244.824 164.783C244.824 163.562 245.068 162.576 245.557 161.824C246.045 161.072 246.748 160.477 247.666 160.037C248.594 159.588 249.702 159.275 250.991 159.1C252.28 158.924 253.667 158.787 255.151 158.689V158.602C255.151 157.693 254.814 157.068 254.141 156.727C253.477 156.375 252.476 156.199 251.138 156.199C250.532 156.199 249.824 156.312 249.014 156.536C248.203 156.751 247.412 157.029 246.641 157.371H246.201V153.401C246.709 153.255 247.529 153.084 248.662 152.889C249.795 152.684 250.938 152.581 252.09 152.581C254.922 152.581 256.982 153.055 258.271 154.002C259.57 154.939 260.22 156.375 260.22 158.309V169.5H255.122V167.757ZM269.141 169.5H264.014V146.707H269.141V169.5ZM278.193 169.5H273.066V146.707H278.193V169.5ZM290.542 169.939C287.437 169.939 285.054 169.197 283.394 167.713C281.743 166.229 280.918 164.114 280.918 161.37C280.918 158.685 281.689 156.541 283.232 154.939C284.775 153.338 286.934 152.537 289.707 152.537C292.227 152.537 294.121 153.216 295.391 154.573C296.66 155.931 297.295 157.874 297.295 160.403V162.249H286.06C286.108 163.011 286.27 163.65 286.543 164.168C286.816 164.676 287.178 165.081 287.627 165.384C288.066 165.687 288.579 165.906 289.165 166.043C289.751 166.17 290.391 166.233 291.084 166.233C291.68 166.233 292.266 166.17 292.842 166.043C293.418 165.906 293.945 165.73 294.424 165.516C294.844 165.33 295.229 165.13 295.581 164.915C295.942 164.7 296.235 164.51 296.46 164.344H297.002V168.577C296.582 168.743 296.196 168.899 295.845 169.046C295.503 169.183 295.029 169.324 294.424 169.471C293.867 169.617 293.291 169.729 292.695 169.808C292.109 169.896 291.392 169.939 290.542 169.939ZM292.241 159.158C292.212 158.074 291.958 157.249 291.479 156.683C291.011 156.116 290.288 155.833 289.312 155.833C288.315 155.833 287.534 156.131 286.968 156.727C286.411 157.322 286.104 158.133 286.045 159.158H292.241ZM310.977 157.898H310.552C310.356 157.83 310.073 157.781 309.702 157.752C309.331 157.713 308.921 157.693 308.472 157.693C307.935 157.693 307.368 157.771 306.772 157.928C306.187 158.084 305.615 158.27 305.059 158.484V169.5H299.932V153.05H305.059V155.408C305.293 155.193 305.615 154.925 306.025 154.603C306.445 154.271 306.826 154.007 307.168 153.812C307.539 153.587 307.969 153.396 308.457 153.24C308.955 153.074 309.424 152.991 309.863 152.991C310.029 152.991 310.215 152.996 310.42 153.006C310.625 153.016 310.811 153.03 310.977 153.05V157.898ZM328.291 153.05L319.985 175.535H314.478L316.968 169.104L310.933 153.05H316.323L319.78 163.362L323.018 153.05H328.291Z" fill="#4C4C4E"/>
</g>
<g filter="url(#filter1_b_2309_1547)">
<rect x="470.5" y="40" width="238" height="177" rx="30" fill="white" fill-opacity="0.5"/>
<path d="M628.349 71.1663L619.273 110.055H569.972L560.895 71.1663H628.349Z" stroke="#4C4C4E" stroke-width="5"/>
<path d="M547.5 55.5H554.671L557.744 68.6666M557.744 68.6666L567.988 112.555H621.256L631.5 68.6666H557.744Z" stroke="#4C4C4E" stroke-width="4" stroke-linecap="round" stroke-linejoin="round"/>
<path d="M567.987 134.5C571.382 134.5 574.133 131.552 574.133 127.917C574.133 124.281 571.382 121.333 567.987 121.333C564.593 121.333 561.841 124.281 561.841 127.917C561.841 131.552 564.593 134.5 567.987 134.5Z" stroke="#4C4C4E" stroke-width="4" stroke-linecap="round" stroke-linejoin="round"/>
<path d="M621.258 134.5C624.652 134.5 627.404 131.552 627.404 127.917C627.404 124.281 624.652 121.333 621.258 121.333C617.863 121.333 615.111 124.281 615.111 127.917C615.111 131.552 617.863 134.5 621.258 134.5Z" stroke="#4C4C4E" stroke-width="4" stroke-linecap="round" stroke-linejoin="round"/>
<path d="M586.426 90.6112H602.816M594.621 99.389V81.8335" stroke="#4C4C4E" stroke-width="5" stroke-linecap="round" stroke-linejoin="round"/>
<path d="M535.828 189.896C534.158 189.896 532.688 189.734 531.419 189.412C530.159 189.09 528.987 188.689 527.903 188.211V183.025H528.401C529.495 183.953 530.701 184.666 532.02 185.164C533.338 185.662 534.617 185.911 535.857 185.911C536.17 185.911 536.58 185.877 537.088 185.809C537.605 185.74 538.021 185.633 538.333 185.486C538.714 185.32 539.036 185.091 539.3 184.798C539.563 184.495 539.695 184.1 539.695 183.611C539.695 183.064 539.48 182.62 539.051 182.278C538.621 181.937 538.108 181.688 537.513 181.531C536.771 181.336 535.975 181.15 535.125 180.975C534.285 180.799 533.499 180.584 532.767 180.33C531.077 179.734 529.866 178.934 529.134 177.928C528.401 176.922 528.035 175.662 528.035 174.148C528.035 172.107 528.899 170.457 530.628 169.197C532.356 167.928 534.515 167.293 537.103 167.293C538.401 167.293 539.69 167.425 540.97 167.688C542.259 167.952 543.411 168.309 544.427 168.758V173.738H543.943C543.133 173.045 542.142 172.459 540.97 171.98C539.808 171.502 538.611 171.263 537.381 171.263C536.902 171.263 536.473 171.297 536.092 171.365C535.711 171.434 535.311 171.565 534.891 171.761C534.549 171.917 534.251 172.151 533.997 172.464C533.753 172.767 533.631 173.108 533.631 173.489C533.631 174.046 533.826 174.49 534.217 174.822C534.617 175.145 535.384 175.438 536.517 175.701C537.249 175.867 537.952 176.028 538.626 176.185C539.31 176.341 540.037 176.556 540.809 176.829C542.322 177.376 543.445 178.113 544.178 179.041C544.92 179.959 545.291 181.175 545.291 182.688C545.291 184.856 544.437 186.6 542.728 187.918C541.028 189.236 538.729 189.896 535.828 189.896ZM556.233 189.939C553.128 189.939 550.745 189.197 549.085 187.713C547.435 186.229 546.609 184.114 546.609 181.37C546.609 178.685 547.381 176.541 548.924 174.939C550.467 173.338 552.625 172.537 555.398 172.537C557.918 172.537 559.812 173.216 561.082 174.573C562.352 175.931 562.986 177.874 562.986 180.403V182.249H551.751C551.8 183.011 551.961 183.65 552.234 184.168C552.508 184.676 552.869 185.081 553.318 185.384C553.758 185.687 554.271 185.906 554.856 186.043C555.442 186.17 556.082 186.233 556.775 186.233C557.371 186.233 557.957 186.17 558.533 186.043C559.109 185.906 559.637 185.73 560.115 185.516C560.535 185.33 560.921 185.13 561.272 184.915C561.634 184.7 561.927 184.51 562.151 184.344H562.693V188.577C562.273 188.743 561.888 188.899 561.536 189.046C561.194 189.183 560.721 189.324 560.115 189.471C559.559 189.617 558.982 189.729 558.387 189.808C557.801 189.896 557.083 189.939 556.233 189.939ZM557.933 179.158C557.903 178.074 557.649 177.249 557.171 176.683C556.702 176.116 555.979 175.833 555.003 175.833C554.007 175.833 553.226 176.131 552.659 176.727C552.103 177.322 551.795 178.133 551.736 179.158H557.933ZM576.668 177.898H576.243C576.048 177.83 575.765 177.781 575.394 177.752C575.022 177.713 574.612 177.693 574.163 177.693C573.626 177.693 573.06 177.771 572.464 177.928C571.878 178.084 571.307 178.27 570.75 178.484V189.5H565.623V173.05H570.75V175.408C570.984 175.193 571.307 174.925 571.717 174.603C572.137 174.271 572.518 174.007 572.859 173.812C573.23 173.587 573.66 173.396 574.148 173.24C574.646 173.074 575.115 172.991 575.555 172.991C575.721 172.991 575.906 172.996 576.111 173.006C576.316 173.016 576.502 173.03 576.668 173.05V177.898ZM594.026 173.05L588.123 189.5H582.527L576.668 173.05H582.059L585.428 183.934L588.753 173.05H594.026ZM601.131 189.5H596.004V173.05H601.131V189.5ZM601.277 170.706H595.857V166.707H601.277V170.706ZM613.128 189.939C611.771 189.939 610.525 189.769 609.393 189.427C608.27 189.085 607.293 188.558 606.463 187.845C605.643 187.132 605.003 186.238 604.544 185.164C604.085 184.08 603.855 182.806 603.855 181.341C603.855 179.769 604.104 178.431 604.603 177.327C605.101 176.224 605.774 175.315 606.624 174.603C607.444 173.919 608.406 173.416 609.51 173.094C610.623 172.762 611.78 172.596 612.981 172.596C613.89 172.596 614.798 172.703 615.706 172.918C616.614 173.123 617.527 173.455 618.445 173.914V178.309H617.786C617.581 178.113 617.327 177.898 617.024 177.664C616.731 177.43 616.409 177.215 616.058 177.02C615.687 176.814 615.267 176.644 614.798 176.507C614.329 176.36 613.807 176.287 613.23 176.287C611.922 176.287 610.906 176.746 610.184 177.664C609.471 178.572 609.114 179.798 609.114 181.341C609.114 182.991 609.495 184.222 610.257 185.032C611.028 185.843 612.049 186.248 613.318 186.248C613.963 186.248 614.529 186.175 615.018 186.028C615.506 185.882 615.926 185.706 616.277 185.501C616.619 185.296 616.912 185.086 617.156 184.871C617.4 184.646 617.61 184.446 617.786 184.271H618.445V188.665C618.152 188.792 617.811 188.938 617.42 189.104C617.039 189.271 616.648 189.407 616.248 189.515C615.75 189.651 615.281 189.754 614.842 189.822C614.412 189.9 613.841 189.939 613.128 189.939ZM629.3 189.939C626.194 189.939 623.812 189.197 622.151 187.713C620.501 186.229 619.676 184.114 619.676 181.37C619.676 178.685 620.447 176.541 621.99 174.939C623.533 173.338 625.691 172.537 628.465 172.537C630.984 172.537 632.879 173.216 634.148 174.573C635.418 175.931 636.053 177.874 636.053 180.403V182.249H624.817C624.866 183.011 625.027 183.65 625.301 184.168C625.574 184.676 625.936 185.081 626.385 185.384C626.824 185.687 627.337 185.906 627.923 186.043C628.509 186.17 629.148 186.233 629.842 186.233C630.438 186.233 631.023 186.17 631.6 186.043C632.176 185.906 632.703 185.73 633.182 185.516C633.602 185.33 633.987 185.13 634.339 184.915C634.7 184.7 634.993 184.51 635.218 184.344H635.76V188.577C635.34 188.743 634.954 188.899 634.603 189.046C634.261 189.183 633.787 189.324 633.182 189.471C632.625 189.617 632.049 189.729 631.453 189.808C630.867 189.896 630.149 189.939 629.3 189.939ZM630.999 179.158C630.97 178.074 630.716 177.249 630.237 176.683C629.769 176.116 629.046 175.833 628.069 175.833C627.073 175.833 626.292 176.131 625.726 176.727C625.169 177.322 624.861 178.133 624.803 179.158H630.999ZM643.699 189.954C642.488 189.954 641.341 189.822 640.257 189.559C639.183 189.295 638.294 188.987 637.591 188.636V184.3H638.016C638.26 184.485 638.538 184.69 638.851 184.915C639.163 185.14 639.598 185.374 640.154 185.618C640.633 185.843 641.17 186.038 641.766 186.204C642.371 186.36 643.025 186.438 643.729 186.438C644.451 186.438 645.086 186.326 645.633 186.102C646.189 185.877 646.468 185.521 646.468 185.032C646.468 184.651 646.341 184.363 646.087 184.168C645.833 183.973 645.34 183.787 644.607 183.611C644.217 183.514 643.724 183.411 643.128 183.304C642.532 183.187 642.005 183.055 641.546 182.908C640.257 182.508 639.285 181.917 638.631 181.136C637.986 180.345 637.664 179.31 637.664 178.03C637.664 177.298 637.83 176.609 638.162 175.965C638.504 175.311 639.002 174.729 639.656 174.222C640.311 173.724 641.116 173.328 642.073 173.035C643.04 172.742 644.129 172.596 645.34 172.596C646.492 172.596 647.552 172.713 648.519 172.947C649.485 173.172 650.301 173.445 650.965 173.768V177.928H650.555C650.379 177.791 650.101 177.61 649.72 177.386C649.339 177.151 648.968 176.951 648.606 176.785C648.177 176.59 647.693 176.429 647.156 176.302C646.629 176.175 646.087 176.111 645.53 176.111C644.788 176.111 644.158 176.238 643.641 176.492C643.133 176.746 642.879 177.083 642.879 177.503C642.879 177.874 643.006 178.167 643.26 178.382C643.514 178.597 644.065 178.807 644.915 179.012C645.354 179.119 645.857 179.227 646.424 179.334C647 179.432 647.552 179.568 648.079 179.744C649.261 180.125 650.154 180.687 650.76 181.429C651.375 182.161 651.683 183.138 651.683 184.358C651.683 185.13 651.502 185.867 651.141 186.57C650.779 187.264 650.267 187.85 649.603 188.328C648.899 188.846 648.069 189.246 647.112 189.529C646.165 189.812 645.027 189.954 643.699 189.954Z" fill="#4C4C4E"/>
</g>
<rect x="808.5" y="20" width="303" height="217" rx="30" fill="white"/>
<path d="M960.002 49.8214C958.239 49.8214 956.548 50.4954 955.301 51.6953C954.055 52.8951 953.354 54.5223 953.354 56.2191C953.354 67.0441 939.753 72.4693 931.796 64.8113C931.183 64.2002 930.45 63.7128 929.639 63.3775C928.828 63.0422 927.955 62.8657 927.073 62.8584C926.19 62.851 925.315 63.0129 924.498 63.3345C923.681 63.6562 922.939 64.1313 922.315 64.732C921.69 65.3327 921.197 66.047 920.863 66.8332C920.528 67.6195 920.36 68.462 920.368 69.3114C920.375 70.1609 920.559 71.0004 920.907 71.781C921.256 72.5615 921.762 73.2675 922.397 73.8577C930.354 81.5157 924.724 94.6055 913.469 94.6055C911.706 94.6055 910.016 95.2795 908.769 96.4793C907.522 97.6791 906.822 99.3064 906.822 101.003C906.822 102.7 907.522 104.327 908.769 105.527C910.016 106.727 911.706 107.401 913.469 107.401C924.717 107.401 930.354 120.491 922.397 128.149C921.186 129.355 920.516 130.971 920.531 132.649C920.546 134.326 921.245 135.931 922.478 137.117C923.71 138.303 925.378 138.976 927.121 138.991C928.864 139.005 930.543 138.361 931.796 137.195C939.753 129.537 953.354 134.956 953.354 145.787C953.354 147.484 954.055 149.111 955.301 150.311C956.548 151.511 958.239 152.185 960.002 152.185C961.765 152.185 963.455 151.511 964.702 150.311C965.949 149.111 966.649 147.484 966.649 145.787C966.649 134.962 980.25 129.537 988.207 137.195C988.82 137.806 989.554 138.294 990.365 138.629C991.176 138.964 992.048 139.141 992.931 139.148C993.813 139.155 994.689 138.994 995.505 138.672C996.322 138.35 997.065 137.875 997.689 137.274C998.313 136.674 998.807 135.959 999.141 135.173C999.475 134.387 999.643 133.544 999.636 132.695C999.628 131.845 999.444 131.006 999.096 130.225C998.748 129.445 998.241 128.739 997.606 128.149C989.649 120.491 995.28 107.401 1006.53 107.401C1008.3 107.401 1009.99 106.727 1011.23 105.527C1012.48 104.327 1013.18 102.7 1013.18 101.003C1013.18 99.3064 1012.48 97.6791 1011.23 96.4793C1009.99 95.2795 1008.3 94.6055 1006.53 94.6055C995.286 94.6055 989.649 81.5157 997.606 73.8577C998.817 72.651 999.487 71.035 999.472 69.3575C999.457 67.68 998.758 66.0754 997.525 64.8892C996.293 63.703 994.626 63.0302 992.883 63.0156C991.14 63.001 989.461 63.6459 988.207 64.8113C980.25 72.4693 966.649 67.0505 966.649 56.2191C966.649 54.5223 965.949 52.8951 964.702 51.6953C963.455 50.4954 961.765 49.8214 960.002 49.8214ZM940.112 54.7924C940.48 49.9575 942.735 45.4355 946.425 42.135C950.114 38.8345 954.965 37 960.002 37C965.039 37 969.889 38.8345 973.579 42.135C977.268 45.4355 979.523 49.9575 979.891 54.7924C983.705 51.6395 988.616 49.9897 993.641 50.1733C998.665 50.3569 1003.43 52.3604 1006.99 55.7827C1010.54 59.2049 1012.62 63.7932 1012.81 68.629C1013 73.4647 1011.29 78.1909 1008.01 81.8612C1013.03 82.2142 1017.73 84.3838 1021.16 87.9341C1024.59 91.4844 1026.5 96.1524 1026.5 101C1026.5 105.848 1024.6 110.517 1021.17 114.068C1017.74 117.619 1013.04 119.791 1008.02 120.145C1011.29 123.816 1013.01 128.543 1012.82 133.379C1012.62 138.214 1010.54 142.802 1006.99 146.224C1003.43 149.645 998.664 151.647 993.64 151.83C988.615 152.012 983.704 150.361 979.891 147.208C979.523 152.043 977.268 156.564 973.579 159.865C969.889 163.165 965.039 165 960.002 165C954.965 165 950.114 163.165 946.425 159.865C942.735 156.564 940.48 152.043 940.112 147.208C936.299 150.361 931.388 152.012 926.364 151.83C921.339 151.647 916.572 149.645 913.016 146.224C909.46 142.802 907.378 138.214 907.188 133.379C906.997 128.543 908.711 123.816 911.987 120.145C906.963 119.791 902.265 117.621 898.835 114.07C895.406 110.519 893.5 105.851 893.5 101.003C893.5 96.1553 895.406 91.487 898.835 87.9362C902.265 84.3853 906.963 82.215 911.987 81.8612C908.701 78.1915 906.978 73.4617 907.165 68.6206C907.351 63.7795 909.433 59.1854 912.992 55.7599C916.551 52.3344 921.325 50.3309 926.355 50.1515C931.385 49.972 936.299 51.6299 940.112 54.7924Z" fill="#717250"/>
<path d="M960.001 88.2076C956.475 88.2076 953.094 89.5557 950.6 91.9553C948.107 94.3549 946.706 97.6095 946.706 101.003C946.706 104.397 948.107 107.651 950.6 110.051C953.094 112.45 956.475 113.798 960.001 113.798C963.527 113.798 966.909 112.45 969.402 110.051C971.896 107.651 973.296 104.397 973.296 101.003C973.296 97.6095 971.896 94.3549 969.402 91.9553C966.909 89.5557 963.527 88.2076 960.001 88.2076ZM941.202 82.9103C943.655 80.4661 946.589 78.5165 949.833 77.1753C953.077 75.8341 956.567 75.1281 960.097 75.0986C963.628 75.0691 967.129 75.7166 970.397 77.0033C973.665 78.2901 976.633 80.1903 979.13 82.5931C981.627 84.9959 983.601 87.8531 984.938 90.9982C986.275 94.1432 986.948 97.513 986.917 100.911C986.886 104.309 986.153 107.667 984.759 110.789C983.366 113.911 981.34 116.735 978.8 119.096C973.786 123.757 967.069 126.337 960.097 126.278C953.125 126.22 946.456 123.529 941.526 118.784C936.596 114.039 933.8 107.621 933.739 100.911C933.679 94.2011 936.359 87.7368 941.202 82.9103Z" fill="#FEC341"/>
<path d="M914.583 192.61C914.583 194.133 914.341 195.583 913.857 196.96C913.374 198.337 912.678 199.487 911.77 200.41C911.213 200.981 910.598 201.509 909.924 201.992C909.265 202.476 908.533 202.886 907.727 203.223C906.921 203.56 906.042 203.823 905.09 204.014C904.153 204.204 903.098 204.299 901.926 204.299H897.62V215H889.402V182.283H902.102C903.992 182.283 905.618 182.458 906.98 182.81C908.357 183.147 909.602 183.689 910.715 184.436C911.946 185.256 912.898 186.355 913.572 187.732C914.246 189.094 914.583 190.72 914.583 192.61ZM906.145 192.808C906.145 191.885 905.925 191.094 905.486 190.435C905.046 189.761 904.519 189.299 903.904 189.05C903.127 188.713 902.38 188.523 901.663 188.479C900.959 188.42 900 188.391 898.784 188.391H897.62V198.191H898.191C898.967 198.191 899.7 198.184 900.388 198.169C901.077 198.154 901.677 198.103 902.19 198.015C902.629 197.942 903.091 197.803 903.574 197.598C904.072 197.378 904.453 197.136 904.717 196.873C905.273 196.331 905.647 195.767 905.837 195.181C906.042 194.595 906.145 193.804 906.145 192.808ZM935.105 197.598H934.468C934.175 197.495 933.75 197.422 933.193 197.378C932.637 197.319 932.021 197.29 931.348 197.29C930.542 197.29 929.692 197.407 928.799 197.642C927.92 197.876 927.063 198.154 926.228 198.477V215H918.538V190.325H926.228V193.862C926.58 193.54 927.063 193.137 927.678 192.654C928.308 192.156 928.879 191.76 929.392 191.467C929.949 191.13 930.593 190.845 931.326 190.61C932.073 190.361 932.776 190.237 933.435 190.237C933.684 190.237 933.962 190.244 934.27 190.259C934.578 190.273 934.856 190.295 935.105 190.325V197.598ZM961.736 202.673C961.736 206.731 960.623 209.932 958.396 212.275C956.184 214.604 953.049 215.769 948.992 215.769C944.963 215.769 941.829 214.604 939.587 212.275C937.361 209.932 936.248 206.731 936.248 202.673C936.248 198.572 937.361 195.364 939.587 193.049C941.829 190.72 944.963 189.556 948.992 189.556C953.035 189.556 956.169 190.728 958.396 193.071C960.623 195.4 961.736 198.601 961.736 202.673ZM953.848 202.717C953.848 201.252 953.723 200.037 953.474 199.07C953.24 198.088 952.91 197.305 952.485 196.719C952.031 196.104 951.519 195.679 950.947 195.444C950.376 195.195 949.724 195.071 948.992 195.071C948.303 195.071 947.681 195.181 947.124 195.4C946.567 195.605 946.055 196.008 945.586 196.609C945.146 197.18 944.795 197.964 944.531 198.96C944.268 199.956 944.136 201.208 944.136 202.717C944.136 204.226 944.26 205.449 944.509 206.387C944.758 207.31 945.081 208.049 945.476 208.606C945.886 209.177 946.399 209.595 947.014 209.858C947.629 210.122 948.311 210.254 949.058 210.254C949.673 210.254 950.295 210.122 950.925 209.858C951.57 209.595 952.083 209.199 952.463 208.672C952.917 208.042 953.262 207.288 953.496 206.409C953.73 205.515 953.848 204.285 953.848 202.717ZM981.599 186.611H981.006C980.713 186.523 980.251 186.414 979.622 186.282C979.006 186.135 978.42 186.062 977.864 186.062C976.311 186.062 975.249 186.348 974.678 186.919C974.121 187.49 973.843 188.56 973.843 190.127V190.325H979.951V195.686H974.106V215H966.416V195.686H963.34V190.325H966.416V189.644C966.416 186.626 967.207 184.363 968.789 182.854C970.371 181.345 972.766 180.591 975.974 180.591C977.087 180.591 978.127 180.635 979.094 180.723C980.061 180.796 980.896 180.898 981.599 181.03V186.611ZM990.74 215H983.049V190.325H990.74V215ZM990.959 186.809H982.83V180.811H990.959V186.809ZM1004.32 215H996.628V180.811H1004.32V215ZM1022.84 215.659C1018.18 215.659 1014.61 214.546 1012.12 212.319C1009.64 210.093 1008.41 206.921 1008.41 202.805C1008.41 198.777 1009.56 195.562 1011.88 193.159C1014.19 190.757 1017.43 189.556 1021.59 189.556C1025.37 189.556 1028.21 190.574 1030.11 192.61C1032.02 194.646 1032.97 197.561 1032.97 201.355V204.124H1016.12C1016.19 205.266 1016.43 206.226 1016.84 207.002C1017.25 207.764 1017.8 208.372 1018.47 208.826C1019.13 209.28 1019.9 209.609 1020.78 209.814C1021.66 210.005 1022.61 210.1 1023.65 210.1C1024.55 210.1 1025.43 210.005 1026.29 209.814C1027.16 209.609 1027.95 209.346 1028.66 209.023C1029.29 208.745 1029.87 208.445 1030.4 208.123C1030.94 207.8 1031.38 207.515 1031.72 207.266H1032.53V213.616C1031.9 213.865 1031.32 214.099 1030.8 214.319C1030.28 214.524 1029.57 214.736 1028.66 214.956C1027.83 215.176 1026.97 215.344 1026.07 215.461C1025.19 215.593 1024.12 215.659 1022.84 215.659ZM1025.39 199.487C1025.35 197.861 1024.97 196.624 1024.25 195.774C1023.54 194.924 1022.46 194.5 1021 194.5C1019.5 194.5 1018.33 194.946 1017.48 195.84C1016.65 196.733 1016.18 197.949 1016.1 199.487H1025.39Z" fill="black"/>
<g filter="url(#filter2_b_2309_1547)">
<rect x="1211.5" y="40" width="238" height="177" rx="30" fill="white" fill-opacity="0.5"/>
<path fill-rule="evenodd" clip-rule="evenodd" d="M1380.5 65.5241C1380.5 73.8215 1373.49 80.5479 1364.85 80.5479C1356.21 80.5479 1349.2 73.8215 1349.2 65.5241C1349.2 57.2266 1356.21 50.5002 1364.85 50.5002C1373.49 50.5002 1380.5 57.2266 1380.5 65.5241ZM1372.71 131.119C1369.69 128.535 1367.05 125.574 1364.85 122.315C1362.46 117.815 1361.02 112.901 1360.63 107.862V93.0181C1360.61 91.2151 1360.45 89.4162 1360.13 87.6396C1357.66 87.1668 1355.3 86.3145 1353.12 85.1156C1353.95 87.6842 1354.37 90.3585 1354.37 93.0481V107.892C1354.75 114.04 1356.51 120.035 1359.53 125.47C1361.69 128.757 1364.26 131.783 1367.17 134.484H1287.01C1289.92 131.783 1292.49 128.757 1294.65 125.47C1297.67 120.035 1299.43 114.04 1299.81 107.892V93.0181C1299.8 89.5406 1300.49 86.0942 1301.87 82.8762C1303.24 79.6581 1305.26 76.7317 1307.81 74.2643C1310.37 71.797 1313.4 69.8373 1316.74 68.4974C1320.09 67.1576 1323.67 66.4638 1327.29 66.456C1332.59 66.46 1337.78 67.9651 1342.19 70.7828C1341.7 69.0671 1341.43 67.302 1341.38 65.5245V63.6315C1338.11 62.0881 1334.6 61.0729 1330.99 60.6267V56.8407C1330.99 55.7768 1330.55 54.7565 1329.76 54.0042C1328.98 53.252 1327.92 52.8293 1326.81 52.8293C1325.7 52.8293 1324.64 53.252 1323.85 54.0042C1323.07 54.7565 1322.63 55.7768 1322.63 56.8407V60.777C1314.54 61.8724 1307.14 65.7401 1301.79 71.666C1296.44 77.592 1293.5 85.1761 1293.52 93.0181V107.862C1293.13 112.901 1291.69 117.815 1289.3 122.315C1287.14 125.567 1284.54 128.528 1281.56 131.119C1281.23 131.4 1280.96 131.747 1280.78 132.135C1280.6 132.524 1280.5 132.945 1280.5 133.372V137.459C1280.5 138.256 1280.83 139.02 1281.42 139.583C1282 140.147 1282.8 140.463 1283.63 140.463H1370.64C1371.47 140.463 1372.27 140.147 1372.86 139.583C1373.44 139.02 1373.77 138.256 1373.77 137.459V133.372C1373.77 132.945 1373.68 132.524 1373.49 132.135C1373.31 131.747 1373.04 131.4 1372.71 131.119ZM1327.29 150.499C1329.26 150.455 1331.15 149.744 1332.63 148.49C1334.11 147.236 1335.08 145.521 1335.37 143.648H1318.9C1319.2 145.572 1320.21 147.327 1321.75 148.588C1323.3 149.848 1325.26 150.527 1327.29 150.499Z" fill="#4C4C4E"/>
<path d="M1305.48 200.5H1300.21L1291.8 185.295V200.5H1286.79V178.688H1293.51L1300.47 191.183V178.688H1305.48V200.5ZM1325.4 192.282C1325.4 194.987 1324.66 197.121 1323.18 198.683C1321.7 200.236 1319.61 201.012 1316.91 201.012C1314.22 201.012 1312.13 200.236 1310.64 198.683C1309.15 197.121 1308.41 194.987 1308.41 192.282C1308.41 189.548 1309.15 187.409 1310.64 185.866C1312.13 184.313 1314.22 183.537 1316.91 183.537C1319.6 183.537 1321.69 184.318 1323.18 185.881C1324.66 187.433 1325.4 189.567 1325.4 192.282ZM1320.14 192.311C1320.14 191.335 1320.06 190.524 1319.89 189.88C1319.74 189.225 1319.52 188.703 1319.24 188.312C1318.93 187.902 1318.59 187.619 1318.21 187.463C1317.83 187.297 1317.39 187.214 1316.91 187.214C1316.45 187.214 1316.03 187.287 1315.66 187.433C1315.29 187.57 1314.95 187.839 1314.64 188.239C1314.34 188.62 1314.11 189.142 1313.93 189.806C1313.76 190.47 1313.67 191.305 1313.67 192.311C1313.67 193.317 1313.75 194.133 1313.92 194.758C1314.08 195.373 1314.3 195.866 1314.56 196.237C1314.84 196.618 1315.18 196.896 1315.59 197.072C1316 197.248 1316.45 197.336 1316.95 197.336C1317.36 197.336 1317.78 197.248 1318.2 197.072C1318.62 196.896 1318.97 196.633 1319.22 196.281C1319.52 195.861 1319.75 195.358 1319.91 194.772C1320.07 194.177 1320.14 193.356 1320.14 192.311ZM1334.43 200.822C1332.34 200.822 1330.81 200.392 1329.86 199.533C1328.91 198.674 1328.43 197.267 1328.43 195.314V187.624H1326.47V184.05H1328.43V179.347H1333.56V184.05H1338.5V187.624H1333.56V193.454C1333.56 194.03 1333.57 194.533 1333.58 194.963C1333.59 195.392 1333.66 195.778 1333.81 196.12C1333.95 196.462 1334.19 196.735 1334.53 196.94C1334.88 197.135 1335.39 197.233 1336.05 197.233C1336.33 197.233 1336.68 197.175 1337.12 197.057C1337.57 196.94 1337.88 196.833 1338.06 196.735H1338.5V200.353C1337.94 200.5 1337.35 200.612 1336.73 200.69C1336.1 200.778 1335.33 200.822 1334.43 200.822ZM1345.73 200.5H1340.61V184.05H1345.73V200.5ZM1345.88 181.706H1340.46V177.707H1345.88V181.706ZM1360.18 181.574H1359.78C1359.59 181.515 1359.28 181.442 1358.86 181.354C1358.45 181.257 1358.06 181.208 1357.69 181.208C1356.65 181.208 1355.94 181.398 1355.56 181.779C1355.19 182.16 1355.01 182.873 1355.01 183.918V184.05H1359.08V187.624H1355.18V200.5H1350.06V187.624H1348V184.05H1350.06V183.595C1350.06 181.584 1350.58 180.075 1351.64 179.069C1352.69 178.063 1354.29 177.56 1356.43 177.56C1357.17 177.56 1357.86 177.59 1358.51 177.648C1359.15 177.697 1359.71 177.765 1360.18 177.853V181.574ZM1376.5 184.05L1368.19 206.535H1362.68L1365.17 200.104L1359.14 184.05H1364.53L1367.99 194.362L1371.22 184.05H1376.5Z" fill="#4C4C4E"/>
</g>
<g filter="url(#filter3_b_2309_1547)">
<rect x="1549.5" y="61" width="191" height="135" rx="30" fill="white" fill-opacity="0.5"/>
<path d="M1689.21 123C1689.21 133.605 1689.21 138.911 1685.32 142.204C1681.44 145.5 1675.19 145.5 1662.68 145.5H1627.32C1614.81 145.5 1608.56 145.5 1604.68 142.204C1600.79 138.911 1600.79 133.605 1600.79 123V108C1600.79 97.395 1600.79 92.0888 1604.68 88.7963C1608.56 85.5 1614.81 85.5 1627.32 85.5H1662.68C1675.19 85.5 1681.44 85.5 1685.32 88.7963C1689.21 92.0888 1689.21 97.395 1689.21 108V123Z" stroke="#4C4C4E" stroke-width="10"/>
<path d="M1631.74 70.5L1645 83.625L1658.26 70.5M1662.69 85.5V145.5" stroke="#4C4C4E" stroke-width="10" stroke-linecap="round"/>
<path d="M1680.37 123C1680.37 122.005 1679.9 121.052 1679.07 120.348C1678.24 119.645 1677.12 119.25 1675.95 119.25C1674.77 119.25 1673.65 119.645 1672.82 120.348C1671.99 121.052 1671.53 122.005 1671.53 123C1671.53 123.995 1671.99 124.948 1672.82 125.652C1673.65 126.355 1674.77 126.75 1675.95 126.75C1677.12 126.75 1678.24 126.355 1679.07 125.652C1679.9 124.948 1680.37 123.995 1680.37 123ZM1680.37 108C1680.37 107.005 1679.9 106.052 1679.07 105.348C1678.24 104.645 1677.12 104.25 1675.95 104.25C1674.77 104.25 1673.65 104.645 1672.82 105.348C1671.99 106.052 1671.53 107.005 1671.53 108C1671.53 108.995 1671.99 109.948 1672.82 110.652C1673.65 111.355 1674.77 111.75 1675.95 111.75C1677.12 111.75 1678.24 111.355 1679.07 110.652C1679.9 109.948 1680.37 108.995 1680.37 108Z" fill="#4C4C4E"/>
<path d="M1627.23 158.688L1621.71 180.5H1615.7L1612.2 167.009L1608.8 180.5H1602.8L1597.28 158.688H1602.96L1605.96 173.322L1609.62 158.688H1615.06L1618.53 173.322L1621.69 158.688H1627.23ZM1638.72 176.208V172.78C1637.85 172.868 1637.14 172.946 1636.61 173.015C1636.07 173.073 1635.54 173.195 1635.02 173.381C1634.58 173.537 1634.22 173.776 1633.97 174.099C1633.73 174.411 1633.6 174.831 1633.6 175.358C1633.6 176.13 1633.81 176.662 1634.22 176.955C1634.64 177.238 1635.25 177.38 1636.06 177.38C1636.51 177.38 1636.97 177.277 1637.44 177.072C1637.91 176.867 1638.33 176.579 1638.72 176.208ZM1638.72 178.757C1638.36 179.05 1638.05 179.313 1637.76 179.548C1637.49 179.782 1637.12 180.017 1636.65 180.251C1636.19 180.476 1635.74 180.646 1635.3 180.764C1634.87 180.881 1634.27 180.939 1633.49 180.939C1632.03 180.939 1630.82 180.451 1629.85 179.475C1628.9 178.498 1628.42 177.268 1628.42 175.783C1628.42 174.562 1628.66 173.576 1629.15 172.824C1629.64 172.072 1630.34 171.477 1631.26 171.037C1632.19 170.588 1633.3 170.275 1634.58 170.1C1635.87 169.924 1637.26 169.787 1638.75 169.689V169.602C1638.75 168.693 1638.41 168.068 1637.73 167.727C1637.07 167.375 1636.07 167.199 1634.73 167.199C1634.13 167.199 1633.42 167.312 1632.61 167.536C1631.8 167.751 1631.01 168.029 1630.23 168.371H1629.79V164.401C1630.3 164.255 1631.12 164.084 1632.26 163.889C1633.39 163.684 1634.53 163.581 1635.68 163.581C1638.52 163.581 1640.58 164.055 1641.87 165.002C1643.16 165.939 1643.81 167.375 1643.81 169.309V180.5H1638.72V178.757ZM1653.91 180.822C1651.82 180.822 1650.29 180.393 1649.34 179.533C1648.39 178.674 1647.92 177.268 1647.92 175.314V167.624H1645.95V164.05H1647.92V159.348H1653.04V164.05H1657.98V167.624H1653.04V173.454C1653.04 174.03 1653.05 174.533 1653.06 174.963C1653.07 175.393 1653.14 175.778 1653.29 176.12C1653.43 176.462 1653.67 176.735 1654.01 176.94C1654.36 177.136 1654.87 177.233 1655.53 177.233C1655.81 177.233 1656.16 177.175 1656.6 177.058C1657.05 176.94 1657.36 176.833 1657.54 176.735H1657.98V180.354C1657.42 180.5 1656.83 180.612 1656.21 180.69C1655.58 180.778 1654.81 180.822 1653.91 180.822ZM1668.16 180.939C1666.8 180.939 1665.56 180.769 1664.42 180.427C1663.3 180.085 1662.32 179.558 1661.49 178.845C1660.67 178.132 1660.03 177.238 1659.58 176.164C1659.12 175.08 1658.89 173.806 1658.89 172.341C1658.89 170.769 1659.14 169.431 1659.63 168.327C1660.13 167.224 1660.81 166.315 1661.66 165.603C1662.48 164.919 1663.44 164.416 1664.54 164.094C1665.65 163.762 1666.81 163.596 1668.01 163.596C1668.92 163.596 1669.83 163.703 1670.74 163.918C1671.65 164.123 1672.56 164.455 1673.48 164.914V169.309H1672.82C1672.61 169.113 1672.36 168.898 1672.06 168.664C1671.76 168.43 1671.44 168.215 1671.09 168.02C1670.72 167.814 1670.3 167.644 1669.83 167.507C1669.36 167.36 1668.84 167.287 1668.26 167.287C1666.95 167.287 1665.94 167.746 1665.21 168.664C1664.5 169.572 1664.15 170.798 1664.15 172.341C1664.15 173.991 1664.53 175.222 1665.29 176.032C1666.06 176.843 1667.08 177.248 1668.35 177.248C1668.99 177.248 1669.56 177.175 1670.05 177.028C1670.54 176.882 1670.96 176.706 1671.31 176.501C1671.65 176.296 1671.94 176.086 1672.19 175.871C1672.43 175.646 1672.64 175.446 1672.82 175.271H1673.48V179.665C1673.18 179.792 1672.84 179.938 1672.45 180.104C1672.07 180.271 1671.68 180.407 1671.28 180.515C1670.78 180.651 1670.31 180.754 1669.87 180.822C1669.44 180.9 1668.87 180.939 1668.16 180.939ZM1691.32 180.5H1686.16V172.341C1686.16 171.677 1686.13 171.018 1686.07 170.363C1686.03 169.699 1685.93 169.211 1685.78 168.898C1685.61 168.527 1685.35 168.264 1685.02 168.107C1684.69 167.941 1684.24 167.858 1683.69 167.858C1683.27 167.858 1682.84 167.937 1682.41 168.093C1681.98 168.249 1681.52 168.498 1681.04 168.84V180.5H1675.91V157.707H1681.04V165.866C1681.88 165.153 1682.69 164.597 1683.48 164.196C1684.28 163.796 1685.17 163.596 1686.13 163.596C1687.81 163.596 1689.1 164.128 1689.99 165.192C1690.87 166.247 1691.32 167.78 1691.32 169.792V180.5Z" fill="#4C4C4E"/>
</g>
<defs>
<filter id="filter0_b_2309_1547" x="149.5" y="31" width="251" height="195" filterUnits="userSpaceOnUse" color-interpolation-filters="sRGB">
<feFlood flood-opacity="0" result="BackgroundImageFix"/>
<feGaussianBlur in="BackgroundImageFix" stdDeviation="15"/>
<feComposite in2="SourceAlpha" operator="in" result="effect1_backgroundBlur_2309_1547"/>
<feBlend mode="normal" in="SourceGraphic" in2="effect1_backgroundBlur_2309_1547" result="shape"/>
</filter>
<filter id="filter1_b_2309_1547" x="440.5" y="10" width="298" height="237" filterUnits="userSpaceOnUse" color-interpolation-filters="sRGB">
<feFlood flood-opacity="0" result="BackgroundImageFix"/>
<feGaussianBlur in="BackgroundImageFix" stdDeviation="15"/>
<feComposite in2="SourceAlpha" operator="in" result="effect1_backgroundBlur_2309_1547"/>
<feBlend mode="normal" in="SourceGraphic" in2="effect1_backgroundBlur_2309_1547" result="shape"/>
</filter>
<filter id="filter2_b_2309_1547" x="1181.5" y="10" width="298" height="237" filterUnits="userSpaceOnUse" color-interpolation-filters="sRGB">
<feFlood flood-opacity="0" result="BackgroundImageFix"/>
<feGaussianBlur in="BackgroundImageFix" stdDeviation="15"/>
<feComposite in2="SourceAlpha" operator="in" result="effect1_backgroundBlur_2309_1547"/>
<feBlend mode="normal" in="SourceGraphic" in2="effect1_backgroundBlur_2309_1547" result="shape"/>
</filter>
<filter id="filter3_b_2309_1547" x="1519.5" y="31" width="251" height="195" filterUnits="userSpaceOnUse" color-interpolation-filters="sRGB">
<feFlood flood-opacity="0" result="BackgroundImageFix"/>
<feGaussianBlur in="BackgroundImageFix" stdDeviation="15"/>
<feComposite in2="SourceAlpha" operator="in" result="effect1_backgroundBlur_2309_1547"/>
<feBlend mode="normal" in="SourceGraphic" in2="effect1_backgroundBlur_2309_1547" result="shape"/>
</filter>
</defs>
</svg>
