<svg width="1920" height="257" viewBox="0 0 1920 257" fill="none" xmlns="http://www.w3.org/2000/svg">
<g filter="url(#filter0_b_2309_1539)">
<rect x="183.5" y="61" width="191" height="135" rx="30" fill="white" fill-opacity="0.5"/>
<mask id="path-2-outside-1_2309_1539" maskUnits="userSpaceOnUse" x="239.5" y="70.7058" width="79" height="75" fill="black">
<rect fill="white" x="239.5" y="70.7058" width="79" height="75"/>
<path fill-rule="evenodd" clip-rule="evenodd" d="M291.912 79.0004C291.705 79.2073 291.425 79.3235 291.132 79.3235H266.868C266.575 79.3235 266.295 79.2073 266.088 79.0004C265.881 78.7936 265.765 78.513 265.765 78.2205C265.765 77.928 265.881 77.6475 266.088 77.4406C266.295 77.2338 266.575 77.1176 266.868 77.1176H291.132C291.425 77.1176 291.705 77.2338 291.912 77.4406C292.119 77.6475 292.235 77.928 292.235 78.2205C292.235 78.513 292.119 78.7936 291.912 79.0004ZM261.353 73.8088V82.6323C261.353 82.9248 261.237 83.2053 261.03 83.4122C260.823 83.619 260.543 83.7352 260.25 83.7352C259.957 83.7352 259.677 83.619 259.47 83.4122C259.263 83.2053 259.147 82.9248 259.147 82.6323V73.8088C259.147 73.5162 259.263 73.2357 259.47 73.0289C259.677 72.822 259.957 72.7058 260.25 72.7058C260.543 72.7058 260.823 72.822 261.03 73.0289C261.237 73.2357 261.353 73.5162 261.353 73.8088ZM298.53 83.4122C298.323 83.619 298.043 83.7352 297.75 83.7352C297.457 83.7352 297.177 83.619 296.97 83.4122C296.763 83.2053 296.647 82.9248 296.647 82.6323V73.8088C296.647 73.5162 296.763 73.2357 296.97 73.0289C297.177 72.822 297.457 72.7058 297.75 72.7058C298.043 72.7058 298.323 72.822 298.53 73.0289C298.737 73.2357 298.853 73.5162 298.853 73.8088V82.6323C298.853 82.9248 298.737 83.2053 298.53 83.4122ZM251.426 123.441C251.134 123.441 250.853 123.557 250.647 123.764C250.44 123.971 250.324 124.252 250.324 124.544C250.324 124.837 250.44 125.117 250.647 125.324C250.853 125.531 251.134 125.647 251.426 125.647H254.735V133.368C254.735 133.66 254.851 133.941 255.058 134.147C255.265 134.354 255.546 134.471 255.838 134.471C256.131 134.471 256.411 134.354 256.618 134.147C256.825 133.941 256.941 133.66 256.941 133.368V125.647H270.176V133.368C270.176 133.66 270.293 133.941 270.5 134.147C270.706 134.354 270.987 134.471 271.279 134.471C271.572 134.471 271.852 134.354 272.059 134.147C272.266 133.941 272.382 133.66 272.382 133.368V125.647H285.618V133.368C285.618 133.66 285.734 133.941 285.941 134.147C286.148 134.354 286.428 134.471 286.721 134.471C287.013 134.471 287.294 134.354 287.5 134.147C287.707 133.941 287.824 133.66 287.824 133.368V125.647H301.059V133.368C301.059 133.66 301.175 133.941 301.382 134.147C301.589 134.354 301.869 134.471 302.162 134.471C302.454 134.471 302.735 134.354 302.942 134.147C303.149 133.941 303.265 133.66 303.265 133.368V125.647H306.574C306.866 125.647 307.147 125.531 307.353 125.324C307.56 125.117 307.676 124.837 307.676 124.544C307.676 124.252 307.56 123.971 307.353 123.764C307.147 123.557 306.866 123.441 306.574 123.441H303.265V112.412H306.574C306.866 112.412 307.147 112.295 307.353 112.089C307.56 111.882 307.676 111.601 307.676 111.309C307.676 111.016 307.56 110.736 307.353 110.529C307.147 110.322 306.866 110.206 306.574 110.206H303.265V100.279C303.265 99.9868 303.149 99.7063 302.942 99.4994C302.735 99.2926 302.454 99.1764 302.162 99.1764C301.869 99.1764 301.589 99.2926 301.382 99.4994C301.175 99.7063 301.059 99.9868 301.059 100.279V110.206H287.824V100.279C287.824 99.9868 287.707 99.7063 287.5 99.4994C287.294 99.2926 287.013 99.1764 286.721 99.1764C286.428 99.1764 286.148 99.2926 285.941 99.4994C285.734 99.7063 285.618 99.9868 285.618 100.279V110.206H272.382V100.279C272.382 99.9868 272.266 99.7063 272.059 99.4994C271.852 99.2926 271.572 99.1764 271.279 99.1764C270.987 99.1764 270.706 99.2926 270.5 99.4994C270.293 99.7063 270.176 99.9868 270.176 100.279V110.206H256.941V100.279C256.941 99.9868 256.825 99.7063 256.618 99.4994C256.411 99.2926 256.131 99.1764 255.838 99.1764C255.546 99.1764 255.265 99.2926 255.058 99.4994C254.851 99.7063 254.735 99.9868 254.735 100.279V110.206H251.426C251.134 110.206 250.853 110.322 250.647 110.529C250.44 110.736 250.324 111.016 250.324 111.309C250.324 111.601 250.44 111.882 250.647 112.089C250.853 112.295 251.134 112.412 251.426 112.412H254.735V123.441H251.426ZM301.059 112.412V123.441H287.824V112.412H301.059ZM285.618 112.412V123.441H272.382V112.412H285.618ZM256.941 112.412H270.176V123.441H256.941V112.412ZM304.368 79.3235H313.743C313.935 79.3235 314.294 79.3235 314.294 80.4264V90.3529H243.706V80.4264C243.706 80.1339 243.822 79.8533 244.029 79.6465C244.236 79.4397 244.516 79.3235 244.809 79.3235H253.632C253.925 79.3235 254.205 79.2073 254.412 79.0004C254.619 78.7936 254.735 78.513 254.735 78.2205C254.735 77.928 254.619 77.6475 254.412 77.4406C254.205 77.2338 253.925 77.1176 253.632 77.1176H244.809C242.985 77.1176 241.5 78.6021 241.5 80.4264V91.4558C241.5 91.7483 241.616 92.0289 241.823 92.2357C242.03 92.4426 242.31 92.5588 242.603 92.5588H315.397C315.69 92.5588 315.97 92.4426 316.177 92.2357C316.384 92.0289 316.5 91.7483 316.5 91.4558V80.4264C316.5 77.9867 315.075 77.1176 313.743 77.1176H304.368C304.075 77.1176 303.795 77.2338 303.588 77.4406C303.381 77.6475 303.265 77.928 303.265 78.2205C303.265 78.513 303.381 78.7936 303.588 79.0004C303.795 79.2073 304.075 79.3235 304.368 79.3235ZM316.5 139.985V98.0735C316.5 97.7809 316.384 97.5004 316.177 97.2936C315.97 97.0867 315.69 96.9705 315.397 96.9705C315.105 96.9705 314.824 97.0867 314.617 97.2936C314.41 97.5004 314.294 97.7809 314.294 98.0735V139.985C314.294 140.278 314.178 140.558 313.971 140.765C313.764 140.972 313.484 141.088 313.191 141.088H244.809C244.516 141.088 244.236 140.972 244.029 140.765C243.822 140.558 243.706 140.278 243.706 139.985V98.0735C243.706 97.7809 243.59 97.5004 243.383 97.2936C243.176 97.0867 242.895 96.9705 242.603 96.9705C242.31 96.9705 242.03 97.0867 241.823 97.2936C241.616 97.5004 241.5 97.7809 241.5 98.0735V139.985C241.5 141.809 242.985 143.294 244.809 143.294H313.191C315.015 143.294 316.5 141.809 316.5 139.985Z"/>
</mask>
<path fill-rule="evenodd" clip-rule="evenodd" d="M291.912 79.0004C291.705 79.2073 291.425 79.3235 291.132 79.3235H266.868C266.575 79.3235 266.295 79.2073 266.088 79.0004C265.881 78.7936 265.765 78.513 265.765 78.2205C265.765 77.928 265.881 77.6475 266.088 77.4406C266.295 77.2338 266.575 77.1176 266.868 77.1176H291.132C291.425 77.1176 291.705 77.2338 291.912 77.4406C292.119 77.6475 292.235 77.928 292.235 78.2205C292.235 78.513 292.119 78.7936 291.912 79.0004ZM261.353 73.8088V82.6323C261.353 82.9248 261.237 83.2053 261.03 83.4122C260.823 83.619 260.543 83.7352 260.25 83.7352C259.957 83.7352 259.677 83.619 259.47 83.4122C259.263 83.2053 259.147 82.9248 259.147 82.6323V73.8088C259.147 73.5162 259.263 73.2357 259.47 73.0289C259.677 72.822 259.957 72.7058 260.25 72.7058C260.543 72.7058 260.823 72.822 261.03 73.0289C261.237 73.2357 261.353 73.5162 261.353 73.8088ZM298.53 83.4122C298.323 83.619 298.043 83.7352 297.75 83.7352C297.457 83.7352 297.177 83.619 296.97 83.4122C296.763 83.2053 296.647 82.9248 296.647 82.6323V73.8088C296.647 73.5162 296.763 73.2357 296.97 73.0289C297.177 72.822 297.457 72.7058 297.75 72.7058C298.043 72.7058 298.323 72.822 298.53 73.0289C298.737 73.2357 298.853 73.5162 298.853 73.8088V82.6323C298.853 82.9248 298.737 83.2053 298.53 83.4122ZM251.426 123.441C251.134 123.441 250.853 123.557 250.647 123.764C250.44 123.971 250.324 124.252 250.324 124.544C250.324 124.837 250.44 125.117 250.647 125.324C250.853 125.531 251.134 125.647 251.426 125.647H254.735V133.368C254.735 133.66 254.851 133.941 255.058 134.147C255.265 134.354 255.546 134.471 255.838 134.471C256.131 134.471 256.411 134.354 256.618 134.147C256.825 133.941 256.941 133.66 256.941 133.368V125.647H270.176V133.368C270.176 133.66 270.293 133.941 270.5 134.147C270.706 134.354 270.987 134.471 271.279 134.471C271.572 134.471 271.852 134.354 272.059 134.147C272.266 133.941 272.382 133.66 272.382 133.368V125.647H285.618V133.368C285.618 133.66 285.734 133.941 285.941 134.147C286.148 134.354 286.428 134.471 286.721 134.471C287.013 134.471 287.294 134.354 287.5 134.147C287.707 133.941 287.824 133.66 287.824 133.368V125.647H301.059V133.368C301.059 133.66 301.175 133.941 301.382 134.147C301.589 134.354 301.869 134.471 302.162 134.471C302.454 134.471 302.735 134.354 302.942 134.147C303.149 133.941 303.265 133.66 303.265 133.368V125.647H306.574C306.866 125.647 307.147 125.531 307.353 125.324C307.56 125.117 307.676 124.837 307.676 124.544C307.676 124.252 307.56 123.971 307.353 123.764C307.147 123.557 306.866 123.441 306.574 123.441H303.265V112.412H306.574C306.866 112.412 307.147 112.295 307.353 112.089C307.56 111.882 307.676 111.601 307.676 111.309C307.676 111.016 307.56 110.736 307.353 110.529C307.147 110.322 306.866 110.206 306.574 110.206H303.265V100.279C303.265 99.9868 303.149 99.7063 302.942 99.4994C302.735 99.2926 302.454 99.1764 302.162 99.1764C301.869 99.1764 301.589 99.2926 301.382 99.4994C301.175 99.7063 301.059 99.9868 301.059 100.279V110.206H287.824V100.279C287.824 99.9868 287.707 99.7063 287.5 99.4994C287.294 99.2926 287.013 99.1764 286.721 99.1764C286.428 99.1764 286.148 99.2926 285.941 99.4994C285.734 99.7063 285.618 99.9868 285.618 100.279V110.206H272.382V100.279C272.382 99.9868 272.266 99.7063 272.059 99.4994C271.852 99.2926 271.572 99.1764 271.279 99.1764C270.987 99.1764 270.706 99.2926 270.5 99.4994C270.293 99.7063 270.176 99.9868 270.176 100.279V110.206H256.941V100.279C256.941 99.9868 256.825 99.7063 256.618 99.4994C256.411 99.2926 256.131 99.1764 255.838 99.1764C255.546 99.1764 255.265 99.2926 255.058 99.4994C254.851 99.7063 254.735 99.9868 254.735 100.279V110.206H251.426C251.134 110.206 250.853 110.322 250.647 110.529C250.44 110.736 250.324 111.016 250.324 111.309C250.324 111.601 250.44 111.882 250.647 112.089C250.853 112.295 251.134 112.412 251.426 112.412H254.735V123.441H251.426ZM301.059 112.412V123.441H287.824V112.412H301.059ZM285.618 112.412V123.441H272.382V112.412H285.618ZM256.941 112.412H270.176V123.441H256.941V112.412ZM304.368 79.3235H313.743C313.935 79.3235 314.294 79.3235 314.294 80.4264V90.3529H243.706V80.4264C243.706 80.1339 243.822 79.8533 244.029 79.6465C244.236 79.4397 244.516 79.3235 244.809 79.3235H253.632C253.925 79.3235 254.205 79.2073 254.412 79.0004C254.619 78.7936 254.735 78.513 254.735 78.2205C254.735 77.928 254.619 77.6475 254.412 77.4406C254.205 77.2338 253.925 77.1176 253.632 77.1176H244.809C242.985 77.1176 241.5 78.6021 241.5 80.4264V91.4558C241.5 91.7483 241.616 92.0289 241.823 92.2357C242.03 92.4426 242.31 92.5588 242.603 92.5588H315.397C315.69 92.5588 315.97 92.4426 316.177 92.2357C316.384 92.0289 316.5 91.7483 316.5 91.4558V80.4264C316.5 77.9867 315.075 77.1176 313.743 77.1176H304.368C304.075 77.1176 303.795 77.2338 303.588 77.4406C303.381 77.6475 303.265 77.928 303.265 78.2205C303.265 78.513 303.381 78.7936 303.588 79.0004C303.795 79.2073 304.075 79.3235 304.368 79.3235ZM316.5 139.985V98.0735C316.5 97.7809 316.384 97.5004 316.177 97.2936C315.97 97.0867 315.69 96.9705 315.397 96.9705C315.105 96.9705 314.824 97.0867 314.617 97.2936C314.41 97.5004 314.294 97.7809 314.294 98.0735V139.985C314.294 140.278 314.178 140.558 313.971 140.765C313.764 140.972 313.484 141.088 313.191 141.088H244.809C244.516 141.088 244.236 140.972 244.029 140.765C243.822 140.558 243.706 140.278 243.706 139.985V98.0735C243.706 97.7809 243.59 97.5004 243.383 97.2936C243.176 97.0867 242.895 96.9705 242.603 96.9705C242.31 96.9705 242.03 97.0867 241.823 97.2936C241.616 97.5004 241.5 97.7809 241.5 98.0735V139.985C241.5 141.809 242.985 143.294 244.809 143.294H313.191C315.015 143.294 316.5 141.809 316.5 139.985Z" fill="#4C4C4E"/>
<path d="M291.912 79.0004L293.326 80.4146L293.326 80.4146L291.912 79.0004ZM266.088 79.0004L267.502 77.5862L267.502 77.5862L266.088 79.0004ZM266.088 77.4406L267.502 78.8548L267.502 78.8548L266.088 77.4406ZM259.47 83.4122L260.884 81.998L260.884 81.998L259.47 83.4122ZM259.47 73.0289L260.884 74.4431L260.884 74.4431L259.47 73.0289ZM298.53 83.4122L297.116 81.998L297.116 81.998L298.53 83.4122ZM298.53 73.0289L297.116 74.4431L297.116 74.4431L298.53 73.0289ZM250.647 123.764L252.061 125.178L252.061 125.178L250.647 123.764ZM250.647 125.324L249.232 126.738L249.232 126.738L250.647 125.324ZM254.735 125.647H256.735V123.647H254.735V125.647ZM256.941 125.647V123.647H254.941V125.647H256.941ZM270.176 125.647H272.176V123.647H270.176V125.647ZM270.5 134.147L271.914 132.733L271.914 132.733L270.5 134.147ZM272.059 134.147L270.645 132.733L270.645 132.733L272.059 134.147ZM272.382 125.647V123.647H270.382V125.647H272.382ZM285.618 125.647H287.618V123.647H285.618V125.647ZM287.5 134.147L286.086 132.733L286.086 132.733L287.5 134.147ZM287.824 125.647V123.647H285.824V125.647H287.824ZM301.059 125.647H303.059V123.647H301.059V125.647ZM301.382 134.147L302.796 132.733L302.796 132.733L301.382 134.147ZM303.265 125.647V123.647H301.265V125.647H303.265ZM307.353 125.324L308.768 126.738L308.768 126.738L307.353 125.324ZM307.353 123.764L305.939 125.178L305.939 125.178L307.353 123.764ZM303.265 123.441H301.265V125.441H303.265V123.441ZM303.265 112.412V110.412H301.265V112.412H303.265ZM307.353 110.529L305.939 111.943L305.939 111.943L307.353 110.529ZM303.265 110.206H301.265V112.206H303.265V110.206ZM302.942 99.4994L304.356 98.0852L304.356 98.0852L302.942 99.4994ZM301.382 99.4994L302.796 100.914L302.796 100.914L301.382 99.4994ZM301.059 110.206V112.206H303.059V110.206H301.059ZM287.824 110.206H285.824V112.206H287.824V110.206ZM287.5 99.4994L286.086 100.914L286.086 100.914L287.5 99.4994ZM285.941 99.4994L284.526 98.0852L284.526 98.0852L285.941 99.4994ZM285.618 110.206V112.206H287.618V110.206H285.618ZM272.382 110.206H270.382V112.206H272.382V110.206ZM270.176 110.206V112.206H272.176V110.206H270.176ZM256.941 110.206H254.941V112.206H256.941V110.206ZM256.618 99.4994L258.032 98.0852L258.032 98.0852L256.618 99.4994ZM255.058 99.4994L253.644 98.0852L253.644 98.0852L255.058 99.4994ZM254.735 110.206V112.206H256.735V110.206H254.735ZM250.647 110.529L252.061 111.943L252.061 111.943L250.647 110.529ZM250.647 112.089L249.232 113.503L249.232 113.503L250.647 112.089ZM254.735 112.412H256.735V110.412H254.735V112.412ZM254.735 123.441V125.441H256.735V123.441H254.735ZM301.059 123.441V125.441H303.059V123.441H301.059ZM301.059 112.412H303.059V110.412H301.059V112.412ZM287.824 123.441H285.824V125.441H287.824V123.441ZM287.824 112.412V110.412H285.824V112.412H287.824ZM285.618 123.441V125.441H287.618V123.441H285.618ZM285.618 112.412H287.618V110.412H285.618V112.412ZM272.382 123.441H270.382V125.441H272.382V123.441ZM272.382 112.412V110.412H270.382V112.412H272.382ZM270.176 112.412H272.176V110.412H270.176V112.412ZM256.941 112.412V110.412H254.941V112.412H256.941ZM270.176 123.441V125.441H272.176V123.441H270.176ZM256.941 123.441H254.941V125.441H256.941V123.441ZM314.294 90.3529V92.3529H316.294V90.3529H314.294ZM243.706 90.3529H241.706V92.3529H243.706V90.3529ZM244.029 79.6465L242.615 78.2323L242.615 78.2323L244.029 79.6465ZM244.809 79.3235L244.809 81.3235H244.809V79.3235ZM254.412 79.0004L255.826 80.4146L255.826 80.4146L254.412 79.0004ZM303.588 77.4406L305.002 78.8548L305.002 78.8548L303.588 77.4406ZM303.588 79.0004L305.002 77.5862L305.002 77.5862L303.588 79.0004ZM316.177 97.2936L314.763 98.7078L314.763 98.7078L316.177 97.2936ZM314.617 97.2936L316.031 98.7078L316.031 98.7078L314.617 97.2936ZM313.971 140.765L312.557 139.351L312.557 139.351L313.971 140.765ZM244.029 140.765L242.615 142.179H242.615L244.029 140.765ZM243.383 97.2936L241.969 98.7078L241.969 98.7078L243.383 97.2936ZM241.823 97.2936L243.237 98.7078L243.237 98.7078L241.823 97.2936ZM291.132 81.3235C291.955 81.3235 292.745 80.9965 293.326 80.4146L290.498 77.5862C290.666 77.418 290.894 77.3235 291.132 77.3235V81.3235ZM266.868 81.3235H291.132V77.3235H266.868V81.3235ZM264.674 80.4146C265.255 80.9965 266.045 81.3235 266.868 81.3235V77.3235C267.106 77.3235 267.334 77.418 267.502 77.5862L264.674 80.4146ZM263.765 78.2205C263.765 79.0435 264.092 79.8327 264.674 80.4146L267.502 77.5862C267.67 77.7544 267.765 77.9826 267.765 78.2205H263.765ZM264.674 76.0264C264.092 76.6083 263.765 77.3976 263.765 78.2205H267.765C267.765 78.4584 267.67 78.6866 267.502 78.8548L264.674 76.0264ZM266.868 75.1176C266.045 75.1176 265.255 75.4445 264.674 76.0264L267.502 78.8548C267.334 79.0231 267.106 79.1176 266.868 79.1176V75.1176ZM291.132 75.1176H266.868V79.1176H291.132V75.1176ZM293.326 76.0264C292.745 75.4445 291.955 75.1176 291.132 75.1176V79.1176C290.894 79.1176 290.666 79.0231 290.498 78.8548L293.326 76.0264ZM294.235 78.2205C294.235 77.3976 293.908 76.6083 293.326 76.0264L290.498 78.8548C290.33 78.6866 290.235 78.4584 290.235 78.2205H294.235ZM293.326 80.4146C293.908 79.8327 294.235 79.0435 294.235 78.2205H290.235C290.235 77.9826 290.33 77.7544 290.498 77.5862L293.326 80.4146ZM263.353 82.6323V73.8088H259.353V82.6323H263.353ZM262.444 84.8264C263.026 84.2445 263.353 83.4552 263.353 82.6323H259.353C259.353 82.3944 259.447 82.1662 259.616 81.998L262.444 84.8264ZM260.25 85.7352C261.073 85.7352 261.862 85.4083 262.444 84.8264L259.616 81.998C259.784 81.8297 260.012 81.7352 260.25 81.7352V85.7352ZM258.056 84.8264C258.638 85.4083 259.427 85.7352 260.25 85.7352V81.7352C260.488 81.7352 260.716 81.8297 260.884 81.998L258.056 84.8264ZM257.147 82.6323C257.147 83.4552 257.474 84.2445 258.056 84.8264L260.884 81.998C261.053 82.1662 261.147 82.3944 261.147 82.6323H257.147ZM257.147 73.8088V82.6323H261.147V73.8088H257.147ZM258.056 71.6146C257.474 72.1966 257.147 72.9858 257.147 73.8088H261.147C261.147 74.0467 261.053 74.2748 260.884 74.4431L258.056 71.6146ZM260.25 70.7058C259.427 70.7058 258.638 71.0327 258.056 71.6146L260.884 74.4431C260.716 74.6113 260.488 74.7058 260.25 74.7058V70.7058ZM262.444 71.6146C261.862 71.0327 261.073 70.7058 260.25 70.7058V74.7058C260.012 74.7058 259.784 74.6113 259.616 74.4431L262.444 71.6146ZM263.353 73.8088C263.353 72.9858 263.026 72.1966 262.444 71.6146L259.616 74.4431C259.447 74.2748 259.353 74.0467 259.353 73.8088H263.353ZM297.75 85.7352C298.573 85.7352 299.362 85.4083 299.944 84.8264L297.116 81.998C297.284 81.8297 297.512 81.7352 297.75 81.7352V85.7352ZM295.556 84.8264C296.138 85.4083 296.927 85.7352 297.75 85.7352V81.7352C297.988 81.7352 298.216 81.8297 298.384 81.998L295.556 84.8264ZM294.647 82.6323C294.647 83.4552 294.974 84.2445 295.556 84.8264L298.384 81.998C298.553 82.1662 298.647 82.3944 298.647 82.6323H294.647ZM294.647 73.8088V82.6323H298.647V73.8088H294.647ZM295.556 71.6146C294.974 72.1966 294.647 72.9858 294.647 73.8088H298.647C298.647 74.0467 298.553 74.2748 298.384 74.4431L295.556 71.6146ZM297.75 70.7058C296.927 70.7058 296.138 71.0327 295.556 71.6146L298.384 74.4431C298.216 74.6113 297.988 74.7058 297.75 74.7058V70.7058ZM299.944 71.6146C299.362 71.0327 298.573 70.7058 297.75 70.7058V74.7058C297.512 74.7058 297.284 74.6113 297.116 74.4431L299.944 71.6146ZM300.853 73.8088C300.853 72.9858 300.526 72.1966 299.944 71.6146L297.116 74.4431C296.947 74.2748 296.853 74.0467 296.853 73.8088H300.853ZM300.853 82.6323V73.8088H296.853V82.6323H300.853ZM299.944 84.8264C300.526 84.2445 300.853 83.4552 300.853 82.6323H296.853C296.853 82.3944 296.947 82.1662 297.116 81.998L299.944 84.8264ZM252.061 125.178C251.893 125.347 251.664 125.441 251.426 125.441V121.441C250.604 121.441 249.814 121.768 249.232 122.35L252.061 125.178ZM252.324 124.544C252.324 124.782 252.229 125.01 252.061 125.178L249.232 122.35C248.65 122.932 248.324 123.721 248.324 124.544H252.324ZM252.061 123.91C252.229 124.078 252.324 124.306 252.324 124.544H248.324C248.324 125.367 248.65 126.156 249.232 126.738L252.061 123.91ZM251.426 123.647C251.664 123.647 251.893 123.742 252.061 123.91L249.232 126.738C249.814 127.32 250.604 127.647 251.426 127.647V123.647ZM254.735 123.647H251.426V127.647H254.735V123.647ZM256.735 133.368V125.647H252.735V133.368H256.735ZM256.473 132.733C256.641 132.901 256.735 133.13 256.735 133.368H252.735C252.735 134.191 253.062 134.98 253.644 135.562L256.473 132.733ZM255.838 132.471C256.076 132.471 256.304 132.565 256.473 132.733L253.644 135.562C254.226 136.144 255.015 136.471 255.838 136.471V132.471ZM255.204 132.733C255.372 132.565 255.6 132.471 255.838 132.471V136.471C256.661 136.471 257.45 136.144 258.032 135.562L255.204 132.733ZM254.941 133.368C254.941 133.13 255.036 132.901 255.204 132.733L258.032 135.562C258.614 134.98 258.941 134.191 258.941 133.368H254.941ZM254.941 125.647V133.368H258.941V125.647H254.941ZM270.176 123.647H256.941V127.647H270.176V123.647ZM272.176 133.368V125.647H268.176V133.368H272.176ZM271.914 132.733C272.082 132.901 272.176 133.13 272.176 133.368H268.176C268.176 134.191 268.503 134.98 269.085 135.562L271.914 132.733ZM271.279 132.471C271.517 132.471 271.745 132.565 271.914 132.733L269.085 135.562C269.667 136.144 270.456 136.471 271.279 136.471V132.471ZM270.645 132.733C270.813 132.565 271.041 132.471 271.279 132.471V136.471C272.102 136.471 272.892 136.144 273.474 135.562L270.645 132.733ZM270.382 133.368C270.382 133.13 270.477 132.901 270.645 132.733L273.474 135.562C274.055 134.98 274.382 134.191 274.382 133.368H270.382ZM270.382 125.647V133.368H274.382V125.647H270.382ZM285.618 123.647H272.382V127.647H285.618V123.647ZM287.618 133.368V125.647H283.618V133.368H287.618ZM287.355 132.733C287.523 132.901 287.618 133.13 287.618 133.368H283.618C283.618 134.191 283.945 134.98 284.526 135.562L287.355 132.733ZM286.721 132.471C286.958 132.471 287.187 132.565 287.355 132.733L284.526 135.562C285.108 136.144 285.898 136.471 286.721 136.471V132.471ZM286.086 132.733C286.255 132.565 286.483 132.471 286.721 132.471V136.471C287.544 136.471 288.333 136.144 288.915 135.562L286.086 132.733ZM285.824 133.368C285.824 133.13 285.918 132.901 286.086 132.733L288.915 135.562C289.497 134.98 289.824 134.191 289.824 133.368H285.824ZM285.824 125.647V133.368H289.824V125.647H285.824ZM301.059 123.647H287.824V127.647H301.059V123.647ZM303.059 133.368V125.647H299.059V133.368H303.059ZM302.796 132.733C302.964 132.901 303.059 133.13 303.059 133.368H299.059C299.059 134.191 299.386 134.98 299.968 135.562L302.796 132.733ZM302.162 132.471C302.4 132.471 302.628 132.565 302.796 132.733L299.968 135.562C300.55 136.144 301.339 136.471 302.162 136.471V132.471ZM301.527 132.733C301.696 132.565 301.924 132.471 302.162 132.471V136.471C302.985 136.471 303.774 136.144 304.356 135.562L301.527 132.733ZM301.265 133.368C301.265 133.13 301.359 132.901 301.527 132.733L304.356 135.562C304.938 134.98 305.265 134.191 305.265 133.368H301.265ZM301.265 125.647V133.368H305.265V125.647H301.265ZM306.574 123.647H303.265V127.647H306.574V123.647ZM305.939 123.91C306.107 123.741 306.336 123.647 306.574 123.647V127.647C307.396 127.647 308.186 127.32 308.768 126.738L305.939 123.91ZM305.676 124.544C305.676 124.306 305.771 124.078 305.939 123.91L308.768 126.738C309.35 126.156 309.676 125.367 309.676 124.544H305.676ZM305.939 125.178C305.771 125.01 305.676 124.782 305.676 124.544H309.676C309.676 123.721 309.35 122.932 308.768 122.35L305.939 125.178ZM306.574 125.441C306.336 125.441 306.107 125.347 305.939 125.178L308.768 122.35C308.186 121.768 307.396 121.441 306.574 121.441V125.441ZM303.265 125.441H306.574V121.441H303.265V125.441ZM301.265 112.412V123.441H305.265V112.412H301.265ZM306.574 110.412H303.265V114.412H306.574V110.412ZM305.939 110.674C306.107 110.506 306.336 110.412 306.574 110.412V114.412C307.396 114.412 308.186 114.085 308.768 113.503L305.939 110.674ZM305.676 111.309C305.676 111.071 305.771 110.843 305.939 110.674L308.768 113.503C309.35 112.921 309.676 112.132 309.676 111.309H305.676ZM305.939 111.943C305.771 111.775 305.676 111.547 305.676 111.309H309.676C309.676 110.486 309.35 109.697 308.768 109.115L305.939 111.943ZM306.574 112.206C306.336 112.206 306.107 112.111 305.939 111.943L308.768 109.115C308.186 108.533 307.396 108.206 306.574 108.206V112.206ZM303.265 112.206H306.574V108.206H303.265V112.206ZM301.265 100.279V110.206H305.265V100.279H301.265ZM301.527 100.914C301.359 100.745 301.265 100.517 301.265 100.279H305.265C305.265 99.4564 304.938 98.6671 304.356 98.0852L301.527 100.914ZM302.162 101.176C301.924 101.176 301.696 101.082 301.527 100.914L304.356 98.0852C303.774 97.5033 302.985 97.1764 302.162 97.1764V101.176ZM302.796 100.914C302.628 101.082 302.4 101.176 302.162 101.176V97.1764C301.339 97.1764 300.55 97.5033 299.968 98.0852L302.796 100.914ZM303.059 100.279C303.059 100.517 302.964 100.745 302.796 100.914L299.968 98.0852C299.386 98.6671 299.059 99.4564 299.059 100.279H303.059ZM303.059 110.206V100.279H299.059V110.206H303.059ZM287.824 112.206H301.059V108.206H287.824V112.206ZM285.824 100.279V110.206H289.824V100.279H285.824ZM286.086 100.914C285.918 100.745 285.824 100.517 285.824 100.279H289.824C289.824 99.4564 289.497 98.6671 288.915 98.0852L286.086 100.914ZM286.721 101.176C286.483 101.176 286.255 101.082 286.086 100.914L288.915 98.0852C288.333 97.5033 287.544 97.1764 286.721 97.1764V101.176ZM287.355 100.914C287.187 101.082 286.958 101.176 286.721 101.176V97.1764C285.898 97.1764 285.108 97.5033 284.526 98.0852L287.355 100.914ZM287.618 100.279C287.618 100.517 287.523 100.745 287.355 100.914L284.526 98.0852C283.945 98.6671 283.618 99.4564 283.618 100.279H287.618ZM287.618 110.206V100.279H283.618V110.206H287.618ZM272.382 112.206H285.618V108.206H272.382V112.206ZM270.382 100.279V110.206H274.382V100.279H270.382ZM270.645 100.914C270.477 100.745 270.382 100.517 270.382 100.279H274.382C274.382 99.4564 274.055 98.6671 273.474 98.0852L270.645 100.914ZM271.279 101.176C271.042 101.176 270.813 101.082 270.645 100.914L273.474 98.0852C272.892 97.5033 272.102 97.1764 271.279 97.1764V101.176ZM271.914 100.914C271.745 101.082 271.517 101.176 271.279 101.176V97.1764C270.456 97.1764 269.667 97.5033 269.085 98.0852L271.914 100.914ZM272.176 100.279C272.176 100.517 272.082 100.745 271.914 100.914L269.085 98.0852C268.503 98.6671 268.176 99.4564 268.176 100.279H272.176ZM272.176 110.206V100.279H268.176V110.206H272.176ZM256.941 112.206H270.176V108.206H256.941V112.206ZM254.941 100.279V110.206H258.941V100.279H254.941ZM255.204 100.914C255.036 100.745 254.941 100.517 254.941 100.279H258.941C258.941 99.4564 258.614 98.6671 258.032 98.0852L255.204 100.914ZM255.838 101.176C255.6 101.176 255.372 101.082 255.204 100.914L258.032 98.0852C257.45 97.5033 256.661 97.1764 255.838 97.1764V101.176ZM256.473 100.914C256.304 101.082 256.076 101.176 255.838 101.176V97.1764C255.015 97.1764 254.226 97.5033 253.644 98.0852L256.473 100.914ZM256.735 100.279C256.735 100.517 256.641 100.745 256.473 100.914L253.644 98.0852C253.062 98.6671 252.735 99.4564 252.735 100.279H256.735ZM256.735 110.206V100.279H252.735V110.206H256.735ZM251.426 112.206H254.735V108.206H251.426V112.206ZM252.061 111.943C251.893 112.111 251.664 112.206 251.426 112.206V108.206C250.604 108.206 249.814 108.533 249.232 109.115L252.061 111.943ZM252.324 111.309C252.324 111.547 252.229 111.775 252.061 111.943L249.232 109.115C248.65 109.697 248.324 110.486 248.324 111.309H252.324ZM252.061 110.674C252.229 110.843 252.324 111.071 252.324 111.309H248.324C248.324 112.132 248.65 112.921 249.232 113.503L252.061 110.674ZM251.426 110.412C251.664 110.412 251.893 110.506 252.061 110.674L249.232 113.503C249.814 114.085 250.604 114.412 251.426 114.412V110.412ZM254.735 110.412H251.426V114.412H254.735V110.412ZM256.735 123.441V112.412H252.735V123.441H256.735ZM251.426 125.441H254.735V121.441H251.426V125.441ZM303.059 123.441V112.412H299.059V123.441H303.059ZM287.824 125.441H301.059V121.441H287.824V125.441ZM285.824 112.412V123.441H289.824V112.412H285.824ZM301.059 110.412H287.824V114.412H301.059V110.412ZM287.618 123.441V112.412H283.618V123.441H287.618ZM272.382 125.441H285.618V121.441H272.382V125.441ZM270.382 112.412V123.441H274.382V112.412H270.382ZM285.618 110.412H272.382V114.412H285.618V110.412ZM270.176 110.412H256.941V114.412H270.176V110.412ZM272.176 123.441V112.412H268.176V123.441H272.176ZM256.941 125.441H270.176V121.441H256.941V125.441ZM254.941 112.412V123.441H258.941V112.412H254.941ZM313.743 77.3235H304.368V81.3235H313.743V77.3235ZM316.294 80.4264C316.294 79.7791 316.214 78.8913 315.632 78.1876C314.886 77.2841 313.872 77.3235 313.743 77.3235V81.3235C313.81 81.3235 313.605 81.3333 313.364 81.2646C313.065 81.1799 312.77 81.0028 312.548 80.735C312.353 80.4985 312.299 80.2914 312.289 80.2494C312.278 80.2062 312.294 80.2481 312.294 80.4264H316.294ZM316.294 90.3529V80.4264H312.294V90.3529H316.294ZM243.706 92.3529H314.294V88.3529H243.706V92.3529ZM241.706 80.4264V90.3529H245.706V80.4264H241.706ZM242.615 78.2323C242.033 78.8142 241.706 79.6034 241.706 80.4264H245.706C245.706 80.6643 245.611 80.8925 245.443 81.0607L242.615 78.2323ZM244.809 77.3235C243.986 77.3235 243.197 77.6504 242.615 78.2323L245.443 81.0607C245.275 81.2289 245.047 81.3235 244.809 81.3235L244.809 77.3235ZM253.632 77.3235H244.809V81.3235H253.632V77.3235ZM252.998 77.5862C253.166 77.418 253.394 77.3235 253.632 77.3235V81.3235C254.455 81.3235 255.245 80.9965 255.826 80.4146L252.998 77.5862ZM252.735 78.2205C252.735 77.9826 252.83 77.7544 252.998 77.5862L255.826 80.4146C256.408 79.8327 256.735 79.0435 256.735 78.2205H252.735ZM252.998 78.8548C252.83 78.6866 252.735 78.4584 252.735 78.2205H256.735C256.735 77.3976 256.408 76.6083 255.826 76.0264L252.998 78.8548ZM253.632 79.1176C253.394 79.1176 253.166 79.0231 252.998 78.8548L255.826 76.0264C255.245 75.4445 254.455 75.1176 253.632 75.1176V79.1176ZM244.809 79.1176H253.632V75.1176H244.809V79.1176ZM243.5 80.4264C243.5 79.7067 244.089 79.1176 244.809 79.1176V75.1176C241.88 75.1176 239.5 77.4976 239.5 80.4264H243.5ZM243.5 91.4558V80.4264H239.5V91.4558H243.5ZM243.237 90.8215C243.405 90.9897 243.5 91.2179 243.5 91.4558H239.5C239.5 92.2788 239.827 93.068 240.409 93.6499L243.237 90.8215ZM242.603 90.5588C242.841 90.5588 243.069 90.6533 243.237 90.8215L240.409 93.6499C240.991 94.2318 241.78 94.5588 242.603 94.5588V90.5588ZM315.397 90.5588H242.603V94.5588H315.397V90.5588ZM314.763 90.8215C314.931 90.6533 315.159 90.5588 315.397 90.5588V94.5588C316.22 94.5588 317.009 94.2318 317.591 93.6499L314.763 90.8215ZM314.5 91.4558C314.5 91.2179 314.595 90.9897 314.763 90.8215L317.591 93.6499C318.173 93.068 318.5 92.2788 318.5 91.4558H314.5ZM314.5 80.4264V91.4558H318.5V80.4264H314.5ZM313.743 79.1176C313.986 79.1176 314.13 79.1942 314.207 79.2721C314.269 79.3339 314.5 79.6032 314.5 80.4264H318.5C318.5 78.8099 318.018 77.4247 317.034 76.4421C316.067 75.4755 314.831 75.1176 313.743 75.1176V79.1176ZM304.368 79.1176H313.743V75.1176H304.368V79.1176ZM305.002 78.8548C304.834 79.0231 304.606 79.1176 304.368 79.1176V75.1176C303.545 75.1176 302.755 75.4445 302.174 76.0264L305.002 78.8548ZM305.265 78.2205C305.265 78.4584 305.17 78.6866 305.002 78.8548L302.174 76.0264C301.592 76.6083 301.265 77.3976 301.265 78.2205H305.265ZM305.002 77.5862C305.17 77.7544 305.265 77.9826 305.265 78.2205H301.265C301.265 79.0435 301.592 79.8327 302.174 80.4146L305.002 77.5862ZM304.368 77.3235C304.606 77.3235 304.834 77.418 305.002 77.5862L302.174 80.4146C302.755 80.9965 303.545 81.3235 304.368 81.3235V77.3235ZM314.5 98.0735V139.985H318.5V98.0735H314.5ZM314.763 98.7078C314.595 98.5395 314.5 98.3114 314.5 98.0735H318.5C318.5 97.2505 318.173 96.4613 317.591 95.8793L314.763 98.7078ZM315.397 98.9705C315.159 98.9705 314.931 98.876 314.763 98.7078L317.591 95.8794C317.009 95.2974 316.22 94.9705 315.397 94.9705V98.9705ZM316.031 98.7078C315.863 98.876 315.635 98.9705 315.397 98.9705V94.9705C314.574 94.9705 313.785 95.2974 313.203 95.8794L316.031 98.7078ZM316.294 98.0735C316.294 98.3114 316.2 98.5395 316.031 98.7078L313.203 95.8793C312.621 96.4613 312.294 97.2505 312.294 98.0735H316.294ZM316.294 139.985V98.0735H312.294V139.985H316.294ZM315.385 142.179C315.967 141.597 316.294 140.808 316.294 139.985H312.294C312.294 139.747 312.389 139.519 312.557 139.351L315.385 142.179ZM313.191 143.088C314.014 143.088 314.803 142.761 315.385 142.179L312.557 139.351C312.725 139.183 312.953 139.088 313.191 139.088V143.088ZM244.809 143.088H313.191V139.088H244.809V143.088ZM242.615 142.179C243.197 142.761 243.986 143.088 244.809 143.088V139.088C245.047 139.088 245.275 139.183 245.443 139.351L242.615 142.179ZM241.706 139.985C241.706 140.808 242.033 141.597 242.615 142.179L245.443 139.351C245.611 139.519 245.706 139.747 245.706 139.985H241.706ZM241.706 98.0735V139.985H245.706V98.0735H241.706ZM241.969 98.7078C241.8 98.5395 241.706 98.3114 241.706 98.0735H245.706C245.706 97.2505 245.379 96.4613 244.797 95.8793L241.969 98.7078ZM242.603 98.9705C242.365 98.9705 242.137 98.876 241.969 98.7078L244.797 95.8793C244.215 95.2974 243.426 94.9705 242.603 94.9705V98.9705ZM243.237 98.7078C243.069 98.876 242.841 98.9705 242.603 98.9705V94.9705C241.78 94.9705 240.991 95.2974 240.409 95.8793L243.237 98.7078ZM243.5 98.0735C243.5 98.3114 243.405 98.5395 243.237 98.7078L240.409 95.8793C239.827 96.4613 239.5 97.2505 239.5 98.0735H243.5ZM243.5 139.985V98.0735H239.5V139.985H243.5ZM244.809 141.294C244.089 141.294 243.5 140.705 243.5 139.985H239.5C239.5 142.914 241.88 145.294 244.809 145.294V141.294ZM313.191 141.294H244.809V145.294H313.191V141.294ZM314.5 139.985C314.5 140.705 313.911 141.294 313.191 141.294V145.294C316.12 145.294 318.5 142.914 318.5 139.985H314.5Z" fill="#4C4C4E" mask="url(#path-2-outside-1_2309_1539)"/>
<path d="M219.571 178.69C217.901 178.69 216.432 178.529 215.162 178.206C213.902 177.884 212.73 177.484 211.646 177.005V171.82H212.145C213.238 172.747 214.444 173.46 215.763 173.958C217.081 174.456 218.36 174.705 219.601 174.705C219.913 174.705 220.323 174.671 220.831 174.603C221.349 174.534 221.764 174.427 222.076 174.281C222.457 174.115 222.779 173.885 223.043 173.592C223.307 173.289 223.438 172.894 223.438 172.406C223.438 171.859 223.224 171.414 222.794 171.073C222.364 170.731 221.852 170.482 221.256 170.325C220.514 170.13 219.718 169.945 218.868 169.769C218.028 169.593 217.242 169.378 216.51 169.124C214.82 168.529 213.609 167.728 212.877 166.722C212.145 165.716 211.778 164.456 211.778 162.943C211.778 160.902 212.643 159.251 214.371 157.991C216.1 156.722 218.258 156.087 220.846 156.087C222.145 156.087 223.434 156.219 224.713 156.483C226.002 156.746 227.154 157.103 228.17 157.552V162.532H227.687C226.876 161.839 225.885 161.253 224.713 160.775C223.551 160.296 222.354 160.057 221.124 160.057C220.646 160.057 220.216 160.091 219.835 160.159C219.454 160.228 219.054 160.36 218.634 160.555C218.292 160.711 217.994 160.946 217.74 161.258C217.496 161.561 217.374 161.903 217.374 162.283C217.374 162.84 217.569 163.284 217.96 163.616C218.36 163.939 219.127 164.232 220.26 164.495C220.992 164.661 221.695 164.823 222.369 164.979C223.053 165.135 223.78 165.35 224.552 165.623C226.065 166.17 227.188 166.907 227.921 167.835C228.663 168.753 229.034 169.969 229.034 171.483C229.034 173.651 228.18 175.394 226.471 176.712C224.771 178.031 222.472 178.69 219.571 178.69ZM239.625 178.734C238.268 178.734 237.022 178.563 235.89 178.221C234.767 177.879 233.79 177.352 232.96 176.639C232.14 175.926 231.5 175.032 231.041 173.958C230.582 172.874 230.353 171.6 230.353 170.135C230.353 168.563 230.602 167.225 231.1 166.121C231.598 165.018 232.271 164.11 233.121 163.397C233.941 162.713 234.903 162.21 236.007 161.888C237.12 161.556 238.277 161.39 239.479 161.39C240.387 161.39 241.295 161.497 242.203 161.712C243.111 161.917 244.024 162.249 244.942 162.708V167.103H244.283C244.078 166.907 243.824 166.693 243.521 166.458C243.229 166.224 242.906 166.009 242.555 165.814C242.184 165.609 241.764 165.438 241.295 165.301C240.826 165.155 240.304 165.081 239.728 165.081C238.419 165.081 237.403 165.54 236.681 166.458C235.968 167.366 235.611 168.592 235.611 170.135C235.611 171.785 235.992 173.016 236.754 173.826C237.525 174.637 238.546 175.042 239.815 175.042C240.46 175.042 241.026 174.969 241.515 174.823C242.003 174.676 242.423 174.5 242.774 174.295C243.116 174.09 243.409 173.88 243.653 173.665C243.897 173.441 244.107 173.24 244.283 173.065H244.942V177.459C244.649 177.586 244.308 177.733 243.917 177.899C243.536 178.065 243.146 178.201 242.745 178.309C242.247 178.446 241.778 178.548 241.339 178.616C240.909 178.695 240.338 178.734 239.625 178.734ZM262.784 178.294H257.628V170.135C257.628 169.471 257.599 168.812 257.54 168.157C257.491 167.493 257.394 167.005 257.247 166.693C257.071 166.322 256.817 166.058 256.485 165.902C256.153 165.736 255.709 165.653 255.152 165.653C254.732 165.653 254.308 165.731 253.878 165.887C253.448 166.043 252.989 166.292 252.501 166.634V178.294H247.374V155.501H252.501V163.66C253.341 162.948 254.156 162.391 254.947 161.99C255.748 161.59 256.632 161.39 257.599 161.39C259.278 161.39 260.562 161.922 261.451 162.987C262.34 164.041 262.784 165.574 262.784 167.586V178.294ZM275.016 178.734C271.91 178.734 269.527 177.991 267.867 176.507C266.217 175.023 265.392 172.908 265.392 170.164C265.392 167.479 266.163 165.335 267.706 163.734C269.249 162.132 271.407 161.331 274.181 161.331C276.7 161.331 278.595 162.01 279.864 163.367C281.134 164.725 281.769 166.668 281.769 169.198V171.043H270.533C270.582 171.805 270.743 172.445 271.017 172.962C271.29 173.47 271.651 173.875 272.101 174.178C272.54 174.481 273.053 174.7 273.639 174.837C274.225 174.964 274.864 175.028 275.558 175.028C276.153 175.028 276.739 174.964 277.315 174.837C277.892 174.7 278.419 174.525 278.897 174.31C279.317 174.124 279.703 173.924 280.055 173.709C280.416 173.494 280.709 173.304 280.934 173.138H281.476V177.371C281.056 177.537 280.67 177.694 280.318 177.84C279.977 177.977 279.503 178.118 278.897 178.265C278.341 178.411 277.765 178.524 277.169 178.602C276.583 178.69 275.865 178.734 275.016 178.734ZM276.715 167.952C276.686 166.868 276.432 166.043 275.953 165.477C275.484 164.91 274.762 164.627 273.785 164.627C272.789 164.627 272.008 164.925 271.441 165.521C270.885 166.116 270.577 166.927 270.519 167.952H276.715ZM299.361 178.294H294.234V176.58C293.902 176.854 293.521 177.147 293.092 177.459C292.672 177.772 292.301 178.006 291.979 178.162C291.568 178.358 291.163 178.504 290.763 178.602C290.362 178.699 289.884 178.748 289.327 178.748C287.452 178.748 285.968 177.972 284.874 176.419C283.78 174.866 283.233 172.791 283.233 170.194C283.233 168.758 283.419 167.513 283.79 166.458C284.161 165.404 284.674 164.486 285.328 163.704C285.924 162.991 286.646 162.43 287.496 162.02C288.346 161.6 289.244 161.39 290.191 161.39C291.051 161.39 291.754 161.483 292.301 161.668C292.857 161.844 293.502 162.122 294.234 162.503V155.501H299.361V178.294ZM294.234 173.753V165.682C293.98 165.555 293.648 165.452 293.238 165.374C292.828 165.286 292.477 165.242 292.184 165.242C290.953 165.242 290.025 165.672 289.4 166.531C288.785 167.391 288.478 168.592 288.478 170.135C288.478 171.756 288.722 172.928 289.21 173.651C289.708 174.373 290.509 174.735 291.612 174.735C292.062 174.735 292.516 174.647 292.975 174.471C293.434 174.295 293.854 174.056 294.234 173.753ZM318.58 178.294H313.453V176.478C312.564 177.22 311.749 177.786 311.007 178.177C310.265 178.558 309.381 178.748 308.355 178.748C306.725 178.748 305.45 178.236 304.532 177.21C303.624 176.175 303.17 174.622 303.17 172.552V161.844H308.326V170.003C308.326 170.853 308.346 171.546 308.385 172.083C308.434 172.62 308.541 173.074 308.707 173.446C308.863 173.787 309.103 174.046 309.425 174.222C309.757 174.398 310.216 174.486 310.802 174.486C311.163 174.486 311.588 174.398 312.076 174.222C312.574 174.046 313.033 173.807 313.453 173.504V161.844H318.58V178.294ZM327.647 178.294H322.521V155.501H327.647V178.294ZM339.996 178.734C336.891 178.734 334.508 177.991 332.848 176.507C331.197 175.023 330.372 172.908 330.372 170.164C330.372 167.479 331.144 165.335 332.687 163.734C334.229 162.132 336.388 161.331 339.161 161.331C341.681 161.331 343.575 162.01 344.845 163.367C346.114 164.725 346.749 166.668 346.749 169.198V171.043H335.514C335.562 171.805 335.724 172.445 335.997 172.962C336.271 173.47 336.632 173.875 337.081 174.178C337.521 174.481 338.033 174.7 338.619 174.837C339.205 174.964 339.845 175.028 340.538 175.028C341.134 175.028 341.72 174.964 342.296 174.837C342.872 174.7 343.399 174.525 343.878 174.31C344.298 174.124 344.684 173.924 345.035 173.709C345.396 173.494 345.689 173.304 345.914 173.138H346.456V177.371C346.036 177.537 345.65 177.694 345.299 177.84C344.957 177.977 344.483 178.118 343.878 178.265C343.321 178.411 342.745 178.524 342.149 178.602C341.563 178.69 340.846 178.734 339.996 178.734ZM341.695 167.952C341.666 166.868 341.412 166.043 340.934 165.477C340.465 164.91 339.742 164.627 338.766 164.627C337.77 164.627 336.988 164.925 336.422 165.521C335.865 166.116 335.558 166.927 335.499 167.952H341.695Z" fill="#4C4C4E"/>
</g>
<g filter="url(#filter1_b_2309_1539)">
<rect x="474.5" y="40" width="230" height="177" rx="30" fill="white" fill-opacity="0.5"/>
<path d="M547.505 61.5C545.574 61.5 544 62.9232 544 64.6697V115.384C544 117.131 545.574 118.554 547.505 118.554H603.577C605.508 118.554 607.081 117.131 607.081 115.384V64.6697C607.081 62.9232 605.508 61.5 603.577 61.5H547.505ZM551.009 67.8393H600.072V105.875H551.009V67.8393ZM610.586 70.7111V77.1487L616.939 78.1408L610.586 111.422V115.384C610.586 118.884 607.442 121.724 603.577 121.724H566.45L610.915 128.659C611.83 128.803 612.771 128.612 613.53 128.129C614.29 127.646 614.806 126.909 614.966 126.082L624.386 76.0615C624.466 75.6514 624.455 75.2312 624.355 74.8249C624.255 74.4186 624.067 74.0341 623.803 73.6934C623.538 73.3528 623.202 73.0627 622.813 72.8398C622.424 72.6168 621.991 72.4654 621.537 72.3942L610.586 70.7142V70.7111ZM575.541 73.979C571.507 73.979 568.094 76.4894 568.094 81.2122C568.094 84.2995 569.614 87.3994 571.707 89.3329C572.527 91.2664 571.132 92.0018 570.831 92.1064C566.604 93.4884 561.631 96.0526 561.631 98.544V102.608H589.45V98.5472C589.45 95.9797 584.467 93.4313 580.03 92.1064C579.827 92.0462 578.568 91.5358 579.375 89.3329C581.46 87.3994 583.096 84.2836 583.096 81.2122C583.096 76.4894 579.574 73.979 575.541 73.979ZM626.027 86.5626L624.825 92.8005L627.341 93.295L617.703 130.342L616.281 130.044C615.499 130.741 614.544 131.257 613.495 131.55C612.447 131.843 611.336 131.904 610.256 131.727L561.743 124.199L560.752 127.968C560.545 128.795 560.704 129.661 561.196 130.383C561.687 131.104 562.471 131.623 563.38 131.829L617.921 143.42C618.834 143.607 619.793 143.463 620.591 143.019C621.388 142.574 621.962 141.865 622.189 141.043L634.9 91.707C635.345 90.0081 634.269 88.2489 632.384 87.8432L626.03 86.5563L626.027 86.5626Z" fill="#4C4C4E"/>
<path d="M556.717 188.255C555.76 188.646 554.515 189.026 552.981 189.397C551.458 189.769 549.954 189.954 548.47 189.954C545.042 189.954 542.308 188.968 540.267 186.995C538.235 185.013 537.22 182.205 537.22 178.572C537.22 175.154 538.235 172.415 540.267 170.354C542.308 168.294 545.096 167.264 548.631 167.264C550.457 167.264 551.941 167.439 553.084 167.791C554.227 168.133 555.408 168.602 556.629 169.197V174.31H556.131C555.867 174.104 555.486 173.816 554.988 173.445C554.5 173.064 554.021 172.742 553.553 172.479C553.006 172.166 552.371 171.897 551.648 171.673C550.936 171.448 550.179 171.336 549.378 171.336C548.44 171.336 547.586 171.482 546.814 171.775C546.043 172.068 545.354 172.518 544.749 173.123C544.173 173.709 543.714 174.451 543.372 175.35C543.04 176.248 542.874 177.293 542.874 178.484C542.874 181.033 543.514 182.913 544.793 184.124C546.072 185.335 547.82 185.94 550.037 185.94C550.232 185.94 550.462 185.936 550.726 185.926C550.989 185.916 551.219 185.901 551.414 185.882V181.604H547.181V177.518H556.717V188.255ZM569.622 185.208V181.78C568.753 181.868 568.05 181.946 567.513 182.015C566.976 182.073 566.448 182.195 565.931 182.381C565.481 182.537 565.13 182.776 564.876 183.099C564.632 183.411 564.51 183.831 564.51 184.358C564.51 185.13 564.715 185.662 565.125 185.955C565.545 186.238 566.16 186.38 566.971 186.38C567.42 186.38 567.879 186.277 568.348 186.072C568.816 185.867 569.241 185.579 569.622 185.208ZM569.622 187.757C569.271 188.05 568.953 188.313 568.67 188.548C568.396 188.782 568.025 189.017 567.557 189.251C567.098 189.476 566.648 189.646 566.209 189.764C565.779 189.881 565.174 189.939 564.393 189.939C562.938 189.939 561.727 189.451 560.76 188.475C559.803 187.498 559.324 186.268 559.324 184.783C559.324 183.562 559.568 182.576 560.057 181.824C560.545 181.072 561.248 180.477 562.166 180.037C563.094 179.588 564.202 179.275 565.491 179.1C566.78 178.924 568.167 178.787 569.651 178.689V178.602C569.651 177.693 569.314 177.068 568.641 176.727C567.977 176.375 566.976 176.199 565.638 176.199C565.032 176.199 564.324 176.312 563.514 176.536C562.703 176.751 561.912 177.029 561.141 177.371H560.701V173.401C561.209 173.255 562.029 173.084 563.162 172.889C564.295 172.684 565.438 172.581 566.59 172.581C569.422 172.581 571.482 173.055 572.771 174.002C574.07 174.939 574.72 176.375 574.72 178.309V189.5H569.622V187.757ZM583.641 189.5H578.514V166.707H583.641V189.5ZM592.693 189.5H587.566V166.707H592.693V189.5ZM605.042 189.939C601.937 189.939 599.554 189.197 597.894 187.713C596.243 186.229 595.418 184.114 595.418 181.37C595.418 178.685 596.189 176.541 597.732 174.939C599.275 173.338 601.434 172.537 604.207 172.537C606.727 172.537 608.621 173.216 609.891 174.573C611.16 175.931 611.795 177.874 611.795 180.403V182.249H600.56C600.608 183.011 600.77 183.65 601.043 184.168C601.316 184.676 601.678 185.081 602.127 185.384C602.566 185.687 603.079 185.906 603.665 186.043C604.251 186.17 604.891 186.233 605.584 186.233C606.18 186.233 606.766 186.17 607.342 186.043C607.918 185.906 608.445 185.73 608.924 185.516C609.344 185.33 609.729 185.13 610.081 184.915C610.442 184.7 610.735 184.51 610.96 184.344H611.502V188.577C611.082 188.743 610.696 188.899 610.345 189.046C610.003 189.183 609.529 189.324 608.924 189.471C608.367 189.617 607.791 189.729 607.195 189.808C606.609 189.896 605.892 189.939 605.042 189.939ZM606.741 179.158C606.712 178.074 606.458 177.249 605.979 176.683C605.511 176.116 604.788 175.833 603.812 175.833C602.815 175.833 602.034 176.131 601.468 176.727C600.911 177.322 600.604 178.133 600.545 179.158H606.741ZM625.477 177.898H625.052C624.856 177.83 624.573 177.781 624.202 177.752C623.831 177.713 623.421 177.693 622.972 177.693C622.435 177.693 621.868 177.771 621.272 177.928C620.687 178.084 620.115 178.27 619.559 178.484V189.5H614.432V173.05H619.559V175.408C619.793 175.193 620.115 174.925 620.525 174.603C620.945 174.271 621.326 174.007 621.668 173.812C622.039 173.587 622.469 173.396 622.957 173.24C623.455 173.074 623.924 172.991 624.363 172.991C624.529 172.991 624.715 172.996 624.92 173.006C625.125 173.016 625.311 173.03 625.477 173.05V177.898ZM642.791 173.05L634.485 195.535H628.978L631.468 189.104L625.433 173.05H630.823L634.28 183.362L637.518 173.05H642.791Z" fill="#4C4C4E"/>
</g>
<rect x="804.5" y="20" width="303" height="217" rx="30" fill="white"/>
<path d="M894 42.0596H904.585L909.122 61.373M909.122 61.373L924.244 125.751H1002.88L1018 61.373H909.122Z" stroke="#717250" stroke-width="10" stroke-linecap="round" stroke-linejoin="round"/>
<path d="M924.243 160.441C930.779 160.441 935.816 154.849 935.816 148.284C935.816 141.719 930.779 136.127 924.243 136.127C917.707 136.127 912.67 141.719 912.67 148.284C912.67 154.849 917.707 160.441 924.243 160.441Z" fill="#FEC341" stroke="#717250" stroke-width="5" stroke-linecap="round" stroke-linejoin="round"/>
<path d="M1002.88 160.441C1009.42 160.441 1014.45 154.849 1014.45 148.284C1014.45 141.719 1009.42 136.127 1002.88 136.127C996.345 136.127 991.308 141.719 991.308 148.284C991.308 154.849 996.345 160.441 1002.88 160.441Z" fill="#FEC341" stroke="#717250" stroke-width="5" stroke-linecap="round" stroke-linejoin="round"/>
<path d="M951.461 91.0624C950.081 91.0624 948.961 92.1817 948.961 93.5624C948.961 94.9431 950.081 96.0624 951.461 96.0624H961.059V106.438C961.059 107.819 962.178 108.938 963.559 108.938C964.94 108.938 966.059 107.819 966.059 106.438V96.0624H975.657C977.037 96.0624 978.157 94.9431 978.157 93.5624C978.157 92.1817 977.037 91.0624 975.657 91.0624H966.059V80.6868C966.059 79.3061 964.94 78.1868 963.559 78.1868C962.178 78.1868 961.059 79.3061 961.059 80.6868V91.0624H951.461Z" stroke="#FEC341" stroke-width="5" stroke-linecap="round" stroke-linejoin="round"/>
<path d="M875.492 209.534C872.987 209.534 870.783 209.292 868.878 208.809C866.989 208.325 865.231 207.725 863.605 207.007V199.229H864.352C865.993 200.62 867.802 201.689 869.779 202.437C871.757 203.184 873.676 203.557 875.536 203.557C876.005 203.557 876.62 203.506 877.382 203.403C878.158 203.301 878.781 203.14 879.25 202.92C879.821 202.671 880.304 202.327 880.7 201.887C881.095 201.433 881.293 200.84 881.293 200.107C881.293 199.287 880.971 198.621 880.326 198.108C879.682 197.595 878.913 197.222 878.019 196.987C876.906 196.694 875.712 196.416 874.438 196.152C873.178 195.889 871.999 195.566 870.9 195.186C868.366 194.292 866.549 193.091 865.451 191.582C864.352 190.073 863.803 188.184 863.803 185.913C863.803 182.852 865.099 180.376 867.692 178.486C870.285 176.582 873.522 175.63 877.404 175.63C879.352 175.63 881.286 175.828 883.205 176.223C885.138 176.619 886.867 177.153 888.39 177.827V185.298H887.665C886.449 184.258 884.962 183.379 883.205 182.661C881.461 181.943 879.667 181.584 877.821 181.584C877.104 181.584 876.459 181.636 875.888 181.738C875.316 181.841 874.716 182.039 874.086 182.332C873.573 182.566 873.126 182.917 872.746 183.386C872.379 183.84 872.196 184.353 872.196 184.924C872.196 185.759 872.489 186.426 873.075 186.924C873.676 187.407 874.826 187.847 876.525 188.242C877.624 188.491 878.678 188.733 879.689 188.967C880.714 189.202 881.806 189.524 882.963 189.934C885.233 190.754 886.918 191.86 888.017 193.252C889.13 194.629 889.687 196.453 889.687 198.723C889.687 201.975 888.405 204.59 885.841 206.567C883.292 208.545 879.843 209.534 875.492 209.534ZM906.1 209.6C901.442 209.6 897.868 208.486 895.377 206.26C892.902 204.033 891.664 200.862 891.664 196.746C891.664 192.717 892.821 189.502 895.136 187.1C897.45 184.697 900.688 183.496 904.848 183.496C908.627 183.496 911.469 184.514 913.373 186.55C915.277 188.586 916.229 191.501 916.229 195.295V198.064H899.376C899.45 199.207 899.691 200.166 900.102 200.942C900.512 201.704 901.054 202.312 901.728 202.766C902.387 203.22 903.156 203.55 904.035 203.755C904.914 203.945 905.873 204.041 906.913 204.041C907.807 204.041 908.686 203.945 909.55 203.755C910.414 203.55 911.205 203.286 911.923 202.964C912.553 202.686 913.131 202.385 913.659 202.063C914.201 201.741 914.64 201.455 914.977 201.206H915.79V207.556C915.16 207.805 914.582 208.04 914.054 208.259C913.542 208.464 912.831 208.677 911.923 208.896C911.088 209.116 910.224 209.285 909.33 209.402C908.451 209.534 907.375 209.6 906.1 209.6ZM908.649 193.428C908.605 191.802 908.224 190.564 907.506 189.714C906.803 188.865 905.719 188.44 904.254 188.44C902.76 188.44 901.588 188.887 900.739 189.78C899.904 190.674 899.442 191.89 899.354 193.428H908.649ZM936.752 191.538H936.115C935.822 191.436 935.397 191.362 934.84 191.318C934.284 191.26 933.668 191.23 932.995 191.23C932.189 191.23 931.339 191.348 930.446 191.582C929.567 191.816 928.71 192.095 927.875 192.417V208.94H920.185V184.265H927.875V187.803C928.227 187.48 928.71 187.078 929.325 186.594C929.955 186.096 930.526 185.701 931.039 185.408C931.596 185.071 932.24 184.785 932.973 184.551C933.72 184.302 934.423 184.177 935.082 184.177C935.331 184.177 935.609 184.185 935.917 184.199C936.225 184.214 936.503 184.236 936.752 184.265V191.538ZM962.79 184.265L953.935 208.94H945.541L936.752 184.265H944.838L949.892 200.591L954.879 184.265H962.79ZM973.446 208.94H965.756V184.265H973.446V208.94ZM973.666 180.75H965.536V174.751H973.666V180.75ZM991.442 209.6C989.406 209.6 987.538 209.343 985.839 208.831C984.154 208.318 982.689 207.527 981.444 206.458C980.214 205.388 979.254 204.048 978.566 202.437C977.877 200.811 977.533 198.899 977.533 196.702C977.533 194.343 977.907 192.336 978.654 190.681C979.401 189.026 980.412 187.664 981.686 186.594C982.917 185.569 984.359 184.814 986.015 184.331C987.685 183.833 989.42 183.584 991.222 183.584C992.584 183.584 993.947 183.745 995.309 184.067C996.671 184.375 998.041 184.873 999.418 185.562V192.153H998.429C998.122 191.86 997.741 191.538 997.287 191.187C996.847 190.835 996.364 190.513 995.836 190.22C995.28 189.912 994.65 189.656 993.947 189.451C993.244 189.231 992.46 189.121 991.596 189.121C989.633 189.121 988.109 189.81 987.025 191.187C985.956 192.549 985.421 194.387 985.421 196.702C985.421 199.177 985.993 201.023 987.135 202.239C988.292 203.455 989.823 204.062 991.728 204.062C992.694 204.062 993.544 203.953 994.276 203.733C995.009 203.513 995.639 203.25 996.166 202.942C996.679 202.634 997.118 202.319 997.484 201.997C997.851 201.66 998.166 201.36 998.429 201.096H999.418V207.688C998.979 207.878 998.466 208.098 997.88 208.347C997.309 208.596 996.723 208.801 996.122 208.962C995.375 209.167 994.672 209.321 994.013 209.424C993.368 209.541 992.511 209.6 991.442 209.6ZM1015.7 209.6C1011.04 209.6 1007.47 208.486 1004.98 206.26C1002.5 204.033 1001.26 200.862 1001.26 196.746C1001.26 192.717 1002.42 189.502 1004.74 187.1C1007.05 184.697 1010.29 183.496 1014.45 183.496C1018.23 183.496 1021.07 184.514 1022.97 186.55C1024.88 188.586 1025.83 191.501 1025.83 195.295V198.064H1008.98C1009.05 199.207 1009.29 200.166 1009.7 200.942C1010.11 201.704 1010.65 202.312 1011.33 202.766C1011.99 203.22 1012.76 203.55 1013.63 203.755C1014.51 203.945 1015.47 204.041 1016.51 204.041C1017.41 204.041 1018.29 203.945 1019.15 203.755C1020.01 203.55 1020.8 203.286 1021.52 202.964C1022.15 202.686 1022.73 202.385 1023.26 202.063C1023.8 201.741 1024.24 201.455 1024.58 201.206H1025.39V207.556C1024.76 207.805 1024.18 208.04 1023.65 208.259C1023.14 208.464 1022.43 208.677 1021.52 208.896C1020.69 209.116 1019.82 209.285 1018.93 209.402C1018.05 209.534 1016.97 209.6 1015.7 209.6ZM1018.25 193.428C1018.2 191.802 1017.82 190.564 1017.11 189.714C1016.4 188.865 1015.32 188.44 1013.85 188.44C1012.36 188.44 1011.19 188.887 1010.34 189.78C1009.5 190.674 1009.04 191.89 1008.95 193.428H1018.25ZM1037.3 209.622C1035.48 209.622 1033.76 209.424 1032.14 209.028C1030.52 208.633 1029.19 208.171 1028.14 207.644V201.14H1028.77C1029.14 201.418 1029.56 201.726 1030.03 202.063C1030.49 202.4 1031.15 202.751 1031.98 203.118C1032.7 203.455 1033.5 203.748 1034.4 203.997C1035.31 204.231 1036.29 204.348 1037.34 204.348C1038.43 204.348 1039.38 204.18 1040.2 203.843C1041.03 203.506 1041.45 202.971 1041.45 202.239C1041.45 201.667 1041.26 201.235 1040.88 200.942C1040.5 200.649 1039.76 200.371 1038.66 200.107C1038.08 199.961 1037.34 199.807 1036.44 199.646C1035.55 199.47 1034.76 199.272 1034.07 199.053C1032.14 198.452 1030.68 197.566 1029.7 196.394C1028.73 195.208 1028.25 193.655 1028.25 191.736C1028.25 190.637 1028.5 189.604 1028.99 188.638C1029.51 187.656 1030.25 186.785 1031.23 186.023C1032.22 185.276 1033.42 184.683 1034.86 184.243C1036.31 183.804 1037.94 183.584 1039.76 183.584C1041.49 183.584 1043.08 183.76 1044.53 184.111C1045.98 184.448 1047.2 184.858 1048.2 185.342V191.582H1047.58C1047.32 191.377 1046.9 191.106 1046.33 190.769C1045.76 190.417 1045.2 190.117 1044.66 189.868C1044.02 189.575 1043.29 189.333 1042.48 189.143C1041.69 188.953 1040.88 188.857 1040.05 188.857C1038.93 188.857 1037.99 189.048 1037.21 189.429C1036.45 189.81 1036.07 190.315 1036.07 190.945C1036.07 191.501 1036.26 191.941 1036.64 192.263C1037.02 192.585 1037.85 192.9 1039.12 193.208C1039.78 193.369 1040.54 193.53 1041.39 193.691C1042.25 193.838 1043.08 194.043 1043.87 194.307C1045.64 194.878 1046.98 195.72 1047.89 196.833C1048.81 197.932 1049.27 199.397 1049.27 201.228C1049.27 202.385 1049 203.491 1048.46 204.546C1047.92 205.586 1047.15 206.465 1046.15 207.183C1045.1 207.959 1043.85 208.56 1042.42 208.984C1041 209.409 1039.29 209.622 1037.3 209.622Z" fill="black"/>
<g filter="url(#filter2_b_2309_1539)">
<rect x="1207.5" y="40" width="238" height="177" rx="30" fill="white" fill-opacity="0.5"/>
<path d="M1326.5 65.3147C1325.22 65.3147 1323.98 65.7781 1323.07 66.603C1322.16 67.4279 1321.65 68.5466 1321.65 69.7132C1321.65 77.1553 1311.73 80.8852 1305.93 75.6202C1305.48 75.2002 1304.95 74.8651 1304.36 74.6346C1303.77 74.404 1303.13 74.2827 1302.49 74.2776C1301.84 74.2726 1301.2 74.3838 1300.61 74.605C1300.01 74.8262 1299.47 75.1528 1299.02 75.5657C1298.56 75.9787 1298.2 76.4698 1297.96 77.0104C1297.71 77.5509 1297.59 78.1301 1297.6 78.7141C1297.6 79.2981 1297.73 79.8753 1297.99 80.4119C1298.24 80.9486 1298.61 81.4339 1299.08 81.8396C1304.88 87.1046 1300.77 96.1038 1292.56 96.1038C1291.28 96.1038 1290.05 96.5672 1289.14 97.392C1288.23 98.2169 1287.72 99.3357 1287.72 100.502C1287.72 101.669 1288.23 102.787 1289.14 103.612C1290.05 104.437 1291.28 104.901 1292.56 104.901C1300.77 104.901 1304.88 113.9 1299.08 119.165C1298.19 119.994 1297.7 121.105 1297.71 122.259C1297.73 123.412 1298.24 124.515 1299.13 125.331C1300.03 126.146 1301.25 126.609 1302.52 126.619C1303.79 126.629 1305.02 126.185 1305.93 125.384C1311.73 120.119 1321.65 123.845 1321.65 131.291C1321.65 132.458 1322.16 133.577 1323.07 134.401C1323.98 135.226 1325.22 135.69 1326.5 135.69C1327.79 135.69 1329.02 135.226 1329.93 134.401C1330.84 133.577 1331.35 132.458 1331.35 131.291C1331.35 123.849 1341.27 120.119 1347.07 125.384C1347.52 125.804 1348.05 126.139 1348.65 126.37C1349.24 126.6 1349.87 126.722 1350.52 126.727C1351.16 126.732 1351.8 126.621 1352.39 126.399C1352.99 126.178 1353.53 125.852 1353.99 125.439C1354.44 125.026 1354.8 124.535 1355.05 123.994C1355.29 123.453 1355.41 122.874 1355.41 122.29C1355.4 121.706 1355.27 121.129 1355.01 120.592C1354.76 120.056 1354.39 119.571 1353.93 119.165C1348.12 113.9 1352.23 104.901 1360.44 104.901C1361.72 104.901 1362.96 104.437 1363.87 103.612C1364.78 102.787 1365.29 101.669 1365.29 100.502C1365.29 99.3357 1364.78 98.2169 1363.87 97.392C1362.96 96.5672 1361.72 96.1038 1360.44 96.1038C1352.24 96.1038 1348.12 87.1046 1353.93 81.8396C1354.81 81.0101 1355.3 79.899 1355.29 78.7458C1355.28 77.5925 1354.77 76.4893 1353.87 75.6738C1352.97 74.8583 1351.75 74.3957 1350.48 74.3857C1349.21 74.3757 1347.99 74.819 1347.07 75.6202C1341.27 80.8852 1331.35 77.1597 1331.35 69.7132C1331.35 68.5466 1330.84 67.4279 1329.93 66.603C1329.02 65.7781 1327.79 65.3147 1326.5 65.3147ZM1312 68.7323C1312.26 65.4083 1313.91 62.2994 1316.6 60.0303C1319.29 57.7612 1322.83 56.5 1326.5 56.5C1330.17 56.5 1333.71 57.7612 1336.4 60.0303C1339.09 62.2994 1340.74 65.4083 1341.01 68.7323C1343.79 66.5647 1347.37 65.4304 1351.04 65.5567C1354.7 65.6829 1358.18 67.0603 1360.77 69.4131C1363.36 71.7659 1364.88 74.9203 1365.02 78.2449C1365.16 81.5695 1363.9 84.8187 1361.51 87.3421C1365.18 87.5848 1368.61 89.0763 1371.11 91.5172C1373.61 93.958 1375 97.1672 1375 100.5C1375 103.833 1373.61 107.043 1371.11 109.484C1368.61 111.926 1365.18 113.419 1361.52 113.662C1363.91 116.186 1365.16 119.436 1365.02 122.76C1364.88 126.085 1363.36 129.239 1360.77 131.591C1358.18 133.943 1354.7 135.32 1351.03 135.445C1347.37 135.571 1343.79 134.436 1341.01 132.268C1340.74 135.592 1339.09 138.701 1336.4 140.97C1333.71 143.239 1330.17 144.5 1326.5 144.5C1322.83 144.5 1319.29 143.239 1316.6 140.97C1313.91 138.701 1312.26 135.592 1312 132.268C1309.21 134.436 1305.63 135.571 1301.97 135.445C1298.3 135.32 1294.83 133.943 1292.23 131.591C1289.64 129.239 1288.12 126.085 1287.98 122.76C1287.84 119.436 1289.09 116.186 1291.48 113.662C1287.82 113.419 1284.39 111.927 1281.89 109.486C1279.39 107.045 1278 103.835 1278 100.502C1278 97.1693 1279.39 93.9598 1281.89 91.5186C1284.39 89.0774 1287.82 87.5853 1291.48 87.3421C1289.09 84.8192 1287.83 81.5674 1287.97 78.2392C1288.1 74.9109 1289.62 71.7524 1292.22 69.3974C1294.81 67.0424 1298.29 65.665 1301.96 65.5416C1305.63 65.4183 1309.21 66.5581 1312 68.7323Z" fill="#4C4C4E"/>
<path d="M1326.52 91.7064C1323.95 91.7064 1321.48 92.6332 1319.66 94.283C1317.84 95.9327 1316.82 98.1702 1316.82 100.503C1316.82 102.836 1317.84 105.074 1319.66 106.724C1321.48 108.373 1323.95 109.3 1326.52 109.3C1329.09 109.3 1331.56 108.373 1333.37 106.724C1335.19 105.074 1336.21 102.836 1336.21 100.503C1336.21 98.1702 1335.19 95.9327 1333.37 94.283C1331.56 92.6332 1329.09 91.7064 1326.52 91.7064ZM1312.81 88.0645C1314.6 86.3841 1316.74 85.0438 1319.1 84.1217C1321.47 83.1997 1324.01 82.7143 1326.59 82.694C1329.16 82.6737 1331.72 83.1189 1334.1 84.0035C1336.48 84.8881 1338.65 86.1945 1340.47 87.8464C1342.29 89.4984 1343.73 91.4627 1344.7 93.625C1345.68 95.7872 1346.17 98.1039 1346.15 100.44C1346.13 102.776 1345.59 105.085 1344.57 107.231C1343.56 109.378 1342.08 111.319 1340.23 112.942C1336.57 116.147 1331.67 117.92 1326.59 117.88C1321.5 117.84 1316.64 115.99 1313.04 112.728C1309.45 109.466 1307.41 105.053 1307.36 100.44C1307.32 95.827 1309.27 91.3827 1312.81 88.0645Z" fill="#4C4C4E"/>
<path d="M1296.22 179.573C1296.22 180.589 1296.06 181.556 1295.74 182.474C1295.42 183.392 1294.95 184.158 1294.35 184.773C1293.98 185.154 1293.57 185.506 1293.12 185.828C1292.68 186.15 1292.19 186.424 1291.65 186.648C1291.11 186.873 1290.53 187.049 1289.89 187.176C1289.27 187.303 1288.57 187.366 1287.78 187.366H1284.91V194.5H1279.43V172.688H1287.9C1289.16 172.688 1290.25 172.806 1291.15 173.04C1292.07 173.265 1292.9 173.626 1293.64 174.124C1294.46 174.671 1295.1 175.403 1295.55 176.321C1296 177.229 1296.22 178.313 1296.22 179.573ZM1290.6 179.705C1290.6 179.09 1290.45 178.562 1290.16 178.123C1289.86 177.674 1289.51 177.366 1289.1 177.2C1288.58 176.976 1288.09 176.849 1287.61 176.819C1287.14 176.78 1286.5 176.761 1285.69 176.761H1284.91V183.294H1285.29C1285.81 183.294 1286.3 183.289 1286.76 183.279C1287.22 183.27 1287.62 183.235 1287.96 183.177C1288.25 183.128 1288.56 183.035 1288.88 182.898C1289.21 182.752 1289.47 182.591 1289.64 182.415C1290.02 182.054 1290.26 181.678 1290.39 181.287C1290.53 180.896 1290.6 180.369 1290.6 179.705ZM1309.9 182.898H1309.48C1309.28 182.83 1309 182.781 1308.63 182.752C1308.26 182.713 1307.85 182.693 1307.4 182.693C1306.86 182.693 1306.29 182.771 1305.7 182.928C1305.11 183.084 1304.54 183.27 1303.99 183.484V194.5H1298.86V178.05H1303.99V180.408C1304.22 180.193 1304.54 179.925 1304.95 179.603C1305.37 179.271 1305.75 179.007 1306.09 178.812C1306.47 178.587 1306.9 178.396 1307.38 178.24C1307.88 178.074 1308.35 177.991 1308.79 177.991C1308.96 177.991 1309.14 177.996 1309.35 178.006C1309.55 178.016 1309.74 178.03 1309.9 178.05V182.898ZM1327.66 186.282C1327.66 188.987 1326.92 191.121 1325.43 192.684C1323.96 194.236 1321.87 195.013 1319.16 195.013C1316.48 195.013 1314.39 194.236 1312.89 192.684C1311.41 191.121 1310.67 188.987 1310.67 186.282C1310.67 183.548 1311.41 181.409 1312.89 179.866C1314.39 178.313 1316.48 177.537 1319.16 177.537C1321.86 177.537 1323.95 178.318 1325.43 179.881C1326.92 181.434 1327.66 183.567 1327.66 186.282ZM1322.4 186.312C1322.4 185.335 1322.32 184.524 1322.15 183.88C1321.99 183.226 1321.77 182.703 1321.49 182.312C1321.19 181.902 1320.85 181.619 1320.46 181.463C1320.08 181.297 1319.65 181.214 1319.16 181.214C1318.7 181.214 1318.29 181.287 1317.92 181.434C1317.54 181.57 1317.2 181.839 1316.89 182.239C1316.6 182.62 1316.36 183.143 1316.19 183.807C1316.01 184.471 1315.92 185.306 1315.92 186.312C1315.92 187.317 1316.01 188.133 1316.17 188.758C1316.34 189.373 1316.55 189.866 1316.82 190.237C1317.09 190.618 1317.43 190.896 1317.84 191.072C1318.25 191.248 1318.71 191.336 1319.21 191.336C1319.62 191.336 1320.03 191.248 1320.45 191.072C1320.88 190.896 1321.22 190.633 1321.48 190.281C1321.78 189.861 1322.01 189.358 1322.16 188.772C1322.32 188.177 1322.4 187.356 1322.4 186.312ZM1340.9 175.574H1340.5C1340.31 175.516 1340 175.442 1339.58 175.354C1339.17 175.257 1338.78 175.208 1338.41 175.208C1337.37 175.208 1336.67 175.398 1336.29 175.779C1335.91 176.16 1335.73 176.873 1335.73 177.918V178.05H1339.8V181.624H1335.9V194.5H1330.78V181.624H1328.73V178.05H1330.78V177.596C1330.78 175.584 1331.3 174.075 1332.36 173.069C1333.41 172.063 1335.01 171.561 1337.15 171.561C1337.89 171.561 1338.58 171.59 1339.23 171.648C1339.87 171.697 1340.43 171.766 1340.9 171.854V175.574ZM1346.99 194.5H1341.87V178.05H1346.99V194.5ZM1347.14 175.706H1341.72V171.707H1347.14V175.706ZM1356.05 194.5H1350.92V171.707H1356.05V194.5ZM1368.39 194.939C1365.29 194.939 1362.91 194.197 1361.25 192.713C1359.6 191.229 1358.77 189.114 1358.77 186.37C1358.77 183.685 1359.54 181.541 1361.08 179.939C1362.63 178.338 1364.79 177.537 1367.56 177.537C1370.08 177.537 1371.97 178.216 1373.24 179.573C1374.51 180.931 1375.15 182.874 1375.15 185.403V187.249H1363.91C1363.96 188.011 1364.12 188.65 1364.4 189.168C1364.67 189.676 1365.03 190.081 1365.48 190.384C1365.92 190.687 1366.43 190.906 1367.02 191.043C1367.6 191.17 1368.24 191.233 1368.94 191.233C1369.53 191.233 1370.12 191.17 1370.69 191.043C1371.27 190.906 1371.8 190.73 1372.28 190.516C1372.7 190.33 1373.08 190.13 1373.43 189.915C1373.79 189.7 1374.09 189.51 1374.31 189.344H1374.85V193.577C1374.43 193.743 1374.05 193.899 1373.7 194.046C1373.36 194.183 1372.88 194.324 1372.28 194.471C1371.72 194.617 1371.14 194.729 1370.55 194.808C1369.96 194.896 1369.24 194.939 1368.39 194.939ZM1370.09 184.158C1370.06 183.074 1369.81 182.249 1369.33 181.683C1368.86 181.116 1368.14 180.833 1367.16 180.833C1366.17 180.833 1365.39 181.131 1364.82 181.727C1364.26 182.322 1363.96 183.133 1363.9 184.158H1370.09Z" fill="#4C4C4E"/>
</g>
<g filter="url(#filter3_b_2309_1539)">
<rect x="1545.5" y="61" width="191" height="135" rx="30" fill="white" fill-opacity="0.5"/>
<path fill-rule="evenodd" clip-rule="evenodd" d="M1672.5 85.9651C1672.5 91.1925 1668.09 95.4301 1662.64 95.4301C1657.2 95.4301 1652.78 91.1925 1652.78 85.9651C1652.78 80.7376 1657.2 76.5 1662.64 76.5C1668.09 76.5 1672.5 80.7376 1672.5 85.9651ZM1667.59 127.29C1665.69 125.662 1664.03 123.797 1662.64 121.743C1661.13 118.909 1660.23 115.813 1659.98 112.638V103.286C1659.97 102.15 1659.87 101.017 1659.66 99.8979C1658.11 99.6 1656.62 99.0631 1655.25 98.3077C1655.77 99.926 1656.04 101.611 1656.04 103.305V112.657C1656.28 116.53 1657.39 120.307 1659.29 123.731C1660.65 125.802 1662.27 127.708 1664.1 129.41H1613.6C1615.44 127.708 1617.05 125.802 1618.41 123.731C1620.32 120.307 1621.42 116.53 1621.67 112.657V103.286C1621.66 101.096 1622.1 98.9243 1622.96 96.8969C1623.83 94.8695 1625.1 93.0259 1626.71 91.4714C1628.32 89.917 1630.23 88.6824 1632.33 87.8383C1634.44 86.9942 1636.7 86.5571 1638.98 86.5521C1642.32 86.5547 1645.58 87.5029 1648.37 89.2781C1648.06 88.1971 1647.89 87.0851 1647.85 85.9653V84.7727C1645.79 83.8004 1643.58 83.1608 1641.31 82.8797V80.4945C1641.31 79.8243 1641.03 79.1815 1640.54 78.7075C1640.04 78.2336 1639.37 77.9673 1638.67 77.9673C1637.98 77.9673 1637.31 78.2336 1636.81 78.7075C1636.32 79.1815 1636.04 79.8243 1636.04 80.4945V82.9744C1630.95 83.6645 1626.28 86.1011 1622.91 89.8345C1619.54 93.5679 1617.69 98.3459 1617.7 103.286V112.638C1617.46 115.813 1616.55 118.909 1615.04 121.743C1613.68 123.792 1612.04 125.657 1610.17 127.29C1609.96 127.467 1609.79 127.686 1609.68 127.93C1609.56 128.175 1609.5 128.441 1609.5 128.71V131.284C1609.5 131.786 1609.71 132.268 1610.08 132.623C1610.45 132.978 1610.95 133.177 1611.47 133.177H1666.29C1666.81 133.177 1667.31 132.978 1667.68 132.623C1668.05 132.268 1668.26 131.786 1668.26 131.284V128.71C1668.26 128.441 1668.2 128.175 1668.09 127.93C1667.97 127.686 1667.8 127.467 1667.59 127.29ZM1638.98 139.499C1640.22 139.472 1641.41 139.024 1642.34 138.234C1643.27 137.444 1643.88 136.363 1644.07 135.183H1633.69C1633.88 136.395 1634.52 137.501 1635.49 138.295C1636.46 139.089 1637.7 139.517 1638.98 139.499Z" fill="#4C4C4E"/>
<path d="M1615.98 174.5H1610.71L1602.3 159.295V174.5H1597.29V152.688H1604.01L1610.97 165.184V152.688H1615.98V174.5ZM1635.9 166.282C1635.9 168.987 1635.16 171.121 1633.68 172.684C1632.2 174.236 1630.11 175.013 1627.41 175.013C1624.72 175.013 1622.63 174.236 1621.14 172.684C1619.65 171.121 1618.91 168.987 1618.91 166.282C1618.91 163.548 1619.65 161.409 1621.14 159.866C1622.63 158.313 1624.72 157.537 1627.41 157.537C1630.1 157.537 1632.19 158.318 1633.68 159.881C1635.16 161.434 1635.9 163.567 1635.9 166.282ZM1630.64 166.312C1630.64 165.335 1630.56 164.524 1630.39 163.88C1630.24 163.226 1630.02 162.703 1629.74 162.312C1629.43 161.902 1629.09 161.619 1628.71 161.463C1628.33 161.297 1627.89 161.214 1627.41 161.214C1626.95 161.214 1626.53 161.287 1626.16 161.434C1625.79 161.57 1625.45 161.839 1625.14 162.239C1624.84 162.62 1624.61 163.143 1624.43 163.807C1624.26 164.471 1624.17 165.306 1624.17 166.312C1624.17 167.317 1624.25 168.133 1624.42 168.758C1624.58 169.373 1624.8 169.866 1625.06 170.237C1625.34 170.618 1625.68 170.896 1626.09 171.072C1626.5 171.248 1626.95 171.336 1627.45 171.336C1627.86 171.336 1628.28 171.248 1628.7 171.072C1629.12 170.896 1629.47 170.633 1629.72 170.281C1630.02 169.861 1630.25 169.358 1630.41 168.772C1630.57 168.177 1630.64 167.356 1630.64 166.312ZM1644.93 174.822C1642.84 174.822 1641.31 174.393 1640.36 173.533C1639.41 172.674 1638.93 171.268 1638.93 169.314V161.624H1636.97V158.05H1638.93V153.348H1644.06V158.05H1649V161.624H1644.06V167.454C1644.06 168.03 1644.07 168.533 1644.08 168.963C1644.09 169.393 1644.16 169.778 1644.31 170.12C1644.45 170.462 1644.69 170.735 1645.03 170.94C1645.38 171.136 1645.89 171.233 1646.55 171.233C1646.83 171.233 1647.18 171.175 1647.62 171.058C1648.07 170.94 1648.38 170.833 1648.56 170.735H1649V174.354C1648.44 174.5 1647.85 174.612 1647.23 174.69C1646.6 174.778 1645.83 174.822 1644.93 174.822ZM1656.23 174.5H1651.11V158.05H1656.23V174.5ZM1656.38 155.706H1650.96V151.707H1656.38V155.706ZM1670.68 155.574H1670.28C1670.09 155.516 1669.78 155.442 1669.36 155.354C1668.95 155.257 1668.56 155.208 1668.19 155.208C1667.15 155.208 1666.44 155.398 1666.06 155.779C1665.69 156.16 1665.51 156.873 1665.51 157.918V158.05H1669.58V161.624H1665.68V174.5H1660.56V161.624H1658.5V158.05H1660.56V157.596C1660.56 155.584 1661.08 154.075 1662.14 153.069C1663.19 152.063 1664.79 151.561 1666.93 151.561C1667.67 151.561 1668.36 151.59 1669.01 151.648C1669.65 151.697 1670.21 151.766 1670.68 151.854V155.574ZM1687 158.05L1678.69 180.535H1673.18L1675.67 174.104L1669.64 158.05H1675.03L1678.49 168.362L1681.72 158.05H1687Z" fill="#4C4C4E"/>
</g>
<defs>
<filter id="filter0_b_2309_1539" x="153.5" y="31" width="251" height="195" filterUnits="userSpaceOnUse" color-interpolation-filters="sRGB">
<feFlood flood-opacity="0" result="BackgroundImageFix"/>
<feGaussianBlur in="BackgroundImageFix" stdDeviation="15"/>
<feComposite in2="SourceAlpha" operator="in" result="effect1_backgroundBlur_2309_1539"/>
<feBlend mode="normal" in="SourceGraphic" in2="effect1_backgroundBlur_2309_1539" result="shape"/>
</filter>
<filter id="filter1_b_2309_1539" x="444.5" y="10" width="290" height="237" filterUnits="userSpaceOnUse" color-interpolation-filters="sRGB">
<feFlood flood-opacity="0" result="BackgroundImageFix"/>
<feGaussianBlur in="BackgroundImageFix" stdDeviation="15"/>
<feComposite in2="SourceAlpha" operator="in" result="effect1_backgroundBlur_2309_1539"/>
<feBlend mode="normal" in="SourceGraphic" in2="effect1_backgroundBlur_2309_1539" result="shape"/>
</filter>
<filter id="filter2_b_2309_1539" x="1177.5" y="10" width="298" height="237" filterUnits="userSpaceOnUse" color-interpolation-filters="sRGB">
<feFlood flood-opacity="0" result="BackgroundImageFix"/>
<feGaussianBlur in="BackgroundImageFix" stdDeviation="15"/>
<feComposite in2="SourceAlpha" operator="in" result="effect1_backgroundBlur_2309_1539"/>
<feBlend mode="normal" in="SourceGraphic" in2="effect1_backgroundBlur_2309_1539" result="shape"/>
</filter>
<filter id="filter3_b_2309_1539" x="1515.5" y="31" width="251" height="195" filterUnits="userSpaceOnUse" color-interpolation-filters="sRGB">
<feFlood flood-opacity="0" result="BackgroundImageFix"/>
<feGaussianBlur in="BackgroundImageFix" stdDeviation="15"/>
<feComposite in2="SourceAlpha" operator="in" result="effect1_backgroundBlur_2309_1539"/>
<feBlend mode="normal" in="SourceGraphic" in2="effect1_backgroundBlur_2309_1539" result="shape"/>
</filter>
</defs>
</svg>
