<svg width="1920" height="257" viewBox="0 0 1920 257" fill="none" xmlns="http://www.w3.org/2000/svg">
<g filter="url(#filter0_b_2309_1498)">
<rect x="187.5" y="61" width="191" height="135" rx="30" fill="white" fill-opacity="0.5"/>
<path d="M275.713 86.4488C277.722 84.4703 280.073 83.5027 283.002 83.5C286.03 83.5004 288.381 84.4819 290.327 86.4277C292.273 88.3737 293.252 90.7226 293.25 93.7469V93.75C293.25 96.6786 292.284 99.0288 290.306 101.037C288.36 103.012 286.016 104 283 104C280.09 104 277.747 103.027 275.735 101.015C273.723 99.0032 272.75 96.6596 272.75 93.75C272.75 90.7382 273.738 88.3952 275.713 86.4488ZM321.706 121.878C321.67 121.753 321.634 121.628 321.597 121.504C326.54 121.575 330.154 122.534 332.71 124.075C335.232 125.595 336 127.199 336 129.019V132.5H322.625V128.781C322.625 126.388 322.326 124.081 321.706 121.878ZM233.317 124.116C235.886 122.539 239.522 121.563 244.51 121.503C244.465 121.64 244.422 121.778 244.38 121.917C243.706 124.13 243.375 126.423 243.375 128.781V132.5H230V129.019C230 127.303 230.742 125.696 233.317 124.116ZM264.575 119.705L264.576 119.704C266.656 118.404 269.246 117.366 272.42 116.653C275.62 115.934 279.142 115.562 283 115.562C286.947 115.562 290.509 115.935 293.704 116.653C296.877 117.366 299.465 118.404 301.541 119.703L301.543 119.704C303.672 121.035 305.144 122.483 306.114 123.995C307.04 125.441 307.5 127.004 307.5 128.781V132.5H258.5V128.781C258.5 127.026 258.966 125.477 259.918 124.037C260.935 122.497 262.442 121.037 264.575 119.705ZM245.005 108.75H245C243.456 108.75 242.235 108.247 241.121 107.133C240.008 106.02 239.502 104.797 239.5 103.248C239.501 101.593 240.026 100.381 241.09 99.3411C242.203 98.2527 243.434 97.75 245 97.75C246.684 97.75 247.907 98.276 248.94 99.3097C249.974 100.343 250.5 101.566 250.5 103.25C250.5 104.821 249.996 106.053 248.909 107.165C247.87 108.228 246.659 108.752 245.005 108.75ZM321.005 108.75H321C319.456 108.75 318.235 108.247 317.121 107.133C316.008 106.019 315.502 104.796 315.5 103.246C315.501 101.592 316.027 100.381 317.09 99.3411C318.203 98.2527 319.434 97.75 321 97.75C322.684 97.75 323.907 98.276 324.94 99.3097C325.974 100.343 326.5 101.566 326.5 103.25C326.5 104.821 325.996 106.053 324.909 107.165C323.87 108.228 322.659 108.752 321.005 108.75Z" stroke="#4C4C4E" stroke-width="8"/>
<path d="M249.763 170.255C248.806 170.646 247.561 171.026 246.027 171.397C244.504 171.769 243 171.954 241.516 171.954C238.088 171.954 235.354 170.968 233.312 168.995C231.281 167.013 230.266 164.205 230.266 160.572C230.266 157.154 231.281 154.415 233.312 152.354C235.354 150.294 238.142 149.264 241.677 149.264C243.503 149.264 244.987 149.439 246.13 149.791C247.272 150.133 248.454 150.602 249.675 151.197V156.31H249.177C248.913 156.104 248.532 155.816 248.034 155.445C247.546 155.064 247.067 154.742 246.599 154.479C246.052 154.166 245.417 153.897 244.694 153.673C243.981 153.448 243.225 153.336 242.424 153.336C241.486 153.336 240.632 153.482 239.86 153.775C239.089 154.068 238.4 154.518 237.795 155.123C237.219 155.709 236.76 156.451 236.418 157.35C236.086 158.248 235.92 159.293 235.92 160.484C235.92 163.033 236.56 164.913 237.839 166.124C239.118 167.335 240.866 167.94 243.083 167.94C243.278 167.94 243.508 167.936 243.771 167.926C244.035 167.916 244.265 167.901 244.46 167.882V163.604H240.227V159.518H249.763V170.255ZM264.646 159.898H264.221C264.025 159.83 263.742 159.781 263.371 159.752C263 159.713 262.59 159.693 262.141 159.693C261.604 159.693 261.037 159.771 260.441 159.928C259.855 160.084 259.284 160.27 258.728 160.484V171.5H253.601V155.05H258.728V157.408C258.962 157.193 259.284 156.925 259.694 156.603C260.114 156.271 260.495 156.007 260.837 155.812C261.208 155.587 261.638 155.396 262.126 155.24C262.624 155.074 263.093 154.991 263.532 154.991C263.698 154.991 263.884 154.996 264.089 155.006C264.294 155.016 264.479 155.03 264.646 155.05V159.898ZM282.399 163.282C282.399 165.987 281.657 168.121 280.173 169.684C278.698 171.236 276.608 172.013 273.903 172.013C271.218 172.013 269.128 171.236 267.634 169.684C266.149 168.121 265.407 165.987 265.407 163.282C265.407 160.548 266.149 158.409 267.634 156.866C269.128 155.313 271.218 154.537 273.903 154.537C276.599 154.537 278.688 155.318 280.173 156.881C281.657 158.434 282.399 160.567 282.399 163.282ZM277.141 163.312C277.141 162.335 277.058 161.524 276.892 160.88C276.735 160.226 276.516 159.703 276.232 159.312C275.93 158.902 275.588 158.619 275.207 158.463C274.826 158.297 274.392 158.214 273.903 158.214C273.444 158.214 273.029 158.287 272.658 158.434C272.287 158.57 271.945 158.839 271.633 159.239C271.34 159.62 271.105 160.143 270.93 160.807C270.754 161.471 270.666 162.306 270.666 163.312C270.666 164.317 270.749 165.133 270.915 165.758C271.081 166.373 271.296 166.866 271.56 167.237C271.833 167.618 272.175 167.896 272.585 168.072C272.995 168.248 273.449 168.336 273.947 168.336C274.357 168.336 274.772 168.248 275.192 168.072C275.622 167.896 275.964 167.633 276.218 167.281C276.521 166.861 276.75 166.358 276.906 165.772C277.062 165.177 277.141 164.356 277.141 163.312ZM300.402 171.5H295.275V169.684C294.387 170.426 293.571 170.992 292.829 171.383C292.087 171.764 291.203 171.954 290.178 171.954C288.547 171.954 287.272 171.441 286.354 170.416C285.446 169.381 284.992 167.828 284.992 165.758V155.05H290.148V163.209C290.148 164.059 290.168 164.752 290.207 165.289C290.256 165.826 290.363 166.28 290.529 166.651C290.686 166.993 290.925 167.252 291.247 167.428C291.579 167.604 292.038 167.691 292.624 167.691C292.985 167.691 293.41 167.604 293.898 167.428C294.396 167.252 294.855 167.013 295.275 166.71V155.05H300.402V171.5ZM320.471 163.048C320.471 165.675 319.802 167.794 318.464 169.405C317.136 171.017 315.495 171.822 313.542 171.822C312.722 171.822 312.009 171.729 311.403 171.544C310.798 171.358 310.153 171.07 309.47 170.68V177.535H304.343V155.05H309.47V156.764C310.222 156.119 310.988 155.597 311.77 155.196C312.551 154.796 313.454 154.596 314.479 154.596C316.384 154.596 317.858 155.353 318.903 156.866C319.948 158.38 320.471 160.44 320.471 163.048ZM315.227 163.15C315.227 161.549 314.978 160.387 314.479 159.664C313.991 158.941 313.225 158.58 312.18 158.58C311.721 158.58 311.262 158.653 310.803 158.8C310.354 158.946 309.909 159.166 309.47 159.459V167.735C309.743 167.853 310.041 167.936 310.363 167.984C310.695 168.033 311.086 168.058 311.535 168.058C312.785 168.058 313.713 167.652 314.318 166.842C314.924 166.021 315.227 164.791 315.227 163.15ZM328.249 171.954C327.038 171.954 325.891 171.822 324.807 171.559C323.732 171.295 322.844 170.987 322.141 170.636V166.3H322.565C322.81 166.485 323.088 166.69 323.4 166.915C323.713 167.14 324.147 167.374 324.704 167.618C325.183 167.843 325.72 168.038 326.315 168.204C326.921 168.36 327.575 168.438 328.278 168.438C329.001 168.438 329.636 168.326 330.183 168.102C330.739 167.877 331.018 167.521 331.018 167.032C331.018 166.651 330.891 166.363 330.637 166.168C330.383 165.973 329.89 165.787 329.157 165.611C328.767 165.514 328.273 165.411 327.678 165.304C327.082 165.187 326.555 165.055 326.096 164.908C324.807 164.508 323.835 163.917 323.181 163.136C322.536 162.345 322.214 161.31 322.214 160.03C322.214 159.298 322.38 158.609 322.712 157.965C323.054 157.311 323.552 156.729 324.206 156.222C324.86 155.724 325.666 155.328 326.623 155.035C327.59 154.742 328.679 154.596 329.89 154.596C331.042 154.596 332.102 154.713 333.068 154.947C334.035 155.172 334.851 155.445 335.515 155.768V159.928H335.104C334.929 159.791 334.65 159.61 334.27 159.386C333.889 159.151 333.518 158.951 333.156 158.785C332.727 158.59 332.243 158.429 331.706 158.302C331.179 158.175 330.637 158.111 330.08 158.111C329.338 158.111 328.708 158.238 328.19 158.492C327.683 158.746 327.429 159.083 327.429 159.503C327.429 159.874 327.556 160.167 327.81 160.382C328.063 160.597 328.615 160.807 329.465 161.012C329.904 161.119 330.407 161.227 330.974 161.334C331.55 161.432 332.102 161.568 332.629 161.744C333.811 162.125 334.704 162.687 335.31 163.429C335.925 164.161 336.232 165.138 336.232 166.358C336.232 167.13 336.052 167.867 335.69 168.57C335.329 169.264 334.816 169.85 334.152 170.328C333.449 170.846 332.619 171.246 331.662 171.529C330.715 171.812 329.577 171.954 328.249 171.954Z" fill="#4C4C4E"/>
</g>
<g filter="url(#filter1_b_2309_1498)">
<rect x="478.5" y="40" width="230" height="177" rx="30" fill="white" fill-opacity="0.5"/>
<path d="M547.121 80.9214L654.817 95.8501L654.291 128.613L558.542 126.822L558.745 114.196" stroke="#4C4C4E" stroke-width="6" stroke-linecap="square"/>
<path d="M518.75 63.5386L668.25 85.5648V141.461H535.59V119.92" stroke="#4C4C4E" stroke-width="6" stroke-linecap="square"/>
<path d="M522.973 187.857C521.303 187.857 519.833 187.696 518.563 187.374C517.304 187.051 516.132 186.651 515.048 186.172V180.987H515.546C516.64 181.915 517.846 182.627 519.164 183.125C520.482 183.624 521.762 183.873 523.002 183.873C523.314 183.873 523.725 183.838 524.232 183.77C524.75 183.702 525.165 183.594 525.478 183.448C525.858 183.282 526.181 183.052 526.444 182.759C526.708 182.457 526.84 182.061 526.84 181.573C526.84 181.026 526.625 180.582 526.195 180.24C525.766 179.898 525.253 179.649 524.657 179.493C523.915 179.297 523.119 179.112 522.27 178.936C521.43 178.76 520.644 178.545 519.911 178.292C518.222 177.696 517.011 176.895 516.278 175.889C515.546 174.883 515.18 173.624 515.18 172.11C515.18 170.069 516.044 168.418 517.772 167.159C519.501 165.889 521.659 165.254 524.247 165.254C525.546 165.254 526.835 165.386 528.114 165.65C529.403 165.914 530.556 166.27 531.571 166.719V171.7H531.088C530.277 171.006 529.286 170.42 528.114 169.942C526.952 169.463 525.756 169.224 524.525 169.224C524.047 169.224 523.617 169.258 523.236 169.327C522.855 169.395 522.455 169.527 522.035 169.722C521.693 169.878 521.396 170.113 521.142 170.425C520.897 170.728 520.775 171.07 520.775 171.451C520.775 172.007 520.971 172.452 521.361 172.784C521.762 173.106 522.528 173.399 523.661 173.663C524.394 173.829 525.097 173.99 525.771 174.146C526.454 174.302 527.182 174.517 527.953 174.791C529.467 175.337 530.59 176.075 531.322 177.002C532.064 177.92 532.436 179.136 532.436 180.65C532.436 182.818 531.581 184.561 529.872 185.879C528.173 187.198 525.873 187.857 522.973 187.857ZM554.613 187.461V179.244C554.613 178.433 554.599 177.75 554.569 177.193C554.54 176.636 554.452 176.182 554.306 175.831C554.159 175.479 553.93 175.225 553.617 175.069C553.314 174.903 552.885 174.82 552.328 174.82C551.938 174.82 551.552 174.908 551.171 175.083C550.79 175.25 550.375 175.489 549.926 175.801V187.461H544.77V179.244C544.77 178.443 544.75 177.764 544.711 177.208C544.682 176.641 544.594 176.182 544.447 175.831C544.301 175.479 544.071 175.225 543.759 175.069C543.456 174.903 543.031 174.82 542.484 174.82C542.064 174.82 541.654 174.917 541.254 175.113C540.854 175.308 540.463 175.538 540.082 175.801V187.461H534.955V171.011H540.082V172.828C540.922 172.115 541.713 171.558 542.455 171.158C543.197 170.757 544.032 170.557 544.96 170.557C545.966 170.557 546.85 170.796 547.611 171.275C548.373 171.753 548.954 172.466 549.354 173.414C550.341 172.496 551.269 171.792 552.138 171.304C553.017 170.806 553.905 170.557 554.804 170.557C555.565 170.557 556.249 170.679 556.854 170.923C557.46 171.167 557.973 171.534 558.393 172.022C558.852 172.549 559.193 173.179 559.418 173.912C559.652 174.634 559.77 175.582 559.77 176.753V187.461H554.613ZM572.646 183.169V179.742C571.776 179.83 571.073 179.908 570.536 179.976C569.999 180.035 569.472 180.157 568.954 180.342C568.505 180.499 568.153 180.738 567.899 181.06C567.655 181.373 567.533 181.792 567.533 182.32C567.533 183.091 567.738 183.624 568.148 183.917C568.568 184.2 569.184 184.341 569.994 184.341C570.443 184.341 570.902 184.239 571.371 184.034C571.84 183.829 572.265 183.541 572.646 183.169ZM572.646 185.718C572.294 186.011 571.977 186.275 571.693 186.509C571.42 186.744 571.049 186.978 570.58 187.212C570.121 187.437 569.672 187.608 569.232 187.725C568.803 187.842 568.197 187.901 567.416 187.901C565.961 187.901 564.75 187.413 563.783 186.436C562.826 185.459 562.348 184.229 562.348 182.745C562.348 181.524 562.592 180.538 563.08 179.786C563.568 179.034 564.271 178.438 565.189 177.999C566.117 177.549 567.226 177.237 568.515 177.061C569.804 176.885 571.19 176.749 572.675 176.651V176.563C572.675 175.655 572.338 175.03 571.664 174.688C571 174.336 569.999 174.161 568.661 174.161C568.056 174.161 567.348 174.273 566.537 174.498C565.727 174.712 564.936 174.991 564.164 175.333H563.725V171.363C564.232 171.216 565.053 171.045 566.186 170.85C567.318 170.645 568.461 170.542 569.613 170.542C572.445 170.542 574.506 171.016 575.795 171.963C577.094 172.901 577.743 174.336 577.743 176.27V187.461H572.646V185.718ZM592.582 175.86H592.157C591.962 175.792 591.679 175.743 591.308 175.713C590.937 175.674 590.526 175.655 590.077 175.655C589.54 175.655 588.974 175.733 588.378 175.889C587.792 176.045 587.221 176.231 586.664 176.446V187.461H581.537V171.011H586.664V173.37C586.898 173.155 587.221 172.886 587.631 172.564C588.051 172.232 588.432 171.968 588.773 171.773C589.145 171.548 589.574 171.358 590.062 171.202C590.561 171.036 591.029 170.953 591.469 170.953C591.635 170.953 591.82 170.958 592.025 170.967C592.23 170.977 592.416 170.992 592.582 171.011V175.86ZM600.844 187.784C598.754 187.784 597.23 187.354 596.273 186.495C595.326 185.635 594.853 184.229 594.853 182.276V174.585H592.89V171.011H594.853V166.309H599.979V171.011H604.916V174.585H599.979V180.416C599.979 180.992 599.984 181.495 599.994 181.924C600.004 182.354 600.082 182.74 600.229 183.082C600.365 183.423 600.604 183.697 600.946 183.902C601.298 184.097 601.806 184.195 602.47 184.195C602.743 184.195 603.1 184.136 603.539 184.019C603.988 183.902 604.301 183.794 604.477 183.697H604.916V187.315C604.359 187.461 603.769 187.574 603.144 187.652C602.519 187.74 601.752 187.784 600.844 187.784ZM630.668 187.461H616.107V165.65H621.586V183.301H630.668V187.461ZM648.773 179.244C648.773 181.949 648.031 184.083 646.547 185.645C645.072 187.198 642.982 187.974 640.277 187.974C637.592 187.974 635.502 187.198 634.008 185.645C632.523 184.083 631.781 181.949 631.781 179.244C631.781 176.509 632.523 174.371 634.008 172.828C635.502 171.275 637.592 170.499 640.277 170.499C642.973 170.499 645.062 171.28 646.547 172.842C648.031 174.395 648.773 176.529 648.773 179.244ZM643.515 179.273C643.515 178.296 643.432 177.486 643.266 176.841C643.109 176.187 642.89 175.665 642.606 175.274C642.304 174.864 641.962 174.581 641.581 174.424C641.2 174.258 640.766 174.175 640.277 174.175C639.818 174.175 639.403 174.249 639.032 174.395C638.661 174.532 638.319 174.8 638.007 175.201C637.714 175.582 637.479 176.104 637.304 176.768C637.128 177.432 637.04 178.267 637.04 179.273C637.04 180.279 637.123 181.094 637.289 181.719C637.455 182.334 637.67 182.828 637.934 183.199C638.207 183.58 638.549 183.858 638.959 184.034C639.369 184.209 639.823 184.297 640.321 184.297C640.731 184.297 641.146 184.209 641.566 184.034C641.996 183.858 642.338 183.594 642.592 183.243C642.895 182.823 643.124 182.32 643.28 181.734C643.437 181.138 643.515 180.318 643.515 179.273ZM662.016 168.536H661.62C661.425 168.477 661.117 168.404 660.697 168.316C660.287 168.218 659.896 168.169 659.525 168.169C658.49 168.169 657.782 168.36 657.401 168.741C657.03 169.122 656.845 169.834 656.845 170.879V171.011H660.917V174.585H657.021V187.461H651.894V174.585H649.843V171.011H651.894V170.557C651.894 168.545 652.421 167.037 653.476 166.031C654.53 165.025 656.127 164.522 658.266 164.522C659.008 164.522 659.701 164.551 660.346 164.61C660.99 164.659 661.547 164.727 662.016 164.815V168.536ZM669.281 187.784C667.191 187.784 665.668 187.354 664.711 186.495C663.764 185.635 663.29 184.229 663.29 182.276V174.585H661.327V171.011H663.29V166.309H668.417V171.011H673.354V174.585H668.417V180.416C668.417 180.992 668.422 181.495 668.432 181.924C668.441 182.354 668.52 182.74 668.666 183.082C668.803 183.423 669.042 183.697 669.384 183.902C669.735 184.097 670.243 184.195 670.907 184.195C671.181 184.195 671.537 184.136 671.977 184.019C672.426 183.902 672.738 183.794 672.914 183.697H673.354V187.315C672.797 187.461 672.206 187.574 671.581 187.652C670.956 187.74 670.189 187.784 669.281 187.784Z" fill="#4C4C4E"/>
</g>
<rect x="808.5" y="20" width="303" height="217" rx="30" fill="white"/>
<mask id="path-9-outside-1_2309_1498" maskUnits="userSpaceOnUse" x="886.5" y="34.1487" width="147" height="134" fill="black">
<rect fill="white" x="886.5" y="34.1487" width="147" height="134"/>
<path fill-rule="evenodd" clip-rule="evenodd" d="M983.587 50.1797C983.209 50.5422 982.697 50.7458 982.163 50.7458H937.839C937.305 50.7458 936.792 50.5422 936.414 50.1797C936.037 49.8172 935.824 49.3256 935.824 48.813C935.824 48.3003 936.037 47.8087 936.414 47.4462C936.792 47.0838 937.305 46.8801 937.839 46.8801H982.163C982.697 46.8801 983.209 47.0838 983.587 47.4462C983.965 47.8087 984.177 48.3003 984.177 48.813C984.177 49.3256 983.965 49.8172 983.587 50.1797ZM927.765 41.0815V56.5444C927.765 57.057 927.553 57.5487 927.175 57.9111C926.798 58.2736 926.285 58.4773 925.751 58.4773C925.216 58.4773 924.704 58.2736 924.326 57.9111C923.948 57.5487 923.736 57.057 923.736 56.5444V41.0815C923.736 40.5689 923.948 40.0773 924.326 39.7148C924.704 39.3523 925.216 39.1487 925.751 39.1487C926.285 39.1487 926.798 39.3523 927.175 39.7148C927.553 40.0773 927.765 40.5689 927.765 41.0815ZM995.675 57.9111C995.298 58.2736 994.785 58.4773 994.251 58.4773C993.716 58.4773 993.204 58.2736 992.826 57.9111C992.448 57.5487 992.236 57.057 992.236 56.5444V41.0815C992.236 40.5689 992.448 40.0773 992.826 39.7148C993.204 39.3523 993.716 39.1487 994.251 39.1487C994.785 39.1487 995.298 39.3523 995.675 39.7148C996.053 40.0773 996.265 40.5689 996.265 41.0815V56.5444C996.265 57.057 996.053 57.5487 995.675 57.9111ZM909.632 128.06C909.098 128.06 908.586 128.264 908.208 128.626C907.83 128.989 907.618 129.48 907.618 129.993C907.618 130.506 907.83 130.997 908.208 131.36C908.586 131.722 909.098 131.926 909.632 131.926H915.676V145.456C915.676 145.968 915.889 146.46 916.267 146.822C916.644 147.185 917.157 147.389 917.691 147.389C918.226 147.389 918.738 147.185 919.116 146.822C919.494 146.46 919.706 145.968 919.706 145.456V131.926H943.882V145.456C943.882 145.968 944.095 146.46 944.472 146.822C944.85 147.185 945.363 147.389 945.897 147.389C946.431 147.389 946.944 147.185 947.322 146.822C947.7 146.46 947.912 145.968 947.912 145.456V131.926H972.088V145.456C972.088 145.968 972.3 146.46 972.678 146.822C973.056 147.185 973.569 147.389 974.103 147.389C974.637 147.389 975.15 147.185 975.528 146.822C975.905 146.46 976.118 145.968 976.118 145.456V131.926H1000.29V145.456C1000.29 145.968 1000.51 146.46 1000.88 146.822C1001.26 147.185 1001.77 147.389 1002.31 147.389C1002.84 147.389 1003.36 147.185 1003.73 146.822C1004.11 146.46 1004.32 145.968 1004.32 145.456V131.926H1010.37C1010.9 131.926 1011.41 131.722 1011.79 131.36C1012.17 130.997 1012.38 130.506 1012.38 129.993C1012.38 129.48 1012.17 128.989 1011.79 128.626C1011.41 128.264 1010.9 128.06 1010.37 128.06H1004.32V108.731H1010.37C1010.9 108.731 1011.41 108.528 1011.79 108.165C1012.17 107.803 1012.38 107.311 1012.38 106.799C1012.38 106.286 1012.17 105.794 1011.79 105.432C1011.41 105.069 1010.9 104.866 1010.37 104.866H1004.32V87.47C1004.32 86.9574 1004.11 86.4657 1003.73 86.1033C1003.36 85.7408 1002.84 85.5371 1002.31 85.5371C1001.77 85.5371 1001.26 85.7408 1000.88 86.1033C1000.51 86.4657 1000.29 86.9574 1000.29 87.47V104.866H976.118V87.47C976.118 86.9574 975.905 86.4657 975.528 86.1033C975.15 85.7408 974.637 85.5371 974.103 85.5371C973.569 85.5371 973.056 85.7408 972.678 86.1033C972.3 86.4657 972.088 86.9574 972.088 87.47V104.866H947.912V87.47C947.912 86.9574 947.7 86.4657 947.322 86.1033C946.944 85.7408 946.431 85.5371 945.897 85.5371C945.363 85.5371 944.85 85.7408 944.472 86.1033C944.095 86.4657 943.882 86.9574 943.882 87.47V104.866H919.706V87.47C919.706 86.9574 919.494 86.4657 919.116 86.1033C918.738 85.7408 918.226 85.5371 917.691 85.5371C917.157 85.5371 916.644 85.7408 916.267 86.1033C915.889 86.4657 915.676 86.9574 915.676 87.47V104.866H909.632C909.098 104.866 908.586 105.069 908.208 105.432C907.83 105.794 907.618 106.286 907.618 106.799C907.618 107.311 907.83 107.803 908.208 108.165C908.586 108.528 909.098 108.731 909.632 108.731H915.676V128.06H909.632ZM1000.29 108.731V128.06H976.118V108.731H1000.29ZM972.088 108.731V128.06H947.912V108.731H972.088ZM919.706 108.731H943.882V128.06H919.706V108.731ZM1006.34 50.7457H1023.46C1023.81 50.7457 1024.47 50.7457 1024.47 52.6785V70.0743H895.529V52.6785C895.529 52.1659 895.742 51.6743 896.12 51.3118C896.497 50.9493 897.01 50.7457 897.544 50.7457H913.662C914.196 50.7457 914.709 50.542 915.086 50.1796C915.464 49.8171 915.676 49.3255 915.676 48.8128C915.676 48.3002 915.464 47.8086 915.086 47.4461C914.709 47.0836 914.196 46.88 913.662 46.88H897.544C894.212 46.88 891.5 49.4816 891.5 52.6785V72.0071C891.5 72.5198 891.712 73.0114 892.09 73.3739C892.468 73.7363 892.98 73.94 893.515 73.94H1026.49C1027.02 73.94 1027.53 73.7363 1027.91 73.3739C1028.29 73.0114 1028.5 72.5198 1028.5 72.0071V52.6785C1028.5 48.4031 1025.9 46.88 1023.46 46.88H1006.34C1005.8 46.88 1005.29 47.0836 1004.91 47.4461C1004.54 47.8086 1004.32 48.3002 1004.32 48.8128C1004.32 49.3255 1004.54 49.8171 1004.91 50.1796C1005.29 50.542 1005.8 50.7457 1006.34 50.7457ZM1028.5 157.053V83.6043C1028.5 83.0917 1028.29 82.6001 1027.91 82.2376C1027.53 81.8751 1027.02 81.6715 1026.49 81.6715C1025.95 81.6715 1025.44 81.8751 1025.06 82.2376C1024.68 82.6001 1024.47 83.0917 1024.47 83.6043V157.053C1024.47 157.566 1024.26 158.057 1023.88 158.42C1023.5 158.782 1022.99 158.986 1022.46 158.986H897.544C897.01 158.986 896.497 158.782 896.12 158.42C895.742 158.057 895.529 157.566 895.529 157.053V83.6043C895.529 83.0917 895.317 82.6001 894.939 82.2376C894.561 81.8751 894.049 81.6715 893.515 81.6715C892.98 81.6715 892.468 81.8751 892.09 82.2376C891.712 82.6001 891.5 83.0917 891.5 83.6043V157.053C891.5 160.25 894.212 162.852 897.544 162.852H1022.46C1025.79 162.852 1028.5 160.25 1028.5 157.053Z"/>
</mask>
<path fill-rule="evenodd" clip-rule="evenodd" d="M983.587 50.1797C983.209 50.5422 982.697 50.7458 982.163 50.7458H937.839C937.305 50.7458 936.792 50.5422 936.414 50.1797C936.037 49.8172 935.824 49.3256 935.824 48.813C935.824 48.3003 936.037 47.8087 936.414 47.4462C936.792 47.0838 937.305 46.8801 937.839 46.8801H982.163C982.697 46.8801 983.209 47.0838 983.587 47.4462C983.965 47.8087 984.177 48.3003 984.177 48.813C984.177 49.3256 983.965 49.8172 983.587 50.1797ZM927.765 41.0815V56.5444C927.765 57.057 927.553 57.5487 927.175 57.9111C926.798 58.2736 926.285 58.4773 925.751 58.4773C925.216 58.4773 924.704 58.2736 924.326 57.9111C923.948 57.5487 923.736 57.057 923.736 56.5444V41.0815C923.736 40.5689 923.948 40.0773 924.326 39.7148C924.704 39.3523 925.216 39.1487 925.751 39.1487C926.285 39.1487 926.798 39.3523 927.175 39.7148C927.553 40.0773 927.765 40.5689 927.765 41.0815ZM995.675 57.9111C995.298 58.2736 994.785 58.4773 994.251 58.4773C993.716 58.4773 993.204 58.2736 992.826 57.9111C992.448 57.5487 992.236 57.057 992.236 56.5444V41.0815C992.236 40.5689 992.448 40.0773 992.826 39.7148C993.204 39.3523 993.716 39.1487 994.251 39.1487C994.785 39.1487 995.298 39.3523 995.675 39.7148C996.053 40.0773 996.265 40.5689 996.265 41.0815V56.5444C996.265 57.057 996.053 57.5487 995.675 57.9111ZM909.632 128.06C909.098 128.06 908.586 128.264 908.208 128.626C907.83 128.989 907.618 129.48 907.618 129.993C907.618 130.506 907.83 130.997 908.208 131.36C908.586 131.722 909.098 131.926 909.632 131.926H915.676V145.456C915.676 145.968 915.889 146.46 916.267 146.822C916.644 147.185 917.157 147.389 917.691 147.389C918.226 147.389 918.738 147.185 919.116 146.822C919.494 146.46 919.706 145.968 919.706 145.456V131.926H943.882V145.456C943.882 145.968 944.095 146.46 944.472 146.822C944.85 147.185 945.363 147.389 945.897 147.389C946.431 147.389 946.944 147.185 947.322 146.822C947.7 146.46 947.912 145.968 947.912 145.456V131.926H972.088V145.456C972.088 145.968 972.3 146.46 972.678 146.822C973.056 147.185 973.569 147.389 974.103 147.389C974.637 147.389 975.15 147.185 975.528 146.822C975.905 146.46 976.118 145.968 976.118 145.456V131.926H1000.29V145.456C1000.29 145.968 1000.51 146.46 1000.88 146.822C1001.26 147.185 1001.77 147.389 1002.31 147.389C1002.84 147.389 1003.36 147.185 1003.73 146.822C1004.11 146.46 1004.32 145.968 1004.32 145.456V131.926H1010.37C1010.9 131.926 1011.41 131.722 1011.79 131.36C1012.17 130.997 1012.38 130.506 1012.38 129.993C1012.38 129.48 1012.17 128.989 1011.79 128.626C1011.41 128.264 1010.9 128.06 1010.37 128.06H1004.32V108.731H1010.37C1010.9 108.731 1011.41 108.528 1011.79 108.165C1012.17 107.803 1012.38 107.311 1012.38 106.799C1012.38 106.286 1012.17 105.794 1011.79 105.432C1011.41 105.069 1010.9 104.866 1010.37 104.866H1004.32V87.47C1004.32 86.9574 1004.11 86.4657 1003.73 86.1033C1003.36 85.7408 1002.84 85.5371 1002.31 85.5371C1001.77 85.5371 1001.26 85.7408 1000.88 86.1033C1000.51 86.4657 1000.29 86.9574 1000.29 87.47V104.866H976.118V87.47C976.118 86.9574 975.905 86.4657 975.528 86.1033C975.15 85.7408 974.637 85.5371 974.103 85.5371C973.569 85.5371 973.056 85.7408 972.678 86.1033C972.3 86.4657 972.088 86.9574 972.088 87.47V104.866H947.912V87.47C947.912 86.9574 947.7 86.4657 947.322 86.1033C946.944 85.7408 946.431 85.5371 945.897 85.5371C945.363 85.5371 944.85 85.7408 944.472 86.1033C944.095 86.4657 943.882 86.9574 943.882 87.47V104.866H919.706V87.47C919.706 86.9574 919.494 86.4657 919.116 86.1033C918.738 85.7408 918.226 85.5371 917.691 85.5371C917.157 85.5371 916.644 85.7408 916.267 86.1033C915.889 86.4657 915.676 86.9574 915.676 87.47V104.866H909.632C909.098 104.866 908.586 105.069 908.208 105.432C907.83 105.794 907.618 106.286 907.618 106.799C907.618 107.311 907.83 107.803 908.208 108.165C908.586 108.528 909.098 108.731 909.632 108.731H915.676V128.06H909.632ZM1000.29 108.731V128.06H976.118V108.731H1000.29ZM972.088 108.731V128.06H947.912V108.731H972.088ZM919.706 108.731H943.882V128.06H919.706V108.731ZM1006.34 50.7457H1023.46C1023.81 50.7457 1024.47 50.7457 1024.47 52.6785V70.0743H895.529V52.6785C895.529 52.1659 895.742 51.6743 896.12 51.3118C896.497 50.9493 897.01 50.7457 897.544 50.7457H913.662C914.196 50.7457 914.709 50.542 915.086 50.1796C915.464 49.8171 915.676 49.3255 915.676 48.8128C915.676 48.3002 915.464 47.8086 915.086 47.4461C914.709 47.0836 914.196 46.88 913.662 46.88H897.544C894.212 46.88 891.5 49.4816 891.5 52.6785V72.0071C891.5 72.5198 891.712 73.0114 892.09 73.3739C892.468 73.7363 892.98 73.94 893.515 73.94H1026.49C1027.02 73.94 1027.53 73.7363 1027.91 73.3739C1028.29 73.0114 1028.5 72.5198 1028.5 72.0071V52.6785C1028.5 48.4031 1025.9 46.88 1023.46 46.88H1006.34C1005.8 46.88 1005.29 47.0836 1004.91 47.4461C1004.54 47.8086 1004.32 48.3002 1004.32 48.8128C1004.32 49.3255 1004.54 49.8171 1004.91 50.1796C1005.29 50.542 1005.8 50.7457 1006.34 50.7457ZM1028.5 157.053V83.6043C1028.5 83.0917 1028.29 82.6001 1027.91 82.2376C1027.53 81.8751 1027.02 81.6715 1026.49 81.6715C1025.95 81.6715 1025.44 81.8751 1025.06 82.2376C1024.68 82.6001 1024.47 83.0917 1024.47 83.6043V157.053C1024.47 157.566 1024.26 158.057 1023.88 158.42C1023.5 158.782 1022.99 158.986 1022.46 158.986H897.544C897.01 158.986 896.497 158.782 896.12 158.42C895.742 158.057 895.529 157.566 895.529 157.053V83.6043C895.529 83.0917 895.317 82.6001 894.939 82.2376C894.561 81.8751 894.049 81.6715 893.515 81.6715C892.98 81.6715 892.468 81.8751 892.09 82.2376C891.712 82.6001 891.5 83.0917 891.5 83.6043V157.053C891.5 160.25 894.212 162.852 897.544 162.852H1022.46C1025.79 162.852 1028.5 160.25 1028.5 157.053Z" fill="#FEC341"/>
<path d="M983.587 50.1797L987.049 53.7878V53.7878L983.587 50.1797ZM936.414 50.1797L932.953 53.7878L932.953 53.7878L936.414 50.1797ZM936.414 47.4462L932.953 43.8382L932.953 43.8382L936.414 47.4462ZM983.587 47.4462L987.049 43.8382L987.049 43.8382L983.587 47.4462ZM927.175 57.9111L923.714 54.3031L923.714 54.3031L927.175 57.9111ZM924.326 57.9111L927.788 54.3031L927.788 54.3031L924.326 57.9111ZM924.326 39.7148L920.865 36.1067L924.326 39.7148ZM927.175 39.7148L930.637 36.1067L927.175 39.7148ZM995.675 57.9111L992.214 54.3031L992.214 54.3031L995.675 57.9111ZM992.826 57.9111L996.288 54.3031L996.288 54.3031L992.826 57.9111ZM992.826 39.7148L989.365 36.1067L992.826 39.7148ZM995.675 39.7148L999.137 36.1067L995.675 39.7148ZM908.208 131.36L911.669 127.752L911.669 127.752L908.208 131.36ZM915.676 131.926H920.676V126.926H915.676V131.926ZM919.116 146.822L922.577 150.431L922.577 150.431L919.116 146.822ZM919.706 131.926V126.926H914.706V131.926H919.706ZM943.882 131.926H948.882V126.926H943.882V131.926ZM947.912 131.926V126.926H942.912V131.926H947.912ZM972.088 131.926H977.088V126.926H972.088V131.926ZM976.118 131.926V126.926H971.118V131.926H976.118ZM1000.29 131.926H1005.29V126.926H1000.29V131.926ZM1004.32 131.926V126.926H999.324V131.926H1004.32ZM1011.79 131.36L1008.33 127.752L1008.33 127.752L1011.79 131.36ZM1004.32 128.06H999.324V133.06H1004.32V128.06ZM1004.32 108.731V103.731H999.324V108.731H1004.32ZM1004.32 104.866H999.324V109.866H1004.32V104.866ZM1000.29 104.866V109.866H1005.29V104.866H1000.29ZM976.118 104.866H971.118V109.866H976.118V104.866ZM972.088 104.866V109.866H977.088V104.866H972.088ZM947.912 104.866H942.912V109.866H947.912V104.866ZM943.882 104.866V109.866H948.882V104.866H943.882ZM919.706 104.866H914.706V109.866H919.706V104.866ZM919.116 86.1033L922.577 82.4952L922.577 82.4952L919.116 86.1033ZM915.676 104.866V109.866H920.676V104.866H915.676ZM915.676 108.731H920.676V103.731H915.676V108.731ZM915.676 128.06V133.06H920.676V128.06H915.676ZM1000.29 128.06V133.06H1005.29V128.06H1000.29ZM1000.29 108.731H1005.29V103.731H1000.29V108.731ZM976.118 128.06H971.118V133.06H976.118V128.06ZM976.118 108.731V103.731H971.118V108.731H976.118ZM972.088 128.06V133.06H977.088V128.06H972.088ZM972.088 108.731H977.088V103.731H972.088V108.731ZM947.912 128.06H942.912V133.06H947.912V128.06ZM947.912 108.731V103.731H942.912V108.731H947.912ZM943.882 108.731H948.882V103.731H943.882V108.731ZM919.706 108.731V103.731H914.706V108.731H919.706ZM943.882 128.06V133.06H948.882V128.06H943.882ZM919.706 128.06H914.706V133.06H919.706V128.06ZM1024.47 70.0743V75.0743H1029.47V70.0743H1024.47ZM895.529 70.0743H890.529V75.0743H895.529V70.0743ZM915.086 47.4461L911.625 51.0542L911.625 51.0542L915.086 47.4461ZM892.09 73.3739L895.552 69.7658L892.09 73.3739ZM1027.91 73.3739L1031.37 76.982L1031.37 76.9819L1027.91 73.3739ZM1004.91 47.4461L1008.38 51.0542V51.0542L1004.91 47.4461ZM1027.91 82.2376L1031.37 78.6295L1031.37 78.6295L1027.91 82.2376ZM1025.06 82.2376L1028.52 85.8457L1028.52 85.8456L1025.06 82.2376ZM1023.88 158.42L1020.42 154.812L1020.42 154.812L1023.88 158.42ZM896.12 158.42L892.658 162.028L892.658 162.028L896.12 158.42ZM894.939 82.2376L891.478 85.8456L891.478 85.8456L894.939 82.2376ZM892.09 82.2376L895.552 85.8456L892.09 82.2376ZM982.163 55.7458C983.958 55.7458 985.719 55.0637 987.049 53.7878L980.126 46.5716C980.7 46.0207 981.436 45.7458 982.163 45.7458V55.7458ZM937.839 55.7458H982.163V45.7458H937.839V55.7458ZM932.953 53.7878C934.283 55.0637 936.044 55.7458 937.839 55.7458V45.7458C938.565 45.7458 939.302 46.0207 939.876 46.5716L932.953 53.7878ZM930.824 48.813C930.824 50.7202 931.616 52.5051 932.953 53.7878L939.876 46.5717C940.457 47.1293 940.824 47.931 940.824 48.813H930.824ZM932.953 43.8382C931.616 45.1208 930.824 46.9058 930.824 48.813H940.824C940.824 49.6949 940.457 50.4966 939.876 51.0543L932.953 43.8382ZM937.839 41.8801C936.044 41.8801 934.283 42.5623 932.953 43.8382L939.876 51.0543C939.302 51.6052 938.565 51.8801 937.839 51.8801V41.8801ZM982.163 41.8801H937.839V51.8801H982.163V41.8801ZM987.049 43.8382C985.719 42.5623 983.958 41.8801 982.163 41.8801V51.8801C981.436 51.8801 980.7 51.6052 980.126 51.0543L987.049 43.8382ZM989.177 48.813C989.177 46.9058 988.386 45.1209 987.049 43.8382L980.126 51.0543C979.544 50.4966 979.177 49.6949 979.177 48.813H989.177ZM987.049 53.7878C988.386 52.5051 989.177 50.7201 989.177 48.813H979.177C979.177 47.9311 979.544 47.1294 980.126 46.5717L987.049 53.7878ZM932.765 56.5444V41.0815H922.765V56.5444H932.765ZM930.637 61.5192C931.974 60.2365 932.765 58.4516 932.765 56.5444H922.765C922.765 55.6625 923.133 54.8608 923.714 54.3031L930.637 61.5192ZM925.751 63.4773C927.546 63.4773 929.307 62.7951 930.637 61.5192L923.714 54.3031C924.288 53.7522 925.024 53.4773 925.751 53.4773V63.4773ZM920.865 61.5192C922.195 62.7951 923.956 63.4773 925.751 63.4773V53.4773C926.477 53.4773 927.213 53.7522 927.788 54.3031L920.865 61.5192ZM918.736 56.5444C918.736 58.4516 919.528 60.2365 920.865 61.5192L927.788 54.3031C928.369 54.8608 928.736 55.6625 928.736 56.5444H918.736ZM918.736 41.0815V56.5444H928.736V41.0815H918.736ZM920.865 36.1067C919.528 37.3894 918.736 39.1744 918.736 41.0815H928.736C928.736 41.9635 928.369 42.7652 927.788 43.3229L920.865 36.1067ZM925.751 34.1487C923.956 34.1487 922.195 34.8308 920.865 36.1067L927.788 43.3229C927.213 43.8738 926.477 44.1487 925.751 44.1487V34.1487ZM930.637 36.1067C929.307 34.8308 927.546 34.1487 925.751 34.1487V44.1487C925.024 44.1487 924.288 43.8738 923.714 43.3229L930.637 36.1067ZM932.765 41.0815C932.765 39.1744 931.974 37.3894 930.637 36.1067L923.714 43.3229C923.133 42.7652 922.765 41.9635 922.765 41.0815H932.765ZM994.251 63.4773C996.046 63.4773 997.807 62.7951 999.137 61.5192L992.214 54.3031C992.788 53.7522 993.524 53.4773 994.251 53.4773V63.4773ZM989.365 61.5192C990.695 62.7951 992.456 63.4773 994.251 63.4773V53.4773C994.977 53.4773 995.713 53.7522 996.288 54.3031L989.365 61.5192ZM987.236 56.5444C987.236 58.4516 988.028 60.2365 989.365 61.5192L996.288 54.3031C996.869 54.8608 997.236 55.6625 997.236 56.5444H987.236ZM987.236 41.0815V56.5444H997.236V41.0815H987.236ZM989.365 36.1067C988.028 37.3894 987.236 39.1744 987.236 41.0815H997.236C997.236 41.9634 996.869 42.7651 996.288 43.3229L989.365 36.1067ZM994.251 34.1487C992.456 34.1487 990.695 34.8308 989.365 36.1067L996.288 43.3229C995.713 43.8738 994.977 44.1487 994.251 44.1487V34.1487ZM999.137 36.1067C997.807 34.8308 996.046 34.1487 994.251 34.1487V44.1487C993.524 44.1487 992.788 43.8738 992.214 43.3229L999.137 36.1067ZM1001.27 41.0815C1001.27 39.1743 1000.47 37.3894 999.137 36.1067L992.214 43.3229C991.633 42.7652 991.265 41.9635 991.265 41.0815H1001.27ZM1001.27 56.5444V41.0815H991.265V56.5444H1001.27ZM999.137 61.5192C1000.47 60.2366 1001.27 58.4516 1001.27 56.5444H991.265C991.265 55.6625 991.633 54.8608 992.214 54.3031L999.137 61.5192ZM911.669 132.234C911.095 132.785 910.359 133.06 909.632 133.06V123.06C907.837 123.06 906.076 123.742 904.746 125.018L911.669 132.234ZM912.618 129.993C912.618 130.875 912.251 131.677 911.669 132.234L904.746 125.018C903.409 126.301 902.618 128.086 902.618 129.993H912.618ZM911.669 127.752C912.251 128.309 912.618 129.111 912.618 129.993H902.618C902.618 131.9 903.409 133.685 904.746 134.968L911.669 127.752ZM909.632 126.926C910.359 126.926 911.095 127.201 911.669 127.752L904.746 134.968C906.076 136.244 907.837 136.926 909.632 136.926V126.926ZM915.676 126.926H909.632V136.926H915.676V126.926ZM920.676 145.456V131.926H910.676V145.456H920.676ZM919.728 143.214C920.309 143.772 920.676 144.574 920.676 145.456H910.676C910.676 147.363 911.468 149.148 912.805 150.431L919.728 143.214ZM917.691 142.389C918.418 142.389 919.154 142.664 919.728 143.214L912.805 150.431C914.135 151.706 915.896 152.389 917.691 152.389V142.389ZM915.654 143.214C916.229 142.664 916.965 142.389 917.691 142.389V152.389C919.486 152.389 921.247 151.706 922.577 150.431L915.654 143.214ZM914.706 145.456C914.706 144.574 915.073 143.772 915.654 143.214L922.577 150.431C923.914 149.148 924.706 147.363 924.706 145.456H914.706ZM914.706 131.926V145.456H924.706V131.926H914.706ZM943.882 126.926H919.706V136.926H943.882V126.926ZM948.882 145.456V131.926H938.882V145.456H948.882ZM947.934 143.214C948.515 143.772 948.882 144.574 948.882 145.456H938.882C938.882 147.363 939.674 149.148 941.011 150.431L947.934 143.214ZM945.897 142.389C946.623 142.389 947.36 142.664 947.934 143.214L941.011 150.431C942.341 151.706 944.102 152.389 945.897 152.389V142.389ZM943.86 143.214C944.434 142.663 945.171 142.389 945.897 142.389V152.389C947.692 152.389 949.453 151.706 950.783 150.431L943.86 143.214ZM942.912 145.456C942.912 144.574 943.279 143.772 943.86 143.214L950.783 150.431C952.12 149.148 952.912 147.363 952.912 145.456H942.912ZM942.912 131.926V145.456H952.912V131.926H942.912ZM972.088 126.926H947.912V136.926H972.088V126.926ZM977.088 145.456V131.926H967.088V145.456H977.088ZM976.14 143.214C976.721 143.772 977.088 144.574 977.088 145.456H967.088C967.088 147.363 967.88 149.148 969.217 150.431L976.14 143.214ZM974.103 142.389C974.829 142.389 975.566 142.663 976.14 143.214L969.217 150.431C970.547 151.706 972.308 152.389 974.103 152.389V142.389ZM972.066 143.214C972.64 142.663 973.377 142.389 974.103 142.389V152.389C975.898 152.389 977.659 151.706 978.989 150.431L972.066 143.214ZM971.118 145.456C971.118 144.574 971.485 143.772 972.066 143.214L978.989 150.431C980.326 149.148 981.118 147.363 981.118 145.456H971.118ZM971.118 131.926V145.456H981.118V131.926H971.118ZM1000.29 126.926H976.118V136.926H1000.29V126.926ZM1005.29 145.456V131.926H995.294V145.456H1005.29ZM1004.35 143.214C1004.93 143.772 1005.29 144.574 1005.29 145.456H995.294C995.294 147.363 996.086 149.148 997.423 150.431L1004.35 143.214ZM1002.31 142.389C1003.04 142.389 1003.77 142.663 1004.35 143.214L997.423 150.431C998.753 151.706 1000.51 152.389 1002.31 152.389V142.389ZM1000.27 143.214C1000.85 142.663 1001.58 142.389 1002.31 142.389V152.389C1004.1 152.389 1005.87 151.706 1007.19 150.431L1000.27 143.214ZM999.324 145.456C999.324 144.574 999.691 143.772 1000.27 143.214L1007.19 150.431C1008.53 149.148 1009.32 147.363 1009.32 145.456H999.324ZM999.324 131.926V145.456H1009.32V131.926H999.324ZM1010.37 126.926H1004.32V136.926H1010.37V126.926ZM1008.33 127.752C1008.91 127.201 1009.64 126.926 1010.37 126.926V136.926C1012.16 136.926 1013.92 136.244 1015.25 134.968L1008.33 127.752ZM1007.38 129.993C1007.38 129.111 1007.75 128.309 1008.33 127.752L1015.25 134.968C1016.59 133.685 1017.38 131.9 1017.38 129.993H1007.38ZM1008.33 132.234C1007.75 131.677 1007.38 130.875 1007.38 129.993H1017.38C1017.38 128.086 1016.59 126.301 1015.25 125.018L1008.33 132.234ZM1010.37 133.06C1009.64 133.06 1008.91 132.785 1008.33 132.234L1015.25 125.018C1013.92 123.742 1012.16 123.06 1010.37 123.06V133.06ZM1004.32 133.06H1010.37V123.06H1004.32V133.06ZM999.324 108.731V128.06H1009.32V108.731H999.324ZM1010.37 103.731H1004.32V113.731H1010.37V103.731ZM1008.33 104.557C1008.91 104.006 1009.64 103.731 1010.37 103.731V113.731C1012.16 113.731 1013.92 113.049 1015.25 111.773L1008.33 104.557ZM1007.38 106.799C1007.38 105.917 1007.75 105.115 1008.33 104.557L1015.25 111.773C1016.59 110.491 1017.38 108.706 1017.38 106.799H1007.38ZM1008.33 109.04C1007.75 108.482 1007.38 107.681 1007.38 106.799H1017.38C1017.38 104.891 1016.59 103.106 1015.25 101.824L1008.33 109.04ZM1010.37 109.866C1009.64 109.866 1008.91 109.591 1008.33 109.04L1015.25 101.824C1013.92 100.548 1012.16 99.8657 1010.37 99.8657V109.866ZM1004.32 109.866H1010.37V99.8657H1004.32V109.866ZM999.324 87.47V104.866H1009.32V87.47H999.324ZM1000.27 89.7113C999.691 89.1536 999.324 88.3519 999.324 87.47H1009.32C1009.32 85.5628 1008.53 83.7778 1007.19 82.4952L1000.27 89.7113ZM1002.31 90.5371C1001.58 90.5371 1000.85 90.2623 1000.27 89.7113L1007.19 82.4952C1005.86 81.2193 1004.1 80.5371 1002.31 80.5371V90.5371ZM1004.35 89.7113C1003.77 90.2623 1003.04 90.5371 1002.31 90.5371V80.5371C1000.51 80.5371 998.753 81.2193 997.423 82.4952L1004.35 89.7113ZM1005.29 87.47C1005.29 88.3519 1004.93 89.1536 1004.35 89.7113L997.423 82.4952C996.086 83.7779 995.294 85.5628 995.294 87.47H1005.29ZM1005.29 104.866V87.47H995.294V104.866H1005.29ZM976.118 109.866H1000.29V99.8657H976.118V109.866ZM971.118 87.47V104.866H981.118V87.47H971.118ZM972.066 89.7113C971.485 89.1536 971.118 88.3519 971.118 87.47H981.118C981.118 85.5628 980.326 83.7779 978.989 82.4952L972.066 89.7113ZM974.103 90.5371C973.377 90.5371 972.64 90.2623 972.066 89.7113L978.989 82.4952C977.659 81.2193 975.898 80.5371 974.103 80.5371V90.5371ZM976.14 89.7113C975.566 90.2623 974.829 90.5371 974.103 90.5371V80.5371C972.308 80.5371 970.547 81.2193 969.217 82.4952L976.14 89.7113ZM977.088 87.47C977.088 88.3519 976.721 89.1536 976.14 89.7113L969.217 82.4952C967.88 83.7778 967.088 85.5628 967.088 87.47H977.088ZM977.088 104.866V87.47H967.088V104.866H977.088ZM947.912 109.866H972.088V99.8657H947.912V109.866ZM942.912 87.47V104.866H952.912V87.47H942.912ZM943.86 89.7113C943.279 89.1536 942.912 88.3519 942.912 87.47H952.912C952.912 85.5628 952.12 83.7779 950.783 82.4952L943.86 89.7113ZM945.897 90.5371C945.171 90.5371 944.434 90.2623 943.86 89.7113L950.783 82.4952C949.453 81.2193 947.692 80.5371 945.897 80.5371V90.5371ZM947.934 89.7113C947.36 90.2622 946.623 90.5371 945.897 90.5371V80.5371C944.102 80.5371 942.341 81.2193 941.011 82.4952L947.934 89.7113ZM948.882 87.47C948.882 88.3519 948.515 89.1536 947.934 89.7113L941.011 82.4952C939.674 83.7779 938.882 85.5628 938.882 87.47H948.882ZM948.882 104.866V87.47H938.882V104.866H948.882ZM919.706 109.866H943.882V99.8657H919.706V109.866ZM914.706 87.47V104.866H924.706V87.47H914.706ZM915.654 89.7113C915.073 89.1536 914.706 88.3519 914.706 87.47H924.706C924.706 85.5628 923.914 83.7779 922.577 82.4952L915.654 89.7113ZM917.691 90.5371C916.965 90.5371 916.229 90.2622 915.654 89.7113L922.577 82.4952C921.247 81.2193 919.486 80.5371 917.691 80.5371V90.5371ZM919.728 89.7113C919.154 90.2622 918.418 90.5371 917.691 90.5371V80.5371C915.896 80.5371 914.135 81.2193 912.805 82.4952L919.728 89.7113ZM920.676 87.47C920.676 88.3519 920.309 89.1536 919.728 89.7113L912.805 82.4952C911.468 83.7779 910.676 85.5628 910.676 87.47H920.676ZM920.676 104.866V87.47H910.676V104.866H920.676ZM909.632 109.866H915.676V99.8657H909.632V109.866ZM911.669 109.04C911.095 109.591 910.359 109.866 909.632 109.866V99.8657C907.837 99.8657 906.076 100.548 904.746 101.824L911.669 109.04ZM912.618 106.799C912.618 107.681 912.251 108.482 911.669 109.04L904.746 101.824C903.409 103.106 902.618 104.891 902.618 106.799H912.618ZM911.669 104.557C912.251 105.115 912.618 105.917 912.618 106.799H902.618C902.618 108.706 903.409 110.491 904.746 111.773L911.669 104.557ZM909.632 103.731C910.359 103.731 911.095 104.006 911.669 104.557L904.746 111.773C906.076 113.049 907.837 113.731 909.632 113.731V103.731ZM915.676 103.731H909.632V113.731H915.676V103.731ZM920.676 128.06V108.731H910.676V128.06H920.676ZM909.632 133.06H915.676V123.06H909.632V133.06ZM1005.29 128.06V108.731H995.294V128.06H1005.29ZM976.118 133.06H1000.29V123.06H976.118V133.06ZM971.118 108.731V128.06H981.118V108.731H971.118ZM1000.29 103.731H976.118V113.731H1000.29V103.731ZM977.088 128.06V108.731H967.088V128.06H977.088ZM947.912 133.06H972.088V123.06H947.912V133.06ZM942.912 108.731V128.06H952.912V108.731H942.912ZM972.088 103.731H947.912V113.731H972.088V103.731ZM943.882 103.731H919.706V113.731H943.882V103.731ZM948.882 128.06V108.731H938.882V128.06H948.882ZM919.706 133.06H943.882V123.06H919.706V133.06ZM914.706 108.731V128.06H924.706V108.731H914.706ZM1023.46 45.7457H1006.34V55.7457H1023.46V45.7457ZM1029.47 52.6785C1029.47 51.4439 1029.32 49.3911 1027.89 47.725C1026.09 45.6352 1023.68 45.7457 1023.46 45.7457V55.7457C1023.6 55.7457 1023.07 55.7686 1022.45 55.6001C1021.7 55.3953 1020.92 54.9591 1020.31 54.2496C1019.76 53.6092 1019.57 53.0032 1019.51 52.7587C1019.45 52.5163 1019.47 52.4498 1019.47 52.6785H1029.47ZM1029.47 70.0743V52.6785H1019.47V70.0743H1029.47ZM895.529 75.0743H1024.47V65.0743H895.529V75.0743ZM890.529 52.6785V70.0743H900.529V52.6785H890.529ZM892.658 47.7037C891.321 48.9864 890.529 50.7714 890.529 52.6785H900.529C900.529 53.5605 900.162 54.3622 899.581 54.9199L892.658 47.7037ZM897.544 45.7457C895.749 45.7457 893.988 46.4279 892.658 47.7037L899.581 54.9199C899.007 55.4708 898.27 55.7457 897.544 55.7457V45.7457ZM913.662 45.7457H897.544V55.7457H913.662V45.7457ZM911.625 46.5715C912.199 46.0206 912.935 45.7457 913.662 45.7457V55.7457C915.457 55.7457 917.218 55.0635 918.548 53.7876L911.625 46.5715ZM910.676 48.8128C910.676 47.9309 911.044 47.1292 911.625 46.5715L918.548 53.7876C919.885 52.505 920.676 50.72 920.676 48.8128H910.676ZM911.625 51.0542C911.044 50.4965 910.676 49.6948 910.676 48.8128H920.676C920.676 46.9056 919.885 45.1207 918.548 43.838L911.625 51.0542ZM913.662 51.88C912.935 51.88 912.199 51.6051 911.625 51.0542L918.548 43.838C917.218 42.5621 915.457 41.88 913.662 41.88V51.88ZM897.544 51.88H913.662V41.88H897.544V51.88ZM896.5 52.6785C896.5 52.5339 896.554 52.361 896.734 52.1885C896.917 52.0127 897.195 51.88 897.544 51.88V41.88C891.648 41.88 886.5 46.5268 886.5 52.6785H896.5ZM896.5 72.0071V52.6785H886.5V72.0071H896.5ZM895.552 69.7658C896.133 70.3235 896.5 71.1252 896.5 72.0071H886.5C886.5 73.9143 887.292 75.6993 888.629 76.9819L895.552 69.7658ZM893.515 68.94C894.241 68.94 894.977 69.2149 895.552 69.7658L888.629 76.9819C889.959 78.2578 891.72 78.94 893.515 78.94V68.94ZM1026.49 68.94H893.515V78.94H1026.49V68.94ZM1024.45 69.7658C1025.02 69.2149 1025.76 68.94 1026.49 68.94V78.94C1028.28 78.94 1030.04 78.2578 1031.37 76.982L1024.45 69.7658ZM1023.5 72.0071C1023.5 71.1252 1023.87 70.3235 1024.45 69.7658L1031.37 76.9819C1032.71 75.6993 1033.5 73.9143 1033.5 72.0071H1023.5ZM1023.5 52.6785V72.0071H1033.5V52.6785H1023.5ZM1023.46 51.88C1023.68 51.88 1023.6 51.9459 1023.43 51.7858C1023.35 51.7085 1023.35 51.6642 1023.38 51.7412C1023.41 51.8318 1023.5 52.1144 1023.5 52.6785H1033.5C1033.5 49.489 1032.5 46.6199 1030.35 44.5661C1028.28 42.5756 1025.68 41.88 1023.46 41.88V51.88ZM1006.34 51.88H1023.46V41.88H1006.34V51.88ZM1008.38 51.0542C1007.8 51.6051 1007.06 51.88 1006.34 51.88V41.88C1004.54 41.88 1002.78 42.5621 1001.45 43.838L1008.38 51.0542ZM1009.32 48.8128C1009.32 49.6947 1008.96 50.4964 1008.38 51.0542L1001.45 43.838C1000.12 45.1207 999.324 46.9057 999.324 48.8128H1009.32ZM1008.38 46.5715C1008.96 47.1292 1009.32 47.9309 1009.32 48.8128H999.324C999.324 50.72 1000.12 52.5049 1001.45 53.7876L1008.38 46.5715ZM1006.34 45.7457C1007.06 45.7457 1007.8 46.0206 1008.38 46.5715L1001.45 53.7876C1002.78 55.0635 1004.54 55.7457 1006.34 55.7457V45.7457ZM1023.5 83.6043V157.053H1033.5V83.6043H1023.5ZM1024.45 85.8456C1023.87 85.2879 1023.5 84.4863 1023.5 83.6043H1033.5C1033.5 81.6971 1032.71 79.9122 1031.37 78.6295L1024.45 85.8456ZM1026.49 86.6715C1025.76 86.6715 1025.02 86.3966 1024.45 85.8457L1031.37 78.6295C1030.04 77.3536 1028.28 76.6715 1026.49 76.6715V86.6715ZM1028.52 85.8456C1027.95 86.3966 1027.21 86.6715 1026.49 86.6715V76.6715C1024.69 76.6715 1022.93 77.3536 1021.6 78.6295L1028.52 85.8456ZM1029.47 83.6043C1029.47 84.4862 1029.1 85.2879 1028.52 85.8457L1021.6 78.6295C1020.26 79.9122 1019.47 81.6972 1019.47 83.6043H1029.47ZM1029.47 157.053V83.6043H1019.47V157.053H1029.47ZM1027.34 162.028C1028.68 160.745 1029.47 158.96 1029.47 157.053H1019.47C1019.47 156.171 1019.84 155.369 1020.42 154.812L1027.34 162.028ZM1022.46 163.986C1024.25 163.986 1026.01 163.304 1027.34 162.028L1020.42 154.812C1020.99 154.261 1021.73 153.986 1022.46 153.986V163.986ZM897.544 163.986H1022.46V153.986H897.544V163.986ZM892.658 162.028C893.988 163.304 895.749 163.986 897.544 163.986V153.986C898.27 153.986 899.007 154.261 899.581 154.812L892.658 162.028ZM890.529 157.053C890.529 158.96 891.321 160.745 892.658 162.028L899.581 154.812C900.162 155.369 900.529 156.171 900.529 157.053H890.529ZM890.529 83.6043V157.053H900.529V83.6043H890.529ZM891.478 85.8456C890.897 85.2879 890.529 84.4863 890.529 83.6043H900.529C900.529 81.6971 899.738 79.9122 898.401 78.6295L891.478 85.8456ZM893.515 86.6715C892.788 86.6715 892.052 86.3966 891.478 85.8456L898.401 78.6295C897.071 77.3536 895.31 76.6715 893.515 76.6715V86.6715ZM895.552 85.8456C894.977 86.3966 894.241 86.6715 893.515 86.6715V76.6715C891.72 76.6715 889.959 77.3536 888.629 78.6295L895.552 85.8456ZM896.5 83.6043C896.5 84.4863 896.133 85.2879 895.552 85.8456L888.629 78.6295C887.292 79.9122 886.5 81.6971 886.5 83.6043H896.5ZM896.5 157.053V83.6043H886.5V157.053H896.5ZM897.544 157.852C897.195 157.852 896.917 157.719 896.734 157.543C896.554 157.37 896.5 157.198 896.5 157.053H886.5C886.5 163.205 891.648 167.852 897.544 167.852V157.852ZM1022.46 157.852H897.544V167.852H1022.46V157.852ZM1023.5 157.053C1023.5 157.198 1023.45 157.37 1023.27 157.543C1023.08 157.719 1022.8 157.852 1022.46 157.852V167.852C1028.35 167.852 1033.5 163.205 1033.5 157.053H1023.5Z" fill="#717250" mask="url(#path-9-outside-1_2309_1498)"/>
<path d="M870.857 213.445C868.352 213.445 866.147 213.203 864.243 212.72C862.354 212.236 860.596 211.636 858.97 210.918V203.14H859.717C861.357 204.531 863.167 205.601 865.144 206.348C867.122 207.095 869.041 207.468 870.901 207.468C871.37 207.468 871.985 207.417 872.747 207.314C873.523 207.212 874.146 207.051 874.614 206.831C875.186 206.582 875.669 206.238 876.064 205.798C876.46 205.344 876.658 204.751 876.658 204.019C876.658 203.198 876.335 202.532 875.691 202.019C875.046 201.506 874.277 201.133 873.384 200.898C872.271 200.605 871.077 200.327 869.802 200.063C868.542 199.8 867.363 199.478 866.265 199.097C863.73 198.203 861.914 197.002 860.815 195.493C859.717 193.984 859.167 192.095 859.167 189.824C859.167 186.763 860.464 184.287 863.057 182.397C865.649 180.493 868.887 179.541 872.769 179.541C874.717 179.541 876.65 179.739 878.569 180.134C880.503 180.53 882.231 181.064 883.755 181.738V189.209H883.03C881.814 188.169 880.327 187.29 878.569 186.572C876.826 185.854 875.032 185.496 873.186 185.496C872.468 185.496 871.824 185.547 871.252 185.649C870.681 185.752 870.081 185.95 869.451 186.243C868.938 186.477 868.491 186.829 868.11 187.297C867.744 187.751 867.561 188.264 867.561 188.835C867.561 189.67 867.854 190.337 868.44 190.835C869.041 191.318 870.19 191.758 871.89 192.153C872.988 192.402 874.043 192.644 875.054 192.878C876.079 193.113 877.17 193.435 878.328 193.845C880.598 194.666 882.283 195.771 883.381 197.163C884.495 198.54 885.051 200.364 885.051 202.634C885.051 205.886 883.77 208.501 881.206 210.479C878.657 212.456 875.208 213.445 870.857 213.445ZM900.938 213.511C898.901 213.511 897.034 213.254 895.334 212.742C893.65 212.229 892.185 211.438 890.94 210.369C889.709 209.299 888.75 207.959 888.062 206.348C887.373 204.722 887.029 202.81 887.029 200.613C887.029 198.254 887.402 196.248 888.149 194.592C888.896 192.937 889.907 191.575 891.182 190.505C892.412 189.48 893.855 188.726 895.51 188.242C897.18 187.744 898.916 187.495 900.718 187.495C902.08 187.495 903.442 187.656 904.805 187.979C906.167 188.286 907.537 188.784 908.914 189.473V196.064H907.925C907.617 195.771 907.236 195.449 906.782 195.098C906.343 194.746 905.859 194.424 905.332 194.131C904.775 193.823 904.146 193.567 903.442 193.362C902.739 193.142 901.956 193.032 901.091 193.032C899.128 193.032 897.605 193.721 896.521 195.098C895.452 196.46 894.917 198.298 894.917 200.613C894.917 203.088 895.488 204.934 896.631 206.15C897.788 207.366 899.319 207.974 901.223 207.974C902.19 207.974 903.04 207.864 903.772 207.644C904.504 207.424 905.134 207.161 905.662 206.853C906.174 206.545 906.614 206.23 906.98 205.908C907.346 205.571 907.661 205.271 907.925 205.007H908.914V211.599C908.474 211.79 907.961 212.009 907.375 212.258C906.804 212.507 906.218 212.712 905.618 212.874C904.871 213.079 904.167 213.232 903.508 213.335C902.864 213.452 902.007 213.511 900.938 213.511ZM935.676 212.852H927.942V200.613C927.942 199.617 927.898 198.628 927.81 197.646C927.737 196.65 927.59 195.918 927.371 195.449C927.107 194.893 926.726 194.497 926.228 194.263C925.73 194.014 925.063 193.889 924.229 193.889C923.599 193.889 922.961 194.006 922.317 194.241C921.672 194.475 920.984 194.849 920.251 195.361V212.852H912.561V178.662H920.251V190.901C921.511 189.832 922.734 188.997 923.921 188.396C925.122 187.795 926.448 187.495 927.898 187.495C930.417 187.495 932.344 188.293 933.677 189.89C935.01 191.472 935.676 193.772 935.676 196.79V212.852ZM954.023 213.511C949.365 213.511 945.791 212.397 943.301 210.171C940.825 207.944 939.587 204.773 939.587 200.657C939.587 196.628 940.745 193.413 943.059 191.011C945.374 188.608 948.611 187.407 952.771 187.407C956.55 187.407 959.392 188.425 961.296 190.461C963.201 192.498 964.153 195.413 964.153 199.207V201.975H947.3C947.373 203.118 947.615 204.077 948.025 204.854C948.435 205.615 948.977 206.223 949.651 206.677C950.31 207.131 951.079 207.461 951.958 207.666C952.837 207.856 953.796 207.952 954.836 207.952C955.73 207.952 956.609 207.856 957.473 207.666C958.337 207.461 959.128 207.197 959.846 206.875C960.476 206.597 961.055 206.296 961.582 205.974C962.124 205.652 962.563 205.366 962.9 205.117H963.713V211.467C963.083 211.716 962.505 211.951 961.978 212.17C961.465 212.375 960.754 212.588 959.846 212.808C959.011 213.027 958.147 213.196 957.253 213.313C956.375 213.445 955.298 213.511 954.023 213.511ZM956.572 197.339C956.528 195.713 956.147 194.475 955.43 193.625C954.727 192.776 953.643 192.351 952.178 192.351C950.684 192.351 949.512 192.798 948.662 193.691C947.827 194.585 947.366 195.801 947.278 197.339H956.572ZM990.542 212.852H982.852V210.281C982.354 210.691 981.782 211.13 981.138 211.599C980.508 212.068 979.951 212.419 979.468 212.654C978.853 212.947 978.245 213.167 977.644 213.313C977.043 213.459 976.326 213.533 975.491 213.533C972.678 213.533 970.452 212.368 968.811 210.039C967.17 207.71 966.35 204.597 966.35 200.701C966.35 198.547 966.628 196.68 967.185 195.098C967.742 193.516 968.511 192.139 969.492 190.967C970.386 189.897 971.47 189.055 972.744 188.44C974.019 187.81 975.366 187.495 976.787 187.495C978.076 187.495 979.131 187.634 979.951 187.913C980.786 188.176 981.753 188.594 982.852 189.165V178.662H990.542V212.852ZM982.852 206.04V193.933C982.471 193.743 981.973 193.589 981.357 193.472C980.742 193.34 980.215 193.274 979.775 193.274C977.93 193.274 976.538 193.918 975.601 195.208C974.678 196.497 974.216 198.298 974.216 200.613C974.216 203.044 974.583 204.802 975.315 205.886C976.062 206.97 977.263 207.512 978.918 207.512C979.592 207.512 980.273 207.38 980.962 207.117C981.65 206.853 982.28 206.494 982.852 206.04ZM1019.37 212.852H1011.68V210.127C1010.35 211.24 1009.12 212.09 1008.01 212.676C1006.9 213.247 1005.57 213.533 1004.03 213.533C1001.59 213.533 999.675 212.764 998.298 211.226C996.936 209.673 996.255 207.344 996.255 204.238V188.176H1003.99V200.415C1003.99 201.689 1004.02 202.729 1004.08 203.535C1004.15 204.341 1004.31 205.022 1004.56 205.579C1004.79 206.091 1005.15 206.479 1005.64 206.743C1006.14 207.007 1006.82 207.139 1007.7 207.139C1008.24 207.139 1008.88 207.007 1009.61 206.743C1010.36 206.479 1011.05 206.121 1011.68 205.667V188.176H1019.37V212.852ZM1032.97 212.852H1025.28V178.662H1032.97V212.852ZM1051.49 213.511C1046.84 213.511 1043.26 212.397 1040.77 210.171C1038.3 207.944 1037.06 204.773 1037.06 200.657C1037.06 196.628 1038.22 193.413 1040.53 191.011C1042.84 188.608 1046.08 187.407 1050.24 187.407C1054.02 187.407 1056.86 188.425 1058.77 190.461C1060.67 192.498 1061.62 195.413 1061.62 199.207V201.975H1044.77C1044.84 203.118 1045.09 204.077 1045.5 204.854C1045.91 205.615 1046.45 206.223 1047.12 206.677C1047.78 207.131 1048.55 207.461 1049.43 207.666C1050.31 207.856 1051.27 207.952 1052.31 207.952C1053.2 207.952 1054.08 207.856 1054.94 207.666C1055.81 207.461 1056.6 207.197 1057.32 206.875C1057.95 206.597 1058.53 206.296 1059.05 205.974C1059.59 205.652 1060.03 205.366 1060.37 205.117H1061.18V211.467C1060.55 211.716 1059.98 211.951 1059.45 212.17C1058.94 212.375 1058.23 212.588 1057.32 212.808C1056.48 213.027 1055.62 213.196 1054.72 213.313C1053.85 213.445 1052.77 213.511 1051.49 213.511ZM1054.04 197.339C1054 195.713 1053.62 194.475 1052.9 193.625C1052.2 192.776 1051.11 192.351 1049.65 192.351C1048.15 192.351 1046.98 192.798 1046.13 193.691C1045.3 194.585 1044.84 195.801 1044.75 197.339H1054.04Z" fill="black"/>
<g filter="url(#filter2_b_2309_1498)">
<rect x="1211.5" y="40" width="230" height="177" rx="30" fill="white" fill-opacity="0.5"/>
<path d="M1284.5 61.5C1282.57 61.5 1281 62.9232 1281 64.6697V115.384C1281 117.131 1282.57 118.554 1284.5 118.554H1340.58C1342.51 118.554 1344.08 117.131 1344.08 115.384V64.6697C1344.08 62.9232 1342.51 61.5 1340.58 61.5H1284.5ZM1288.01 67.8393H1337.07V105.875H1288.01V67.8393ZM1347.59 70.7111V77.1487L1353.94 78.1408L1347.59 111.422V115.384C1347.59 118.884 1344.44 121.724 1340.58 121.724H1303.45L1347.92 128.659C1348.83 128.803 1349.77 128.612 1350.53 128.129C1351.29 127.646 1351.81 126.909 1351.97 126.082L1361.39 76.0615C1361.47 75.6514 1361.46 75.2312 1361.36 74.8249C1361.26 74.4186 1361.07 74.0341 1360.8 73.6934C1360.54 73.3528 1360.2 73.0627 1359.81 72.8398C1359.42 72.6168 1358.99 72.4654 1358.54 72.3942L1347.59 70.7142V70.7111ZM1312.54 73.979C1308.51 73.979 1305.09 76.4894 1305.09 81.2122C1305.09 84.2995 1306.61 87.3994 1308.71 89.3329C1309.53 91.2664 1308.13 92.0018 1307.83 92.1064C1303.6 93.4884 1298.63 96.0526 1298.63 98.544V102.608H1326.45V98.5472C1326.45 95.9797 1321.47 93.4313 1317.03 92.1064C1316.83 92.0462 1315.57 91.5358 1316.37 89.3329C1318.46 87.3994 1320.1 84.2836 1320.1 81.2122C1320.1 76.4894 1316.57 73.979 1312.54 73.979ZM1363.03 86.5626L1361.82 92.8005L1364.34 93.295L1354.7 130.342L1353.28 130.044C1352.5 130.741 1351.54 131.257 1350.5 131.55C1349.45 131.843 1348.34 131.904 1347.26 131.727L1298.74 124.199L1297.75 127.968C1297.55 128.795 1297.7 129.661 1298.2 130.383C1298.69 131.104 1299.47 131.623 1300.38 131.829L1354.92 143.42C1355.83 143.607 1356.79 143.463 1357.59 143.019C1358.39 142.574 1358.96 141.865 1359.19 141.043L1371.9 91.707C1372.35 90.0081 1371.27 88.2489 1369.38 87.8432L1363.03 86.5563L1363.03 86.5626Z" fill="#4C4C4E"/>
<path d="M1293.72 188.255C1292.76 188.646 1291.51 189.026 1289.98 189.397C1288.46 189.769 1286.95 189.954 1285.47 189.954C1282.04 189.954 1279.31 188.968 1277.27 186.995C1275.24 185.013 1274.22 182.205 1274.22 178.572C1274.22 175.154 1275.24 172.415 1277.27 170.354C1279.31 168.294 1282.1 167.264 1285.63 167.264C1287.46 167.264 1288.94 167.439 1290.08 167.791C1291.23 168.133 1292.41 168.602 1293.63 169.197V174.31H1293.13C1292.87 174.104 1292.49 173.816 1291.99 173.445C1291.5 173.064 1291.02 172.742 1290.55 172.479C1290.01 172.166 1289.37 171.897 1288.65 171.673C1287.94 171.448 1287.18 171.336 1286.38 171.336C1285.44 171.336 1284.59 171.482 1283.81 171.775C1283.04 172.068 1282.35 172.518 1281.75 173.123C1281.17 173.709 1280.71 174.451 1280.37 175.35C1280.04 176.248 1279.87 177.293 1279.87 178.484C1279.87 181.033 1280.51 182.913 1281.79 184.124C1283.07 185.335 1284.82 185.94 1287.04 185.94C1287.23 185.94 1287.46 185.936 1287.73 185.926C1287.99 185.916 1288.22 185.901 1288.41 185.882V181.604H1284.18V177.518H1293.72V188.255ZM1306.62 185.208V181.78C1305.75 181.868 1305.05 181.946 1304.51 182.015C1303.98 182.073 1303.45 182.195 1302.93 182.381C1302.48 182.537 1302.13 182.776 1301.88 183.099C1301.63 183.411 1301.51 183.831 1301.51 184.358C1301.51 185.13 1301.71 185.662 1302.12 185.955C1302.54 186.238 1303.16 186.38 1303.97 186.38C1304.42 186.38 1304.88 186.277 1305.35 186.072C1305.82 185.867 1306.24 185.579 1306.62 185.208ZM1306.62 187.757C1306.27 188.05 1305.95 188.313 1305.67 188.548C1305.4 188.782 1305.03 189.017 1304.56 189.251C1304.1 189.476 1303.65 189.646 1303.21 189.764C1302.78 189.881 1302.17 189.939 1301.39 189.939C1299.94 189.939 1298.73 189.451 1297.76 188.475C1296.8 187.498 1296.32 186.268 1296.32 184.783C1296.32 183.562 1296.57 182.576 1297.06 181.824C1297.54 181.072 1298.25 180.477 1299.17 180.037C1300.09 179.588 1301.2 179.275 1302.49 179.1C1303.78 178.924 1305.17 178.787 1306.65 178.689V178.602C1306.65 177.693 1306.31 177.068 1305.64 176.727C1304.98 176.375 1303.98 176.199 1302.64 176.199C1302.03 176.199 1301.32 176.312 1300.51 176.536C1299.7 176.751 1298.91 177.029 1298.14 177.371H1297.7V173.401C1298.21 173.255 1299.03 173.084 1300.16 172.889C1301.29 172.684 1302.44 172.581 1303.59 172.581C1306.42 172.581 1308.48 173.055 1309.77 174.002C1311.07 174.939 1311.72 176.375 1311.72 178.309V189.5H1306.62V187.757ZM1320.64 189.5H1315.51V166.707H1320.64V189.5ZM1329.69 189.5H1324.57V166.707H1329.69V189.5ZM1342.04 189.939C1338.94 189.939 1336.55 189.197 1334.89 187.713C1333.24 186.229 1332.42 184.114 1332.42 181.37C1332.42 178.685 1333.19 176.541 1334.73 174.939C1336.28 173.338 1338.43 172.537 1341.21 172.537C1343.73 172.537 1345.62 173.216 1346.89 174.573C1348.16 175.931 1348.79 177.874 1348.79 180.403V182.249H1337.56C1337.61 183.011 1337.77 183.65 1338.04 184.168C1338.32 184.676 1338.68 185.081 1339.13 185.384C1339.57 185.687 1340.08 185.906 1340.67 186.043C1341.25 186.17 1341.89 186.233 1342.58 186.233C1343.18 186.233 1343.77 186.17 1344.34 186.043C1344.92 185.906 1345.45 185.73 1345.92 185.516C1346.34 185.33 1346.73 185.13 1347.08 184.915C1347.44 184.7 1347.74 184.51 1347.96 184.344H1348.5V188.577C1348.08 188.743 1347.7 188.899 1347.34 189.046C1347 189.183 1346.53 189.324 1345.92 189.471C1345.37 189.617 1344.79 189.729 1344.2 189.808C1343.61 189.896 1342.89 189.939 1342.04 189.939ZM1343.74 179.158C1343.71 178.074 1343.46 177.249 1342.98 176.683C1342.51 176.116 1341.79 175.833 1340.81 175.833C1339.82 175.833 1339.03 176.131 1338.47 176.727C1337.91 177.322 1337.6 178.133 1337.54 179.158H1343.74ZM1362.48 177.898H1362.05C1361.86 177.83 1361.57 177.781 1361.2 177.752C1360.83 177.713 1360.42 177.693 1359.97 177.693C1359.43 177.693 1358.87 177.771 1358.27 177.928C1357.69 178.084 1357.12 178.27 1356.56 178.484V189.5H1351.43V173.05H1356.56V175.408C1356.79 175.193 1357.12 174.925 1357.53 174.603C1357.95 174.271 1358.33 174.007 1358.67 173.812C1359.04 173.587 1359.47 173.396 1359.96 173.24C1360.46 173.074 1360.92 172.991 1361.36 172.991C1361.53 172.991 1361.71 172.996 1361.92 173.006C1362.12 173.016 1362.31 173.03 1362.48 173.05V177.898ZM1379.79 173.05L1371.49 195.535H1365.98L1368.47 189.104L1362.43 173.05H1367.82L1371.28 183.362L1374.52 173.05H1379.79Z" fill="#4C4C4E"/>
</g>
<g filter="url(#filter3_b_2309_1498)">
<rect x="1541.5" y="61" width="191" height="135" rx="30" fill="white" fill-opacity="0.5"/>
<path d="M1663.85 91.6899L1657.7 118.039H1623.62L1617.47 91.6899H1663.85Z" stroke="#4C4C4E" stroke-width="5"/>
<path d="M1607 79.7856H1612.12L1614.32 89.1904M1614.32 89.1904L1621.63 120.539H1659.68L1667 89.1904H1614.32Z" stroke="#4C4C4E" stroke-width="4" stroke-linecap="round" stroke-linejoin="round"/>
<path d="M1621.63 136.214C1624.06 136.214 1626.02 134.109 1626.02 131.512C1626.02 128.915 1624.06 126.81 1621.63 126.81C1619.21 126.81 1617.24 128.915 1617.24 131.512C1617.24 134.109 1619.21 136.214 1621.63 136.214Z" stroke="#4C4C4E" stroke-width="4" stroke-linecap="round" stroke-linejoin="round"/>
<path d="M1659.68 136.214C1662.11 136.214 1664.07 134.109 1664.07 131.512C1664.07 128.915 1662.11 126.81 1659.68 126.81C1657.26 126.81 1655.29 128.915 1655.29 131.512C1655.29 134.109 1657.26 136.214 1659.68 136.214Z" stroke="#4C4C4E" stroke-width="4" stroke-linecap="round" stroke-linejoin="round"/>
<path d="M1634.8 104.865H1646.51M1640.66 111.135V98.5955" stroke="#4C4C4E" stroke-width="5" stroke-linecap="round" stroke-linejoin="round"/>
<path d="M1583.33 171.61C1581.66 171.61 1580.19 171.449 1578.92 171.126C1577.66 170.804 1576.49 170.404 1575.4 169.925V164.74H1575.9C1577 165.667 1578.2 166.38 1579.52 166.878C1580.84 167.376 1582.12 167.625 1583.36 167.625C1583.67 167.625 1584.08 167.591 1584.59 167.523C1585.11 167.455 1585.52 167.347 1585.83 167.201C1586.21 167.035 1586.54 166.805 1586.8 166.512C1587.06 166.209 1587.2 165.814 1587.2 165.326C1587.2 164.779 1586.98 164.334 1586.55 163.993C1586.12 163.651 1585.61 163.402 1585.01 163.246C1584.27 163.05 1583.47 162.865 1582.62 162.689C1581.79 162.513 1581 162.298 1580.27 162.044C1578.58 161.449 1577.37 160.648 1576.63 159.642C1575.9 158.636 1575.54 157.376 1575.54 155.863C1575.54 153.822 1576.4 152.171 1578.13 150.912C1579.86 149.642 1582.01 149.007 1584.6 149.007C1585.9 149.007 1587.19 149.139 1588.47 149.403C1589.76 149.667 1590.91 150.023 1591.93 150.472V155.453H1591.44C1590.63 154.759 1589.64 154.173 1588.47 153.695C1587.31 153.216 1586.11 152.977 1584.88 152.977C1584.4 152.977 1583.97 153.011 1583.59 153.08C1583.21 153.148 1582.81 153.28 1582.39 153.475C1582.05 153.631 1581.75 153.866 1581.5 154.178C1581.25 154.481 1581.13 154.823 1581.13 155.204C1581.13 155.76 1581.33 156.205 1581.72 156.537C1582.12 156.859 1582.88 157.152 1584.02 157.416C1584.75 157.582 1585.45 157.743 1586.13 157.899C1586.81 158.055 1587.54 158.27 1588.31 158.543C1589.82 159.09 1590.95 159.828 1591.68 160.755C1592.42 161.673 1592.79 162.889 1592.79 164.403C1592.79 166.571 1591.94 168.314 1590.23 169.632C1588.53 170.951 1586.23 171.61 1583.33 171.61ZM1603.73 171.654C1600.63 171.654 1598.25 170.912 1596.58 169.427C1594.93 167.943 1594.11 165.829 1594.11 163.084C1594.11 160.399 1594.88 158.255 1596.42 156.654C1597.97 155.052 1600.12 154.251 1602.9 154.251C1605.42 154.251 1607.31 154.93 1608.58 156.288C1609.85 157.645 1610.49 159.588 1610.49 162.118V163.963H1599.25C1599.3 164.725 1599.46 165.365 1599.73 165.882C1600.01 166.39 1600.37 166.795 1600.82 167.098C1601.26 167.401 1601.77 167.621 1602.36 167.757C1602.94 167.884 1603.58 167.948 1604.28 167.948C1604.87 167.948 1605.46 167.884 1606.03 167.757C1606.61 167.621 1607.14 167.445 1607.62 167.23C1608.04 167.044 1608.42 166.844 1608.77 166.629C1609.13 166.415 1609.43 166.224 1609.65 166.058H1610.19V170.292C1609.77 170.458 1609.39 170.614 1609.04 170.76C1608.69 170.897 1608.22 171.039 1607.62 171.185C1607.06 171.332 1606.48 171.444 1605.89 171.522C1605.3 171.61 1604.58 171.654 1603.73 171.654ZM1605.43 160.873C1605.4 159.789 1605.15 158.963 1604.67 158.397C1604.2 157.831 1603.48 157.547 1602.5 157.547C1601.51 157.547 1600.73 157.845 1600.16 158.441C1599.6 159.037 1599.29 159.847 1599.24 160.873H1605.43ZM1624.17 159.613H1623.74C1623.55 159.544 1623.26 159.496 1622.89 159.466C1622.52 159.427 1622.11 159.408 1621.66 159.408C1621.13 159.408 1620.56 159.486 1619.96 159.642C1619.38 159.798 1618.81 159.984 1618.25 160.199V171.214H1613.12V154.764H1618.25V157.123C1618.48 156.908 1618.81 156.639 1619.22 156.317C1619.64 155.985 1620.02 155.721 1620.36 155.526C1620.73 155.301 1621.16 155.111 1621.65 154.955C1622.15 154.789 1622.62 154.706 1623.05 154.706C1623.22 154.706 1623.41 154.71 1623.61 154.72C1623.82 154.73 1624 154.745 1624.17 154.764V159.613ZM1641.53 154.764L1635.62 171.214H1630.03L1624.17 154.764H1629.56L1632.93 165.648L1636.25 154.764H1641.53ZM1648.63 171.214H1643.5V154.764H1648.63V171.214ZM1648.78 152.42H1643.36V148.421H1648.78V152.42ZM1660.63 171.654C1659.27 171.654 1658.03 171.483 1656.89 171.141C1655.77 170.799 1654.79 170.272 1653.96 169.559C1653.14 168.846 1652.5 167.953 1652.04 166.878C1651.58 165.794 1651.36 164.52 1651.36 163.055C1651.36 161.483 1651.6 160.145 1652.1 159.042C1652.6 157.938 1653.27 157.03 1654.12 156.317C1654.94 155.633 1655.91 155.13 1657.01 154.808C1658.12 154.476 1659.28 154.31 1660.48 154.31C1661.39 154.31 1662.3 154.417 1663.21 154.632C1664.11 154.837 1665.03 155.169 1665.95 155.628V160.023H1665.29C1665.08 159.828 1664.83 159.613 1664.52 159.378C1664.23 159.144 1663.91 158.929 1663.56 158.734C1663.19 158.529 1662.77 158.358 1662.3 158.221C1661.83 158.075 1661.31 158.001 1660.73 158.001C1659.42 158.001 1658.41 158.46 1657.68 159.378C1656.97 160.287 1656.61 161.512 1656.61 163.055C1656.61 164.706 1657 165.936 1657.76 166.747C1658.53 167.557 1659.55 167.962 1660.82 167.962C1661.46 167.962 1662.03 167.889 1662.52 167.743C1663.01 167.596 1663.43 167.42 1663.78 167.215C1664.12 167.01 1664.41 166.8 1664.66 166.585C1664.9 166.361 1665.11 166.161 1665.29 165.985H1665.95V170.379C1665.65 170.506 1665.31 170.653 1664.92 170.819C1664.54 170.985 1664.15 171.122 1663.75 171.229C1663.25 171.366 1662.78 171.468 1662.34 171.537C1661.91 171.615 1661.34 171.654 1660.63 171.654ZM1676.8 171.654C1673.69 171.654 1671.31 170.912 1669.65 169.427C1668 167.943 1667.18 165.829 1667.18 163.084C1667.18 160.399 1667.95 158.255 1669.49 156.654C1671.03 155.052 1673.19 154.251 1675.96 154.251C1678.48 154.251 1680.38 154.93 1681.65 156.288C1682.92 157.645 1683.55 159.588 1683.55 162.118V163.963H1672.32C1672.37 164.725 1672.53 165.365 1672.8 165.882C1673.07 166.39 1673.44 166.795 1673.88 167.098C1674.32 167.401 1674.84 167.621 1675.42 167.757C1676.01 167.884 1676.65 167.948 1677.34 167.948C1677.94 167.948 1678.52 167.884 1679.1 167.757C1679.68 167.621 1680.2 167.445 1680.68 167.23C1681.1 167.044 1681.49 166.844 1681.84 166.629C1682.2 166.415 1682.49 166.224 1682.72 166.058H1683.26V170.292C1682.84 170.458 1682.45 170.614 1682.1 170.76C1681.76 170.897 1681.29 171.039 1680.68 171.185C1680.12 171.332 1679.55 171.444 1678.95 171.522C1678.37 171.61 1677.65 171.654 1676.8 171.654ZM1678.5 160.873C1678.47 159.789 1678.22 158.963 1677.74 158.397C1677.27 157.831 1676.55 157.547 1675.57 157.547C1674.57 157.547 1673.79 157.845 1673.23 158.441C1672.67 159.037 1672.36 159.847 1672.3 160.873H1678.5ZM1691.2 171.668C1689.99 171.668 1688.84 171.537 1687.76 171.273C1686.68 171.009 1685.79 170.702 1685.09 170.35V166.014H1685.52C1685.76 166.2 1686.04 166.405 1686.35 166.629C1686.66 166.854 1687.1 167.088 1687.65 167.333C1688.13 167.557 1688.67 167.752 1689.27 167.918C1689.87 168.075 1690.53 168.153 1691.23 168.153C1691.95 168.153 1692.59 168.041 1693.13 167.816C1693.69 167.591 1693.97 167.235 1693.97 166.747C1693.97 166.366 1693.84 166.078 1693.59 165.882C1693.33 165.687 1692.84 165.501 1692.11 165.326C1691.72 165.228 1691.22 165.125 1690.63 165.018C1690.03 164.901 1689.5 164.769 1689.05 164.623C1687.76 164.222 1686.79 163.631 1686.13 162.85C1685.49 162.059 1685.16 161.024 1685.16 159.745C1685.16 159.012 1685.33 158.324 1685.66 157.679C1686 157.025 1686.5 156.444 1687.16 155.936C1687.81 155.438 1688.62 155.042 1689.57 154.75C1690.54 154.457 1691.63 154.31 1692.84 154.31C1693.99 154.31 1695.05 154.427 1696.02 154.662C1696.99 154.886 1697.8 155.16 1698.46 155.482V159.642H1698.05C1697.88 159.505 1697.6 159.325 1697.22 159.1C1696.84 158.866 1696.47 158.666 1696.11 158.5C1695.68 158.304 1695.19 158.143 1694.66 158.016C1694.13 157.889 1693.59 157.826 1693.03 157.826C1692.29 157.826 1691.66 157.953 1691.14 158.207C1690.63 158.46 1690.38 158.797 1690.38 159.217C1690.38 159.588 1690.51 159.881 1690.76 160.096C1691.01 160.311 1691.57 160.521 1692.42 160.726C1692.85 160.833 1693.36 160.941 1693.92 161.048C1694.5 161.146 1695.05 161.283 1695.58 161.458C1696.76 161.839 1697.65 162.401 1698.26 163.143C1698.88 163.875 1699.18 164.852 1699.18 166.073C1699.18 166.844 1699 167.582 1698.64 168.285C1698.28 168.978 1697.77 169.564 1697.1 170.042C1696.4 170.56 1695.57 170.96 1694.61 171.244C1693.67 171.527 1692.53 171.668 1691.2 171.668Z" fill="#4C4C4E"/>
</g>
<defs>
<filter id="filter0_b_2309_1498" x="157.5" y="31" width="251" height="195" filterUnits="userSpaceOnUse" color-interpolation-filters="sRGB">
<feFlood flood-opacity="0" result="BackgroundImageFix"/>
<feGaussianBlur in="BackgroundImageFix" stdDeviation="15"/>
<feComposite in2="SourceAlpha" operator="in" result="effect1_backgroundBlur_2309_1498"/>
<feBlend mode="normal" in="SourceGraphic" in2="effect1_backgroundBlur_2309_1498" result="shape"/>
</filter>
<filter id="filter1_b_2309_1498" x="448.5" y="10" width="290" height="237" filterUnits="userSpaceOnUse" color-interpolation-filters="sRGB">
<feFlood flood-opacity="0" result="BackgroundImageFix"/>
<feGaussianBlur in="BackgroundImageFix" stdDeviation="15"/>
<feComposite in2="SourceAlpha" operator="in" result="effect1_backgroundBlur_2309_1498"/>
<feBlend mode="normal" in="SourceGraphic" in2="effect1_backgroundBlur_2309_1498" result="shape"/>
</filter>
<filter id="filter2_b_2309_1498" x="1181.5" y="10" width="290" height="237" filterUnits="userSpaceOnUse" color-interpolation-filters="sRGB">
<feFlood flood-opacity="0" result="BackgroundImageFix"/>
<feGaussianBlur in="BackgroundImageFix" stdDeviation="15"/>
<feComposite in2="SourceAlpha" operator="in" result="effect1_backgroundBlur_2309_1498"/>
<feBlend mode="normal" in="SourceGraphic" in2="effect1_backgroundBlur_2309_1498" result="shape"/>
</filter>
<filter id="filter3_b_2309_1498" x="1511.5" y="31" width="251" height="195" filterUnits="userSpaceOnUse" color-interpolation-filters="sRGB">
<feFlood flood-opacity="0" result="BackgroundImageFix"/>
<feGaussianBlur in="BackgroundImageFix" stdDeviation="15"/>
<feComposite in2="SourceAlpha" operator="in" result="effect1_backgroundBlur_2309_1498"/>
<feBlend mode="normal" in="SourceGraphic" in2="effect1_backgroundBlur_2309_1498" result="shape"/>
</filter>
</defs>
</svg>
