<svg width="105" height="161" viewBox="0 0 105 161" fill="none" xmlns="http://www.w3.org/2000/svg">
<g filter="url(#filter0_d_2309_1557)">
<g filter="url(#filter1_d_2309_1557)">
<path d="M60.2973 77.6487L23 40.3514L34.3513 29L83 77.6487L34.3513 126.297L23 114.946L60.2973 77.6487Z" fill="#FEC341"/>
<path d="M20.1716 43.1798L54.6404 77.6487L20.1716 112.118L17.3431 114.946L20.1716 117.774L31.5229 129.126L34.3513 131.954L37.1798 129.126L85.8284 80.4771L88.6569 77.6487L85.8284 74.8202L37.1798 26.1716L34.3513 23.3431L31.5229 26.1716L20.1716 37.5229L17.3431 40.3514L20.1716 43.1798Z" stroke="url(#paint0_linear_2309_1557)" stroke-width="8"/>
</g>
</g>
<defs>
<filter id="filter0_d_2309_1557" x="-8" y="-4" width="121" height="172" filterUnits="userSpaceOnUse" color-interpolation-filters="sRGB">
<feFlood flood-opacity="0" result="BackgroundImageFix"/>
<feColorMatrix in="SourceAlpha" type="matrix" values="0 0 0 0 0 0 0 0 0 0 0 0 0 0 0 0 0 0 127 0" result="hardAlpha"/>
<feMorphology radius="4" operator="dilate" in="SourceAlpha" result="effect1_dropShadow_2309_1557"/>
<feOffset dy="4"/>
<feGaussianBlur stdDeviation="2"/>
<feComposite in2="hardAlpha" operator="out"/>
<feColorMatrix type="matrix" values="0 0 0 0 0 0 0 0 0 0 0 0 0 0 0 0 0 0 0.25 0"/>
<feBlend mode="normal" in2="BackgroundImageFix" result="effect1_dropShadow_2309_1557"/>
<feBlend mode="normal" in="SourceGraphic" in2="effect1_dropShadow_2309_1557" result="shape"/>
</filter>
<filter id="filter1_d_2309_1557" x="3.68628" y="17.6863" width="98.6274" height="142.925" filterUnits="userSpaceOnUse" color-interpolation-filters="sRGB">
<feFlood flood-opacity="0" result="BackgroundImageFix"/>
<feColorMatrix in="SourceAlpha" type="matrix" values="0 0 0 0 0 0 0 0 0 0 0 0 0 0 0 0 0 0 127 0" result="hardAlpha"/>
<feOffset dy="15"/>
<feGaussianBlur stdDeviation="4"/>
<feComposite in2="hardAlpha" operator="out"/>
<feColorMatrix type="matrix" values="0 0 0 0 0 0 0 0 0 0 0 0 0 0 0 0 0 0 0.5 0"/>
<feBlend mode="normal" in2="BackgroundImageFix" result="effect1_dropShadow_2309_1557"/>
<feBlend mode="normal" in="SourceGraphic" in2="effect1_dropShadow_2309_1557" result="shape"/>
</filter>
<linearGradient id="paint0_linear_2309_1557" x1="53" y1="29" x2="53" y2="126.297" gradientUnits="userSpaceOnUse">
<stop offset="0.415625" stop-color="#717250"/>
<stop offset="1" stop-color="#4C4C4E"/>
</linearGradient>
</defs>
</svg>
