<svg width="1920" height="257" viewBox="0 0 1920 257" fill="none" xmlns="http://www.w3.org/2000/svg">
<g filter="url(#filter0_b_2309_1531)">
<rect x="187.5" y="61" width="191" height="135" rx="30" fill="white" fill-opacity="0.5"/>
<path d="M250.897 92.9998L328.317 103.732L327.939 127.284L259.107 125.997L259.253 116.92" stroke="#4C4C4E" stroke-width="6" stroke-linecap="square"/>
<path d="M224 79.5L342 95.612V136.5H237.291V120.743" stroke="#4C4C4E" stroke-width="6" stroke-linecap="square"/>
<path d="M212.473 171.896C210.803 171.896 209.333 171.734 208.063 171.412C206.804 171.09 205.632 170.689 204.548 170.211V165.025H205.046C206.14 165.953 207.346 166.666 208.664 167.164C209.982 167.662 211.262 167.911 212.502 167.911C212.814 167.911 213.225 167.877 213.732 167.809C214.25 167.74 214.665 167.633 214.978 167.486C215.358 167.32 215.681 167.091 215.944 166.798C216.208 166.495 216.34 166.1 216.34 165.611C216.34 165.064 216.125 164.62 215.695 164.278C215.266 163.937 214.753 163.688 214.157 163.531C213.415 163.336 212.619 163.15 211.77 162.975C210.93 162.799 210.144 162.584 209.411 162.33C207.722 161.734 206.511 160.934 205.778 159.928C205.046 158.922 204.68 157.662 204.68 156.148C204.68 154.107 205.544 152.457 207.272 151.197C209.001 149.928 211.159 149.293 213.747 149.293C215.046 149.293 216.335 149.425 217.614 149.688C218.903 149.952 220.056 150.309 221.071 150.758V155.738H220.588C219.777 155.045 218.786 154.459 217.614 153.98C216.452 153.502 215.256 153.263 214.025 153.263C213.547 153.263 213.117 153.297 212.736 153.365C212.355 153.434 211.955 153.565 211.535 153.761C211.193 153.917 210.896 154.151 210.642 154.464C210.397 154.767 210.275 155.108 210.275 155.489C210.275 156.046 210.471 156.49 210.861 156.822C211.262 157.145 212.028 157.438 213.161 157.701C213.894 157.867 214.597 158.028 215.271 158.185C215.954 158.341 216.682 158.556 217.453 158.829C218.967 159.376 220.09 160.113 220.822 161.041C221.564 161.959 221.936 163.175 221.936 164.688C221.936 166.856 221.081 168.6 219.372 169.918C217.673 171.236 215.373 171.896 212.473 171.896ZM244.113 171.5V163.282C244.113 162.472 244.099 161.788 244.069 161.231C244.04 160.675 243.952 160.221 243.806 159.869C243.659 159.518 243.43 159.264 243.117 159.107C242.814 158.941 242.385 158.858 241.828 158.858C241.438 158.858 241.052 158.946 240.671 159.122C240.29 159.288 239.875 159.527 239.426 159.84V171.5H234.27V163.282C234.27 162.481 234.25 161.803 234.211 161.246C234.182 160.68 234.094 160.221 233.947 159.869C233.801 159.518 233.571 159.264 233.259 159.107C232.956 158.941 232.531 158.858 231.984 158.858C231.564 158.858 231.154 158.956 230.754 159.151C230.354 159.347 229.963 159.576 229.582 159.84V171.5H224.455V155.05H229.582V156.866C230.422 156.153 231.213 155.597 231.955 155.196C232.697 154.796 233.532 154.596 234.46 154.596C235.466 154.596 236.35 154.835 237.111 155.313C237.873 155.792 238.454 156.505 238.854 157.452C239.841 156.534 240.769 155.831 241.638 155.343C242.517 154.845 243.405 154.596 244.304 154.596C245.065 154.596 245.749 154.718 246.354 154.962C246.96 155.206 247.473 155.572 247.893 156.061C248.352 156.588 248.693 157.218 248.918 157.95C249.152 158.673 249.27 159.62 249.27 160.792V171.5H244.113ZM262.146 167.208V163.78C261.276 163.868 260.573 163.946 260.036 164.015C259.499 164.073 258.972 164.195 258.454 164.381C258.005 164.537 257.653 164.776 257.399 165.099C257.155 165.411 257.033 165.831 257.033 166.358C257.033 167.13 257.238 167.662 257.648 167.955C258.068 168.238 258.684 168.38 259.494 168.38C259.943 168.38 260.402 168.277 260.871 168.072C261.34 167.867 261.765 167.579 262.146 167.208ZM262.146 169.757C261.794 170.05 261.477 170.313 261.193 170.548C260.92 170.782 260.549 171.017 260.08 171.251C259.621 171.476 259.172 171.646 258.732 171.764C258.303 171.881 257.697 171.939 256.916 171.939C255.461 171.939 254.25 171.451 253.283 170.475C252.326 169.498 251.848 168.268 251.848 166.783C251.848 165.562 252.092 164.576 252.58 163.824C253.068 163.072 253.771 162.477 254.689 162.037C255.617 161.588 256.726 161.275 258.015 161.1C259.304 160.924 260.69 160.787 262.175 160.689V160.602C262.175 159.693 261.838 159.068 261.164 158.727C260.5 158.375 259.499 158.199 258.161 158.199C257.556 158.199 256.848 158.312 256.037 158.536C255.227 158.751 254.436 159.029 253.664 159.371H253.225V155.401C253.732 155.255 254.553 155.084 255.686 154.889C256.818 154.684 257.961 154.581 259.113 154.581C261.945 154.581 264.006 155.055 265.295 156.002C266.594 156.939 267.243 158.375 267.243 160.309V171.5H262.146V169.757ZM282.082 159.898H281.657C281.462 159.83 281.179 159.781 280.808 159.752C280.437 159.713 280.026 159.693 279.577 159.693C279.04 159.693 278.474 159.771 277.878 159.928C277.292 160.084 276.721 160.27 276.164 160.484V171.5H271.037V155.05H276.164V157.408C276.398 157.193 276.721 156.925 277.131 156.603C277.551 156.271 277.932 156.007 278.273 155.812C278.645 155.587 279.074 155.396 279.562 155.24C280.061 155.074 280.529 154.991 280.969 154.991C281.135 154.991 281.32 154.996 281.525 155.006C281.73 155.016 281.916 155.03 282.082 155.05V159.898ZM290.344 171.822C288.254 171.822 286.73 171.393 285.773 170.533C284.826 169.674 284.353 168.268 284.353 166.314V158.624H282.39V155.05H284.353V150.348H289.479V155.05H294.416V158.624H289.479V164.454C289.479 165.03 289.484 165.533 289.494 165.963C289.504 166.393 289.582 166.778 289.729 167.12C289.865 167.462 290.104 167.735 290.446 167.94C290.798 168.136 291.306 168.233 291.97 168.233C292.243 168.233 292.6 168.175 293.039 168.058C293.488 167.94 293.801 167.833 293.977 167.735H294.416V171.354C293.859 171.5 293.269 171.612 292.644 171.69C292.019 171.778 291.252 171.822 290.344 171.822ZM320.168 171.5H305.607V149.688H311.086V167.34H320.168V171.5ZM338.273 163.282C338.273 165.987 337.531 168.121 336.047 169.684C334.572 171.236 332.482 172.013 329.777 172.013C327.092 172.013 325.002 171.236 323.508 169.684C322.023 168.121 321.281 165.987 321.281 163.282C321.281 160.548 322.023 158.409 323.508 156.866C325.002 155.313 327.092 154.537 329.777 154.537C332.473 154.537 334.562 155.318 336.047 156.881C337.531 158.434 338.273 160.567 338.273 163.282ZM333.015 163.312C333.015 162.335 332.932 161.524 332.766 160.88C332.609 160.226 332.39 159.703 332.106 159.312C331.804 158.902 331.462 158.619 331.081 158.463C330.7 158.297 330.266 158.214 329.777 158.214C329.318 158.214 328.903 158.287 328.532 158.434C328.161 158.57 327.819 158.839 327.507 159.239C327.214 159.62 326.979 160.143 326.804 160.807C326.628 161.471 326.54 162.306 326.54 163.312C326.54 164.317 326.623 165.133 326.789 165.758C326.955 166.373 327.17 166.866 327.434 167.237C327.707 167.618 328.049 167.896 328.459 168.072C328.869 168.248 329.323 168.336 329.821 168.336C330.231 168.336 330.646 168.248 331.066 168.072C331.496 167.896 331.838 167.633 332.092 167.281C332.395 166.861 332.624 166.358 332.78 165.772C332.937 165.177 333.015 164.356 333.015 163.312ZM351.516 152.574H351.12C350.925 152.516 350.617 152.442 350.197 152.354C349.787 152.257 349.396 152.208 349.025 152.208C347.99 152.208 347.282 152.398 346.901 152.779C346.53 153.16 346.345 153.873 346.345 154.918V155.05H350.417V158.624H346.521V171.5H341.394V158.624H339.343V155.05H341.394V154.596C341.394 152.584 341.921 151.075 342.976 150.069C344.03 149.063 345.627 148.561 347.766 148.561C348.508 148.561 349.201 148.59 349.846 148.648C350.49 148.697 351.047 148.766 351.516 148.854V152.574ZM358.781 171.822C356.691 171.822 355.168 171.393 354.211 170.533C353.264 169.674 352.79 168.268 352.79 166.314V158.624H350.827V155.05H352.79V150.348H357.917V155.05H362.854V158.624H357.917V164.454C357.917 165.03 357.922 165.533 357.932 165.963C357.941 166.393 358.02 166.778 358.166 167.12C358.303 167.462 358.542 167.735 358.884 167.94C359.235 168.136 359.743 168.233 360.407 168.233C360.681 168.233 361.037 168.175 361.477 168.058C361.926 167.94 362.238 167.833 362.414 167.735H362.854V171.354C362.297 171.5 361.706 171.612 361.081 171.69C360.456 171.778 359.689 171.822 358.781 171.822Z" fill="#4C4C4E"/>
</g>
<g filter="url(#filter1_b_2309_1531)">
<rect x="478.5" y="40" width="230" height="177" rx="30" fill="white" fill-opacity="0.5"/>
<mask id="path-6-outside-1_2309_1531" maskUnits="userSpaceOnUse" x="554" y="65.2058" width="79" height="75" fill="black">
<rect fill="white" x="554" y="65.2058" width="79" height="75"/>
<path fill-rule="evenodd" clip-rule="evenodd" d="M606.412 73.5004C606.205 73.7073 605.925 73.8235 605.632 73.8235H581.368C581.075 73.8235 580.795 73.7073 580.588 73.5004C580.381 73.2936 580.265 73.013 580.265 72.7205C580.265 72.428 580.381 72.1475 580.588 71.9406C580.795 71.7338 581.075 71.6176 581.368 71.6176H605.632C605.925 71.6176 606.205 71.7338 606.412 71.9406C606.619 72.1475 606.735 72.428 606.735 72.7205C606.735 73.013 606.619 73.2936 606.412 73.5004ZM575.853 68.3088V77.1323C575.853 77.4248 575.737 77.7053 575.53 77.9122C575.323 78.119 575.043 78.2352 574.75 78.2352C574.457 78.2352 574.177 78.119 573.97 77.9122C573.763 77.7053 573.647 77.4248 573.647 77.1323V68.3088C573.647 68.0162 573.763 67.7357 573.97 67.5289C574.177 67.322 574.457 67.2058 574.75 67.2058C575.043 67.2058 575.323 67.322 575.53 67.5289C575.737 67.7357 575.853 68.0162 575.853 68.3088ZM613.03 77.9122C612.823 78.119 612.543 78.2352 612.25 78.2352C611.957 78.2352 611.677 78.119 611.47 77.9122C611.263 77.7053 611.147 77.4248 611.147 77.1323V68.3088C611.147 68.0162 611.263 67.7357 611.47 67.5289C611.677 67.322 611.957 67.2058 612.25 67.2058C612.543 67.2058 612.823 67.322 613.03 67.5289C613.237 67.7357 613.353 68.0162 613.353 68.3088V77.1323C613.353 77.4248 613.237 77.7053 613.03 77.9122ZM565.926 117.941C565.634 117.941 565.353 118.057 565.147 118.264C564.94 118.471 564.824 118.752 564.824 119.044C564.824 119.337 564.94 119.617 565.147 119.824C565.353 120.031 565.634 120.147 565.926 120.147H569.235V127.868C569.235 128.16 569.351 128.441 569.558 128.647C569.765 128.854 570.046 128.971 570.338 128.971C570.631 128.971 570.911 128.854 571.118 128.647C571.325 128.441 571.441 128.16 571.441 127.868V120.147H584.676V127.868C584.676 128.16 584.793 128.441 585 128.647C585.206 128.854 585.487 128.971 585.779 128.971C586.072 128.971 586.352 128.854 586.559 128.647C586.766 128.441 586.882 128.16 586.882 127.868V120.147H600.118V127.868C600.118 128.16 600.234 128.441 600.441 128.647C600.648 128.854 600.928 128.971 601.221 128.971C601.513 128.971 601.794 128.854 602 128.647C602.207 128.441 602.324 128.16 602.324 127.868V120.147H615.559V127.868C615.559 128.16 615.675 128.441 615.882 128.647C616.089 128.854 616.369 128.971 616.662 128.971C616.954 128.971 617.235 128.854 617.442 128.647C617.649 128.441 617.765 128.16 617.765 127.868V120.147H621.074C621.366 120.147 621.647 120.031 621.853 119.824C622.06 119.617 622.176 119.337 622.176 119.044C622.176 118.752 622.06 118.471 621.853 118.264C621.647 118.057 621.366 117.941 621.074 117.941H617.765V106.912H621.074C621.366 106.912 621.647 106.795 621.853 106.589C622.06 106.382 622.176 106.101 622.176 105.809C622.176 105.516 622.06 105.236 621.853 105.029C621.647 104.822 621.366 104.706 621.074 104.706H617.765V94.7793C617.765 94.4868 617.649 94.2063 617.442 93.9994C617.235 93.7926 616.954 93.6764 616.662 93.6764C616.369 93.6764 616.089 93.7926 615.882 93.9994C615.675 94.2063 615.559 94.4868 615.559 94.7793V104.706H602.324V94.7793C602.324 94.4868 602.207 94.2063 602 93.9994C601.794 93.7926 601.513 93.6764 601.221 93.6764C600.928 93.6764 600.648 93.7926 600.441 93.9994C600.234 94.2063 600.118 94.4868 600.118 94.7793V104.706H586.882V94.7793C586.882 94.4868 586.766 94.2063 586.559 93.9994C586.352 93.7926 586.072 93.6764 585.779 93.6764C585.487 93.6764 585.206 93.7926 585 93.9994C584.793 94.2063 584.676 94.4868 584.676 94.7793V104.706H571.441V94.7793C571.441 94.4868 571.325 94.2063 571.118 93.9994C570.911 93.7926 570.631 93.6764 570.338 93.6764C570.046 93.6764 569.765 93.7926 569.558 93.9994C569.351 94.2063 569.235 94.4868 569.235 94.7793V104.706H565.926C565.634 104.706 565.353 104.822 565.147 105.029C564.94 105.236 564.824 105.516 564.824 105.809C564.824 106.101 564.94 106.382 565.147 106.589C565.353 106.795 565.634 106.912 565.926 106.912H569.235V117.941H565.926ZM615.559 106.912V117.941H602.324V106.912H615.559ZM600.118 106.912V117.941H586.882V106.912H600.118ZM571.441 106.912H584.676V117.941H571.441V106.912ZM618.868 73.8235H628.243C628.435 73.8235 628.794 73.8235 628.794 74.9264V84.8529H558.206V74.9264C558.206 74.6339 558.322 74.3533 558.529 74.1465C558.736 73.9397 559.016 73.8235 559.309 73.8235H568.132C568.425 73.8235 568.705 73.7073 568.912 73.5004C569.119 73.2936 569.235 73.013 569.235 72.7205C569.235 72.428 569.119 72.1475 568.912 71.9406C568.705 71.7338 568.425 71.6176 568.132 71.6176H559.309C557.485 71.6176 556 73.1021 556 74.9264V85.9558C556 86.2483 556.116 86.5289 556.323 86.7357C556.53 86.9426 556.81 87.0588 557.103 87.0588H629.897C630.19 87.0588 630.47 86.9426 630.677 86.7357C630.884 86.5289 631 86.2483 631 85.9558V74.9264C631 72.4867 629.575 71.6176 628.243 71.6176H618.868C618.575 71.6176 618.295 71.7338 618.088 71.9406C617.881 72.1475 617.765 72.428 617.765 72.7205C617.765 73.013 617.881 73.2936 618.088 73.5004C618.295 73.7073 618.575 73.8235 618.868 73.8235ZM631 134.485V92.5735C631 92.2809 630.884 92.0004 630.677 91.7936C630.47 91.5867 630.19 91.4705 629.897 91.4705C629.605 91.4705 629.324 91.5867 629.117 91.7936C628.91 92.0004 628.794 92.2809 628.794 92.5735V134.485C628.794 134.778 628.678 135.058 628.471 135.265C628.264 135.472 627.984 135.588 627.691 135.588H559.309C559.016 135.588 558.736 135.472 558.529 135.265C558.322 135.058 558.206 134.778 558.206 134.485V92.5735C558.206 92.2809 558.09 92.0004 557.883 91.7936C557.676 91.5867 557.395 91.4705 557.103 91.4705C556.81 91.4705 556.53 91.5867 556.323 91.7936C556.116 92.0004 556 92.2809 556 92.5735V134.485C556 136.309 557.485 137.794 559.309 137.794H627.691C629.515 137.794 631 136.309 631 134.485Z"/>
</mask>
<path fill-rule="evenodd" clip-rule="evenodd" d="M606.412 73.5004C606.205 73.7073 605.925 73.8235 605.632 73.8235H581.368C581.075 73.8235 580.795 73.7073 580.588 73.5004C580.381 73.2936 580.265 73.013 580.265 72.7205C580.265 72.428 580.381 72.1475 580.588 71.9406C580.795 71.7338 581.075 71.6176 581.368 71.6176H605.632C605.925 71.6176 606.205 71.7338 606.412 71.9406C606.619 72.1475 606.735 72.428 606.735 72.7205C606.735 73.013 606.619 73.2936 606.412 73.5004ZM575.853 68.3088V77.1323C575.853 77.4248 575.737 77.7053 575.53 77.9122C575.323 78.119 575.043 78.2352 574.75 78.2352C574.457 78.2352 574.177 78.119 573.97 77.9122C573.763 77.7053 573.647 77.4248 573.647 77.1323V68.3088C573.647 68.0162 573.763 67.7357 573.97 67.5289C574.177 67.322 574.457 67.2058 574.75 67.2058C575.043 67.2058 575.323 67.322 575.53 67.5289C575.737 67.7357 575.853 68.0162 575.853 68.3088ZM613.03 77.9122C612.823 78.119 612.543 78.2352 612.25 78.2352C611.957 78.2352 611.677 78.119 611.47 77.9122C611.263 77.7053 611.147 77.4248 611.147 77.1323V68.3088C611.147 68.0162 611.263 67.7357 611.47 67.5289C611.677 67.322 611.957 67.2058 612.25 67.2058C612.543 67.2058 612.823 67.322 613.03 67.5289C613.237 67.7357 613.353 68.0162 613.353 68.3088V77.1323C613.353 77.4248 613.237 77.7053 613.03 77.9122ZM565.926 117.941C565.634 117.941 565.353 118.057 565.147 118.264C564.94 118.471 564.824 118.752 564.824 119.044C564.824 119.337 564.94 119.617 565.147 119.824C565.353 120.031 565.634 120.147 565.926 120.147H569.235V127.868C569.235 128.16 569.351 128.441 569.558 128.647C569.765 128.854 570.046 128.971 570.338 128.971C570.631 128.971 570.911 128.854 571.118 128.647C571.325 128.441 571.441 128.16 571.441 127.868V120.147H584.676V127.868C584.676 128.16 584.793 128.441 585 128.647C585.206 128.854 585.487 128.971 585.779 128.971C586.072 128.971 586.352 128.854 586.559 128.647C586.766 128.441 586.882 128.16 586.882 127.868V120.147H600.118V127.868C600.118 128.16 600.234 128.441 600.441 128.647C600.648 128.854 600.928 128.971 601.221 128.971C601.513 128.971 601.794 128.854 602 128.647C602.207 128.441 602.324 128.16 602.324 127.868V120.147H615.559V127.868C615.559 128.16 615.675 128.441 615.882 128.647C616.089 128.854 616.369 128.971 616.662 128.971C616.954 128.971 617.235 128.854 617.442 128.647C617.649 128.441 617.765 128.16 617.765 127.868V120.147H621.074C621.366 120.147 621.647 120.031 621.853 119.824C622.06 119.617 622.176 119.337 622.176 119.044C622.176 118.752 622.06 118.471 621.853 118.264C621.647 118.057 621.366 117.941 621.074 117.941H617.765V106.912H621.074C621.366 106.912 621.647 106.795 621.853 106.589C622.06 106.382 622.176 106.101 622.176 105.809C622.176 105.516 622.06 105.236 621.853 105.029C621.647 104.822 621.366 104.706 621.074 104.706H617.765V94.7793C617.765 94.4868 617.649 94.2063 617.442 93.9994C617.235 93.7926 616.954 93.6764 616.662 93.6764C616.369 93.6764 616.089 93.7926 615.882 93.9994C615.675 94.2063 615.559 94.4868 615.559 94.7793V104.706H602.324V94.7793C602.324 94.4868 602.207 94.2063 602 93.9994C601.794 93.7926 601.513 93.6764 601.221 93.6764C600.928 93.6764 600.648 93.7926 600.441 93.9994C600.234 94.2063 600.118 94.4868 600.118 94.7793V104.706H586.882V94.7793C586.882 94.4868 586.766 94.2063 586.559 93.9994C586.352 93.7926 586.072 93.6764 585.779 93.6764C585.487 93.6764 585.206 93.7926 585 93.9994C584.793 94.2063 584.676 94.4868 584.676 94.7793V104.706H571.441V94.7793C571.441 94.4868 571.325 94.2063 571.118 93.9994C570.911 93.7926 570.631 93.6764 570.338 93.6764C570.046 93.6764 569.765 93.7926 569.558 93.9994C569.351 94.2063 569.235 94.4868 569.235 94.7793V104.706H565.926C565.634 104.706 565.353 104.822 565.147 105.029C564.94 105.236 564.824 105.516 564.824 105.809C564.824 106.101 564.94 106.382 565.147 106.589C565.353 106.795 565.634 106.912 565.926 106.912H569.235V117.941H565.926ZM615.559 106.912V117.941H602.324V106.912H615.559ZM600.118 106.912V117.941H586.882V106.912H600.118ZM571.441 106.912H584.676V117.941H571.441V106.912ZM618.868 73.8235H628.243C628.435 73.8235 628.794 73.8235 628.794 74.9264V84.8529H558.206V74.9264C558.206 74.6339 558.322 74.3533 558.529 74.1465C558.736 73.9397 559.016 73.8235 559.309 73.8235H568.132C568.425 73.8235 568.705 73.7073 568.912 73.5004C569.119 73.2936 569.235 73.013 569.235 72.7205C569.235 72.428 569.119 72.1475 568.912 71.9406C568.705 71.7338 568.425 71.6176 568.132 71.6176H559.309C557.485 71.6176 556 73.1021 556 74.9264V85.9558C556 86.2483 556.116 86.5289 556.323 86.7357C556.53 86.9426 556.81 87.0588 557.103 87.0588H629.897C630.19 87.0588 630.47 86.9426 630.677 86.7357C630.884 86.5289 631 86.2483 631 85.9558V74.9264C631 72.4867 629.575 71.6176 628.243 71.6176H618.868C618.575 71.6176 618.295 71.7338 618.088 71.9406C617.881 72.1475 617.765 72.428 617.765 72.7205C617.765 73.013 617.881 73.2936 618.088 73.5004C618.295 73.7073 618.575 73.8235 618.868 73.8235ZM631 134.485V92.5735C631 92.2809 630.884 92.0004 630.677 91.7936C630.47 91.5867 630.19 91.4705 629.897 91.4705C629.605 91.4705 629.324 91.5867 629.117 91.7936C628.91 92.0004 628.794 92.2809 628.794 92.5735V134.485C628.794 134.778 628.678 135.058 628.471 135.265C628.264 135.472 627.984 135.588 627.691 135.588H559.309C559.016 135.588 558.736 135.472 558.529 135.265C558.322 135.058 558.206 134.778 558.206 134.485V92.5735C558.206 92.2809 558.09 92.0004 557.883 91.7936C557.676 91.5867 557.395 91.4705 557.103 91.4705C556.81 91.4705 556.53 91.5867 556.323 91.7936C556.116 92.0004 556 92.2809 556 92.5735V134.485C556 136.309 557.485 137.794 559.309 137.794H627.691C629.515 137.794 631 136.309 631 134.485Z" fill="#4C4C4E"/>
<path d="M606.412 73.5004L607.826 74.9146L607.826 74.9146L606.412 73.5004ZM580.588 73.5004L582.002 72.0862L582.002 72.0862L580.588 73.5004ZM580.588 71.9406L582.002 73.3548L582.002 73.3548L580.588 71.9406ZM573.97 77.9122L575.384 76.498L575.384 76.498L573.97 77.9122ZM573.97 67.5289L575.384 68.9431L575.384 68.9431L573.97 67.5289ZM613.03 77.9122L611.616 76.498L611.616 76.498L613.03 77.9122ZM613.03 67.5289L611.616 68.9431L611.616 68.9431L613.03 67.5289ZM565.147 118.264L566.561 119.678L566.561 119.678L565.147 118.264ZM565.147 119.824L563.732 121.238L563.732 121.238L565.147 119.824ZM569.235 120.147H571.235V118.147H569.235V120.147ZM571.441 120.147V118.147H569.441V120.147H571.441ZM584.676 120.147H586.676V118.147H584.676V120.147ZM585 128.647L586.414 127.233L586.414 127.233L585 128.647ZM586.559 128.647L585.145 127.233L585.145 127.233L586.559 128.647ZM586.882 120.147V118.147H584.882V120.147H586.882ZM600.118 120.147H602.118V118.147H600.118V120.147ZM602 128.647L600.586 127.233L600.586 127.233L602 128.647ZM602.324 120.147V118.147H600.324V120.147H602.324ZM615.559 120.147H617.559V118.147H615.559V120.147ZM615.882 128.647L617.296 127.233L617.296 127.233L615.882 128.647ZM617.765 120.147V118.147H615.765V120.147H617.765ZM621.853 119.824L623.268 121.238L623.268 121.238L621.853 119.824ZM621.853 118.264L620.439 119.678L620.439 119.678L621.853 118.264ZM617.765 117.941H615.765V119.941H617.765V117.941ZM617.765 106.912V104.912H615.765V106.912H617.765ZM621.853 105.029L620.439 106.443L620.439 106.443L621.853 105.029ZM617.765 104.706H615.765V106.706H617.765V104.706ZM617.442 93.9994L618.856 92.5852L618.856 92.5852L617.442 93.9994ZM615.882 93.9994L617.296 95.4137L617.296 95.4137L615.882 93.9994ZM615.559 104.706V106.706H617.559V104.706H615.559ZM602.324 104.706H600.324V106.706H602.324V104.706ZM602 93.9994L600.586 95.4137L600.586 95.4137L602 93.9994ZM600.441 93.9994L599.026 92.5852L599.026 92.5852L600.441 93.9994ZM600.118 104.706V106.706H602.118V104.706H600.118ZM586.882 104.706H584.882V106.706H586.882V104.706ZM584.676 104.706V106.706H586.676V104.706H584.676ZM571.441 104.706H569.441V106.706H571.441V104.706ZM571.118 93.9994L572.532 92.5852L572.532 92.5852L571.118 93.9994ZM569.558 93.9994L568.144 92.5852L568.144 92.5852L569.558 93.9994ZM569.235 104.706V106.706H571.235V104.706H569.235ZM565.147 105.029L566.561 106.443L566.561 106.443L565.147 105.029ZM565.147 106.589L563.732 108.003L563.732 108.003L565.147 106.589ZM569.235 106.912H571.235V104.912H569.235V106.912ZM569.235 117.941V119.941H571.235V117.941H569.235ZM615.559 117.941V119.941H617.559V117.941H615.559ZM615.559 106.912H617.559V104.912H615.559V106.912ZM602.324 117.941H600.324V119.941H602.324V117.941ZM602.324 106.912V104.912H600.324V106.912H602.324ZM600.118 117.941V119.941H602.118V117.941H600.118ZM600.118 106.912H602.118V104.912H600.118V106.912ZM586.882 117.941H584.882V119.941H586.882V117.941ZM586.882 106.912V104.912H584.882V106.912H586.882ZM584.676 106.912H586.676V104.912H584.676V106.912ZM571.441 106.912V104.912H569.441V106.912H571.441ZM584.676 117.941V119.941H586.676V117.941H584.676ZM571.441 117.941H569.441V119.941H571.441V117.941ZM628.794 84.8529V86.8529H630.794V84.8529H628.794ZM558.206 84.8529H556.206V86.8529H558.206V84.8529ZM558.529 74.1465L557.115 72.7323L557.115 72.7323L558.529 74.1465ZM559.309 73.8235L559.309 75.8235H559.309V73.8235ZM568.912 73.5004L570.326 74.9146L570.326 74.9146L568.912 73.5004ZM618.088 71.9406L619.502 73.3548L619.502 73.3548L618.088 71.9406ZM618.088 73.5004L619.502 72.0862L619.502 72.0862L618.088 73.5004ZM630.677 91.7936L629.263 93.2078L629.263 93.2078L630.677 91.7936ZM629.117 91.7936L630.531 93.2078L630.531 93.2078L629.117 91.7936ZM628.471 135.265L627.057 133.851L627.057 133.851L628.471 135.265ZM558.529 135.265L557.115 136.679H557.115L558.529 135.265ZM557.883 91.7936L556.469 93.2078L556.469 93.2078L557.883 91.7936ZM556.323 91.7936L557.737 93.2078L557.737 93.2078L556.323 91.7936ZM605.632 75.8235C606.455 75.8235 607.245 75.4965 607.826 74.9146L604.998 72.0862C605.166 71.918 605.394 71.8235 605.632 71.8235V75.8235ZM581.368 75.8235H605.632V71.8235H581.368V75.8235ZM579.174 74.9146C579.755 75.4965 580.545 75.8235 581.368 75.8235V71.8235C581.606 71.8235 581.834 71.918 582.002 72.0862L579.174 74.9146ZM578.265 72.7205C578.265 73.5435 578.592 74.3327 579.174 74.9146L582.002 72.0862C582.17 72.2544 582.265 72.4826 582.265 72.7205H578.265ZM579.174 70.5264C578.592 71.1083 578.265 71.8976 578.265 72.7205H582.265C582.265 72.9584 582.17 73.1866 582.002 73.3548L579.174 70.5264ZM581.368 69.6176C580.545 69.6176 579.755 69.9445 579.174 70.5264L582.002 73.3548C581.834 73.5231 581.606 73.6176 581.368 73.6176V69.6176ZM605.632 69.6176H581.368V73.6176H605.632V69.6176ZM607.826 70.5264C607.245 69.9445 606.455 69.6176 605.632 69.6176V73.6176C605.394 73.6176 605.166 73.5231 604.998 73.3548L607.826 70.5264ZM608.735 72.7205C608.735 71.8976 608.408 71.1083 607.826 70.5264L604.998 73.3548C604.83 73.1866 604.735 72.9584 604.735 72.7205H608.735ZM607.826 74.9146C608.408 74.3327 608.735 73.5435 608.735 72.7205H604.735C604.735 72.4826 604.83 72.2544 604.998 72.0862L607.826 74.9146ZM577.853 77.1323V68.3088H573.853V77.1323H577.853ZM576.944 79.3264C577.526 78.7445 577.853 77.9552 577.853 77.1323H573.853C573.853 76.8944 573.947 76.6662 574.116 76.498L576.944 79.3264ZM574.75 80.2352C575.573 80.2352 576.362 79.9083 576.944 79.3264L574.116 76.498C574.284 76.3297 574.512 76.2352 574.75 76.2352V80.2352ZM572.556 79.3264C573.138 79.9083 573.927 80.2352 574.75 80.2352V76.2352C574.988 76.2352 575.216 76.3297 575.384 76.498L572.556 79.3264ZM571.647 77.1323C571.647 77.9552 571.974 78.7445 572.556 79.3264L575.384 76.498C575.553 76.6662 575.647 76.8944 575.647 77.1323H571.647ZM571.647 68.3088V77.1323H575.647V68.3088H571.647ZM572.556 66.1146C571.974 66.6966 571.647 67.4858 571.647 68.3088H575.647C575.647 68.5467 575.553 68.7748 575.384 68.9431L572.556 66.1146ZM574.75 65.2058C573.927 65.2058 573.138 65.5327 572.556 66.1146L575.384 68.9431C575.216 69.1113 574.988 69.2058 574.75 69.2058V65.2058ZM576.944 66.1146C576.362 65.5327 575.573 65.2058 574.75 65.2058V69.2058C574.512 69.2058 574.284 69.1113 574.116 68.9431L576.944 66.1146ZM577.853 68.3088C577.853 67.4858 577.526 66.6966 576.944 66.1146L574.116 68.9431C573.947 68.7748 573.853 68.5467 573.853 68.3088H577.853ZM612.25 80.2352C613.073 80.2352 613.862 79.9083 614.444 79.3264L611.616 76.498C611.784 76.3297 612.012 76.2352 612.25 76.2352V80.2352ZM610.056 79.3264C610.638 79.9083 611.427 80.2352 612.25 80.2352V76.2352C612.488 76.2352 612.716 76.3297 612.884 76.498L610.056 79.3264ZM609.147 77.1323C609.147 77.9552 609.474 78.7445 610.056 79.3264L612.884 76.498C613.053 76.6662 613.147 76.8944 613.147 77.1323H609.147ZM609.147 68.3088V77.1323H613.147V68.3088H609.147ZM610.056 66.1146C609.474 66.6966 609.147 67.4858 609.147 68.3088H613.147C613.147 68.5467 613.053 68.7748 612.884 68.9431L610.056 66.1146ZM612.25 65.2058C611.427 65.2058 610.638 65.5327 610.056 66.1146L612.884 68.9431C612.716 69.1113 612.488 69.2058 612.25 69.2058V65.2058ZM614.444 66.1146C613.862 65.5327 613.073 65.2058 612.25 65.2058V69.2058C612.012 69.2058 611.784 69.1113 611.616 68.9431L614.444 66.1146ZM615.353 68.3088C615.353 67.4858 615.026 66.6966 614.444 66.1146L611.616 68.9431C611.447 68.7748 611.353 68.5467 611.353 68.3088H615.353ZM615.353 77.1323V68.3088H611.353V77.1323H615.353ZM614.444 79.3264C615.026 78.7445 615.353 77.9552 615.353 77.1323H611.353C611.353 76.8944 611.447 76.6662 611.616 76.498L614.444 79.3264ZM566.561 119.678C566.393 119.847 566.164 119.941 565.926 119.941V115.941C565.104 115.941 564.314 116.268 563.732 116.85L566.561 119.678ZM566.824 119.044C566.824 119.282 566.729 119.51 566.561 119.678L563.732 116.85C563.15 117.432 562.824 118.221 562.824 119.044H566.824ZM566.561 118.41C566.729 118.578 566.824 118.806 566.824 119.044H562.824C562.824 119.867 563.15 120.656 563.732 121.238L566.561 118.41ZM565.926 118.147C566.164 118.147 566.393 118.242 566.561 118.41L563.732 121.238C564.314 121.82 565.104 122.147 565.926 122.147V118.147ZM569.235 118.147H565.926V122.147H569.235V118.147ZM571.235 127.868V120.147H567.235V127.868H571.235ZM570.973 127.233C571.141 127.401 571.235 127.63 571.235 127.868H567.235C567.235 128.691 567.562 129.48 568.144 130.062L570.973 127.233ZM570.338 126.971C570.576 126.971 570.804 127.065 570.973 127.233L568.144 130.062C568.726 130.644 569.515 130.971 570.338 130.971V126.971ZM569.704 127.233C569.872 127.065 570.1 126.971 570.338 126.971V130.971C571.161 130.971 571.95 130.644 572.532 130.062L569.704 127.233ZM569.441 127.868C569.441 127.63 569.536 127.401 569.704 127.233L572.532 130.062C573.114 129.48 573.441 128.691 573.441 127.868H569.441ZM569.441 120.147V127.868H573.441V120.147H569.441ZM584.676 118.147H571.441V122.147H584.676V118.147ZM586.676 127.868V120.147H582.676V127.868H586.676ZM586.414 127.233C586.582 127.401 586.676 127.63 586.676 127.868H582.676C582.676 128.691 583.003 129.48 583.585 130.062L586.414 127.233ZM585.779 126.971C586.017 126.971 586.245 127.065 586.414 127.233L583.585 130.062C584.167 130.644 584.956 130.971 585.779 130.971V126.971ZM585.145 127.233C585.313 127.065 585.541 126.971 585.779 126.971V130.971C586.602 130.971 587.392 130.644 587.974 130.062L585.145 127.233ZM584.882 127.868C584.882 127.63 584.977 127.401 585.145 127.233L587.974 130.062C588.555 129.48 588.882 128.691 588.882 127.868H584.882ZM584.882 120.147V127.868H588.882V120.147H584.882ZM600.118 118.147H586.882V122.147H600.118V118.147ZM602.118 127.868V120.147H598.118V127.868H602.118ZM601.855 127.233C602.023 127.401 602.118 127.63 602.118 127.868H598.118C598.118 128.691 598.445 129.48 599.026 130.062L601.855 127.233ZM601.221 126.971C601.458 126.971 601.687 127.065 601.855 127.233L599.026 130.062C599.608 130.644 600.398 130.971 601.221 130.971V126.971ZM600.586 127.233C600.755 127.065 600.983 126.971 601.221 126.971V130.971C602.044 130.971 602.833 130.644 603.415 130.062L600.586 127.233ZM600.324 127.868C600.324 127.63 600.418 127.401 600.586 127.233L603.415 130.062C603.997 129.48 604.324 128.691 604.324 127.868H600.324ZM600.324 120.147V127.868H604.324V120.147H600.324ZM615.559 118.147H602.324V122.147H615.559V118.147ZM617.559 127.868V120.147H613.559V127.868H617.559ZM617.296 127.233C617.464 127.401 617.559 127.63 617.559 127.868H613.559C613.559 128.691 613.886 129.48 614.468 130.062L617.296 127.233ZM616.662 126.971C616.9 126.971 617.128 127.065 617.296 127.233L614.468 130.062C615.05 130.644 615.839 130.971 616.662 130.971V126.971ZM616.027 127.233C616.196 127.065 616.424 126.971 616.662 126.971V130.971C617.485 130.971 618.274 130.644 618.856 130.062L616.027 127.233ZM615.765 127.868C615.765 127.63 615.859 127.401 616.027 127.233L618.856 130.062C619.438 129.48 619.765 128.691 619.765 127.868H615.765ZM615.765 120.147V127.868H619.765V120.147H615.765ZM621.074 118.147H617.765V122.147H621.074V118.147ZM620.439 118.41C620.607 118.241 620.836 118.147 621.074 118.147V122.147C621.896 122.147 622.686 121.82 623.268 121.238L620.439 118.41ZM620.176 119.044C620.176 118.806 620.271 118.578 620.439 118.41L623.268 121.238C623.85 120.656 624.176 119.867 624.176 119.044H620.176ZM620.439 119.678C620.271 119.51 620.176 119.282 620.176 119.044H624.176C624.176 118.221 623.85 117.432 623.268 116.85L620.439 119.678ZM621.074 119.941C620.836 119.941 620.607 119.847 620.439 119.678L623.268 116.85C622.686 116.268 621.896 115.941 621.074 115.941V119.941ZM617.765 119.941H621.074V115.941H617.765V119.941ZM615.765 106.912V117.941H619.765V106.912H615.765ZM621.074 104.912H617.765V108.912H621.074V104.912ZM620.439 105.174C620.607 105.006 620.836 104.912 621.074 104.912V108.912C621.896 108.912 622.686 108.585 623.268 108.003L620.439 105.174ZM620.176 105.809C620.176 105.571 620.271 105.343 620.439 105.174L623.268 108.003C623.85 107.421 624.176 106.632 624.176 105.809H620.176ZM620.439 106.443C620.271 106.275 620.176 106.047 620.176 105.809H624.176C624.176 104.986 623.85 104.197 623.268 103.615L620.439 106.443ZM621.074 106.706C620.836 106.706 620.607 106.611 620.439 106.443L623.268 103.615C622.686 103.033 621.896 102.706 621.074 102.706V106.706ZM617.765 106.706H621.074V102.706H617.765V106.706ZM615.765 94.7793V104.706H619.765V94.7793H615.765ZM616.027 95.4136C615.859 95.2454 615.765 95.0173 615.765 94.7793H619.765C619.765 93.9564 619.438 93.1671 618.856 92.5852L616.027 95.4136ZM616.662 95.6764C616.424 95.6764 616.196 95.5819 616.027 95.4137L618.856 92.5852C618.274 92.0033 617.485 91.6764 616.662 91.6764V95.6764ZM617.296 95.4137C617.128 95.5819 616.9 95.6764 616.662 95.6764V91.6764C615.839 91.6764 615.05 92.0033 614.468 92.5852L617.296 95.4137ZM617.559 94.7793C617.559 95.0172 617.464 95.2454 617.296 95.4137L614.468 92.5852C613.886 93.1671 613.559 93.9564 613.559 94.7793H617.559ZM617.559 104.706V94.7793H613.559V104.706H617.559ZM602.324 106.706H615.559V102.706H602.324V106.706ZM600.324 94.7793V104.706H604.324V94.7793H600.324ZM600.586 95.4137C600.418 95.2454 600.324 95.0172 600.324 94.7793H604.324C604.324 93.9564 603.997 93.1671 603.415 92.5852L600.586 95.4137ZM601.221 95.6764C600.983 95.6764 600.755 95.5819 600.586 95.4137L603.415 92.5852C602.833 92.0033 602.044 91.6764 601.221 91.6764V95.6764ZM601.855 95.4137C601.687 95.5819 601.458 95.6764 601.221 95.6764V91.6764C600.398 91.6764 599.608 92.0033 599.026 92.5852L601.855 95.4137ZM602.118 94.7793C602.118 95.0173 602.023 95.2454 601.855 95.4136L599.026 92.5852C598.445 93.1671 598.118 93.9564 598.118 94.7793H602.118ZM602.118 104.706V94.7793H598.118V104.706H602.118ZM586.882 106.706H600.118V102.706H586.882V106.706ZM584.882 94.7793V104.706H588.882V94.7793H584.882ZM585.145 95.4137C584.977 95.2454 584.882 95.0173 584.882 94.7793H588.882C588.882 93.9564 588.555 93.1671 587.974 92.5852L585.145 95.4137ZM585.779 95.6764C585.542 95.6764 585.313 95.5819 585.145 95.4137L587.974 92.5852C587.392 92.0033 586.602 91.6764 585.779 91.6764V95.6764ZM586.414 95.4137C586.245 95.5819 586.017 95.6764 585.779 95.6764V91.6764C584.956 91.6764 584.167 92.0033 583.585 92.5852L586.414 95.4137ZM586.676 94.7793C586.676 95.0173 586.582 95.2454 586.414 95.4137L583.585 92.5852C583.003 93.1671 582.676 93.9564 582.676 94.7793H586.676ZM586.676 104.706V94.7793H582.676V104.706H586.676ZM571.441 106.706H584.676V102.706H571.441V106.706ZM569.441 94.7793V104.706H573.441V94.7793H569.441ZM569.704 95.4137C569.536 95.2454 569.441 95.0173 569.441 94.7793H573.441C573.441 93.9564 573.114 93.1671 572.532 92.5852L569.704 95.4137ZM570.338 95.6764C570.1 95.6764 569.872 95.5819 569.704 95.4137L572.532 92.5852C571.95 92.0033 571.161 91.6764 570.338 91.6764V95.6764ZM570.973 95.4137C570.804 95.5819 570.576 95.6764 570.338 95.6764V91.6764C569.515 91.6764 568.726 92.0033 568.144 92.5852L570.973 95.4137ZM571.235 94.7793C571.235 95.0173 571.141 95.2454 570.973 95.4137L568.144 92.5852C567.562 93.1671 567.235 93.9564 567.235 94.7793H571.235ZM571.235 104.706V94.7793H567.235V104.706H571.235ZM565.926 106.706H569.235V102.706H565.926V106.706ZM566.561 106.443C566.393 106.611 566.164 106.706 565.926 106.706V102.706C565.104 102.706 564.314 103.033 563.732 103.615L566.561 106.443ZM566.824 105.809C566.824 106.047 566.729 106.275 566.561 106.443L563.732 103.615C563.15 104.197 562.824 104.986 562.824 105.809H566.824ZM566.561 105.174C566.729 105.343 566.824 105.571 566.824 105.809H562.824C562.824 106.632 563.15 107.421 563.732 108.003L566.561 105.174ZM565.926 104.912C566.164 104.912 566.393 105.006 566.561 105.174L563.732 108.003C564.314 108.585 565.104 108.912 565.926 108.912V104.912ZM569.235 104.912H565.926V108.912H569.235V104.912ZM571.235 117.941V106.912H567.235V117.941H571.235ZM565.926 119.941H569.235V115.941H565.926V119.941ZM617.559 117.941V106.912H613.559V117.941H617.559ZM602.324 119.941H615.559V115.941H602.324V119.941ZM600.324 106.912V117.941H604.324V106.912H600.324ZM615.559 104.912H602.324V108.912H615.559V104.912ZM602.118 117.941V106.912H598.118V117.941H602.118ZM586.882 119.941H600.118V115.941H586.882V119.941ZM584.882 106.912V117.941H588.882V106.912H584.882ZM600.118 104.912H586.882V108.912H600.118V104.912ZM584.676 104.912H571.441V108.912H584.676V104.912ZM586.676 117.941V106.912H582.676V117.941H586.676ZM571.441 119.941H584.676V115.941H571.441V119.941ZM569.441 106.912V117.941H573.441V106.912H569.441ZM628.243 71.8235H618.868V75.8235H628.243V71.8235ZM630.794 74.9264C630.794 74.2791 630.714 73.3913 630.132 72.6876C629.386 71.7841 628.372 71.8235 628.243 71.8235V75.8235C628.31 75.8235 628.105 75.8333 627.864 75.7646C627.565 75.6799 627.27 75.5028 627.048 75.235C626.853 74.9985 626.799 74.7914 626.789 74.7494C626.778 74.7062 626.794 74.7481 626.794 74.9264H630.794ZM630.794 84.8529V74.9264H626.794V84.8529H630.794ZM558.206 86.8529H628.794V82.8529H558.206V86.8529ZM556.206 74.9264V84.8529H560.206V74.9264H556.206ZM557.115 72.7323C556.533 73.3142 556.206 74.1034 556.206 74.9264H560.206C560.206 75.1643 560.111 75.3925 559.943 75.5607L557.115 72.7323ZM559.309 71.8235C558.486 71.8235 557.697 72.1504 557.115 72.7323L559.943 75.5607C559.775 75.7289 559.547 75.8235 559.309 75.8235L559.309 71.8235ZM568.132 71.8235H559.309V75.8235H568.132V71.8235ZM567.498 72.0862C567.666 71.918 567.894 71.8235 568.132 71.8235V75.8235C568.955 75.8235 569.745 75.4965 570.326 74.9146L567.498 72.0862ZM567.235 72.7205C567.235 72.4826 567.33 72.2544 567.498 72.0862L570.326 74.9146C570.908 74.3327 571.235 73.5435 571.235 72.7205H567.235ZM567.498 73.3548C567.33 73.1866 567.235 72.9584 567.235 72.7205H571.235C571.235 71.8976 570.908 71.1083 570.326 70.5264L567.498 73.3548ZM568.132 73.6176C567.894 73.6176 567.666 73.5231 567.498 73.3548L570.326 70.5264C569.745 69.9445 568.955 69.6176 568.132 69.6176V73.6176ZM559.309 73.6176H568.132V69.6176H559.309V73.6176ZM558 74.9264C558 74.2067 558.589 73.6176 559.309 73.6176V69.6176C556.38 69.6176 554 71.9976 554 74.9264H558ZM558 85.9558V74.9264H554V85.9558H558ZM557.737 85.3215C557.905 85.4897 558 85.7179 558 85.9558H554C554 86.7788 554.327 87.568 554.909 88.1499L557.737 85.3215ZM557.103 85.0588C557.341 85.0588 557.569 85.1533 557.737 85.3215L554.909 88.1499C555.491 88.7318 556.28 89.0588 557.103 89.0588V85.0588ZM629.897 85.0588H557.103V89.0588H629.897V85.0588ZM629.263 85.3215C629.431 85.1533 629.659 85.0588 629.897 85.0588V89.0588C630.72 89.0588 631.509 88.7318 632.091 88.1499L629.263 85.3215ZM629 85.9558C629 85.7179 629.095 85.4897 629.263 85.3215L632.091 88.1499C632.673 87.568 633 86.7788 633 85.9558H629ZM629 74.9264V85.9558H633V74.9264H629ZM628.243 73.6176C628.486 73.6176 628.63 73.6942 628.707 73.7721C628.769 73.8339 629 74.1032 629 74.9264H633C633 73.3099 632.518 71.9247 631.534 70.9421C630.567 69.9755 629.331 69.6176 628.243 69.6176V73.6176ZM618.868 73.6176H628.243V69.6176H618.868V73.6176ZM619.502 73.3548C619.334 73.5231 619.106 73.6176 618.868 73.6176V69.6176C618.045 69.6176 617.255 69.9445 616.674 70.5264L619.502 73.3548ZM619.765 72.7205C619.765 72.9584 619.67 73.1866 619.502 73.3548L616.674 70.5264C616.092 71.1083 615.765 71.8976 615.765 72.7205H619.765ZM619.502 72.0862C619.67 72.2544 619.765 72.4826 619.765 72.7205H615.765C615.765 73.5435 616.092 74.3327 616.674 74.9146L619.502 72.0862ZM618.868 71.8235C619.106 71.8235 619.334 71.918 619.502 72.0862L616.674 74.9146C617.255 75.4965 618.045 75.8235 618.868 75.8235V71.8235ZM629 92.5735V134.485H633V92.5735H629ZM629.263 93.2078C629.095 93.0395 629 92.8114 629 92.5735H633C633 91.7505 632.673 90.9613 632.091 90.3793L629.263 93.2078ZM629.897 93.4705C629.659 93.4705 629.431 93.376 629.263 93.2078L632.091 90.3794C631.509 89.7974 630.72 89.4705 629.897 89.4705V93.4705ZM630.531 93.2078C630.363 93.376 630.135 93.4705 629.897 93.4705V89.4705C629.074 89.4705 628.285 89.7974 627.703 90.3794L630.531 93.2078ZM630.794 92.5735C630.794 92.8114 630.7 93.0395 630.531 93.2078L627.703 90.3793C627.121 90.9613 626.794 91.7505 626.794 92.5735H630.794ZM630.794 134.485V92.5735H626.794V134.485H630.794ZM629.885 136.679C630.467 136.097 630.794 135.308 630.794 134.485H626.794C626.794 134.247 626.889 134.019 627.057 133.851L629.885 136.679ZM627.691 137.588C628.514 137.588 629.303 137.261 629.885 136.679L627.057 133.851C627.225 133.683 627.453 133.588 627.691 133.588V137.588ZM559.309 137.588H627.691V133.588H559.309V137.588ZM557.115 136.679C557.697 137.261 558.486 137.588 559.309 137.588V133.588C559.547 133.588 559.775 133.683 559.943 133.851L557.115 136.679ZM556.206 134.485C556.206 135.308 556.533 136.097 557.115 136.679L559.943 133.851C560.111 134.019 560.206 134.247 560.206 134.485H556.206ZM556.206 92.5735V134.485H560.206V92.5735H556.206ZM556.469 93.2078C556.3 93.0395 556.206 92.8114 556.206 92.5735H560.206C560.206 91.7505 559.879 90.9613 559.297 90.3793L556.469 93.2078ZM557.103 93.4705C556.865 93.4705 556.637 93.376 556.469 93.2078L559.297 90.3793C558.715 89.7974 557.926 89.4705 557.103 89.4705V93.4705ZM557.737 93.2078C557.569 93.376 557.341 93.4705 557.103 93.4705V89.4705C556.28 89.4705 555.491 89.7974 554.909 90.3793L557.737 93.2078ZM558 92.5735C558 92.8114 557.905 93.0395 557.737 93.2078L554.909 90.3793C554.327 90.9613 554 91.7505 554 92.5735H558ZM558 134.485V92.5735H554V134.485H558ZM559.309 135.794C558.589 135.794 558 135.205 558 134.485H554C554 137.414 556.38 139.794 559.309 139.794V135.794ZM627.691 135.794H559.309V139.794H627.691V135.794ZM629 134.485C629 135.205 628.411 135.794 627.691 135.794V139.794C630.62 139.794 633 137.414 633 134.485H629Z" fill="#4C4C4E" mask="url(#path-6-outside-1_2309_1531)"/>
<path d="M534.071 184.19C532.401 184.19 530.932 184.029 529.662 183.706C528.402 183.384 527.23 182.984 526.146 182.505V177.32H526.645C527.738 178.247 528.944 178.96 530.263 179.458C531.581 179.956 532.86 180.205 534.101 180.205C534.413 180.205 534.823 180.171 535.331 180.103C535.849 180.034 536.264 179.927 536.576 179.781C536.957 179.615 537.279 179.385 537.543 179.092C537.807 178.789 537.938 178.394 537.938 177.906C537.938 177.359 537.724 176.914 537.294 176.573C536.864 176.231 536.352 175.982 535.756 175.825C535.014 175.63 534.218 175.445 533.368 175.269C532.528 175.093 531.742 174.878 531.01 174.624C529.32 174.029 528.109 173.228 527.377 172.222C526.645 171.216 526.278 169.956 526.278 168.443C526.278 166.402 527.143 164.751 528.871 163.491C530.6 162.222 532.758 161.587 535.346 161.587C536.645 161.587 537.934 161.719 539.213 161.983C540.502 162.246 541.654 162.603 542.67 163.052V168.032H542.187C541.376 167.339 540.385 166.753 539.213 166.275C538.051 165.796 536.854 165.557 535.624 165.557C535.146 165.557 534.716 165.591 534.335 165.659C533.954 165.728 533.554 165.86 533.134 166.055C532.792 166.211 532.494 166.446 532.24 166.758C531.996 167.061 531.874 167.403 531.874 167.783C531.874 168.34 532.069 168.784 532.46 169.116C532.86 169.439 533.627 169.732 534.76 169.995C535.492 170.161 536.195 170.323 536.869 170.479C537.553 170.635 538.28 170.85 539.052 171.123C540.565 171.67 541.688 172.407 542.421 173.335C543.163 174.253 543.534 175.469 543.534 176.983C543.534 179.151 542.68 180.894 540.971 182.212C539.271 183.531 536.972 184.19 534.071 184.19ZM554.125 184.234C552.768 184.234 551.522 184.063 550.39 183.721C549.267 183.379 548.29 182.852 547.46 182.139C546.64 181.426 546 180.532 545.541 179.458C545.082 178.374 544.853 177.1 544.853 175.635C544.853 174.063 545.102 172.725 545.6 171.621C546.098 170.518 546.771 169.61 547.621 168.897C548.441 168.213 549.403 167.71 550.507 167.388C551.62 167.056 552.777 166.89 553.979 166.89C554.887 166.89 555.795 166.997 556.703 167.212C557.611 167.417 558.524 167.749 559.442 168.208V172.603H558.783C558.578 172.407 558.324 172.193 558.021 171.958C557.729 171.724 557.406 171.509 557.055 171.314C556.684 171.109 556.264 170.938 555.795 170.801C555.326 170.655 554.804 170.581 554.228 170.581C552.919 170.581 551.903 171.04 551.181 171.958C550.468 172.866 550.111 174.092 550.111 175.635C550.111 177.285 550.492 178.516 551.254 179.326C552.025 180.137 553.046 180.542 554.315 180.542C554.96 180.542 555.526 180.469 556.015 180.323C556.503 180.176 556.923 180 557.274 179.795C557.616 179.59 557.909 179.38 558.153 179.165C558.397 178.941 558.607 178.74 558.783 178.565H559.442V182.959C559.149 183.086 558.808 183.233 558.417 183.399C558.036 183.565 557.646 183.701 557.245 183.809C556.747 183.946 556.278 184.048 555.839 184.116C555.409 184.195 554.838 184.234 554.125 184.234ZM577.284 183.794H572.128V175.635C572.128 174.971 572.099 174.312 572.04 173.657C571.991 172.993 571.894 172.505 571.747 172.193C571.571 171.822 571.317 171.558 570.985 171.402C570.653 171.236 570.209 171.153 569.652 171.153C569.232 171.153 568.808 171.231 568.378 171.387C567.948 171.543 567.489 171.792 567.001 172.134V183.794H561.874V161.001H567.001V169.16C567.841 168.448 568.656 167.891 569.447 167.49C570.248 167.09 571.132 166.89 572.099 166.89C573.778 166.89 575.062 167.422 575.951 168.487C576.84 169.541 577.284 171.074 577.284 173.086V183.794ZM589.516 184.234C586.41 184.234 584.027 183.491 582.367 182.007C580.717 180.523 579.892 178.408 579.892 175.664C579.892 172.979 580.663 170.835 582.206 169.234C583.749 167.632 585.907 166.831 588.681 166.831C591.2 166.831 593.095 167.51 594.364 168.867C595.634 170.225 596.269 172.168 596.269 174.698V176.543H585.033C585.082 177.305 585.243 177.945 585.517 178.462C585.79 178.97 586.151 179.375 586.601 179.678C587.04 179.981 587.553 180.2 588.139 180.337C588.725 180.464 589.364 180.528 590.058 180.528C590.653 180.528 591.239 180.464 591.815 180.337C592.392 180.2 592.919 180.025 593.397 179.81C593.817 179.624 594.203 179.424 594.555 179.209C594.916 178.994 595.209 178.804 595.434 178.638H595.976V182.871C595.556 183.037 595.17 183.194 594.818 183.34C594.477 183.477 594.003 183.618 593.397 183.765C592.841 183.911 592.265 184.024 591.669 184.102C591.083 184.19 590.365 184.234 589.516 184.234ZM591.215 173.452C591.186 172.368 590.932 171.543 590.453 170.977C589.984 170.41 589.262 170.127 588.285 170.127C587.289 170.127 586.508 170.425 585.941 171.021C585.385 171.616 585.077 172.427 585.019 173.452H591.215ZM613.861 183.794H608.734V182.08C608.402 182.354 608.021 182.647 607.592 182.959C607.172 183.272 606.801 183.506 606.479 183.662C606.068 183.858 605.663 184.004 605.263 184.102C604.862 184.199 604.384 184.248 603.827 184.248C601.952 184.248 600.468 183.472 599.374 181.919C598.28 180.366 597.733 178.291 597.733 175.694C597.733 174.258 597.919 173.013 598.29 171.958C598.661 170.904 599.174 169.986 599.828 169.204C600.424 168.491 601.146 167.93 601.996 167.52C602.846 167.1 603.744 166.89 604.691 166.89C605.551 166.89 606.254 166.983 606.801 167.168C607.357 167.344 608.002 167.622 608.734 168.003V161.001H613.861V183.794ZM608.734 179.253V171.182C608.48 171.055 608.148 170.952 607.738 170.874C607.328 170.786 606.977 170.742 606.684 170.742C605.453 170.742 604.525 171.172 603.9 172.031C603.285 172.891 602.978 174.092 602.978 175.635C602.978 177.256 603.222 178.428 603.71 179.151C604.208 179.873 605.009 180.235 606.112 180.235C606.562 180.235 607.016 180.147 607.475 179.971C607.934 179.795 608.354 179.556 608.734 179.253ZM633.08 183.794H627.953V181.978C627.064 182.72 626.249 183.286 625.507 183.677C624.765 184.058 623.881 184.248 622.855 184.248C621.225 184.248 619.95 183.736 619.032 182.71C618.124 181.675 617.67 180.122 617.67 178.052V167.344H622.826V175.503C622.826 176.353 622.846 177.046 622.885 177.583C622.934 178.12 623.041 178.574 623.207 178.946C623.363 179.287 623.603 179.546 623.925 179.722C624.257 179.898 624.716 179.986 625.302 179.986C625.663 179.986 626.088 179.898 626.576 179.722C627.074 179.546 627.533 179.307 627.953 179.004V167.344H633.08V183.794ZM642.147 183.794H637.021V161.001H642.147V183.794ZM654.496 184.234C651.391 184.234 649.008 183.491 647.348 182.007C645.697 180.523 644.872 178.408 644.872 175.664C644.872 172.979 645.644 170.835 647.187 169.234C648.729 167.632 650.888 166.831 653.661 166.831C656.181 166.831 658.075 167.51 659.345 168.867C660.614 170.225 661.249 172.168 661.249 174.698V176.543H650.014C650.062 177.305 650.224 177.945 650.497 178.462C650.771 178.97 651.132 179.375 651.581 179.678C652.021 179.981 652.533 180.2 653.119 180.337C653.705 180.464 654.345 180.528 655.038 180.528C655.634 180.528 656.22 180.464 656.796 180.337C657.372 180.2 657.899 180.025 658.378 179.81C658.798 179.624 659.184 179.424 659.535 179.209C659.896 178.994 660.189 178.804 660.414 178.638H660.956V182.871C660.536 183.037 660.15 183.194 659.799 183.34C659.457 183.477 658.983 183.618 658.378 183.765C657.821 183.911 657.245 184.024 656.649 184.102C656.063 184.19 655.346 184.234 654.496 184.234ZM656.195 173.452C656.166 172.368 655.912 171.543 655.434 170.977C654.965 170.41 654.242 170.127 653.266 170.127C652.27 170.127 651.488 170.425 650.922 171.021C650.365 171.616 650.058 172.427 649.999 173.452H656.195Z" fill="#4C4C4E"/>
</g>
<rect x="808.5" y="20" width="303" height="217" rx="30" fill="white"/>
<path d="M945.014 85.0293L944.318 87.4304C947.691 88.4084 951.198 89.8203 953.805 91.3998C955.113 92.1924 956.09 92.9653 956.712 93.664C957.349 94.3797 957.421 94.7941 957.421 94.9261V98.6652H918.4V94.9213C918.4 94.8354 918.454 94.4445 919.097 93.7266C919.718 93.0327 920.69 92.2611 921.983 91.4639C924.558 89.8759 927.992 88.4349 931.214 87.4121L931.235 87.4054L931.255 87.3984C931.838 87.2021 933.049 86.6096 933.896 85.3389C934.874 83.8721 935.081 81.934 934.134 79.767L933.917 79.2695L933.513 78.907C930.674 76.3587 928.626 72.2498 928.626 68.2895C928.626 65.3325 929.701 63.2599 931.267 61.8959C932.877 60.4928 935.204 59.6751 937.91 59.6751C940.62 59.6751 942.999 60.4948 944.659 61.9119C946.269 63.2873 947.367 65.3592 947.367 68.2895C947.367 72.169 945.184 76.3172 942.304 78.9098L941.852 79.3169L941.638 79.8861C940.825 82.0423 940.862 83.9342 941.753 85.4195C942.58 86.7969 943.83 87.2901 944.323 87.4319L945.014 85.0293ZM945.014 85.0293C944.693 84.9368 942.702 84.1526 943.977 80.7677L959.921 98.6652V94.9261C959.921 90.981 952.035 87.0652 945.014 85.0293ZM899.091 45.241H896.591V47.741V106.187V108.687H899.091H976.73H979.23V106.187V47.741V45.241H976.73H899.091ZM995.866 59.896V55.0584L1010.32 57.2112C1010.32 57.2114 1010.32 57.2116 1010.32 57.2118C1010.75 57.2779 1011.15 57.4162 1011.5 57.6087C1011.85 57.8016 1012.12 58.0405 1012.33 58.2981L1014.28 56.7363L1012.33 58.2981C1012.53 58.5547 1012.67 58.8252 1012.73 59.09L1015.16 58.4748L1012.73 59.09C1012.8 59.3537 1012.81 59.6217 1012.75 59.885L1012.75 59.892L1012.75 59.899L997.847 136.748C997.846 136.749 997.846 136.751 997.846 136.752C997.74 137.276 997.381 137.841 996.712 138.254C996.035 138.672 995.149 138.859 994.264 138.724L994.262 138.724L956.727 133.039H982.275C989.457 133.039 995.866 127.852 995.866 120.798V114.953L1005.87 64.0523L1006.38 61.4898L1003.8 61.0983L995.866 59.896ZM1020.35 84.4001L1018.84 84.1123L1019.77 79.4351L1027.35 80.9257C1027.35 80.9266 1027.36 80.9274 1027.36 80.9283C1029.08 81.2935 1029.72 82.6884 1029.43 83.7645L1029.43 83.7745L1009.32 159.558C1009.16 160.104 1008.73 160.67 1008.01 161.061C1007.28 161.458 1006.36 161.601 1005.47 161.427C1005.47 161.426 1005.46 161.426 1005.46 161.425L919.189 143.621C918.312 143.425 917.641 142.955 917.258 142.409C916.887 141.881 916.793 141.302 916.926 140.769L917.908 137.147L992.453 148.379C992.456 148.38 992.46 148.38 992.463 148.381C994.515 148.705 996.626 148.593 998.625 148.051C1000.21 147.622 1001.69 146.93 1003.01 146.003L1004.13 146.232L1006.44 146.7L1007.04 144.429L1022.29 87.5027L1022.99 84.9043L1020.35 84.4001ZM890.5 42.8705C890.5 41.8626 891.556 40.5 893.546 40.5H982.275C984.265 40.5 985.321 41.8626 985.321 42.8705V120.798C985.321 121.806 984.265 123.169 982.275 123.169H893.546C891.556 123.169 890.5 121.806 890.5 120.798V42.8705Z" fill="#FEC341" stroke="#717250" stroke-width="5"/>
<path d="M910.825 212.132C909.39 212.718 907.522 213.29 905.222 213.846C902.937 214.403 900.681 214.681 898.455 214.681C893.313 214.681 889.211 213.202 886.15 210.243C883.103 207.269 881.58 203.058 881.58 197.608C881.58 192.481 883.103 188.373 886.15 185.282C889.211 182.191 893.394 180.646 898.696 180.646C901.436 180.646 903.662 180.909 905.376 181.437C907.09 181.949 908.862 182.652 910.693 183.546V191.214H909.946C909.551 190.907 908.979 190.475 908.232 189.918C907.5 189.347 906.782 188.863 906.079 188.468C905.259 187.999 904.307 187.596 903.223 187.259C902.153 186.922 901.018 186.754 899.817 186.754C898.411 186.754 897.129 186.974 895.972 187.413C894.814 187.853 893.782 188.526 892.874 189.435C892.009 190.313 891.321 191.427 890.808 192.774C890.31 194.122 890.061 195.689 890.061 197.477C890.061 201.3 891.021 204.12 892.939 205.936C894.858 207.752 897.48 208.661 900.806 208.661C901.099 208.661 901.443 208.653 901.838 208.639C902.234 208.624 902.578 208.602 902.871 208.573V202.157H896.521V196.026H910.825V212.132ZM930.183 207.562V202.42C928.879 202.552 927.825 202.669 927.019 202.772C926.213 202.86 925.422 203.043 924.646 203.321C923.972 203.556 923.445 203.915 923.064 204.398C922.698 204.867 922.515 205.497 922.515 206.288C922.515 207.445 922.822 208.243 923.438 208.683C924.067 209.107 924.99 209.32 926.206 209.32C926.88 209.32 927.568 209.166 928.271 208.858C928.975 208.551 929.612 208.119 930.183 207.562ZM930.183 211.385C929.656 211.825 929.18 212.22 928.755 212.572C928.345 212.923 927.788 213.275 927.085 213.626C926.396 213.963 925.723 214.22 925.063 214.396C924.419 214.571 923.511 214.659 922.339 214.659C920.156 214.659 918.34 213.927 916.89 212.462C915.454 210.997 914.736 209.151 914.736 206.925C914.736 205.094 915.103 203.614 915.835 202.486C916.567 201.358 917.622 200.465 918.999 199.806C920.391 199.132 922.053 198.663 923.987 198.399C925.92 198.136 928 197.931 930.227 197.784V197.652C930.227 196.29 929.722 195.353 928.711 194.84C927.715 194.312 926.213 194.049 924.207 194.049C923.298 194.049 922.236 194.217 921.021 194.554C919.805 194.876 918.618 195.294 917.461 195.807H916.802V189.852C917.563 189.632 918.794 189.376 920.493 189.083C922.192 188.775 923.906 188.622 925.635 188.622C929.883 188.622 932.974 189.332 934.907 190.753C936.855 192.159 937.83 194.312 937.83 197.213V214H930.183V211.385ZM951.211 214H943.521V179.811H951.211V214ZM964.79 214H957.1V179.811H964.79V214ZM983.313 214.659C978.655 214.659 975.081 213.546 972.59 211.319C970.115 209.093 968.877 205.921 968.877 201.805C968.877 197.777 970.034 194.562 972.349 192.159C974.663 189.757 977.9 188.556 982.061 188.556C985.84 188.556 988.682 189.574 990.586 191.61C992.49 193.646 993.442 196.561 993.442 200.355V203.124H976.589C976.663 204.266 976.904 205.226 977.314 206.002C977.725 206.764 978.267 207.372 978.94 207.826C979.6 208.28 980.369 208.609 981.248 208.814C982.126 209.005 983.086 209.1 984.126 209.1C985.02 209.1 985.898 209.005 986.763 208.814C987.627 208.609 988.418 208.346 989.136 208.023C989.766 207.745 990.344 207.445 990.872 207.123C991.414 206.8 991.853 206.515 992.19 206.266H993.003V212.616C992.373 212.865 991.794 213.099 991.267 213.319C990.754 213.524 990.044 213.736 989.136 213.956C988.301 214.176 987.437 214.344 986.543 214.461C985.664 214.593 984.587 214.659 983.313 214.659ZM985.862 198.487C985.818 196.861 985.437 195.624 984.719 194.774C984.016 193.924 982.932 193.5 981.467 193.5C979.973 193.5 978.801 193.946 977.952 194.84C977.117 195.733 976.655 196.949 976.567 198.487H985.862ZM1013.96 196.598H1013.33C1013.03 196.495 1012.61 196.422 1012.05 196.378C1011.5 196.319 1010.88 196.29 1010.21 196.29C1009.4 196.29 1008.55 196.407 1007.66 196.642C1006.78 196.876 1005.92 197.154 1005.09 197.477V214H997.397V189.325H1005.09V192.862C1005.44 192.54 1005.92 192.137 1006.54 191.654C1007.17 191.156 1007.74 190.76 1008.25 190.467C1008.81 190.13 1009.45 189.845 1010.19 189.61C1010.93 189.361 1011.64 189.237 1012.29 189.237C1012.54 189.237 1012.82 189.244 1013.13 189.259C1013.44 189.273 1013.72 189.295 1013.96 189.325V196.598ZM1039.94 189.325L1027.48 223.053H1019.22L1022.95 213.407L1013.9 189.325H1021.98L1027.17 204.793L1032.03 189.325H1039.94Z" fill="black"/>
<g filter="url(#filter2_b_2309_1531)">
<rect x="1211.5" y="40" width="230" height="177" rx="30" fill="white" fill-opacity="0.5"/>
<path d="M1365.35 78.6663L1356.27 117.555H1306.97L1297.89 78.6663H1365.35Z" stroke="#4C4C4E" stroke-width="5"/>
<path d="M1284.5 63H1291.67L1294.74 76.1666M1294.74 76.1666L1304.99 120.055H1358.26L1368.5 76.1666H1294.74Z" stroke="#4C4C4E" stroke-width="4" stroke-linecap="round" stroke-linejoin="round"/>
<path d="M1304.99 142C1308.38 142 1311.13 139.052 1311.13 135.417C1311.13 131.781 1308.38 128.833 1304.99 128.833C1301.59 128.833 1298.84 131.781 1298.84 135.417C1298.84 139.052 1301.59 142 1304.99 142Z" stroke="#4C4C4E" stroke-width="4" stroke-linecap="round" stroke-linejoin="round"/>
<path d="M1358.26 142C1361.65 142 1364.4 139.052 1364.4 135.417C1364.4 131.781 1361.65 128.833 1358.26 128.833C1354.86 128.833 1352.11 131.781 1352.11 135.417C1352.11 139.052 1354.86 142 1358.26 142Z" stroke="#4C4C4E" stroke-width="4" stroke-linecap="round" stroke-linejoin="round"/>
<path d="M1323.43 98.1112H1339.82M1331.62 106.889V89.3335" stroke="#4C4C4E" stroke-width="5" stroke-linecap="round" stroke-linejoin="round"/>
<path d="M1272.83 188.396C1271.16 188.396 1269.69 188.234 1268.42 187.912C1267.16 187.59 1265.99 187.189 1264.9 186.711V181.525H1265.4C1266.5 182.453 1267.7 183.166 1269.02 183.664C1270.34 184.162 1271.62 184.411 1272.86 184.411C1273.17 184.411 1273.58 184.377 1274.09 184.309C1274.61 184.24 1275.02 184.133 1275.33 183.986C1275.71 183.82 1276.04 183.591 1276.3 183.298C1276.56 182.995 1276.7 182.6 1276.7 182.111C1276.7 181.564 1276.48 181.12 1276.05 180.778C1275.62 180.437 1275.11 180.188 1274.51 180.031C1273.77 179.836 1272.97 179.65 1272.12 179.475C1271.29 179.299 1270.5 179.084 1269.77 178.83C1268.08 178.234 1266.87 177.434 1266.13 176.428C1265.4 175.422 1265.04 174.162 1265.04 172.648C1265.04 170.607 1265.9 168.957 1267.63 167.697C1269.36 166.428 1271.51 165.793 1274.1 165.793C1275.4 165.793 1276.69 165.925 1277.97 166.188C1279.26 166.452 1280.41 166.809 1281.43 167.258V172.238H1280.94C1280.13 171.545 1279.14 170.959 1277.97 170.48C1276.81 170.002 1275.61 169.763 1274.38 169.763C1273.9 169.763 1273.47 169.797 1273.09 169.865C1272.71 169.934 1272.31 170.065 1271.89 170.261C1271.55 170.417 1271.25 170.651 1271 170.964C1270.75 171.267 1270.63 171.608 1270.63 171.989C1270.63 172.546 1270.83 172.99 1271.22 173.322C1271.62 173.645 1272.38 173.938 1273.52 174.201C1274.25 174.367 1274.95 174.528 1275.63 174.685C1276.31 174.841 1277.04 175.056 1277.81 175.329C1279.32 175.876 1280.45 176.613 1281.18 177.541C1281.92 178.459 1282.29 179.675 1282.29 181.188C1282.29 183.356 1281.44 185.1 1279.73 186.418C1278.03 187.736 1275.73 188.396 1272.83 188.396ZM1293.23 188.439C1290.13 188.439 1287.75 187.697 1286.08 186.213C1284.43 184.729 1283.61 182.614 1283.61 179.87C1283.61 177.185 1284.38 175.041 1285.92 173.439C1287.47 171.838 1289.62 171.037 1292.4 171.037C1294.92 171.037 1296.81 171.716 1298.08 173.073C1299.35 174.431 1299.99 176.374 1299.99 178.903V180.749H1288.75C1288.8 181.511 1288.96 182.15 1289.23 182.668C1289.51 183.176 1289.87 183.581 1290.32 183.884C1290.76 184.187 1291.27 184.406 1291.86 184.543C1292.44 184.67 1293.08 184.733 1293.78 184.733C1294.37 184.733 1294.96 184.67 1295.53 184.543C1296.11 184.406 1296.64 184.23 1297.12 184.016C1297.54 183.83 1297.92 183.63 1298.27 183.415C1298.63 183.2 1298.93 183.01 1299.15 182.844H1299.69V187.077C1299.27 187.243 1298.89 187.399 1298.54 187.546C1298.19 187.683 1297.72 187.824 1297.12 187.971C1296.56 188.117 1295.98 188.229 1295.39 188.308C1294.8 188.396 1294.08 188.439 1293.23 188.439ZM1294.93 177.658C1294.9 176.574 1294.65 175.749 1294.17 175.183C1293.7 174.616 1292.98 174.333 1292 174.333C1291.01 174.333 1290.23 174.631 1289.66 175.227C1289.1 175.822 1288.79 176.633 1288.74 177.658H1294.93ZM1313.67 176.398H1313.24C1313.05 176.33 1312.76 176.281 1312.39 176.252C1312.02 176.213 1311.61 176.193 1311.16 176.193C1310.63 176.193 1310.06 176.271 1309.46 176.428C1308.88 176.584 1308.31 176.77 1307.75 176.984V188H1302.62V171.55H1307.75V173.908C1307.98 173.693 1308.31 173.425 1308.72 173.103C1309.14 172.771 1309.52 172.507 1309.86 172.312C1310.23 172.087 1310.66 171.896 1311.15 171.74C1311.65 171.574 1312.12 171.491 1312.55 171.491C1312.72 171.491 1312.91 171.496 1313.11 171.506C1313.32 171.516 1313.5 171.53 1313.67 171.55V176.398ZM1331.03 171.55L1325.12 188H1319.53L1313.67 171.55H1319.06L1322.43 182.434L1325.75 171.55H1331.03ZM1338.13 188H1333V171.55H1338.13V188ZM1338.28 169.206H1332.86V165.207H1338.28V169.206ZM1350.13 188.439C1348.77 188.439 1347.53 188.269 1346.39 187.927C1345.27 187.585 1344.29 187.058 1343.46 186.345C1342.64 185.632 1342 184.738 1341.54 183.664C1341.08 182.58 1340.86 181.306 1340.86 179.841C1340.86 178.269 1341.1 176.931 1341.6 175.827C1342.1 174.724 1342.77 173.815 1343.62 173.103C1344.44 172.419 1345.41 171.916 1346.51 171.594C1347.62 171.262 1348.78 171.096 1349.98 171.096C1350.89 171.096 1351.8 171.203 1352.71 171.418C1353.61 171.623 1354.53 171.955 1355.45 172.414V176.809H1354.79C1354.58 176.613 1354.33 176.398 1354.02 176.164C1353.73 175.93 1353.41 175.715 1353.06 175.52C1352.69 175.314 1352.27 175.144 1351.8 175.007C1351.33 174.86 1350.81 174.787 1350.23 174.787C1348.92 174.787 1347.91 175.246 1347.18 176.164C1346.47 177.072 1346.11 178.298 1346.11 179.841C1346.11 181.491 1346.5 182.722 1347.26 183.532C1348.03 184.343 1349.05 184.748 1350.32 184.748C1350.96 184.748 1351.53 184.675 1352.02 184.528C1352.51 184.382 1352.93 184.206 1353.28 184.001C1353.62 183.796 1353.91 183.586 1354.16 183.371C1354.4 183.146 1354.61 182.946 1354.79 182.771H1355.45V187.165C1355.15 187.292 1354.81 187.438 1354.42 187.604C1354.04 187.771 1353.65 187.907 1353.25 188.015C1352.75 188.151 1352.28 188.254 1351.84 188.322C1351.41 188.4 1350.84 188.439 1350.13 188.439ZM1366.3 188.439C1363.19 188.439 1360.81 187.697 1359.15 186.213C1357.5 184.729 1356.68 182.614 1356.68 179.87C1356.68 177.185 1357.45 175.041 1358.99 173.439C1360.53 171.838 1362.69 171.037 1365.46 171.037C1367.98 171.037 1369.88 171.716 1371.15 173.073C1372.42 174.431 1373.05 176.374 1373.05 178.903V180.749H1361.82C1361.87 181.511 1362.03 182.15 1362.3 182.668C1362.57 183.176 1362.94 183.581 1363.38 183.884C1363.82 184.187 1364.34 184.406 1364.92 184.543C1365.51 184.67 1366.15 184.733 1366.84 184.733C1367.44 184.733 1368.02 184.67 1368.6 184.543C1369.18 184.406 1369.7 184.23 1370.18 184.016C1370.6 183.83 1370.99 183.63 1371.34 183.415C1371.7 183.2 1371.99 183.01 1372.22 182.844H1372.76V187.077C1372.34 187.243 1371.95 187.399 1371.6 187.546C1371.26 187.683 1370.79 187.824 1370.18 187.971C1369.62 188.117 1369.05 188.229 1368.45 188.308C1367.87 188.396 1367.15 188.439 1366.3 188.439ZM1368 177.658C1367.97 176.574 1367.72 175.749 1367.24 175.183C1366.77 174.616 1366.05 174.333 1365.07 174.333C1364.07 174.333 1363.29 174.631 1362.73 175.227C1362.17 175.822 1361.86 176.633 1361.8 177.658H1368ZM1380.7 188.454C1379.49 188.454 1378.34 188.322 1377.26 188.059C1376.18 187.795 1375.29 187.487 1374.59 187.136V182.8H1375.02C1375.26 182.985 1375.54 183.19 1375.85 183.415C1376.16 183.64 1376.6 183.874 1377.15 184.118C1377.63 184.343 1378.17 184.538 1378.77 184.704C1379.37 184.86 1380.03 184.938 1380.73 184.938C1381.45 184.938 1382.09 184.826 1382.63 184.602C1383.19 184.377 1383.47 184.021 1383.47 183.532C1383.47 183.151 1383.34 182.863 1383.09 182.668C1382.83 182.473 1382.34 182.287 1381.61 182.111C1381.22 182.014 1380.72 181.911 1380.13 181.804C1379.53 181.687 1379 181.555 1378.55 181.408C1377.26 181.008 1376.29 180.417 1375.63 179.636C1374.99 178.845 1374.66 177.81 1374.66 176.53C1374.66 175.798 1374.83 175.109 1375.16 174.465C1375.5 173.811 1376 173.229 1376.66 172.722C1377.31 172.224 1378.12 171.828 1379.07 171.535C1380.04 171.242 1381.13 171.096 1382.34 171.096C1383.49 171.096 1384.55 171.213 1385.52 171.447C1386.49 171.672 1387.3 171.945 1387.96 172.268V176.428H1387.55C1387.38 176.291 1387.1 176.11 1386.72 175.886C1386.34 175.651 1385.97 175.451 1385.61 175.285C1385.18 175.09 1384.69 174.929 1384.16 174.802C1383.63 174.675 1383.09 174.611 1382.53 174.611C1381.79 174.611 1381.16 174.738 1380.64 174.992C1380.13 175.246 1379.88 175.583 1379.88 176.003C1379.88 176.374 1380.01 176.667 1380.26 176.882C1380.51 177.097 1381.07 177.307 1381.92 177.512C1382.35 177.619 1382.86 177.727 1383.42 177.834C1384 177.932 1384.55 178.068 1385.08 178.244C1386.26 178.625 1387.15 179.187 1387.76 179.929C1388.38 180.661 1388.68 181.638 1388.68 182.858C1388.68 183.63 1388.5 184.367 1388.14 185.07C1387.78 185.764 1387.27 186.35 1386.6 186.828C1385.9 187.346 1385.07 187.746 1384.11 188.029C1383.17 188.312 1382.03 188.454 1380.7 188.454Z" fill="#4C4C4E"/>
</g>
<g filter="url(#filter3_b_2309_1531)">
<rect x="1541.5" y="61" width="191" height="135" rx="30" fill="white" fill-opacity="0.5"/>
<path d="M1637 80.0117C1635.99 80.0117 1635.03 80.3803 1634.31 81.0365C1633.6 81.6926 1633.2 82.5825 1633.2 83.5105C1633.2 89.4304 1625.43 92.3973 1620.88 88.2093C1620.53 87.8751 1620.11 87.6086 1619.65 87.4252C1619.19 87.2418 1618.69 87.1453 1618.18 87.1413C1617.68 87.1373 1617.18 87.2258 1616.71 87.4017C1616.25 87.5776 1615.82 87.8374 1615.47 88.1659C1615.11 88.4944 1614.83 88.8851 1614.64 89.3151C1614.44 89.745 1614.35 90.2058 1614.35 90.6703C1614.36 91.1349 1614.46 91.594 1614.66 92.0208C1614.86 92.4477 1615.15 92.8338 1615.51 93.1565C1620.06 97.3445 1616.84 104.503 1610.41 104.503C1609.4 104.503 1608.44 104.872 1607.73 105.528C1607.01 106.184 1606.61 107.074 1606.61 108.002C1606.61 108.93 1607.01 109.82 1607.73 110.476C1608.44 111.132 1609.4 111.501 1610.41 111.501C1616.84 111.501 1620.06 118.659 1615.51 122.847C1614.82 123.507 1614.44 124.391 1614.45 125.308C1614.46 126.225 1614.85 127.103 1615.56 127.752C1616.26 128.4 1617.22 128.768 1618.21 128.776C1619.21 128.784 1620.17 128.432 1620.88 127.794C1625.43 123.606 1633.2 126.57 1633.2 132.493C1633.2 133.421 1633.6 134.311 1634.31 134.967C1635.03 135.623 1635.99 135.992 1637 135.992C1638.01 135.992 1638.97 135.623 1639.69 134.967C1640.4 134.311 1640.8 133.421 1640.8 132.493C1640.8 126.573 1648.57 123.606 1653.12 127.794C1653.47 128.128 1653.89 128.395 1654.35 128.578C1654.81 128.762 1655.31 128.858 1655.82 128.862C1656.32 128.866 1656.82 128.778 1657.29 128.602C1657.76 128.426 1658.18 128.166 1658.54 127.838C1658.89 127.509 1659.18 127.118 1659.37 126.688C1659.56 126.258 1659.65 125.798 1659.65 125.333C1659.64 124.869 1659.54 124.41 1659.34 123.983C1659.14 123.556 1658.85 123.17 1658.49 122.847C1653.94 118.659 1657.16 111.501 1663.59 111.501C1664.6 111.501 1665.56 111.132 1666.28 110.476C1666.99 109.82 1667.39 108.93 1667.39 108.002C1667.39 107.074 1666.99 106.184 1666.28 105.528C1665.56 104.872 1664.6 104.503 1663.59 104.503C1657.16 104.503 1653.94 97.3445 1658.49 93.1565C1659.18 92.4967 1659.56 91.6129 1659.56 90.6955C1659.55 89.7781 1659.15 88.9006 1658.44 88.2519C1657.74 87.6032 1656.79 87.2353 1655.79 87.2273C1654.79 87.2193 1653.83 87.572 1653.12 88.2093C1648.57 92.3973 1640.8 89.4339 1640.8 83.5105C1640.8 82.5825 1640.4 81.6926 1639.69 81.0365C1638.97 80.3803 1638.01 80.0117 1637 80.0117ZM1625.64 82.7302C1625.85 80.0861 1627.13 77.6132 1629.24 75.8082C1631.35 74.0033 1634.12 73 1637 73C1639.88 73 1642.65 74.0033 1644.76 75.8082C1646.87 77.6132 1648.16 80.0861 1648.37 82.7302C1650.55 81.006 1653.35 80.1037 1656.22 80.2042C1659.09 80.3046 1661.82 81.4002 1663.85 83.2718C1665.88 85.1433 1667.07 87.6525 1667.18 90.2971C1667.29 92.9416 1666.31 95.5263 1664.43 97.5335C1667.3 97.7265 1669.99 98.913 1671.95 100.855C1673.91 102.796 1675 105.349 1675 108C1675 110.651 1673.91 113.204 1671.95 115.147C1669.99 117.089 1667.31 118.276 1664.44 118.47C1666.31 120.478 1667.29 123.062 1667.18 125.707C1667.07 128.352 1665.88 130.861 1663.85 132.732C1661.82 134.603 1659.09 135.698 1656.22 135.798C1653.35 135.897 1650.55 134.994 1648.37 133.27C1648.16 135.914 1646.87 138.387 1644.76 140.192C1642.65 141.997 1639.88 143 1637 143C1634.12 143 1631.35 141.997 1629.24 140.192C1627.13 138.387 1625.85 135.914 1625.64 133.27C1623.46 134.994 1620.65 135.897 1617.78 135.798C1614.91 135.698 1612.18 134.603 1610.15 132.732C1608.12 130.861 1606.93 128.352 1606.82 125.707C1606.71 123.062 1607.69 120.478 1609.56 118.47C1606.69 118.277 1604.01 117.09 1602.05 115.148C1600.09 113.206 1599 110.653 1599 108.002C1599 105.351 1600.09 102.798 1602.05 100.856C1604.01 98.9139 1606.69 97.727 1609.56 97.5335C1607.69 95.5266 1606.7 92.94 1606.81 90.2925C1606.92 87.645 1608.1 85.1326 1610.14 83.2593C1612.17 81.386 1614.9 80.2903 1617.77 80.1922C1620.65 80.0941 1623.46 81.0007 1625.64 82.7302Z" fill="#4C4C4E"/>
<path d="M1637.01 101.005C1635 101.005 1633.07 101.742 1631.64 103.054C1630.22 104.367 1629.42 106.147 1629.42 108.002C1629.42 109.858 1630.22 111.638 1631.64 112.95C1633.07 114.263 1635 115 1637.01 115C1639.03 115 1640.96 114.263 1642.39 112.95C1643.81 111.638 1644.61 109.858 1644.61 108.002C1644.61 106.147 1643.81 104.367 1642.39 103.054C1640.96 101.742 1639.03 101.005 1637.01 101.005ZM1626.27 98.108C1627.67 96.7713 1629.35 95.7051 1631.2 94.9717C1633.06 94.2382 1635.05 93.8521 1637.07 93.836C1639.09 93.8198 1641.09 94.1739 1642.95 94.8776C1644.82 95.5813 1646.52 96.6205 1647.94 97.9345C1649.37 99.2485 1650.5 100.811 1651.26 102.531C1652.03 104.251 1652.41 106.094 1652.39 107.952C1652.38 109.81 1651.96 111.647 1651.16 113.354C1650.36 115.062 1649.21 116.606 1647.76 117.897C1644.89 120.446 1641.05 121.857 1637.07 121.825C1633.08 121.793 1629.27 120.321 1626.46 117.726C1623.64 115.132 1622.04 111.622 1622.01 107.952C1621.97 104.283 1623.5 100.747 1626.27 98.108Z" fill="#4C4C4E"/>
<path d="M1606.72 163.073C1606.72 164.089 1606.56 165.056 1606.24 165.974C1605.92 166.892 1605.45 167.658 1604.85 168.273C1604.48 168.654 1604.07 169.006 1603.62 169.328C1603.18 169.65 1602.69 169.924 1602.15 170.148C1601.61 170.373 1601.03 170.549 1600.39 170.676C1599.77 170.803 1599.07 170.866 1598.28 170.866H1595.41V178H1589.93V156.188H1598.4C1599.66 156.188 1600.75 156.306 1601.65 156.54C1602.57 156.765 1603.4 157.126 1604.14 157.624C1604.96 158.171 1605.6 158.903 1606.05 159.821C1606.5 160.729 1606.72 161.813 1606.72 163.073ZM1601.1 163.205C1601.1 162.59 1600.95 162.062 1600.66 161.623C1600.36 161.174 1600.01 160.866 1599.6 160.7C1599.08 160.476 1598.59 160.349 1598.11 160.319C1597.64 160.28 1597 160.261 1596.19 160.261H1595.41V166.794H1595.79C1596.31 166.794 1596.8 166.789 1597.26 166.779C1597.72 166.77 1598.12 166.735 1598.46 166.677C1598.75 166.628 1599.06 166.535 1599.38 166.398C1599.71 166.252 1599.97 166.091 1600.14 165.915C1600.52 165.554 1600.76 165.178 1600.89 164.787C1601.03 164.396 1601.1 163.869 1601.1 163.205ZM1620.4 166.398H1619.98C1619.78 166.33 1619.5 166.281 1619.13 166.252C1618.76 166.213 1618.35 166.193 1617.9 166.193C1617.36 166.193 1616.79 166.271 1616.2 166.428C1615.61 166.584 1615.04 166.77 1614.49 166.984V178H1609.36V161.55H1614.49V163.908C1614.72 163.693 1615.04 163.425 1615.45 163.103C1615.87 162.771 1616.25 162.507 1616.59 162.312C1616.97 162.087 1617.4 161.896 1617.88 161.74C1618.38 161.574 1618.85 161.491 1619.29 161.491C1619.46 161.491 1619.64 161.496 1619.85 161.506C1620.05 161.516 1620.24 161.53 1620.4 161.55V166.398ZM1638.16 169.782C1638.16 172.487 1637.42 174.621 1635.93 176.184C1634.46 177.736 1632.37 178.513 1629.66 178.513C1626.98 178.513 1624.89 177.736 1623.39 176.184C1621.91 174.621 1621.17 172.487 1621.17 169.782C1621.17 167.048 1621.91 164.909 1623.39 163.366C1624.89 161.813 1626.98 161.037 1629.66 161.037C1632.36 161.037 1634.45 161.818 1635.93 163.381C1637.42 164.934 1638.16 167.067 1638.16 169.782ZM1632.9 169.812C1632.9 168.835 1632.82 168.024 1632.65 167.38C1632.49 166.726 1632.27 166.203 1631.99 165.812C1631.69 165.402 1631.35 165.119 1630.96 164.963C1630.58 164.797 1630.15 164.714 1629.66 164.714C1629.2 164.714 1628.79 164.787 1628.42 164.934C1628.04 165.07 1627.7 165.339 1627.39 165.739C1627.1 166.12 1626.86 166.643 1626.69 167.307C1626.51 167.971 1626.42 168.806 1626.42 169.812C1626.42 170.817 1626.51 171.633 1626.67 172.258C1626.84 172.873 1627.05 173.366 1627.32 173.737C1627.59 174.118 1627.93 174.396 1628.34 174.572C1628.75 174.748 1629.21 174.836 1629.71 174.836C1630.12 174.836 1630.53 174.748 1630.95 174.572C1631.38 174.396 1631.72 174.133 1631.98 173.781C1632.28 173.361 1632.51 172.858 1632.66 172.272C1632.82 171.677 1632.9 170.856 1632.9 169.812ZM1651.4 159.074H1651C1650.81 159.016 1650.5 158.942 1650.08 158.854C1649.67 158.757 1649.28 158.708 1648.91 158.708C1647.87 158.708 1647.17 158.898 1646.79 159.279C1646.41 159.66 1646.23 160.373 1646.23 161.418V161.55H1650.3V165.124H1646.4V178H1641.28V165.124H1639.23V161.55H1641.28V161.096C1641.28 159.084 1641.8 157.575 1642.86 156.569C1643.91 155.563 1645.51 155.061 1647.65 155.061C1648.39 155.061 1649.08 155.09 1649.73 155.148C1650.37 155.197 1650.93 155.266 1651.4 155.354V159.074ZM1657.49 178H1652.37V161.55H1657.49V178ZM1657.64 159.206H1652.22V155.207H1657.64V159.206ZM1666.55 178H1661.42V155.207H1666.55V178ZM1678.89 178.439C1675.79 178.439 1673.41 177.697 1671.75 176.213C1670.1 174.729 1669.27 172.614 1669.27 169.87C1669.27 167.185 1670.04 165.041 1671.58 163.439C1673.13 161.838 1675.29 161.037 1678.06 161.037C1680.58 161.037 1682.47 161.716 1683.74 163.073C1685.01 164.431 1685.65 166.374 1685.65 168.903V170.749H1674.41C1674.46 171.511 1674.62 172.15 1674.9 172.668C1675.17 173.176 1675.53 173.581 1675.98 173.884C1676.42 174.187 1676.93 174.406 1677.52 174.543C1678.1 174.67 1678.74 174.733 1679.44 174.733C1680.03 174.733 1680.62 174.67 1681.19 174.543C1681.77 174.406 1682.3 174.23 1682.78 174.016C1683.2 173.83 1683.58 173.63 1683.93 173.415C1684.29 173.2 1684.59 173.01 1684.81 172.844H1685.35V177.077C1684.93 177.243 1684.55 177.399 1684.2 177.546C1683.86 177.683 1683.38 177.824 1682.78 177.971C1682.22 178.117 1681.64 178.229 1681.05 178.308C1680.46 178.396 1679.74 178.439 1678.89 178.439ZM1680.59 167.658C1680.56 166.574 1680.31 165.749 1679.83 165.183C1679.36 164.616 1678.64 164.333 1677.66 164.333C1676.67 164.333 1675.89 164.631 1675.32 165.227C1674.76 165.822 1674.46 166.633 1674.4 167.658H1680.59Z" fill="#4C4C4E"/>
</g>
<defs>
<filter id="filter0_b_2309_1531" x="157.5" y="31" width="251" height="195" filterUnits="userSpaceOnUse" color-interpolation-filters="sRGB">
<feFlood flood-opacity="0" result="BackgroundImageFix"/>
<feGaussianBlur in="BackgroundImageFix" stdDeviation="15"/>
<feComposite in2="SourceAlpha" operator="in" result="effect1_backgroundBlur_2309_1531"/>
<feBlend mode="normal" in="SourceGraphic" in2="effect1_backgroundBlur_2309_1531" result="shape"/>
</filter>
<filter id="filter1_b_2309_1531" x="448.5" y="10" width="290" height="237" filterUnits="userSpaceOnUse" color-interpolation-filters="sRGB">
<feFlood flood-opacity="0" result="BackgroundImageFix"/>
<feGaussianBlur in="BackgroundImageFix" stdDeviation="15"/>
<feComposite in2="SourceAlpha" operator="in" result="effect1_backgroundBlur_2309_1531"/>
<feBlend mode="normal" in="SourceGraphic" in2="effect1_backgroundBlur_2309_1531" result="shape"/>
</filter>
<filter id="filter2_b_2309_1531" x="1181.5" y="10" width="290" height="237" filterUnits="userSpaceOnUse" color-interpolation-filters="sRGB">
<feFlood flood-opacity="0" result="BackgroundImageFix"/>
<feGaussianBlur in="BackgroundImageFix" stdDeviation="15"/>
<feComposite in2="SourceAlpha" operator="in" result="effect1_backgroundBlur_2309_1531"/>
<feBlend mode="normal" in="SourceGraphic" in2="effect1_backgroundBlur_2309_1531" result="shape"/>
</filter>
<filter id="filter3_b_2309_1531" x="1511.5" y="31" width="251" height="195" filterUnits="userSpaceOnUse" color-interpolation-filters="sRGB">
<feFlood flood-opacity="0" result="BackgroundImageFix"/>
<feGaussianBlur in="BackgroundImageFix" stdDeviation="15"/>
<feComposite in2="SourceAlpha" operator="in" result="effect1_backgroundBlur_2309_1531"/>
<feBlend mode="normal" in="SourceGraphic" in2="effect1_backgroundBlur_2309_1531" result="shape"/>
</filter>
</defs>
</svg>
