<svg width="1920" height="257" viewBox="0 0 1920 257" fill="none" xmlns="http://www.w3.org/2000/svg">
<g filter="url(#filter0_b_2309_1475)">
<rect x="179.5" y="61" width="191" height="135" rx="30" fill="white" fill-opacity="0.5"/>
<path fill-rule="evenodd" clip-rule="evenodd" d="M306.5 85.9651C306.5 91.1925 302.086 95.4301 296.641 95.4301C291.196 95.4301 286.781 91.1925 286.781 85.9651C286.781 80.7376 291.196 76.5 296.641 76.5C302.086 76.5 306.5 80.7376 306.5 85.9651ZM301.592 127.29C299.69 125.662 298.025 123.797 296.642 121.743C295.132 118.909 294.227 115.813 293.98 112.638V103.286C293.972 102.15 293.867 101.017 293.665 99.8979C292.113 99.6 290.621 99.0631 289.248 98.3077C289.771 99.926 290.037 101.611 290.036 103.305V112.657C290.278 116.53 291.388 120.307 293.29 123.731C294.651 125.802 296.267 127.708 298.101 129.41H247.602C249.436 127.708 251.052 125.802 252.413 123.731C254.315 120.307 255.425 116.53 255.667 112.657V103.286C255.656 101.096 256.096 98.9243 256.961 96.8969C257.826 94.8695 259.099 93.0259 260.707 91.4714C262.315 89.917 264.227 88.6824 266.333 87.8383C268.439 86.9942 270.698 86.5571 272.98 86.5521C276.32 86.5547 279.585 87.5029 282.366 89.2781C282.059 88.1971 281.887 87.0851 281.853 85.9653V84.7727C279.794 83.8004 277.582 83.1608 275.307 82.8797V80.4945C275.307 79.8243 275.029 79.1815 274.535 78.7075C274.042 78.2336 273.372 77.9673 272.674 77.9673C271.976 77.9673 271.306 78.2336 270.813 78.7075C270.319 79.1815 270.042 79.8243 270.042 80.4945V82.9744C264.946 83.6645 260.282 86.1011 256.911 89.8345C253.541 93.5679 251.691 98.3459 251.703 103.286V112.638C251.456 115.813 250.551 118.909 249.041 121.743C247.682 123.792 246.044 125.657 244.17 127.29C243.96 127.467 243.792 127.686 243.676 127.93C243.56 128.175 243.5 128.441 243.5 128.71V131.284C243.5 131.786 243.708 132.268 244.078 132.623C244.447 132.978 244.949 133.177 245.472 133.177H300.29C300.813 133.177 301.315 132.978 301.685 132.623C302.054 132.268 302.262 131.786 302.262 131.284V128.71C302.262 128.441 302.202 128.175 302.086 127.93C301.971 127.686 301.802 127.467 301.592 127.29ZM272.978 139.499C274.22 139.472 275.412 139.024 276.343 138.234C277.274 137.444 277.884 136.363 278.065 135.183H267.693C267.879 136.395 268.518 137.501 269.49 138.295C270.462 139.089 271.702 139.517 272.978 139.499Z" fill="#4C4C4E"/>
<path d="M249.98 174.5H244.707L236.299 159.295V174.5H231.289V152.688H238.013L244.971 165.184V152.688H249.98V174.5ZM269.902 166.282C269.902 168.987 269.16 171.121 267.676 172.684C266.201 174.236 264.111 175.013 261.406 175.013C258.721 175.013 256.631 174.236 255.137 172.684C253.652 171.121 252.91 168.987 252.91 166.282C252.91 163.548 253.652 161.409 255.137 159.866C256.631 158.313 258.721 157.537 261.406 157.537C264.102 157.537 266.191 158.318 267.676 159.881C269.16 161.434 269.902 163.567 269.902 166.282ZM264.644 166.312C264.644 165.335 264.561 164.524 264.395 163.88C264.238 163.226 264.019 162.703 263.735 162.312C263.433 161.902 263.091 161.619 262.71 161.463C262.329 161.297 261.895 161.214 261.406 161.214C260.947 161.214 260.532 161.287 260.161 161.434C259.79 161.57 259.448 161.839 259.136 162.239C258.843 162.62 258.608 163.143 258.433 163.807C258.257 164.471 258.169 165.306 258.169 166.312C258.169 167.317 258.252 168.133 258.418 168.758C258.584 169.373 258.799 169.866 259.062 170.237C259.336 170.618 259.678 170.896 260.088 171.072C260.498 171.248 260.952 171.336 261.45 171.336C261.86 171.336 262.275 171.248 262.695 171.072C263.125 170.896 263.467 170.633 263.721 170.281C264.023 169.861 264.253 169.358 264.409 168.772C264.565 168.177 264.644 167.356 264.644 166.312ZM278.926 174.822C276.836 174.822 275.312 174.393 274.355 173.533C273.408 172.674 272.935 171.268 272.935 169.314V161.624H270.972V158.05H272.935V153.348H278.062V158.05H282.998V161.624H278.062V167.454C278.062 168.03 278.066 168.533 278.076 168.963C278.086 169.393 278.164 169.778 278.311 170.12C278.447 170.462 278.687 170.735 279.028 170.94C279.38 171.136 279.888 171.233 280.552 171.233C280.825 171.233 281.182 171.175 281.621 171.058C282.07 170.94 282.383 170.833 282.559 170.735H282.998V174.354C282.441 174.5 281.851 174.612 281.226 174.69C280.601 174.778 279.834 174.822 278.926 174.822ZM290.234 174.5H285.107V158.05H290.234V174.5ZM290.381 155.706H284.961V151.707H290.381V155.706ZM304.678 155.574H304.282C304.087 155.516 303.779 155.442 303.359 155.354C302.949 155.257 302.559 155.208 302.188 155.208C301.152 155.208 300.444 155.398 300.063 155.779C299.692 156.16 299.507 156.873 299.507 157.918V158.05H303.579V161.624H299.683V174.5H294.556V161.624H292.505V158.05H294.556V157.596C294.556 155.584 295.083 154.075 296.138 153.069C297.192 152.063 298.789 151.561 300.928 151.561C301.67 151.561 302.363 151.59 303.008 151.648C303.652 151.697 304.209 151.766 304.678 151.854V155.574ZM320.996 158.05L312.69 180.535H307.183L309.673 174.104L303.638 158.05H309.028L312.485 168.362L315.723 158.05H320.996Z" fill="#4C4C4E"/>
</g>
<g filter="url(#filter1_b_2309_1475)">
<rect x="470.5" y="40" width="238" height="177" rx="30" fill="white" fill-opacity="0.5"/>
<path d="M633.711 116.5C633.711 127.105 633.711 132.411 629.824 135.704C625.943 139 619.687 139 607.184 139H571.816C559.313 139 553.057 139 549.176 135.704C545.29 132.411 545.29 127.105 545.29 116.5V101.5C545.29 90.895 545.29 85.5888 549.176 82.2963C553.057 79 559.313 79 571.816 79H607.184C619.687 79 625.943 79 629.824 82.2963C633.711 85.5888 633.711 90.895 633.711 101.5V116.5Z" stroke="#4C4C4E" stroke-width="10"/>
<path d="M576.239 64L589.502 77.125L602.765 64M607.186 79V139" stroke="#4C4C4E" stroke-width="10" stroke-linecap="round"/>
<path d="M624.868 116.5C624.868 115.505 624.403 114.552 623.574 113.848C622.744 113.145 621.62 112.75 620.447 112.75C619.275 112.75 618.15 113.145 617.321 113.848C616.492 114.552 616.026 115.505 616.026 116.5C616.026 117.495 616.492 118.448 617.321 119.152C618.15 119.855 619.275 120.25 620.447 120.25C621.62 120.25 622.744 119.855 623.574 119.152C624.403 118.448 624.868 117.495 624.868 116.5ZM624.868 101.5C624.868 100.505 624.403 99.5516 623.574 98.8484C622.744 98.1451 621.62 97.75 620.447 97.75C619.275 97.75 618.15 98.1451 617.321 98.8484C616.492 99.5516 616.026 100.505 616.026 101.5C616.026 102.495 616.492 103.448 617.321 104.152C618.15 104.855 619.275 105.25 620.447 105.25C621.62 105.25 622.744 104.855 623.574 104.152C624.403 103.448 624.868 102.495 624.868 101.5Z" fill="#4C4C4E"/>
<path d="M571.731 166.188L566.209 188H560.203L556.702 174.509L553.304 188H547.298L541.775 166.188H547.459L550.462 180.822L554.124 166.188H559.559L563.03 180.822L566.194 166.188H571.731ZM583.216 183.708V180.28C582.347 180.368 581.644 180.446 581.106 180.515C580.569 180.573 580.042 180.695 579.524 180.881C579.075 181.037 578.724 181.276 578.47 181.599C578.226 181.911 578.104 182.331 578.104 182.858C578.104 183.63 578.309 184.162 578.719 184.455C579.139 184.738 579.754 184.88 580.564 184.88C581.014 184.88 581.473 184.777 581.941 184.572C582.41 184.367 582.835 184.079 583.216 183.708ZM583.216 186.257C582.864 186.55 582.547 186.813 582.264 187.048C581.99 187.282 581.619 187.517 581.15 187.751C580.691 187.976 580.242 188.146 579.803 188.264C579.373 188.381 578.768 188.439 577.986 188.439C576.531 188.439 575.32 187.951 574.354 186.975C573.396 185.998 572.918 184.768 572.918 183.283C572.918 182.062 573.162 181.076 573.65 180.324C574.139 179.572 574.842 178.977 575.76 178.537C576.688 178.088 577.796 177.775 579.085 177.6C580.374 177.424 581.761 177.287 583.245 177.189V177.102C583.245 176.193 582.908 175.568 582.234 175.227C581.57 174.875 580.569 174.699 579.231 174.699C578.626 174.699 577.918 174.812 577.107 175.036C576.297 175.251 575.506 175.529 574.734 175.871H574.295V171.901C574.803 171.755 575.623 171.584 576.756 171.389C577.889 171.184 579.031 171.081 580.184 171.081C583.016 171.081 585.076 171.555 586.365 172.502C587.664 173.439 588.313 174.875 588.313 176.809V188H583.216V186.257ZM598.406 188.322C596.316 188.322 594.793 187.893 593.836 187.033C592.889 186.174 592.415 184.768 592.415 182.814V175.124H590.452V171.55H592.415V166.848H597.542V171.55H602.479V175.124H597.542V180.954C597.542 181.53 597.547 182.033 597.557 182.463C597.566 182.893 597.645 183.278 597.791 183.62C597.928 183.962 598.167 184.235 598.509 184.44C598.86 184.636 599.368 184.733 600.032 184.733C600.306 184.733 600.662 184.675 601.102 184.558C601.551 184.44 601.863 184.333 602.039 184.235H602.479V187.854C601.922 188 601.331 188.112 600.706 188.19C600.081 188.278 599.314 188.322 598.406 188.322ZM612.659 188.439C611.302 188.439 610.057 188.269 608.924 187.927C607.801 187.585 606.824 187.058 605.994 186.345C605.174 185.632 604.534 184.738 604.075 183.664C603.616 182.58 603.387 181.306 603.387 179.841C603.387 178.269 603.636 176.931 604.134 175.827C604.632 174.724 605.306 173.815 606.155 173.103C606.976 172.419 607.938 171.916 609.041 171.594C610.154 171.262 611.312 171.096 612.513 171.096C613.421 171.096 614.329 171.203 615.237 171.418C616.146 171.623 617.059 171.955 617.977 172.414V176.809H617.317C617.112 176.613 616.858 176.398 616.556 176.164C616.263 175.93 615.94 175.715 615.589 175.52C615.218 175.314 614.798 175.144 614.329 175.007C613.86 174.86 613.338 174.787 612.762 174.787C611.453 174.787 610.438 175.246 609.715 176.164C609.002 177.072 608.646 178.298 608.646 179.841C608.646 181.491 609.026 182.722 609.788 183.532C610.56 184.343 611.58 184.748 612.85 184.748C613.494 184.748 614.061 184.675 614.549 184.528C615.037 184.382 615.457 184.206 615.809 184.001C616.15 183.796 616.443 183.586 616.688 183.371C616.932 183.146 617.142 182.946 617.317 182.771H617.977V187.165C617.684 187.292 617.342 187.438 616.951 187.604C616.57 187.771 616.18 187.907 615.779 188.015C615.281 188.151 614.812 188.254 614.373 188.322C613.943 188.4 613.372 188.439 612.659 188.439ZM635.818 188H630.662V179.841C630.662 179.177 630.633 178.518 630.574 177.863C630.525 177.199 630.428 176.711 630.281 176.398C630.105 176.027 629.852 175.764 629.52 175.607C629.188 175.441 628.743 175.358 628.187 175.358C627.767 175.358 627.342 175.437 626.912 175.593C626.482 175.749 626.023 175.998 625.535 176.34V188H620.408V165.207H625.535V173.366C626.375 172.653 627.19 172.097 627.981 171.696C628.782 171.296 629.666 171.096 630.633 171.096C632.312 171.096 633.597 171.628 634.485 172.692C635.374 173.747 635.818 175.28 635.818 177.292V188Z" fill="#4C4C4E"/>
</g>
<rect x="808.5" y="20" width="303" height="217" rx="30" fill="white"/>
<mask id="path-10-inside-1_2309_1475" fill="white">
<path fill-rule="evenodd" clip-rule="evenodd" d="M1010.72 37.8259H924.888C911.983 37.8259 901.48 47.4235 901.48 59.2173V66.3477H893.678C891.608 66.3477 889.624 67.0989 888.16 68.4362C886.697 69.7734 885.875 71.587 885.875 73.4781C885.875 75.3692 886.697 77.1829 888.16 78.5201C889.624 79.8573 891.608 80.6086 893.678 80.6086H901.48V94.8695H893.678C891.608 94.8695 889.624 95.6207 888.16 96.9579C886.697 98.2951 885.875 100.109 885.875 102C885.875 103.891 886.697 105.705 888.16 107.042C889.624 108.379 891.608 109.13 893.678 109.13H901.48V123.391H893.678C891.608 123.391 889.624 124.142 888.16 125.48C886.697 126.817 885.875 128.631 885.875 130.522C885.875 132.413 886.697 134.226 888.16 135.564C889.624 136.901 891.608 137.652 893.678 137.652H901.48V144.783C901.48 156.576 911.983 166.174 924.888 166.174H1010.72C1023.62 166.174 1034.12 156.576 1034.12 144.783V59.2173C1034.12 47.4235 1023.62 37.8259 1010.72 37.8259ZM917.086 59.2173C917.086 55.2884 920.589 52.0868 924.888 52.0868V66.3477H917.086V59.2173ZM917.086 80.6086H924.888V94.8695H917.086V80.6086ZM917.086 109.13H924.888V123.391H917.086V109.13ZM917.086 144.783V137.652H924.888V151.913C920.589 151.913 917.086 148.711 917.086 144.783ZM1018.52 144.783C1018.52 148.711 1015.02 151.913 1010.72 151.913H932.691V52.0868H1010.72C1015.02 52.0868 1018.52 55.2884 1018.52 59.2173V144.783ZM971.699 105.562C980.318 105.562 987.304 99.1776 987.304 91.3015C987.304 83.4254 980.318 77.0406 971.699 77.0406C963.081 77.0406 956.094 83.4254 956.094 91.3015C956.094 99.1776 963.081 105.562 971.699 105.562ZM952.2 121.859C952.2 116.768 959.519 111.669 971.707 111.669C983.567 111.669 991.214 116.768 991.214 121.859C991.214 124.411 983.146 126.957 971.707 126.957C959.519 126.957 952.2 124.404 952.2 121.859Z"/>
</mask>
<path fill-rule="evenodd" clip-rule="evenodd" d="M1010.72 37.8259H924.888C911.983 37.8259 901.48 47.4235 901.48 59.2173V66.3477H893.678C891.608 66.3477 889.624 67.0989 888.16 68.4362C886.697 69.7734 885.875 71.587 885.875 73.4781C885.875 75.3692 886.697 77.1829 888.16 78.5201C889.624 79.8573 891.608 80.6086 893.678 80.6086H901.48V94.8695H893.678C891.608 94.8695 889.624 95.6207 888.16 96.9579C886.697 98.2951 885.875 100.109 885.875 102C885.875 103.891 886.697 105.705 888.16 107.042C889.624 108.379 891.608 109.13 893.678 109.13H901.48V123.391H893.678C891.608 123.391 889.624 124.142 888.16 125.48C886.697 126.817 885.875 128.631 885.875 130.522C885.875 132.413 886.697 134.226 888.16 135.564C889.624 136.901 891.608 137.652 893.678 137.652H901.48V144.783C901.48 156.576 911.983 166.174 924.888 166.174H1010.72C1023.62 166.174 1034.12 156.576 1034.12 144.783V59.2173C1034.12 47.4235 1023.62 37.8259 1010.72 37.8259ZM917.086 59.2173C917.086 55.2884 920.589 52.0868 924.888 52.0868V66.3477H917.086V59.2173ZM917.086 80.6086H924.888V94.8695H917.086V80.6086ZM917.086 109.13H924.888V123.391H917.086V109.13ZM917.086 144.783V137.652H924.888V151.913C920.589 151.913 917.086 148.711 917.086 144.783ZM1018.52 144.783C1018.52 148.711 1015.02 151.913 1010.72 151.913H932.691V52.0868H1010.72C1015.02 52.0868 1018.52 55.2884 1018.52 59.2173V144.783ZM971.699 105.562C980.318 105.562 987.304 99.1776 987.304 91.3015C987.304 83.4254 980.318 77.0406 971.699 77.0406C963.081 77.0406 956.094 83.4254 956.094 91.3015C956.094 99.1776 963.081 105.562 971.699 105.562ZM952.2 121.859C952.2 116.768 959.519 111.669 971.707 111.669C983.567 111.669 991.214 116.768 991.214 121.859C991.214 124.411 983.146 126.957 971.707 126.957C959.519 126.957 952.2 124.404 952.2 121.859Z" fill="#FEC341"/>
<path d="M901.48 66.3477V71.3477H906.48V66.3477H901.48ZM888.16 68.4362L891.533 72.1271L888.16 68.4362ZM888.16 78.5201L884.787 82.2111L884.787 82.2111L888.16 78.5201ZM901.48 80.6086H906.48V75.6086H901.48V80.6086ZM901.48 94.8695V99.8695H906.48V94.8695H901.48ZM888.16 96.9579L884.787 93.267L884.787 93.267L888.16 96.9579ZM888.16 107.042L884.787 110.733L884.787 110.733L888.16 107.042ZM901.48 109.13H906.48V104.13H901.48V109.13ZM901.48 123.391V128.391H906.48V123.391H901.48ZM888.16 125.48L884.787 121.789L884.787 121.789L888.16 125.48ZM888.16 135.564L884.787 139.255L884.787 139.255L888.16 135.564ZM901.48 137.652H906.48V132.652H901.48V137.652ZM924.888 52.0868H929.888V47.0868H924.888V52.0868ZM924.888 66.3477V71.3477H929.888V66.3477H924.888ZM917.086 66.3477H912.086V71.3477H917.086V66.3477ZM924.888 80.6086H929.888V75.6086H924.888V80.6086ZM917.086 80.6086V75.6086H912.086V80.6086H917.086ZM924.888 94.8695V99.8695H929.888V94.8695H924.888ZM917.086 94.8695H912.086V99.8695H917.086V94.8695ZM924.888 109.13H929.888V104.13H924.888V109.13ZM917.086 109.13V104.13H912.086V109.13H917.086ZM924.888 123.391V128.391H929.888V123.391H924.888ZM917.086 123.391H912.086V128.391H917.086V123.391ZM917.086 137.652V132.652H912.086V137.652H917.086ZM924.888 137.652H929.888V132.652H924.888V137.652ZM924.888 151.913V156.913H929.888V151.913H924.888ZM932.691 151.913H927.691V156.913H932.691V151.913ZM932.691 52.0868V47.0868H927.691V52.0868H932.691ZM924.888 42.8259H1010.72V32.8259H924.888V42.8259ZM906.48 59.2173C906.48 50.5993 914.311 42.8259 924.888 42.8259V32.8259C909.655 32.8259 896.48 44.2477 896.48 59.2173H906.48ZM906.48 66.3477V59.2173H896.48V66.3477H906.48ZM893.678 71.3477H901.48V61.3477H893.678V71.3477ZM891.533 72.1271C892.032 71.6718 892.796 71.3477 893.678 71.3477V61.3477C890.42 61.3477 887.216 62.5261 884.787 64.7452L891.533 72.1271ZM890.875 73.4781C890.875 73.0659 891.05 72.5686 891.533 72.1271L884.787 64.7452C882.344 66.9781 880.875 70.1081 880.875 73.4781H890.875ZM891.533 74.8292C891.05 74.3876 890.875 73.8904 890.875 73.4781H880.875C880.875 76.8481 882.344 79.9782 884.787 82.2111L891.533 74.8292ZM893.678 75.6086C892.796 75.6086 892.032 75.2845 891.533 74.8292L884.787 82.2111C887.216 84.4302 890.42 85.6086 893.678 85.6086V75.6086ZM901.48 75.6086H893.678V85.6086H901.48V75.6086ZM906.48 94.8695V80.6086H896.48V94.8695H906.48ZM893.678 99.8695H901.48V89.8695H893.678V99.8695ZM891.533 100.649C892.032 100.194 892.796 99.8695 893.678 99.8695V89.8695C890.42 89.8695 887.216 91.0478 884.787 93.267L891.533 100.649ZM890.875 102C890.875 101.588 891.05 101.09 891.533 100.649L884.787 93.267C882.344 95.4999 880.875 98.6299 880.875 102H890.875ZM891.533 103.351C891.05 102.909 890.875 102.412 890.875 102H880.875C880.875 105.37 882.344 108.5 884.787 110.733L891.533 103.351ZM893.678 104.13C892.796 104.13 892.032 103.806 891.533 103.351L884.787 110.733C887.216 112.952 890.42 114.13 893.678 114.13V104.13ZM901.48 104.13H893.678V114.13H901.48V104.13ZM906.48 123.391V109.13H896.48V123.391H906.48ZM893.678 128.391H901.48V118.391H893.678V128.391ZM891.533 129.171C892.032 128.715 892.796 128.391 893.678 128.391V118.391C890.42 118.391 887.216 119.57 884.787 121.789L891.533 129.171ZM890.875 130.522C890.875 130.109 891.05 129.612 891.533 129.171L884.787 121.789C882.344 124.022 880.875 127.152 880.875 130.522H890.875ZM891.533 131.873C891.05 131.431 890.875 130.934 890.875 130.522H880.875C880.875 133.892 882.344 137.022 884.787 139.255L891.533 131.873ZM893.678 132.652C892.796 132.652 892.031 132.328 891.533 131.873L884.787 139.255C887.216 141.474 890.42 142.652 893.678 142.652V132.652ZM901.48 132.652H893.678V142.652H901.48V132.652ZM906.48 144.783V137.652H896.48V144.783H906.48ZM924.888 161.174C914.311 161.174 906.48 153.4 906.48 144.783H896.48C896.48 159.752 909.655 171.174 924.888 171.174V161.174ZM1010.72 161.174H924.888V171.174H1010.72V161.174ZM1029.12 144.783C1029.12 153.4 1021.29 161.174 1010.72 161.174V171.174C1025.95 171.174 1039.12 159.752 1039.12 144.783H1029.12ZM1029.12 59.2173V144.783H1039.12V59.2173H1029.12ZM1010.72 42.8259C1021.29 42.8259 1029.12 50.5994 1029.12 59.2173H1039.12C1039.12 44.2476 1025.95 32.8259 1010.72 32.8259V42.8259ZM924.888 47.0868C918.261 47.0868 912.086 52.1125 912.086 59.2173H922.086C922.086 58.4642 922.917 57.0868 924.888 57.0868V47.0868ZM929.888 66.3477V52.0868H919.888V66.3477H929.888ZM917.086 71.3477H924.888V61.3477H917.086V71.3477ZM912.086 59.2173V66.3477H922.086V59.2173H912.086ZM924.888 75.6086H917.086V85.6086H924.888V75.6086ZM929.888 94.8695V80.6086H919.888V94.8695H929.888ZM917.086 99.8695H924.888V89.8695H917.086V99.8695ZM912.086 80.6086V94.8695H922.086V80.6086H912.086ZM924.888 104.13H917.086V114.13H924.888V104.13ZM929.888 123.391V109.13H919.888V123.391H929.888ZM917.086 128.391H924.888V118.391H917.086V128.391ZM912.086 109.13V123.391H922.086V109.13H912.086ZM912.086 137.652V144.783H922.086V137.652H912.086ZM924.888 132.652H917.086V142.652H924.888V132.652ZM929.888 151.913V137.652H919.888V151.913H929.888ZM912.086 144.783C912.086 151.887 918.261 156.913 924.888 156.913V146.913C922.917 146.913 922.086 145.536 922.086 144.783H912.086ZM1010.72 156.913C1017.34 156.913 1023.52 151.887 1023.52 144.783H1013.52C1013.52 145.536 1012.69 146.913 1010.72 146.913V156.913ZM932.691 156.913H1010.72V146.913H932.691V156.913ZM927.691 52.0868V151.913H937.691V52.0868H927.691ZM1010.72 47.0868H932.691V57.0868H1010.72V47.0868ZM1023.52 59.2173C1023.52 52.1125 1017.34 47.0868 1010.72 47.0868V57.0868C1012.69 57.0868 1013.52 58.4642 1013.52 59.2173H1023.52ZM1023.52 144.783V59.2173H1013.52V144.783H1023.52ZM982.304 91.3015C982.304 96.0017 977.99 100.562 971.699 100.562V110.562C982.646 110.562 992.304 102.353 992.304 91.3015H982.304ZM971.699 82.0406C977.99 82.0406 982.304 86.6013 982.304 91.3015H992.304C992.304 80.2496 982.646 72.0406 971.699 72.0406V82.0406ZM961.094 91.3015C961.094 86.6013 965.408 82.0406 971.699 82.0406V72.0406C960.753 72.0406 951.094 80.2496 951.094 91.3015H961.094ZM971.699 100.562C965.408 100.562 961.094 96.0017 961.094 91.3015H951.094C951.094 102.353 960.753 110.562 971.699 110.562V100.562ZM971.707 106.669C964.969 106.669 959.189 108.071 954.908 110.511C950.774 112.866 947.2 116.77 947.2 121.859H957.2C957.2 121.857 957.286 120.665 959.859 119.199C962.284 117.817 966.257 116.669 971.707 116.669V106.669ZM996.214 121.859C996.214 116.69 992.455 112.803 988.361 110.498C984.065 108.08 978.303 106.669 971.707 106.669V116.669C976.971 116.669 980.962 117.808 983.455 119.212C984.699 119.912 985.447 120.607 985.844 121.133C986.037 121.389 986.13 121.581 986.173 121.697C986.215 121.808 986.214 121.857 986.214 121.859H996.214ZM971.707 131.957C977.749 131.957 983.095 131.29 987.085 130.183C989.046 129.64 990.943 128.919 992.467 127.945C993.689 127.164 996.214 125.224 996.214 121.859H986.214C986.214 119.77 987.729 119.105 987.082 119.519C986.736 119.74 985.9 120.135 984.414 120.547C981.511 121.352 977.104 121.957 971.707 121.957V131.957ZM947.2 121.859C947.2 125.029 949.414 126.972 950.719 127.861C952.213 128.879 954.076 129.618 956.012 130.171C959.949 131.293 965.318 131.957 971.707 131.957V121.957C965.908 121.957 961.524 121.344 958.755 120.554C957.338 120.15 956.609 119.774 956.35 119.597C955.901 119.292 957.2 119.961 957.2 121.859H947.2Z" fill="#717250" mask="url(#path-10-inside-1_2309_1475)"/>
<path d="M878.525 215.811C873.618 215.811 869.722 214.332 866.836 211.373C863.95 208.399 862.507 204.224 862.507 198.848C862.507 193.663 863.95 189.532 866.836 186.456C869.736 183.365 873.64 181.82 878.547 181.82C879.851 181.82 881.023 181.893 882.063 182.039C883.103 182.186 884.099 182.391 885.051 182.655C885.798 182.874 886.611 183.175 887.49 183.555C888.369 183.936 889.08 184.266 889.622 184.544V192.344H888.787C888.391 191.993 887.893 191.575 887.292 191.092C886.692 190.594 886.011 190.111 885.249 189.642C884.487 189.173 883.645 188.778 882.722 188.455C881.814 188.118 880.862 187.95 879.866 187.95C878.679 187.95 877.588 188.14 876.592 188.521C875.61 188.887 874.673 189.532 873.779 190.455C872.959 191.29 872.285 192.418 871.758 193.839C871.245 195.26 870.989 196.937 870.989 198.87C870.989 200.906 871.26 202.62 871.802 204.012C872.344 205.389 873.054 206.502 873.933 207.352C874.783 208.172 875.728 208.765 876.768 209.132C877.822 209.498 878.87 209.681 879.91 209.681C880.994 209.681 882.026 209.505 883.008 209.154C883.989 208.787 884.817 208.385 885.491 207.945C886.223 207.491 886.868 207.03 887.424 206.561C887.981 206.092 888.464 205.675 888.875 205.308H889.622V212.999C889.021 213.277 888.325 213.599 887.534 213.966C886.743 214.317 885.93 214.617 885.095 214.866C884.07 215.174 883.11 215.408 882.217 215.57C881.323 215.731 880.093 215.811 878.525 215.811ZM917.725 202.847C917.725 206.905 916.611 210.106 914.385 212.449C912.173 214.779 909.038 215.943 904.98 215.943C900.952 215.943 897.817 214.779 895.576 212.449C893.35 210.106 892.236 206.905 892.236 202.847C892.236 198.746 893.35 195.538 895.576 193.223C897.817 190.894 900.952 189.73 904.98 189.73C909.023 189.73 912.158 190.902 914.385 193.245C916.611 195.574 917.725 198.775 917.725 202.847ZM909.836 202.891C909.836 201.427 909.712 200.211 909.463 199.244C909.229 198.262 908.899 197.479 908.474 196.893C908.02 196.278 907.507 195.853 906.936 195.618C906.365 195.369 905.713 195.245 904.98 195.245C904.292 195.245 903.669 195.355 903.113 195.574C902.556 195.78 902.043 196.182 901.575 196.783C901.135 197.354 900.784 198.138 900.52 199.134C900.256 200.13 900.125 201.383 900.125 202.891C900.125 204.4 900.249 205.623 900.498 206.561C900.747 207.484 901.069 208.223 901.465 208.78C901.875 209.351 902.388 209.769 903.003 210.032C903.618 210.296 904.299 210.428 905.046 210.428C905.662 210.428 906.284 210.296 906.914 210.032C907.559 209.769 908.071 209.373 908.452 208.846C908.906 208.216 909.25 207.462 909.485 206.583C909.719 205.689 909.836 204.459 909.836 202.891ZM944.927 215.174H937.192V202.935C937.192 201.939 937.148 200.95 937.061 199.969C936.987 198.973 936.841 198.24 936.621 197.772C936.357 197.215 935.977 196.82 935.479 196.585C934.98 196.336 934.314 196.212 933.479 196.212C932.849 196.212 932.212 196.329 931.567 196.563C930.923 196.798 930.234 197.171 929.502 197.684V215.174H921.812V190.499H929.502V193.223C930.762 192.154 931.985 191.319 933.171 190.719C934.373 190.118 935.698 189.818 937.148 189.818C939.668 189.818 941.594 190.616 942.927 192.213C944.26 193.795 944.927 196.094 944.927 199.112V215.174ZM960.088 215.657C956.953 215.657 954.668 215.013 953.232 213.724C951.812 212.435 951.101 210.325 951.101 207.396V195.86H948.157V190.499H951.101V183.446H958.792V190.499H966.196V195.86H958.792V204.605C958.792 205.469 958.799 206.224 958.813 206.868C958.828 207.513 958.945 208.092 959.165 208.604C959.37 209.117 959.729 209.527 960.242 209.835C960.769 210.128 961.531 210.274 962.527 210.274C962.937 210.274 963.472 210.186 964.131 210.01C964.805 209.835 965.273 209.674 965.537 209.527H966.196V214.954C965.361 215.174 964.475 215.343 963.538 215.46C962.6 215.592 961.45 215.657 960.088 215.657ZM982.961 208.736V203.594C981.658 203.726 980.603 203.844 979.797 203.946C978.992 204.034 978.201 204.217 977.424 204.495C976.75 204.73 976.223 205.089 975.842 205.572C975.476 206.041 975.293 206.671 975.293 207.462C975.293 208.619 975.601 209.417 976.216 209.857C976.846 210.281 977.769 210.494 978.984 210.494C979.658 210.494 980.347 210.34 981.05 210.032C981.753 209.725 982.39 209.293 982.961 208.736ZM982.961 212.559C982.434 212.999 981.958 213.394 981.533 213.746C981.123 214.097 980.566 214.449 979.863 214.801C979.175 215.137 978.501 215.394 977.842 215.57C977.197 215.745 976.289 215.833 975.117 215.833C972.935 215.833 971.118 215.101 969.668 213.636C968.232 212.171 967.515 210.325 967.515 208.099C967.515 206.268 967.881 204.788 968.613 203.66C969.346 202.532 970.4 201.639 971.777 200.98C973.169 200.306 974.832 199.837 976.765 199.573C978.699 199.31 980.779 199.105 983.005 198.958V198.826C983.005 197.464 982.5 196.527 981.489 196.014C980.493 195.487 978.992 195.223 976.985 195.223C976.077 195.223 975.015 195.391 973.799 195.728C972.583 196.051 971.396 196.468 970.239 196.981H969.58V191.026C970.342 190.806 971.572 190.55 973.271 190.257C974.971 189.949 976.685 189.796 978.413 189.796C982.661 189.796 985.752 190.506 987.686 191.927C989.634 193.333 990.608 195.487 990.608 198.387V215.174H982.961V212.559ZM1008.41 215.833C1006.37 215.833 1004.5 215.577 1002.8 215.064C1001.12 214.552 999.653 213.76 998.408 212.691C997.178 211.622 996.218 210.281 995.53 208.67C994.841 207.044 994.497 205.133 994.497 202.935C994.497 200.577 994.871 198.57 995.618 196.915C996.365 195.26 997.375 193.897 998.65 192.828C999.88 191.802 1001.32 191.048 1002.98 190.565C1004.65 190.067 1006.38 189.818 1008.19 189.818C1009.55 189.818 1010.91 189.979 1012.27 190.301C1013.64 190.609 1015 191.107 1016.38 191.795V198.387H1015.39C1015.09 198.094 1014.7 197.772 1014.25 197.42C1013.81 197.069 1013.33 196.746 1012.8 196.453C1012.24 196.146 1011.61 195.889 1010.91 195.684C1010.21 195.465 1009.42 195.355 1008.56 195.355C1006.6 195.355 1005.07 196.043 1003.99 197.42C1002.92 198.782 1002.39 200.621 1002.39 202.935C1002.39 205.411 1002.96 207.257 1004.1 208.472C1005.26 209.688 1006.79 210.296 1008.69 210.296C1009.66 210.296 1010.51 210.186 1011.24 209.967C1011.97 209.747 1012.6 209.483 1013.13 209.176C1013.64 208.868 1014.08 208.553 1014.45 208.231C1014.81 207.894 1015.13 207.594 1015.39 207.33H1016.38V213.922C1015.94 214.112 1015.43 214.332 1014.84 214.581C1014.27 214.83 1013.69 215.035 1013.09 215.196C1012.34 215.401 1011.64 215.555 1010.98 215.657C1010.33 215.775 1009.48 215.833 1008.41 215.833ZM1029.48 215.657C1026.34 215.657 1024.06 215.013 1022.62 213.724C1021.2 212.435 1020.49 210.325 1020.49 207.396V195.86H1017.55V190.499H1020.49V183.446H1028.18V190.499H1035.59V195.86H1028.18V204.605C1028.18 205.469 1028.19 206.224 1028.2 206.868C1028.22 207.513 1028.33 208.092 1028.55 208.604C1028.76 209.117 1029.12 209.527 1029.63 209.835C1030.16 210.128 1030.92 210.274 1031.92 210.274C1032.33 210.274 1032.86 210.186 1033.52 210.01C1034.19 209.835 1034.66 209.674 1034.93 209.527H1035.59V214.954C1034.75 215.174 1033.86 215.343 1032.93 215.46C1031.99 215.592 1030.84 215.657 1029.48 215.657ZM1046.26 215.855C1044.45 215.855 1042.73 215.657 1041.1 215.262C1039.49 214.866 1038.16 214.405 1037.1 213.878V207.374H1037.74C1038.11 207.652 1038.52 207.96 1038.99 208.297C1039.46 208.634 1040.11 208.985 1040.95 209.351C1041.67 209.688 1042.47 209.981 1043.36 210.23C1044.27 210.465 1045.25 210.582 1046.31 210.582C1047.39 210.582 1048.34 210.413 1049.17 210.076C1050 209.74 1050.42 209.205 1050.42 208.472C1050.42 207.901 1050.23 207.469 1049.85 207.176C1049.47 206.883 1048.73 206.605 1047.63 206.341C1047.04 206.195 1046.3 206.041 1045.41 205.88C1044.51 205.704 1043.72 205.506 1043.03 205.286C1041.1 204.686 1039.64 203.8 1038.66 202.628C1037.7 201.441 1037.21 199.888 1037.21 197.969C1037.21 196.871 1037.46 195.838 1037.96 194.871C1038.47 193.89 1039.22 193.018 1040.2 192.257C1041.18 191.51 1042.39 190.916 1043.83 190.477C1045.28 190.037 1046.91 189.818 1048.73 189.818C1050.45 189.818 1052.04 189.993 1053.49 190.345C1054.94 190.682 1056.17 191.092 1057.16 191.575V197.816H1056.55C1056.28 197.611 1055.87 197.34 1055.3 197.003C1054.72 196.651 1054.17 196.351 1053.63 196.102C1052.98 195.809 1052.26 195.567 1051.45 195.377C1050.66 195.186 1049.85 195.091 1049.01 195.091C1047.9 195.091 1046.95 195.281 1046.18 195.662C1045.42 196.043 1045.03 196.549 1045.03 197.178C1045.03 197.735 1045.22 198.175 1045.61 198.497C1045.99 198.819 1046.81 199.134 1048.09 199.442C1048.75 199.603 1049.5 199.764 1050.35 199.925C1051.22 200.072 1052.04 200.277 1052.83 200.54C1054.61 201.112 1055.95 201.954 1056.86 203.067C1057.78 204.166 1058.24 205.631 1058.24 207.462C1058.24 208.619 1057.97 209.725 1057.43 210.78C1056.88 211.82 1056.12 212.698 1055.12 213.416C1054.06 214.193 1052.82 214.793 1051.38 215.218C1049.96 215.643 1048.26 215.855 1046.26 215.855Z" fill="black"/>
<g filter="url(#filter2_b_2309_1475)">
<rect x="1211.5" y="40" width="238" height="177" rx="30" fill="white" fill-opacity="0.5"/>
<path d="M1361.5 128.021V133.5H1299.5V128.021C1299.5 125.688 1300.12 123.611 1301.39 121.692C1302.73 119.673 1304.68 117.793 1307.39 116.101L1307.39 116.1C1310.05 114.439 1313.33 113.129 1317.31 112.236C1321.31 111.337 1325.7 110.875 1330.5 110.875C1335.4 110.875 1339.85 111.338 1343.85 112.236C1347.82 113.129 1351.1 114.439 1353.75 116.099L1353.76 116.1C1356.46 117.792 1358.38 119.66 1359.65 121.651C1360.89 123.575 1361.5 125.667 1361.5 128.021ZM1371.76 102.081C1370.22 100.543 1369.5 98.8093 1369.5 96.6625C1369.5 94.3949 1370.24 92.6689 1371.73 91.214C1373.26 89.7104 1375.01 89 1377.17 89C1379.46 89 1381.2 89.7337 1382.65 91.1826L1385.48 88.3542L1382.65 91.1826C1384.1 92.6315 1384.83 94.3685 1384.83 96.6667C1384.83 98.8333 1384.12 100.576 1382.62 102.113C1381.16 103.6 1379.44 104.336 1377.17 104.333H1377.17C1375.03 104.333 1373.3 103.619 1371.76 102.081ZM1283.84 104.333H1283.83C1281.69 104.333 1279.96 103.619 1278.43 102.081C1276.89 100.543 1276.17 98.8102 1276.17 96.6642C1276.17 94.3957 1276.91 92.6692 1278.39 91.214C1279.93 89.7104 1281.67 89 1283.83 89C1286.13 89 1287.87 89.7337 1289.32 91.1826C1290.77 92.6315 1291.5 94.3684 1291.5 96.6667C1291.5 98.8333 1290.79 100.576 1289.29 102.113C1287.83 103.6 1286.11 104.336 1283.84 104.333ZM1344 84.9969V85C1344 88.8314 1342.72 91.9489 1340.12 94.5887L1342.97 97.3958L1340.12 94.5887C1337.55 97.1958 1334.44 98.5 1330.5 98.5C1326.69 98.5 1323.58 97.2115 1320.93 94.5674C1318.29 91.9233 1317 88.8124 1317 85C1317 81.0673 1318.3 77.9527 1320.91 75.3837C1323.55 72.7827 1326.67 71.5034 1330.5 71.5C1334.45 71.5004 1337.57 72.7935 1340.14 75.3626C1342.71 77.9319 1344 81.0524 1344 84.9969ZM1264.5 133.5V128.312C1264.5 125.82 1265.64 123.581 1269.01 121.513C1272.46 119.398 1277.29 118.167 1283.83 118.167C1284.06 118.167 1284.29 118.168 1284.52 118.169C1284.31 118.725 1284.12 119.287 1283.94 119.856C1283.14 122.485 1282.75 125.211 1282.75 128.021V133.5H1264.5ZM1378.25 133.5V128.021C1378.25 125.158 1377.89 122.409 1377.16 119.79C1377 119.243 1376.83 118.703 1376.64 118.17C1376.82 118.168 1377 118.167 1377.17 118.167C1383.72 118.167 1388.57 119.38 1392.02 121.46C1395.33 123.459 1396.5 125.699 1396.5 128.312V133.5H1378.25Z" stroke="#4C4C4E" stroke-width="8"/>
<path d="M1297.26 182.255C1296.31 182.646 1295.06 183.026 1293.53 183.397C1292 183.769 1290.5 183.954 1289.02 183.954C1285.59 183.954 1282.85 182.968 1280.81 180.995C1278.78 179.013 1277.77 176.205 1277.77 172.572C1277.77 169.154 1278.78 166.415 1280.81 164.354C1282.85 162.294 1285.64 161.264 1289.18 161.264C1291 161.264 1292.49 161.439 1293.63 161.791C1294.77 162.133 1295.95 162.602 1297.17 163.197V168.31H1296.68C1296.41 168.104 1296.03 167.816 1295.53 167.445C1295.05 167.064 1294.57 166.742 1294.1 166.479C1293.55 166.166 1292.92 165.897 1292.19 165.673C1291.48 165.448 1290.72 165.336 1289.92 165.336C1288.99 165.336 1288.13 165.482 1287.36 165.775C1286.59 166.068 1285.9 166.518 1285.29 167.123C1284.72 167.709 1284.26 168.451 1283.92 169.35C1283.59 170.248 1283.42 171.293 1283.42 172.484C1283.42 175.033 1284.06 176.913 1285.34 178.124C1286.62 179.335 1288.37 179.94 1290.58 179.94C1290.78 179.94 1291.01 179.936 1291.27 179.926C1291.54 179.916 1291.76 179.901 1291.96 179.882V175.604H1287.73V171.518H1297.26V182.255ZM1312.15 171.898H1311.72C1311.53 171.83 1311.24 171.781 1310.87 171.752C1310.5 171.713 1310.09 171.693 1309.64 171.693C1309.1 171.693 1308.54 171.771 1307.94 171.928C1307.36 172.084 1306.78 172.27 1306.23 172.484V183.5H1301.1V167.05H1306.23V169.408C1306.46 169.193 1306.78 168.925 1307.19 168.603C1307.61 168.271 1308 168.007 1308.34 167.812C1308.71 167.587 1309.14 167.396 1309.63 167.24C1310.12 167.074 1310.59 166.991 1311.03 166.991C1311.2 166.991 1311.38 166.996 1311.59 167.006C1311.79 167.016 1311.98 167.03 1312.15 167.05V171.898ZM1329.9 175.282C1329.9 177.987 1329.16 180.121 1327.67 181.684C1326.2 183.236 1324.11 184.013 1321.4 184.013C1318.72 184.013 1316.63 183.236 1315.13 181.684C1313.65 180.121 1312.91 177.987 1312.91 175.282C1312.91 172.548 1313.65 170.409 1315.13 168.866C1316.63 167.313 1318.72 166.537 1321.4 166.537C1324.1 166.537 1326.19 167.318 1327.67 168.881C1329.16 170.434 1329.9 172.567 1329.9 175.282ZM1324.64 175.312C1324.64 174.335 1324.56 173.524 1324.39 172.88C1324.24 172.226 1324.02 171.703 1323.73 171.312C1323.43 170.902 1323.09 170.619 1322.71 170.463C1322.33 170.297 1321.89 170.214 1321.4 170.214C1320.94 170.214 1320.53 170.287 1320.16 170.434C1319.79 170.57 1319.45 170.839 1319.13 171.239C1318.84 171.62 1318.61 172.143 1318.43 172.807C1318.25 173.471 1318.17 174.306 1318.17 175.312C1318.17 176.317 1318.25 177.133 1318.42 177.758C1318.58 178.373 1318.8 178.866 1319.06 179.237C1319.33 179.618 1319.67 179.896 1320.08 180.072C1320.5 180.248 1320.95 180.336 1321.45 180.336C1321.86 180.336 1322.27 180.248 1322.69 180.072C1323.12 179.896 1323.46 179.633 1323.72 179.281C1324.02 178.861 1324.25 178.358 1324.41 177.772C1324.56 177.177 1324.64 176.356 1324.64 175.312ZM1347.9 183.5H1342.78V181.684C1341.89 182.426 1341.07 182.992 1340.33 183.383C1339.59 183.764 1338.7 183.954 1337.68 183.954C1336.05 183.954 1334.77 183.441 1333.85 182.416C1332.95 181.381 1332.49 179.828 1332.49 177.758V167.05H1337.65V175.209C1337.65 176.059 1337.67 176.752 1337.71 177.289C1337.76 177.826 1337.86 178.28 1338.03 178.651C1338.19 178.993 1338.42 179.252 1338.75 179.428C1339.08 179.604 1339.54 179.691 1340.12 179.691C1340.49 179.691 1340.91 179.604 1341.4 179.428C1341.9 179.252 1342.36 179.013 1342.78 178.71V167.05H1347.9V183.5ZM1367.97 175.048C1367.97 177.675 1367.3 179.794 1365.96 181.405C1364.64 183.017 1363 183.822 1361.04 183.822C1360.22 183.822 1359.51 183.729 1358.9 183.544C1358.3 183.358 1357.65 183.07 1356.97 182.68V189.535H1351.84V167.05H1356.97V168.764C1357.72 168.119 1358.49 167.597 1359.27 167.196C1360.05 166.796 1360.95 166.596 1361.98 166.596C1363.88 166.596 1365.36 167.353 1366.4 168.866C1367.45 170.38 1367.97 172.44 1367.97 175.048ZM1362.73 175.15C1362.73 173.549 1362.48 172.387 1361.98 171.664C1361.49 170.941 1360.72 170.58 1359.68 170.58C1359.22 170.58 1358.76 170.653 1358.3 170.8C1357.85 170.946 1357.41 171.166 1356.97 171.459V179.735C1357.24 179.853 1357.54 179.936 1357.86 179.984C1358.2 180.033 1358.59 180.058 1359.04 180.058C1360.29 180.058 1361.21 179.652 1361.82 178.842C1362.42 178.021 1362.73 176.791 1362.73 175.15ZM1375.75 183.954C1374.54 183.954 1373.39 183.822 1372.31 183.559C1371.23 183.295 1370.34 182.987 1369.64 182.636V178.3H1370.07C1370.31 178.485 1370.59 178.69 1370.9 178.915C1371.21 179.14 1371.65 179.374 1372.2 179.618C1372.68 179.843 1373.22 180.038 1373.82 180.204C1374.42 180.36 1375.08 180.438 1375.78 180.438C1376.5 180.438 1377.14 180.326 1377.68 180.102C1378.24 179.877 1378.52 179.521 1378.52 179.032C1378.52 178.651 1378.39 178.363 1378.14 178.168C1377.88 177.973 1377.39 177.787 1376.66 177.611C1376.27 177.514 1375.77 177.411 1375.18 177.304C1374.58 177.187 1374.05 177.055 1373.6 176.908C1372.31 176.508 1371.33 175.917 1370.68 175.136C1370.04 174.345 1369.71 173.31 1369.71 172.03C1369.71 171.298 1369.88 170.609 1370.21 169.965C1370.55 169.311 1371.05 168.729 1371.71 168.222C1372.36 167.724 1373.17 167.328 1374.12 167.035C1375.09 166.742 1376.18 166.596 1377.39 166.596C1378.54 166.596 1379.6 166.713 1380.57 166.947C1381.54 167.172 1382.35 167.445 1383.01 167.768V171.928H1382.6C1382.43 171.791 1382.15 171.61 1381.77 171.386C1381.39 171.151 1381.02 170.951 1380.66 170.785C1380.23 170.59 1379.74 170.429 1379.21 170.302C1378.68 170.175 1378.14 170.111 1377.58 170.111C1376.84 170.111 1376.21 170.238 1375.69 170.492C1375.18 170.746 1374.93 171.083 1374.93 171.503C1374.93 171.874 1375.06 172.167 1375.31 172.382C1375.56 172.597 1376.12 172.807 1376.96 173.012C1377.4 173.119 1377.91 173.227 1378.47 173.334C1379.05 173.432 1379.6 173.568 1380.13 173.744C1381.31 174.125 1382.2 174.687 1382.81 175.429C1383.42 176.161 1383.73 177.138 1383.73 178.358C1383.73 179.13 1383.55 179.867 1383.19 180.57C1382.83 181.264 1382.32 181.85 1381.65 182.328C1380.95 182.846 1380.12 183.246 1379.16 183.529C1378.21 183.812 1377.08 183.954 1375.75 183.954Z" fill="#4C4C4E"/>
</g>
<g filter="url(#filter3_b_2309_1475)">
<rect x="1549.5" y="61" width="191" height="135" rx="30" fill="white" fill-opacity="0.5"/>
<path d="M1612.9 92.9998L1690.32 103.732L1689.94 127.284L1621.11 125.997L1621.25 116.92" stroke="#4C4C4E" stroke-width="6" stroke-linecap="square"/>
<path d="M1586 79.5L1704 95.612V136.5H1599.29V120.743" stroke="#4C4C4E" stroke-width="6" stroke-linecap="square"/>
<path d="M1574.47 171.896C1572.8 171.896 1571.33 171.734 1570.06 171.412C1568.8 171.09 1567.63 170.689 1566.55 170.211V165.025H1567.05C1568.14 165.953 1569.35 166.666 1570.66 167.164C1571.98 167.662 1573.26 167.911 1574.5 167.911C1574.81 167.911 1575.22 167.877 1575.73 167.809C1576.25 167.74 1576.67 167.633 1576.98 167.486C1577.36 167.32 1577.68 167.091 1577.94 166.798C1578.21 166.495 1578.34 166.1 1578.34 165.611C1578.34 165.064 1578.12 164.62 1577.7 164.278C1577.27 163.937 1576.75 163.688 1576.16 163.531C1575.42 163.336 1574.62 163.15 1573.77 162.975C1572.93 162.799 1572.14 162.584 1571.41 162.33C1569.72 161.734 1568.51 160.934 1567.78 159.928C1567.05 158.922 1566.68 157.662 1566.68 156.148C1566.68 154.107 1567.54 152.457 1569.27 151.197C1571 149.928 1573.16 149.293 1575.75 149.293C1577.05 149.293 1578.33 149.425 1579.61 149.688C1580.9 149.952 1582.06 150.309 1583.07 150.758V155.738H1582.59C1581.78 155.045 1580.79 154.459 1579.61 153.98C1578.45 153.502 1577.26 153.263 1576.03 153.263C1575.55 153.263 1575.12 153.297 1574.74 153.365C1574.36 153.434 1573.96 153.565 1573.54 153.761C1573.19 153.917 1572.9 154.151 1572.64 154.464C1572.4 154.767 1572.28 155.108 1572.28 155.489C1572.28 156.046 1572.47 156.49 1572.86 156.822C1573.26 157.145 1574.03 157.438 1575.16 157.701C1575.89 157.867 1576.6 158.028 1577.27 158.185C1577.95 158.341 1578.68 158.556 1579.45 158.829C1580.97 159.376 1582.09 160.113 1582.82 161.041C1583.56 161.959 1583.94 163.175 1583.94 164.688C1583.94 166.856 1583.08 168.6 1581.37 169.918C1579.67 171.236 1577.37 171.896 1574.47 171.896ZM1606.11 171.5V163.282C1606.11 162.472 1606.1 161.788 1606.07 161.231C1606.04 160.675 1605.95 160.221 1605.81 159.869C1605.66 159.518 1605.43 159.264 1605.12 159.107C1604.81 158.941 1604.38 158.858 1603.83 158.858C1603.44 158.858 1603.05 158.946 1602.67 159.122C1602.29 159.288 1601.88 159.527 1601.43 159.84V171.5H1596.27V163.282C1596.27 162.481 1596.25 161.803 1596.21 161.246C1596.18 160.68 1596.09 160.221 1595.95 159.869C1595.8 159.518 1595.57 159.264 1595.26 159.107C1594.96 158.941 1594.53 158.858 1593.98 158.858C1593.56 158.858 1593.15 158.956 1592.75 159.151C1592.35 159.347 1591.96 159.576 1591.58 159.84V171.5H1586.46V155.05H1591.58V156.866C1592.42 156.153 1593.21 155.597 1593.96 155.196C1594.7 154.796 1595.53 154.596 1596.46 154.596C1597.47 154.596 1598.35 154.835 1599.11 155.313C1599.87 155.792 1600.45 156.505 1600.85 157.452C1601.84 156.534 1602.77 155.831 1603.64 155.343C1604.52 154.845 1605.41 154.596 1606.3 154.596C1607.07 154.596 1607.75 154.718 1608.35 154.962C1608.96 155.206 1609.47 155.572 1609.89 156.061C1610.35 156.588 1610.69 157.218 1610.92 157.95C1611.15 158.673 1611.27 159.62 1611.27 160.792V171.5H1606.11ZM1624.15 167.208V163.78C1623.28 163.868 1622.57 163.946 1622.04 164.015C1621.5 164.073 1620.97 164.195 1620.45 164.381C1620 164.537 1619.65 164.776 1619.4 165.099C1619.16 165.411 1619.03 165.831 1619.03 166.358C1619.03 167.13 1619.24 167.662 1619.65 167.955C1620.07 168.238 1620.68 168.38 1621.49 168.38C1621.94 168.38 1622.4 168.277 1622.87 168.072C1623.34 167.867 1623.76 167.579 1624.15 167.208ZM1624.15 169.757C1623.79 170.05 1623.48 170.313 1623.19 170.548C1622.92 170.782 1622.55 171.017 1622.08 171.251C1621.62 171.476 1621.17 171.646 1620.73 171.764C1620.3 171.881 1619.7 171.939 1618.92 171.939C1617.46 171.939 1616.25 171.451 1615.28 170.475C1614.33 169.498 1613.85 168.268 1613.85 166.783C1613.85 165.562 1614.09 164.576 1614.58 163.824C1615.07 163.072 1615.77 162.477 1616.69 162.037C1617.62 161.588 1618.73 161.275 1620.01 161.1C1621.3 160.924 1622.69 160.787 1624.17 160.689V160.602C1624.17 159.693 1623.84 159.068 1623.16 158.727C1622.5 158.375 1621.5 158.199 1620.16 158.199C1619.56 158.199 1618.85 158.312 1618.04 158.536C1617.23 158.751 1616.44 159.029 1615.66 159.371H1615.22V155.401C1615.73 155.255 1616.55 155.084 1617.69 154.889C1618.82 154.684 1619.96 154.581 1621.11 154.581C1623.95 154.581 1626.01 155.055 1627.29 156.002C1628.59 156.939 1629.24 158.375 1629.24 160.309V171.5H1624.15V169.757ZM1644.08 159.898H1643.66C1643.46 159.83 1643.18 159.781 1642.81 159.752C1642.44 159.713 1642.03 159.693 1641.58 159.693C1641.04 159.693 1640.47 159.771 1639.88 159.928C1639.29 160.084 1638.72 160.27 1638.16 160.484V171.5H1633.04V155.05H1638.16V157.408C1638.4 157.193 1638.72 156.925 1639.13 156.603C1639.55 156.271 1639.93 156.007 1640.27 155.812C1640.64 155.587 1641.07 155.396 1641.56 155.24C1642.06 155.074 1642.53 154.991 1642.97 154.991C1643.13 154.991 1643.32 154.996 1643.53 155.006C1643.73 155.016 1643.92 155.03 1644.08 155.05V159.898ZM1652.34 171.822C1650.25 171.822 1648.73 171.393 1647.77 170.533C1646.83 169.674 1646.35 168.268 1646.35 166.314V158.624H1644.39V155.05H1646.35V150.348H1651.48V155.05H1656.42V158.624H1651.48V164.454C1651.48 165.03 1651.48 165.533 1651.49 165.963C1651.5 166.393 1651.58 166.778 1651.73 167.12C1651.87 167.462 1652.1 167.735 1652.45 167.94C1652.8 168.136 1653.31 168.233 1653.97 168.233C1654.24 168.233 1654.6 168.175 1655.04 168.058C1655.49 167.94 1655.8 167.833 1655.98 167.735H1656.42V171.354C1655.86 171.5 1655.27 171.612 1654.64 171.69C1654.02 171.778 1653.25 171.822 1652.34 171.822ZM1682.17 171.5H1667.61V149.688H1673.09V167.34H1682.17V171.5ZM1700.27 163.282C1700.27 165.987 1699.53 168.121 1698.05 169.684C1696.57 171.236 1694.48 172.013 1691.78 172.013C1689.09 172.013 1687 171.236 1685.51 169.684C1684.02 168.121 1683.28 165.987 1683.28 163.282C1683.28 160.548 1684.02 158.409 1685.51 156.866C1687 155.313 1689.09 154.537 1691.78 154.537C1694.47 154.537 1696.56 155.318 1698.05 156.881C1699.53 158.434 1700.27 160.567 1700.27 163.282ZM1695.01 163.312C1695.01 162.335 1694.93 161.524 1694.77 160.88C1694.61 160.226 1694.39 159.703 1694.11 159.312C1693.8 158.902 1693.46 158.619 1693.08 158.463C1692.7 158.297 1692.27 158.214 1691.78 158.214C1691.32 158.214 1690.9 158.287 1690.53 158.434C1690.16 158.57 1689.82 158.839 1689.51 159.239C1689.21 159.62 1688.98 160.143 1688.8 160.807C1688.63 161.471 1688.54 162.306 1688.54 163.312C1688.54 164.317 1688.62 165.133 1688.79 165.758C1688.96 166.373 1689.17 166.866 1689.43 167.237C1689.71 167.618 1690.05 167.896 1690.46 168.072C1690.87 168.248 1691.32 168.336 1691.82 168.336C1692.23 168.336 1692.65 168.248 1693.07 168.072C1693.5 167.896 1693.84 167.633 1694.09 167.281C1694.39 166.861 1694.62 166.358 1694.78 165.772C1694.94 165.177 1695.01 164.356 1695.01 163.312ZM1713.52 152.574H1713.12C1712.92 152.516 1712.62 152.442 1712.2 152.354C1711.79 152.257 1711.4 152.208 1711.03 152.208C1709.99 152.208 1709.28 152.398 1708.9 152.779C1708.53 153.16 1708.34 153.873 1708.34 154.918V155.05H1712.42V158.624H1708.52V171.5H1703.39V158.624H1701.34V155.05H1703.39V154.596C1703.39 152.584 1703.92 151.075 1704.98 150.069C1706.03 149.063 1707.63 148.561 1709.77 148.561C1710.51 148.561 1711.2 148.59 1711.85 148.648C1712.49 148.697 1713.05 148.766 1713.52 148.854V152.574ZM1720.78 171.822C1718.69 171.822 1717.17 171.393 1716.21 170.533C1715.26 169.674 1714.79 168.268 1714.79 166.314V158.624H1712.83V155.05H1714.79V150.348H1719.92V155.05H1724.85V158.624H1719.92V164.454C1719.92 165.03 1719.92 165.533 1719.93 165.963C1719.94 166.393 1720.02 166.778 1720.17 167.12C1720.3 167.462 1720.54 167.735 1720.88 167.94C1721.24 168.136 1721.74 168.233 1722.41 168.233C1722.68 168.233 1723.04 168.175 1723.48 168.058C1723.93 167.94 1724.24 167.833 1724.41 167.735H1724.85V171.354C1724.3 171.5 1723.71 171.612 1723.08 171.69C1722.46 171.778 1721.69 171.822 1720.78 171.822Z" fill="#4C4C4E"/>
</g>
<defs>
<filter id="filter0_b_2309_1475" x="149.5" y="31" width="251" height="195" filterUnits="userSpaceOnUse" color-interpolation-filters="sRGB">
<feFlood flood-opacity="0" result="BackgroundImageFix"/>
<feGaussianBlur in="BackgroundImageFix" stdDeviation="15"/>
<feComposite in2="SourceAlpha" operator="in" result="effect1_backgroundBlur_2309_1475"/>
<feBlend mode="normal" in="SourceGraphic" in2="effect1_backgroundBlur_2309_1475" result="shape"/>
</filter>
<filter id="filter1_b_2309_1475" x="440.5" y="10" width="298" height="237" filterUnits="userSpaceOnUse" color-interpolation-filters="sRGB">
<feFlood flood-opacity="0" result="BackgroundImageFix"/>
<feGaussianBlur in="BackgroundImageFix" stdDeviation="15"/>
<feComposite in2="SourceAlpha" operator="in" result="effect1_backgroundBlur_2309_1475"/>
<feBlend mode="normal" in="SourceGraphic" in2="effect1_backgroundBlur_2309_1475" result="shape"/>
</filter>
<filter id="filter2_b_2309_1475" x="1181.5" y="10" width="298" height="237" filterUnits="userSpaceOnUse" color-interpolation-filters="sRGB">
<feFlood flood-opacity="0" result="BackgroundImageFix"/>
<feGaussianBlur in="BackgroundImageFix" stdDeviation="15"/>
<feComposite in2="SourceAlpha" operator="in" result="effect1_backgroundBlur_2309_1475"/>
<feBlend mode="normal" in="SourceGraphic" in2="effect1_backgroundBlur_2309_1475" result="shape"/>
</filter>
<filter id="filter3_b_2309_1475" x="1519.5" y="31" width="251" height="195" filterUnits="userSpaceOnUse" color-interpolation-filters="sRGB">
<feFlood flood-opacity="0" result="BackgroundImageFix"/>
<feGaussianBlur in="BackgroundImageFix" stdDeviation="15"/>
<feComposite in2="SourceAlpha" operator="in" result="effect1_backgroundBlur_2309_1475"/>
<feBlend mode="normal" in="SourceGraphic" in2="effect1_backgroundBlur_2309_1475" result="shape"/>
</filter>
</defs>
</svg>
