<svg width="1920" height="257" viewBox="0 0 1920 257" fill="none" xmlns="http://www.w3.org/2000/svg">
<g filter="url(#filter0_b_2309_1484)">
<rect x="179.5" y="61" width="191" height="135" rx="30" fill="white" fill-opacity="0.5"/>
<path d="M275.001 80.0117C273.994 80.0117 273.027 80.3803 272.315 81.0365C271.603 81.6926 271.202 82.5825 271.202 83.5105C271.202 89.4304 263.431 92.3973 258.884 88.2093C258.533 87.8751 258.114 87.6086 257.651 87.4252C257.187 87.2418 256.689 87.1453 256.184 87.1413C255.68 87.1373 255.18 87.2258 254.713 87.4017C254.246 87.5776 253.822 87.8374 253.465 88.1659C253.109 88.4944 252.827 88.8851 252.636 89.3151C252.445 89.745 252.349 90.2058 252.353 90.6703C252.357 91.1349 252.462 91.594 252.661 92.0208C252.86 92.4477 253.15 92.8338 253.513 93.1565C258.059 97.3445 254.842 104.503 248.411 104.503C247.404 104.503 246.437 104.872 245.725 105.528C245.013 106.184 244.613 107.074 244.613 108.002C244.613 108.93 245.013 109.82 245.725 110.476C246.437 111.132 247.404 111.501 248.411 111.501C254.838 111.501 258.059 118.659 253.513 122.847C252.821 123.507 252.438 124.391 252.446 125.308C252.455 126.225 252.855 127.103 253.559 127.752C254.263 128.4 255.216 128.768 256.212 128.776C257.208 128.784 258.167 128.432 258.884 127.794C263.431 123.606 271.202 126.57 271.202 132.493C271.202 133.421 271.603 134.311 272.315 134.967C273.027 135.623 273.994 135.992 275.001 135.992C276.008 135.992 276.975 135.623 277.687 134.967C278.399 134.311 278.8 133.421 278.8 132.493C278.8 126.573 286.571 123.606 291.118 127.794C291.469 128.128 291.888 128.395 292.351 128.578C292.815 128.762 293.313 128.858 293.817 128.862C294.322 128.866 294.822 128.778 295.289 128.602C295.756 128.426 296.18 128.166 296.536 127.838C296.893 127.509 297.175 127.118 297.366 126.688C297.557 126.258 297.653 125.798 297.649 125.333C297.644 124.869 297.54 124.41 297.341 123.983C297.142 123.556 296.852 123.17 296.489 122.847C291.942 118.659 295.16 111.501 301.591 111.501C302.598 111.501 303.564 111.132 304.277 110.476C304.989 109.82 305.389 108.93 305.389 108.002C305.389 107.074 304.989 106.184 304.277 105.528C303.564 104.872 302.598 104.503 301.591 104.503C295.164 104.503 291.942 97.3445 296.489 93.1565C297.181 92.4967 297.564 91.6129 297.556 90.6955C297.547 89.7781 297.147 88.9006 296.443 88.2519C295.739 87.6032 294.786 87.2353 293.79 87.2273C292.794 87.2193 291.835 87.572 291.118 88.2093C286.571 92.3973 278.8 89.4339 278.8 83.5105C278.8 82.5825 278.399 81.6926 277.687 81.0365C276.975 80.3803 276.008 80.0117 275.001 80.0117ZM263.636 82.7302C263.846 80.0861 265.134 77.6132 267.243 75.8082C269.351 74.0033 272.123 73 275.001 73C277.879 73 280.651 74.0033 282.759 75.8082C284.868 77.6132 286.156 80.0861 286.366 82.7302C288.546 81.006 291.352 80.1037 294.223 80.2042C297.094 80.3046 299.818 81.4002 301.85 83.2718C303.881 85.1433 305.07 87.6525 305.178 90.2971C305.287 92.9416 304.307 95.5263 302.434 97.5335C305.305 97.7265 307.99 98.913 309.95 100.855C311.91 102.796 313 105.349 313 108C313 110.651 311.912 113.204 309.952 115.147C307.993 117.089 305.309 118.276 302.438 118.47C304.31 120.478 305.289 123.062 305.18 125.707C305.071 128.352 303.882 130.861 301.85 132.732C299.818 134.603 297.094 135.698 294.223 135.798C291.352 135.897 288.545 134.994 286.366 133.27C286.156 135.914 284.868 138.387 282.759 140.192C280.651 141.997 277.879 143 275.001 143C272.123 143 269.351 141.997 267.243 140.192C265.134 138.387 263.846 135.914 263.636 133.27C261.456 134.994 258.65 135.897 255.779 135.798C252.908 135.698 250.184 134.603 248.152 132.732C246.12 130.861 244.93 128.352 244.821 125.707C244.712 123.062 245.692 120.478 247.564 118.47C244.693 118.277 242.008 117.09 240.049 115.148C238.089 113.206 237 110.653 237 108.002C237 105.351 238.089 102.798 240.049 100.856C242.008 98.9139 244.693 97.727 247.564 97.5335C245.686 95.5266 244.702 92.94 244.808 90.2925C244.915 87.645 246.105 85.1326 248.138 83.2593C250.172 81.386 252.9 80.2903 255.774 80.1922C258.649 80.0941 261.457 81.0007 263.636 82.7302Z" fill="#4C4C4E"/>
<path d="M275.014 101.005C272.999 101.005 271.067 101.742 269.642 103.054C268.217 104.367 267.417 106.147 267.417 108.002C267.417 109.858 268.217 111.638 269.642 112.95C271.067 114.263 272.999 115 275.014 115C277.029 115 278.961 114.263 280.386 112.95C281.811 111.638 282.611 109.858 282.611 108.002C282.611 106.147 281.811 104.367 280.386 103.054C278.961 101.742 277.029 101.005 275.014 101.005ZM264.272 98.108C265.673 96.7713 267.35 95.7051 269.204 94.9717C271.057 94.2382 273.051 93.8521 275.069 93.836C277.086 93.8198 279.087 94.1739 280.954 94.8776C282.821 95.5813 284.518 96.6205 285.944 97.9345C287.371 99.2485 288.499 100.811 289.263 102.531C290.027 104.251 290.412 106.094 290.394 107.952C290.377 109.81 289.958 111.647 289.161 113.354C288.365 115.062 287.207 116.606 285.756 117.897C282.89 120.446 279.052 121.857 275.069 121.825C271.085 121.793 267.274 120.321 264.457 117.726C261.64 115.132 260.042 111.622 260.007 107.952C259.972 104.283 261.504 100.747 264.272 98.108Z" fill="#4C4C4E"/>
<path d="M244.722 163.073C244.722 164.089 244.561 165.056 244.238 165.974C243.916 166.892 243.452 167.658 242.847 168.273C242.476 168.654 242.065 169.006 241.616 169.328C241.177 169.65 240.688 169.924 240.151 170.148C239.614 170.373 239.028 170.549 238.394 170.676C237.769 170.803 237.065 170.866 236.284 170.866H233.413V178H227.935V156.188H236.401C237.661 156.188 238.745 156.306 239.653 156.54C240.571 156.765 241.401 157.126 242.144 157.624C242.964 158.171 243.599 158.903 244.048 159.821C244.497 160.729 244.722 161.813 244.722 163.073ZM239.097 163.205C239.097 162.59 238.95 162.062 238.657 161.623C238.364 161.174 238.013 160.866 237.603 160.7C237.085 160.476 236.587 160.349 236.108 160.319C235.64 160.28 235 160.261 234.189 160.261H233.413V166.794H233.794C234.312 166.794 234.8 166.789 235.259 166.779C235.718 166.77 236.118 166.735 236.46 166.677C236.753 166.628 237.061 166.535 237.383 166.398C237.715 166.252 237.969 166.091 238.145 165.915C238.516 165.554 238.765 165.178 238.892 164.787C239.028 164.396 239.097 163.869 239.097 163.205ZM258.403 166.398H257.979C257.783 166.33 257.5 166.281 257.129 166.252C256.758 166.213 256.348 166.193 255.898 166.193C255.361 166.193 254.795 166.271 254.199 166.428C253.613 166.584 253.042 166.77 252.485 166.984V178H247.358V161.55H252.485V163.908C252.72 163.693 253.042 163.425 253.452 163.103C253.872 162.771 254.253 162.507 254.595 162.312C254.966 162.087 255.396 161.896 255.884 161.74C256.382 161.574 256.851 161.491 257.29 161.491C257.456 161.491 257.642 161.496 257.847 161.506C258.052 161.516 258.237 161.53 258.403 161.55V166.398ZM276.157 169.782C276.157 172.487 275.415 174.621 273.931 176.184C272.456 177.736 270.366 178.513 267.661 178.513C264.976 178.513 262.886 177.736 261.392 176.184C259.907 174.621 259.165 172.487 259.165 169.782C259.165 167.048 259.907 164.909 261.392 163.366C262.886 161.813 264.976 161.037 267.661 161.037C270.356 161.037 272.446 161.818 273.931 163.381C275.415 164.934 276.157 167.067 276.157 169.782ZM270.898 169.812C270.898 168.835 270.815 168.024 270.649 167.38C270.493 166.726 270.273 166.203 269.99 165.812C269.688 165.402 269.346 165.119 268.965 164.963C268.584 164.797 268.149 164.714 267.661 164.714C267.202 164.714 266.787 164.787 266.416 164.934C266.045 165.07 265.703 165.339 265.391 165.739C265.098 166.12 264.863 166.643 264.688 167.307C264.512 167.971 264.424 168.806 264.424 169.812C264.424 170.817 264.507 171.633 264.673 172.258C264.839 172.873 265.054 173.366 265.317 173.737C265.591 174.118 265.933 174.396 266.343 174.572C266.753 174.748 267.207 174.836 267.705 174.836C268.115 174.836 268.53 174.748 268.95 174.572C269.38 174.396 269.722 174.133 269.976 173.781C270.278 173.361 270.508 172.858 270.664 172.272C270.82 171.677 270.898 170.856 270.898 169.812ZM289.399 159.074H289.004C288.809 159.016 288.501 158.942 288.081 158.854C287.671 158.757 287.28 158.708 286.909 158.708C285.874 158.708 285.166 158.898 284.785 159.279C284.414 159.66 284.229 160.373 284.229 161.418V161.55H288.301V165.124H284.404V178H279.277V165.124H277.227V161.55H279.277V161.096C279.277 159.084 279.805 157.575 280.859 156.569C281.914 155.563 283.511 155.061 285.649 155.061C286.392 155.061 287.085 155.09 287.729 155.148C288.374 155.197 288.931 155.266 289.399 155.354V159.074ZM295.493 178H290.366V161.55H295.493V178ZM295.64 159.206H290.22V155.207H295.64V159.206ZM304.546 178H299.419V155.207H304.546V178ZM316.895 178.439C313.789 178.439 311.406 177.697 309.746 176.213C308.096 174.729 307.271 172.614 307.271 169.87C307.271 167.185 308.042 165.041 309.585 163.439C311.128 161.838 313.286 161.037 316.06 161.037C318.579 161.037 320.474 161.716 321.743 163.073C323.013 164.431 323.647 166.374 323.647 168.903V170.749H312.412C312.461 171.511 312.622 172.15 312.896 172.668C313.169 173.176 313.53 173.581 313.979 173.884C314.419 174.187 314.932 174.406 315.518 174.543C316.104 174.67 316.743 174.733 317.437 174.733C318.032 174.733 318.618 174.67 319.194 174.543C319.771 174.406 320.298 174.23 320.776 174.016C321.196 173.83 321.582 173.63 321.934 173.415C322.295 173.2 322.588 173.01 322.812 172.844H323.354V177.077C322.935 177.243 322.549 177.399 322.197 177.546C321.855 177.683 321.382 177.824 320.776 177.971C320.22 178.117 319.644 178.229 319.048 178.308C318.462 178.396 317.744 178.439 316.895 178.439ZM318.594 167.658C318.564 166.574 318.311 165.749 317.832 165.183C317.363 164.616 316.641 164.333 315.664 164.333C314.668 164.333 313.887 164.631 313.32 165.227C312.764 165.822 312.456 166.633 312.397 167.658H318.594Z" fill="#4C4C4E"/>
</g>
<rect x="470.5" y="40" width="238" height="177" rx="30" fill="white" fill-opacity="0.5"/>
<path fill-rule="evenodd" clip-rule="evenodd" d="M639.5 65.5241C639.5 73.8215 632.493 80.5479 623.85 80.5479C615.207 80.5479 608.2 73.8215 608.2 65.5241C608.2 57.2266 615.207 50.5002 623.85 50.5002C632.493 50.5002 639.5 57.2266 639.5 65.5241ZM631.709 131.119C628.69 128.535 626.048 125.574 623.852 122.315C621.456 117.815 620.019 112.901 619.627 107.862V93.0181C619.614 91.2151 619.447 89.4162 619.126 87.6396C616.663 87.1668 614.295 86.3145 612.115 85.1156C612.946 87.6842 613.368 90.3585 613.367 93.0481V107.892C613.751 114.04 615.512 120.035 618.532 125.47C620.692 128.757 623.257 131.783 626.169 134.484H546.01C548.922 131.783 551.486 128.757 553.647 125.47C556.667 120.035 558.428 114.04 558.812 107.892V93.0181C558.795 89.5406 559.494 86.0942 560.867 82.8762C562.239 79.6581 564.26 76.7317 566.813 74.2643C569.365 71.797 572.4 69.8373 575.743 68.4974C579.085 67.1576 582.671 66.4638 586.293 66.456C591.594 66.46 596.777 67.9651 601.192 70.7828C600.705 69.0671 600.432 67.302 600.378 65.5245V63.6315C597.11 62.0881 593.599 61.0729 589.986 60.6267V56.8407C589.986 55.7768 589.546 54.7565 588.762 54.0042C587.979 53.252 586.916 52.8293 585.808 52.8293C584.7 52.8293 583.637 53.252 582.853 54.0042C582.07 54.7565 581.629 55.7768 581.629 56.8407V60.777C573.541 61.8724 566.138 65.7401 560.788 71.666C555.437 77.592 552.501 85.1761 552.521 93.0181V107.862C552.129 112.901 550.692 117.815 548.295 122.315C546.138 125.567 543.538 128.528 540.564 131.119C540.23 131.4 539.963 131.747 539.779 132.135C539.596 132.524 539.501 132.945 539.5 133.372V137.459C539.5 138.256 539.83 139.02 540.417 139.583C541.004 140.147 541.8 140.463 542.63 140.463H629.643C630.473 140.463 631.269 140.147 631.856 139.583C632.443 139.02 632.773 138.256 632.773 137.459V133.372C632.772 132.945 632.677 132.524 632.494 132.135C632.31 131.747 632.043 131.4 631.709 131.119ZM586.29 150.499C588.262 150.455 590.154 149.744 591.631 148.49C593.109 147.236 594.078 145.521 594.365 143.648H577.902C578.197 145.572 579.211 147.327 580.754 148.588C582.297 149.848 584.264 150.527 586.29 150.499Z" fill="#4C4C4E"/>
<path d="M564.48 200.5H559.207L550.799 185.295V200.5H545.789V178.688H552.513L559.471 191.183V178.688H564.48V200.5ZM584.402 192.282C584.402 194.987 583.66 197.121 582.176 198.683C580.701 200.236 578.611 201.012 575.906 201.012C573.221 201.012 571.131 200.236 569.637 198.683C568.152 197.121 567.41 194.987 567.41 192.282C567.41 189.548 568.152 187.409 569.637 185.866C571.131 184.313 573.221 183.537 575.906 183.537C578.602 183.537 580.691 184.318 582.176 185.881C583.66 187.433 584.402 189.567 584.402 192.282ZM579.144 192.311C579.144 191.335 579.061 190.524 578.895 189.88C578.738 189.225 578.519 188.703 578.235 188.312C577.933 187.902 577.591 187.619 577.21 187.463C576.829 187.297 576.395 187.214 575.906 187.214C575.447 187.214 575.032 187.287 574.661 187.433C574.29 187.57 573.948 187.839 573.636 188.239C573.343 188.62 573.108 189.142 572.933 189.806C572.757 190.47 572.669 191.305 572.669 192.311C572.669 193.317 572.752 194.133 572.918 194.758C573.084 195.373 573.299 195.866 573.562 196.237C573.836 196.618 574.178 196.896 574.588 197.072C574.998 197.248 575.452 197.336 575.95 197.336C576.36 197.336 576.775 197.248 577.195 197.072C577.625 196.896 577.967 196.633 578.221 196.281C578.523 195.861 578.753 195.358 578.909 194.772C579.065 194.177 579.144 193.356 579.144 192.311ZM593.426 200.822C591.336 200.822 589.812 200.392 588.855 199.533C587.908 198.674 587.435 197.267 587.435 195.314V187.624H585.472V184.05H587.435V179.347H592.562V184.05H597.498V187.624H592.562V193.454C592.562 194.03 592.566 194.533 592.576 194.963C592.586 195.392 592.664 195.778 592.811 196.12C592.947 196.462 593.187 196.735 593.528 196.94C593.88 197.135 594.388 197.233 595.052 197.233C595.325 197.233 595.682 197.175 596.121 197.057C596.57 196.94 596.883 196.833 597.059 196.735H597.498V200.353C596.941 200.5 596.351 200.612 595.726 200.69C595.101 200.778 594.334 200.822 593.426 200.822ZM604.734 200.5H599.607V184.05H604.734V200.5ZM604.881 181.706H599.461V177.707H604.881V181.706ZM619.178 181.574H618.782C618.587 181.515 618.279 181.442 617.859 181.354C617.449 181.257 617.059 181.208 616.688 181.208C615.652 181.208 614.944 181.398 614.563 181.779C614.192 182.16 614.007 182.873 614.007 183.918V184.05H618.079V187.624H614.183V200.5H609.056V187.624H607.005V184.05H609.056V183.595C609.056 181.584 609.583 180.075 610.638 179.069C611.692 178.063 613.289 177.56 615.428 177.56C616.17 177.56 616.863 177.59 617.508 177.648C618.152 177.697 618.709 177.765 619.178 177.853V181.574ZM635.496 184.05L627.19 206.535H621.683L624.173 200.104L618.138 184.05H623.528L626.985 194.362L630.223 184.05H635.496Z" fill="#4C4C4E"/>
<rect x="808.5" y="20" width="303" height="217" rx="30" fill="white"/>
<path d="M1035 127.912C1035 147.25 1035 156.927 1028.41 162.931C1021.82 168.941 1011.21 168.941 990 168.941H930C908.79 168.941 898.177 168.941 891.592 162.931C885 156.927 885 147.25 885 127.912V100.559C885 81.2204 885 71.5443 891.592 65.5404C898.177 59.5295 908.79 59.5295 930 59.5295H990C1011.21 59.5295 1021.82 59.5295 1028.41 65.5404C1035 71.5443 1035 81.2204 1035 100.559V127.912Z" stroke="#717250" stroke-width="15"/>
<path d="M937.503 32.6177L960.003 56.5515L982.503 32.6177M990.003 59.9706V169.382" stroke="#FEC341" stroke-width="10" stroke-linecap="round"/>
<path d="M1020 128.353C1020 126.539 1019.21 124.8 1017.8 123.517C1016.4 122.235 1014.49 121.514 1012.5 121.514C1010.51 121.514 1008.6 122.235 1007.2 123.517C1005.79 124.8 1005 126.539 1005 128.353C1005 130.166 1005.79 131.905 1007.2 133.188C1008.6 134.47 1010.51 135.191 1012.5 135.191C1014.49 135.191 1016.4 134.47 1017.8 133.188C1019.21 131.905 1020 130.166 1020 128.353ZM1020 101C1020 99.186 1019.21 97.4467 1017.8 96.1643C1016.4 94.8818 1014.49 94.1614 1012.5 94.1614C1010.51 94.1614 1008.6 94.8818 1007.2 96.1643C1005.79 97.4467 1005 99.186 1005 101C1005 102.813 1005.79 104.553 1007.2 105.835C1008.6 107.117 1010.51 107.838 1012.5 107.838C1014.49 107.838 1016.4 107.117 1017.8 105.835C1019.21 104.553 1020 102.813 1020 101Z" fill="#FEC341"/>
<path d="M933.347 186.665L925.063 219.382H916.055L910.803 199.146L905.706 219.382H896.697L888.413 186.665H896.938L901.443 208.616L906.936 186.665H915.088L920.295 208.616L925.042 186.665H933.347ZM950.574 212.944V207.803C949.27 207.935 948.215 208.052 947.41 208.154C946.604 208.242 945.813 208.425 945.037 208.704C944.363 208.938 943.835 209.297 943.455 209.78C943.088 210.249 942.905 210.879 942.905 211.67C942.905 212.827 943.213 213.625 943.828 214.065C944.458 214.49 945.381 214.702 946.597 214.702C947.271 214.702 947.959 214.548 948.662 214.241C949.365 213.933 950.002 213.501 950.574 212.944ZM950.574 216.768C950.046 217.207 949.57 217.603 949.146 217.954C948.735 218.306 948.179 218.657 947.476 219.009C946.787 219.346 946.113 219.602 945.454 219.778C944.81 219.954 943.901 220.042 942.729 220.042C940.547 220.042 938.73 219.309 937.28 217.844C935.845 216.379 935.127 214.534 935.127 212.307C935.127 210.476 935.493 208.997 936.226 207.869C936.958 206.741 938.013 205.847 939.39 205.188C940.781 204.514 942.444 204.045 944.377 203.782C946.311 203.518 948.391 203.313 950.618 203.167V203.035C950.618 201.672 950.112 200.735 949.102 200.222C948.105 199.695 946.604 199.431 944.597 199.431C943.689 199.431 942.627 199.6 941.411 199.937C940.195 200.259 939.009 200.676 937.852 201.189H937.192V195.234C937.954 195.015 939.185 194.758 940.884 194.465C942.583 194.158 944.297 194.004 946.025 194.004C950.273 194.004 953.364 194.714 955.298 196.135C957.246 197.542 958.22 199.695 958.22 202.595V219.382H950.574V216.768ZM973.359 219.866C970.225 219.866 967.939 219.221 966.504 217.932C965.083 216.643 964.373 214.534 964.373 211.604V200.068H961.428V194.707H964.373V187.654H972.063V194.707H979.468V200.068H972.063V208.813C972.063 209.678 972.07 210.432 972.085 211.077C972.1 211.721 972.217 212.3 972.437 212.812C972.642 213.325 973 213.735 973.513 214.043C974.041 214.336 974.802 214.482 975.798 214.482C976.208 214.482 976.743 214.395 977.402 214.219C978.076 214.043 978.545 213.882 978.809 213.735H979.468V219.163C978.633 219.382 977.747 219.551 976.809 219.668C975.872 219.8 974.722 219.866 973.359 219.866ZM994.739 220.042C992.703 220.042 990.835 219.785 989.136 219.272C987.451 218.76 985.986 217.969 984.741 216.899C983.511 215.83 982.551 214.49 981.863 212.878C981.174 211.252 980.83 209.341 980.83 207.144C980.83 204.785 981.204 202.778 981.951 201.123C982.698 199.468 983.708 198.105 984.983 197.036C986.213 196.011 987.656 195.256 989.312 194.773C990.981 194.275 992.717 194.026 994.519 194.026C995.881 194.026 997.244 194.187 998.606 194.509C999.968 194.817 1001.34 195.315 1002.71 196.003V202.595H1001.73C1001.42 202.302 1001.04 201.98 1000.58 201.628C1000.14 201.277 999.661 200.955 999.133 200.662C998.577 200.354 997.947 200.098 997.244 199.893C996.541 199.673 995.757 199.563 994.893 199.563C992.93 199.563 991.406 200.251 990.322 201.628C989.253 202.991 988.718 204.829 988.718 207.144C988.718 209.619 989.29 211.465 990.432 212.681C991.589 213.896 993.12 214.504 995.024 214.504C995.991 214.504 996.841 214.395 997.573 214.175C998.306 213.955 998.936 213.691 999.463 213.384C999.976 213.076 1000.42 212.761 1000.78 212.439C1001.15 212.102 1001.46 211.802 1001.73 211.538H1002.71V218.13C1002.28 218.32 1001.76 218.54 1001.18 218.789C1000.61 219.038 1000.02 219.243 999.419 219.404C998.672 219.609 997.969 219.763 997.31 219.866C996.665 219.983 995.808 220.042 994.739 220.042ZM1029.48 219.382H1021.74V207.144C1021.74 206.147 1021.7 205.159 1021.61 204.177C1021.54 203.181 1021.39 202.449 1021.17 201.98C1020.91 201.423 1020.53 201.028 1020.03 200.793C1019.53 200.544 1018.86 200.42 1018.03 200.42C1017.4 200.42 1016.76 200.537 1016.12 200.771C1015.47 201.006 1014.79 201.379 1014.05 201.892V219.382H1006.36V185.193H1014.05V197.432C1015.31 196.362 1016.54 195.527 1017.72 194.927C1018.92 194.326 1020.25 194.026 1021.7 194.026C1024.22 194.026 1026.15 194.824 1027.48 196.421C1028.81 198.003 1029.48 200.303 1029.48 203.32V219.382Z" fill="black"/>
<rect x="1211.5" y="40" width="238" height="177" rx="30" fill="white" fill-opacity="0.5"/>
<path fill-rule="evenodd" clip-rule="evenodd" d="M1367.88 62.5H1304.62C1295.11 62.5 1287.38 69.0804 1287.38 77.1667V82.0556H1281.62C1280.1 82.0556 1278.64 82.5706 1277.56 83.4875C1276.48 84.4043 1275.88 85.6478 1275.88 86.9444C1275.88 88.2411 1276.48 89.4846 1277.56 90.4014C1278.64 91.3183 1280.1 91.8333 1281.62 91.8333H1287.38V101.611H1281.62C1280.1 101.611 1278.64 102.126 1277.56 103.043C1276.48 103.96 1275.88 105.203 1275.88 106.5C1275.88 107.797 1276.48 109.04 1277.56 109.957C1278.64 110.874 1280.1 111.389 1281.62 111.389H1287.38V121.167H1281.62C1280.1 121.167 1278.64 121.682 1277.56 122.599C1276.48 123.515 1275.88 124.759 1275.88 126.056C1275.88 127.352 1276.48 128.596 1277.56 129.513C1278.64 130.429 1280.1 130.944 1281.62 130.944H1287.38V135.833C1287.38 143.92 1295.11 150.5 1304.62 150.5H1367.88C1377.39 150.5 1385.12 143.92 1385.12 135.833V77.1667C1385.12 69.0804 1377.39 62.5 1367.88 62.5ZM1298.88 77.1667C1298.88 74.4729 1301.46 72.2778 1304.62 72.2778V82.0556H1298.88V77.1667ZM1298.88 91.8333H1304.62V101.611H1298.88V91.8333ZM1298.88 111.389H1304.62V121.167H1298.88V111.389ZM1298.88 135.833V130.944H1304.62V140.722C1301.46 140.722 1298.88 138.527 1298.88 135.833ZM1373.62 135.833C1373.62 138.527 1371.04 140.722 1367.88 140.722H1310.38V72.2778H1367.88C1371.04 72.2778 1373.62 74.4729 1373.62 77.1667V135.833ZM1339.12 108.943C1345.47 108.943 1350.62 104.565 1350.62 99.1653C1350.62 93.7652 1345.47 89.3876 1339.12 89.3876C1332.77 89.3876 1327.62 93.7652 1327.62 99.1653C1327.62 104.565 1332.77 108.943 1339.12 108.943ZM1324.75 120.116C1324.75 116.626 1330.15 113.13 1339.13 113.13C1347.87 113.13 1353.5 116.626 1353.5 120.116C1353.5 121.867 1347.56 123.612 1339.13 123.612C1330.15 123.612 1324.75 121.862 1324.75 120.116Z" fill="#4C4C4E"/>
<path d="M1276.18 189.925C1272.91 189.925 1270.31 188.938 1268.39 186.966C1266.47 184.983 1265.5 182.2 1265.5 178.616C1265.5 175.159 1266.47 172.405 1268.39 170.354C1270.32 168.294 1272.93 167.264 1276.2 167.264C1277.07 167.264 1277.85 167.312 1278.54 167.41C1279.24 167.508 1279.9 167.645 1280.53 167.82C1281.03 167.967 1281.57 168.167 1282.16 168.421C1282.75 168.675 1283.22 168.895 1283.58 169.08V174.28H1283.02C1282.76 174.046 1282.43 173.768 1282.03 173.445C1281.63 173.113 1281.17 172.791 1280.67 172.479C1280.16 172.166 1279.6 171.902 1278.98 171.688C1278.38 171.463 1277.74 171.351 1277.08 171.351C1276.29 171.351 1275.56 171.478 1274.89 171.731C1274.24 171.976 1273.62 172.405 1273.02 173.021C1272.47 173.577 1272.02 174.329 1271.67 175.276C1271.33 176.224 1271.16 177.342 1271.16 178.631C1271.16 179.988 1271.34 181.131 1271.7 182.059C1272.06 182.977 1272.54 183.719 1273.12 184.285C1273.69 184.832 1274.32 185.228 1275.01 185.472C1275.71 185.716 1276.41 185.838 1277.11 185.838C1277.83 185.838 1278.52 185.721 1279.17 185.486C1279.83 185.242 1280.38 184.974 1280.83 184.681C1281.32 184.378 1281.75 184.07 1282.12 183.758C1282.49 183.445 1282.81 183.167 1283.08 182.923H1283.58V188.05C1283.18 188.235 1282.72 188.45 1282.19 188.694C1281.66 188.929 1281.12 189.129 1280.56 189.295C1279.88 189.5 1279.24 189.656 1278.64 189.764C1278.05 189.871 1277.23 189.925 1276.18 189.925ZM1302.32 181.282C1302.32 183.987 1301.57 186.121 1300.09 187.684C1298.62 189.236 1296.53 190.013 1293.82 190.013C1291.13 190.013 1289.04 189.236 1287.55 187.684C1286.07 186.121 1285.32 183.987 1285.32 181.282C1285.32 178.548 1286.07 176.409 1287.55 174.866C1289.04 173.313 1291.13 172.537 1293.82 172.537C1296.52 172.537 1298.61 173.318 1300.09 174.881C1301.57 176.434 1302.32 178.567 1302.32 181.282ZM1297.06 181.312C1297.06 180.335 1296.97 179.524 1296.81 178.88C1296.65 178.226 1296.43 177.703 1296.15 177.312C1295.85 176.902 1295.5 176.619 1295.12 176.463C1294.74 176.297 1294.31 176.214 1293.82 176.214C1293.36 176.214 1292.95 176.287 1292.58 176.434C1292.2 176.57 1291.86 176.839 1291.55 177.239C1291.26 177.62 1291.02 178.143 1290.85 178.807C1290.67 179.471 1290.58 180.306 1290.58 181.312C1290.58 182.317 1290.67 183.133 1290.83 183.758C1291 184.373 1291.21 184.866 1291.48 185.237C1291.75 185.618 1292.09 185.896 1292.5 186.072C1292.91 186.248 1293.37 186.336 1293.86 186.336C1294.27 186.336 1294.69 186.248 1295.11 186.072C1295.54 185.896 1295.88 185.633 1296.13 185.281C1296.44 184.861 1296.67 184.358 1296.82 183.772C1296.98 183.177 1297.06 182.356 1297.06 181.312ZM1320.45 189.5H1315.29V181.341C1315.29 180.677 1315.27 180.018 1315.21 179.363C1315.16 178.699 1315.06 178.211 1314.91 177.898C1314.74 177.527 1314.48 177.264 1314.15 177.107C1313.82 176.941 1313.38 176.858 1312.82 176.858C1312.4 176.858 1311.97 176.937 1311.54 177.093C1311.12 177.249 1310.66 177.498 1310.17 177.84V189.5H1305.04V173.05H1310.17V174.866C1311.01 174.153 1311.82 173.597 1312.61 173.196C1313.42 172.796 1314.3 172.596 1315.27 172.596C1316.95 172.596 1318.23 173.128 1319.12 174.192C1320.01 175.247 1320.45 176.78 1320.45 178.792V189.5ZM1330.56 189.822C1328.47 189.822 1326.95 189.393 1325.99 188.533C1325.04 187.674 1324.57 186.268 1324.57 184.314V176.624H1322.6V173.05H1324.57V168.348H1329.69V173.05H1334.63V176.624H1329.69V182.454C1329.69 183.03 1329.7 183.533 1329.71 183.963C1329.72 184.393 1329.8 184.778 1329.94 185.12C1330.08 185.462 1330.32 185.735 1330.66 185.94C1331.01 186.136 1331.52 186.233 1332.18 186.233C1332.46 186.233 1332.81 186.175 1333.25 186.058C1333.7 185.94 1334.02 185.833 1334.19 185.735H1334.63V189.354C1334.07 189.5 1333.48 189.612 1332.86 189.69C1332.23 189.778 1331.47 189.822 1330.56 189.822ZM1345.81 185.208V181.78C1344.94 181.868 1344.24 181.946 1343.7 182.015C1343.16 182.073 1342.63 182.195 1342.12 182.381C1341.67 182.537 1341.32 182.776 1341.06 183.099C1340.82 183.411 1340.7 183.831 1340.7 184.358C1340.7 185.13 1340.9 185.662 1341.31 185.955C1341.73 186.238 1342.35 186.38 1343.16 186.38C1343.61 186.38 1344.06 186.277 1344.53 186.072C1345 185.867 1345.43 185.579 1345.81 185.208ZM1345.81 187.757C1345.46 188.05 1345.14 188.313 1344.86 188.548C1344.58 188.782 1344.21 189.017 1343.74 189.251C1343.28 189.476 1342.83 189.646 1342.39 189.764C1341.96 189.881 1341.36 189.939 1340.58 189.939C1339.12 189.939 1337.91 189.451 1336.95 188.475C1335.99 187.498 1335.51 186.268 1335.51 184.783C1335.51 183.562 1335.75 182.576 1336.24 181.824C1336.73 181.072 1337.43 180.477 1338.35 180.037C1339.28 179.588 1340.39 179.275 1341.68 179.1C1342.97 178.924 1344.35 178.787 1345.84 178.689V178.602C1345.84 177.693 1345.5 177.068 1344.83 176.727C1344.16 176.375 1343.16 176.199 1341.82 176.199C1341.22 176.199 1340.51 176.312 1339.7 176.536C1338.89 176.751 1338.1 177.029 1337.33 177.371H1336.89V173.401C1337.39 173.255 1338.21 173.084 1339.35 172.889C1340.48 172.684 1341.62 172.581 1342.78 172.581C1345.61 172.581 1347.67 173.055 1348.96 174.002C1350.26 174.939 1350.91 176.375 1350.91 178.309V189.5H1345.81V187.757ZM1362.77 189.939C1361.41 189.939 1360.17 189.769 1359.04 189.427C1357.91 189.085 1356.94 188.558 1356.11 187.845C1355.29 187.132 1354.65 186.238 1354.19 185.164C1353.73 184.08 1353.5 182.806 1353.5 181.341C1353.5 179.769 1353.75 178.431 1354.25 177.327C1354.74 176.224 1355.42 175.315 1356.27 174.603C1357.09 173.919 1358.05 173.416 1359.15 173.094C1360.27 172.762 1361.42 172.596 1362.62 172.596C1363.53 172.596 1364.44 172.703 1365.35 172.918C1366.26 173.123 1367.17 173.455 1368.09 173.914V178.309H1367.43C1367.22 178.113 1366.97 177.898 1366.67 177.664C1366.37 177.43 1366.05 177.215 1365.7 177.02C1365.33 176.814 1364.91 176.644 1364.44 176.507C1363.97 176.36 1363.45 176.287 1362.87 176.287C1361.56 176.287 1360.55 176.746 1359.83 177.664C1359.11 178.572 1358.76 179.798 1358.76 181.341C1358.76 182.991 1359.14 184.222 1359.9 185.032C1360.67 185.843 1361.69 186.248 1362.96 186.248C1363.61 186.248 1364.17 186.175 1364.66 186.028C1365.15 185.882 1365.57 185.706 1365.92 185.501C1366.26 185.296 1366.55 185.086 1366.8 184.871C1367.04 184.646 1367.25 184.446 1367.43 184.271H1368.09V188.665C1367.79 188.792 1367.45 188.938 1367.06 189.104C1366.68 189.271 1366.29 189.407 1365.89 189.515C1365.39 189.651 1364.92 189.754 1364.48 189.822C1364.05 189.9 1363.48 189.939 1362.77 189.939ZM1376.82 189.822C1374.73 189.822 1373.21 189.393 1372.25 188.533C1371.3 187.674 1370.83 186.268 1370.83 184.314V176.624H1368.86V173.05H1370.83V168.348H1375.95V173.05H1380.89V176.624H1375.95V182.454C1375.95 183.03 1375.96 183.533 1375.97 183.963C1375.98 184.393 1376.06 184.778 1376.2 185.12C1376.34 185.462 1376.58 185.735 1376.92 185.94C1377.27 186.136 1377.78 186.233 1378.44 186.233C1378.72 186.233 1379.07 186.175 1379.51 186.058C1379.96 185.94 1380.28 185.833 1380.45 185.735H1380.89V189.354C1380.33 189.5 1379.74 189.612 1379.12 189.69C1378.49 189.778 1377.73 189.822 1376.82 189.822ZM1388.01 189.954C1386.8 189.954 1385.65 189.822 1384.57 189.559C1383.49 189.295 1382.6 188.987 1381.9 188.636V184.3H1382.33C1382.57 184.485 1382.85 184.69 1383.16 184.915C1383.47 185.14 1383.91 185.374 1384.46 185.618C1384.94 185.843 1385.48 186.038 1386.08 186.204C1386.68 186.36 1387.34 186.438 1388.04 186.438C1388.76 186.438 1389.4 186.326 1389.94 186.102C1390.5 185.877 1390.78 185.521 1390.78 185.032C1390.78 184.651 1390.65 184.363 1390.4 184.168C1390.14 183.973 1389.65 183.787 1388.92 183.611C1388.53 183.514 1388.03 183.411 1387.44 183.304C1386.84 183.187 1386.32 183.055 1385.86 182.908C1384.57 182.508 1383.6 181.917 1382.94 181.136C1382.3 180.345 1381.97 179.31 1381.97 178.03C1381.97 177.298 1382.14 176.609 1382.47 175.965C1382.81 175.311 1383.31 174.729 1383.97 174.222C1384.62 173.724 1385.43 173.328 1386.38 173.035C1387.35 172.742 1388.44 172.596 1389.65 172.596C1390.8 172.596 1391.86 172.713 1392.83 172.947C1393.8 173.172 1394.61 173.445 1395.28 173.768V177.928H1394.87C1394.69 177.791 1394.41 177.61 1394.03 177.386C1393.65 177.151 1393.28 176.951 1392.92 176.785C1392.49 176.59 1392 176.429 1391.47 176.302C1390.94 176.175 1390.4 176.111 1389.84 176.111C1389.1 176.111 1388.47 176.238 1387.95 176.492C1387.44 176.746 1387.19 177.083 1387.19 177.503C1387.19 177.874 1387.32 178.167 1387.57 178.382C1387.82 178.597 1388.38 178.807 1389.23 179.012C1389.67 179.119 1390.17 179.227 1390.73 179.334C1391.31 179.432 1391.86 179.568 1392.39 179.744C1393.57 180.125 1394.46 180.687 1395.07 181.429C1395.69 182.161 1395.99 183.138 1395.99 184.358C1395.99 185.13 1395.81 185.867 1395.45 186.57C1395.09 187.264 1394.58 187.85 1393.91 188.328C1393.21 188.846 1392.38 189.246 1391.42 189.529C1390.48 189.812 1389.34 189.954 1388.01 189.954Z" fill="#4C4C4E"/>
<g filter="url(#filter1_b_2309_1484)">
<rect x="1549.5" y="61" width="191" height="135" rx="30" fill="white" fill-opacity="0.5"/>
<path d="M1676 133.521V139H1614V133.521C1614 131.188 1614.62 129.111 1615.89 127.192C1617.23 125.173 1619.18 123.293 1621.89 121.601L1621.89 121.6C1624.55 119.939 1627.83 118.629 1631.81 117.736C1635.81 116.837 1640.2 116.375 1645 116.375C1649.9 116.375 1654.35 116.838 1658.35 117.736C1662.32 118.629 1665.6 119.939 1668.25 121.599L1668.26 121.6C1670.96 123.292 1672.88 125.16 1674.15 127.151C1675.39 129.075 1676 131.167 1676 133.521ZM1686.26 107.581C1684.72 106.043 1684 104.309 1684 102.162C1684 99.8949 1684.74 98.1689 1686.23 96.714C1687.76 95.2104 1689.51 94.5 1691.67 94.5C1693.96 94.5 1695.7 95.2337 1697.15 96.6826L1699.98 93.8542L1697.15 96.6826C1698.6 98.1315 1699.33 99.8685 1699.33 102.167C1699.33 104.333 1698.62 106.076 1697.12 107.613C1695.66 109.1 1693.94 109.836 1691.67 109.833H1691.67C1689.53 109.833 1687.8 109.119 1686.26 107.581ZM1598.34 109.833H1598.33C1596.19 109.833 1594.46 109.119 1592.93 107.581C1591.39 106.043 1590.67 104.31 1590.67 102.164C1590.67 99.8957 1591.41 98.1692 1592.89 96.714C1594.43 95.2104 1596.17 94.5 1598.33 94.5C1600.63 94.5 1602.37 95.2337 1603.82 96.6826C1605.27 98.1315 1606 99.8684 1606 102.167C1606 104.333 1605.29 106.076 1603.79 107.613C1602.33 109.1 1600.61 109.836 1598.34 109.833ZM1658.5 90.4969V90.5C1658.5 94.3314 1657.22 97.4489 1654.62 100.089L1657.47 102.896L1654.62 100.089C1652.05 102.696 1648.94 104 1645 104C1641.19 104 1638.08 102.712 1635.43 100.067C1632.79 97.4233 1631.5 94.3124 1631.5 90.5C1631.5 86.5673 1632.8 83.4527 1635.41 80.8837C1638.05 78.2827 1641.17 77.0034 1645 77C1648.95 77.0004 1652.07 78.2935 1654.64 80.8626C1657.21 83.4319 1658.5 86.5524 1658.5 90.4969ZM1579 139V133.812C1579 131.32 1580.14 129.081 1583.51 127.013C1586.96 124.898 1591.79 123.667 1598.33 123.667C1598.56 123.667 1598.79 123.668 1599.02 123.669C1598.81 124.225 1598.62 124.787 1598.44 125.356C1597.64 127.985 1597.25 130.711 1597.25 133.521V139H1579ZM1692.75 139V133.521C1692.75 130.658 1692.39 127.909 1691.66 125.29C1691.5 124.743 1691.33 124.203 1691.14 123.67C1691.32 123.668 1691.5 123.667 1691.67 123.667C1698.22 123.667 1703.07 124.88 1706.52 126.96C1709.83 128.959 1711 131.199 1711 133.812V139H1692.75Z" stroke="#4C4C4E" stroke-width="8"/>
<path d="M1611.76 176.755C1610.81 177.146 1609.56 177.526 1608.03 177.897C1606.5 178.269 1605 178.454 1603.52 178.454C1600.09 178.454 1597.35 177.468 1595.31 175.495C1593.28 173.513 1592.27 170.705 1592.27 167.072C1592.27 163.654 1593.28 160.915 1595.31 158.854C1597.35 156.794 1600.14 155.764 1603.68 155.764C1605.5 155.764 1606.99 155.939 1608.13 156.291C1609.27 156.633 1610.45 157.102 1611.67 157.697V162.81H1611.18C1610.91 162.604 1610.53 162.316 1610.03 161.945C1609.55 161.564 1609.07 161.242 1608.6 160.979C1608.05 160.666 1607.42 160.397 1606.69 160.173C1605.98 159.948 1605.22 159.836 1604.42 159.836C1603.49 159.836 1602.63 159.982 1601.86 160.275C1601.09 160.568 1600.4 161.018 1599.79 161.623C1599.22 162.209 1598.76 162.951 1598.42 163.85C1598.09 164.748 1597.92 165.793 1597.92 166.984C1597.92 169.533 1598.56 171.413 1599.84 172.624C1601.12 173.835 1602.87 174.44 1605.08 174.44C1605.28 174.44 1605.51 174.436 1605.77 174.426C1606.04 174.416 1606.26 174.401 1606.46 174.382V170.104H1602.23V166.018H1611.76V176.755ZM1626.65 166.398H1626.22C1626.03 166.33 1625.74 166.281 1625.37 166.252C1625 166.213 1624.59 166.193 1624.14 166.193C1623.6 166.193 1623.04 166.271 1622.44 166.428C1621.86 166.584 1621.28 166.77 1620.73 166.984V178H1615.6V161.55H1620.73V163.908C1620.96 163.693 1621.28 163.425 1621.69 163.103C1622.11 162.771 1622.5 162.507 1622.84 162.312C1623.21 162.087 1623.64 161.896 1624.13 161.74C1624.62 161.574 1625.09 161.491 1625.53 161.491C1625.7 161.491 1625.88 161.496 1626.09 161.506C1626.29 161.516 1626.48 161.53 1626.65 161.55V166.398ZM1644.4 169.782C1644.4 172.487 1643.66 174.621 1642.17 176.184C1640.7 177.736 1638.61 178.513 1635.9 178.513C1633.22 178.513 1631.13 177.736 1629.63 176.184C1628.15 174.621 1627.41 172.487 1627.41 169.782C1627.41 167.048 1628.15 164.909 1629.63 163.366C1631.13 161.813 1633.22 161.037 1635.9 161.037C1638.6 161.037 1640.69 161.818 1642.17 163.381C1643.66 164.934 1644.4 167.067 1644.4 169.782ZM1639.14 169.812C1639.14 168.835 1639.06 168.024 1638.89 167.38C1638.74 166.726 1638.52 166.203 1638.23 165.812C1637.93 165.402 1637.59 165.119 1637.21 164.963C1636.83 164.797 1636.39 164.714 1635.9 164.714C1635.44 164.714 1635.03 164.787 1634.66 164.934C1634.29 165.07 1633.95 165.339 1633.63 165.739C1633.34 166.12 1633.11 166.643 1632.93 167.307C1632.75 167.971 1632.67 168.806 1632.67 169.812C1632.67 170.817 1632.75 171.633 1632.92 172.258C1633.08 172.873 1633.3 173.366 1633.56 173.737C1633.83 174.118 1634.17 174.396 1634.58 174.572C1635 174.748 1635.45 174.836 1635.95 174.836C1636.36 174.836 1636.77 174.748 1637.19 174.572C1637.62 174.396 1637.96 174.133 1638.22 173.781C1638.52 173.361 1638.75 172.858 1638.91 172.272C1639.06 171.677 1639.14 170.856 1639.14 169.812ZM1662.4 178H1657.28V176.184C1656.39 176.926 1655.57 177.492 1654.83 177.883C1654.09 178.264 1653.2 178.454 1652.18 178.454C1650.55 178.454 1649.27 177.941 1648.35 176.916C1647.45 175.881 1646.99 174.328 1646.99 172.258V161.55H1652.15V169.709C1652.15 170.559 1652.17 171.252 1652.21 171.789C1652.26 172.326 1652.36 172.78 1652.53 173.151C1652.69 173.493 1652.92 173.752 1653.25 173.928C1653.58 174.104 1654.04 174.191 1654.62 174.191C1654.99 174.191 1655.41 174.104 1655.9 173.928C1656.4 173.752 1656.86 173.513 1657.28 173.21V161.55H1662.4V178ZM1682.47 169.548C1682.47 172.175 1681.8 174.294 1680.46 175.905C1679.14 177.517 1677.5 178.322 1675.54 178.322C1674.72 178.322 1674.01 178.229 1673.4 178.044C1672.8 177.858 1672.15 177.57 1671.47 177.18V184.035H1666.34V161.55H1671.47V163.264C1672.22 162.619 1672.99 162.097 1673.77 161.696C1674.55 161.296 1675.45 161.096 1676.48 161.096C1678.38 161.096 1679.86 161.853 1680.9 163.366C1681.95 164.88 1682.47 166.94 1682.47 169.548ZM1677.23 169.65C1677.23 168.049 1676.98 166.887 1676.48 166.164C1675.99 165.441 1675.22 165.08 1674.18 165.08C1673.72 165.08 1673.26 165.153 1672.8 165.3C1672.35 165.446 1671.91 165.666 1671.47 165.959V174.235C1671.74 174.353 1672.04 174.436 1672.36 174.484C1672.7 174.533 1673.09 174.558 1673.54 174.558C1674.79 174.558 1675.71 174.152 1676.32 173.342C1676.92 172.521 1677.23 171.291 1677.23 169.65ZM1690.25 178.454C1689.04 178.454 1687.89 178.322 1686.81 178.059C1685.73 177.795 1684.84 177.487 1684.14 177.136V172.8H1684.57C1684.81 172.985 1685.09 173.19 1685.4 173.415C1685.71 173.64 1686.15 173.874 1686.7 174.118C1687.18 174.343 1687.72 174.538 1688.32 174.704C1688.92 174.86 1689.58 174.938 1690.28 174.938C1691 174.938 1691.64 174.826 1692.18 174.602C1692.74 174.377 1693.02 174.021 1693.02 173.532C1693.02 173.151 1692.89 172.863 1692.64 172.668C1692.38 172.473 1691.89 172.287 1691.16 172.111C1690.77 172.014 1690.27 171.911 1689.68 171.804C1689.08 171.687 1688.55 171.555 1688.1 171.408C1686.81 171.008 1685.83 170.417 1685.18 169.636C1684.54 168.845 1684.21 167.81 1684.21 166.53C1684.21 165.798 1684.38 165.109 1684.71 164.465C1685.05 163.811 1685.55 163.229 1686.21 162.722C1686.86 162.224 1687.67 161.828 1688.62 161.535C1689.59 161.242 1690.68 161.096 1691.89 161.096C1693.04 161.096 1694.1 161.213 1695.07 161.447C1696.04 161.672 1696.85 161.945 1697.51 162.268V166.428H1697.1C1696.93 166.291 1696.65 166.11 1696.27 165.886C1695.89 165.651 1695.52 165.451 1695.16 165.285C1694.73 165.09 1694.24 164.929 1693.71 164.802C1693.18 164.675 1692.64 164.611 1692.08 164.611C1691.34 164.611 1690.71 164.738 1690.19 164.992C1689.68 165.246 1689.43 165.583 1689.43 166.003C1689.43 166.374 1689.56 166.667 1689.81 166.882C1690.06 167.097 1690.62 167.307 1691.46 167.512C1691.9 167.619 1692.41 167.727 1692.97 167.834C1693.55 167.932 1694.1 168.068 1694.63 168.244C1695.81 168.625 1696.7 169.187 1697.31 169.929C1697.92 170.661 1698.23 171.638 1698.23 172.858C1698.23 173.63 1698.05 174.367 1697.69 175.07C1697.33 175.764 1696.82 176.35 1696.15 176.828C1695.45 177.346 1694.62 177.746 1693.66 178.029C1692.71 178.312 1691.58 178.454 1690.25 178.454Z" fill="#4C4C4E"/>
</g>
<defs>
<filter id="filter0_b_2309_1484" x="149.5" y="31" width="251" height="195" filterUnits="userSpaceOnUse" color-interpolation-filters="sRGB">
<feFlood flood-opacity="0" result="BackgroundImageFix"/>
<feGaussianBlur in="BackgroundImageFix" stdDeviation="15"/>
<feComposite in2="SourceAlpha" operator="in" result="effect1_backgroundBlur_2309_1484"/>
<feBlend mode="normal" in="SourceGraphic" in2="effect1_backgroundBlur_2309_1484" result="shape"/>
</filter>
<filter id="filter1_b_2309_1484" x="1519.5" y="31" width="251" height="195" filterUnits="userSpaceOnUse" color-interpolation-filters="sRGB">
<feFlood flood-opacity="0" result="BackgroundImageFix"/>
<feGaussianBlur in="BackgroundImageFix" stdDeviation="15"/>
<feComposite in2="SourceAlpha" operator="in" result="effect1_backgroundBlur_2309_1484"/>
<feBlend mode="normal" in="SourceGraphic" in2="effect1_backgroundBlur_2309_1484" result="shape"/>
</filter>
</defs>
</svg>
