<svg width="48" height="54" viewBox="0 0 48 54" fill="none" xmlns="http://www.w3.org/2000/svg">
<path d="M47.4591 34.002L42.4615 29.0045V22.3842C42.4558 17.8091 40.7539 13.3987 37.6849 10.0057C34.6158 6.61271 30.3977 4.47822 25.8462 4.01496V0.230347H22.1538V4.01496C17.6023 4.47822 13.3842 6.61271 10.3151 10.0057C7.24611 13.3987 5.54419 17.8091 5.53846 22.3842V29.0045L0.540923 34.002C0.194678 34.3482 0.000104561 34.8177 0 35.3073V40.8457C0 41.3354 0.194505 41.8049 0.540726 42.1512C0.886947 42.4974 1.35652 42.6919 1.84615 42.6919H14.7692V44.1263C14.7291 46.4684 15.5546 48.743 17.0876 50.5141C18.6206 52.2853 20.7533 53.4284 23.0769 53.7245C24.3603 53.8518 25.6562 53.709 26.8811 53.3054C28.106 52.9018 29.2329 52.2463 30.1893 51.381C31.1457 50.5158 31.9103 49.4599 32.4342 48.2814C32.958 47.1029 33.2293 45.8277 33.2308 44.538V42.6919H46.1538C46.6435 42.6919 47.1131 42.4974 47.4593 42.1512C47.8055 41.8049 48 41.3354 48 40.8457V35.3073C47.9999 34.8177 47.8053 34.3482 47.4591 34.002ZM29.5385 44.538C29.5385 46.0069 28.9549 47.4157 27.9163 48.4543C26.8776 49.493 25.4689 50.0765 24 50.0765C22.5311 50.0765 21.1224 49.493 20.0837 48.4543C19.0451 47.4157 18.4615 46.0069 18.4615 44.538V42.6919H29.5385V44.538ZM44.3077 38.9996H3.69231V36.0716L8.68985 31.074C9.03609 30.7279 9.23066 30.2584 9.23077 29.7688V22.3842C9.23077 18.4671 10.7868 14.7105 13.5566 11.9408C16.3263 9.171 20.083 7.61496 24 7.61496C27.917 7.61496 31.6737 9.171 34.4434 11.9408C37.2132 14.7105 38.7692 18.4671 38.7692 22.3842V29.7688C38.7693 30.2584 38.9639 30.7279 39.3102 31.074L44.3077 36.0716V38.9996Z" fill="#4C4C4E"/>
</svg>
