<svg width="78" height="72" viewBox="0 0 78 72" fill="none" xmlns="http://www.w3.org/2000/svg">
<mask id="path-1-outside-1_251_35" maskUnits="userSpaceOnUse" x="0.8125" y="0" width="77" height="72" fill="black">
<rect fill="white" x="0.8125" width="77" height="72"/>
<path fill-rule="evenodd" clip-rule="evenodd" d="M51.8046 7.24215C51.5995 7.44727 51.3213 7.5625 51.0312 7.5625H26.9688C26.6787 7.5625 26.4005 7.44727 26.1954 7.24215C25.9902 7.03703 25.875 6.75883 25.875 6.46875C25.875 6.17867 25.9902 5.90047 26.1954 5.69535C26.4005 5.49023 26.6787 5.375 26.9688 5.375H51.0312C51.3213 5.375 51.5995 5.49023 51.8046 5.69535C52.0098 5.90047 52.125 6.17867 52.125 6.46875C52.125 6.75883 52.0098 7.03703 51.8046 7.24215ZM21.1796 1.32035C21.3848 1.52547 21.5 1.80367 21.5 2.09375V10.8438C21.5 11.1338 21.3848 11.412 21.1796 11.6171C20.9745 11.8223 20.6963 11.9375 20.4062 11.9375C20.1162 11.9375 19.838 11.8223 19.6329 11.6171C19.4277 11.412 19.3125 11.1338 19.3125 10.8438V2.09375C19.3125 1.80367 19.4277 1.52547 19.6329 1.32035C19.838 1.11523 20.1162 1 20.4062 1C20.6963 1 20.9745 1.11523 21.1796 1.32035ZM58.3671 11.6171C58.162 11.8223 57.8838 11.9375 57.5938 11.9375C57.3037 11.9375 57.0255 11.8223 56.8204 11.6171C56.6152 11.412 56.5 11.1338 56.5 10.8438V2.09375C56.5 1.80367 56.6152 1.52547 56.8204 1.32035C57.0255 1.11523 57.3037 1 57.5938 1C57.8838 1 58.162 1.11523 58.3671 1.32035C58.5723 1.52547 58.6875 1.80367 58.6875 2.09375V10.8438C58.6875 11.1338 58.5723 11.412 58.3671 11.6171ZM11.6562 51.3125C11.3662 51.3125 11.088 51.4277 10.8829 51.6329C10.6777 51.838 10.5625 52.1162 10.5625 52.4062C10.5625 52.6963 10.6777 52.9745 10.8829 53.1796C11.088 53.3848 11.3662 53.5 11.6562 53.5H14.9375V61.1562C14.9375 61.4463 15.0527 61.7245 15.2579 61.9296C15.463 62.1348 15.7412 62.25 16.0312 62.25C16.3213 62.25 16.5995 62.1348 16.8046 61.9296C17.0098 61.7245 17.125 61.4463 17.125 61.1562V53.5H30.25V61.1562C30.25 61.4463 30.3652 61.7245 30.5704 61.9296C30.7755 62.1348 31.0537 62.25 31.3438 62.25C31.6338 62.25 31.912 62.1348 32.1171 61.9296C32.3223 61.7245 32.4375 61.4463 32.4375 61.1562V53.5H45.5625V61.1562C45.5625 61.4463 45.6777 61.7245 45.8829 61.9296C46.088 62.1348 46.3662 62.25 46.6562 62.25C46.9463 62.25 47.2245 62.1348 47.4296 61.9296C47.6348 61.7245 47.75 61.4463 47.75 61.1562V53.5H60.875V61.1562C60.875 61.4463 60.9902 61.7245 61.1954 61.9296C61.4005 62.1348 61.6787 62.25 61.9688 62.25C62.2588 62.25 62.537 62.1348 62.7421 61.9296C62.9473 61.7245 63.0625 61.4463 63.0625 61.1562V53.5H66.3438C66.6338 53.5 66.912 53.3848 67.1171 53.1796C67.3223 52.9745 67.4375 52.6963 67.4375 52.4062C67.4375 52.1162 67.3223 51.838 67.1171 51.6329C66.912 51.4277 66.6338 51.3125 66.3438 51.3125H63.0625V40.375H66.3438C66.6338 40.375 66.912 40.2598 67.1171 40.0546C67.3223 39.8495 67.4375 39.5713 67.4375 39.2812C67.4375 38.9912 67.3223 38.713 67.1171 38.5079C66.912 38.3027 66.6338 38.1875 66.3438 38.1875H63.0625V28.3438C63.0625 28.0537 62.9473 27.7755 62.7421 27.5704C62.537 27.3652 62.2588 27.25 61.9688 27.25C61.6787 27.25 61.4005 27.3652 61.1954 27.5704C60.9902 27.7755 60.875 28.0537 60.875 28.3438V38.1875H47.75V28.3438C47.75 28.0537 47.6348 27.7755 47.4296 27.5704C47.2245 27.3652 46.9463 27.25 46.6562 27.25C46.3662 27.25 46.088 27.3652 45.8829 27.5704C45.6777 27.7755 45.5625 28.0537 45.5625 28.3438V38.1875H32.4375V28.3438C32.4375 28.0537 32.3223 27.7755 32.1171 27.5704C31.912 27.3652 31.6338 27.25 31.3438 27.25C31.0537 27.25 30.7755 27.3652 30.5704 27.5704C30.3652 27.7755 30.25 28.0537 30.25 28.3438V38.1875H17.125V28.3438C17.125 28.0537 17.0098 27.7755 16.8046 27.5704C16.5995 27.3652 16.3213 27.25 16.0312 27.25C15.7412 27.25 15.463 27.3652 15.2579 27.5704C15.0527 27.7755 14.9375 28.0537 14.9375 28.3438V38.1875H11.6562C11.3662 38.1875 11.088 38.3027 10.8829 38.5079C10.6777 38.713 10.5625 38.9912 10.5625 39.2812C10.5625 39.5713 10.6777 39.8495 10.8829 40.0546C11.088 40.2598 11.3662 40.375 11.6562 40.375H14.9375V51.3125H11.6562ZM60.875 40.375V51.3125H47.75V40.375H60.875ZM45.5625 40.375V51.3125H32.4375V40.375H45.5625ZM17.125 40.375H30.25V51.3125H17.125V40.375ZM64.1562 7.5625H73.4531C73.6434 7.5625 74 7.5625 74 8.65625V18.5H4V8.65625C4 8.36617 4.11523 8.08797 4.32035 7.88285C4.52547 7.67773 4.80367 7.5625 5.09375 7.5625H13.8438C14.1338 7.5625 14.412 7.44727 14.6171 7.24215C14.8223 7.03703 14.9375 6.75883 14.9375 6.46875C14.9375 6.17867 14.8223 5.90047 14.6171 5.69535C14.412 5.49023 14.1338 5.375 13.8438 5.375H5.09375C3.28469 5.375 1.8125 6.84719 1.8125 8.65625V19.5938C1.8125 19.8838 1.92773 20.162 2.13285 20.3671C2.33797 20.5723 2.61617 20.6875 2.90625 20.6875H75.0938C75.3838 20.6875 75.662 20.5723 75.8671 20.3671C76.0723 20.162 76.1875 19.8838 76.1875 19.5938V8.65625C76.1875 6.23688 74.7744 5.375 73.4531 5.375H64.1562C63.8662 5.375 63.588 5.49023 63.3829 5.69535C63.1777 5.90047 63.0625 6.17867 63.0625 6.46875C63.0625 6.75883 63.1777 7.03703 63.3829 7.24215C63.588 7.44727 63.8662 7.5625 64.1562 7.5625ZM76.1875 67.7188V26.1562C76.1875 25.8662 76.0723 25.588 75.8671 25.3829C75.662 25.1777 75.3838 25.0625 75.0938 25.0625C74.8037 25.0625 74.5255 25.1777 74.3204 25.3829C74.1152 25.588 74 25.8662 74 26.1562V67.7188C74 68.0088 73.8848 68.287 73.6796 68.4921C73.4745 68.6973 73.1963 68.8125 72.9062 68.8125H5.09375C4.80367 68.8125 4.52547 68.6973 4.32035 68.4921C4.11523 68.287 4 68.0088 4 67.7188V26.1562C4 25.8662 3.88477 25.588 3.67965 25.3829C3.47453 25.1777 3.19633 25.0625 2.90625 25.0625C2.61617 25.0625 2.33797 25.1777 2.13285 25.3829C1.92773 25.588 1.8125 25.8662 1.8125 26.1562V67.7188C1.8125 69.5278 3.28469 71 5.09375 71H72.9062C74.7153 71 76.1875 69.5278 76.1875 67.7188Z"/>
</mask>
<path fill-rule="evenodd" clip-rule="evenodd" d="M51.8046 7.24215C51.5995 7.44727 51.3213 7.5625 51.0312 7.5625H26.9688C26.6787 7.5625 26.4005 7.44727 26.1954 7.24215C25.9902 7.03703 25.875 6.75883 25.875 6.46875C25.875 6.17867 25.9902 5.90047 26.1954 5.69535C26.4005 5.49023 26.6787 5.375 26.9688 5.375H51.0312C51.3213 5.375 51.5995 5.49023 51.8046 5.69535C52.0098 5.90047 52.125 6.17867 52.125 6.46875C52.125 6.75883 52.0098 7.03703 51.8046 7.24215ZM21.1796 1.32035C21.3848 1.52547 21.5 1.80367 21.5 2.09375V10.8438C21.5 11.1338 21.3848 11.412 21.1796 11.6171C20.9745 11.8223 20.6963 11.9375 20.4062 11.9375C20.1162 11.9375 19.838 11.8223 19.6329 11.6171C19.4277 11.412 19.3125 11.1338 19.3125 10.8438V2.09375C19.3125 1.80367 19.4277 1.52547 19.6329 1.32035C19.838 1.11523 20.1162 1 20.4062 1C20.6963 1 20.9745 1.11523 21.1796 1.32035ZM58.3671 11.6171C58.162 11.8223 57.8838 11.9375 57.5938 11.9375C57.3037 11.9375 57.0255 11.8223 56.8204 11.6171C56.6152 11.412 56.5 11.1338 56.5 10.8438V2.09375C56.5 1.80367 56.6152 1.52547 56.8204 1.32035C57.0255 1.11523 57.3037 1 57.5938 1C57.8838 1 58.162 1.11523 58.3671 1.32035C58.5723 1.52547 58.6875 1.80367 58.6875 2.09375V10.8438C58.6875 11.1338 58.5723 11.412 58.3671 11.6171ZM11.6562 51.3125C11.3662 51.3125 11.088 51.4277 10.8829 51.6329C10.6777 51.838 10.5625 52.1162 10.5625 52.4062C10.5625 52.6963 10.6777 52.9745 10.8829 53.1796C11.088 53.3848 11.3662 53.5 11.6562 53.5H14.9375V61.1562C14.9375 61.4463 15.0527 61.7245 15.2579 61.9296C15.463 62.1348 15.7412 62.25 16.0312 62.25C16.3213 62.25 16.5995 62.1348 16.8046 61.9296C17.0098 61.7245 17.125 61.4463 17.125 61.1562V53.5H30.25V61.1562C30.25 61.4463 30.3652 61.7245 30.5704 61.9296C30.7755 62.1348 31.0537 62.25 31.3438 62.25C31.6338 62.25 31.912 62.1348 32.1171 61.9296C32.3223 61.7245 32.4375 61.4463 32.4375 61.1562V53.5H45.5625V61.1562C45.5625 61.4463 45.6777 61.7245 45.8829 61.9296C46.088 62.1348 46.3662 62.25 46.6562 62.25C46.9463 62.25 47.2245 62.1348 47.4296 61.9296C47.6348 61.7245 47.75 61.4463 47.75 61.1562V53.5H60.875V61.1562C60.875 61.4463 60.9902 61.7245 61.1954 61.9296C61.4005 62.1348 61.6787 62.25 61.9688 62.25C62.2588 62.25 62.537 62.1348 62.7421 61.9296C62.9473 61.7245 63.0625 61.4463 63.0625 61.1562V53.5H66.3438C66.6338 53.5 66.912 53.3848 67.1171 53.1796C67.3223 52.9745 67.4375 52.6963 67.4375 52.4062C67.4375 52.1162 67.3223 51.838 67.1171 51.6329C66.912 51.4277 66.6338 51.3125 66.3438 51.3125H63.0625V40.375H66.3438C66.6338 40.375 66.912 40.2598 67.1171 40.0546C67.3223 39.8495 67.4375 39.5713 67.4375 39.2812C67.4375 38.9912 67.3223 38.713 67.1171 38.5079C66.912 38.3027 66.6338 38.1875 66.3438 38.1875H63.0625V28.3438C63.0625 28.0537 62.9473 27.7755 62.7421 27.5704C62.537 27.3652 62.2588 27.25 61.9688 27.25C61.6787 27.25 61.4005 27.3652 61.1954 27.5704C60.9902 27.7755 60.875 28.0537 60.875 28.3438V38.1875H47.75V28.3438C47.75 28.0537 47.6348 27.7755 47.4296 27.5704C47.2245 27.3652 46.9463 27.25 46.6562 27.25C46.3662 27.25 46.088 27.3652 45.8829 27.5704C45.6777 27.7755 45.5625 28.0537 45.5625 28.3438V38.1875H32.4375V28.3438C32.4375 28.0537 32.3223 27.7755 32.1171 27.5704C31.912 27.3652 31.6338 27.25 31.3438 27.25C31.0537 27.25 30.7755 27.3652 30.5704 27.5704C30.3652 27.7755 30.25 28.0537 30.25 28.3438V38.1875H17.125V28.3438C17.125 28.0537 17.0098 27.7755 16.8046 27.5704C16.5995 27.3652 16.3213 27.25 16.0312 27.25C15.7412 27.25 15.463 27.3652 15.2579 27.5704C15.0527 27.7755 14.9375 28.0537 14.9375 28.3438V38.1875H11.6562C11.3662 38.1875 11.088 38.3027 10.8829 38.5079C10.6777 38.713 10.5625 38.9912 10.5625 39.2812C10.5625 39.5713 10.6777 39.8495 10.8829 40.0546C11.088 40.2598 11.3662 40.375 11.6562 40.375H14.9375V51.3125H11.6562ZM60.875 40.375V51.3125H47.75V40.375H60.875ZM45.5625 40.375V51.3125H32.4375V40.375H45.5625ZM17.125 40.375H30.25V51.3125H17.125V40.375ZM64.1562 7.5625H73.4531C73.6434 7.5625 74 7.5625 74 8.65625V18.5H4V8.65625C4 8.36617 4.11523 8.08797 4.32035 7.88285C4.52547 7.67773 4.80367 7.5625 5.09375 7.5625H13.8438C14.1338 7.5625 14.412 7.44727 14.6171 7.24215C14.8223 7.03703 14.9375 6.75883 14.9375 6.46875C14.9375 6.17867 14.8223 5.90047 14.6171 5.69535C14.412 5.49023 14.1338 5.375 13.8438 5.375H5.09375C3.28469 5.375 1.8125 6.84719 1.8125 8.65625V19.5938C1.8125 19.8838 1.92773 20.162 2.13285 20.3671C2.33797 20.5723 2.61617 20.6875 2.90625 20.6875H75.0938C75.3838 20.6875 75.662 20.5723 75.8671 20.3671C76.0723 20.162 76.1875 19.8838 76.1875 19.5938V8.65625C76.1875 6.23688 74.7744 5.375 73.4531 5.375H64.1562C63.8662 5.375 63.588 5.49023 63.3829 5.69535C63.1777 5.90047 63.0625 6.17867 63.0625 6.46875C63.0625 6.75883 63.1777 7.03703 63.3829 7.24215C63.588 7.44727 63.8662 7.5625 64.1562 7.5625ZM76.1875 67.7188V26.1562C76.1875 25.8662 76.0723 25.588 75.8671 25.3829C75.662 25.1777 75.3838 25.0625 75.0938 25.0625C74.8037 25.0625 74.5255 25.1777 74.3204 25.3829C74.1152 25.588 74 25.8662 74 26.1562V67.7188C74 68.0088 73.8848 68.287 73.6796 68.4921C73.4745 68.6973 73.1963 68.8125 72.9062 68.8125H5.09375C4.80367 68.8125 4.52547 68.6973 4.32035 68.4921C4.11523 68.287 4 68.0088 4 67.7188V26.1562C4 25.8662 3.88477 25.588 3.67965 25.3829C3.47453 25.1777 3.19633 25.0625 2.90625 25.0625C2.61617 25.0625 2.33797 25.1777 2.13285 25.3829C1.92773 25.588 1.8125 25.8662 1.8125 26.1562V67.7188C1.8125 69.5278 3.28469 71 5.09375 71H72.9062C74.7153 71 76.1875 69.5278 76.1875 67.7188Z" fill="#4C4C4E"/>
<path d="M51.8046 7.24215L52.5118 7.94926L52.5118 7.94925L51.8046 7.24215ZM26.1954 7.24215L25.4882 7.94925L25.4882 7.94926L26.1954 7.24215ZM26.1954 5.69535L25.4882 4.98824L25.4882 4.98825L26.1954 5.69535ZM51.8046 5.69535L52.5118 4.98825L52.5118 4.98824L51.8046 5.69535ZM21.1796 1.32035L21.8868 0.613245V0.613245L21.1796 1.32035ZM21.1796 11.6171L20.4725 10.91L20.4725 10.91L21.1796 11.6171ZM19.6329 11.6171L20.34 10.91L20.34 10.91L19.6329 11.6171ZM19.6329 1.32035L18.9257 0.613245V0.613245L19.6329 1.32035ZM58.3671 11.6171L59.0743 12.3243L59.0743 12.3243L58.3671 11.6171ZM56.8204 11.6171L56.1132 12.3243L56.1132 12.3243L56.8204 11.6171ZM56.8204 1.32035L56.1132 0.613241L56.1132 0.613248L56.8204 1.32035ZM58.3671 1.32035L59.0743 0.613248L59.0743 0.613241L58.3671 1.32035ZM10.8829 51.6329L10.1757 50.9257L10.1757 50.9257L10.8829 51.6329ZM10.8829 53.1796L10.1757 53.8868L10.1757 53.8868L10.8829 53.1796ZM14.9375 53.5H15.9375V52.5H14.9375V53.5ZM15.2579 61.9296L14.5507 62.6368L14.5507 62.6368L15.2579 61.9296ZM16.8046 61.9296L17.5118 62.6368L17.5118 62.6368L16.8046 61.9296ZM17.125 53.5V52.5H16.125V53.5H17.125ZM30.25 53.5H31.25V52.5H30.25V53.5ZM30.5704 61.9296L29.8632 62.6368L29.8632 62.6368L30.5704 61.9296ZM32.1171 61.9296L32.8243 62.6368L32.8243 62.6368L32.1171 61.9296ZM32.4375 53.5V52.5H31.4375V53.5H32.4375ZM45.5625 53.5H46.5625V52.5H45.5625V53.5ZM45.8829 61.9296L45.1757 62.6367L45.1758 62.6368L45.8829 61.9296ZM47.4296 61.9296L48.1367 62.6368L48.1368 62.6367L47.4296 61.9296ZM47.75 53.5V52.5H46.75V53.5H47.75ZM60.875 53.5H61.875V52.5H60.875V53.5ZM61.1954 61.9296L60.4882 62.6367L60.4883 62.6368L61.1954 61.9296ZM62.7421 61.9296L63.4492 62.6368L63.4493 62.6367L62.7421 61.9296ZM63.0625 53.5V52.5H62.0625V53.5H63.0625ZM67.1171 53.1796L67.8243 53.8868L67.8243 53.8867L67.1171 53.1796ZM67.1171 51.6329L67.8243 50.9258L67.8243 50.9257L67.1171 51.6329ZM63.0625 51.3125H62.0625V52.3125H63.0625V51.3125ZM63.0625 40.375V39.375H62.0625V40.375H63.0625ZM67.1171 40.0546L67.8243 40.7618L67.8243 40.7617L67.1171 40.0546ZM67.1171 38.5079L67.8243 37.8008L67.8243 37.8007L67.1171 38.5079ZM63.0625 38.1875H62.0625V39.1875H63.0625V38.1875ZM62.7421 27.5704L63.4493 26.8632L63.4493 26.8632L62.7421 27.5704ZM61.1954 27.5704L60.4882 26.8632L60.4882 26.8632L61.1954 27.5704ZM60.875 38.1875V39.1875H61.875V38.1875H60.875ZM47.75 38.1875H46.75V39.1875H47.75V38.1875ZM47.4296 27.5704L48.1368 26.8632L48.1368 26.8632L47.4296 27.5704ZM45.8829 27.5704L45.1757 26.8632L45.1757 26.8632L45.8829 27.5704ZM45.5625 38.1875V39.1875H46.5625V38.1875H45.5625ZM32.4375 38.1875H31.4375V39.1875H32.4375V38.1875ZM30.25 38.1875V39.1875H31.25V38.1875H30.25ZM17.125 38.1875H16.125V39.1875H17.125V38.1875ZM16.8046 27.5704L16.0975 28.2775L16.0975 28.2775L16.8046 27.5704ZM15.2579 27.5704L15.965 28.2775L15.965 28.2775L15.2579 27.5704ZM14.9375 38.1875V39.1875H15.9375V38.1875H14.9375ZM10.8829 38.5079L10.1757 37.8007L10.1757 37.8007L10.8829 38.5079ZM10.8829 40.0546L10.1757 40.7618L10.1757 40.7618L10.8829 40.0546ZM14.9375 40.375H15.9375V39.375H14.9375V40.375ZM14.9375 51.3125V52.3125H15.9375V51.3125H14.9375ZM60.875 51.3125V52.3125H61.875V51.3125H60.875ZM60.875 40.375H61.875V39.375H60.875V40.375ZM47.75 51.3125H46.75V52.3125H47.75V51.3125ZM47.75 40.375V39.375H46.75V40.375H47.75ZM45.5625 51.3125V52.3125H46.5625V51.3125H45.5625ZM45.5625 40.375H46.5625V39.375H45.5625V40.375ZM32.4375 51.3125H31.4375V52.3125H32.4375V51.3125ZM32.4375 40.375V39.375H31.4375V40.375H32.4375ZM30.25 40.375H31.25V39.375H30.25V40.375ZM17.125 40.375V39.375H16.125V40.375H17.125ZM30.25 51.3125V52.3125H31.25V51.3125H30.25ZM17.125 51.3125H16.125V52.3125H17.125V51.3125ZM74 18.5V19.5H75V18.5H74ZM4 18.5H3V19.5H4V18.5ZM4.32035 7.88285L3.61325 7.17575L3.61324 7.17575L4.32035 7.88285ZM14.6171 7.24215L13.91 6.53504L13.91 6.53504L14.6171 7.24215ZM14.6171 5.69535L13.91 6.40246L13.91 6.40246L14.6171 5.69535ZM2.13285 20.3671L1.42574 21.0743H1.42574L2.13285 20.3671ZM63.3829 5.69535L62.6757 4.98824L62.6757 4.98825L63.3829 5.69535ZM63.3829 7.24215L62.6757 7.94925L62.6757 7.94926L63.3829 7.24215ZM3.67965 25.3829L2.97254 26.09H2.97254L3.67965 25.3829ZM2.13285 25.3829L1.42574 24.6757H1.42574L2.13285 25.3829ZM51.0312 8.5625C51.5866 8.5625 52.1191 8.34191 52.5118 7.94926L51.0975 6.53504C51.08 6.55262 51.0561 6.5625 51.0312 6.5625V8.5625ZM26.9688 8.5625H51.0312V6.5625H26.9688V8.5625ZM25.4882 7.94926C25.8809 8.34191 26.4135 8.5625 26.9688 8.5625V6.5625C26.9439 6.5625 26.92 6.55262 26.9025 6.53504L25.4882 7.94926ZM24.875 6.46875C24.875 7.02404 25.0956 7.5566 25.4882 7.94925L26.9025 6.53504C26.8849 6.51746 26.875 6.49362 26.875 6.46875H24.875ZM25.4882 4.98825C25.0956 5.3809 24.875 5.91346 24.875 6.46875H26.875C26.875 6.44388 26.8849 6.42004 26.9025 6.40246L25.4882 4.98825ZM26.9688 4.375C26.4135 4.375 25.8809 4.59559 25.4882 4.98824L26.9025 6.40246C26.92 6.38488 26.9439 6.375 26.9688 6.375V4.375ZM51.0312 4.375H26.9688V6.375H51.0312V4.375ZM52.5118 4.98824C52.1191 4.59559 51.5866 4.375 51.0312 4.375V6.375C51.0561 6.375 51.08 6.38488 51.0975 6.40246L52.5118 4.98824ZM53.125 6.46875C53.125 5.91345 52.9044 5.3809 52.5118 4.98825L51.0975 6.40246C51.1151 6.42004 51.125 6.44389 51.125 6.46875H53.125ZM52.5118 7.94925C52.9044 7.5566 53.125 7.02405 53.125 6.46875H51.125C51.125 6.49361 51.1151 6.51746 51.0975 6.53504L52.5118 7.94925ZM22.5 2.09375C22.5 1.53846 22.2794 1.0059 21.8868 0.613245L20.4725 2.02746C20.4901 2.04504 20.5 2.06888 20.5 2.09375H22.5ZM22.5 10.8438V2.09375H20.5V10.8438H22.5ZM21.8868 12.3243C22.2794 11.9316 22.5 11.399 22.5 10.8438H20.5C20.5 10.8686 20.4901 10.8925 20.4725 10.91L21.8868 12.3243ZM20.4062 12.9375C20.9615 12.9375 21.4941 12.7169 21.8868 12.3243L20.4725 10.91C20.455 10.9276 20.4311 10.9375 20.4062 10.9375V12.9375ZM18.9257 12.3243C19.3184 12.7169 19.851 12.9375 20.4062 12.9375V10.9375C20.3814 10.9375 20.3575 10.9276 20.34 10.91L18.9257 12.3243ZM18.3125 10.8438C18.3125 11.399 18.5331 11.9316 18.9257 12.3243L20.34 10.91C20.3224 10.8925 20.3125 10.8686 20.3125 10.8438H18.3125ZM18.3125 2.09375V10.8438H20.3125V2.09375H18.3125ZM18.9257 0.613245C18.5331 1.0059 18.3125 1.53846 18.3125 2.09375H20.3125C20.3125 2.06888 20.3224 2.04504 20.34 2.02746L18.9257 0.613245ZM20.4062 0C19.851 0 19.3184 0.22059 18.9257 0.613245L20.34 2.02746C20.3575 2.00988 20.3814 2 20.4062 2V0ZM21.8868 0.613245C21.4941 0.22059 20.9615 0 20.4062 0V2C20.4311 2 20.455 2.00988 20.4725 2.02746L21.8868 0.613245ZM57.5938 12.9375C58.1491 12.9375 58.6816 12.7169 59.0743 12.3243L57.66 10.91C57.6425 10.9276 57.6186 10.9375 57.5938 10.9375V12.9375ZM56.1132 12.3243C56.5059 12.7169 57.0384 12.9375 57.5938 12.9375V10.9375C57.5689 10.9375 57.545 10.9276 57.5275 10.91L56.1132 12.3243ZM55.5 10.8438C55.5 11.399 55.7206 11.9316 56.1132 12.3243L57.5275 10.91C57.5099 10.8925 57.5 10.8686 57.5 10.8438H55.5ZM55.5 2.09375V10.8438H57.5V2.09375H55.5ZM56.1132 0.613248C55.7206 1.0059 55.5 1.53845 55.5 2.09375H57.5C57.5 2.06889 57.5099 2.04504 57.5275 2.02746L56.1132 0.613248ZM57.5938 0C57.0385 0 56.5059 0.220592 56.1132 0.613241L57.5275 2.02746C57.545 2.00988 57.5689 2 57.5938 2V0ZM59.0743 0.613241C58.6816 0.220592 58.149 0 57.5938 0V2C57.6186 2 57.6425 2.00988 57.66 2.02746L59.0743 0.613241ZM59.6875 2.09375C59.6875 1.53845 59.4669 1.0059 59.0743 0.613248L57.66 2.02746C57.6776 2.04504 57.6875 2.06889 57.6875 2.09375H59.6875ZM59.6875 10.8438V2.09375H57.6875V10.8438H59.6875ZM59.0743 12.3243C59.4669 11.9316 59.6875 11.399 59.6875 10.8438H57.6875C57.6875 10.8686 57.6776 10.8925 57.66 10.91L59.0743 12.3243ZM11.59 52.34C11.6075 52.3224 11.6314 52.3125 11.6562 52.3125V50.3125C11.101 50.3125 10.5684 50.5331 10.1757 50.9257L11.59 52.34ZM11.5625 52.4062C11.5625 52.3814 11.5724 52.3575 11.59 52.34L10.1757 50.9257C9.78309 51.3184 9.5625 51.8509 9.5625 52.4062H11.5625ZM11.59 52.4725C11.5724 52.455 11.5625 52.4311 11.5625 52.4062H9.5625C9.5625 52.9616 9.78309 53.4941 10.1757 53.8868L11.59 52.4725ZM11.6562 52.5C11.6314 52.5 11.6075 52.4901 11.59 52.4725L10.1757 53.8868C10.5684 54.2794 11.101 54.5 11.6562 54.5V52.5ZM14.9375 52.5H11.6562V54.5H14.9375V52.5ZM15.9375 61.1562V53.5H13.9375V61.1562H15.9375ZM15.965 61.2225C15.9474 61.205 15.9375 61.1811 15.9375 61.1562H13.9375C13.9375 61.7116 14.1581 62.2441 14.5507 62.6368L15.965 61.2225ZM16.0312 61.25C16.0064 61.25 15.9825 61.2401 15.965 61.2225L14.5507 62.6368C14.9434 63.0294 15.476 63.25 16.0312 63.25V61.25ZM16.0975 61.2225C16.08 61.2401 16.0561 61.25 16.0312 61.25V63.25C16.5865 63.25 17.1191 63.0294 17.5118 62.6368L16.0975 61.2225ZM16.125 61.1562C16.125 61.1811 16.1151 61.205 16.0975 61.2225L17.5118 62.6368C17.9044 62.2441 18.125 61.7116 18.125 61.1562H16.125ZM16.125 53.5V61.1562H18.125V53.5H16.125ZM30.25 52.5H17.125V54.5H30.25V52.5ZM31.25 61.1562V53.5H29.25V61.1562H31.25ZM31.2775 61.2225C31.2599 61.205 31.25 61.1811 31.25 61.1562H29.25C29.25 61.7115 29.4706 62.2441 29.8632 62.6368L31.2775 61.2225ZM31.3438 61.25C31.3189 61.25 31.295 61.2401 31.2775 61.2225L29.8632 62.6368C30.2559 63.0294 30.7885 63.25 31.3438 63.25V61.25ZM31.41 61.2225C31.3925 61.2401 31.3686 61.25 31.3438 61.25V63.25C31.899 63.25 32.4316 63.0294 32.8243 62.6368L31.41 61.2225ZM31.4375 61.1562C31.4375 61.1811 31.4276 61.205 31.41 61.2225L32.8243 62.6368C33.2169 62.2441 33.4375 61.7115 33.4375 61.1562H31.4375ZM31.4375 53.5V61.1562H33.4375V53.5H31.4375ZM45.5625 52.5H32.4375V54.5H45.5625V52.5ZM46.5625 61.1562V53.5H44.5625V61.1562H46.5625ZM46.59 61.2225C46.5724 61.205 46.5625 61.1811 46.5625 61.1562H44.5625C44.5625 61.7116 44.7831 62.2441 45.1757 62.6367L46.59 61.2225ZM46.6562 61.25C46.6314 61.25 46.6075 61.2401 46.59 61.2225L45.1758 62.6368C45.5684 63.0294 46.1009 63.25 46.6562 63.25V61.25ZM46.7225 61.2225C46.705 61.2401 46.6811 61.25 46.6562 61.25V63.25C47.2116 63.25 47.7441 63.0294 48.1367 62.6368L46.7225 61.2225ZM46.75 61.1562C46.75 61.1811 46.7401 61.205 46.7225 61.2225L48.1368 62.6367C48.5294 62.2441 48.75 61.7116 48.75 61.1562H46.75ZM46.75 53.5V61.1562H48.75V53.5H46.75ZM60.875 52.5H47.75V54.5H60.875V52.5ZM61.875 61.1562V53.5H59.875V61.1562H61.875ZM61.9025 61.2225C61.8849 61.205 61.875 61.1811 61.875 61.1562H59.875C59.875 61.7116 60.0956 62.2441 60.4882 62.6367L61.9025 61.2225ZM61.9688 61.25C61.9439 61.25 61.92 61.2401 61.9025 61.2225L60.4883 62.6368C60.8809 63.0294 61.4134 63.25 61.9688 63.25V61.25ZM62.035 61.2225C62.0175 61.2401 61.9936 61.25 61.9688 61.25V63.25C62.5241 63.25 63.0566 63.0294 63.4492 62.6368L62.035 61.2225ZM62.0625 61.1562C62.0625 61.1811 62.0526 61.205 62.035 61.2225L63.4493 62.6367C63.8419 62.2441 64.0625 61.7116 64.0625 61.1562H62.0625ZM62.0625 53.5V61.1562H64.0625V53.5H62.0625ZM66.3438 52.5H63.0625V54.5H66.3438V52.5ZM66.41 52.4725C66.3925 52.4901 66.3686 52.5 66.3438 52.5V54.5C66.899 54.5 67.4316 54.2794 67.8243 53.8868L66.41 52.4725ZM66.4375 52.4062C66.4375 52.4311 66.4276 52.455 66.41 52.4725L67.8243 53.8867C68.2169 53.4941 68.4375 52.9616 68.4375 52.4062H66.4375ZM66.41 52.34C66.4276 52.3575 66.4375 52.3814 66.4375 52.4062H68.4375C68.4375 51.8509 68.2169 51.3184 67.8243 50.9258L66.41 52.34ZM66.3438 52.3125C66.3686 52.3125 66.3925 52.3224 66.41 52.34L67.8243 50.9257C67.4316 50.5331 66.899 50.3125 66.3438 50.3125V52.3125ZM63.0625 52.3125H66.3438V50.3125H63.0625V52.3125ZM62.0625 40.375V51.3125H64.0625V40.375H62.0625ZM66.3438 39.375H63.0625V41.375H66.3438V39.375ZM66.41 39.3475C66.3925 39.3651 66.3686 39.375 66.3438 39.375V41.375C66.899 41.375 67.4316 41.1544 67.8243 40.7618L66.41 39.3475ZM66.4375 39.2812C66.4375 39.3061 66.4276 39.33 66.41 39.3475L67.8243 40.7617C68.2169 40.3691 68.4375 39.8366 68.4375 39.2812H66.4375ZM66.41 39.215C66.4276 39.2325 66.4375 39.2564 66.4375 39.2812H68.4375C68.4375 38.7259 68.2169 38.1934 67.8243 37.8008L66.41 39.215ZM66.3438 39.1875C66.3686 39.1875 66.3925 39.1974 66.41 39.215L67.8243 37.8007C67.4316 37.4081 66.899 37.1875 66.3438 37.1875V39.1875ZM63.0625 39.1875H66.3438V37.1875H63.0625V39.1875ZM62.0625 28.3438V38.1875H64.0625V28.3438H62.0625ZM62.035 28.2775C62.0526 28.295 62.0625 28.3189 62.0625 28.3438H64.0625C64.0625 27.7885 63.8419 27.2559 63.4493 26.8632L62.035 28.2775ZM61.9688 28.25C61.9936 28.25 62.0175 28.2599 62.035 28.2775L63.4493 26.8632C63.0566 26.4706 62.524 26.25 61.9688 26.25V28.25ZM61.9025 28.2775C61.92 28.2599 61.9439 28.25 61.9688 28.25V26.25C61.4135 26.25 60.8809 26.4706 60.4882 26.8632L61.9025 28.2775ZM61.875 28.3438C61.875 28.3189 61.8849 28.295 61.9025 28.2775L60.4882 26.8632C60.0956 27.2559 59.875 27.7885 59.875 28.3438H61.875ZM61.875 38.1875V28.3438H59.875V38.1875H61.875ZM47.75 39.1875H60.875V37.1875H47.75V39.1875ZM46.75 28.3438V38.1875H48.75V28.3438H46.75ZM46.7225 28.2775C46.7401 28.295 46.75 28.3189 46.75 28.3438H48.75C48.75 27.7885 48.5294 27.2559 48.1368 26.8632L46.7225 28.2775ZM46.6562 28.25C46.6811 28.25 46.705 28.2599 46.7225 28.2775L48.1368 26.8632C47.7441 26.4706 47.2115 26.25 46.6562 26.25V28.25ZM46.59 28.2775C46.6075 28.2599 46.6314 28.25 46.6562 28.25V26.25C46.101 26.25 45.5684 26.4706 45.1757 26.8632L46.59 28.2775ZM46.5625 28.3438C46.5625 28.3189 46.5724 28.295 46.59 28.2775L45.1757 26.8632C44.7831 27.2559 44.5625 27.7885 44.5625 28.3438H46.5625ZM46.5625 38.1875V28.3438H44.5625V38.1875H46.5625ZM32.4375 39.1875H45.5625V37.1875H32.4375V39.1875ZM31.4375 28.3438V38.1875H33.4375V28.3438H31.4375ZM31.41 28.2775C31.4276 28.295 31.4375 28.3189 31.4375 28.3438H33.4375C33.4375 27.7885 33.2169 27.2559 32.8243 26.8632L31.41 28.2775ZM31.3438 28.25C31.3686 28.25 31.3925 28.2599 31.41 28.2775L32.8243 26.8632C32.4316 26.4706 31.899 26.25 31.3438 26.25V28.25ZM31.2775 28.2775C31.295 28.2599 31.3189 28.25 31.3438 28.25V26.25C30.7885 26.25 30.2559 26.4706 29.8632 26.8632L31.2775 28.2775ZM31.25 28.3438C31.25 28.3189 31.2599 28.295 31.2775 28.2775L29.8632 26.8632C29.4706 27.2559 29.25 27.7885 29.25 28.3438H31.25ZM31.25 38.1875V28.3438H29.25V38.1875H31.25ZM17.125 39.1875H30.25V37.1875H17.125V39.1875ZM16.125 28.3438V38.1875H18.125V28.3438H16.125ZM16.0975 28.2775C16.1151 28.295 16.125 28.3189 16.125 28.3438H18.125C18.125 27.7885 17.9044 27.2559 17.5118 26.8632L16.0975 28.2775ZM16.0312 28.25C16.0561 28.25 16.08 28.2599 16.0975 28.2775L17.5118 26.8632C17.1191 26.4706 16.5865 26.25 16.0312 26.25V28.25ZM15.965 28.2775C15.9825 28.2599 16.0064 28.25 16.0312 28.25V26.25C15.476 26.25 14.9434 26.4706 14.5507 26.8632L15.965 28.2775ZM15.9375 28.3438C15.9375 28.3189 15.9474 28.295 15.965 28.2775L14.5507 26.8632C14.1581 27.2559 13.9375 27.7885 13.9375 28.3438H15.9375ZM15.9375 38.1875V28.3438H13.9375V38.1875H15.9375ZM11.6562 39.1875H14.9375V37.1875H11.6562V39.1875ZM11.59 39.215C11.6075 39.1974 11.6314 39.1875 11.6562 39.1875V37.1875C11.101 37.1875 10.5684 37.4081 10.1757 37.8007L11.59 39.215ZM11.5625 39.2812C11.5625 39.2564 11.5724 39.2325 11.59 39.215L10.1757 37.8007C9.78309 38.1934 9.5625 38.7259 9.5625 39.2812H11.5625ZM11.59 39.3475C11.5724 39.33 11.5625 39.3061 11.5625 39.2812H9.5625C9.5625 39.8366 9.78309 40.3691 10.1757 40.7618L11.59 39.3475ZM11.6562 39.375C11.6314 39.375 11.6075 39.3651 11.59 39.3475L10.1757 40.7618C10.5684 41.1544 11.101 41.375 11.6562 41.375V39.375ZM14.9375 39.375H11.6562V41.375H14.9375V39.375ZM15.9375 51.3125V40.375H13.9375V51.3125H15.9375ZM11.6562 52.3125H14.9375V50.3125H11.6562V52.3125ZM61.875 51.3125V40.375H59.875V51.3125H61.875ZM47.75 52.3125H60.875V50.3125H47.75V52.3125ZM46.75 40.375V51.3125H48.75V40.375H46.75ZM60.875 39.375H47.75V41.375H60.875V39.375ZM46.5625 51.3125V40.375H44.5625V51.3125H46.5625ZM32.4375 52.3125H45.5625V50.3125H32.4375V52.3125ZM31.4375 40.375V51.3125H33.4375V40.375H31.4375ZM45.5625 39.375H32.4375V41.375H45.5625V39.375ZM30.25 39.375H17.125V41.375H30.25V39.375ZM31.25 51.3125V40.375H29.25V51.3125H31.25ZM17.125 52.3125H30.25V50.3125H17.125V52.3125ZM16.125 40.375V51.3125H18.125V40.375H16.125ZM73.4531 6.5625H64.1562V8.5625H73.4531V6.5625ZM75 8.65625C75 8.06148 74.9155 7.48197 74.5689 7.06238C74.1398 6.54284 73.5648 6.5625 73.4531 6.5625V8.5625C73.5105 8.5625 73.4368 8.56743 73.3457 8.54157C73.2932 8.52665 73.2331 8.50214 73.1726 8.46362C73.1117 8.42486 73.0632 8.37997 73.0269 8.33606C72.9573 8.25172 72.9551 8.19898 72.9682 8.25423C72.9811 8.3089 73 8.43153 73 8.65625H75ZM75 18.5V8.65625H73V18.5H75ZM4 19.5H74V17.5H4V19.5ZM3 8.65625V18.5H5V8.65625H3ZM3.61324 7.17575C3.22059 7.5684 3 8.10095 3 8.65625H5C5 8.63139 5.00988 8.60754 5.02746 8.58996L3.61324 7.17575ZM5.09375 6.5625C4.53845 6.5625 4.0059 6.78309 3.61325 7.17575L5.02746 8.58996C5.04504 8.57238 5.06889 8.5625 5.09375 8.5625V6.5625ZM13.8438 6.5625H5.09375V8.5625H13.8438V6.5625ZM13.91 6.53504C13.8925 6.55262 13.8686 6.5625 13.8438 6.5625V8.5625C14.399 8.5625 14.9316 8.34191 15.3243 7.94925L13.91 6.53504ZM13.9375 6.46875C13.9375 6.49361 13.9276 6.51746 13.91 6.53504L15.3243 7.94925C15.7169 7.5566 15.9375 7.02405 15.9375 6.46875H13.9375ZM13.91 6.40246C13.9276 6.42004 13.9375 6.44389 13.9375 6.46875H15.9375C15.9375 5.91345 15.7169 5.3809 15.3243 4.98825L13.91 6.40246ZM13.8438 6.375C13.8686 6.375 13.8925 6.38488 13.91 6.40246L15.3243 4.98825C14.9316 4.59559 14.399 4.375 13.8438 4.375V6.375ZM5.09375 6.375H13.8438V4.375H5.09375V6.375ZM2.8125 8.65625C2.8125 7.39947 3.83697 6.375 5.09375 6.375V4.375C2.7324 4.375 0.8125 6.2949 0.8125 8.65625H2.8125ZM2.8125 19.5938V8.65625H0.8125V19.5938H2.8125ZM2.83996 19.66C2.82238 19.6425 2.8125 19.6186 2.8125 19.5938H0.8125C0.8125 20.149 1.03309 20.6816 1.42574 21.0743L2.83996 19.66ZM2.90625 19.6875C2.88138 19.6875 2.85754 19.6776 2.83996 19.66L1.42574 21.0743C1.8184 21.4669 2.35096 21.6875 2.90625 21.6875V19.6875ZM75.0938 19.6875H2.90625V21.6875H75.0938V19.6875ZM75.16 19.66C75.1425 19.6776 75.1186 19.6875 75.0938 19.6875V21.6875C75.649 21.6875 76.1816 21.4669 76.5743 21.0743L75.16 19.66ZM75.1875 19.5938C75.1875 19.6186 75.1776 19.6425 75.16 19.66L76.5743 21.0743C76.9669 20.6816 77.1875 20.149 77.1875 19.5938H75.1875ZM75.1875 8.65625V19.5938H77.1875V8.65625H75.1875ZM73.4531 6.375C73.9025 6.375 74.313 6.52012 74.609 6.81584C74.8971 7.10355 75.1875 7.64488 75.1875 8.65625H77.1875C77.1875 7.24824 76.7714 6.14895 76.0225 5.40088C75.2817 4.66082 74.325 4.375 73.4531 4.375V6.375ZM64.1562 6.375H73.4531V4.375H64.1562V6.375ZM64.09 6.40246C64.1075 6.38488 64.1314 6.375 64.1562 6.375V4.375C63.6009 4.375 63.0684 4.59559 62.6757 4.98824L64.09 6.40246ZM64.0625 6.46875C64.0625 6.44389 64.0724 6.42004 64.09 6.40246L62.6757 4.98825C62.2831 5.3809 62.0625 5.91345 62.0625 6.46875H64.0625ZM64.09 6.53504C64.0724 6.51746 64.0625 6.49361 64.0625 6.46875H62.0625C62.0625 7.02405 62.2831 7.5566 62.6757 7.94925L64.09 6.53504ZM64.1562 6.5625C64.1314 6.5625 64.1075 6.55262 64.09 6.53504L62.6757 7.94926C63.0684 8.34191 63.6009 8.5625 64.1562 8.5625V6.5625ZM75.1875 26.1562V67.7188H77.1875V26.1562H75.1875ZM75.16 26.09C75.1776 26.1075 75.1875 26.1314 75.1875 26.1562H77.1875C77.1875 25.601 76.9669 25.0684 76.5743 24.6757L75.16 26.09ZM75.0938 26.0625C75.1186 26.0625 75.1425 26.0724 75.16 26.09L76.5743 24.6757C76.1816 24.2831 75.649 24.0625 75.0938 24.0625V26.0625ZM75.0275 26.09C75.045 26.0724 75.0689 26.0625 75.0938 26.0625V24.0625C74.5385 24.0625 74.0059 24.2831 73.6132 24.6757L75.0275 26.09ZM75 26.1562C75 26.1314 75.0099 26.1075 75.0275 26.09L73.6132 24.6757C73.2206 25.0684 73 25.601 73 26.1562H75ZM75 67.7188V26.1562H73V67.7188H75ZM74.3868 69.1993C74.7794 68.8066 75 68.274 75 67.7188H73C73 67.7436 72.9901 67.7675 72.9725 67.785L74.3868 69.1993ZM72.9062 69.8125C73.4615 69.8125 73.9941 69.5919 74.3868 69.1993L72.9725 67.785C72.955 67.8026 72.9311 67.8125 72.9062 67.8125V69.8125ZM5.09375 69.8125H72.9062V67.8125H5.09375V69.8125ZM3.61325 69.1993C4.0059 69.5919 4.53845 69.8125 5.09375 69.8125V67.8125C5.06889 67.8125 5.04504 67.8026 5.02746 67.785L3.61325 69.1993ZM3 67.7188C3 68.274 3.22059 68.8066 3.61325 69.1993L5.02746 67.785C5.00988 67.7675 5 67.7436 5 67.7188H3ZM3 26.1562V67.7188H5V26.1562H3ZM2.97254 26.09C2.99012 26.1075 3 26.1314 3 26.1562H5C5 25.601 4.77941 25.0684 4.38675 24.6757L2.97254 26.09ZM2.90625 26.0625C2.93112 26.0625 2.95496 26.0724 2.97254 26.09L4.38676 24.6757C3.9941 24.2831 3.46154 24.0625 2.90625 24.0625V26.0625ZM2.83996 26.09C2.85754 26.0724 2.88138 26.0625 2.90625 26.0625V24.0625C2.35096 24.0625 1.8184 24.2831 1.42574 24.6757L2.83996 26.09ZM2.8125 26.1562C2.8125 26.1314 2.82238 26.1075 2.83996 26.09L1.42574 24.6757C1.03309 25.0684 0.8125 25.601 0.8125 26.1562H2.8125ZM2.8125 67.7188V26.1562H0.8125V67.7188H2.8125ZM5.09375 70C3.83697 70 2.8125 68.9755 2.8125 67.7188H0.8125C0.8125 70.0801 2.7324 72 5.09375 72V70ZM72.9062 70H5.09375V72H72.9062V70ZM75.1875 67.7188C75.1875 68.9755 74.163 70 72.9062 70V72C75.2676 72 77.1875 70.0801 77.1875 67.7188H75.1875Z" fill="#4C4C4E" mask="url(#path-1-outside-1_251_35)"/>
</svg>
