<svg width="90" height="90" viewBox="0 0 90 90" fill="none" xmlns="http://www.w3.org/2000/svg">
<path d="M24.75 6.75C22.9598 6.75 21.2429 7.46116 19.977 8.72703C18.7112 9.9929 18 11.7098 18 13.5C18 15.2902 18.7112 17.0071 19.977 18.273C21.2429 19.5388 22.9598 20.25 24.75 20.25C26.5402 20.25 28.2571 19.5388 29.523 18.273C30.7888 17.0071 31.5 15.2902 31.5 13.5C31.5 11.7098 30.7888 9.9929 29.523 8.72703C28.2571 7.46116 26.5402 6.75 24.75 6.75ZM11.25 13.5C11.25 9.91958 12.6723 6.4858 15.2041 3.95406C17.7358 1.42232 21.1696 0 24.75 0C28.3304 0 31.7642 1.42232 34.2959 3.95406C36.8277 6.4858 38.25 9.91958 38.25 13.5C38.25 17.0804 36.8277 20.5142 34.2959 23.0459C31.7642 25.5777 28.3304 27 24.75 27C21.1696 27 17.7358 25.5777 15.2041 23.0459C12.6723 20.5142 11.25 17.0804 11.25 13.5ZM7.956 31.5C3.555 31.5 0 35.0595 0 39.456V41.076C0 42.0075 2.68221e-07 47.412 3.15 52.6635C5.616 56.7585 9.7965 60.435 16.5375 62.082C17.4608 59.6277 19.1327 57.526 21.3165 56.0745C14.103 55.305 10.692 52.101 8.9415 49.1895C6.7635 45.5625 6.75 41.7015 6.75 41.0625V39.456C6.75 38.79 7.29 38.25 7.956 38.25H27.135C27.4322 35.8704 28.2051 33.5749 29.4075 31.5H7.956ZM60.5925 31.5C61.767 33.534 62.559 35.8155 62.8605 38.25H82.044C82.71 38.25 83.25 38.79 83.25 39.456V41.0625C83.25 41.7015 83.2365 45.5625 81.0585 49.185C79.308 52.101 75.897 55.305 68.6835 56.0745C70.8435 57.5145 72.5355 59.6115 73.4625 62.082C80.2035 60.435 84.384 56.7585 86.8455 52.6635C90 47.412 90 42.012 90 41.0715V39.4515C90 35.064 86.4405 31.5 82.044 31.5H60.5925ZM58.5 13.5C58.5 11.7098 59.2112 9.9929 60.477 8.72703C61.7429 7.46116 63.4598 6.75 65.25 6.75C67.0402 6.75 68.7571 7.46116 70.023 8.72703C71.2888 9.9929 72 11.7098 72 13.5C72 15.2902 71.2888 17.0071 70.023 18.273C68.7571 19.5388 67.0402 20.25 65.25 20.25C63.4598 20.25 61.7429 19.5388 60.477 18.273C59.2112 17.0071 58.5 15.2902 58.5 13.5ZM65.25 0C61.6696 0 58.2358 1.42232 55.7041 3.95406C53.1723 6.4858 51.75 9.91958 51.75 13.5C51.75 17.0804 53.1723 20.5142 55.7041 23.0459C58.2358 25.5777 61.6696 27 65.25 27C68.8304 27 72.2642 25.5777 74.7959 23.0459C77.3277 20.5142 78.75 17.0804 78.75 13.5C78.75 9.91958 77.3277 6.4858 74.7959 3.95406C72.2642 1.42232 68.8304 0 65.25 0ZM45 33.75C44.1136 33.75 43.2358 33.9246 42.4169 34.2638C41.5979 34.603 40.8538 35.1002 40.227 35.727C39.6002 36.3538 39.103 37.0979 38.7638 37.9169C38.4246 38.7358 38.25 39.6136 38.25 40.5C38.25 41.3864 38.4246 42.2642 38.7638 43.0831C39.103 43.9021 39.6002 44.6462 40.227 45.273C40.8538 45.8998 41.5979 46.397 42.4169 46.7362C43.2358 47.0754 44.1136 47.25 45 47.25C46.7902 47.25 48.5071 46.5388 49.773 45.273C51.0388 44.0071 51.75 42.2902 51.75 40.5C51.75 38.7098 51.0388 36.9929 49.773 35.727C48.5071 34.4612 46.7902 33.75 45 33.75ZM31.5 40.5C31.5 36.9196 32.9223 33.4858 35.4541 30.9541C37.9858 28.4223 41.4196 27 45 27C48.5804 27 52.0142 28.4223 54.5459 30.9541C57.0777 33.4858 58.5 36.9196 58.5 40.5C58.5 44.0804 57.0777 47.5142 54.5459 50.0459C52.0142 52.5777 48.5804 54 45 54C41.4196 54 37.9858 52.5777 35.4541 50.0459C32.9223 47.5142 31.5 44.0804 31.5 40.5ZM20.25 66.456C20.25 62.055 23.8095 58.5 28.206 58.5H61.794C66.1905 58.5 69.75 62.0595 69.75 66.456V68.076C69.75 69.0075 69.75 74.412 66.6 79.6635C63.2565 85.2165 56.7585 90 45 90C33.2415 90 26.739 85.2165 23.4 79.6635C20.25 74.412 20.25 69.012 20.25 68.0715V66.456ZM28.206 65.25C28.0476 65.25 27.8908 65.2812 27.7445 65.3418C27.5982 65.4024 27.4652 65.4912 27.3532 65.6032C27.2412 65.7152 27.1524 65.8482 27.0918 65.9945C27.0312 66.1408 27 66.2976 27 66.456V68.0625C27 68.7015 27.0135 72.5625 29.1915 76.185C31.1985 79.5285 35.388 83.25 45 83.25C54.612 83.25 58.8015 79.5285 60.8085 76.185C62.9865 72.5625 63 68.7015 63 68.0625V66.456C63 66.1361 62.8729 65.8294 62.6468 65.6032C62.4206 65.3771 62.1139 65.25 61.794 65.25H28.206Z" fill="black"/>
</svg>
