<svg width="98" height="92" viewBox="0 0 98 92" fill="none" xmlns="http://www.w3.org/2000/svg">
<mask id="path-1-outside-1_251_186" maskUnits="userSpaceOnUse" x="0.1875" y="0" width="98" height="92" fill="black">
<rect fill="white" x="0.1875" width="98" height="92"/>
<path fill-rule="evenodd" clip-rule="evenodd" d="M65.4631 9.02562C65.1994 9.28934 64.8417 9.4375 64.4688 9.4375H33.5312C33.1583 9.4375 32.8006 9.28934 32.5369 9.02562C32.2732 8.7619 32.125 8.40421 32.125 8.03125C32.125 7.65829 32.2732 7.3006 32.5369 7.03688C32.8006 6.77316 33.1583 6.625 33.5312 6.625H64.4688C64.8417 6.625 65.1994 6.77316 65.4631 7.03688C65.7268 7.3006 65.875 7.65829 65.875 8.03125C65.875 8.40421 65.7268 8.7619 65.4631 9.02562ZM26.0881 1.41188C26.3518 1.6756 26.5 2.03329 26.5 2.40625V13.6562C26.5 14.0292 26.3518 14.3869 26.0881 14.6506C25.8244 14.9143 25.4667 15.0625 25.0938 15.0625C24.7208 15.0625 24.3631 14.9143 24.0994 14.6506C23.8357 14.3869 23.6875 14.0292 23.6875 13.6562V2.40625C23.6875 2.03329 23.8357 1.6756 24.0994 1.41188C24.3631 1.14816 24.7208 1 25.0938 1C25.4667 1 25.8244 1.14816 26.0881 1.41188ZM73.9006 14.6506C73.6369 14.9143 73.2792 15.0625 72.9062 15.0625C72.5333 15.0625 72.1756 14.9143 71.9119 14.6506C71.6482 14.3869 71.5 14.0292 71.5 13.6562V2.40625C71.5 2.03329 71.6482 1.6756 71.9119 1.41188C72.1756 1.14816 72.5333 1 72.9062 1C73.2792 1 73.6369 1.14816 73.9006 1.41188C74.1643 1.6756 74.3125 2.03329 74.3125 2.40625V13.6562C74.3125 14.0292 74.1643 14.3869 73.9006 14.6506ZM13.8438 65.6875C13.4708 65.6875 13.1131 65.8357 12.8494 66.0994C12.5857 66.3631 12.4375 66.7208 12.4375 67.0938C12.4375 67.4667 12.5857 67.8244 12.8494 68.0881C13.1131 68.3518 13.4708 68.5 13.8438 68.5H18.0625V78.3438C18.0625 78.7167 18.2107 79.0744 18.4744 79.3381C18.7381 79.6018 19.0958 79.75 19.4688 79.75C19.8417 79.75 20.1994 79.6018 20.4631 79.3381C20.7268 79.0744 20.875 78.7167 20.875 78.3438V68.5H37.75V78.3438C37.75 78.7167 37.8982 79.0744 38.1619 79.3381C38.4256 79.6018 38.7833 79.75 39.1562 79.75C39.5292 79.75 39.8869 79.6018 40.1506 79.3381C40.4143 79.0744 40.5625 78.7167 40.5625 78.3438V68.5H57.4375V78.3438C57.4375 78.7167 57.5857 79.0744 57.8494 79.3381C58.1131 79.6018 58.4708 79.75 58.8438 79.75C59.2167 79.75 59.5744 79.6018 59.8381 79.3381C60.1018 79.0744 60.25 78.7167 60.25 78.3438V68.5H77.125V78.3438C77.125 78.7167 77.2732 79.0744 77.5369 79.3381C77.8006 79.6018 78.1583 79.75 78.5312 79.75C78.9042 79.75 79.2619 79.6018 79.5256 79.3381C79.7893 79.0744 79.9375 78.7167 79.9375 78.3438V68.5H84.1562C84.5292 68.5 84.8869 68.3518 85.1506 68.0881C85.4143 67.8244 85.5625 67.4667 85.5625 67.0938C85.5625 66.7208 85.4143 66.3631 85.1506 66.0994C84.8869 65.8357 84.5292 65.6875 84.1562 65.6875H79.9375V51.625H84.1562C84.5292 51.625 84.8869 51.4768 85.1506 51.2131C85.4143 50.9494 85.5625 50.5917 85.5625 50.2188C85.5625 49.8458 85.4143 49.4881 85.1506 49.2244C84.8869 48.9607 84.5292 48.8125 84.1562 48.8125H79.9375V36.1562C79.9375 35.7833 79.7893 35.4256 79.5256 35.1619C79.2619 34.8982 78.9042 34.75 78.5312 34.75C78.1583 34.75 77.8006 34.8982 77.5369 35.1619C77.2732 35.4256 77.125 35.7833 77.125 36.1562V48.8125H60.25V36.1562C60.25 35.7833 60.1018 35.4256 59.8381 35.1619C59.5744 34.8982 59.2167 34.75 58.8438 34.75C58.4708 34.75 58.1131 34.8982 57.8494 35.1619C57.5857 35.4256 57.4375 35.7833 57.4375 36.1562V48.8125H40.5625V36.1562C40.5625 35.7833 40.4143 35.4256 40.1506 35.1619C39.8869 34.8982 39.5292 34.75 39.1562 34.75C38.7833 34.75 38.4256 34.8982 38.1619 35.1619C37.8982 35.4256 37.75 35.7833 37.75 36.1562V48.8125H20.875V36.1562C20.875 35.7833 20.7268 35.4256 20.4631 35.1619C20.1994 34.8982 19.8417 34.75 19.4688 34.75C19.0958 34.75 18.7381 34.8982 18.4744 35.1619C18.2107 35.4256 18.0625 35.7833 18.0625 36.1562V48.8125H13.8438C13.4708 48.8125 13.1131 48.9607 12.8494 49.2244C12.5857 49.4881 12.4375 49.8458 12.4375 50.2188C12.4375 50.5917 12.5857 50.9494 12.8494 51.2131C13.1131 51.4768 13.4708 51.625 13.8438 51.625H18.0625V65.6875H13.8438ZM77.125 51.625V65.6875H60.25V51.625H77.125ZM57.4375 51.625V65.6875H40.5625V51.625H57.4375ZM20.875 51.625H37.75V65.6875H20.875V51.625ZM81.3438 9.4375H93.2969C93.5416 9.4375 94 9.4375 94 10.8438V23.5H4V10.8438C4 10.4708 4.14816 10.1131 4.41188 9.84938C4.6756 9.58566 5.03329 9.4375 5.40625 9.4375H16.6562C17.0292 9.4375 17.3869 9.28934 17.6506 9.02562C17.9143 8.7619 18.0625 8.40421 18.0625 8.03125C18.0625 7.65829 17.9143 7.3006 17.6506 7.03688C17.3869 6.77316 17.0292 6.625 16.6562 6.625H5.40625C3.08031 6.625 1.1875 8.51781 1.1875 10.8438V24.9062C1.1875 25.2792 1.33566 25.6369 1.59938 25.9006C1.8631 26.1643 2.22079 26.3125 2.59375 26.3125H95.4062C95.7792 26.3125 96.1369 26.1643 96.4006 25.9006C96.6643 25.6369 96.8125 25.2792 96.8125 24.9062V10.8438C96.8125 7.73313 94.9956 6.625 93.2969 6.625H81.3438C80.9708 6.625 80.6131 6.77316 80.3494 7.03688C80.0857 7.3006 79.9375 7.65829 79.9375 8.03125C79.9375 8.40421 80.0857 8.7619 80.3494 9.02562C80.6131 9.28934 80.9708 9.4375 81.3438 9.4375ZM96.8125 86.7812V33.3438C96.8125 32.9708 96.6643 32.6131 96.4006 32.3494C96.1369 32.0857 95.7792 31.9375 95.4062 31.9375C95.0333 31.9375 94.6756 32.0857 94.4119 32.3494C94.1482 32.6131 94 32.9708 94 33.3438V86.7812C94 87.1542 93.8518 87.5119 93.5881 87.7756C93.3244 88.0393 92.9667 88.1875 92.5938 88.1875H5.40625C5.03329 88.1875 4.6756 88.0393 4.41188 87.7756C4.14816 87.5119 4 87.1542 4 86.7812V33.3438C4 32.9708 3.85184 32.6131 3.58812 32.3494C3.3244 32.0857 2.96671 31.9375 2.59375 31.9375C2.22079 31.9375 1.8631 32.0857 1.59938 32.3494C1.33566 32.6131 1.1875 32.9708 1.1875 33.3438V86.7812C1.1875 89.1072 3.08031 91 5.40625 91H92.5938C94.9197 91 96.8125 89.1072 96.8125 86.7812Z"/>
</mask>
<path fill-rule="evenodd" clip-rule="evenodd" d="M65.4631 9.02562C65.1994 9.28934 64.8417 9.4375 64.4688 9.4375H33.5312C33.1583 9.4375 32.8006 9.28934 32.5369 9.02562C32.2732 8.7619 32.125 8.40421 32.125 8.03125C32.125 7.65829 32.2732 7.3006 32.5369 7.03688C32.8006 6.77316 33.1583 6.625 33.5312 6.625H64.4688C64.8417 6.625 65.1994 6.77316 65.4631 7.03688C65.7268 7.3006 65.875 7.65829 65.875 8.03125C65.875 8.40421 65.7268 8.7619 65.4631 9.02562ZM26.0881 1.41188C26.3518 1.6756 26.5 2.03329 26.5 2.40625V13.6562C26.5 14.0292 26.3518 14.3869 26.0881 14.6506C25.8244 14.9143 25.4667 15.0625 25.0938 15.0625C24.7208 15.0625 24.3631 14.9143 24.0994 14.6506C23.8357 14.3869 23.6875 14.0292 23.6875 13.6562V2.40625C23.6875 2.03329 23.8357 1.6756 24.0994 1.41188C24.3631 1.14816 24.7208 1 25.0938 1C25.4667 1 25.8244 1.14816 26.0881 1.41188ZM73.9006 14.6506C73.6369 14.9143 73.2792 15.0625 72.9062 15.0625C72.5333 15.0625 72.1756 14.9143 71.9119 14.6506C71.6482 14.3869 71.5 14.0292 71.5 13.6562V2.40625C71.5 2.03329 71.6482 1.6756 71.9119 1.41188C72.1756 1.14816 72.5333 1 72.9062 1C73.2792 1 73.6369 1.14816 73.9006 1.41188C74.1643 1.6756 74.3125 2.03329 74.3125 2.40625V13.6562C74.3125 14.0292 74.1643 14.3869 73.9006 14.6506ZM13.8438 65.6875C13.4708 65.6875 13.1131 65.8357 12.8494 66.0994C12.5857 66.3631 12.4375 66.7208 12.4375 67.0938C12.4375 67.4667 12.5857 67.8244 12.8494 68.0881C13.1131 68.3518 13.4708 68.5 13.8438 68.5H18.0625V78.3438C18.0625 78.7167 18.2107 79.0744 18.4744 79.3381C18.7381 79.6018 19.0958 79.75 19.4688 79.75C19.8417 79.75 20.1994 79.6018 20.4631 79.3381C20.7268 79.0744 20.875 78.7167 20.875 78.3438V68.5H37.75V78.3438C37.75 78.7167 37.8982 79.0744 38.1619 79.3381C38.4256 79.6018 38.7833 79.75 39.1562 79.75C39.5292 79.75 39.8869 79.6018 40.1506 79.3381C40.4143 79.0744 40.5625 78.7167 40.5625 78.3438V68.5H57.4375V78.3438C57.4375 78.7167 57.5857 79.0744 57.8494 79.3381C58.1131 79.6018 58.4708 79.75 58.8438 79.75C59.2167 79.75 59.5744 79.6018 59.8381 79.3381C60.1018 79.0744 60.25 78.7167 60.25 78.3438V68.5H77.125V78.3438C77.125 78.7167 77.2732 79.0744 77.5369 79.3381C77.8006 79.6018 78.1583 79.75 78.5312 79.75C78.9042 79.75 79.2619 79.6018 79.5256 79.3381C79.7893 79.0744 79.9375 78.7167 79.9375 78.3438V68.5H84.1562C84.5292 68.5 84.8869 68.3518 85.1506 68.0881C85.4143 67.8244 85.5625 67.4667 85.5625 67.0938C85.5625 66.7208 85.4143 66.3631 85.1506 66.0994C84.8869 65.8357 84.5292 65.6875 84.1562 65.6875H79.9375V51.625H84.1562C84.5292 51.625 84.8869 51.4768 85.1506 51.2131C85.4143 50.9494 85.5625 50.5917 85.5625 50.2188C85.5625 49.8458 85.4143 49.4881 85.1506 49.2244C84.8869 48.9607 84.5292 48.8125 84.1562 48.8125H79.9375V36.1562C79.9375 35.7833 79.7893 35.4256 79.5256 35.1619C79.2619 34.8982 78.9042 34.75 78.5312 34.75C78.1583 34.75 77.8006 34.8982 77.5369 35.1619C77.2732 35.4256 77.125 35.7833 77.125 36.1562V48.8125H60.25V36.1562C60.25 35.7833 60.1018 35.4256 59.8381 35.1619C59.5744 34.8982 59.2167 34.75 58.8438 34.75C58.4708 34.75 58.1131 34.8982 57.8494 35.1619C57.5857 35.4256 57.4375 35.7833 57.4375 36.1562V48.8125H40.5625V36.1562C40.5625 35.7833 40.4143 35.4256 40.1506 35.1619C39.8869 34.8982 39.5292 34.75 39.1562 34.75C38.7833 34.75 38.4256 34.8982 38.1619 35.1619C37.8982 35.4256 37.75 35.7833 37.75 36.1562V48.8125H20.875V36.1562C20.875 35.7833 20.7268 35.4256 20.4631 35.1619C20.1994 34.8982 19.8417 34.75 19.4688 34.75C19.0958 34.75 18.7381 34.8982 18.4744 35.1619C18.2107 35.4256 18.0625 35.7833 18.0625 36.1562V48.8125H13.8438C13.4708 48.8125 13.1131 48.9607 12.8494 49.2244C12.5857 49.4881 12.4375 49.8458 12.4375 50.2188C12.4375 50.5917 12.5857 50.9494 12.8494 51.2131C13.1131 51.4768 13.4708 51.625 13.8438 51.625H18.0625V65.6875H13.8438ZM77.125 51.625V65.6875H60.25V51.625H77.125ZM57.4375 51.625V65.6875H40.5625V51.625H57.4375ZM20.875 51.625H37.75V65.6875H20.875V51.625ZM81.3438 9.4375H93.2969C93.5416 9.4375 94 9.4375 94 10.8438V23.5H4V10.8438C4 10.4708 4.14816 10.1131 4.41188 9.84938C4.6756 9.58566 5.03329 9.4375 5.40625 9.4375H16.6562C17.0292 9.4375 17.3869 9.28934 17.6506 9.02562C17.9143 8.7619 18.0625 8.40421 18.0625 8.03125C18.0625 7.65829 17.9143 7.3006 17.6506 7.03688C17.3869 6.77316 17.0292 6.625 16.6562 6.625H5.40625C3.08031 6.625 1.1875 8.51781 1.1875 10.8438V24.9062C1.1875 25.2792 1.33566 25.6369 1.59938 25.9006C1.8631 26.1643 2.22079 26.3125 2.59375 26.3125H95.4062C95.7792 26.3125 96.1369 26.1643 96.4006 25.9006C96.6643 25.6369 96.8125 25.2792 96.8125 24.9062V10.8438C96.8125 7.73313 94.9956 6.625 93.2969 6.625H81.3438C80.9708 6.625 80.6131 6.77316 80.3494 7.03688C80.0857 7.3006 79.9375 7.65829 79.9375 8.03125C79.9375 8.40421 80.0857 8.7619 80.3494 9.02562C80.6131 9.28934 80.9708 9.4375 81.3438 9.4375ZM96.8125 86.7812V33.3438C96.8125 32.9708 96.6643 32.6131 96.4006 32.3494C96.1369 32.0857 95.7792 31.9375 95.4062 31.9375C95.0333 31.9375 94.6756 32.0857 94.4119 32.3494C94.1482 32.6131 94 32.9708 94 33.3438V86.7812C94 87.1542 93.8518 87.5119 93.5881 87.7756C93.3244 88.0393 92.9667 88.1875 92.5938 88.1875H5.40625C5.03329 88.1875 4.6756 88.0393 4.41188 87.7756C4.14816 87.5119 4 87.1542 4 86.7812V33.3438C4 32.9708 3.85184 32.6131 3.58812 32.3494C3.3244 32.0857 2.96671 31.9375 2.59375 31.9375C2.22079 31.9375 1.8631 32.0857 1.59938 32.3494C1.33566 32.6131 1.1875 32.9708 1.1875 33.3438V86.7812C1.1875 89.1072 3.08031 91 5.40625 91H92.5938C94.9197 91 96.8125 89.1072 96.8125 86.7812Z" fill="black"/>
<path d="M65.4631 9.02562L64.756 8.31851V8.31851L65.4631 9.02562ZM32.5369 9.02562L33.244 8.31851V8.31851L32.5369 9.02562ZM26.0881 1.41188L25.381 2.11899L26.0881 1.41188ZM24.0994 1.41188L24.8065 2.11899L24.0994 1.41188ZM71.9119 1.41188L72.619 2.11899L72.619 2.11899L71.9119 1.41188ZM73.9006 1.41188L73.1935 2.11899L73.1935 2.11899L73.9006 1.41188ZM18.0625 68.5H19.0625V67.5H18.0625V68.5ZM18.4744 79.3381L17.7673 80.0452L17.7673 80.0452L18.4744 79.3381ZM20.4631 79.3381L21.1702 80.0452L21.1702 80.0452L20.4631 79.3381ZM20.875 68.5V67.5H19.875V68.5H20.875ZM37.75 68.5H38.75V67.5H37.75V68.5ZM38.1619 79.3381L38.869 78.631L38.869 78.631L38.1619 79.3381ZM40.1506 79.3381L39.4435 78.631L39.4435 78.631L40.1506 79.3381ZM40.5625 68.5V67.5H39.5625V68.5H40.5625ZM57.4375 68.5H58.4375V67.5H57.4375V68.5ZM57.8494 79.3381L58.5565 78.631L58.5565 78.631L57.8494 79.3381ZM59.8381 79.3381L59.131 78.631L59.131 78.631L59.8381 79.3381ZM60.25 68.5V67.5H59.25V68.5H60.25ZM77.125 68.5H78.125V67.5H77.125V68.5ZM79.9375 68.5V67.5H78.9375V68.5H79.9375ZM79.9375 65.6875H78.9375V66.6875H79.9375V65.6875ZM79.9375 51.625V50.625H78.9375V51.625H79.9375ZM85.1506 51.2131L84.4435 50.506L84.4435 50.506L85.1506 51.2131ZM85.1506 49.2244L84.4435 49.9315L84.4435 49.9315L85.1506 49.2244ZM79.9375 48.8125H78.9375V49.8125H79.9375V48.8125ZM79.5256 35.1619L78.8185 35.869L78.8185 35.869L79.5256 35.1619ZM77.5369 35.1619L78.244 35.869L78.244 35.869L77.5369 35.1619ZM77.125 48.8125V49.8125H78.125V48.8125H77.125ZM60.25 48.8125H59.25V49.8125H60.25V48.8125ZM59.8381 35.1619L59.131 35.869L59.131 35.869L59.8381 35.1619ZM57.8494 35.1619L58.5565 35.869L58.5565 35.869L57.8494 35.1619ZM57.4375 48.8125V49.8125H58.4375V48.8125H57.4375ZM40.5625 48.8125H39.5625V49.8125H40.5625V48.8125ZM40.1506 35.1619L39.4435 35.869L39.4435 35.869L40.1506 35.1619ZM38.1619 35.1619L38.869 35.869L38.869 35.869L38.1619 35.1619ZM37.75 48.8125V49.8125H38.75V48.8125H37.75ZM20.875 48.8125H19.875V49.8125H20.875V48.8125ZM20.4631 35.1619L19.756 35.869L19.756 35.869L20.4631 35.1619ZM18.4744 35.1619L19.1815 35.869L19.1815 35.869L18.4744 35.1619ZM18.0625 48.8125V49.8125H19.0625V48.8125H18.0625ZM12.8494 49.2244L13.5565 49.9315L13.5565 49.9315L12.8494 49.2244ZM12.8494 51.2131L13.5565 50.506L13.5565 50.506L12.8494 51.2131ZM18.0625 51.625H19.0625V50.625H18.0625V51.625ZM18.0625 65.6875V66.6875H19.0625V65.6875H18.0625ZM77.125 65.6875V66.6875H78.125V65.6875H77.125ZM77.125 51.625H78.125V50.625H77.125V51.625ZM60.25 65.6875H59.25V66.6875H60.25V65.6875ZM60.25 51.625V50.625H59.25V51.625H60.25ZM57.4375 65.6875V66.6875H58.4375V65.6875H57.4375ZM57.4375 51.625H58.4375V50.625H57.4375V51.625ZM40.5625 65.6875H39.5625V66.6875H40.5625V65.6875ZM40.5625 51.625V50.625H39.5625V51.625H40.5625ZM37.75 51.625H38.75V50.625H37.75V51.625ZM20.875 51.625V50.625H19.875V51.625H20.875ZM37.75 65.6875V66.6875H38.75V65.6875H37.75ZM20.875 65.6875H19.875V66.6875H20.875V65.6875ZM94 23.5V24.5H95V23.5H94ZM4 23.5H3V24.5H4V23.5ZM4.41188 9.84938L3.70477 9.14227H3.70477L4.41188 9.84938ZM17.6506 9.02562L18.3577 9.73273L18.3577 9.73272L17.6506 9.02562ZM17.6506 7.03688L18.3577 6.32978L18.3577 6.32977L17.6506 7.03688ZM1.59938 25.9006L2.30649 25.1935L1.59938 25.9006ZM80.3494 9.02562L81.0565 8.31851L81.0565 8.31851L80.3494 9.02562ZM4.41188 87.7756L3.70477 88.4827L3.70477 88.4827L4.41188 87.7756ZM3.58812 32.3494L4.29523 31.6423H4.29523L3.58812 32.3494ZM1.59938 32.3494L2.30649 33.0565L1.59938 32.3494ZM64.4688 10.4375C65.1069 10.4375 65.719 10.184 66.1702 9.73273L64.756 8.31851C64.6798 8.3947 64.5765 8.4375 64.4688 8.4375V10.4375ZM33.5312 10.4375H64.4688V8.4375H33.5312V10.4375ZM31.8298 9.73273C32.281 10.184 32.8931 10.4375 33.5312 10.4375V8.4375C33.4235 8.4375 33.3202 8.3947 33.244 8.31851L31.8298 9.73273ZM31.125 8.03125C31.125 8.66943 31.3785 9.28147 31.8298 9.73273L33.244 8.31851C33.1678 8.24233 33.125 8.139 33.125 8.03125H31.125ZM31.8298 6.32977C31.3785 6.78103 31.125 7.39307 31.125 8.03125H33.125C33.125 7.9235 33.1678 7.82017 33.244 7.74399L31.8298 6.32977ZM33.5312 5.625C32.8931 5.625 32.281 5.87852 31.8298 6.32977L33.244 7.74399C33.3202 7.6678 33.4235 7.625 33.5312 7.625V5.625ZM64.4688 5.625H33.5312V7.625H64.4688V5.625ZM66.1702 6.32977C65.719 5.87852 65.1069 5.625 64.4688 5.625V7.625C64.5765 7.625 64.6798 7.6678 64.756 7.74399L66.1702 6.32977ZM66.875 8.03125C66.875 7.39308 66.6215 6.78104 66.1702 6.32977L64.756 7.74399C64.8322 7.82017 64.875 7.9235 64.875 8.03125H66.875ZM66.1702 9.73273C66.6215 9.28146 66.875 8.66942 66.875 8.03125H64.875C64.875 8.139 64.8322 8.24233 64.756 8.31851L66.1702 9.73273ZM27.5 2.40625C27.5 1.76807 27.2465 1.15603 26.7952 0.704774L25.381 2.11899C25.4572 2.19517 25.5 2.2985 25.5 2.40625H27.5ZM27.5 13.6562V2.40625H25.5V13.6562H27.5ZM26.7952 15.3577C27.2465 14.9065 27.5 14.2944 27.5 13.6562H25.5C25.5 13.764 25.4572 13.8673 25.381 13.9435L26.7952 15.3577ZM25.0938 16.0625C25.7319 16.0625 26.344 15.809 26.7952 15.3577L25.381 13.9435C25.3048 14.0197 25.2015 14.0625 25.0938 14.0625V16.0625ZM23.3923 15.3577C23.8435 15.809 24.4556 16.0625 25.0938 16.0625V14.0625C24.986 14.0625 24.8827 14.0197 24.8065 13.9435L23.3923 15.3577ZM22.6875 13.6562C22.6875 14.2944 22.941 14.9065 23.3923 15.3577L24.8065 13.9435C24.7303 13.8673 24.6875 13.764 24.6875 13.6562H22.6875ZM22.6875 2.40625V13.6562H24.6875V2.40625H22.6875ZM23.3923 0.704774C22.941 1.15603 22.6875 1.76807 22.6875 2.40625H24.6875C24.6875 2.2985 24.7303 2.19517 24.8065 2.11899L23.3923 0.704774ZM25.0938 0C24.4556 0 23.8435 0.253515 23.3923 0.704774L24.8065 2.11899C24.8827 2.0428 24.986 2 25.0938 2V0ZM26.7952 0.704774C26.344 0.253515 25.7319 0 25.0938 0V2C25.2015 2 25.3048 2.0428 25.381 2.11899L26.7952 0.704774ZM72.9062 16.0625C73.5444 16.0625 74.1565 15.809 74.6077 15.3577L73.1935 13.9435C73.1173 14.0197 73.014 14.0625 72.9062 14.0625V16.0625ZM71.2048 15.3577C71.656 15.809 72.2681 16.0625 72.9062 16.0625V14.0625C72.7985 14.0625 72.6952 14.0197 72.619 13.9435L71.2048 15.3577ZM70.5 13.6562C70.5 14.2944 70.7535 14.9065 71.2048 15.3577L72.619 13.9435C72.5428 13.8673 72.5 13.764 72.5 13.6562H70.5ZM70.5 2.40625V13.6562H72.5V2.40625H70.5ZM71.2048 0.704771C70.7535 1.15604 70.5 1.76808 70.5 2.40625H72.5C72.5 2.2985 72.5428 2.19517 72.619 2.11899L71.2048 0.704771ZM72.9062 0C72.2681 0 71.656 0.253517 71.2048 0.704771L72.619 2.11899C72.6952 2.0428 72.7985 2 72.9062 2V0ZM74.6077 0.704771C74.1565 0.253517 73.5444 0 72.9062 0V2C73.014 2 73.1173 2.0428 73.1935 2.11899L74.6077 0.704771ZM75.3125 2.40625C75.3125 1.76808 75.059 1.15604 74.6077 0.704771L73.1935 2.11899C73.2697 2.19517 73.3125 2.2985 73.3125 2.40625H75.3125ZM75.3125 13.6562V2.40625H73.3125V13.6562H75.3125ZM74.6077 15.3577C75.059 14.9065 75.3125 14.2944 75.3125 13.6562H73.3125C73.3125 13.764 73.2697 13.8673 73.1935 13.9435L74.6077 15.3577ZM13.5565 66.8065C13.6327 66.7303 13.736 66.6875 13.8438 66.6875V64.6875C13.2056 64.6875 12.5935 64.941 12.1423 65.3923L13.5565 66.8065ZM13.4375 67.0938C13.4375 66.986 13.4803 66.8827 13.5565 66.8065L12.1423 65.3923C11.691 65.8435 11.4375 66.4556 11.4375 67.0938H13.4375ZM13.5565 67.381C13.4803 67.3048 13.4375 67.2015 13.4375 67.0938H11.4375C11.4375 67.7319 11.691 68.344 12.1423 68.7952L13.5565 67.381ZM13.8438 67.5C13.736 67.5 13.6327 67.4572 13.5565 67.381L12.1423 68.7952C12.5935 69.2465 13.2056 69.5 13.8438 69.5V67.5ZM18.0625 67.5H13.8438V69.5H18.0625V67.5ZM19.0625 78.3438V68.5H17.0625V78.3438H19.0625ZM19.1815 78.631C19.1053 78.5548 19.0625 78.4515 19.0625 78.3438H17.0625C17.0625 78.9819 17.316 79.594 17.7673 80.0452L19.1815 78.631ZM19.4688 78.75C19.361 78.75 19.2577 78.7072 19.1815 78.631L17.7673 80.0452C18.2185 80.4965 18.8306 80.75 19.4688 80.75V78.75ZM19.756 78.631C19.6798 78.7072 19.5765 78.75 19.4688 78.75V80.75C20.1069 80.75 20.719 80.4965 21.1702 80.0452L19.756 78.631ZM19.875 78.3438C19.875 78.4515 19.8322 78.5548 19.756 78.631L21.1702 80.0452C21.6215 79.594 21.875 78.9819 21.875 78.3438H19.875ZM19.875 68.5V78.3438H21.875V68.5H19.875ZM37.75 67.5H20.875V69.5H37.75V67.5ZM38.75 78.3438V68.5H36.75V78.3438H38.75ZM38.869 78.631C38.7928 78.5548 38.75 78.4515 38.75 78.3438H36.75C36.75 78.9819 37.0035 79.594 37.4548 80.0452L38.869 78.631ZM39.1562 78.75C39.0485 78.75 38.9452 78.7072 38.869 78.631L37.4548 80.0452C37.906 80.4965 38.5181 80.75 39.1562 80.75V78.75ZM39.4435 78.631C39.3673 78.7072 39.264 78.75 39.1562 78.75V80.75C39.7944 80.75 40.4065 80.4965 40.8577 80.0452L39.4435 78.631ZM39.5625 78.3438C39.5625 78.4515 39.5197 78.5548 39.4435 78.631L40.8577 80.0452C41.309 79.594 41.5625 78.9819 41.5625 78.3438H39.5625ZM39.5625 68.5V78.3438H41.5625V68.5H39.5625ZM57.4375 67.5H40.5625V69.5H57.4375V67.5ZM58.4375 78.3438V68.5H56.4375V78.3438H58.4375ZM58.5565 78.631C58.4803 78.5548 58.4375 78.4515 58.4375 78.3438H56.4375C56.4375 78.9819 56.691 79.594 57.1423 80.0452L58.5565 78.631ZM58.8438 78.75C58.736 78.75 58.6327 78.7072 58.5565 78.631L57.1423 80.0452C57.5935 80.4965 58.2056 80.75 58.8438 80.75V78.75ZM59.131 78.631C59.0548 78.7072 58.9515 78.75 58.8438 78.75V80.75C59.4819 80.75 60.094 80.4965 60.5452 80.0452L59.131 78.631ZM59.25 78.3438C59.25 78.4515 59.2072 78.5548 59.131 78.631L60.5452 80.0452C60.9965 79.594 61.25 78.9819 61.25 78.3438H59.25ZM59.25 68.5V78.3438H61.25V68.5H59.25ZM77.125 67.5H60.25V69.5H77.125V67.5ZM78.125 78.3438V68.5H76.125V78.3438H78.125ZM78.244 78.631C78.1678 78.5548 78.125 78.4515 78.125 78.3438H76.125C76.125 78.9819 76.3785 79.594 76.8298 80.0452L78.244 78.631ZM78.5312 78.75C78.4235 78.75 78.3202 78.7072 78.244 78.631L76.8298 80.0452C77.281 80.4965 77.8931 80.75 78.5312 80.75V78.75ZM78.8185 78.631C78.7423 78.7072 78.639 78.75 78.5312 78.75V80.75C79.1694 80.75 79.7815 80.4965 80.2327 80.0452L78.8185 78.631ZM78.9375 78.3438C78.9375 78.4515 78.8947 78.5548 78.8185 78.631L80.2327 80.0452C80.684 79.594 80.9375 78.9819 80.9375 78.3438H78.9375ZM78.9375 68.5V78.3438H80.9375V68.5H78.9375ZM84.1562 67.5H79.9375V69.5H84.1562V67.5ZM84.4435 67.381C84.3673 67.4572 84.264 67.5 84.1562 67.5V69.5C84.7944 69.5 85.4065 69.2465 85.8577 68.7952L84.4435 67.381ZM84.5625 67.0938C84.5625 67.2015 84.5197 67.3048 84.4435 67.381L85.8577 68.7952C86.309 68.344 86.5625 67.7319 86.5625 67.0938H84.5625ZM84.4435 66.8065C84.5197 66.8827 84.5625 66.986 84.5625 67.0938H86.5625C86.5625 66.4556 86.309 65.8435 85.8577 65.3923L84.4435 66.8065ZM84.1562 66.6875C84.264 66.6875 84.3673 66.7303 84.4435 66.8065L85.8577 65.3923C85.4065 64.941 84.7944 64.6875 84.1562 64.6875V66.6875ZM79.9375 66.6875H84.1562V64.6875H79.9375V66.6875ZM78.9375 51.625V65.6875H80.9375V51.625H78.9375ZM84.1562 50.625H79.9375V52.625H84.1562V50.625ZM84.4435 50.506C84.3673 50.5822 84.264 50.625 84.1562 50.625V52.625C84.7944 52.625 85.4065 52.3715 85.8577 51.9202L84.4435 50.506ZM84.5625 50.2188C84.5625 50.3265 84.5197 50.4298 84.4435 50.506L85.8577 51.9202C86.309 51.469 86.5625 50.8569 86.5625 50.2188H84.5625ZM84.4435 49.9315C84.5197 50.0077 84.5625 50.111 84.5625 50.2188H86.5625C86.5625 49.5806 86.309 48.9685 85.8577 48.5173L84.4435 49.9315ZM84.1562 49.8125C84.264 49.8125 84.3673 49.8553 84.4435 49.9315L85.8577 48.5173C85.4065 48.066 84.7944 47.8125 84.1562 47.8125V49.8125ZM79.9375 49.8125H84.1562V47.8125H79.9375V49.8125ZM78.9375 36.1562V48.8125H80.9375V36.1562H78.9375ZM78.8185 35.869C78.8947 35.9452 78.9375 36.0485 78.9375 36.1562H80.9375C80.9375 35.5181 80.684 34.906 80.2327 34.4548L78.8185 35.869ZM78.5312 35.75C78.639 35.75 78.7423 35.7928 78.8185 35.869L80.2327 34.4548C79.7815 34.0035 79.1694 33.75 78.5312 33.75V35.75ZM78.244 35.869C78.3202 35.7928 78.4235 35.75 78.5312 35.75V33.75C77.8931 33.75 77.281 34.0035 76.8298 34.4548L78.244 35.869ZM78.125 36.1562C78.125 36.0485 78.1678 35.9452 78.244 35.869L76.8298 34.4548C76.3785 34.906 76.125 35.5181 76.125 36.1562H78.125ZM78.125 48.8125V36.1562H76.125V48.8125H78.125ZM60.25 49.8125H77.125V47.8125H60.25V49.8125ZM59.25 36.1562V48.8125H61.25V36.1562H59.25ZM59.131 35.869C59.2072 35.9452 59.25 36.0485 59.25 36.1562H61.25C61.25 35.5181 60.9965 34.906 60.5452 34.4548L59.131 35.869ZM58.8438 35.75C58.9515 35.75 59.0548 35.7928 59.131 35.869L60.5452 34.4548C60.094 34.0035 59.4819 33.75 58.8438 33.75V35.75ZM58.5565 35.869C58.6327 35.7928 58.736 35.75 58.8438 35.75V33.75C58.2056 33.75 57.5935 34.0035 57.1423 34.4548L58.5565 35.869ZM58.4375 36.1562C58.4375 36.0485 58.4803 35.9452 58.5565 35.869L57.1423 34.4548C56.691 34.906 56.4375 35.5181 56.4375 36.1562H58.4375ZM58.4375 48.8125V36.1562H56.4375V48.8125H58.4375ZM40.5625 49.8125H57.4375V47.8125H40.5625V49.8125ZM39.5625 36.1562V48.8125H41.5625V36.1562H39.5625ZM39.4435 35.869C39.5197 35.9452 39.5625 36.0485 39.5625 36.1562H41.5625C41.5625 35.5181 41.309 34.906 40.8577 34.4548L39.4435 35.869ZM39.1562 35.75C39.264 35.75 39.3673 35.7928 39.4435 35.869L40.8577 34.4548C40.4065 34.0035 39.7944 33.75 39.1562 33.75V35.75ZM38.869 35.869C38.9452 35.7928 39.0485 35.75 39.1562 35.75V33.75C38.5181 33.75 37.906 34.0035 37.4548 34.4548L38.869 35.869ZM38.75 36.1562C38.75 36.0485 38.7928 35.9452 38.869 35.869L37.4548 34.4548C37.0035 34.906 36.75 35.5181 36.75 36.1562H38.75ZM38.75 48.8125V36.1562H36.75V48.8125H38.75ZM20.875 49.8125H37.75V47.8125H20.875V49.8125ZM19.875 36.1562V48.8125H21.875V36.1562H19.875ZM19.756 35.869C19.8322 35.9452 19.875 36.0485 19.875 36.1562H21.875C21.875 35.5181 21.6215 34.906 21.1702 34.4548L19.756 35.869ZM19.4688 35.75C19.5765 35.75 19.6798 35.7928 19.756 35.869L21.1702 34.4548C20.719 34.0035 20.1069 33.75 19.4688 33.75V35.75ZM19.1815 35.869C19.2577 35.7928 19.361 35.75 19.4688 35.75V33.75C18.8306 33.75 18.2185 34.0035 17.7673 34.4548L19.1815 35.869ZM19.0625 36.1562C19.0625 36.0485 19.1053 35.9452 19.1815 35.869L17.7673 34.4548C17.316 34.906 17.0625 35.5181 17.0625 36.1562H19.0625ZM19.0625 48.8125V36.1562H17.0625V48.8125H19.0625ZM13.8438 49.8125H18.0625V47.8125H13.8438V49.8125ZM13.5565 49.9315C13.6327 49.8553 13.736 49.8125 13.8438 49.8125V47.8125C13.2056 47.8125 12.5935 48.066 12.1423 48.5173L13.5565 49.9315ZM13.4375 50.2188C13.4375 50.111 13.4803 50.0077 13.5565 49.9315L12.1423 48.5173C11.691 48.9685 11.4375 49.5806 11.4375 50.2188H13.4375ZM13.5565 50.506C13.4803 50.4298 13.4375 50.3265 13.4375 50.2188H11.4375C11.4375 50.8569 11.691 51.469 12.1423 51.9202L13.5565 50.506ZM13.8438 50.625C13.736 50.625 13.6327 50.5822 13.5565 50.506L12.1423 51.9202C12.5935 52.3715 13.2056 52.625 13.8438 52.625V50.625ZM18.0625 50.625H13.8438V52.625H18.0625V50.625ZM19.0625 65.6875V51.625H17.0625V65.6875H19.0625ZM13.8438 66.6875H18.0625V64.6875H13.8438V66.6875ZM78.125 65.6875V51.625H76.125V65.6875H78.125ZM60.25 66.6875H77.125V64.6875H60.25V66.6875ZM59.25 51.625V65.6875H61.25V51.625H59.25ZM77.125 50.625H60.25V52.625H77.125V50.625ZM58.4375 65.6875V51.625H56.4375V65.6875H58.4375ZM40.5625 66.6875H57.4375V64.6875H40.5625V66.6875ZM39.5625 51.625V65.6875H41.5625V51.625H39.5625ZM57.4375 50.625H40.5625V52.625H57.4375V50.625ZM37.75 50.625H20.875V52.625H37.75V50.625ZM38.75 65.6875V51.625H36.75V65.6875H38.75ZM20.875 66.6875H37.75V64.6875H20.875V66.6875ZM19.875 51.625V65.6875H21.875V51.625H19.875ZM93.2969 8.4375H81.3438V10.4375H93.2969V8.4375ZM95 10.8438C95 10.0927 94.89 9.4351 94.5112 8.97644C94.0498 8.41784 93.4358 8.4375 93.2969 8.4375V10.4375C93.3678 10.4375 93.3107 10.4424 93.2368 10.4214C93.1929 10.409 93.1415 10.3881 93.0897 10.3551C93.0374 10.3218 92.9974 10.2843 92.9692 10.2501C92.9157 10.1853 92.9279 10.1619 92.9514 10.2611C92.9748 10.3597 93 10.5409 93 10.8438H95ZM95 23.5V10.8438H93V23.5H95ZM4 24.5H94V22.5H4V24.5ZM3 10.8438V23.5H5V10.8438H3ZM3.70477 9.14227C3.25352 9.59353 3 10.2056 3 10.8438H5C5 10.736 5.0428 10.6327 5.11899 10.5565L3.70477 9.14227ZM5.40625 8.4375C4.76807 8.4375 4.15603 8.69102 3.70477 9.14227L5.11899 10.5565C5.19517 10.4803 5.29851 10.4375 5.40625 10.4375V8.4375ZM16.6562 8.4375H5.40625V10.4375H16.6562V8.4375ZM16.9435 8.31851C16.8673 8.3947 16.764 8.4375 16.6562 8.4375V10.4375C17.2944 10.4375 17.9065 10.184 18.3577 9.73273L16.9435 8.31851ZM17.0625 8.03125C17.0625 8.13899 17.0197 8.24233 16.9435 8.31851L18.3577 9.73272C18.809 9.28147 19.0625 8.66943 19.0625 8.03125H17.0625ZM16.9435 7.74399C17.0197 7.82017 17.0625 7.92351 17.0625 8.03125H19.0625C19.0625 7.39307 18.809 6.78103 18.3577 6.32978L16.9435 7.74399ZM16.6562 7.625C16.764 7.625 16.8673 7.6678 16.9435 7.74399L18.3577 6.32977C17.9065 5.87852 17.2944 5.625 16.6562 5.625V7.625ZM5.40625 7.625H16.6562V5.625H5.40625V7.625ZM2.1875 10.8438C2.1875 9.0701 3.6326 7.625 5.40625 7.625V5.625C2.52803 5.625 0.1875 7.96553 0.1875 10.8438H2.1875ZM2.1875 24.9062V10.8438H0.1875V24.9062H2.1875ZM2.30649 25.1935C2.2303 25.1173 2.1875 25.014 2.1875 24.9062H0.1875C0.1875 25.5444 0.441015 26.1565 0.892274 26.6077L2.30649 25.1935ZM2.59375 25.3125C2.486 25.3125 2.38267 25.2697 2.30649 25.1935L0.892274 26.6077C1.34353 27.059 1.95557 27.3125 2.59375 27.3125V25.3125ZM95.4062 25.3125H2.59375V27.3125H95.4062V25.3125ZM95.6935 25.1935C95.6173 25.2697 95.514 25.3125 95.4062 25.3125V27.3125C96.0444 27.3125 96.6565 27.059 97.1077 26.6077L95.6935 25.1935ZM95.8125 24.9062C95.8125 25.014 95.7697 25.1173 95.6935 25.1935L97.1077 26.6077C97.559 26.1565 97.8125 25.5444 97.8125 24.9062H95.8125ZM95.8125 10.8438V24.9062H97.8125V10.8438H95.8125ZM93.2969 7.625C93.935 7.625 94.5408 7.83169 94.985 8.27537C95.4211 8.71105 95.8125 9.48676 95.8125 10.8438H97.8125C97.8125 9.09012 97.2954 7.75645 96.3985 6.86041C95.5095 5.97238 94.3575 5.625 93.2969 5.625V7.625ZM81.3438 7.625H93.2969V5.625H81.3438V7.625ZM81.0565 7.74399C81.1327 7.6678 81.236 7.625 81.3438 7.625V5.625C80.7056 5.625 80.0935 5.87852 79.6423 6.32977L81.0565 7.74399ZM80.9375 8.03125C80.9375 7.9235 80.9803 7.82017 81.0565 7.74399L79.6423 6.32977C79.191 6.78104 78.9375 7.39308 78.9375 8.03125H80.9375ZM81.0565 8.31851C80.9803 8.24233 80.9375 8.139 80.9375 8.03125H78.9375C78.9375 8.66942 79.191 9.28146 79.6423 9.73273L81.0565 8.31851ZM81.3438 8.4375C81.236 8.4375 81.1327 8.3947 81.0565 8.31851L79.6423 9.73273C80.0935 10.184 80.7056 10.4375 81.3438 10.4375V8.4375ZM95.8125 33.3438V86.7812H97.8125V33.3438H95.8125ZM95.6935 33.0565C95.7697 33.1327 95.8125 33.236 95.8125 33.3438H97.8125C97.8125 32.7056 97.559 32.0935 97.1077 31.6423L95.6935 33.0565ZM95.4062 32.9375C95.514 32.9375 95.6173 32.9803 95.6935 33.0565L97.1077 31.6423C96.6565 31.191 96.0444 30.9375 95.4062 30.9375V32.9375ZM95.119 33.0565C95.1952 32.9803 95.2985 32.9375 95.4062 32.9375V30.9375C94.7681 30.9375 94.156 31.191 93.7048 31.6423L95.119 33.0565ZM95 33.3438C95 33.236 95.0428 33.1327 95.119 33.0565L93.7048 31.6423C93.2535 32.0935 93 32.7056 93 33.3438H95ZM95 86.7812V33.3438H93V86.7812H95ZM94.2952 88.4827C94.7465 88.0315 95 87.4194 95 86.7812H93C93 86.889 92.9572 86.9923 92.881 87.0685L94.2952 88.4827ZM92.5938 89.1875C93.2319 89.1875 93.844 88.934 94.2952 88.4827L92.881 87.0685C92.8048 87.1447 92.7015 87.1875 92.5938 87.1875V89.1875ZM5.40625 89.1875H92.5938V87.1875H5.40625V89.1875ZM3.70477 88.4827C4.15604 88.934 4.76808 89.1875 5.40625 89.1875V87.1875C5.2985 87.1875 5.19517 87.1447 5.11899 87.0685L3.70477 88.4827ZM3 86.7812C3 87.4194 3.25352 88.0315 3.70477 88.4827L5.11899 87.0685C5.0428 86.9923 5 86.889 5 86.7812H3ZM3 33.3438V86.7812H5V33.3438H3ZM2.88101 33.0565C2.9572 33.1327 3 33.236 3 33.3438H5C5 32.7056 4.74648 32.0935 4.29523 31.6423L2.88101 33.0565ZM2.59375 32.9375C2.7015 32.9375 2.80483 32.9803 2.88101 33.0565L4.29523 31.6423C3.84397 31.191 3.23193 30.9375 2.59375 30.9375V32.9375ZM2.30649 33.0565C2.38267 32.9803 2.486 32.9375 2.59375 32.9375V30.9375C1.95557 30.9375 1.34353 31.191 0.892274 31.6423L2.30649 33.0565ZM2.1875 33.3438C2.1875 33.236 2.2303 33.1327 2.30649 33.0565L0.892274 31.6423C0.441015 32.0935 0.1875 32.7056 0.1875 33.3438H2.1875ZM2.1875 86.7812V33.3438H0.1875V86.7812H2.1875ZM5.40625 90C3.6326 90 2.1875 88.5549 2.1875 86.7812H0.1875C0.1875 89.6595 2.52803 92 5.40625 92V90ZM92.5938 90H5.40625V92H92.5938V90ZM95.8125 86.7812C95.8125 88.5549 94.3674 90 92.5938 90V92C95.472 92 97.8125 89.6595 97.8125 86.7812H95.8125Z" fill="black" mask="url(#path-1-outside-1_251_186)"/>
</svg>
