<svg width="70" height="70" viewBox="0 0 70 70" fill="none" xmlns="http://www.w3.org/2000/svg">
<path d="M19.25 5.25C17.8576 5.25 16.5223 5.80312 15.5377 6.78769C14.5531 7.77226 14 9.10761 14 10.5C14 11.8924 14.5531 13.2277 15.5377 14.2123C16.5223 15.1969 17.8576 15.75 19.25 15.75C20.6424 15.75 21.9777 15.1969 22.9623 14.2123C23.9469 13.2277 24.5 11.8924 24.5 10.5C24.5 9.10761 23.9469 7.77226 22.9623 6.78769C21.9777 5.80312 20.6424 5.25 19.25 5.25ZM8.75 10.5C8.75 7.71523 9.85625 5.04451 11.8254 3.07538C13.7945 1.10625 16.4652 0 19.25 0C22.0348 0 24.7055 1.10625 26.6746 3.07538C28.6438 5.04451 29.75 7.71523 29.75 10.5C29.75 13.2848 28.6438 15.9555 26.6746 17.9246C24.7055 19.8938 22.0348 21 19.25 21C16.4652 21 13.7945 19.8938 11.8254 17.9246C9.85625 15.9555 8.75 13.2848 8.75 10.5ZM6.188 24.5C2.765 24.5 0 27.2685 0 30.688V31.948C0 32.6725 2.08616e-07 36.876 2.45 40.9605C4.368 44.1455 7.6195 47.005 12.8625 48.286C13.5806 46.3771 14.881 44.7424 16.5795 43.6135C10.969 43.015 8.316 40.523 6.9545 38.2585C5.2605 35.4375 5.25 32.4345 5.25 31.9375V30.688C5.25 30.17 5.67 29.75 6.188 29.75H21.105C21.3362 27.8992 21.9373 26.1138 22.8725 24.5H6.188ZM47.1275 24.5C48.041 26.082 48.657 27.8565 48.8915 29.75H63.812C64.33 29.75 64.75 30.17 64.75 30.688V31.9375C64.75 32.4345 64.7395 35.4375 63.0455 38.255C61.684 40.523 59.031 43.015 53.4205 43.6135C55.1005 44.7335 56.4165 46.3645 57.1375 48.286C62.3805 47.005 65.632 44.1455 67.5465 40.9605C70 36.876 70 32.676 70 31.9445V30.6845C70 27.272 67.2315 24.5 63.812 24.5H47.1275ZM45.5 10.5C45.5 9.10761 46.0531 7.77226 47.0377 6.78769C48.0223 5.80312 49.3576 5.25 50.75 5.25C52.1424 5.25 53.4777 5.80312 54.4623 6.78769C55.4469 7.77226 56 9.10761 56 10.5C56 11.8924 55.4469 13.2277 54.4623 14.2123C53.4777 15.1969 52.1424 15.75 50.75 15.75C49.3576 15.75 48.0223 15.1969 47.0377 14.2123C46.0531 13.2277 45.5 11.8924 45.5 10.5ZM50.75 0C47.9652 0 45.2945 1.10625 43.3254 3.07538C41.3562 5.04451 40.25 7.71523 40.25 10.5C40.25 13.2848 41.3562 15.9555 43.3254 17.9246C45.2945 19.8938 47.9652 21 50.75 21C53.5348 21 56.2055 19.8938 58.1746 17.9246C60.1438 15.9555 61.25 13.2848 61.25 10.5C61.25 7.71523 60.1438 5.04451 58.1746 3.07538C56.2055 1.10625 53.5348 0 50.75 0ZM35 26.25C34.3106 26.25 33.6279 26.3858 32.9909 26.6496C32.354 26.9135 31.7752 27.3002 31.2877 27.7877C30.8002 28.2752 30.4135 28.854 30.1496 29.4909C29.8858 30.1279 29.75 30.8106 29.75 31.5C29.75 32.1894 29.8858 32.8721 30.1496 33.5091C30.4135 34.146 30.8002 34.7248 31.2877 35.2123C31.7752 35.6998 32.354 36.0865 32.9909 36.3504C33.6279 36.6142 34.3106 36.75 35 36.75C36.3924 36.75 37.7277 36.1969 38.7123 35.2123C39.6969 34.2277 40.25 32.8924 40.25 31.5C40.25 30.1076 39.6969 28.7723 38.7123 27.7877C37.7277 26.8031 36.3924 26.25 35 26.25ZM24.5 31.5C24.5 28.7152 25.6062 26.0445 27.5754 24.0754C29.5445 22.1062 32.2152 21 35 21C37.7848 21 40.4555 22.1062 42.4246 24.0754C44.3938 26.0445 45.5 28.7152 45.5 31.5C45.5 34.2848 44.3938 36.9555 42.4246 38.9246C40.4555 40.8938 37.7848 42 35 42C32.2152 42 29.5445 40.8938 27.5754 38.9246C25.6062 36.9555 24.5 34.2848 24.5 31.5ZM15.75 51.688C15.75 48.265 18.5185 45.5 21.938 45.5H48.062C51.4815 45.5 54.25 48.2685 54.25 51.688V52.948C54.25 53.6725 54.25 57.876 51.8 61.9605C49.1995 66.2795 44.1455 70 35 70C25.8545 70 20.797 66.2795 18.2 61.9605C15.75 57.876 15.75 53.676 15.75 52.9445V51.688ZM21.938 50.75C21.8148 50.75 21.6928 50.7743 21.579 50.8214C21.4652 50.8685 21.3618 50.9376 21.2747 51.0247C21.1876 51.1118 21.1185 51.2152 21.0714 51.329C21.0243 51.4428 21 51.5648 21 51.688V52.9375C21 53.4345 21.0105 56.4375 22.7045 59.255C24.2655 61.8555 27.524 64.75 35 64.75C42.476 64.75 45.7345 61.8555 47.2955 59.255C48.9895 56.4375 49 53.4345 49 52.9375V51.688C49 51.4392 48.9012 51.2006 48.7253 51.0247C48.5494 50.8488 48.3108 50.75 48.062 50.75H21.938Z" fill="#4C4C4E"/>
</svg>
