<svg width="110" height="94" viewBox="0 0 110 94" fill="none" xmlns="http://www.w3.org/2000/svg">
<path fill-rule="evenodd" clip-rule="evenodd" d="M55.4656 17.2546C63.6895 7.83014 72.0025 3.73905 79.4417 3.20407C86.8806 2.66911 93.5243 5.68364 98.4313 10.6253C108.268 20.5311 111.029 38.0504 99.2552 49.9514L95.168 53.7202C95.1027 53.52 94.9145 53.3754 94.6925 53.3754H79.3266C79.1692 53.3754 79.021 53.4495 78.9266 53.5754L64.0173 73.4545L43.9069 38.2614C43.8234 38.1152 43.6719 38.0209 43.5039 38.0104C43.3359 38 43.1738 38.0748 43.0728 38.2095L27.8569 58.4973H2.49707C2.22093 58.4973 1.99707 58.7212 1.99707 58.9973C1.99707 59.2735 2.22093 59.4973 2.49707 59.4973H28.1069C28.2643 59.4973 28.4125 59.4232 28.5069 59.2973L43.4162 39.4182L63.5266 74.6113C63.6101 74.7575 63.7616 74.8518 63.9296 74.8623C64.0977 74.8727 64.2597 74.7979 64.3607 74.6632L79.5766 54.3754H94.4575L55.0901 90.6761L29.3821 66.7988C29.1798 66.6108 28.8634 66.6225 28.6755 66.8248C28.4876 67.0272 28.4993 67.3435 28.7016 67.5315L54.7486 91.7237C54.9399 91.9014 55.2358 91.902 55.4278 91.7249L99.9415 50.6788C99.9471 50.6736 99.9526 50.6683 99.9579 50.6629C112.206 38.2912 109.281 20.1326 99.1409 9.92069C94.0585 4.8024 87.1394 1.64791 79.37 2.20664C71.7171 2.75699 63.3154 6.90381 55.0871 16.1711C43.4987 3.24126 31.546 0.360334 21.89 3.31334C12.167 6.28682 4.9162 15.1377 2.82784 25.211C2.77178 25.4814 2.94553 25.746 3.21593 25.8021C3.48632 25.8582 3.75096 25.6844 3.80702 25.414C5.83134 15.6496 12.854 7.12245 22.1824 4.26963C31.473 1.42837 43.1949 4.17773 54.7136 17.2563C54.8088 17.3644 54.946 17.4262 55.09 17.4259C55.234 17.4255 55.3709 17.3631 55.4656 17.2546Z" fill="black"/>
<path d="M79.4417 3.20407L79.5852 5.19891L79.4417 3.20407ZM55.4656 17.2546L53.9586 15.9396L53.9586 15.9396L55.4656 17.2546ZM98.4313 10.6253L99.8505 9.21607V9.21607L98.4313 10.6253ZM99.2552 49.9514L100.611 51.4217C100.634 51.4009 100.656 51.3797 100.677 51.3579L99.2552 49.9514ZM95.168 53.7202L93.2665 54.3402C93.4776 54.9878 94.0038 55.4833 94.6628 55.6554C95.3218 55.8274 96.023 55.6522 96.5238 55.1905L95.168 53.7202ZM78.9266 53.5754L80.5266 54.7754L80.5266 54.7753L78.9266 53.5754ZM64.0173 73.4545L62.2808 74.4467C62.6149 75.0314 63.2209 75.4087 63.893 75.4506C64.5651 75.4924 65.2132 75.1932 65.6173 74.6545L64.0173 73.4545ZM43.9069 38.2614L42.1705 39.2537V39.2537L43.9069 38.2614ZM43.5039 38.0104L43.6282 36.0143H43.6281L43.5039 38.0104ZM27.8569 58.4973V60.4973C28.4864 60.4973 29.0792 60.2009 29.4569 59.6973L27.8569 58.4973ZM28.5069 59.2973L26.9069 58.0973L26.9069 58.0973L28.5069 59.2973ZM43.4162 39.4182L45.1527 38.4259C44.8186 37.8412 44.2127 37.4639 43.5405 37.4221C42.8684 37.3802 42.2203 37.6795 41.8162 38.2182L43.4162 39.4182ZM63.5266 74.6113L61.7901 75.6036L61.7901 75.6036L63.5266 74.6113ZM63.9296 74.8623L63.8053 76.8584L63.8054 76.8584L63.9296 74.8623ZM64.3607 74.6632L62.7607 73.4632L64.3607 74.6632ZM79.5766 54.3754V52.3754C78.9471 52.3754 78.3543 52.6717 77.9766 53.1754L79.5766 54.3754ZM94.4575 54.3754L95.8133 55.8457C96.4188 55.2873 96.6201 54.4148 96.3204 53.6476C96.0206 52.8803 95.2812 52.3754 94.4575 52.3754V54.3754ZM55.0901 90.6761L53.729 92.1415C54.4944 92.8524 55.6779 92.8545 56.4459 92.1464L55.0901 90.6761ZM29.3821 66.7988L28.021 68.2642L28.021 68.2642L29.3821 66.7988ZM28.7016 67.5315L27.3405 68.9969L27.3405 68.9969L28.7016 67.5315ZM54.7486 91.7237L53.3875 93.1891H53.3875L54.7486 91.7237ZM55.4278 91.7249L54.072 90.2546L54.072 90.2546L55.4278 91.7249ZM99.9415 50.6788L101.297 52.1491L101.298 52.1486L99.9415 50.6788ZM99.9579 50.6629L101.379 52.0706L101.379 52.0701L99.9579 50.6629ZM99.1409 9.92069L100.56 8.51146L99.1409 9.92069ZM79.37 2.20664L79.2265 0.211794L79.37 2.20664ZM55.0871 16.1711L53.5977 17.5059C53.9782 17.9304 54.5217 18.1724 55.0918 18.1711C55.6618 18.1698 56.2042 17.9253 56.5827 17.499L55.0871 16.1711ZM21.89 3.31334L22.4749 5.22591L21.89 3.31334ZM2.82784 25.211L0.86948 24.805L0.86948 24.805L2.82784 25.211ZM3.21593 25.8021L2.8099 27.7605L2.80993 27.7605L3.21593 25.8021ZM3.80702 25.414L1.84866 25.008L1.84866 25.008L3.80702 25.414ZM22.1824 4.26963L22.7673 6.18219L22.1824 4.26963ZM54.7136 17.2563L53.2127 18.5782L53.2128 18.5782L54.7136 17.2563ZM79.2982 1.20922C71.1993 1.79165 62.4304 6.23112 53.9586 15.9396L56.9725 18.5696C64.9485 9.42916 72.8057 5.68645 79.5852 5.19891L79.2982 1.20922ZM99.8505 9.21607C94.5926 3.92106 87.3981 0.626726 79.2982 1.20922L79.5852 5.19891C86.3631 4.71148 92.456 7.44623 97.0121 12.0345L99.8505 9.21607ZM100.677 51.3579C113.381 38.5163 110.291 19.7304 99.8505 9.21607L97.0121 12.0345C106.244 21.3318 108.676 37.5844 97.8334 48.5448L100.677 51.3579ZM96.5238 55.1905L100.611 51.4217L97.8994 48.481L93.8122 52.2499L96.5238 55.1905ZM94.6925 55.3754C94.0235 55.3754 93.4617 54.9387 93.2665 54.3402L97.0694 53.1002C96.7437 52.1013 95.8055 51.3754 94.6925 51.3754V55.3754ZM79.3266 55.3754H94.6925V51.3754H79.3266V55.3754ZM80.5266 54.7753C80.2433 55.1531 79.7987 55.3754 79.3266 55.3754V51.3754C78.5397 51.3754 77.7987 51.7458 77.3266 52.3754L80.5266 54.7753ZM65.6173 74.6545L80.5266 54.7754L77.3266 52.3754L62.4173 72.2545L65.6173 74.6545ZM42.1705 39.2537L62.2808 74.4467L65.7538 72.4622L45.6434 37.2691L42.1705 39.2537ZM43.3796 40.0065C42.8755 39.9752 42.421 39.6922 42.1705 39.2537L45.6434 37.2691C45.2258 36.5382 44.4683 36.0666 43.6282 36.0143L43.3796 40.0065ZM44.6728 39.4095C44.3698 39.8135 43.8837 40.0379 43.3796 40.0066L43.6281 36.0143C42.788 35.962 41.9779 36.336 41.4728 37.0095L44.6728 39.4095ZM29.4569 59.6973L44.6728 39.4095L41.4728 37.0095L26.2569 57.2973L29.4569 59.6973ZM2.49707 60.4973H27.8569V56.4973H2.49707V60.4973ZM3.99707 58.9973C3.99707 59.8258 3.32549 60.4973 2.49707 60.4973V56.4973C1.11637 56.4973 -0.00292969 57.6166 -0.00292969 58.9973H3.99707ZM2.49707 57.4973C3.32551 57.4973 3.99707 58.1689 3.99707 58.9973H-0.00292969C-0.00292969 60.378 1.11635 61.4973 2.49707 61.4973V57.4973ZM28.1069 57.4973H2.49707V61.4973H28.1069V57.4973ZM26.9069 58.0973C27.1902 57.7196 27.6348 57.4973 28.1069 57.4973V61.4973C28.8938 61.4973 29.6348 61.1268 30.1069 60.4973L26.9069 58.0973ZM41.8162 38.2182L26.9069 58.0973L30.1069 60.4973L45.0162 40.6182L41.8162 38.2182ZM65.2631 73.619L45.1527 38.4259L41.6798 40.4105L61.7901 75.6036L65.2631 73.619ZM64.054 72.8661C64.558 72.8975 65.0124 73.1804 65.263 73.619L61.7901 75.6036C62.2078 76.3345 62.9652 76.8061 63.8053 76.8584L64.054 72.8661ZM62.7607 73.4632C63.0637 73.0592 63.5498 72.8347 64.0539 72.8661L63.8054 76.8584C64.6455 76.9107 65.4556 76.5367 65.9607 75.8632L62.7607 73.4632ZM77.9766 53.1754L62.7607 73.4632L65.9607 75.8632L81.1766 55.5754L77.9766 53.1754ZM94.4575 52.3754H79.5766V56.3754H94.4575V52.3754ZM56.4459 92.1464L95.8133 55.8457L93.1017 52.905L53.7343 89.2058L56.4459 92.1464ZM28.021 68.2642L53.729 92.1415L56.4511 89.2107L30.7432 65.3333L28.021 68.2642ZM30.1409 68.1859C29.5771 68.7929 28.628 68.828 28.021 68.2642L30.7432 65.3333C29.7315 64.3937 28.1497 64.4521 27.2101 65.4638L30.1409 68.1859ZM30.0627 66.066C30.6697 66.6298 30.7047 67.5789 30.1409 68.1859L27.2101 65.4638C26.2704 66.4754 26.3288 68.0573 27.3405 68.9969L30.0627 66.066ZM56.1097 90.2583L30.0627 66.066L27.3405 68.9969L53.3875 93.1891L56.1097 90.2583ZM54.072 90.2546C54.648 89.7235 55.5356 89.7251 56.1097 90.2583L53.3875 93.1891C54.3442 94.0777 55.8237 94.0804 56.7836 93.1953L54.072 90.2546ZM98.5858 49.2084L54.072 90.2546L56.7836 93.1953L101.297 52.1491L98.5858 49.2084ZM98.5372 49.2553C98.5525 49.2398 98.5686 49.2243 98.5853 49.2089L101.298 52.1486C101.326 52.1229 101.353 52.0969 101.379 52.0706L98.5372 49.2553ZM97.7217 11.3299C107.259 20.935 109.852 37.8262 98.5366 49.2558L101.379 52.0701C114.56 38.7561 111.303 19.3301 100.56 8.51146L97.7217 11.3299ZM79.5134 4.20149C86.6217 3.69031 92.99 6.5648 97.7217 11.3299L100.56 8.51146C95.127 3.03999 87.6571 -0.394483 79.2265 0.211794L79.5134 4.20149ZM56.5827 17.499C64.5611 8.51309 72.5101 4.70513 79.5134 4.20149L79.2265 0.211794C70.9242 0.808846 62.0697 5.29453 53.5915 14.8432L56.5827 17.499ZM22.4749 5.22591C31.2027 2.55675 42.3879 4.9985 53.5977 17.5059L56.5765 14.8362C44.6095 1.48401 31.8893 -1.83608 21.3051 1.40078L22.4749 5.22591ZM4.7862 25.617C6.74653 16.1613 13.5411 7.95803 22.4749 5.22591L21.3051 1.40078C10.7929 4.61561 3.08587 14.1142 0.86948 24.805L4.7862 25.617ZM3.62195 23.8437C4.43309 24.0119 4.95437 24.8058 4.7862 25.617L0.86948 24.805C0.589192 26.157 1.45798 27.4802 2.8099 27.7605L3.62195 23.8437ZM1.84866 25.008C2.01683 24.1968 2.81073 23.6756 3.62193 23.8437L2.80993 27.7605C4.1619 28.0407 5.48509 27.172 5.76537 25.82L1.84866 25.008ZM21.5975 2.35706C11.4802 5.45113 4.0011 14.6257 1.84866 25.008L5.76537 25.82C7.66158 16.6736 14.2277 8.79378 22.7673 6.18219L21.5975 2.35706ZM56.2145 15.9345C44.3214 2.4308 31.8281 -0.771645 21.5975 2.35706L22.7673 6.18219C31.118 3.62838 42.0683 5.92465 53.2127 18.5782L56.2145 15.9345ZM55.0854 15.4259C55.5175 15.4249 55.9289 15.6102 56.2145 15.9344L53.2128 18.5782C53.6887 19.1186 54.3745 19.4275 55.0946 19.4259L55.0854 15.4259ZM53.9586 15.9396C54.2427 15.6141 54.6534 15.4269 55.0854 15.4259L55.0946 19.4259C55.8147 19.4242 56.4991 19.1121 56.9725 18.5696L53.9586 15.9396Z" fill="black"/>
</svg>
