<svg width="88" height="74" viewBox="0 0 88 74" fill="none" xmlns="http://www.w3.org/2000/svg">
<path fill-rule="evenodd" clip-rule="evenodd" d="M44.4456 13.9329C50.8295 6.61708 57.2712 3.45383 63.0218 3.04028C68.772 2.62676 73.9098 4.95633 77.7077 8.78101C85.3257 16.4528 87.4553 30.01 78.3503 39.2159L75.2781 42.0488C75.1869 41.9271 75.0415 41.8484 74.8777 41.8484H62.9241C62.7667 41.8484 62.6185 41.9225 62.5241 42.0484L51.027 57.3779L35.4663 30.1467C35.3828 30.0005 35.2313 29.9062 35.0633 29.8957C34.8952 29.8853 34.7332 29.9601 34.6322 30.0948L22.8285 45.833H3.15576C2.87962 45.833 2.65576 46.0568 2.65576 46.333C2.65576 46.6091 2.87962 46.833 3.15576 46.833H23.0785C23.2359 46.833 23.3841 46.7589 23.4785 46.633L34.9756 31.3035L50.5363 58.5347C50.6198 58.6809 50.7713 58.7752 50.9394 58.7857C51.1074 58.7961 51.2694 58.7213 51.3704 58.5866L63.1741 42.8484H74.4109L44.0701 70.8258L24.1463 52.3207C23.944 52.1327 23.6276 52.1444 23.4397 52.3468C23.2517 52.5491 23.2634 52.8655 23.4657 53.0534L43.7286 71.8734C43.9199 72.0511 44.2158 72.0516 44.4078 71.8746L79.0366 39.9433C79.0422 39.9382 79.0476 39.9329 79.053 39.9275C88.6332 30.2508 86.3392 16.0543 78.4173 8.07639C74.444 4.07509 69.0308 1.60557 62.95 2.04286C56.9862 2.47174 50.4558 5.69054 44.0671 12.8505C35.0569 2.84714 25.7501 0.602414 18.2098 2.90837C10.6022 5.23493 4.93623 12.1563 3.30451 20.027C3.24846 20.2973 3.42221 20.562 3.6926 20.618C3.963 20.6741 4.22764 20.5003 4.28369 20.23C5.85137 12.6682 11.2892 6.07057 18.5023 3.86465C25.6776 1.6703 34.7536 3.78394 43.6936 13.9347C43.7888 14.0427 43.926 14.1045 44.07 14.1042C44.214 14.1039 44.3509 14.0414 44.4456 13.9329Z" fill="#4C4C4E"/>
<path d="M63.0218 3.04028L63.1652 5.03513L63.0218 3.04028ZM44.4456 13.9329L42.9387 12.618L42.9387 12.618L44.4456 13.9329ZM77.7077 8.78101L76.2885 10.1902L77.7077 8.78101ZM78.3503 39.2159L79.7061 40.6862C79.7286 40.6654 79.7507 40.6441 79.7723 40.6223L78.3503 39.2159ZM75.2781 42.0488L73.6778 43.2484C74.0171 43.7011 74.5323 43.9889 75.0957 44.0405C75.6591 44.0921 76.2179 43.9027 76.6339 43.5191L75.2781 42.0488ZM62.5241 42.0484L60.9241 40.8484L60.9241 40.8484L62.5241 42.0484ZM51.027 57.3779L49.2905 58.3701C49.6246 58.9549 50.2306 59.3322 50.9027 59.374C51.5749 59.4159 52.2229 59.1166 52.627 58.5779L51.027 57.3779ZM35.4663 30.1467L37.2028 29.1544V29.1544L35.4663 30.1467ZM35.0633 29.8957L34.939 31.8919H34.939L35.0633 29.8957ZM34.6322 30.0948L36.2322 31.2948L36.2322 31.2947L34.6322 30.0948ZM22.8285 45.833V47.833C23.458 47.833 24.0508 47.5366 24.4285 47.033L22.8285 45.833ZM23.4785 46.633L21.8785 45.433L21.8785 45.433L23.4785 46.633ZM34.9756 31.3035L36.7121 30.3113C36.378 29.7265 35.772 29.3492 35.0999 29.3074C34.4278 29.2655 33.7797 29.5648 33.3756 30.1035L34.9756 31.3035ZM50.5363 58.5347L52.2728 57.5424L52.2728 57.5424L50.5363 58.5347ZM50.9394 58.7857L51.0637 56.7895L51.0636 56.7895L50.9394 58.7857ZM51.3704 58.5866L52.9704 59.7866L51.3704 58.5866ZM63.1741 42.8484V40.8484C62.5446 40.8484 61.9518 41.1448 61.5741 41.6484L63.1741 42.8484ZM74.4109 42.8484L75.7667 44.3187C76.3723 43.7604 76.5735 42.8878 76.2738 42.1206C75.9741 41.3534 75.2346 40.8484 74.4109 40.8484V42.8484ZM44.0701 70.8258L42.709 72.2912C43.4744 73.0021 44.6579 73.0042 45.4259 72.2961L44.0701 70.8258ZM24.1463 52.3207L25.5074 50.8552L25.5074 50.8552L24.1463 52.3207ZM23.4397 52.3468L24.9051 53.7078L24.9051 53.7078L23.4397 52.3468ZM23.4657 53.0534L24.8268 51.588L24.8268 51.5879L23.4657 53.0534ZM43.7286 71.8734L42.3675 73.3388L42.3675 73.3388L43.7286 71.8734ZM44.4078 71.8746L45.7636 73.3449L45.7636 73.3449L44.4078 71.8746ZM79.0366 39.9433L77.6809 38.473L77.6808 38.473L79.0366 39.9433ZM79.053 39.9275L77.6317 38.5204L77.6312 38.5209L79.053 39.9275ZM78.4173 8.07639L79.8364 6.66716V6.66716L78.4173 8.07639ZM62.95 2.04286L62.8066 0.0480121L62.95 2.04286ZM44.0671 12.8505L42.5811 14.189C42.9614 14.6113 43.5035 14.8518 44.0718 14.8505C44.6401 14.8491 45.181 14.6061 45.5594 14.182L44.0671 12.8505ZM18.2098 2.90837L17.6249 0.995809L18.2098 2.90837ZM3.30451 20.027L1.34616 19.621H1.34616L3.30451 20.027ZM3.6926 20.618L3.2866 22.5764H3.2866L3.6926 20.618ZM4.28369 20.23L6.24205 20.636L6.24205 20.636L4.28369 20.23ZM18.5023 3.86465L17.9174 1.95209V1.95209L18.5023 3.86465ZM43.6936 13.9347L45.1945 12.6128L45.1945 12.6128L43.6936 13.9347ZM44.07 14.1042L44.0654 12.1042H44.0654L44.07 14.1042ZM62.8783 1.04544C56.468 1.50643 49.5704 5.01804 42.9387 12.618L45.9525 15.2479C52.0885 8.21613 58.0744 5.40124 63.1652 5.03513L62.8783 1.04544ZM79.1268 7.37178C74.9781 3.19372 69.2895 0.584383 62.8783 1.04544L63.1652 5.03513C68.2546 4.66914 72.8415 6.71895 76.2885 10.1902L79.1268 7.37178ZM79.7723 40.6223C89.8074 30.4761 87.3493 15.6523 79.1268 7.37178L76.2885 10.1902C83.302 17.2533 85.1033 29.544 76.9283 37.8095L79.7723 40.6223ZM76.6339 43.5191L79.7061 40.6862L76.9945 37.7456L73.9223 40.5785L76.6339 43.5191ZM74.8777 43.8484C74.3852 43.8484 73.948 43.6089 73.6778 43.2484L76.8784 40.8492C76.4258 40.2454 75.6979 39.8484 74.8777 39.8484V43.8484ZM62.9241 43.8484H74.8777V39.8484H62.9241V43.8484ZM64.1241 43.2484C63.8408 43.6261 63.3962 43.8484 62.9241 43.8484V39.8484C62.1372 39.8484 61.3962 40.2189 60.9241 40.8484L64.1241 43.2484ZM52.627 58.5779L64.1241 43.2484L60.9241 40.8484L49.427 56.1779L52.627 58.5779ZM33.7298 31.139L49.2905 58.3701L52.7635 56.3856L37.2028 29.1544L33.7298 31.139ZM34.939 31.8919C34.4349 31.8605 33.9804 31.5775 33.7298 31.139L37.2028 29.1544C36.7852 28.4235 36.0277 27.9519 35.1875 27.8996L34.939 31.8919ZM36.2322 31.2947C35.9291 31.6988 35.4431 31.9232 34.939 31.8919L35.1875 27.8996C34.3474 27.8473 33.5373 28.2213 33.0322 28.8948L36.2322 31.2947ZM24.4285 47.033L36.2322 31.2948L33.0322 28.8948L21.2285 44.633L24.4285 47.033ZM3.15576 47.833H22.8285V43.833H3.15576V47.833ZM4.65576 46.333C4.65576 47.1614 3.98419 47.833 3.15576 47.833V43.833C1.77505 43.833 0.655762 44.9523 0.655762 46.333H4.65576ZM3.15576 44.833C3.98419 44.833 4.65576 45.5045 4.65576 46.333H0.655762C0.655762 47.7137 1.77505 48.833 3.15576 48.833V44.833ZM23.0785 44.833H3.15576V48.833H23.0785V44.833ZM21.8785 45.433C22.1618 45.0553 22.6064 44.833 23.0785 44.833V48.833C23.8654 48.833 24.6064 48.4625 25.0785 47.833L21.8785 45.433ZM33.3756 30.1035L21.8785 45.433L25.0785 47.833L36.5756 32.5035L33.3756 30.1035ZM52.2728 57.5424L36.7121 30.3113L33.2391 32.2958L48.7998 59.527L52.2728 57.5424ZM51.0636 56.7895C51.5677 56.8209 52.0222 57.1039 52.2728 57.5424L48.7998 59.527C49.2175 60.2579 49.9749 60.7295 50.8151 60.7818L51.0636 56.7895ZM49.7704 57.3866C50.0735 56.9826 50.5595 56.7581 51.0637 56.7895L50.815 60.7818C51.6552 60.8341 52.4653 60.4601 52.9704 59.7866L49.7704 57.3866ZM61.5741 41.6484L49.7704 57.3866L52.9704 59.7866L64.7741 44.0484L61.5741 41.6484ZM74.4109 40.8484H63.1741V44.8484H74.4109V40.8484ZM45.4259 72.2961L75.7667 44.3187L73.0551 41.3781L42.7143 69.3554L45.4259 72.2961ZM22.7852 53.7861L42.709 72.2912L45.4312 69.3603L25.5074 50.8552L22.7852 53.7861ZM24.9051 53.7078C24.3413 54.3148 23.3922 54.3499 22.7852 53.7861L25.5074 50.8552C24.4957 49.9156 22.9139 49.974 21.9742 50.9857L24.9051 53.7078ZM24.8268 51.5879C25.4338 52.1517 25.4689 53.1008 24.9051 53.7078L21.9742 50.9857C21.0346 51.9973 21.093 53.5792 22.1047 54.5188L24.8268 51.5879ZM45.0897 70.4079L24.8268 51.588L22.1047 54.5188L42.3675 73.3388L45.0897 70.4079ZM43.052 70.4042C43.628 69.8732 44.5156 69.8748 45.0897 70.4079L42.3675 73.3388C43.3242 74.2274 44.8037 74.23 45.7636 73.3449L43.052 70.4042ZM77.6808 38.473L43.052 70.4043L45.7636 73.3449L80.3924 41.4137L77.6808 38.473ZM77.6312 38.5209C77.6479 38.504 77.6645 38.4881 77.6809 38.473L80.3923 41.4137C80.4199 41.3883 80.4474 41.3618 80.4747 41.3342L77.6312 38.5209ZM76.9981 9.48562C84.3177 16.857 86.2789 29.7861 77.6317 38.5204L80.4742 41.3347C90.9875 30.7156 88.3607 15.2516 79.8364 6.66716L76.9981 9.48562ZM63.0935 4.03771C68.5131 3.64796 73.3755 5.83747 76.9981 9.48562L79.8364 6.66716C75.5125 2.3127 69.5486 -0.436831 62.8066 0.0480121L63.0935 4.03771ZM45.5594 14.182C51.6977 7.30273 57.7762 4.42009 63.0935 4.03771L62.8066 0.0480121C56.1962 0.523386 49.2139 4.07835 42.5748 11.5189L45.5594 14.182ZM18.7947 4.82093C25.4102 2.79778 33.9507 4.60735 42.5811 14.189L45.5532 11.5119C36.1632 1.08692 26.0899 -1.59295 17.6249 0.995809L18.7947 4.82093ZM5.26287 20.433C6.76657 13.1798 11.9764 6.90613 18.7947 4.82093L17.6249 0.995809C9.22808 3.56374 3.10589 11.1328 1.34616 19.621L5.26287 20.433ZM4.0986 18.6597C4.90978 18.8279 5.43104 19.6218 5.26287 20.433L1.34616 19.621C1.06587 20.9729 1.93464 22.2961 3.2866 22.5764L4.0986 18.6597ZM2.32534 19.8239C2.49351 19.0128 3.28743 18.4915 4.0986 18.6597L3.2866 22.5764C4.63857 22.8567 5.96176 21.9879 6.24205 20.636L2.32534 19.8239ZM17.9174 1.95209C9.91551 4.39923 4.02114 11.6442 2.32534 19.824L6.24205 20.636C7.6816 13.6922 12.6628 7.74191 19.0872 5.77721L17.9174 1.95209ZM45.1945 12.6128C35.88 2.03691 26.0325 -0.529675 17.9174 1.95209L19.0872 5.77721C25.3227 3.87028 33.6271 5.53098 42.1928 15.2565L45.1945 12.6128ZM44.0654 12.1042C44.4975 12.1032 44.909 12.2886 45.1945 12.6128L42.1928 15.2565C42.6687 15.7969 43.3545 16.1058 44.0746 16.1042L44.0654 12.1042ZM42.9387 12.618C43.2227 12.2924 43.6334 12.1052 44.0654 12.1042L44.0746 16.1042C44.7947 16.1025 45.4791 15.7905 45.9525 15.2479L42.9387 12.618Z" fill="#4C4C4E"/>
</svg>
