<svg width="60" height="60" viewBox="0 0 60 60" fill="none" xmlns="http://www.w3.org/2000/svg">
<path fill-rule="evenodd" clip-rule="evenodd" d="M30 0C13.431 0 0 13.431 0 30C0 46.569 13.431 60 30 60C46.569 60 60 46.569 60 30C60 13.431 46.569 0 30 0ZM28.3025 4.05452C28.8637 4.01836 29.4297 4 30 4C30.5701 4 31.1359 4.01835 31.6968 4.05448C31.8878 4.34173 32.1271 4.71408 32.4018 5.16737C33.1485 6.39952 34.1546 8.22553 35.1634 10.5628C36.0886 12.7061 37.0133 15.2725 37.7437 18.2001H22.2556C22.986 15.2725 23.9107 12.7061 24.8359 10.5628C25.8448 8.22553 26.8508 6.39952 27.5976 5.16737C27.8723 4.7141 28.1115 4.34177 28.3025 4.05452ZM23.1325 4.91652C16.0149 6.8606 10.1146 11.7531 6.82546 18.2001H18.1425C18.9632 14.6291 20.0636 11.5255 21.1634 8.97752C21.8401 7.41003 22.5178 6.04971 23.1325 4.91652ZM5.19016 22.2001C4.41687 24.6624 4 27.2825 4 30C4 32.7176 4.4169 35.3378 5.19024 37.8001H17.3832C17.0171 35.3637 16.7997 32.7565 16.7997 30.0001C16.7997 27.2438 17.0171 24.6366 17.3832 22.2001H5.19016ZM6.8256 41.8001C10.1147 48.247 16.0149 53.1394 23.1324 55.0834C22.5176 53.9503 21.84 52.5901 21.1634 51.0228C20.0636 48.4748 18.9632 45.3712 18.1425 41.8001H6.8256ZM28.3023 55.9455C28.8635 55.9816 29.4296 56 30 56C30.5701 56 31.136 55.9816 31.697 55.9455C31.8879 55.6583 32.1271 55.2861 32.4018 54.8329C33.1485 53.6008 34.1546 51.7747 35.1634 49.4375C36.0886 47.2942 37.0133 44.7278 37.7437 41.8001H22.2556C22.986 44.7278 23.9107 47.2942 24.8359 49.4375C25.8448 51.7747 26.8508 53.6008 27.5976 54.8329C27.8722 55.286 28.1114 55.6583 28.3023 55.9455ZM36.8669 55.0836C43.9847 53.1397 49.8852 48.2472 53.1744 41.8001H41.8568C41.0361 45.3712 39.9357 48.4748 38.8359 51.0228C38.1593 52.5902 37.4816 53.9505 36.8669 55.0836ZM54.8098 37.8001C55.5831 35.3378 56 32.7176 56 30C56 27.2825 55.5831 24.6624 54.8098 22.2001H42.6161C42.9823 24.6366 43.1997 27.2438 43.1997 30.0001C43.1997 32.7565 42.9823 35.3637 42.6161 37.8001H54.8098ZM53.1745 18.2001C49.8853 11.7528 43.9847 6.86024 36.8667 4.91631C37.4815 6.04954 38.1593 7.40993 38.8359 8.97752C39.9357 11.5255 41.0361 14.6291 41.8568 18.2001H53.1745ZM20.7997 30.0001C20.7997 27.2295 21.0377 24.6208 21.432 22.2001H38.5674C38.9617 24.6208 39.1997 27.2295 39.1997 30.0001C39.1997 32.7708 38.9617 35.3795 38.5674 37.8001H21.432C21.0377 35.3795 20.7997 32.7708 20.7997 30.0001Z" fill="black"/>
</svg>
