<svg width="68" height="68" viewBox="0 0 68 68" fill="none" xmlns="http://www.w3.org/2000/svg">
<path fill-rule="evenodd" clip-rule="evenodd" d="M33.9999 0.292236C15.383 0.292236 0.291992 15.3833 0.291992 34.0001C0.291992 52.6169 15.383 67.708 33.9999 67.708C52.6167 67.708 67.7077 52.6169 67.7077 34.0001C67.7077 15.3833 52.6167 0.292236 33.9999 0.292236ZM32.0926 4.84788C32.7231 4.80725 33.3591 4.78662 33.9999 4.78662C34.6404 4.78662 35.2761 4.80723 35.9064 4.84783C36.1209 5.17059 36.3898 5.58895 36.6985 6.09826C37.5375 7.48271 38.6679 9.5344 39.8015 12.1605C40.841 14.5687 41.88 17.4523 42.7007 20.7418H25.2983C26.119 17.4523 27.158 14.5687 28.1975 12.1605C29.3311 9.5344 30.4614 7.48271 31.3005 6.09826C31.6092 5.58898 31.878 5.17063 32.0926 4.84788ZM26.2836 5.81641C18.2862 8.00077 11.6567 13.4979 7.96105 20.7418H20.6769C21.599 16.7294 22.8354 13.2422 24.0711 10.3793C24.8314 8.61811 25.5929 7.08966 26.2836 5.81641ZM6.12363 25.2362C5.25477 28.0028 4.78637 30.9467 4.78637 34.0001C4.78637 37.0536 5.2548 39.9976 6.12372 42.7643H19.8237C19.4123 40.0267 19.168 37.0973 19.168 34.0003C19.168 30.9033 19.4123 27.9738 19.8237 25.2362H6.12363ZM7.96121 47.2587C11.6568 54.5024 18.2862 59.9994 26.2834 62.1837C25.5927 60.9106 24.8313 59.3822 24.0711 57.6212C22.8354 54.7583 21.599 51.2711 20.6769 47.2587H7.96121ZM32.0923 63.1523C32.7229 63.193 33.359 63.2136 33.9999 63.2136C34.6405 63.2136 35.2763 63.193 35.9066 63.1524C36.1211 62.8296 36.3899 62.4114 36.6985 61.9023C37.5375 60.5178 38.6679 58.4661 39.8015 55.84C40.841 53.4318 41.88 50.5482 42.7007 47.2587H25.2983C26.119 50.5482 27.158 53.4318 28.1975 55.84C29.3311 58.4661 30.4614 60.5178 31.3005 61.9023C31.6091 62.4114 31.8778 62.8296 32.0923 63.1523ZM41.7155 62.184C49.713 59.9998 56.3428 54.5026 60.0385 47.2587H47.3221C46.4 51.2711 45.1636 54.7583 43.9278 57.6212C43.1676 59.3824 42.4062 60.9107 41.7155 62.184ZM61.876 42.7643C62.7449 39.9976 63.2133 37.0536 63.2133 34.0001C63.2133 30.9467 62.7449 28.0028 61.8761 25.2362H48.1753C48.5867 27.9738 48.8309 30.9033 48.8309 34.0003C48.8309 37.0973 48.5867 40.0267 48.1753 42.7643H61.876ZM60.0387 20.7418C56.3429 13.4977 49.713 8.00037 41.7153 5.81618C42.406 7.08948 43.1676 8.618 43.9278 10.3793C45.1636 13.2422 46.4 16.7294 47.3221 20.7418H60.0387ZM23.6624 34.0003C23.6624 30.8872 23.9298 27.9561 24.3728 25.2362H43.6261C44.0692 27.9561 44.3366 30.8872 44.3366 34.0003C44.3366 37.1133 44.0692 40.0444 43.6261 42.7643H24.3728C23.9298 40.0444 23.6624 37.1133 23.6624 34.0003Z" fill="black"/>
</svg>
