<svg width="172" height="69" viewBox="0 0 172 69" fill="none" xmlns="http://www.w3.org/2000/svg">
<rect x="1.5" y="1.5" width="169" height="66" rx="21.5" fill="white"/>
<rect x="1.5" y="1.5" width="169" height="66" rx="21.5" stroke="#4C4C4E" stroke-width="3"/>
<path d="M35.959 28.2227C37.8014 28.2227 39.1458 28.6003 39.9922 29.3555C40.8385 30.1107 41.2617 31.1686 41.2617 32.5293C41.2617 33.1478 41.1641 33.737 40.9688 34.2969C40.7799 34.8503 40.4674 35.3418 40.0312 35.7715C39.5951 36.1947 39.0189 36.5299 38.3027 36.7773C37.5931 37.0247 36.7174 37.1484 35.6758 37.1484H34.1523V42.5H31.8086V28.2227H35.959ZM35.8027 30.166H34.1523V35.1953H35.4316C36.1673 35.1953 36.7923 35.1107 37.3066 34.9414C37.821 34.7656 38.2116 34.4889 38.4785 34.1113C38.7454 33.7337 38.8789 33.2357 38.8789 32.6172C38.8789 31.7904 38.6283 31.1751 38.127 30.7715C37.6322 30.3678 36.8574 30.166 35.8027 30.166ZM49.3574 31.4844C49.5397 31.4844 49.7383 31.4941 49.9531 31.5137C50.168 31.5332 50.3535 31.5592 50.5098 31.5918L50.2949 33.7402C50.1582 33.7012 49.9889 33.6719 49.7871 33.6523C49.5918 33.6328 49.416 33.623 49.2598 33.623C48.8496 33.623 48.459 33.6914 48.0879 33.8281C47.7168 33.9583 47.388 34.1602 47.1016 34.4336C46.8151 34.7005 46.5905 35.0358 46.4277 35.4395C46.265 35.8431 46.1836 36.3118 46.1836 36.8457V42.5H43.8789V31.6895H45.6758L45.9883 33.5938H46.0957C46.3105 33.2096 46.5775 32.8581 46.8965 32.5391C47.2155 32.2201 47.5801 31.9661 47.9902 31.7773C48.4069 31.582 48.8626 31.4844 49.3574 31.4844ZM62.082 37.0703C62.082 37.9688 61.9648 38.7663 61.7305 39.4629C61.4961 40.1595 61.1543 40.7487 60.7051 41.2305C60.2559 41.7057 59.7155 42.0703 59.084 42.3242C58.4525 42.5716 57.7396 42.6953 56.9453 42.6953C56.2031 42.6953 55.5228 42.5716 54.9043 42.3242C54.2858 42.0703 53.7487 41.7057 53.293 41.2305C52.8438 40.7487 52.4954 40.1595 52.248 39.4629C52.0007 38.7663 51.877 37.9688 51.877 37.0703C51.877 35.8789 52.082 34.8698 52.4922 34.043C52.9089 33.2096 53.5013 32.5749 54.2695 32.1387C55.0378 31.7025 55.9525 31.4844 57.0137 31.4844C58.0098 31.4844 58.8887 31.7025 59.6504 32.1387C60.4121 32.5749 61.0078 33.2096 61.4375 34.043C61.8672 34.8763 62.082 35.8854 62.082 37.0703ZM54.2402 37.0703C54.2402 37.8581 54.3346 38.5319 54.5234 39.0918C54.7188 39.6517 55.0182 40.0814 55.4219 40.3809C55.8255 40.6738 56.3464 40.8203 56.9844 40.8203C57.6224 40.8203 58.1432 40.6738 58.5469 40.3809C58.9505 40.0814 59.2467 39.6517 59.4355 39.0918C59.6243 38.5319 59.7188 37.8581 59.7188 37.0703C59.7188 36.2826 59.6243 35.6152 59.4355 35.0684C59.2467 34.515 58.9505 34.0951 58.5469 33.8086C58.1432 33.5156 57.6191 33.3691 56.9746 33.3691C56.0241 33.3691 55.3307 33.6882 54.8945 34.3262C54.4583 34.9642 54.2402 35.8789 54.2402 37.0703ZM70.1191 33.4375H67.4922V42.5H65.1973V33.4375H63.4297V32.334L65.1973 31.6602V30.9082C65.1973 29.9902 65.3405 29.2611 65.627 28.7207C65.9199 28.1803 66.3366 27.793 66.877 27.5586C67.4238 27.3177 68.0749 27.1973 68.8301 27.1973C69.3249 27.1973 69.7773 27.2396 70.1875 27.3242C70.5977 27.4023 70.9427 27.4935 71.2227 27.5977L70.627 29.3359C70.4056 29.2643 70.1582 29.1992 69.8848 29.1406C69.6113 29.0755 69.3184 29.043 69.0059 29.043C68.485 29.043 68.1009 29.2057 67.8535 29.5312C67.6126 29.8568 67.4922 30.332 67.4922 30.957V31.6895H70.1191V33.4375ZM74.25 31.6895V42.5H71.9551V31.6895H74.25ZM73.1172 27.5488C73.4688 27.5488 73.7715 27.6432 74.0254 27.832C74.2858 28.0208 74.416 28.3464 74.416 28.8086C74.416 29.2643 74.2858 29.5898 74.0254 29.7852C73.7715 29.974 73.4688 30.0684 73.1172 30.0684C72.7526 30.0684 72.4434 29.974 72.1895 29.7852C71.9421 29.5898 71.8184 29.2643 71.8184 28.8086C71.8184 28.3464 71.9421 28.0208 72.1895 27.832C72.4434 27.6432 72.7526 27.5488 73.1172 27.5488ZM79.8359 42.5H77.5312V27.3047H79.8359V42.5ZM87.4238 31.4844C88.3874 31.4844 89.2142 31.6829 89.9043 32.0801C90.5944 32.4772 91.125 33.0404 91.4961 33.7695C91.8672 34.4987 92.0527 35.3711 92.0527 36.3867V37.6172H84.8359C84.862 38.6654 85.1419 39.4727 85.6758 40.0391C86.2161 40.6055 86.9714 40.8887 87.9414 40.8887C88.6315 40.8887 89.25 40.8236 89.7969 40.6934C90.3503 40.5566 90.9199 40.3581 91.5059 40.0977V41.9629C90.9655 42.2168 90.4154 42.4023 89.8555 42.5195C89.2956 42.6367 88.625 42.6953 87.8438 42.6953C86.7826 42.6953 85.8483 42.4902 85.041 42.0801C84.2402 41.6634 83.612 41.0449 83.1562 40.2246C82.707 39.4043 82.4824 38.3854 82.4824 37.168C82.4824 35.957 82.6875 34.9284 83.0977 34.082C83.5078 33.2357 84.084 32.5911 84.8262 32.1484C85.5684 31.7057 86.4342 31.4844 87.4238 31.4844ZM87.4238 33.2129C86.7012 33.2129 86.1152 33.4473 85.666 33.916C85.2233 34.3848 84.9629 35.0716 84.8848 35.9766H89.8066C89.8001 35.4362 89.709 34.9577 89.5332 34.541C89.3639 34.1243 89.1035 33.7988 88.752 33.5645C88.4069 33.3301 87.9642 33.2129 87.4238 33.2129Z" fill="#4C4C4E"/>
<path d="M103 50C103 47.3478 104.054 44.8043 105.929 42.9289C107.804 41.0536 110.348 40 113 40H133C135.652 40 138.196 41.0536 140.071 42.9289C141.946 44.8043 143 47.3478 143 50C143 51.3261 142.473 52.5979 141.536 53.5355C140.598 54.4732 139.326 55 138 55H108C106.674 55 105.402 54.4732 104.464 53.5355C103.527 52.5979 103 51.3261 103 50Z" fill="#FEC341" stroke="#4C4C4E" stroke-width="3" stroke-linejoin="round"/>
<path d="M123 30C127.142 30 130.5 26.6421 130.5 22.5C130.5 18.3579 127.142 15 123 15C118.858 15 115.5 18.3579 115.5 22.5C115.5 26.6421 118.858 30 123 30Z" fill="#FEC341" stroke="#4C4C4E" stroke-width="3"/>
</svg>
