<svg width="44" height="43" viewBox="0 0 44 43" fill="none" xmlns="http://www.w3.org/2000/svg">
<path d="M2 36.5C2 33.8478 3.05357 31.3043 4.92893 29.4289C6.8043 27.5536 9.34784 26.5 12 26.5H32C34.6522 26.5 37.1957 27.5536 39.0711 29.4289C40.9464 31.3043 42 33.8478 42 36.5C42 37.8261 41.4732 39.0979 40.5355 40.0355C39.5979 40.9732 38.3261 41.5 37 41.5H7C5.67392 41.5 4.40215 40.9732 3.46447 40.0355C2.52678 39.0979 2 37.8261 2 36.5Z" fill="#FEC341" stroke="#4C4C4E" stroke-width="3" stroke-linejoin="round"/>
<path d="M22 16.5C26.1421 16.5 29.5 13.1421 29.5 9C29.5 4.85786 26.1421 1.5 22 1.5C17.8579 1.5 14.5 4.85786 14.5 9C14.5 13.1421 17.8579 16.5 22 16.5Z" fill="#FEC341" stroke="#4C4C4E" stroke-width="3"/>
</svg>
