<svg width="192" height="89" viewBox="0 0 192 89" fill="none" xmlns="http://www.w3.org/2000/svg">
<g filter="url(#filter0_d_273_284)">
<rect x="13" y="7" width="166" height="63" rx="20" fill="white" shape-rendering="crispEdges"/>
<rect x="10" y="4" width="172" height="69" rx="23" stroke="#4C4C4E" stroke-width="6" shape-rendering="crispEdges"/>
<path d="M45.959 32.2227C47.8014 32.2227 49.1458 32.6003 49.9922 33.3555C50.8385 34.1107 51.2617 35.1686 51.2617 36.5293C51.2617 37.1478 51.1641 37.737 50.9688 38.2969C50.7799 38.8503 50.4674 39.3418 50.0312 39.7715C49.5951 40.1947 49.0189 40.5299 48.3027 40.7773C47.5931 41.0247 46.7174 41.1484 45.6758 41.1484H44.1523V46.5H41.8086V32.2227H45.959ZM45.8027 34.166H44.1523V39.1953H45.4316C46.1673 39.1953 46.7923 39.1107 47.3066 38.9414C47.821 38.7656 48.2116 38.4889 48.4785 38.1113C48.7454 37.7337 48.8789 37.2357 48.8789 36.6172C48.8789 35.7904 48.6283 35.1751 48.127 34.7715C47.6322 34.3678 46.8574 34.166 45.8027 34.166ZM59.3574 35.4844C59.5397 35.4844 59.7383 35.4941 59.9531 35.5137C60.168 35.5332 60.3535 35.5592 60.5098 35.5918L60.2949 37.7402C60.1582 37.7012 59.9889 37.6719 59.7871 37.6523C59.5918 37.6328 59.416 37.623 59.2598 37.623C58.8496 37.623 58.459 37.6914 58.0879 37.8281C57.7168 37.9583 57.388 38.1602 57.1016 38.4336C56.8151 38.7005 56.5905 39.0358 56.4277 39.4395C56.265 39.8431 56.1836 40.3118 56.1836 40.8457V46.5H53.8789V35.6895H55.6758L55.9883 37.5938H56.0957C56.3105 37.2096 56.5775 36.8581 56.8965 36.5391C57.2155 36.2201 57.5801 35.9661 57.9902 35.7773C58.4069 35.582 58.8626 35.4844 59.3574 35.4844ZM72.082 41.0703C72.082 41.9688 71.9648 42.7663 71.7305 43.4629C71.4961 44.1595 71.1543 44.7487 70.7051 45.2305C70.2559 45.7057 69.7155 46.0703 69.084 46.3242C68.4525 46.5716 67.7396 46.6953 66.9453 46.6953C66.2031 46.6953 65.5228 46.5716 64.9043 46.3242C64.2858 46.0703 63.7487 45.7057 63.293 45.2305C62.8438 44.7487 62.4954 44.1595 62.248 43.4629C62.0007 42.7663 61.877 41.9688 61.877 41.0703C61.877 39.8789 62.082 38.8698 62.4922 38.043C62.9089 37.2096 63.5013 36.5749 64.2695 36.1387C65.0378 35.7025 65.9525 35.4844 67.0137 35.4844C68.0098 35.4844 68.8887 35.7025 69.6504 36.1387C70.4121 36.5749 71.0078 37.2096 71.4375 38.043C71.8672 38.8763 72.082 39.8854 72.082 41.0703ZM64.2402 41.0703C64.2402 41.8581 64.3346 42.5319 64.5234 43.0918C64.7188 43.6517 65.0182 44.0814 65.4219 44.3809C65.8255 44.6738 66.3464 44.8203 66.9844 44.8203C67.6224 44.8203 68.1432 44.6738 68.5469 44.3809C68.9505 44.0814 69.2467 43.6517 69.4355 43.0918C69.6243 42.5319 69.7188 41.8581 69.7188 41.0703C69.7188 40.2826 69.6243 39.6152 69.4355 39.0684C69.2467 38.515 68.9505 38.0951 68.5469 37.8086C68.1432 37.5156 67.6191 37.3691 66.9746 37.3691C66.0241 37.3691 65.3307 37.6882 64.8945 38.3262C64.4583 38.9642 64.2402 39.8789 64.2402 41.0703ZM80.1191 37.4375H77.4922V46.5H75.1973V37.4375H73.4297V36.334L75.1973 35.6602V34.9082C75.1973 33.9902 75.3405 33.2611 75.627 32.7207C75.9199 32.1803 76.3366 31.793 76.877 31.5586C77.4238 31.3177 78.0749 31.1973 78.8301 31.1973C79.3249 31.1973 79.7773 31.2396 80.1875 31.3242C80.5977 31.4023 80.9427 31.4935 81.2227 31.5977L80.627 33.3359C80.4056 33.2643 80.1582 33.1992 79.8848 33.1406C79.6113 33.0755 79.3184 33.043 79.0059 33.043C78.485 33.043 78.1009 33.2057 77.8535 33.5312C77.6126 33.8568 77.4922 34.332 77.4922 34.957V35.6895H80.1191V37.4375ZM84.25 35.6895V46.5H81.9551V35.6895H84.25ZM83.1172 31.5488C83.4688 31.5488 83.7715 31.6432 84.0254 31.832C84.2858 32.0208 84.416 32.3464 84.416 32.8086C84.416 33.2643 84.2858 33.5898 84.0254 33.7852C83.7715 33.974 83.4688 34.0684 83.1172 34.0684C82.7526 34.0684 82.4434 33.974 82.1895 33.7852C81.9421 33.5898 81.8184 33.2643 81.8184 32.8086C81.8184 32.3464 81.9421 32.0208 82.1895 31.832C82.4434 31.6432 82.7526 31.5488 83.1172 31.5488ZM89.8359 46.5H87.5312V31.3047H89.8359V46.5ZM97.4238 35.4844C98.3874 35.4844 99.2142 35.6829 99.9043 36.0801C100.594 36.4772 101.125 37.0404 101.496 37.7695C101.867 38.4987 102.053 39.3711 102.053 40.3867V41.6172H94.8359C94.862 42.6654 95.1419 43.4727 95.6758 44.0391C96.2161 44.6055 96.9714 44.8887 97.9414 44.8887C98.6315 44.8887 99.25 44.8236 99.7969 44.6934C100.35 44.5566 100.92 44.3581 101.506 44.0977V45.9629C100.965 46.2168 100.415 46.4023 99.8555 46.5195C99.2956 46.6367 98.625 46.6953 97.8438 46.6953C96.7826 46.6953 95.8483 46.4902 95.041 46.0801C94.2402 45.6634 93.612 45.0449 93.1562 44.2246C92.707 43.4043 92.4824 42.3854 92.4824 41.168C92.4824 39.957 92.6875 38.9284 93.0977 38.082C93.5078 37.2357 94.084 36.5911 94.8262 36.1484C95.5684 35.7057 96.4342 35.4844 97.4238 35.4844ZM97.4238 37.2129C96.7012 37.2129 96.1152 37.4473 95.666 37.916C95.2233 38.3848 94.9629 39.0716 94.8848 39.9766H99.8066C99.8001 39.4362 99.709 38.9577 99.5332 38.541C99.3639 38.1243 99.1035 37.7988 98.752 37.5645C98.4069 37.3301 97.9642 37.2129 97.4238 37.2129Z" fill="#4C4C4E"/>
<path d="M113 54C113 51.3478 114.054 48.8043 115.929 46.9289C117.804 45.0536 120.348 44 123 44H143C145.652 44 148.196 45.0536 150.071 46.9289C151.946 48.8043 153 51.3478 153 54C153 55.3261 152.473 56.5979 151.536 57.5355C150.598 58.4732 149.326 59 148 59H118C116.674 59 115.402 58.4732 114.464 57.5355C113.527 56.5979 113 55.3261 113 54Z" fill="#FEC341" stroke="#4C4C4E" stroke-width="3" stroke-linejoin="round"/>
<path d="M133 34C137.142 34 140.5 30.6421 140.5 26.5C140.5 22.3579 137.142 19 133 19C128.858 19 125.5 22.3579 125.5 26.5C125.5 30.6421 128.858 34 133 34Z" fill="#FEC341" stroke="#4C4C4E" stroke-width="3"/>
</g>
<defs>
<filter id="filter0_d_273_284" x="0" y="0" width="192" height="89" filterUnits="userSpaceOnUse" color-interpolation-filters="sRGB">
<feFlood flood-opacity="0" result="BackgroundImageFix"/>
<feColorMatrix in="SourceAlpha" type="matrix" values="0 0 0 0 0 0 0 0 0 0 0 0 0 0 0 0 0 0 127 0" result="hardAlpha"/>
<feMorphology radius="3" operator="dilate" in="SourceAlpha" result="effect1_dropShadow_273_284"/>
<feOffset dy="6"/>
<feGaussianBlur stdDeviation="2"/>
<feComposite in2="hardAlpha" operator="out"/>
<feColorMatrix type="matrix" values="0 0 0 0 0 0 0 0 0 0 0 0 0 0 0 0 0 0 0.25 0"/>
<feBlend mode="normal" in2="BackgroundImageFix" result="effect1_dropShadow_273_284"/>
<feBlend mode="normal" in="SourceGraphic" in2="effect1_dropShadow_273_284" result="shape"/>
</filter>
</defs>
</svg>
