<svg width="92" height="92" viewBox="0 0 92 92" fill="none" xmlns="http://www.w3.org/2000/svg">
<path d="M66 91C59.0767 91 53.18 88.5633 48.31 83.69C43.4367 78.82 41 72.9233 41 66C41 59.0767 43.4367 53.18 48.31 48.31C53.18 43.4367 59.0767 41 66 41C72.9233 41 78.82 43.4367 83.69 48.31C88.5633 53.18 91 59.0767 91 66C91 72.9233 88.5633 78.82 83.69 83.69C78.82 88.5633 72.9233 91 66 91ZM66 86C71.5 86 76.2083 84.0417 80.125 80.125C84.0417 76.2083 86 71.5 86 66C86 60.5 84.0417 55.7917 80.125 51.875C76.2083 47.9583 71.5 46 66 46C60.5 46 55.7917 47.9583 51.875 51.875C47.9583 55.7917 46 60.5 46 66C46 71.5 47.9583 76.2083 51.875 80.125C55.7917 84.0417 60.5 86 66 86ZM9.075 81C6.775 81 4.855 80.23 3.315 78.69C1.77167 77.1467 1 75.225 1 72.925V38.575C1 37.9083 1.12667 37.1467 1.38 36.29C1.63333 35.43 1.88333 34.6667 2.13 34L13.29 9.075H9.27C8.17333 9.075 7.32333 8.77333 6.72 8.17C6.11333 7.56333 5.81 6.71333 5.81 5.62V4.46C5.81 3.36333 6.11167 2.51333 6.715 1.91C7.32167 1.30333 8.17167 1 9.265 1H37.73C38.8267 1 39.6767 1.30333 40.28 1.91C40.8867 2.51333 41.19 3.36333 41.19 4.46V5.615C41.19 6.71167 40.8883 7.56167 40.285 8.165C39.6783 8.77167 38.8283 9.075 37.735 9.075H33.71L46.19 37.31C45.5067 37.6933 44.8233 38.1517 44.14 38.685C43.4633 39.2183 42.7883 39.81 42.115 40.46L28.35 9.075H18.655L6 37.71V72.925C6 73.8217 6.28833 74.5583 6.865 75.135C7.44167 75.7117 8.17833 76 9.075 76H32.44C32.6667 76.9167 32.9583 77.7967 33.315 78.64C33.6683 79.4833 34.0567 80.27 34.48 81H9.08H9.075ZM66 34.075C63.8467 33.4983 62.0583 32.3383 60.635 30.595C59.2117 28.8517 58.5 26.8067 58.5 24.46C58.5 22.1133 59.2117 20.0683 60.635 18.325C62.0583 16.5817 63.8467 15.4217 66 14.845V34.075C66.5767 31.9217 67.7367 30.1333 69.48 28.71C71.2233 27.2867 73.2683 26.575 75.615 26.575C77.9617 26.575 80.0067 27.2867 81.75 28.71C83.4933 30.1333 84.6533 31.9217 85.23 34.075H66Z" fill="black"/>
<path d="M66 34.075C63.8467 33.4983 62.0583 32.3383 60.635 30.595C59.2117 28.8517 58.5 26.8067 58.5 24.46C58.5 22.1133 59.2117 20.0683 60.635 18.325C62.0583 16.5817 63.8467 15.4217 66 14.845V34.075ZM66 34.075C66.5767 31.9217 67.7367 30.1333 69.48 28.71C71.2233 27.2867 73.2683 26.575 75.615 26.575C77.9617 26.575 80.0067 27.2867 81.75 28.71C83.4933 30.1333 84.6533 31.9217 85.23 34.075H66ZM66 91C59.0767 91 53.18 88.5633 48.31 83.69C43.4367 78.82 41 72.9233 41 66C41 59.0767 43.4367 53.18 48.31 48.31C53.18 43.4367 59.0767 41 66 41C72.9233 41 78.82 43.4367 83.69 48.31C88.5633 53.18 91 59.0767 91 66C91 72.9233 88.5633 78.82 83.69 83.69C78.82 88.5633 72.9233 91 66 91ZM66 86C71.5 86 76.2083 84.0417 80.125 80.125C84.0417 76.2083 86 71.5 86 66C86 60.5 84.0417 55.7917 80.125 51.875C76.2083 47.9583 71.5 46 66 46C60.5 46 55.7917 47.9583 51.875 51.875C47.9583 55.7917 46 60.5 46 66C46 71.5 47.9583 76.2083 51.875 80.125C55.7917 84.0417 60.5 86 66 86ZM9.075 81C6.775 81 4.855 80.23 3.315 78.69C1.77167 77.1467 1 75.225 1 72.925V38.575C1 37.9083 1.12667 37.1467 1.38 36.29C1.63333 35.43 1.88333 34.6667 2.13 34L13.29 9.075H9.27C8.17333 9.075 7.32333 8.77333 6.72 8.17C6.11333 7.56333 5.81 6.71333 5.81 5.62V4.46C5.81 3.36333 6.11167 2.51333 6.715 1.91C7.32167 1.30333 8.17167 1 9.265 1H37.73C38.8267 1 39.6767 1.30333 40.28 1.91C40.8867 2.51333 41.19 3.36333 41.19 4.46V5.615C41.19 6.71167 40.8883 7.56167 40.285 8.165C39.6783 8.77167 38.8283 9.075 37.735 9.075H33.71L46.19 37.31C45.5067 37.6933 44.8233 38.1517 44.14 38.685C43.4633 39.2183 42.7883 39.81 42.115 40.46L28.35 9.075H18.655L6 37.71V72.925C6 73.8217 6.28833 74.5583 6.865 75.135C7.44167 75.7117 8.17833 76 9.075 76H32.44C32.6667 76.9167 32.9583 77.7967 33.315 78.64C33.6683 79.4833 34.0567 80.27 34.48 81H9.08H9.075Z" stroke="black"/>
</svg>
