<svg width="72" height="72" viewBox="0 0 72 72" fill="none" xmlns="http://www.w3.org/2000/svg">
<path d="M51.5556 71C46.1707 71 41.5844 69.1048 37.7967 65.3144C34.0063 61.5267 32.1111 56.9404 32.1111 51.5556C32.1111 46.1707 34.0063 41.5844 37.7967 37.7967C41.5844 34.0063 46.1707 32.1111 51.5556 32.1111C56.9404 32.1111 61.5267 34.0063 65.3144 37.7967C69.1048 41.5844 71 46.1707 71 51.5556C71 56.9404 69.1048 61.5267 65.3144 65.3144C61.5267 69.1048 56.9404 71 51.5556 71ZM51.5556 67.1111C55.8333 67.1111 59.4954 65.588 62.5417 62.5417C65.588 59.4954 67.1111 55.8333 67.1111 51.5556C67.1111 47.2778 65.588 43.6157 62.5417 40.5694C59.4954 37.5231 55.8333 36 51.5556 36C47.2778 36 43.6157 37.5231 40.5694 40.5694C37.5231 43.6157 36 47.2778 36 51.5556C36 55.8333 37.5231 59.4954 40.5694 62.5417C43.6157 65.588 47.2778 67.1111 51.5556 67.1111ZM7.28055 63.2222C5.49167 63.2222 3.99833 62.6233 2.80056 61.4256C1.60019 60.2252 1 58.7306 1 56.9417V30.225C1 29.7065 1.09852 29.1141 1.29556 28.4478C1.49259 27.7789 1.68704 27.1852 1.87889 26.6667L10.5589 7.28055H7.43222C6.57926 7.28055 5.91815 7.04593 5.44889 6.57667C4.97704 6.10482 4.74111 5.4437 4.74111 4.59333V3.69111C4.74111 2.83815 4.97574 2.17704 5.445 1.70778C5.91685 1.23593 6.57796 1 7.42833 1H29.5678C30.4207 1 31.0819 1.23593 31.5511 1.70778C32.023 2.17704 32.2589 2.83815 32.2589 3.69111V4.58944C32.2589 5.44241 32.0243 6.10352 31.555 6.57278C31.0831 7.04463 30.422 7.28055 29.5717 7.28055H26.4411L36.1478 29.2411C35.6163 29.5393 35.0848 29.8957 34.5533 30.3106C34.027 30.7254 33.502 31.1856 32.9783 31.6911L22.2722 7.28055H14.7317L4.88889 29.5522V56.9417C4.88889 57.6391 5.11315 58.212 5.56167 58.6606C6.01018 59.1091 6.58315 59.3333 7.28055 59.3333H25.4533C25.6296 60.0463 25.8565 60.7307 26.1339 61.3867C26.4087 62.0426 26.7107 62.6544 27.04 63.2222H7.28444H7.28055ZM51.5556 26.725C49.8807 26.2765 48.4898 25.3743 47.3828 24.0183C46.2757 22.6624 45.7222 21.0719 45.7222 19.2467C45.7222 17.4215 46.2757 15.8309 47.3828 14.475C48.4898 13.1191 49.8807 12.2169 51.5556 11.7683V26.725C52.0041 25.0502 52.9063 23.6593 54.2622 22.5522C55.6181 21.4452 57.2087 20.8917 59.0339 20.8917C60.8591 20.8917 62.4496 21.4452 63.8056 22.5522C65.1615 23.6593 66.0637 25.0502 66.5122 26.725H51.5556Z" fill="#4C4C4E"/>
<path d="M51.5556 26.725C49.8807 26.2765 48.4898 25.3743 47.3828 24.0183C46.2757 22.6624 45.7222 21.0719 45.7222 19.2467C45.7222 17.4215 46.2757 15.8309 47.3828 14.475C48.4898 13.1191 49.8807 12.2169 51.5556 11.7683V26.725ZM51.5556 26.725C52.0041 25.0502 52.9063 23.6593 54.2622 22.5522C55.6181 21.4452 57.2087 20.8917 59.0339 20.8917C60.8591 20.8917 62.4496 21.4452 63.8056 22.5522C65.1615 23.6593 66.0637 25.0502 66.5122 26.725H51.5556ZM51.5556 71C46.1707 71 41.5844 69.1048 37.7967 65.3144C34.0063 61.5267 32.1111 56.9404 32.1111 51.5556C32.1111 46.1707 34.0063 41.5844 37.7967 37.7967C41.5844 34.0063 46.1707 32.1111 51.5556 32.1111C56.9404 32.1111 61.5267 34.0063 65.3144 37.7967C69.1048 41.5844 71 46.1707 71 51.5556C71 56.9404 69.1048 61.5267 65.3144 65.3144C61.5267 69.1048 56.9404 71 51.5556 71ZM51.5556 67.1111C55.8333 67.1111 59.4954 65.588 62.5417 62.5417C65.588 59.4954 67.1111 55.8333 67.1111 51.5556C67.1111 47.2778 65.588 43.6157 62.5417 40.5694C59.4954 37.5231 55.8333 36 51.5556 36C47.2778 36 43.6157 37.5231 40.5694 40.5694C37.5231 43.6157 36 47.2778 36 51.5556C36 55.8333 37.5231 59.4954 40.5694 62.5417C43.6157 65.588 47.2778 67.1111 51.5556 67.1111ZM7.28055 63.2222C5.49167 63.2222 3.99833 62.6233 2.80056 61.4256C1.60019 60.2252 1 58.7306 1 56.9417V30.225C1 29.7065 1.09852 29.1141 1.29556 28.4478C1.49259 27.7789 1.68704 27.1852 1.87889 26.6667L10.5589 7.28055H7.43222C6.57926 7.28055 5.91815 7.04593 5.44889 6.57667C4.97704 6.10481 4.74111 5.4437 4.74111 4.59333V3.69111C4.74111 2.83815 4.97574 2.17704 5.445 1.70778C5.91685 1.23593 6.57796 1 7.42833 1H29.5678C30.4207 1 31.0819 1.23593 31.5511 1.70778C32.023 2.17704 32.2589 2.83815 32.2589 3.69111V4.58944C32.2589 5.44241 32.0243 6.10352 31.555 6.57278C31.0831 7.04463 30.422 7.28055 29.5717 7.28055H26.4411L36.1478 29.2411C35.6163 29.5393 35.0848 29.8957 34.5533 30.3106C34.027 30.7254 33.502 31.1856 32.9783 31.6911L22.2722 7.28055H14.7317L4.88889 29.5522V56.9417C4.88889 57.6391 5.11315 58.212 5.56167 58.6606C6.01018 59.1091 6.58315 59.3333 7.28055 59.3333H25.4533C25.6296 60.0463 25.8565 60.7307 26.1339 61.3867C26.4087 62.0426 26.7107 62.6544 27.04 63.2222H7.28445H7.28055Z" stroke="#4C4C4E"/>
</svg>
