<svg width="253" height="66" viewBox="0 0 253 66" fill="none" xmlns="http://www.w3.org/2000/svg">
<path d="M65.9652 33.2861L65.9653 33.2848C66.3758 29.7815 63.341 27.4444 60.421 27.4444H8.57897C5.65758 27.4444 2.62393 29.786 3.03473 33.2854L3.03476 33.2856C3.83513 40.097 7.06802 46.4192 12.1628 51.2101C14.0841 53.0217 16.2386 54.5903 18.5727 55.8796C18.9796 56.106 19.0497 56.3867 19.0492 56.4834H19.0492V56.4972V57.4353C19.0491 58.186 19.2055 58.9259 19.5054 59.6115C19.8051 60.2966 20.2404 60.91 20.7797 61.4203C21.3187 61.9304 21.9513 62.3281 22.6382 62.5967L23.5488 60.2685C23.9417 60.4221 24.3627 60.5008 24.7877 60.5V63H24.7902C24.7909 63 24.7917 63 24.7924 63L44.2188 63H44.222C47.2526 63 49.9605 60.6464 49.9605 57.4444V56.1358C49.9778 56.1229 50.0024 56.1066 50.0365 56.0883C52.5193 54.7616 54.8061 53.1215 56.8338 51.2103C61.9295 46.4198 65.1636 40.0977 65.9652 33.2861ZM17.6656 11.6111C17.6656 10.2304 16.5463 9.11111 15.1656 9.11111C13.7849 9.11111 12.6656 10.2304 12.6656 11.6111V17.7222C12.6656 19.1029 13.7849 20.2222 15.1656 20.2222C16.5463 20.2222 17.6656 19.1029 17.6656 17.7222V11.6111ZM56.3344 11.6111C56.3344 10.2304 55.2151 9.11111 53.8344 9.11111C52.4537 9.11111 51.3344 10.2304 51.3344 11.6111V17.7222C51.3344 19.1029 52.4537 20.2222 53.8344 20.2222C55.2151 20.2222 56.3344 19.1029 56.3344 17.7222V11.6111ZM37 5.5C37 4.11929 35.8807 3 34.5 3C33.1193 3 32 4.11929 32 5.5V17.7222C32 19.1029 33.1193 20.2222 34.5 20.2222C35.8807 20.2222 37 19.1029 37 17.7222V5.5Z" stroke="#4C4C4E" stroke-width="5" stroke-linecap="round" stroke-linejoin="round"/>
<path d="M106.486 38.707C106.486 39.9717 106.247 41.0825 105.768 42.0396C105.29 42.9966 104.646 43.7884 103.837 44.415C102.88 45.167 101.826 45.7025 100.675 46.0215C99.536 46.3405 98.0833 46.5 96.3174 46.5H86.1318V21.0532H95.1211C96.9896 21.0532 98.4023 21.1273 99.3594 21.2754C100.328 21.4121 101.234 21.7083 102.077 22.1641C102.988 22.654 103.666 23.3091 104.11 24.1294C104.566 24.9497 104.794 25.8953 104.794 26.9663C104.794 28.2082 104.481 29.3133 103.854 30.2817C103.239 31.2502 102.384 31.9622 101.291 32.418V32.5547C102.863 32.8851 104.122 33.563 105.067 34.5884C106.013 35.6024 106.486 36.9753 106.486 38.707ZM98.2998 28.248C98.2998 27.8379 98.1916 27.4163 97.9751 26.9834C97.77 26.5505 97.4453 26.2371 97.001 26.0435C96.5794 25.8612 96.0781 25.7643 95.4971 25.7529C94.9274 25.7301 94.0729 25.7188 92.9336 25.7188H92.4893V31.1021H93.2925C94.3862 31.1021 95.1496 31.0907 95.5825 31.0679C96.0269 31.0451 96.4826 30.9255 96.9497 30.709C97.4624 30.4697 97.8156 30.1393 98.0093 29.7178C98.203 29.2962 98.2998 28.8063 98.2998 28.248ZM99.9062 38.5874C99.9062 37.8013 99.7467 37.186 99.4277 36.7417C99.1087 36.2974 98.6302 35.9613 97.9922 35.7334C97.6048 35.5853 97.0693 35.5055 96.3857 35.4941C95.7135 35.4714 94.8078 35.46 93.6685 35.46H92.4893V41.8345H92.8311C94.4945 41.8345 95.6452 41.8231 96.2832 41.8003C96.9212 41.7775 97.5706 41.6237 98.2314 41.3389C98.8125 41.0882 99.234 40.7236 99.4961 40.2451C99.7695 39.7552 99.9062 39.2026 99.9062 38.5874ZM122.704 32.9648H122.208C121.981 32.8851 121.65 32.8281 121.217 32.7939C120.784 32.7484 120.306 32.7256 119.782 32.7256C119.155 32.7256 118.494 32.8167 117.799 32.999C117.116 33.1813 116.449 33.3978 115.8 33.6484V46.5H109.818V27.3081H115.8V30.0596C116.073 29.8089 116.449 29.4956 116.928 29.1196C117.418 28.7323 117.862 28.4246 118.261 28.1968C118.694 27.9347 119.195 27.7126 119.765 27.5303C120.346 27.3366 120.893 27.2397 121.405 27.2397C121.599 27.2397 121.815 27.2454 122.055 27.2568C122.294 27.2682 122.51 27.2853 122.704 27.3081V32.9648ZM134.821 47.0127C131.198 47.0127 128.418 46.1468 126.481 44.415C124.556 42.6833 123.593 40.2166 123.593 37.0151C123.593 33.882 124.493 31.3812 126.293 29.5127C128.093 27.6442 130.611 26.71 133.847 26.71C136.786 26.71 138.996 27.5018 140.478 29.0854C141.959 30.6691 142.699 32.9364 142.699 35.8872V38.0405H129.591C129.648 38.9292 129.836 39.6755 130.155 40.2793C130.474 40.8717 130.896 41.3446 131.42 41.6978C131.933 42.0509 132.531 42.3073 133.214 42.4668C133.898 42.6149 134.644 42.689 135.453 42.689C136.148 42.689 136.832 42.6149 137.504 42.4668C138.176 42.3073 138.791 42.1022 139.35 41.8516C139.84 41.6351 140.29 41.4015 140.7 41.1509C141.121 40.9002 141.463 40.6781 141.725 40.4844H142.357V45.4233C141.868 45.617 141.417 45.7993 141.007 45.9702C140.609 46.1297 140.056 46.2949 139.35 46.4658C138.7 46.6367 138.028 46.7677 137.333 46.8589C136.649 46.9614 135.812 47.0127 134.821 47.0127ZM136.803 34.4346C136.769 33.1699 136.473 32.2072 135.915 31.5464C135.368 30.8856 134.525 30.5552 133.385 30.5552C132.223 30.5552 131.312 30.9027 130.651 31.5977C130.001 32.2926 129.643 33.2383 129.574 34.4346H136.803ZM156.354 41.4927V37.4937C155.34 37.5962 154.52 37.6873 153.893 37.7671C153.266 37.8354 152.651 37.9779 152.047 38.1943C151.523 38.3766 151.113 38.6558 150.817 39.0317C150.532 39.3963 150.39 39.8862 150.39 40.5015C150.39 41.4015 150.629 42.0225 151.107 42.3643C151.597 42.6947 152.315 42.8599 153.261 42.8599C153.785 42.8599 154.32 42.7402 154.867 42.501C155.414 42.2617 155.91 41.9256 156.354 41.4927ZM156.354 44.4663C155.944 44.8081 155.574 45.1157 155.243 45.3892C154.924 45.6626 154.491 45.936 153.944 46.2095C153.409 46.4715 152.885 46.6709 152.372 46.8076C151.871 46.9443 151.164 47.0127 150.253 47.0127C148.555 47.0127 147.143 46.443 146.015 45.3037C144.898 44.1644 144.34 42.7288 144.34 40.9971C144.34 39.5729 144.625 38.4222 145.194 37.5449C145.764 36.6676 146.584 35.9727 147.655 35.46C148.738 34.9359 150.031 34.5713 151.535 34.3662C153.039 34.1611 154.656 34.0016 156.388 33.8877V33.7852C156.388 32.7256 155.995 31.9964 155.209 31.5977C154.434 31.1875 153.266 30.9824 151.706 30.9824C150.999 30.9824 150.173 31.1134 149.228 31.3755C148.282 31.6261 147.359 31.9508 146.459 32.3496H145.946V27.7183C146.539 27.5474 147.496 27.348 148.817 27.1201C150.139 26.8809 151.472 26.7612 152.816 26.7612C156.12 26.7612 158.524 27.3138 160.028 28.4189C161.544 29.5127 162.301 31.1875 162.301 33.4434V46.5H156.354V44.4663ZM185.937 46.5H178.827L173.632 38.1431L172.709 39.3906V46.5H166.728V19.9082H172.709V34.8105L178.383 27.3081H185.441L178.725 35.5796L185.937 46.5ZM200.087 24.4199H199.625C199.398 24.3516 199.039 24.2661 198.549 24.1636C198.07 24.0496 197.615 23.9927 197.182 23.9927C195.974 23.9927 195.148 24.2148 194.704 24.6592C194.271 25.1035 194.054 25.9352 194.054 27.1543V27.3081H198.805V31.478H194.259V46.5H188.278V31.478H185.885V27.3081H188.278V26.7783C188.278 24.4313 188.893 22.6711 190.124 21.4976C191.354 20.3241 193.217 19.7373 195.712 19.7373C196.578 19.7373 197.387 19.7715 198.139 19.8398C198.891 19.8968 199.54 19.9766 200.087 20.0791V24.4199ZM211.793 41.4927V37.4937C210.779 37.5962 209.959 37.6873 209.333 37.7671C208.706 37.8354 208.091 37.9779 207.487 38.1943C206.963 38.3766 206.553 38.6558 206.256 39.0317C205.972 39.3963 205.829 39.8862 205.829 40.5015C205.829 41.4015 206.068 42.0225 206.547 42.3643C207.037 42.6947 207.755 42.8599 208.7 42.8599C209.224 42.8599 209.76 42.7402 210.307 42.501C210.854 42.2617 211.349 41.9256 211.793 41.4927ZM211.793 44.4663C211.383 44.8081 211.013 45.1157 210.683 45.3892C210.364 45.6626 209.931 45.936 209.384 46.2095C208.848 46.4715 208.324 46.6709 207.812 46.8076C207.31 46.9443 206.604 47.0127 205.692 47.0127C203.995 47.0127 202.582 46.443 201.454 45.3037C200.338 44.1644 199.779 42.7288 199.779 40.9971C199.779 39.5729 200.064 38.4222 200.634 37.5449C201.203 36.6676 202.024 35.9727 203.095 35.46C204.177 34.9359 205.47 34.5713 206.974 34.3662C208.478 34.1611 210.096 34.0016 211.828 33.8877V33.7852C211.828 32.7256 211.435 31.9964 210.648 31.5977C209.874 31.1875 208.706 30.9824 207.145 30.9824C206.439 30.9824 205.613 31.1134 204.667 31.3755C203.721 31.6261 202.799 31.9508 201.898 32.3496H201.386V27.7183C201.978 27.5474 202.935 27.348 204.257 27.1201C205.578 26.8809 206.911 26.7612 208.256 26.7612C211.56 26.7612 213.964 27.3138 215.468 28.4189C216.983 29.5127 217.741 31.1875 217.741 33.4434V46.5H211.793V44.4663ZM228.012 47.0298C226.599 47.0298 225.26 46.876 223.996 46.5684C222.742 46.2607 221.706 45.9019 220.885 45.4917V40.4331H221.381C221.666 40.6496 221.99 40.8888 222.355 41.1509C222.72 41.4129 223.227 41.6864 223.876 41.9712C224.434 42.2332 225.061 42.4611 225.756 42.6548C226.462 42.8371 227.226 42.9282 228.046 42.9282C228.889 42.9282 229.63 42.7972 230.268 42.5352C230.917 42.2731 231.242 41.8573 231.242 41.2876C231.242 40.8433 231.094 40.5072 230.797 40.2793C230.501 40.0514 229.926 39.835 229.071 39.6299C228.616 39.516 228.04 39.3963 227.345 39.271C226.65 39.1343 226.035 38.9805 225.5 38.8096C223.996 38.3424 222.862 37.6532 222.099 36.7417C221.347 35.8188 220.971 34.6112 220.971 33.1187C220.971 32.2642 221.164 31.4609 221.552 30.709C221.951 29.9456 222.532 29.2677 223.295 28.6753C224.058 28.0942 224.998 27.6328 226.115 27.291C227.243 26.9492 228.513 26.7783 229.926 26.7783C231.27 26.7783 232.506 26.915 233.634 27.1885C234.762 27.4505 235.714 27.7695 236.488 28.1455V32.999H236.01C235.805 32.8395 235.48 32.6287 235.036 32.3667C234.591 32.0933 234.158 31.8597 233.737 31.666C233.236 31.4382 232.672 31.2502 232.045 31.1021C231.43 30.9539 230.797 30.8799 230.148 30.8799C229.282 30.8799 228.547 31.028 227.943 31.3242C227.351 31.6204 227.055 32.0135 227.055 32.5034C227.055 32.9364 227.203 33.2782 227.499 33.5288C227.795 33.7795 228.439 34.0244 229.43 34.2637C229.943 34.389 230.53 34.5143 231.19 34.6396C231.863 34.7536 232.506 34.9131 233.122 35.1182C234.5 35.5625 235.543 36.2176 236.249 37.0835C236.967 37.938 237.326 39.0773 237.326 40.5015C237.326 41.4015 237.115 42.2617 236.693 43.082C236.272 43.891 235.674 44.5745 234.899 45.1328C234.079 45.7367 233.11 46.2038 231.994 46.5342C230.889 46.8646 229.561 47.0298 228.012 47.0298ZM247.528 46.876C245.09 46.876 243.313 46.3747 242.196 45.3721C241.091 44.3695 240.539 42.7288 240.539 40.4502V31.478H238.249V27.3081H240.539V21.8223H246.52V27.3081H252.279V31.478H246.52V38.2798C246.52 38.952 246.526 39.5387 246.537 40.04C246.549 40.5413 246.64 40.9914 246.811 41.3901C246.97 41.7889 247.249 42.1079 247.648 42.3472C248.058 42.575 248.651 42.689 249.425 42.689C249.744 42.689 250.16 42.6206 250.673 42.4839C251.197 42.3472 251.562 42.2218 251.767 42.1079H252.279V46.3291C251.63 46.5 250.941 46.631 250.211 46.7222C249.482 46.8247 248.588 46.876 247.528 46.876Z" fill="#4C4C4E"/>
</svg>
