<svg width="80" height="72" viewBox="0 0 80 72" fill="none" xmlns="http://www.w3.org/2000/svg">
<g filter="url(#filter0_d_2891_1940)">
<path d="M69.1789 37.9C69.1789 44.8993 69.1789 48.4015 66.6141 50.5745C64.0522 52.75 59.9234 52.75 51.6716 52.75H28.3284C20.0766 52.75 15.9478 52.75 13.3859 50.5745C10.821 48.4015 10.821 44.8993 10.821 37.9V28C10.821 21.0007 10.821 17.4986 13.3859 15.3256C15.9478 13.15 20.0766 13.15 28.3284 13.15H51.6716C59.9234 13.15 64.0522 13.15 66.6141 15.3256C69.1789 17.4986 69.1789 21.0007 69.1789 28V37.9Z" stroke="#4C4C4E" stroke-width="5"/>
<path d="M31.2478 3.25L40.0015 11.9125L48.7552 3.25M51.6731 13.15V52.75" stroke="#4C4C4E" stroke-width="5" stroke-linecap="round"/>
<path d="M63.3431 37.9C63.3431 37.2436 63.0357 36.6141 62.4885 36.1499C61.9413 35.6858 61.1991 35.425 60.4252 35.425C59.6513 35.425 58.9092 35.6858 58.362 36.1499C57.8147 36.6141 57.5073 37.2436 57.5073 37.9C57.5073 38.5564 57.8147 39.186 58.362 39.6501C58.9092 40.1143 59.6513 40.375 60.4252 40.375C61.1991 40.375 61.9413 40.1143 62.4885 39.6501C63.0357 39.186 63.3431 38.5564 63.3431 37.9ZM63.3431 28C63.3431 27.3436 63.0357 26.7141 62.4885 26.2499C61.9413 25.7858 61.1991 25.525 60.4252 25.525C59.6513 25.525 58.9092 25.7858 58.362 26.2499C57.8147 26.7141 57.5073 27.3436 57.5073 28C57.5073 28.6564 57.8147 29.286 58.362 29.7501C58.9092 30.2143 59.6513 30.475 60.4252 30.475C61.1991 30.475 61.9413 30.2143 62.4885 29.7501C63.0357 29.286 63.3431 28.6564 63.3431 28Z" fill="#4C4C4E"/>
</g>
<defs>
<filter id="filter0_d_2891_1940" x="0.321045" y="0.75" width="79.3579" height="70.5" filterUnits="userSpaceOnUse" color-interpolation-filters="sRGB">
<feFlood flood-opacity="0" result="BackgroundImageFix"/>
<feColorMatrix in="SourceAlpha" type="matrix" values="0 0 0 0 0 0 0 0 0 0 0 0 0 0 0 0 0 0 127 0" result="hardAlpha"/>
<feOffset dy="8"/>
<feGaussianBlur stdDeviation="4"/>
<feComposite in2="hardAlpha" operator="out"/>
<feColorMatrix type="matrix" values="0 0 0 0 0 0 0 0 0 0 0 0 0 0 0 0 0 0 0.1 0"/>
<feBlend mode="normal" in2="BackgroundImageFix" result="effect1_dropShadow_2891_1940"/>
<feBlend mode="normal" in="SourceGraphic" in2="effect1_dropShadow_2891_1940" result="shape"/>
</filter>
</defs>
</svg>
