<svg width="139" height="54" viewBox="0 0 139 54" fill="none" xmlns="http://www.w3.org/2000/svg">
<path d="M13 26.05C11.816 26.05 10.6805 25.5496 9.84327 24.6588C9.00606 23.768 8.53571 22.5598 8.53571 21.3C8.53571 20.0402 9.00606 18.832 9.84327 17.9412C10.6805 17.0504 11.816 16.55 13 16.55C14.184 16.55 15.3195 17.0504 16.1567 17.9412C16.9939 18.832 17.4643 20.0402 17.4643 21.3C17.4643 21.9238 17.3488 22.5415 17.1245 23.1177C16.9001 23.694 16.5713 24.2177 16.1567 24.6588C15.7422 25.0998 15.25 25.4497 14.7084 25.6884C14.1668 25.9271 13.5863 26.05 13 26.05ZM13 8C9.68479 8 6.50537 9.40125 4.16116 11.8955C1.81696 14.3897 0.5 17.7726 0.5 21.3C0.5 31.275 13 46 13 46C13 46 25.5 31.275 25.5 21.3C25.5 17.7726 24.183 14.3897 21.8388 11.8955C19.4946 9.40125 16.3152 8 13 8Z" fill="#4C4C4E"/>
<path d="M59.6138 40.5H53.2222V29.2207H44.5234V40.5H38.1318V15.0532H44.5234V24.3672H53.2222V15.0532H59.6138V40.5ZM82.9756 30.9126C82.9756 34.0685 82.1097 36.5579 80.3779 38.3809C78.6576 40.1924 76.2194 41.0981 73.0635 41.0981C69.9303 41.0981 67.4922 40.1924 65.749 38.3809C64.0173 36.5579 63.1514 34.0685 63.1514 30.9126C63.1514 27.7225 64.0173 25.2274 65.749 23.4272C67.4922 21.6157 69.9303 20.71 73.0635 20.71C76.208 20.71 78.6462 21.6214 80.3779 23.4443C82.1097 25.2559 82.9756 27.7453 82.9756 30.9126ZM76.8403 30.9468C76.8403 29.8075 76.7435 28.8618 76.5498 28.1099C76.3675 27.3465 76.1112 26.737 75.7808 26.2812C75.4276 25.8027 75.0288 25.4723 74.5845 25.29C74.1401 25.0964 73.6331 24.9995 73.0635 24.9995C72.528 24.9995 72.0438 25.085 71.6108 25.2559C71.1779 25.4154 70.7791 25.7287 70.4146 26.1958C70.0728 26.6401 69.7993 27.2497 69.5942 28.0244C69.3892 28.7992 69.2866 29.7733 69.2866 30.9468C69.2866 32.1203 69.3835 33.0716 69.5771 33.8008C69.7708 34.5186 70.0215 35.0939 70.3291 35.5269C70.6481 35.9712 71.0469 36.2959 71.5254 36.501C72.0039 36.7061 72.5337 36.8086 73.1147 36.8086C73.5933 36.8086 74.0775 36.7061 74.5674 36.501C75.0687 36.2959 75.4674 35.9883 75.7637 35.5781C76.1169 35.0882 76.3846 34.5015 76.5669 33.8179C76.7492 33.1229 76.8403 32.1659 76.8403 30.9468ZM109.089 40.5V30.9126C109.089 29.967 109.072 29.1694 109.038 28.52C109.003 27.8706 108.901 27.3408 108.73 26.9307C108.559 26.5205 108.291 26.2243 107.927 26.042C107.574 25.8483 107.072 25.7515 106.423 25.7515C105.967 25.7515 105.517 25.854 105.073 26.0591C104.628 26.2528 104.144 26.5319 103.62 26.8965V40.5H97.6045V30.9126C97.6045 29.9784 97.5817 29.1865 97.5361 28.5371C97.502 27.8763 97.3994 27.3408 97.2285 26.9307C97.0576 26.5205 96.7899 26.2243 96.4253 26.042C96.0721 25.8483 95.5765 25.7515 94.9385 25.7515C94.4486 25.7515 93.9701 25.8654 93.5029 26.0933C93.0358 26.3211 92.5801 26.5889 92.1357 26.8965V40.5H86.1543V21.3081H92.1357V23.4272C93.1156 22.5955 94.0384 21.9461 94.9043 21.479C95.7702 21.0119 96.7443 20.7783 97.8267 20.7783C99.0002 20.7783 100.031 21.0575 100.92 21.6157C101.809 22.174 102.486 23.0057 102.954 24.1108C104.104 23.0399 105.187 22.2196 106.201 21.6499C107.226 21.0688 108.263 20.7783 109.311 20.7783C110.2 20.7783 110.997 20.9207 111.704 21.2056C112.41 21.4904 113.008 21.9176 113.498 22.4873C114.034 23.1025 114.432 23.8374 114.694 24.6919C114.968 25.535 115.104 26.6401 115.104 28.0073V40.5H109.089ZM129.375 41.0127C125.751 41.0127 122.972 40.1468 121.035 38.415C119.109 36.6833 118.146 34.2166 118.146 31.0151C118.146 27.882 119.047 25.3812 120.847 23.5127C122.647 21.6442 125.165 20.71 128.4 20.71C131.34 20.71 133.55 21.5018 135.031 23.0854C136.512 24.6691 137.253 26.9364 137.253 29.8872V32.0405H124.145C124.202 32.9292 124.39 33.6755 124.709 34.2793C125.028 34.8717 125.45 35.3446 125.974 35.6978C126.486 36.0509 127.084 36.3073 127.768 36.4668C128.452 36.6149 129.198 36.689 130.007 36.689C130.702 36.689 131.385 36.6149 132.058 36.4668C132.73 36.3073 133.345 36.1022 133.903 35.8516C134.393 35.6351 134.843 35.4015 135.253 35.1509C135.675 34.9002 136.017 34.6781 136.279 34.4844H136.911V39.4233C136.421 39.617 135.971 39.7993 135.561 39.9702C135.162 40.1297 134.61 40.2949 133.903 40.4658C133.254 40.6367 132.582 40.7677 131.887 40.8589C131.203 40.9614 130.366 41.0127 129.375 41.0127ZM131.357 28.4346C131.323 27.1699 131.027 26.2072 130.468 25.5464C129.921 24.8856 129.078 24.5552 127.939 24.5552C126.777 24.5552 125.865 24.9027 125.205 25.5977C124.555 26.2926 124.196 27.2383 124.128 28.4346H131.357Z" fill="#4C4C4E"/>
</svg>
