<svg width="55" height="55" viewBox="0 0 55 55" fill="none" xmlns="http://www.w3.org/2000/svg">
<path d="M38.0682 38.0763L25.5387 50.6147C24.1496 52.005 22.5005 53.1079 20.6854 53.8604C18.8703 54.6128 16.9249 55.0001 14.9603 55.0001C12.9956 55.0001 11.0502 54.6128 9.23514 53.8604C7.42007 53.1079 5.7709 52.005 4.38181 50.6147C2.99246 49.2246 1.89036 47.5743 1.13844 45.7579C0.386523 43.9415 -0.000488281 41.9947 -0.000488281 40.0287C-0.000488281 38.0626 0.386523 36.1158 1.13844 34.2995C1.89036 32.4831 2.99246 30.8328 4.38181 29.4427L16.9112 16.9043L33.8564 21.9766L38.0682 38.0763Z" fill="#FCD53F"/>
<path d="M16.9302 16.9238L29.4596 4.38542C30.8487 2.99509 32.4979 1.8922 34.313 1.13974C36.128 0.387287 38.0734 0 40.0381 0C42.0027 0 43.9481 0.387287 45.7632 1.13974C47.5783 1.8922 49.2274 2.99509 50.6165 4.38542C52.0059 5.77551 53.108 7.42585 53.8599 9.24222C54.6118 11.0586 54.9988 13.0054 54.9988 14.9714C54.9988 16.9375 54.6118 18.8843 53.8599 20.7006C53.108 22.517 52.0059 24.1673 50.6165 25.5574L38.0871 38.0958L16.9302 16.9238Z" fill="#F8312F"/>
<path d="M47.0581 19.6217C48.0981 19.6217 49.0956 19.2082 49.831 18.4723C50.5665 17.7363 50.9796 16.7381 50.9796 15.6973C50.9796 14.6565 50.5665 13.6583 49.831 12.9224C49.0956 12.1864 48.0981 11.7729 47.0581 11.7729C46.018 11.7729 45.0205 12.1864 44.2851 12.9224C43.5496 13.6583 43.1365 14.6565 43.1365 15.6973C43.1365 16.7381 43.5496 17.7363 44.2851 18.4723C45.0205 19.2082 46.018 19.6217 47.0581 19.6217Z" fill="#F4F4F4"/>
</svg>
