<svg width="277" height="62" viewBox="0 0 277 62" fill="none" xmlns="http://www.w3.org/2000/svg">
<g filter="url(#filter0_d_2891_1950)">
<path d="M21 26.05C19.816 26.05 18.6805 25.5496 17.8433 24.6588C17.0061 23.768 16.5357 22.5598 16.5357 21.3C16.5357 20.0402 17.0061 18.832 17.8433 17.9412C18.6805 17.0504 19.816 16.55 21 16.55C22.184 16.55 23.3195 17.0504 24.1567 17.9412C24.9939 18.832 25.4643 20.0402 25.4643 21.3C25.4643 21.9238 25.3488 22.5414 25.1245 23.1177C24.9001 23.694 24.5713 24.2177 24.1567 24.6588C23.7422 25.0998 23.25 25.4497 22.7084 25.6884C22.1668 25.9271 21.5863 26.05 21 26.05ZM21 8C17.6848 8 14.5054 9.40125 12.1612 11.8955C9.81696 14.3897 8.5 17.7726 8.5 21.3C8.5 31.275 21 46 21 46C21 46 33.5 31.275 33.5 21.3C33.5 17.7726 32.183 14.3897 29.8388 11.8955C27.4946 9.40125 24.3152 8 21 8Z" fill="#4C4C4E"/>
<path d="M69.3057 27.7852C69.3057 31.8981 68.2062 35.1338 66.0073 37.4922C63.8084 39.8506 60.7949 41.0298 56.9668 41.0298C53.1273 41.0298 50.1138 39.8392 47.9263 37.458C45.7388 35.0654 44.645 31.8411 44.645 27.7852C44.645 23.695 45.7388 20.465 47.9263 18.0952C50.1138 15.714 53.1273 14.5234 56.9668 14.5234C60.7949 14.5234 63.8084 15.7083 66.0073 18.0781C68.2062 20.4365 69.3057 23.6722 69.3057 27.7852ZM62.709 27.7681C62.709 26.2528 62.5495 24.9653 62.2305 23.9058C61.9229 22.8348 61.507 21.9575 60.9829 21.2739C60.436 20.5789 59.8151 20.0833 59.1201 19.7871C58.4365 19.4795 57.7244 19.3257 56.9839 19.3257C56.1978 19.3257 55.4857 19.4681 54.8477 19.7529C54.2096 20.0264 53.5944 20.522 53.002 21.2397C52.4779 21.9006 52.0506 22.7778 51.7202 23.8716C51.4012 24.9653 51.2417 26.2699 51.2417 27.7852C51.2417 29.346 51.3955 30.6449 51.7031 31.6816C52.0107 32.707 52.4323 33.5672 52.9678 34.2622C53.5146 34.9686 54.1356 35.4756 54.8306 35.7832C55.5256 36.0794 56.2433 36.2275 56.9839 36.2275C57.7358 36.2275 58.465 36.068 59.1714 35.749C59.8778 35.4186 60.4873 34.9116 61 34.228C61.5469 33.4875 61.9684 32.6273 62.2646 31.6475C62.5609 30.6562 62.709 29.3631 62.709 27.7681ZM78.7393 40.5H72.7578V13.9082H78.7393V40.5ZM89.3008 40.5H83.3193V21.3081H89.3008V40.5ZM89.4717 18.5737H83.1484V13.9082H89.4717V18.5737ZM111.842 21.3081L104.955 40.5H98.4268L91.5908 21.3081H97.8799L101.811 34.0059L105.69 21.3081H111.842ZM123.976 41.0127C120.353 41.0127 117.573 40.1468 115.636 38.415C113.711 36.6833 112.748 34.2166 112.748 31.0151C112.748 27.882 113.648 25.3812 115.448 23.5127C117.248 21.6442 119.766 20.71 123.002 20.71C125.941 20.71 128.152 21.5018 129.633 23.0854C131.114 24.6691 131.854 26.9364 131.854 29.8872V32.0405H118.747C118.804 32.9292 118.992 33.6755 119.311 34.2793C119.63 34.8717 120.051 35.3446 120.575 35.6978C121.088 36.0509 121.686 36.3073 122.37 36.4668C123.053 36.6149 123.799 36.689 124.608 36.689C125.303 36.689 125.987 36.6149 126.659 36.4668C127.331 36.3073 127.947 36.1022 128.505 35.8516C128.995 35.6351 129.445 35.4015 129.855 35.1509C130.277 34.9002 130.618 34.6781 130.88 34.4844H131.513V39.4233C131.023 39.617 130.573 39.7993 130.163 39.9702C129.764 40.1297 129.211 40.2949 128.505 40.4658C127.855 40.6367 127.183 40.7677 126.488 40.8589C125.805 40.9614 124.967 41.0127 123.976 41.0127ZM125.958 28.4346C125.924 27.1699 125.628 26.2072 125.07 25.5464C124.523 24.8856 123.68 24.5552 122.541 24.5552C121.378 24.5552 120.467 24.9027 119.806 25.5977C119.157 26.2926 118.798 27.2383 118.729 28.4346H125.958ZM166.786 39.0474C165.67 39.5031 164.217 39.9474 162.428 40.3804C160.651 40.8133 158.896 41.0298 157.165 41.0298C153.166 41.0298 149.975 39.8791 147.594 37.5776C145.224 35.2648 144.04 31.9893 144.04 27.751C144.04 23.7633 145.224 20.5675 147.594 18.1636C149.975 15.7596 153.228 14.5576 157.353 14.5576C159.483 14.5576 161.215 14.7627 162.548 15.1729C163.881 15.5716 165.259 16.1185 166.684 16.8135V22.7778H166.103C165.795 22.5386 165.351 22.2025 164.77 21.7695C164.2 21.3252 163.642 20.9492 163.095 20.6416C162.457 20.277 161.716 19.9637 160.873 19.7017C160.041 19.4396 159.158 19.3086 158.224 19.3086C157.13 19.3086 156.133 19.4795 155.233 19.8213C154.333 20.1631 153.53 20.6872 152.824 21.3936C152.152 22.0771 151.616 22.943 151.217 23.9912C150.83 25.0394 150.636 26.2585 150.636 27.6484C150.636 30.6221 151.382 32.8153 152.875 34.228C154.368 35.6408 156.407 36.3472 158.993 36.3472C159.221 36.3472 159.489 36.3415 159.796 36.3301C160.104 36.3187 160.372 36.3016 160.6 36.2788V31.2886H155.661V26.5205H166.786V39.0474ZM181.842 35.4927V31.4937C180.828 31.5962 180.008 31.6873 179.381 31.7671C178.755 31.8354 178.139 31.9779 177.536 32.1943C177.012 32.3766 176.601 32.6558 176.305 33.0317C176.02 33.3963 175.878 33.8862 175.878 34.5015C175.878 35.4015 176.117 36.0225 176.596 36.3643C177.086 36.6947 177.803 36.8599 178.749 36.8599C179.273 36.8599 179.809 36.7402 180.355 36.501C180.902 36.2617 181.398 35.9256 181.842 35.4927ZM181.842 38.4663C181.432 38.8081 181.062 39.1157 180.731 39.3892C180.412 39.6626 179.979 39.936 179.433 40.2095C178.897 40.4715 178.373 40.6709 177.86 40.8076C177.359 40.9443 176.653 41.0127 175.741 41.0127C174.044 41.0127 172.631 40.443 171.503 39.3037C170.386 38.1644 169.828 36.7288 169.828 34.9971C169.828 33.5729 170.113 32.4222 170.683 31.5449C171.252 30.6676 172.073 29.9727 173.144 29.46C174.226 28.9359 175.519 28.5713 177.023 28.3662C178.527 28.1611 180.145 28.0016 181.876 27.8877V27.7852C181.876 26.7256 181.483 25.9964 180.697 25.5977C179.923 25.1875 178.755 24.9824 177.194 24.9824C176.487 24.9824 175.661 25.1134 174.716 25.3755C173.77 25.6261 172.847 25.9508 171.947 26.3496H171.435V21.7183C172.027 21.5474 172.984 21.348 174.306 21.1201C175.627 20.8809 176.96 20.7612 178.305 20.7612C181.609 20.7612 184.013 21.3138 185.517 22.4189C187.032 23.5127 187.79 25.1875 187.79 27.4434V40.5H181.842V38.4663ZM205.102 26.9648H204.606C204.378 26.8851 204.048 26.8281 203.615 26.7939C203.182 26.7484 202.703 26.7256 202.179 26.7256C201.553 26.7256 200.892 26.8167 200.197 26.999C199.513 27.1813 198.847 27.3978 198.197 27.6484V40.5H192.216V21.3081H198.197V24.0596C198.471 23.8089 198.847 23.4956 199.325 23.1196C199.815 22.7323 200.259 22.4246 200.658 22.1968C201.091 21.9347 201.592 21.7126 202.162 21.5303C202.743 21.3366 203.29 21.2397 203.803 21.2397C203.996 21.2397 204.213 21.2454 204.452 21.2568C204.691 21.2682 204.908 21.2853 205.102 21.3081V26.9648ZM224.84 40.5H218.859V38.5005C218.472 38.8195 218.027 39.1613 217.526 39.5259C217.036 39.8905 216.603 40.1639 216.227 40.3462C215.749 40.5741 215.276 40.745 214.809 40.8589C214.341 40.9728 213.783 41.0298 213.134 41.0298C210.946 41.0298 209.215 40.124 207.938 38.3125C206.662 36.501 206.024 34.0799 206.024 31.0493C206.024 29.3745 206.241 27.9219 206.674 26.6914C207.107 25.4609 207.705 24.39 208.468 23.4785C209.163 22.6468 210.006 21.9917 210.998 21.5132C211.989 21.0233 213.037 20.7783 214.142 20.7783C215.145 20.7783 215.965 20.8866 216.603 21.103C217.252 21.3081 218.004 21.6328 218.859 22.0771V13.9082H224.84V40.5ZM218.859 35.2021V25.7856C218.563 25.6375 218.175 25.5179 217.697 25.4268C217.218 25.3242 216.808 25.2729 216.466 25.2729C215.031 25.2729 213.948 25.7743 213.219 26.7769C212.501 27.7795 212.143 29.1808 212.143 30.981C212.143 32.8722 212.427 34.2394 212.997 35.0825C213.578 35.9256 214.512 36.3472 215.8 36.3472C216.324 36.3472 216.854 36.2446 217.389 36.0396C217.925 35.8345 218.415 35.5553 218.859 35.2021ZM239.264 41.0127C235.641 41.0127 232.861 40.1468 230.924 38.415C228.999 36.6833 228.036 34.2166 228.036 31.0151C228.036 27.882 228.936 25.3812 230.736 23.5127C232.536 21.6442 235.054 20.71 238.29 20.71C241.229 20.71 243.44 21.5018 244.921 23.0854C246.402 24.6691 247.143 26.9364 247.143 29.8872V32.0405H234.035C234.092 32.9292 234.28 33.6755 234.599 34.2793C234.918 34.8717 235.339 35.3446 235.863 35.6978C236.376 36.0509 236.974 36.3073 237.658 36.4668C238.341 36.6149 239.088 36.689 239.896 36.689C240.591 36.689 241.275 36.6149 241.947 36.4668C242.619 36.3073 243.235 36.1022 243.793 35.8516C244.283 35.6351 244.733 35.4015 245.143 35.1509C245.565 34.9002 245.906 34.6781 246.168 34.4844H246.801V39.4233C246.311 39.617 245.861 39.7993 245.451 39.9702C245.052 40.1297 244.499 40.2949 243.793 40.4658C243.144 40.6367 242.471 40.7677 241.776 40.8589C241.093 40.9614 240.255 41.0127 239.264 41.0127ZM241.247 28.4346C241.212 27.1699 240.916 26.2072 240.358 25.5464C239.811 24.8856 238.968 24.5552 237.829 24.5552C236.667 24.5552 235.755 24.9027 235.094 25.5977C234.445 26.2926 234.086 27.2383 234.018 28.4346H241.247ZM268.197 40.5H262.182V30.981C262.182 30.2062 262.147 29.4372 262.079 28.6738C262.022 27.8991 261.908 27.3294 261.737 26.9648C261.532 26.5319 261.236 26.2243 260.849 26.042C260.461 25.8483 259.943 25.7515 259.293 25.7515C258.804 25.7515 258.308 25.8426 257.807 26.0249C257.305 26.2072 256.77 26.4977 256.2 26.8965V40.5H250.219V21.3081H256.2V23.4272C257.18 22.5955 258.131 21.9461 259.054 21.479C259.988 21.0119 261.02 20.7783 262.147 20.7783C264.107 20.7783 265.605 21.3993 266.642 22.6411C267.679 23.8716 268.197 25.6603 268.197 28.0073V40.5Z" fill="#4C4C4E"/>
</g>
<defs>
<filter id="filter0_d_2891_1950" x="0.5" y="0" width="278" height="70" filterUnits="userSpaceOnUse" color-interpolation-filters="sRGB">
<feFlood flood-opacity="0" result="BackgroundImageFix"/>
<feColorMatrix in="SourceAlpha" type="matrix" values="0 0 0 0 0 0 0 0 0 0 0 0 0 0 0 0 0 0 127 0" result="hardAlpha"/>
<feOffset dy="8"/>
<feGaussianBlur stdDeviation="4"/>
<feComposite in2="hardAlpha" operator="out"/>
<feColorMatrix type="matrix" values="0 0 0 0 0 0 0 0 0 0 0 0 0 0 0 0 0 0 0.1 0"/>
<feBlend mode="normal" in2="BackgroundImageFix" result="effect1_dropShadow_2891_1950"/>
<feBlend mode="normal" in="SourceGraphic" in2="effect1_dropShadow_2891_1950" result="shape"/>
</filter>
</defs>
</svg>
