<svg width="68" height="68" viewBox="0 0 68 68" fill="none" xmlns="http://www.w3.org/2000/svg">
<mask id="mask0_2977_4065" style="mask-type:luminance" maskUnits="userSpaceOnUse" x="0" y="0" width="68" height="68">
<path d="M0 0H68V68H0V0Z" fill="white"/>
<path fill-rule="evenodd" clip-rule="evenodd" d="M23.9855 15.6924C22.8191 15.6926 21.6862 16.0826 20.7668 16.8005C19.8475 17.5185 19.1945 18.5231 18.9117 19.6547L15.9537 31.4893C14.7722 31.7305 13.7103 32.3725 12.9477 33.3066C12.1852 34.2407 11.7688 35.4096 11.769 36.6155V44.4616C11.769 45.8489 12.3201 47.1794 13.3011 48.1603C14.2821 49.1413 15.6125 49.6924 16.9998 49.6924H50.9998C52.3871 49.6924 53.7176 49.1413 54.6985 48.1603C55.6795 47.1794 56.2306 45.8489 56.2306 44.4616V36.6155C56.2308 35.4096 55.8144 34.2407 55.0519 33.3066C54.2893 32.3725 53.2275 31.7305 52.046 31.4893L49.0906 19.6547C48.8075 18.5222 48.1537 17.5169 47.2333 16.7989C46.313 16.0809 45.1788 15.6914 44.0115 15.6924H23.9855ZM16.9998 34.0001C17.2915 34 17.5748 33.9024 17.8046 33.7228C18.0345 33.5432 18.1977 33.2919 18.2683 33.0088L21.4486 20.2876C21.5903 19.722 21.9169 19.22 22.3765 18.8613C22.8361 18.5026 23.4025 18.3078 23.9855 18.3078H44.0141C44.5972 18.3078 45.1635 18.5026 45.6231 18.8613C46.0828 19.22 46.4094 19.722 46.551 20.2876L49.7314 33.0088C49.8019 33.2919 49.9651 33.5432 50.195 33.7228C50.4248 33.9024 50.7081 34 50.9998 34.0001C51.6935 34.0001 52.3587 34.2756 52.8492 34.7661C53.3397 35.2566 53.6152 35.9218 53.6152 36.6155V44.4616C53.6152 45.1553 53.3397 45.8205 52.8492 46.311C52.3587 46.8015 51.6935 47.077 50.9998 47.077H16.9998C16.3062 47.077 15.6409 46.8015 15.1505 46.311C14.66 45.8205 14.3844 45.1553 14.3844 44.4616V36.6155C14.3844 35.9218 14.66 35.2566 15.1505 34.7661C15.6409 34.2756 16.3062 34.0001 16.9998 34.0001Z" fill="black"/>
<path fill-rule="evenodd" clip-rule="evenodd" d="M47.0771 44.4614C48.1175 44.4614 49.1154 44.0481 49.8511 43.3124C50.5868 42.5767 51.0001 41.5788 51.0001 40.5383C51.0001 39.4979 50.5868 38.5 49.8511 37.7643C49.1154 37.0286 48.1175 36.6153 47.0771 36.6153C46.0366 36.6153 45.0388 37.0286 44.303 37.7643C43.5673 38.5 43.154 39.4979 43.154 40.5383C43.154 41.5788 43.5673 42.5767 44.303 43.3124C45.0388 44.0481 46.0366 44.4614 47.0771 44.4614ZM47.0771 39.2307C47.4239 39.2307 47.7565 39.3684 48.0018 39.6137C48.247 39.8589 48.3848 40.1915 48.3848 40.5383C48.3848 40.8852 48.247 41.2178 48.0018 41.463C47.7565 41.7083 47.4239 41.846 47.0771 41.846C46.7303 41.846 46.3976 41.7083 46.1524 41.463C45.9072 41.2178 45.7694 40.8852 45.7694 40.5383C45.7694 40.1915 45.9072 39.8589 46.1524 39.6137C46.3976 39.3684 46.7303 39.2307 47.0771 39.2307ZM20.9232 44.4614C21.9637 44.4614 22.9615 44.0481 23.6973 43.3124C24.433 42.5767 24.8463 41.5788 24.8463 40.5383C24.8463 39.4979 24.433 38.5 23.6973 37.7643C22.9615 37.0286 21.9637 36.6153 20.9232 36.6153C19.8828 36.6153 18.8849 37.0286 18.1492 37.7643C17.4135 38.5 17.0002 39.4979 17.0002 40.5383C17.0002 41.5788 17.4135 42.5767 18.1492 43.3124C18.8849 44.0481 19.8828 44.4614 20.9232 44.4614ZM20.9232 39.2307C21.27 39.2307 21.6027 39.3684 21.8479 39.6137C22.0931 39.8589 22.2309 40.1915 22.2309 40.5383C22.2309 40.8852 22.0931 41.2178 21.8479 41.463C21.6027 41.7083 21.27 41.846 20.9232 41.846C20.5764 41.846 20.2438 41.7083 19.9985 41.463C19.7533 41.2178 19.6155 40.8852 19.6155 40.5383C19.6155 40.1915 19.7533 39.8589 19.9985 39.6137C20.2438 39.3684 20.5764 39.2307 20.9232 39.2307ZM22.2309 50.9999C22.2309 49.9594 21.8176 48.9616 21.0819 48.2259C20.3462 47.4901 19.3483 47.0768 18.3078 47.0768C17.2674 47.0768 16.2695 47.4901 15.5338 48.2259C14.7981 48.9616 14.3848 49.9594 14.3848 50.9999V53.6153C14.3848 54.6557 14.7981 55.6536 15.5338 56.3893C16.2695 57.125 17.2674 57.5383 18.3078 57.5383C19.3483 57.5383 20.3462 57.125 21.0819 56.3893C21.8176 55.6536 22.2309 54.6557 22.2309 53.6153V50.9999ZM17.0002 50.9999C17.0002 50.6531 17.1379 50.3204 17.3832 50.0752C17.6284 49.83 17.961 49.6922 18.3078 49.6922C18.6547 49.6922 18.9873 49.83 19.2325 50.0752C19.4778 50.3204 19.6155 50.6531 19.6155 50.9999V53.6153C19.6155 53.9621 19.4778 54.2947 19.2325 54.54C18.9873 54.7852 18.6547 54.923 18.3078 54.923C17.961 54.923 17.6284 54.7852 17.3832 54.54C17.1379 54.2947 17.0002 53.9621 17.0002 53.6153V50.9999ZM53.6155 50.9999C53.6155 49.9594 53.2022 48.9616 52.4665 48.2259C51.7308 47.4901 50.7329 47.0768 49.6925 47.0768C48.652 47.0768 47.6541 47.4901 46.9184 48.2259C46.1827 48.9616 45.7694 49.9594 45.7694 50.9999V53.6153C45.7694 54.6557 46.1827 55.6536 46.9184 56.3893C47.6541 57.125 48.652 57.5383 49.6925 57.5383C50.7329 57.5383 51.7308 57.125 52.4665 56.3893C53.2022 55.6536 53.6155 54.6557 53.6155 53.6153V50.9999ZM48.3848 50.9999C48.3848 50.6531 48.5225 50.3204 48.7678 50.0752C49.013 49.83 49.3456 49.6922 49.6925 49.6922C50.0393 49.6922 50.3719 49.83 50.6171 50.0752C50.8624 50.3204 51.0001 50.6531 51.0001 50.9999V53.6153C51.0001 53.9621 50.8624 54.2947 50.6171 54.54C50.3719 54.7852 50.0393 54.923 49.6925 54.923C49.3456 54.923 49.013 54.7852 48.7678 54.54C48.5225 54.2947 48.3848 53.9621 48.3848 53.6153V50.9999ZM40.9257 20.923H27.0746C26.1965 20.9229 25.3438 21.2174 24.6529 21.7594C23.9621 22.3014 23.473 23.0595 23.264 23.9123L21.9825 29.1431C21.8409 29.7207 21.8326 30.3229 21.958 30.9042C22.0834 31.4854 22.3393 32.0306 22.7063 32.4984C23.0734 32.9663 23.542 33.3446 24.0768 33.6047C24.6115 33.8648 25.1984 33.9999 25.7931 33.9999H42.2072C42.8019 33.9999 43.3888 33.8648 43.9235 33.6047C44.4583 33.3446 44.9269 32.9663 45.294 32.4984C45.661 32.0306 45.9169 31.4854 46.0423 30.9042C46.1677 30.3229 46.1594 29.7207 46.0178 29.1431L44.7363 23.9123C44.5272 23.0591 44.0378 22.3006 43.3463 21.7586C42.6549 21.2166 41.8042 20.9223 40.9257 20.923ZM25.8035 24.5348C25.8732 24.2504 26.0364 23.9976 26.2669 23.8169C26.4973 23.6362 26.7818 23.5381 27.0746 23.5383H40.9257C41.2181 23.5387 41.5019 23.6371 41.7319 23.8177C41.9618 23.9983 42.1246 24.2508 42.1941 24.5348L43.4757 29.7656C43.5228 29.958 43.5257 30.1585 43.4839 30.3522C43.4422 30.5458 43.3571 30.7274 43.2349 30.8833C43.1128 31.0392 42.9568 31.1654 42.7788 31.2522C42.6007 31.339 42.4053 31.3843 42.2072 31.3845H25.7931C25.5948 31.3846 25.3991 31.3397 25.2207 31.253C25.0423 31.1664 24.886 31.0403 24.7636 30.8844C24.6411 30.7284 24.5557 30.5466 24.5139 30.3528C24.472 30.159 24.4748 29.9582 24.522 29.7656L25.8035 24.5348ZM37.9232 14.3845C37.9232 13.344 37.5099 12.3462 36.7742 11.6105C36.0385 10.8747 35.0406 10.4614 34.0002 10.4614C32.9597 10.4614 31.9618 10.8747 31.2261 11.6105C30.4904 12.3462 30.0771 13.344 30.0771 14.3845C30.0771 15.425 30.4904 16.4228 31.2261 17.1585C31.9618 17.8943 32.9597 18.3076 34.0002 18.3076C35.0406 18.3076 36.0385 17.8943 36.7742 17.1585C37.5099 16.4228 37.9232 15.425 37.9232 14.3845ZM32.6925 14.3845C32.6925 14.0377 32.8302 13.7051 33.0755 13.4598C33.3207 13.2146 33.6533 13.0768 34.0002 13.0768C34.347 13.0768 34.6796 13.2146 34.9248 13.4598C35.1701 13.7051 35.3078 14.0377 35.3078 14.3845C35.3078 14.7313 35.1701 15.0639 34.9248 15.3092C34.6796 15.5544 34.347 15.6922 34.0002 15.6922C33.6533 15.6922 33.3207 15.5544 33.0755 15.3092C32.8302 15.0639 32.6925 14.7313 32.6925 14.3845Z" fill="black"/>
</mask>
<g mask="url(#mask0_2977_4065)">
<path d="M34 68C52.7777 68 68 52.7777 68 34C68 15.2223 52.7777 0 34 0C15.2223 0 0 15.2223 0 34C0 52.7777 15.2223 68 34 68Z" fill="#4C4C4E"/>
</g>
</svg>
