<svg width="68" height="68" viewBox="0 0 68 68" fill="none" xmlns="http://www.w3.org/2000/svg">
<path fill-rule="evenodd" clip-rule="evenodd" d="M29.0043 36.4404L3.19799 2.47287C3.04973 2.27775 2.95784 2.0641 2.92758 1.84412C2.89731 1.62415 2.92925 1.40216 3.02158 1.19082C3.20805 0.764009 3.62917 0.406514 4.19229 0.196982C4.75542 -0.0125498 5.41443 -0.0569554 6.02434 0.073534C6.32634 0.138146 6.60719 0.24375 6.85087 0.384319C7.09455 0.524887 7.29627 0.697666 7.44453 0.892791L33.2532 34.8603L36.913 33.4973C38.0285 33.0823 39.2498 32.8252 40.5073 32.7406C41.7648 32.6559 43.0338 32.7455 44.2419 33.0041C45.4499 33.2627 46.5733 33.6853 47.5479 34.2478C48.5225 34.8103 49.3292 35.5016 49.922 36.2822L51.4802 38.3335L67.9999 55.2516L46.9884 63.0679L39.7096 53.0002L35.4198 54.5197L42.7418 64.6497L33.7341 68L22.9254 48.9549L21.3696 46.9053C20.7765 46.1248 20.4089 45.2702 20.2878 44.3903C20.1667 43.5104 20.2945 42.6224 20.6638 41.7771C21.0331 40.9317 21.6368 40.1455 22.4403 39.4634C23.2438 38.7814 24.2315 38.2167 25.3469 37.8018L29.0043 36.4404ZM39.1686 36.4707L27.6024 40.7735C27.0447 40.9809 26.5509 41.2633 26.1491 41.6043C25.7473 41.9453 25.4455 42.3384 25.2608 42.7611C25.0762 43.1838 25.0123 43.6278 25.0729 44.0677C25.1334 44.5077 25.3172 44.935 25.6138 45.3252L27.1696 47.3748L47.2312 39.9102L45.673 37.8623C45.3766 37.4721 44.9731 37.1265 44.4858 36.8453C43.9984 36.5642 43.4367 36.353 42.8327 36.2237C42.2287 36.0945 41.5942 36.0498 40.9655 36.0922C40.3368 36.1346 39.7262 36.2632 39.1686 36.4707Z" fill="#4C4C4E"/>
<path d="M18.679 52.8602C18.2711 52.5174 17.6853 52.3019 17.0504 52.2612C16.4155 52.2205 15.7835 52.3579 15.2933 52.6432H15.2981L15.2717 52.6566L15.1226 52.7374C14.9066 52.8506 14.6861 52.9594 14.4613 53.0639C13.865 53.3415 12.9753 53.7201 11.8307 54.1004C8.88863 55.09 5.66881 55.609 2.40461 55.6199C1.76687 55.6199 1.15525 55.7972 0.704295 56.1128C0.253343 56.4284 0 56.8564 0 57.3027C0 57.7489 0.253343 58.1769 0.704295 58.4925C1.15525 58.8081 1.76687 58.9854 2.40461 58.9854C6.38425 58.9746 10.3106 58.3441 13.8987 57.1394C15.0179 56.7686 16.0979 56.3423 17.1305 55.8639C17.517 55.6829 17.894 55.4921 18.2606 55.2918L18.3328 55.2531L18.3568 55.2396L18.364 55.2329H18.3688L18.3712 55.2295C18.8609 54.9438 19.1683 54.5338 19.226 54.0895C19.2838 53.6452 19.087 53.203 18.679 52.8602ZM23.6421 61.4169C23.8174 61.6008 23.9393 61.807 24.0007 62.0238C24.0621 62.2406 24.0618 62.4637 24 62.6804C23.9381 62.8972 23.8159 63.1033 23.6402 63.2869C23.4645 63.4706 23.2388 63.6282 22.9761 63.7509L22.9713 63.7542L22.9616 63.7576L22.9376 63.7677L22.863 63.8013C22.4467 63.9867 22.0242 64.1651 21.5958 64.3365C20.7518 64.6747 19.5519 65.124 18.1091 65.5716C15.2717 66.455 11.3041 67.399 7.21383 67.399C6.57609 67.399 5.96447 67.2217 5.51352 66.9062C5.06257 66.5906 4.80922 66.1626 4.80922 65.7163C4.80922 65.27 5.06257 64.842 5.51352 64.5264C5.96447 64.2109 6.57609 64.0336 7.21383 64.0336C10.335 64.0336 13.5861 63.2948 16.1566 62.4955C17.4958 62.0774 18.7953 61.5997 20.0472 61.0652C20.1174 61.0363 20.1863 61.006 20.254 60.9744L20.3021 60.9542L20.3069 60.9508C20.5697 60.8281 20.8643 60.7429 21.1741 60.6999C21.4839 60.657 21.8028 60.6571 22.1125 60.7004C22.4222 60.7437 22.7167 60.8292 22.9792 60.9522C23.2416 61.0751 23.4669 61.233 23.6421 61.4169Z" fill="#4C4C4E"/>
</svg>
