<svg width="69" height="68" viewBox="0 0 69 68" fill="none" xmlns="http://www.w3.org/2000/svg">
<path d="M48.1 68C42.4333 68 37.6167 66.0167 33.65 62.05C29.6833 58.0833 27.7 53.2667 27.7 47.6C27.7 41.9333 29.6833 37.1167 33.65 33.15C37.6167 29.1833 42.4333 27.2 48.1 27.2C53.7667 27.2 58.5833 29.1833 62.55 33.15C66.5167 37.1167 68.5 41.9333 68.5 47.6C68.5 53.2667 66.5167 58.0833 62.55 62.05C58.5833 66.0167 53.7667 68 48.1 68ZM48.1 61.2C51.84 61.2 55.0417 59.8683 57.705 57.205C60.3683 54.5417 61.7 51.34 61.7 47.6C61.7 43.86 60.3683 40.6583 57.705 37.995C55.0417 35.3317 51.84 34 48.1 34C44.36 34 41.1583 35.3317 38.495 37.995C35.8317 40.6583 34.5 43.86 34.5 47.6C34.5 51.34 35.8317 54.5417 38.495 57.205C41.1583 59.8683 44.36 61.2 48.1 61.2ZM0.5 61.2V27.03L7.81 10.2H3.9V0H34.5V10.2H30.59L36.2 23.12C35.1233 23.6867 34.1033 24.2817 33.14 24.905C32.1767 25.5283 31.27 26.2367 30.42 27.03L23.28 10.2H15.12L7.3 28.56V54.4H21.75C22.0333 55.59 22.4153 56.7664 22.8958 57.9292C23.3763 59.092 23.9577 60.1823 24.64 61.2H0.5ZM48.1 23.8C45.72 23.8 43.7083 22.9783 42.065 21.335C40.4217 19.6917 39.6 17.68 39.6 15.3C39.6 12.92 40.4217 10.9083 42.065 9.265C43.7083 7.62167 45.72 6.8 48.1 6.8V23.8C48.1 21.42 48.9217 19.4083 50.565 17.765C52.2083 16.1217 54.22 15.3 56.6 15.3C58.98 15.3 60.9917 16.1217 62.635 17.765C64.2783 19.4083 65.1 21.42 65.1 23.8H48.1Z" fill="#4C4C4E"/>
</svg>
