<svg width="67" height="67" viewBox="0 0 67 67" fill="none" xmlns="http://www.w3.org/2000/svg">
<path d="M26.8093 0L20.1185 7.44444V14.8889H10.0824C6.23523 14.8889 3.79311 18.6111 3.39166 22.3333L0.0462901 59.5556C-0.355154 63.2778 1.85279 67 6.73703 67H60.263C65.1472 67 67.3552 63.2778 66.9537 59.5556L63.6083 22.3333C63.2069 18.6111 60.4637 14.8889 56.9176 14.8889H46.8815V7.44444L40.1907 0H26.8093ZM26.8093 7.44444H40.1907V14.8889H26.8093V7.44444ZM30.1546 26.0556H36.8454V37.2222H46.8815V44.6667H36.8454V55.8333H30.1546V44.6667H20.1185V37.2222H30.1546V26.0556Z" fill="black"/>
</svg>
