<svg width="128" height="146" viewBox="0 0 128 146" fill="none" xmlns="http://www.w3.org/2000/svg">
<path d="M13.5 1.5L98.9402 25.6511C107.553 28.0857 113.5 35.9465 113.5 44.897V81.5C113.5 92.5457 104.546 101.5 93.5 101.5H44.764C33.7183 101.5 24.764 92.5457 24.764 81.5V73.8556" stroke="#FEC341" stroke-width="3" stroke-linecap="round"/>
<path d="M24.7114 14.3002L88.9935 32.4493C97.6095 34.8819 103.559 42.7441 103.559 51.6969V73.0557C103.559 84.1014 94.6049 93.0557 83.5592 93.0557H53.5928C42.5471 93.0557 33.5928 84.1014 33.5928 73.0557V71.2842" stroke="#4C4C4E" stroke-width="3" stroke-linecap="round"/>
<path d="M44.7891 32.3041L80.8763 42.5091C89.4883 44.9445 95.4339 52.8047 95.4339 61.7544V62.9707C95.4339 74.0164 86.4796 82.9707 75.4339 82.9707H64.5002C56.7646 82.9707 50.4937 76.6998 50.4937 68.9642V68.9642" stroke="#4C4C4E" stroke-width="3" stroke-linecap="round"/>
<path d="M59.6484 47.5928L77.2207 52.5688C81.6278 53.8168 84.6699 57.84 84.6699 62.4204V62.4204C84.6699 68.0753 80.0858 72.6594 74.4309 72.6594H69.3964C65.5693 72.6594 62.4669 69.557 62.4669 65.7299V65.7299" stroke="#4C4C4E" stroke-width="3" stroke-linecap="round"/>
<g filter="url(#filter0_d_956_34)">
<mask id="path-5-outside-1_956_34" maskUnits="userSpaceOnUse" x="3" y="113.5" width="122" height="26" fill="black">
<rect fill="white" x="3" y="113.5" width="122" height="26"/>
<path d="M10.1405 137.92C7.64055 137.92 5.70055 136.89 4.32055 134.83V133.21C4.86055 134.41 5.64055 135.35 6.66055 136.03C7.70055 136.71 8.94055 137.05 10.3805 137.05C11.3805 137.05 12.3005 136.83 13.1405 136.39C14.0005 135.95 14.6805 135.33 15.1805 134.53C15.6805 133.73 15.9305 132.81 15.9305 131.77C15.9305 130.83 15.7705 130.02 15.4505 129.34C15.1305 128.66 14.6005 128.01 13.8605 127.39C13.1205 126.75 12.0505 126 10.6505 125.14L9.69055 124.54C8.81055 124 8.10055 123.52 7.56055 123.1C7.02055 122.68 6.55055 122.19 6.15055 121.63C5.63055 120.85 5.37055 119.95 5.37055 118.93C5.37055 117.57 5.81055 116.51 6.69055 115.75C7.57055 114.99 8.69055 114.61 10.0505 114.61C11.8905 114.61 13.3505 115.29 14.4305 116.65V118.18C13.9705 117.34 13.3405 116.68 12.5405 116.2C11.7405 115.72 10.8605 115.48 9.90055 115.48C8.90055 115.48 8.06055 115.79 7.38055 116.41C6.70055 117.03 6.36055 117.86 6.36055 118.9C6.36055 119.92 6.67055 120.8 7.29055 121.54C7.93055 122.26 9.00055 123.05 10.5005 123.91C12.3405 124.99 13.7705 125.97 14.7905 126.85C15.5105 127.51 16.0305 128.24 16.3505 129.04C16.6905 129.84 16.8605 130.73 16.8605 131.71C16.8605 132.95 16.5705 134.04 15.9905 134.98C15.4105 135.92 14.6105 136.65 13.5905 137.17C12.5705 137.67 11.4205 137.92 10.1405 137.92ZM20.0091 124H20.9691V126.04C21.8891 124.46 23.3691 123.67 25.4091 123.67C26.3891 123.67 27.2391 123.95 27.9591 124.51C28.6791 125.05 29.1791 125.87 29.4591 126.97C29.7191 125.99 30.2891 125.2 31.1691 124.6C32.0691 123.98 33.0791 123.67 34.1991 123.67C35.6591 123.67 36.7891 124.1 37.5891 124.96C38.3891 125.8 38.7891 127 38.7891 128.56V137.5H37.8291V128.56C37.8291 127.3 37.4991 126.31 36.8391 125.59C36.1991 124.87 35.3491 124.51 34.2891 124.51C33.4891 124.51 32.7491 124.71 32.0691 125.11C31.3891 125.49 30.8491 126.01 30.4491 126.67C30.0491 127.33 29.8491 128.06 29.8491 128.86V137.5H28.8891V129.1C28.8891 127.66 28.5491 126.54 27.8691 125.74C27.1891 124.92 26.3091 124.51 25.2291 124.51C24.5091 124.51 23.8191 124.69 23.1591 125.05C22.5191 125.41 21.9891 125.9 21.5691 126.52C21.1691 127.12 20.9691 127.78 20.9691 128.5V137.5H20.0091V124ZM48.9277 137.83C47.6477 137.83 46.4577 137.51 45.3577 136.87C44.2577 136.23 43.3877 135.37 42.7477 134.29C42.1077 133.19 41.7877 132.01 41.7877 130.75C41.7877 129.49 42.1077 128.32 42.7477 127.24C43.3877 126.14 44.2577 125.27 45.3577 124.63C46.4577 123.99 47.6477 123.67 48.9277 123.67C50.2277 123.67 51.4577 124.02 52.6177 124.72C53.7777 125.4 54.5877 126.29 55.0477 127.39V124H56.0077V137.5H55.0477V134.14C54.5077 135.26 53.6677 136.16 52.5277 136.84C51.4077 137.5 50.2077 137.83 48.9277 137.83ZM48.9877 136.99C50.0877 136.99 51.1077 136.71 52.0477 136.15C52.9877 135.57 53.7277 134.81 54.2677 133.87C54.8277 132.91 55.1077 131.87 55.1077 130.75C55.1077 129.65 54.8277 128.62 54.2677 127.66C53.7077 126.7 52.9577 125.94 52.0177 125.38C51.0777 124.8 50.0577 124.51 48.9577 124.51C47.8577 124.51 46.8277 124.8 45.8677 125.38C44.9277 125.96 44.1677 126.73 43.5877 127.69C43.0277 128.65 42.7477 129.68 42.7477 130.78C42.7477 131.88 43.0277 132.91 43.5877 133.87C44.1677 134.81 44.9377 135.57 45.8977 136.15C46.8577 136.71 47.8877 136.99 48.9877 136.99ZM59.7943 124H60.7543V127.12C61.1543 126.14 61.7343 125.37 62.4943 124.81C63.2743 124.25 64.1543 123.97 65.1343 123.97C65.7543 123.97 66.3843 124.1 67.0243 124.36V125.47C66.4443 125.03 65.7943 124.81 65.0743 124.81C64.3543 124.81 63.6543 125.03 62.9743 125.47C62.3143 125.91 61.7743 126.5 61.3543 127.24C60.9543 127.98 60.7543 128.77 60.7543 129.61V137.5H59.7943V124ZM74.2337 137.68C72.7537 137.68 71.5237 137.23 70.5437 136.33C69.5837 135.43 69.1037 134.19 69.1037 132.61V118.57H70.0637V124H74.2037V124.84H70.0637V132.61C70.0637 133.93 70.4537 134.97 71.2337 135.73C72.0337 136.47 73.0337 136.84 74.2337 136.84V137.68ZM83.829 115H84.819V136.63H91.779V137.5H83.829V115ZM100.726 137.98C99.366 137.98 98.136 137.65 97.036 136.99C95.936 136.31 95.076 135.42 94.456 134.32C93.836 133.2 93.526 131.99 93.526 130.69C93.526 129.41 93.836 128.22 94.456 127.12C95.096 126.02 95.956 125.15 97.036 124.51C98.136 123.85 99.356 123.52 100.696 123.52C102.016 123.52 103.216 123.85 104.296 124.51C105.396 125.15 106.256 126.02 106.876 127.12C107.496 128.22 107.806 129.41 107.806 130.69C107.806 132.03 107.506 133.26 106.906 134.38C106.306 135.48 105.466 136.36 104.386 137.02C103.326 137.66 102.106 137.98 100.726 137.98ZM100.726 137.14C101.866 137.14 102.906 136.85 103.846 136.27C104.786 135.69 105.516 134.92 106.036 133.96C106.576 132.98 106.846 131.91 106.846 130.75C106.846 129.61 106.576 128.55 106.036 127.57C105.496 126.59 104.756 125.81 103.816 125.23C102.876 124.65 101.836 124.36 100.696 124.36C99.556 124.36 98.506 124.66 97.546 125.26C96.606 125.84 95.856 126.62 95.296 127.6C94.756 128.58 94.486 129.64 94.486 130.78C94.486 131.92 94.756 132.98 95.296 133.96C95.856 134.92 96.606 135.69 97.546 136.27C98.506 136.85 99.566 137.14 100.726 137.14ZM115.93 119.2C115.17 119.2 114.47 119.39 113.83 119.77C113.19 120.13 112.68 120.64 112.3 121.3C111.94 121.94 111.76 122.65 111.76 123.43V124H115.93V124.84H111.76V137.5H110.8V123.43C110.8 122.49 111.02 121.64 111.46 120.88C111.92 120.1 112.54 119.49 113.32 119.05C114.12 118.59 114.99 118.36 115.93 118.36V119.2ZM123.306 137.68C121.826 137.68 120.596 137.23 119.616 136.33C118.656 135.43 118.176 134.19 118.176 132.61V118.57H119.136V124H123.276V124.84H119.136V132.61C119.136 133.93 119.526 134.97 120.306 135.73C121.106 136.47 122.106 136.84 123.306 136.84V137.68Z"/>
</mask>
<path d="M10.1405 137.92C7.64055 137.92 5.70055 136.89 4.32055 134.83V133.21C4.86055 134.41 5.64055 135.35 6.66055 136.03C7.70055 136.71 8.94055 137.05 10.3805 137.05C11.3805 137.05 12.3005 136.83 13.1405 136.39C14.0005 135.95 14.6805 135.33 15.1805 134.53C15.6805 133.73 15.9305 132.81 15.9305 131.77C15.9305 130.83 15.7705 130.02 15.4505 129.34C15.1305 128.66 14.6005 128.01 13.8605 127.39C13.1205 126.75 12.0505 126 10.6505 125.14L9.69055 124.54C8.81055 124 8.10055 123.52 7.56055 123.1C7.02055 122.68 6.55055 122.19 6.15055 121.63C5.63055 120.85 5.37055 119.95 5.37055 118.93C5.37055 117.57 5.81055 116.51 6.69055 115.75C7.57055 114.99 8.69055 114.61 10.0505 114.61C11.8905 114.61 13.3505 115.29 14.4305 116.65V118.18C13.9705 117.34 13.3405 116.68 12.5405 116.2C11.7405 115.72 10.8605 115.48 9.90055 115.48C8.90055 115.48 8.06055 115.79 7.38055 116.41C6.70055 117.03 6.36055 117.86 6.36055 118.9C6.36055 119.92 6.67055 120.8 7.29055 121.54C7.93055 122.26 9.00055 123.05 10.5005 123.91C12.3405 124.99 13.7705 125.97 14.7905 126.85C15.5105 127.51 16.0305 128.24 16.3505 129.04C16.6905 129.84 16.8605 130.73 16.8605 131.71C16.8605 132.95 16.5705 134.04 15.9905 134.98C15.4105 135.92 14.6105 136.65 13.5905 137.17C12.5705 137.67 11.4205 137.92 10.1405 137.92ZM20.0091 124H20.9691V126.04C21.8891 124.46 23.3691 123.67 25.4091 123.67C26.3891 123.67 27.2391 123.95 27.9591 124.51C28.6791 125.05 29.1791 125.87 29.4591 126.97C29.7191 125.99 30.2891 125.2 31.1691 124.6C32.0691 123.98 33.0791 123.67 34.1991 123.67C35.6591 123.67 36.7891 124.1 37.5891 124.96C38.3891 125.8 38.7891 127 38.7891 128.56V137.5H37.8291V128.56C37.8291 127.3 37.4991 126.31 36.8391 125.59C36.1991 124.87 35.3491 124.51 34.2891 124.51C33.4891 124.51 32.7491 124.71 32.0691 125.11C31.3891 125.49 30.8491 126.01 30.4491 126.67C30.0491 127.33 29.8491 128.06 29.8491 128.86V137.5H28.8891V129.1C28.8891 127.66 28.5491 126.54 27.8691 125.74C27.1891 124.92 26.3091 124.51 25.2291 124.51C24.5091 124.51 23.8191 124.69 23.1591 125.05C22.5191 125.41 21.9891 125.9 21.5691 126.52C21.1691 127.12 20.9691 127.78 20.9691 128.5V137.5H20.0091V124ZM48.9277 137.83C47.6477 137.83 46.4577 137.51 45.3577 136.87C44.2577 136.23 43.3877 135.37 42.7477 134.29C42.1077 133.19 41.7877 132.01 41.7877 130.75C41.7877 129.49 42.1077 128.32 42.7477 127.24C43.3877 126.14 44.2577 125.27 45.3577 124.63C46.4577 123.99 47.6477 123.67 48.9277 123.67C50.2277 123.67 51.4577 124.02 52.6177 124.72C53.7777 125.4 54.5877 126.29 55.0477 127.39V124H56.0077V137.5H55.0477V134.14C54.5077 135.26 53.6677 136.16 52.5277 136.84C51.4077 137.5 50.2077 137.83 48.9277 137.83ZM48.9877 136.99C50.0877 136.99 51.1077 136.71 52.0477 136.15C52.9877 135.57 53.7277 134.81 54.2677 133.87C54.8277 132.91 55.1077 131.87 55.1077 130.75C55.1077 129.65 54.8277 128.62 54.2677 127.66C53.7077 126.7 52.9577 125.94 52.0177 125.38C51.0777 124.8 50.0577 124.51 48.9577 124.51C47.8577 124.51 46.8277 124.8 45.8677 125.38C44.9277 125.96 44.1677 126.73 43.5877 127.69C43.0277 128.65 42.7477 129.68 42.7477 130.78C42.7477 131.88 43.0277 132.91 43.5877 133.87C44.1677 134.81 44.9377 135.57 45.8977 136.15C46.8577 136.71 47.8877 136.99 48.9877 136.99ZM59.7943 124H60.7543V127.12C61.1543 126.14 61.7343 125.37 62.4943 124.81C63.2743 124.25 64.1543 123.97 65.1343 123.97C65.7543 123.97 66.3843 124.1 67.0243 124.36V125.47C66.4443 125.03 65.7943 124.81 65.0743 124.81C64.3543 124.81 63.6543 125.03 62.9743 125.47C62.3143 125.91 61.7743 126.5 61.3543 127.24C60.9543 127.98 60.7543 128.77 60.7543 129.61V137.5H59.7943V124ZM74.2337 137.68C72.7537 137.68 71.5237 137.23 70.5437 136.33C69.5837 135.43 69.1037 134.19 69.1037 132.61V118.57H70.0637V124H74.2037V124.84H70.0637V132.61C70.0637 133.93 70.4537 134.97 71.2337 135.73C72.0337 136.47 73.0337 136.84 74.2337 136.84V137.68ZM83.829 115H84.819V136.63H91.779V137.5H83.829V115ZM100.726 137.98C99.366 137.98 98.136 137.65 97.036 136.99C95.936 136.31 95.076 135.42 94.456 134.32C93.836 133.2 93.526 131.99 93.526 130.69C93.526 129.41 93.836 128.22 94.456 127.12C95.096 126.02 95.956 125.15 97.036 124.51C98.136 123.85 99.356 123.52 100.696 123.52C102.016 123.52 103.216 123.85 104.296 124.51C105.396 125.15 106.256 126.02 106.876 127.12C107.496 128.22 107.806 129.41 107.806 130.69C107.806 132.03 107.506 133.26 106.906 134.38C106.306 135.48 105.466 136.36 104.386 137.02C103.326 137.66 102.106 137.98 100.726 137.98ZM100.726 137.14C101.866 137.14 102.906 136.85 103.846 136.27C104.786 135.69 105.516 134.92 106.036 133.96C106.576 132.98 106.846 131.91 106.846 130.75C106.846 129.61 106.576 128.55 106.036 127.57C105.496 126.59 104.756 125.81 103.816 125.23C102.876 124.65 101.836 124.36 100.696 124.36C99.556 124.36 98.506 124.66 97.546 125.26C96.606 125.84 95.856 126.62 95.296 127.6C94.756 128.58 94.486 129.64 94.486 130.78C94.486 131.92 94.756 132.98 95.296 133.96C95.856 134.92 96.606 135.69 97.546 136.27C98.506 136.85 99.566 137.14 100.726 137.14ZM115.93 119.2C115.17 119.2 114.47 119.39 113.83 119.77C113.19 120.13 112.68 120.64 112.3 121.3C111.94 121.94 111.76 122.65 111.76 123.43V124H115.93V124.84H111.76V137.5H110.8V123.43C110.8 122.49 111.02 121.64 111.46 120.88C111.92 120.1 112.54 119.49 113.32 119.05C114.12 118.59 114.99 118.36 115.93 118.36V119.2ZM123.306 137.68C121.826 137.68 120.596 137.23 119.616 136.33C118.656 135.43 118.176 134.19 118.176 132.61V118.57H119.136V124H123.276V124.84H119.136V132.61C119.136 133.93 119.526 134.97 120.306 135.73C121.106 136.47 122.106 136.84 123.306 136.84V137.68Z" fill="#4C4C4E"/>
<path d="M4.32055 134.83H3.32055V135.134L3.48974 135.387L4.32055 134.83ZM4.32055 133.21L5.23247 132.8L3.32055 133.21H4.32055ZM6.66055 136.03L6.10582 136.862L6.1133 136.867L6.66055 136.03ZM13.1405 136.39L12.6851 135.5L12.6765 135.504L13.1405 136.39ZM15.1805 134.53L16.0285 135.06L16.0285 135.06L15.1805 134.53ZM13.8605 127.39L13.2064 128.146L13.2123 128.151L13.2183 128.157L13.8605 127.39ZM10.6505 125.14L10.1205 125.988L10.1271 125.992L10.6505 125.14ZM9.69055 124.54L10.2206 123.692L10.2136 123.688L9.69055 124.54ZM7.56055 123.1L6.94661 123.889L6.94661 123.889L7.56055 123.1ZM6.15055 121.63L5.3185 122.185L5.32744 122.198L5.33681 122.211L6.15055 121.63ZM14.4305 116.65H15.4305V116.301L15.2137 116.028L14.4305 116.65ZM14.4305 118.18L13.5535 118.66L15.4305 118.18H14.4305ZM7.38055 116.41L8.0543 117.149L8.0543 117.149L7.38055 116.41ZM7.29055 121.54L6.52403 122.182L6.53342 122.193L6.54314 122.204L7.29055 121.54ZM10.5005 123.91L11.0068 123.048L10.9979 123.042L10.5005 123.91ZM14.7905 126.85L15.4663 126.113L15.4552 126.103L15.4438 126.093L14.7905 126.85ZM16.3505 129.04L15.4221 129.411L15.426 129.421L15.4302 129.431L16.3505 129.04ZM15.9905 134.98L16.8416 135.505L16.8416 135.505L15.9905 134.98ZM13.5905 137.17L14.0307 138.068L14.0377 138.064L14.0447 138.061L13.5905 137.17ZM10.1405 136.92C7.97078 136.92 6.34386 136.054 5.15135 134.273L3.48974 135.387C5.05723 137.726 7.31031 138.92 10.1405 138.92V136.92ZM5.32055 134.83V133.21H3.32055V134.83H5.32055ZM3.40863 133.62C4.01982 134.979 4.91798 136.07 6.10585 136.862L7.21525 135.198C6.36311 134.63 5.70127 133.841 5.23247 132.8L3.40863 133.62ZM6.1133 136.867C7.34058 137.669 8.77778 138.05 10.3805 138.05V136.05C9.10332 136.05 8.06052 135.751 7.2078 135.193L6.1133 136.867ZM10.3805 138.05C11.5331 138.05 12.6135 137.795 13.6046 137.276L12.6765 135.504C11.9876 135.865 11.228 136.05 10.3805 136.05V138.05ZM13.596 137.28C14.613 136.76 15.4303 136.017 16.0285 135.06L14.3325 134C13.9308 134.643 13.3881 135.14 12.6851 135.5L13.596 137.28ZM16.0285 135.06C16.6379 134.085 16.9305 132.978 16.9305 131.77H14.9305C14.9305 132.642 14.7232 133.375 14.3325 134L16.0285 135.06ZM16.9305 131.77C16.9305 130.719 16.7517 129.756 16.3554 128.914L14.5457 129.766C14.7894 130.284 14.9305 130.941 14.9305 131.77H16.9305ZM16.3554 128.914C15.9586 128.071 15.3235 127.311 14.5028 126.623L13.2183 128.157C13.8776 128.709 14.3025 129.249 14.5457 129.766L16.3554 128.914ZM14.5147 126.634C13.7156 125.943 12.5936 125.16 11.174 124.288L10.1271 125.992C11.5075 126.84 12.5255 127.557 13.2064 128.146L14.5147 126.634ZM11.1805 124.292L10.2205 123.692L9.16055 125.388L10.1205 125.988L11.1805 124.292ZM10.2136 123.688C9.35092 123.158 8.67472 122.7 8.17449 122.311L6.94661 123.889C7.52637 124.34 8.27017 124.842 9.16753 125.392L10.2136 123.688ZM8.17449 122.311C7.71125 121.95 7.30843 121.531 6.96428 121.049L5.33681 122.211C5.79266 122.849 6.32984 123.41 6.94661 123.889L8.17449 122.311ZM6.9826 121.075C6.58177 120.474 6.37055 119.771 6.37055 118.93H4.37055C4.37055 120.129 4.67933 121.226 5.3185 122.185L6.9826 121.075ZM6.37055 118.93C6.37055 117.806 6.72225 117.044 7.34417 116.507L6.03693 114.993C4.89884 115.976 4.37055 117.334 4.37055 118.93H6.37055ZM7.34417 116.507C8.01245 115.93 8.88756 115.61 10.0505 115.61V113.61C8.49353 113.61 7.12864 114.05 6.03693 114.993L7.34417 116.507ZM10.0505 115.61C11.6065 115.61 12.7698 116.167 13.6474 117.272L15.2137 116.028C13.9313 114.413 12.1746 113.61 10.0505 113.61V115.61ZM13.4305 116.65V118.18H15.4305V116.65H13.4305ZM15.3076 117.7C14.7648 116.708 14.0114 115.916 13.055 115.343L12.0261 117.057C12.6697 117.444 13.1763 117.972 13.5535 118.66L15.3076 117.7ZM13.055 115.343C12.095 114.766 11.0363 114.48 9.90055 114.48V116.48C10.6848 116.48 11.3861 116.674 12.0261 117.057L13.055 115.343ZM9.90055 114.48C8.67477 114.48 7.58765 114.868 6.70679 115.671L8.0543 117.149C8.53345 116.712 9.12632 116.48 9.90055 116.48V114.48ZM6.70679 115.671C5.79081 116.506 5.36055 117.619 5.36055 118.9H7.36055C7.36055 118.101 7.61028 117.554 8.0543 117.149L6.70679 115.671ZM5.36055 118.9C5.36055 120.14 5.74422 121.251 6.52403 122.182L8.05707 120.898C7.59688 120.349 7.36055 119.7 7.36055 118.9H5.36055ZM6.54314 122.204C7.29065 123.045 8.47146 123.899 10.0032 124.778L10.9979 123.042C9.52964 122.201 8.57044 121.475 8.03796 120.876L6.54314 122.204ZM9.99435 124.772C11.8086 125.837 13.1815 126.783 14.1373 127.607L15.4438 126.093C14.3596 125.157 12.8725 124.143 11.0067 123.048L9.99435 124.772ZM14.1148 127.587C14.739 128.159 15.1648 128.768 15.4221 129.411L17.279 128.669C16.8963 127.712 16.2821 126.861 15.4663 126.113L14.1148 127.587ZM15.4302 129.431C15.7113 130.093 15.8605 130.847 15.8605 131.71H17.8605C17.8605 130.613 17.6697 129.587 17.2709 128.649L15.4302 129.431ZM15.8605 131.71C15.8605 132.788 15.6105 133.691 15.1395 134.455L16.8416 135.505C17.5306 134.388 17.8605 133.112 17.8605 131.71H15.8605ZM15.1395 134.455C14.6594 135.233 13.9993 135.839 13.1364 136.279L14.0447 138.061C15.2218 137.461 16.1617 136.607 16.8416 135.505L15.1395 134.455ZM13.1504 136.272C12.2839 136.697 11.2874 136.92 10.1405 136.92V138.92C11.5536 138.92 12.8572 138.643 14.0307 138.068L13.1504 136.272ZM20.0091 124V123H19.0091V124H20.0091ZM20.9691 124H21.9691V123H20.9691V124ZM20.9691 126.04H19.9691V129.745L21.8333 126.543L20.9691 126.04ZM27.9591 124.51L27.3452 125.299L27.3521 125.305L27.3591 125.31L27.9591 124.51ZM29.4591 126.97L28.49 127.217L29.4391 130.945L30.4257 127.226L29.4591 126.97ZM31.1691 124.6L31.7325 125.426L31.7364 125.424L31.1691 124.6ZM37.5891 124.96L36.8569 125.641L36.865 125.65L37.5891 124.96ZM38.7891 137.5V138.5H39.7891V137.5H38.7891ZM37.8291 137.5H36.8291V138.5H37.8291V137.5ZM36.8391 125.59L36.0917 126.254L36.0968 126.26L36.102 126.266L36.8391 125.59ZM32.0691 125.11L32.557 125.983L32.5666 125.978L32.5762 125.972L32.0691 125.11ZM30.4491 126.67L29.5939 126.152L29.5939 126.152L30.4491 126.67ZM29.8491 137.5V138.5H30.8491V137.5H29.8491ZM28.8891 137.5H27.8891V138.5H28.8891V137.5ZM27.8691 125.74L27.0993 126.378L27.1072 126.388L27.8691 125.74ZM23.1591 125.05L22.6802 124.172L22.6689 124.178L23.1591 125.05ZM21.5691 126.52L20.7412 125.959L20.7371 125.965L21.5691 126.52ZM20.9691 137.5V138.5H21.9691V137.5H20.9691ZM20.0091 137.5H19.0091V138.5H20.0091V137.5ZM20.0091 125H20.9691V123H20.0091V125ZM19.9691 124V126.04H21.9691V124H19.9691ZM21.8333 126.543C22.5505 125.311 23.6754 124.67 25.4091 124.67V122.67C23.0629 122.67 21.2277 123.609 20.105 125.537L21.8333 126.543ZM25.4091 124.67C26.1844 124.67 26.8142 124.886 27.3452 125.299L28.5731 123.721C27.6641 123.014 26.5939 122.67 25.4091 122.67V124.67ZM27.3591 125.31C27.8532 125.681 28.2513 126.279 28.49 127.217L30.4282 126.723C30.107 125.461 29.5051 124.419 28.5591 123.71L27.3591 125.31ZM30.4257 127.226C30.6208 126.491 31.0401 125.898 31.7325 125.426L30.6058 123.774C29.5382 124.502 28.8175 125.489 28.4926 126.714L30.4257 127.226ZM31.7364 125.424C32.4652 124.921 33.2764 124.67 34.1991 124.67V122.67C32.8819 122.67 31.673 123.039 30.6018 123.776L31.7364 125.424ZM34.1991 124.67C35.4536 124.67 36.2903 125.032 36.857 125.641L38.3213 124.279C37.288 123.168 35.8646 122.67 34.1991 122.67V124.67ZM36.865 125.65C37.434 126.247 37.7891 127.166 37.7891 128.56H39.7891C39.7891 126.834 39.3443 125.353 38.3133 124.27L36.865 125.65ZM37.7891 128.56V137.5H39.7891V128.56H37.7891ZM38.7891 136.5H37.8291V138.5H38.7891V136.5ZM38.8291 137.5V128.56H36.8291V137.5H38.8291ZM38.8291 128.56C38.8291 127.125 38.4499 125.867 37.5763 124.914L36.102 126.266C36.5484 126.753 36.8291 127.475 36.8291 128.56H38.8291ZM37.5866 124.926C36.7365 123.969 35.6027 123.51 34.2891 123.51V125.51C35.0956 125.51 35.6618 125.771 36.0917 126.254L37.5866 124.926ZM34.2891 123.51C33.3135 123.51 32.3981 123.756 31.5621 124.248L32.5762 125.972C33.1002 125.664 33.6648 125.51 34.2891 125.51V123.51ZM31.5813 124.237C30.7517 124.701 30.0845 125.342 29.5939 126.152L31.3043 127.188C31.6138 126.678 32.0266 126.279 32.557 125.983L31.5813 124.237ZM29.5939 126.152C29.0957 126.974 28.8491 127.884 28.8491 128.86H30.8491C30.8491 128.236 31.0026 127.686 31.3043 127.188L29.5939 126.152ZM28.8491 128.86V137.5H30.8491V128.86H28.8491ZM29.8491 136.5H28.8891V138.5H29.8491V136.5ZM29.8891 137.5V129.1H27.8891V137.5H29.8891ZM29.8891 129.1C29.8891 127.511 29.5135 126.131 28.6311 125.092L27.1072 126.388C27.5848 126.949 27.8891 127.809 27.8891 129.1H29.8891ZM28.6389 125.102C27.7659 124.049 26.602 123.51 25.2291 123.51V125.51C26.0163 125.51 26.6124 125.791 27.0994 126.378L28.6389 125.102ZM25.2291 123.51C24.3343 123.51 23.4805 123.736 22.6803 124.172L23.638 125.928C24.1578 125.644 24.684 125.51 25.2291 125.51V123.51ZM22.6689 124.178C21.891 124.616 21.2464 125.213 20.7412 125.959L22.3971 127.081C22.7319 126.587 23.1473 126.204 23.6494 125.922L22.6689 124.178ZM20.7371 125.965C20.2278 126.729 19.9691 127.582 19.9691 128.5H21.9691C21.9691 127.978 22.1105 127.511 22.4012 127.075L20.7371 125.965ZM19.9691 128.5V137.5H21.9691V128.5H19.9691ZM20.9691 136.5H20.0091V138.5H20.9691V136.5ZM21.0091 137.5V124H19.0091V137.5H21.0091ZM45.3577 136.87L44.8548 137.734L44.8548 137.734L45.3577 136.87ZM42.7477 134.29L41.8834 134.793L41.8874 134.8L42.7477 134.29ZM42.7477 127.24L43.6081 127.75L43.6121 127.743L42.7477 127.24ZM45.3577 124.63L44.8548 123.766L44.8548 123.766L45.3577 124.63ZM52.6177 124.72L52.101 125.576L52.112 125.583L52.6177 124.72ZM55.0477 127.39L54.1252 127.776L56.0477 127.39H55.0477ZM55.0477 124V123H54.0477V124H55.0477ZM56.0077 124H57.0077V123H56.0077V124ZM56.0077 137.5V138.5H57.0077V137.5H56.0077ZM55.0477 137.5H54.0477V138.5H55.0477V137.5ZM55.0477 134.14H56.0477L54.147 133.706L55.0477 134.14ZM52.5277 136.84L53.0354 137.702L53.04 137.699L52.5277 136.84ZM52.0477 136.15L52.5595 137.009L52.5662 137.005L52.5728 137.001L52.0477 136.15ZM54.2677 133.87L53.4039 133.366L53.4006 133.372L54.2677 133.87ZM54.2677 127.66L53.404 128.164L53.404 128.164L54.2677 127.66ZM52.0177 125.38L51.4926 126.231L51.4992 126.235L51.5059 126.239L52.0177 125.38ZM45.8677 125.38L45.3506 124.524L45.3426 124.529L45.8677 125.38ZM43.5877 127.69L42.7318 127.173L42.7278 127.179L42.724 127.186L43.5877 127.69ZM43.5877 133.87L42.724 134.374L42.7302 134.385L42.7367 134.395L43.5877 133.87ZM45.8977 136.15L45.3806 137.006L45.3872 137.01L45.3939 137.014L45.8977 136.15ZM48.9277 136.83C47.8233 136.83 46.807 136.556 45.8606 136.006L44.8548 137.734C46.1085 138.464 47.4721 138.83 48.9277 138.83V136.83ZM45.8606 136.006C44.9059 135.45 44.1598 134.711 43.608 133.78L41.8874 134.8C42.6156 136.029 43.6095 137.01 44.8548 137.734L45.8606 136.006ZM43.6121 133.787C43.06 132.838 42.7877 131.831 42.7877 130.75H40.7877C40.7877 132.189 41.1555 133.542 41.8834 134.793L43.6121 133.787ZM42.7877 130.75C42.7877 129.669 43.0598 128.675 43.608 127.75L41.8874 126.73C41.1556 127.965 40.7877 129.311 40.7877 130.75H42.7877ZM43.6121 127.743C44.1649 126.793 44.9104 126.047 45.8606 125.494L44.8548 123.766C43.6051 124.493 42.6105 125.487 41.8834 126.737L43.6121 127.743ZM45.8606 125.494C46.807 124.944 47.8233 124.67 48.9277 124.67V122.67C47.4721 122.67 46.1085 123.036 44.8548 123.766L45.8606 125.494ZM48.9277 124.67C50.0378 124.67 51.0901 124.966 52.1011 125.576L53.1344 123.864C51.8254 123.074 50.4177 122.67 48.9277 122.67V124.67ZM52.112 125.583C53.1101 126.168 53.7593 126.901 54.1252 127.776L55.9703 127.004C55.4162 125.679 54.4454 124.632 53.1235 123.857L52.112 125.583ZM56.0477 127.39V124H54.0477V127.39H56.0477ZM55.0477 125H56.0077V123H55.0477V125ZM55.0077 124V137.5H57.0077V124H55.0077ZM56.0077 136.5H55.0477V138.5H56.0077V136.5ZM56.0477 137.5V134.14H54.0477V137.5H56.0477ZM54.147 133.706C53.6979 134.637 52.9991 135.394 52.0155 135.981L53.04 137.699C54.3364 136.926 55.3176 135.883 55.9485 134.574L54.147 133.706ZM52.02 135.978C51.0513 136.549 50.0263 136.83 48.9277 136.83V138.83C50.3892 138.83 51.7641 138.451 53.0354 137.702L52.02 135.978ZM48.9877 137.99C50.2669 137.99 51.4639 137.662 52.5595 137.009L51.5359 135.291C50.7516 135.758 49.9086 135.99 48.9877 135.99V137.99ZM52.5728 137.001C53.6516 136.335 54.5104 135.455 55.1348 134.368L53.4006 133.372C52.9451 134.165 52.3238 134.805 51.5226 135.299L52.5728 137.001ZM55.1315 134.374C55.7815 133.26 56.1077 132.046 56.1077 130.75H54.1077C54.1077 131.694 53.874 132.56 53.404 133.366L55.1315 134.374ZM56.1077 130.75C56.1077 129.471 55.7798 128.267 55.1315 127.156L53.404 128.164C53.8757 128.973 54.1077 129.829 54.1077 130.75H56.1077ZM55.1315 127.156C54.4876 126.052 53.6174 125.169 52.5295 124.521L51.5059 126.239C52.298 126.711 52.9279 127.348 53.404 128.164L55.1315 127.156ZM52.5428 124.529C51.4457 123.852 50.244 123.51 48.9577 123.51V125.51C49.8715 125.51 50.7098 125.748 51.4926 126.231L52.5428 124.529ZM48.9577 123.51C47.6717 123.51 46.4634 123.852 45.3506 124.524L46.3849 126.236C47.1921 125.748 48.0437 125.51 48.9577 125.51V123.51ZM45.3426 124.529C44.2652 125.194 43.3927 126.079 42.7318 127.173L44.4437 128.207C44.9428 127.381 45.5902 126.726 46.3928 126.231L45.3426 124.529ZM42.724 127.186C42.0757 128.297 41.7477 129.501 41.7477 130.78H43.7477C43.7477 129.859 43.9798 129.003 44.4515 128.194L42.724 127.186ZM41.7477 130.78C41.7477 132.059 42.0757 133.263 42.724 134.374L44.4515 133.366C43.9798 132.557 43.7477 131.701 43.7477 130.78H41.7477ZM42.7367 134.395C43.4015 135.472 44.2868 136.345 45.3806 137.006L46.4149 135.294C45.5887 134.795 44.934 134.148 44.4388 133.345L42.7367 134.395ZM45.3939 137.014C46.5051 137.662 47.7088 137.99 48.9877 137.99V135.99C48.0667 135.99 47.2103 135.758 46.4016 135.286L45.3939 137.014ZM59.7943 124V123H58.7943V124H59.7943ZM60.7543 124H61.7543V123H60.7543V124ZM60.7543 127.12H59.7543L61.6801 127.498L60.7543 127.12ZM62.4943 124.81L61.911 123.998L61.9011 124.005L62.4943 124.81ZM67.0243 124.36H68.0243V123.687L67.4007 123.434L67.0243 124.36ZM67.0243 125.47L66.4199 126.267L68.0243 127.484V125.47H67.0243ZM62.9743 125.47L62.431 124.63L62.4196 124.638L62.9743 125.47ZM61.3543 127.24L60.4846 126.746L60.4795 126.755L60.4746 126.764L61.3543 127.24ZM60.7543 137.5V138.5H61.7543V137.5H60.7543ZM59.7943 137.5H58.7943V138.5H59.7943V137.5ZM59.7943 125H60.7543V123H59.7943V125ZM59.7543 124V127.12H61.7543V124H59.7543ZM61.6801 127.498C62.0193 126.667 62.493 126.053 63.0875 125.615L61.9011 124.005C60.9756 124.687 60.2893 125.613 59.8284 126.742L61.6801 127.498ZM63.0775 125.622C63.6838 125.187 64.3589 124.97 65.1343 124.97V122.97C63.9497 122.97 62.8648 123.313 61.9111 123.998L63.0775 125.622ZM65.1343 124.97C65.6113 124.97 66.1138 125.069 66.6479 125.286L67.4007 123.434C66.6548 123.131 65.8973 122.97 65.1343 122.97V124.97ZM66.0243 124.36V125.47H68.0243V124.36H66.0243ZM67.6287 124.673C66.8769 124.103 66.0152 123.81 65.0743 123.81V125.81C65.5734 125.81 66.0117 125.957 66.4199 126.267L67.6287 124.673ZM65.0743 123.81C64.1381 123.81 63.252 124.099 62.431 124.63L63.5175 126.31C64.0566 125.961 64.5705 125.81 65.0743 125.81V123.81ZM62.4196 124.638C61.6203 125.171 60.976 125.881 60.4846 126.746L62.224 127.734C62.5726 127.119 63.0083 126.649 63.529 126.302L62.4196 124.638ZM60.4746 126.764C59.9958 127.65 59.7543 128.604 59.7543 129.61H61.7543C61.7543 128.936 61.9128 128.31 62.234 127.716L60.4746 126.764ZM59.7543 129.61V137.5H61.7543V129.61H59.7543ZM60.7543 136.5H59.7943V138.5H60.7543V136.5ZM60.7943 137.5V124H58.7943V137.5H60.7943ZM74.2337 137.68V138.68H75.2337V137.68H74.2337ZM70.5437 136.33L69.8597 137.06L69.8673 137.067L70.5437 136.33ZM69.1037 118.57V117.57H68.1037V118.57H69.1037ZM70.0637 118.57H71.0637V117.57H70.0637V118.57ZM70.0637 124H69.0637V125H70.0637V124ZM74.2037 124H75.2037V123H74.2037V124ZM74.2037 124.84V125.84H75.2037V124.84H74.2037ZM70.0637 124.84V123.84H69.0637V124.84H70.0637ZM71.2337 135.73L70.5358 136.446L70.5451 136.455L70.5546 136.464L71.2337 135.73ZM74.2337 136.84H75.2337V135.84H74.2337V136.84ZM74.2337 136.68C72.9738 136.68 71.9943 136.305 71.2201 135.593L69.8673 137.067C71.053 138.155 72.5336 138.68 74.2337 138.68V136.68ZM71.2276 135.6C70.5092 134.927 70.1037 133.974 70.1037 132.61H68.1037C68.1037 134.406 68.6581 135.933 69.8597 137.06L71.2276 135.6ZM70.1037 132.61V118.57H68.1037V132.61H70.1037ZM69.1037 119.57H70.0637V117.57H69.1037V119.57ZM69.0637 118.57V124H71.0637V118.57H69.0637ZM70.0637 125H74.2037V123H70.0637V125ZM73.2037 124V124.84H75.2037V124H73.2037ZM74.2037 123.84H70.0637V125.84H74.2037V123.84ZM69.0637 124.84V132.61H71.0637V124.84H69.0637ZM69.0637 132.61C69.0637 134.138 69.5227 135.459 70.5358 136.446L71.9315 135.014C71.3846 134.481 71.0637 133.722 71.0637 132.61H69.0637ZM70.5546 136.464C71.5588 137.393 72.8096 137.84 74.2337 137.84V135.84C73.2578 135.84 72.5086 135.547 71.9127 134.996L70.5546 136.464ZM73.2337 136.84V137.68H75.2337V136.84H73.2337ZM83.829 115V114H82.829V115H83.829ZM84.819 115H85.819V114H84.819V115ZM84.819 136.63H83.819V137.63H84.819V136.63ZM91.779 136.63H92.779V135.63H91.779V136.63ZM91.779 137.5V138.5H92.779V137.5H91.779ZM83.829 137.5H82.829V138.5H83.829V137.5ZM83.829 116H84.819V114H83.829V116ZM83.819 115V136.63H85.819V115H83.819ZM84.819 137.63H91.779V135.63H84.819V137.63ZM90.779 136.63V137.5H92.779V136.63H90.779ZM91.779 136.5H83.829V138.5H91.779V136.5ZM84.829 137.5V115H82.829V137.5H84.829ZM97.036 136.99L96.5101 137.841L96.5215 137.847L97.036 136.99ZM94.456 134.32L93.5811 134.804L93.5849 134.811L94.456 134.32ZM94.456 127.12L93.5916 126.617L93.5849 126.629L94.456 127.12ZM97.036 124.51L97.5458 125.37L97.5505 125.367L97.036 124.51ZM104.296 124.51L103.775 125.363L103.784 125.369L103.793 125.374L104.296 124.51ZM106.906 134.38L107.784 134.859L107.787 134.852L106.906 134.38ZM104.386 137.02L104.903 137.876L104.907 137.873L104.386 137.02ZM103.846 136.27L103.321 135.419L103.321 135.419L103.846 136.27ZM106.036 133.96L105.16 133.477L105.157 133.484L106.036 133.96ZM106.036 127.57L106.912 127.087L106.912 127.087L106.036 127.57ZM103.816 125.23L103.291 126.081L103.291 126.081L103.816 125.23ZM97.546 125.26L98.0711 126.111L98.076 126.108L97.546 125.26ZM95.296 127.6L94.4278 127.104L94.4239 127.111L94.4202 127.117L95.296 127.6ZM95.296 133.96L94.4202 134.443L94.4261 134.453L94.4322 134.464L95.296 133.96ZM97.546 136.27L97.0209 137.121L97.0289 137.126L97.546 136.27ZM100.726 136.98C99.5359 136.98 98.4856 136.694 97.5505 136.133L96.5215 137.847C97.7864 138.606 99.1961 138.98 100.726 138.98V136.98ZM97.5618 136.139C96.6018 135.546 95.8622 134.778 95.3272 133.829L93.5849 134.811C94.2898 136.062 95.2702 137.074 96.5102 137.841L97.5618 136.139ZM95.3309 133.836C94.7943 132.866 94.526 131.823 94.526 130.69H92.526C92.526 132.157 92.8777 133.534 93.5811 134.804L95.3309 133.836ZM94.526 130.69C94.526 129.58 94.7928 128.559 95.3272 127.611L93.5849 126.629C92.8792 127.881 92.526 129.24 92.526 130.69H94.526ZM95.3204 127.623C95.8758 126.668 96.6146 125.922 97.5458 125.37L96.5262 123.65C95.2974 124.378 94.3162 125.372 93.5917 126.617L95.3204 127.623ZM97.5505 125.367C98.488 124.805 99.5288 124.52 100.696 124.52V122.52C99.1832 122.52 97.784 122.895 96.5215 123.653L97.5505 125.367ZM100.696 124.52C101.84 124.52 102.858 124.803 103.775 125.363L104.817 123.657C103.574 122.897 102.192 122.52 100.696 122.52V124.52ZM103.793 125.374C104.741 125.926 105.473 126.667 106.005 127.611L107.747 126.629C107.039 125.373 106.051 124.374 104.799 123.646L103.793 125.374ZM106.005 127.611C106.539 128.559 106.806 129.58 106.806 130.69H108.806C108.806 129.24 108.453 127.881 107.747 126.629L106.005 127.611ZM106.806 130.69C106.806 131.875 106.542 132.941 106.025 133.908L107.787 134.852C108.47 133.579 108.806 132.185 108.806 130.69H106.806ZM106.028 133.901C105.513 134.846 104.797 135.597 103.865 136.167L104.907 137.873C106.135 137.123 107.099 136.114 107.784 134.859L106.028 133.901ZM103.869 136.164C102.982 136.699 101.945 136.98 100.726 136.98V138.98C102.267 138.98 103.67 138.621 104.903 137.876L103.869 136.164ZM100.726 138.14C102.045 138.14 103.268 137.802 104.371 137.121L103.321 135.419C102.544 135.898 101.687 136.14 100.726 136.14V138.14ZM104.371 137.121C105.458 136.45 106.311 135.552 106.915 134.436L105.157 133.484C104.721 134.288 104.114 134.93 103.321 135.419L104.371 137.121ZM106.912 134.443C107.536 133.309 107.846 132.072 107.846 130.75H105.846C105.846 131.748 105.616 132.651 105.16 133.477L106.912 134.443ZM107.846 130.75C107.846 129.445 107.535 128.218 106.912 127.087L105.16 128.053C105.617 128.882 105.846 129.775 105.846 130.75H107.846ZM106.912 127.087C106.29 125.958 105.43 125.051 104.341 124.379L103.291 126.081C104.082 126.569 104.702 127.222 105.16 128.053L106.912 127.087ZM104.341 124.379C103.238 123.698 102.015 123.36 100.696 123.36V125.36C101.657 125.36 102.514 125.602 103.291 126.081L104.341 124.379ZM100.696 123.36C99.37 123.36 98.1361 123.712 97.016 124.412L98.076 126.108C98.8759 125.608 99.742 125.36 100.696 125.36V123.36ZM97.0209 124.409C95.9355 125.079 95.0688 125.982 94.4278 127.104L96.1643 128.096C96.6432 127.258 97.2766 126.601 98.0711 126.111L97.0209 124.409ZM94.4202 127.117C93.7971 128.248 93.486 129.475 93.486 130.78H95.486C95.486 129.805 95.7149 128.912 96.1719 128.083L94.4202 127.117ZM93.486 130.78C93.486 132.085 93.7971 133.312 94.4202 134.443L96.1719 133.477C95.7149 132.648 95.486 131.755 95.486 130.78H93.486ZM94.4322 134.464C95.0744 135.565 95.9403 136.454 97.0209 137.121L98.0711 135.419C97.2717 134.926 96.6376 134.275 96.1598 133.456L94.4322 134.464ZM97.0289 137.126C98.1504 137.804 99.3903 138.14 100.726 138.14V136.14C99.7418 136.14 98.8616 135.896 98.0631 135.414L97.0289 137.126ZM115.93 119.2V120.2H116.93V119.2H115.93ZM113.83 119.77L114.32 120.642L114.331 120.636L114.341 120.63L113.83 119.77ZM112.3 121.3L111.433 120.801L111.429 120.81L112.3 121.3ZM111.76 124H110.76V125H111.76V124ZM115.93 124H116.93V123H115.93V124ZM115.93 124.84V125.84H116.93V124.84H115.93ZM111.76 124.84V123.84H110.76V124.84H111.76ZM111.76 137.5V138.5H112.76V137.5H111.76ZM110.8 137.5H109.8V138.5H110.8V137.5ZM111.46 120.88L110.599 120.372L110.595 120.379L111.46 120.88ZM113.32 119.05L113.811 119.921L113.819 119.917L113.32 119.05ZM115.93 118.36H116.93V117.36H115.93V118.36ZM115.93 118.2C114.994 118.2 114.118 118.436 113.32 118.91L114.341 120.63C114.823 120.344 115.346 120.2 115.93 120.2V118.2ZM113.34 118.898C112.537 119.35 111.9 119.991 111.434 120.801L113.167 121.799C113.461 121.289 113.843 120.91 114.32 120.642L113.34 118.898ZM111.429 120.81C110.979 121.609 110.76 122.489 110.76 123.43H112.76C112.76 122.811 112.901 122.271 113.172 121.79L111.429 120.81ZM110.76 123.43V124H112.76V123.43H110.76ZM111.76 125H115.93V123H111.76V125ZM114.93 124V124.84H116.93V124H114.93ZM115.93 123.84H111.76V125.84H115.93V123.84ZM110.76 124.84V137.5H112.76V124.84H110.76ZM111.76 136.5H110.8V138.5H111.76V136.5ZM111.8 137.5V123.43H109.8V137.5H111.8ZM111.8 123.43C111.8 122.653 111.98 121.978 112.326 121.381L110.595 120.379C110.06 121.302 109.8 122.327 109.8 123.43H111.8ZM112.322 121.388C112.693 120.758 113.186 120.274 113.811 119.921L112.829 118.179C111.894 118.706 111.147 119.442 110.599 120.372L112.322 121.388ZM113.819 119.917C114.464 119.546 115.162 119.36 115.93 119.36V117.36C114.819 117.36 113.776 117.634 112.822 118.183L113.819 119.917ZM114.93 118.36V119.2H116.93V118.36H114.93ZM123.306 137.68V138.68H124.306V137.68H123.306ZM119.616 136.33L118.932 137.06L118.94 137.067L119.616 136.33ZM118.176 118.57V117.57H117.176V118.57H118.176ZM119.136 118.57H120.136V117.57H119.136V118.57ZM119.136 124H118.136V125H119.136V124ZM123.276 124H124.276V123H123.276V124ZM123.276 124.84V125.84H124.276V124.84H123.276ZM119.136 124.84V123.84H118.136V124.84H119.136ZM120.306 135.73L119.608 136.446L119.617 136.455L119.627 136.464L120.306 135.73ZM123.306 136.84H124.306V135.84H123.306V136.84ZM123.306 136.68C122.046 136.68 121.067 136.305 120.292 135.593L118.94 137.067C120.125 138.155 121.606 138.68 123.306 138.68V136.68ZM120.3 135.6C119.581 134.927 119.176 133.974 119.176 132.61H117.176C117.176 134.406 117.73 135.933 118.932 137.06L120.3 135.6ZM119.176 132.61V118.57H117.176V132.61H119.176ZM118.176 119.57H119.136V117.57H118.176V119.57ZM118.136 118.57V124H120.136V118.57H118.136ZM119.136 125H123.276V123H119.136V125ZM122.276 124V124.84H124.276V124H122.276ZM123.276 123.84H119.136V125.84H123.276V123.84ZM118.136 124.84V132.61H120.136V124.84H118.136ZM118.136 132.61C118.136 134.138 118.595 135.459 119.608 136.446L121.004 135.014C120.457 134.481 120.136 133.722 120.136 132.61H118.136ZM119.627 136.464C120.631 137.393 121.882 137.84 123.306 137.84V135.84C122.33 135.84 121.581 135.547 120.985 134.996L119.627 136.464ZM122.306 136.84V137.68H124.306V136.84H122.306Z" fill="#4C4C4E" mask="url(#path-5-outside-1_956_34)"/>
</g>
<defs>
<filter id="filter0_d_956_34" x="0.320557" y="114.61" width="126.985" height="31.37" filterUnits="userSpaceOnUse" color-interpolation-filters="sRGB">
<feFlood flood-opacity="0" result="BackgroundImageFix"/>
<feColorMatrix in="SourceAlpha" type="matrix" values="0 0 0 0 0 0 0 0 0 0 0 0 0 0 0 0 0 0 127 0" result="hardAlpha"/>
<feOffset dy="4"/>
<feGaussianBlur stdDeviation="2"/>
<feComposite in2="hardAlpha" operator="out"/>
<feColorMatrix type="matrix" values="0 0 0 0 0 0 0 0 0 0 0 0 0 0 0 0 0 0 0.1 0"/>
<feBlend mode="normal" in2="BackgroundImageFix" result="effect1_dropShadow_956_34"/>
<feBlend mode="normal" in="SourceGraphic" in2="effect1_dropShadow_956_34" result="shape"/>
</filter>
</defs>
</svg>
