<svg width="36" height="60" viewBox="0 0 36 60" fill="none" xmlns="http://www.w3.org/2000/svg">
<path d="M9.22934 54.6686L10.6911 52.6405L9.22935 54.6686C11.7833 56.5094 14.8518 57.5 18 57.5C21.1482 57.5 24.2167 56.5094 26.7707 54.6686C29.3246 52.8278 31.2347 50.2301 32.2302 47.2434C33.2258 44.2567 33.2564 41.0325 32.3177 38.0275C31.508 35.4353 30.0123 33.1195 28 31.3196V12.5C28 9.84784 26.9464 7.3043 25.0711 5.42893L23.3205 7.17954L25.0711 5.42893C23.1957 3.55357 20.6522 2.5 18 2.5C15.3478 2.5 12.8043 3.55357 10.9289 5.42893C9.05357 7.3043 8 9.84784 8 12.5V31.3196C5.98767 33.1195 4.49205 35.4353 3.6823 38.0275C2.74359 41.0325 2.77419 44.2567 3.76975 47.2434C4.76531 50.2301 6.67536 52.8278 9.22934 54.6686Z" fill="#FEC341" stroke="url(#paint0_linear_2309_1741)" stroke-width="5"/>
<defs>
<linearGradient id="paint0_linear_2309_1741" x1="18" y1="5" x2="18" y2="55" gradientUnits="userSpaceOnUse">
<stop offset="0.415625" stop-color="#717250"/>
<stop offset="1" stop-color="#4C4C4E"/>
</linearGradient>
</defs>
</svg>
