<svg width="78" height="54" viewBox="0 0 78 54" fill="none" xmlns="http://www.w3.org/2000/svg">
<path d="M57.2158 2.9043H6.61439C4.61822 2.9043 3 4.564 3 6.61136V47.389C3 49.4364 4.61822 51.0961 6.61439 51.0961H57.2158C59.212 51.0961 60.8302 49.4364 60.8302 47.389V6.61136C60.8302 4.564 59.212 2.9043 57.2158 2.9043Z" stroke="#4C4C4E" stroke-width="5"/>
<path d="M31.9149 38.1213C37.9035 38.1213 42.7581 33.1422 42.7581 27.0001C42.7581 20.858 37.9035 15.8789 31.9149 15.8789C25.9264 15.8789 21.0718 20.858 21.0718 27.0001C21.0718 33.1422 25.9264 38.1213 31.9149 38.1213Z" fill="#4C4C4E" stroke="#4C4C4E" stroke-width="4" stroke-linecap="round" stroke-linejoin="round"/>
<path d="M60.5425 36.0466L75 43.4607V10.0972L60.5425 17.5113" stroke="#4C4C4E" stroke-width="5" stroke-linecap="round" stroke-linejoin="round"/>
</svg>
