<svg width="81" height="80" viewBox="0 0 81 80" fill="none" xmlns="http://www.w3.org/2000/svg">
<path d="M59.8846 4H21.1154C11.939 4 4.5 11.439 4.5 20.6154V59.3846C4.5 68.561 11.939 76 21.1154 76H59.8846C69.061 76 76.5 68.561 76.5 59.3846V20.6154C76.5 11.439 69.061 4 59.8846 4Z" stroke="#717250" stroke-width="8" stroke-linejoin="round"/>
<path d="M59.3914 22.3014C55.9156 19.1365 49.626 15 40.5 15C31.374 15 25.0844 19.1365 21.6085 22.3014C20.6643 23.1613 20.0911 24.3542 20.01 25.6284C19.9288 26.9027 20.3461 28.1586 21.1737 29.1312L25.9087 34.701C26.4843 35.3751 27.2826 35.8205 28.1587 35.9563C29.0348 36.0921 29.9306 35.9093 30.6834 35.4411C32.9457 34.0448 36.4969 32.3671 40.5028 32.3671C44.5088 32.3671 48.06 34.0448 50.3223 35.4411C51.0751 35.9093 51.9709 36.0921 52.847 35.9563C53.7231 35.8205 54.5214 35.3751 55.097 34.701L59.8263 29.1312C60.6539 28.1586 61.0712 26.9027 60.99 25.6284C60.9089 24.3542 60.3357 23.1613 59.3914 22.3014Z" fill="#FEC341" stroke="#717250" stroke-width="5" stroke-linejoin="round"/>
</svg>
