<svg width="103" height="103" viewBox="0 0 103 103" fill="none" xmlns="http://www.w3.org/2000/svg">
<path d="M1.5 1.5L86.9402 25.6511C95.5532 28.0857 101.5 35.9465 101.5 44.897V81.5C101.5 92.5457 92.5457 101.5 81.5 101.5H32.764C21.7183 101.5 12.764 92.5457 12.764 81.5V73.8556" stroke="#FEC341" stroke-width="3" stroke-linecap="round"/>
<path d="M12.7114 14.3002L76.9935 32.4493C85.6095 34.8819 91.5592 42.7441 91.5592 51.6969V73.0557C91.5592 84.1014 82.6049 93.0557 71.5592 93.0557H41.5928C30.5471 93.0557 21.5928 84.1014 21.5928 73.0557V71.2842" stroke="#4C4C4E" stroke-width="3" stroke-linecap="round"/>
<path d="M32.7891 32.3041L68.8763 42.5091C77.4883 44.9445 83.4339 52.8047 83.4339 61.7544V62.9707C83.4339 74.0164 74.4796 82.9707 63.4339 82.9707H52.5002C44.7646 82.9707 38.4937 76.6998 38.4937 68.9642V68.9642" stroke="#4C4C4E" stroke-width="3" stroke-linecap="round"/>
<path d="M47.6484 47.5928L65.2207 52.5688C69.6278 53.8168 72.6699 57.84 72.6699 62.4204V62.4204C72.6699 68.0753 68.0858 72.6594 62.4309 72.6594H57.3964C53.5693 72.6594 50.4669 69.557 50.4669 65.7299V65.7299" stroke="#4C4C4E" stroke-width="3" stroke-linecap="round"/>
</svg>
