<svg width="78" height="54" viewBox="0 0 78 54" fill="none" xmlns="http://www.w3.org/2000/svg">
<path d="M57 3.16699H6.6C4.61178 3.16699 3 4.80861 3 6.83365V47.1668C3 49.1919 4.61178 50.8335 6.6 50.8335H57C58.9882 50.8335 60.6 49.1919 60.6 47.1668V6.83365C60.6 4.80861 58.9882 3.16699 57 3.16699Z" stroke="#717250" stroke-width="5"/>
<path d="M31.8 37.9999C37.7647 37.9999 42.6 33.0751 42.6 27C42.6 20.9249 37.7647 16 31.8 16C25.8353 16 21 20.9249 21 27C21 33.0751 25.8353 37.9999 31.8 37.9999Z" fill="#FEC341" stroke="#717250" stroke-width="4" stroke-linecap="round" stroke-linejoin="round"/>
<path d="M60.6001 36.1671L75.0001 43.5004V10.5005L60.6001 17.8338" stroke="#717250" stroke-width="5" stroke-linecap="round" stroke-linejoin="round"/>
</svg>
